%TF.GenerationSoftware,KiCad,Pcbnew,8.99.0-77eaa75db1*%
%TF.CreationDate,2024-12-04T17:57:12+01:00*%
%TF.ProjectId,geheimbadge-controller,67656865-696d-4626-9164-67652d636f6e,1.0.0*%
%TF.SameCoordinates,Original*%
%TF.FileFunction,Legend,Bot*%
%TF.FilePolarity,Positive*%
%FSLAX46Y46*%
G04 Gerber Fmt 4.6, Leading zero omitted, Abs format (unit mm)*
G04 Created by KiCad (PCBNEW 8.99.0-77eaa75db1) date 2024-12-04 17:57:12*
%MOMM*%
%LPD*%
G01*
G04 APERTURE LIST*
G04 Aperture macros list*
%AMHorizOval*
0 Thick line with rounded ends*
0 $1 width*
0 $2 $3 position (X,Y) of the first rounded end (center of the circle)*
0 $4 $5 position (X,Y) of the second rounded end (center of the circle)*
0 Add line between two ends*
20,1,$1,$2,$3,$4,$5,0*
0 Add two circle primitives to create the rounded ends*
1,1,$1,$2,$3*
1,1,$1,$4,$5*%
%AMRotRect*
0 Rectangle, with rotation*
0 The origin of the aperture is its center*
0 $1 length*
0 $2 width*
0 $3 Rotation angle, in degrees counterclockwise*
0 Add horizontal line*
21,1,$1,$2,0,0,$3*%
%AMFreePoly0*
4,1,19,0.500000,-0.750000,0.000000,-0.750000,0.000000,-0.744911,-0.071157,-0.744911,-0.207708,-0.704816,-0.327430,-0.627875,-0.420627,-0.520320,-0.479746,-0.390866,-0.500000,-0.250000,-0.500000,0.250000,-0.479746,0.390866,-0.420627,0.520320,-0.327430,0.627875,-0.207708,0.704816,-0.071157,0.744911,0.000000,0.744911,0.000000,0.750000,0.500000,0.750000,0.500000,-0.750000,0.500000,-0.750000,
$1*%
%AMFreePoly1*
4,1,19,0.000000,0.744911,0.071157,0.744911,0.207708,0.704816,0.327430,0.627875,0.420627,0.520320,0.479746,0.390866,0.500000,0.250000,0.500000,-0.250000,0.479746,-0.390866,0.420627,-0.520320,0.327430,-0.627875,0.207708,-0.704816,0.071157,-0.744911,0.000000,-0.744911,0.000000,-0.750000,-0.500000,-0.750000,-0.500000,0.750000,0.000000,0.750000,0.000000,0.744911,0.000000,0.744911,
$1*%
%AMFreePoly2*
4,1,19,0.550000,-0.750000,0.000000,-0.750000,0.000000,-0.744911,-0.071157,-0.744911,-0.207708,-0.704816,-0.327430,-0.627875,-0.420627,-0.520320,-0.479746,-0.390866,-0.500000,-0.250000,-0.500000,0.250000,-0.479746,0.390866,-0.420627,0.520320,-0.327430,0.627875,-0.207708,0.704816,-0.071157,0.744911,0.000000,0.744911,0.000000,0.750000,0.550000,0.750000,0.550000,-0.750000,0.550000,-0.750000,
$1*%
%AMFreePoly3*
4,1,19,0.000000,0.744911,0.071157,0.744911,0.207708,0.704816,0.327430,0.627875,0.420627,0.520320,0.479746,0.390866,0.500000,0.250000,0.500000,-0.250000,0.479746,-0.390866,0.420627,-0.520320,0.327430,-0.627875,0.207708,-0.704816,0.071157,-0.744911,0.000000,-0.744911,0.000000,-0.750000,-0.550000,-0.750000,-0.550000,0.750000,0.000000,0.750000,0.000000,0.744911,0.000000,0.744911,
$1*%
G04 Aperture macros list end*
%ADD10C,0.150000*%
%ADD11C,0.120000*%
%ADD12C,0.000000*%
%ADD13R,1.700000X1.700000*%
%ADD14O,1.700000X1.700000*%
%ADD15C,0.650000*%
%ADD16O,1.000000X2.100000*%
%ADD17O,1.000000X1.600000*%
%ADD18RotRect,1.700000X1.700000X135.000000*%
%ADD19HorizOval,1.700000X0.000000X0.000000X0.000000X0.000000X0*%
%ADD20RotRect,1.700000X1.700000X45.000000*%
%ADD21HorizOval,1.700000X0.000000X0.000000X0.000000X0.000000X0*%
%ADD22C,1.000000*%
%ADD23R,1.000000X0.750000*%
%ADD24FreePoly0,180.000000*%
%ADD25FreePoly1,180.000000*%
%ADD26FreePoly2,180.000000*%
%ADD27R,1.000000X1.500000*%
%ADD28FreePoly3,180.000000*%
G04 APERTURE END LIST*
D10*
X82954819Y-94738095D02*
X82954819Y-95309523D01*
X83954819Y-95023809D02*
X82954819Y-95023809D01*
X83954819Y-95642857D02*
X82954819Y-95642857D01*
X82954819Y-95642857D02*
X82954819Y-96023809D01*
X82954819Y-96023809D02*
X83002438Y-96119047D01*
X83002438Y-96119047D02*
X83050057Y-96166666D01*
X83050057Y-96166666D02*
X83145295Y-96214285D01*
X83145295Y-96214285D02*
X83288152Y-96214285D01*
X83288152Y-96214285D02*
X83383390Y-96166666D01*
X83383390Y-96166666D02*
X83431009Y-96119047D01*
X83431009Y-96119047D02*
X83478628Y-96023809D01*
X83478628Y-96023809D02*
X83478628Y-95642857D01*
X83954819Y-97166666D02*
X83954819Y-96595238D01*
X83954819Y-96880952D02*
X82954819Y-96880952D01*
X82954819Y-96880952D02*
X83097676Y-96785714D01*
X83097676Y-96785714D02*
X83192914Y-96690476D01*
X83192914Y-96690476D02*
X83240533Y-96595238D01*
X134738094Y-108454819D02*
X134166666Y-108454819D01*
X134452380Y-109454819D02*
X134452380Y-108454819D01*
X133833332Y-109454819D02*
X133833332Y-108454819D01*
X133833332Y-108454819D02*
X133452380Y-108454819D01*
X133452380Y-108454819D02*
X133357142Y-108502438D01*
X133357142Y-108502438D02*
X133309523Y-108550057D01*
X133309523Y-108550057D02*
X133261904Y-108645295D01*
X133261904Y-108645295D02*
X133261904Y-108788152D01*
X133261904Y-108788152D02*
X133309523Y-108883390D01*
X133309523Y-108883390D02*
X133357142Y-108931009D01*
X133357142Y-108931009D02*
X133452380Y-108978628D01*
X133452380Y-108978628D02*
X133833332Y-108978628D01*
X132309523Y-109454819D02*
X132880951Y-109454819D01*
X132595237Y-109454819D02*
X132595237Y-108454819D01*
X132595237Y-108454819D02*
X132690475Y-108597676D01*
X132690475Y-108597676D02*
X132785713Y-108692914D01*
X132785713Y-108692914D02*
X132880951Y-108740533D01*
X131357142Y-109454819D02*
X131928570Y-109454819D01*
X131642856Y-109454819D02*
X131642856Y-108454819D01*
X131642856Y-108454819D02*
X131738094Y-108597676D01*
X131738094Y-108597676D02*
X131833332Y-108692914D01*
X131833332Y-108692914D02*
X131928570Y-108740533D01*
X90833332Y-98657200D02*
X90690475Y-98704819D01*
X90690475Y-98704819D02*
X90452380Y-98704819D01*
X90452380Y-98704819D02*
X90357142Y-98657200D01*
X90357142Y-98657200D02*
X90309523Y-98609580D01*
X90309523Y-98609580D02*
X90261904Y-98514342D01*
X90261904Y-98514342D02*
X90261904Y-98419104D01*
X90261904Y-98419104D02*
X90309523Y-98323866D01*
X90309523Y-98323866D02*
X90357142Y-98276247D01*
X90357142Y-98276247D02*
X90452380Y-98228628D01*
X90452380Y-98228628D02*
X90642856Y-98181009D01*
X90642856Y-98181009D02*
X90738094Y-98133390D01*
X90738094Y-98133390D02*
X90785713Y-98085771D01*
X90785713Y-98085771D02*
X90833332Y-97990533D01*
X90833332Y-97990533D02*
X90833332Y-97895295D01*
X90833332Y-97895295D02*
X90785713Y-97800057D01*
X90785713Y-97800057D02*
X90738094Y-97752438D01*
X90738094Y-97752438D02*
X90642856Y-97704819D01*
X90642856Y-97704819D02*
X90404761Y-97704819D01*
X90404761Y-97704819D02*
X90261904Y-97752438D01*
X89928570Y-97704819D02*
X89690475Y-98704819D01*
X89690475Y-98704819D02*
X89499999Y-97990533D01*
X89499999Y-97990533D02*
X89309523Y-98704819D01*
X89309523Y-98704819D02*
X89071428Y-97704819D01*
X88738094Y-97800057D02*
X88690475Y-97752438D01*
X88690475Y-97752438D02*
X88595237Y-97704819D01*
X88595237Y-97704819D02*
X88357142Y-97704819D01*
X88357142Y-97704819D02*
X88261904Y-97752438D01*
X88261904Y-97752438D02*
X88214285Y-97800057D01*
X88214285Y-97800057D02*
X88166666Y-97895295D01*
X88166666Y-97895295D02*
X88166666Y-97990533D01*
X88166666Y-97990533D02*
X88214285Y-98133390D01*
X88214285Y-98133390D02*
X88785713Y-98704819D01*
X88785713Y-98704819D02*
X88166666Y-98704819D01*
X84454819Y-95738095D02*
X84454819Y-96309523D01*
X85454819Y-96023809D02*
X84454819Y-96023809D01*
X85454819Y-96642857D02*
X84454819Y-96642857D01*
X84454819Y-96642857D02*
X84454819Y-97023809D01*
X84454819Y-97023809D02*
X84502438Y-97119047D01*
X84502438Y-97119047D02*
X84550057Y-97166666D01*
X84550057Y-97166666D02*
X84645295Y-97214285D01*
X84645295Y-97214285D02*
X84788152Y-97214285D01*
X84788152Y-97214285D02*
X84883390Y-97166666D01*
X84883390Y-97166666D02*
X84931009Y-97119047D01*
X84931009Y-97119047D02*
X84978628Y-97023809D01*
X84978628Y-97023809D02*
X84978628Y-96642857D01*
X84454819Y-97547619D02*
X84454819Y-98166666D01*
X84454819Y-98166666D02*
X84835771Y-97833333D01*
X84835771Y-97833333D02*
X84835771Y-97976190D01*
X84835771Y-97976190D02*
X84883390Y-98071428D01*
X84883390Y-98071428D02*
X84931009Y-98119047D01*
X84931009Y-98119047D02*
X85026247Y-98166666D01*
X85026247Y-98166666D02*
X85264342Y-98166666D01*
X85264342Y-98166666D02*
X85359580Y-98119047D01*
X85359580Y-98119047D02*
X85407200Y-98071428D01*
X85407200Y-98071428D02*
X85454819Y-97976190D01*
X85454819Y-97976190D02*
X85454819Y-97690476D01*
X85454819Y-97690476D02*
X85407200Y-97595238D01*
X85407200Y-97595238D02*
X85359580Y-97547619D01*
X73738094Y-116454819D02*
X73166666Y-116454819D01*
X73452380Y-117454819D02*
X73452380Y-116454819D01*
X72833332Y-117454819D02*
X72833332Y-116454819D01*
X72833332Y-116454819D02*
X72452380Y-116454819D01*
X72452380Y-116454819D02*
X72357142Y-116502438D01*
X72357142Y-116502438D02*
X72309523Y-116550057D01*
X72309523Y-116550057D02*
X72261904Y-116645295D01*
X72261904Y-116645295D02*
X72261904Y-116788152D01*
X72261904Y-116788152D02*
X72309523Y-116883390D01*
X72309523Y-116883390D02*
X72357142Y-116931009D01*
X72357142Y-116931009D02*
X72452380Y-116978628D01*
X72452380Y-116978628D02*
X72833332Y-116978628D01*
X71309523Y-117454819D02*
X71880951Y-117454819D01*
X71595237Y-117454819D02*
X71595237Y-116454819D01*
X71595237Y-116454819D02*
X71690475Y-116597676D01*
X71690475Y-116597676D02*
X71785713Y-116692914D01*
X71785713Y-116692914D02*
X71880951Y-116740533D01*
X70404761Y-116454819D02*
X70880951Y-116454819D01*
X70880951Y-116454819D02*
X70928570Y-116931009D01*
X70928570Y-116931009D02*
X70880951Y-116883390D01*
X70880951Y-116883390D02*
X70785713Y-116835771D01*
X70785713Y-116835771D02*
X70547618Y-116835771D01*
X70547618Y-116835771D02*
X70452380Y-116883390D01*
X70452380Y-116883390D02*
X70404761Y-116931009D01*
X70404761Y-116931009D02*
X70357142Y-117026247D01*
X70357142Y-117026247D02*
X70357142Y-117264342D01*
X70357142Y-117264342D02*
X70404761Y-117359580D01*
X70404761Y-117359580D02*
X70452380Y-117407200D01*
X70452380Y-117407200D02*
X70547618Y-117454819D01*
X70547618Y-117454819D02*
X70785713Y-117454819D01*
X70785713Y-117454819D02*
X70880951Y-117407200D01*
X70880951Y-117407200D02*
X70928570Y-117359580D01*
X120738094Y-118454819D02*
X120166666Y-118454819D01*
X120452380Y-119454819D02*
X120452380Y-118454819D01*
X119833332Y-119454819D02*
X119833332Y-118454819D01*
X119833332Y-118454819D02*
X119452380Y-118454819D01*
X119452380Y-118454819D02*
X119357142Y-118502438D01*
X119357142Y-118502438D02*
X119309523Y-118550057D01*
X119309523Y-118550057D02*
X119261904Y-118645295D01*
X119261904Y-118645295D02*
X119261904Y-118788152D01*
X119261904Y-118788152D02*
X119309523Y-118883390D01*
X119309523Y-118883390D02*
X119357142Y-118931009D01*
X119357142Y-118931009D02*
X119452380Y-118978628D01*
X119452380Y-118978628D02*
X119833332Y-118978628D01*
X118309523Y-119454819D02*
X118880951Y-119454819D01*
X118595237Y-119454819D02*
X118595237Y-118454819D01*
X118595237Y-118454819D02*
X118690475Y-118597676D01*
X118690475Y-118597676D02*
X118785713Y-118692914D01*
X118785713Y-118692914D02*
X118880951Y-118740533D01*
X117976189Y-118454819D02*
X117357142Y-118454819D01*
X117357142Y-118454819D02*
X117690475Y-118835771D01*
X117690475Y-118835771D02*
X117547618Y-118835771D01*
X117547618Y-118835771D02*
X117452380Y-118883390D01*
X117452380Y-118883390D02*
X117404761Y-118931009D01*
X117404761Y-118931009D02*
X117357142Y-119026247D01*
X117357142Y-119026247D02*
X117357142Y-119264342D01*
X117357142Y-119264342D02*
X117404761Y-119359580D01*
X117404761Y-119359580D02*
X117452380Y-119407200D01*
X117452380Y-119407200D02*
X117547618Y-119454819D01*
X117547618Y-119454819D02*
X117833332Y-119454819D01*
X117833332Y-119454819D02*
X117928570Y-119407200D01*
X117928570Y-119407200D02*
X117976189Y-119359580D01*
X80954819Y-94738095D02*
X80954819Y-95309523D01*
X81954819Y-95023809D02*
X80954819Y-95023809D01*
X81954819Y-95642857D02*
X80954819Y-95642857D01*
X80954819Y-95642857D02*
X80954819Y-96023809D01*
X80954819Y-96023809D02*
X81002438Y-96119047D01*
X81002438Y-96119047D02*
X81050057Y-96166666D01*
X81050057Y-96166666D02*
X81145295Y-96214285D01*
X81145295Y-96214285D02*
X81288152Y-96214285D01*
X81288152Y-96214285D02*
X81383390Y-96166666D01*
X81383390Y-96166666D02*
X81431009Y-96119047D01*
X81431009Y-96119047D02*
X81478628Y-96023809D01*
X81478628Y-96023809D02*
X81478628Y-95642857D01*
X81050057Y-96595238D02*
X81002438Y-96642857D01*
X81002438Y-96642857D02*
X80954819Y-96738095D01*
X80954819Y-96738095D02*
X80954819Y-96976190D01*
X80954819Y-96976190D02*
X81002438Y-97071428D01*
X81002438Y-97071428D02*
X81050057Y-97119047D01*
X81050057Y-97119047D02*
X81145295Y-97166666D01*
X81145295Y-97166666D02*
X81240533Y-97166666D01*
X81240533Y-97166666D02*
X81383390Y-97119047D01*
X81383390Y-97119047D02*
X81954819Y-96547619D01*
X81954819Y-96547619D02*
X81954819Y-97166666D01*
X118833332Y-89157200D02*
X118690475Y-89204819D01*
X118690475Y-89204819D02*
X118452380Y-89204819D01*
X118452380Y-89204819D02*
X118357142Y-89157200D01*
X118357142Y-89157200D02*
X118309523Y-89109580D01*
X118309523Y-89109580D02*
X118261904Y-89014342D01*
X118261904Y-89014342D02*
X118261904Y-88919104D01*
X118261904Y-88919104D02*
X118309523Y-88823866D01*
X118309523Y-88823866D02*
X118357142Y-88776247D01*
X118357142Y-88776247D02*
X118452380Y-88728628D01*
X118452380Y-88728628D02*
X118642856Y-88681009D01*
X118642856Y-88681009D02*
X118738094Y-88633390D01*
X118738094Y-88633390D02*
X118785713Y-88585771D01*
X118785713Y-88585771D02*
X118833332Y-88490533D01*
X118833332Y-88490533D02*
X118833332Y-88395295D01*
X118833332Y-88395295D02*
X118785713Y-88300057D01*
X118785713Y-88300057D02*
X118738094Y-88252438D01*
X118738094Y-88252438D02*
X118642856Y-88204819D01*
X118642856Y-88204819D02*
X118404761Y-88204819D01*
X118404761Y-88204819D02*
X118261904Y-88252438D01*
X117928570Y-88204819D02*
X117690475Y-89204819D01*
X117690475Y-89204819D02*
X117499999Y-88490533D01*
X117499999Y-88490533D02*
X117309523Y-89204819D01*
X117309523Y-89204819D02*
X117071428Y-88204819D01*
X116166666Y-89204819D02*
X116738094Y-89204819D01*
X116452380Y-89204819D02*
X116452380Y-88204819D01*
X116452380Y-88204819D02*
X116547618Y-88347676D01*
X116547618Y-88347676D02*
X116642856Y-88442914D01*
X116642856Y-88442914D02*
X116738094Y-88490533D01*
X132761904Y-97454819D02*
X132190476Y-97454819D01*
X132476190Y-98454819D02*
X132476190Y-97454819D01*
X131857142Y-98454819D02*
X131857142Y-97454819D01*
X131857142Y-97454819D02*
X131476190Y-97454819D01*
X131476190Y-97454819D02*
X131380952Y-97502438D01*
X131380952Y-97502438D02*
X131333333Y-97550057D01*
X131333333Y-97550057D02*
X131285714Y-97645295D01*
X131285714Y-97645295D02*
X131285714Y-97788152D01*
X131285714Y-97788152D02*
X131333333Y-97883390D01*
X131333333Y-97883390D02*
X131380952Y-97931009D01*
X131380952Y-97931009D02*
X131476190Y-97978628D01*
X131476190Y-97978628D02*
X131857142Y-97978628D01*
X130428571Y-97454819D02*
X130619047Y-97454819D01*
X130619047Y-97454819D02*
X130714285Y-97502438D01*
X130714285Y-97502438D02*
X130761904Y-97550057D01*
X130761904Y-97550057D02*
X130857142Y-97692914D01*
X130857142Y-97692914D02*
X130904761Y-97883390D01*
X130904761Y-97883390D02*
X130904761Y-98264342D01*
X130904761Y-98264342D02*
X130857142Y-98359580D01*
X130857142Y-98359580D02*
X130809523Y-98407200D01*
X130809523Y-98407200D02*
X130714285Y-98454819D01*
X130714285Y-98454819D02*
X130523809Y-98454819D01*
X130523809Y-98454819D02*
X130428571Y-98407200D01*
X130428571Y-98407200D02*
X130380952Y-98359580D01*
X130380952Y-98359580D02*
X130333333Y-98264342D01*
X130333333Y-98264342D02*
X130333333Y-98026247D01*
X130333333Y-98026247D02*
X130380952Y-97931009D01*
X130380952Y-97931009D02*
X130428571Y-97883390D01*
X130428571Y-97883390D02*
X130523809Y-97835771D01*
X130523809Y-97835771D02*
X130714285Y-97835771D01*
X130714285Y-97835771D02*
X130809523Y-97883390D01*
X130809523Y-97883390D02*
X130857142Y-97931009D01*
X130857142Y-97931009D02*
X130904761Y-98026247D01*
X105833333Y-119454819D02*
X105833333Y-120169104D01*
X105833333Y-120169104D02*
X105880952Y-120311961D01*
X105880952Y-120311961D02*
X105976190Y-120407200D01*
X105976190Y-120407200D02*
X106119047Y-120454819D01*
X106119047Y-120454819D02*
X106214285Y-120454819D01*
X105357142Y-120454819D02*
X105357142Y-119454819D01*
X105357142Y-119454819D02*
X104976190Y-119454819D01*
X104976190Y-119454819D02*
X104880952Y-119502438D01*
X104880952Y-119502438D02*
X104833333Y-119550057D01*
X104833333Y-119550057D02*
X104785714Y-119645295D01*
X104785714Y-119645295D02*
X104785714Y-119788152D01*
X104785714Y-119788152D02*
X104833333Y-119883390D01*
X104833333Y-119883390D02*
X104880952Y-119931009D01*
X104880952Y-119931009D02*
X104976190Y-119978628D01*
X104976190Y-119978628D02*
X105357142Y-119978628D01*
X104404761Y-119550057D02*
X104357142Y-119502438D01*
X104357142Y-119502438D02*
X104261904Y-119454819D01*
X104261904Y-119454819D02*
X104023809Y-119454819D01*
X104023809Y-119454819D02*
X103928571Y-119502438D01*
X103928571Y-119502438D02*
X103880952Y-119550057D01*
X103880952Y-119550057D02*
X103833333Y-119645295D01*
X103833333Y-119645295D02*
X103833333Y-119740533D01*
X103833333Y-119740533D02*
X103880952Y-119883390D01*
X103880952Y-119883390D02*
X104452380Y-120454819D01*
X104452380Y-120454819D02*
X103833333Y-120454819D01*
X76833332Y-98657200D02*
X76690475Y-98704819D01*
X76690475Y-98704819D02*
X76452380Y-98704819D01*
X76452380Y-98704819D02*
X76357142Y-98657200D01*
X76357142Y-98657200D02*
X76309523Y-98609580D01*
X76309523Y-98609580D02*
X76261904Y-98514342D01*
X76261904Y-98514342D02*
X76261904Y-98419104D01*
X76261904Y-98419104D02*
X76309523Y-98323866D01*
X76309523Y-98323866D02*
X76357142Y-98276247D01*
X76357142Y-98276247D02*
X76452380Y-98228628D01*
X76452380Y-98228628D02*
X76642856Y-98181009D01*
X76642856Y-98181009D02*
X76738094Y-98133390D01*
X76738094Y-98133390D02*
X76785713Y-98085771D01*
X76785713Y-98085771D02*
X76833332Y-97990533D01*
X76833332Y-97990533D02*
X76833332Y-97895295D01*
X76833332Y-97895295D02*
X76785713Y-97800057D01*
X76785713Y-97800057D02*
X76738094Y-97752438D01*
X76738094Y-97752438D02*
X76642856Y-97704819D01*
X76642856Y-97704819D02*
X76404761Y-97704819D01*
X76404761Y-97704819D02*
X76261904Y-97752438D01*
X75928570Y-97704819D02*
X75690475Y-98704819D01*
X75690475Y-98704819D02*
X75499999Y-97990533D01*
X75499999Y-97990533D02*
X75309523Y-98704819D01*
X75309523Y-98704819D02*
X75071428Y-97704819D01*
X74785713Y-97704819D02*
X74166666Y-97704819D01*
X74166666Y-97704819D02*
X74499999Y-98085771D01*
X74499999Y-98085771D02*
X74357142Y-98085771D01*
X74357142Y-98085771D02*
X74261904Y-98133390D01*
X74261904Y-98133390D02*
X74214285Y-98181009D01*
X74214285Y-98181009D02*
X74166666Y-98276247D01*
X74166666Y-98276247D02*
X74166666Y-98514342D01*
X74166666Y-98514342D02*
X74214285Y-98609580D01*
X74214285Y-98609580D02*
X74261904Y-98657200D01*
X74261904Y-98657200D02*
X74357142Y-98704819D01*
X74357142Y-98704819D02*
X74642856Y-98704819D01*
X74642856Y-98704819D02*
X74738094Y-98657200D01*
X74738094Y-98657200D02*
X74785713Y-98609580D01*
X115761904Y-96454819D02*
X115190476Y-96454819D01*
X115476190Y-97454819D02*
X115476190Y-96454819D01*
X114857142Y-97454819D02*
X114857142Y-96454819D01*
X114857142Y-96454819D02*
X114476190Y-96454819D01*
X114476190Y-96454819D02*
X114380952Y-96502438D01*
X114380952Y-96502438D02*
X114333333Y-96550057D01*
X114333333Y-96550057D02*
X114285714Y-96645295D01*
X114285714Y-96645295D02*
X114285714Y-96788152D01*
X114285714Y-96788152D02*
X114333333Y-96883390D01*
X114333333Y-96883390D02*
X114380952Y-96931009D01*
X114380952Y-96931009D02*
X114476190Y-96978628D01*
X114476190Y-96978628D02*
X114857142Y-96978628D01*
X113380952Y-96454819D02*
X113857142Y-96454819D01*
X113857142Y-96454819D02*
X113904761Y-96931009D01*
X113904761Y-96931009D02*
X113857142Y-96883390D01*
X113857142Y-96883390D02*
X113761904Y-96835771D01*
X113761904Y-96835771D02*
X113523809Y-96835771D01*
X113523809Y-96835771D02*
X113428571Y-96883390D01*
X113428571Y-96883390D02*
X113380952Y-96931009D01*
X113380952Y-96931009D02*
X113333333Y-97026247D01*
X113333333Y-97026247D02*
X113333333Y-97264342D01*
X113333333Y-97264342D02*
X113380952Y-97359580D01*
X113380952Y-97359580D02*
X113428571Y-97407200D01*
X113428571Y-97407200D02*
X113523809Y-97454819D01*
X113523809Y-97454819D02*
X113761904Y-97454819D01*
X113761904Y-97454819D02*
X113857142Y-97407200D01*
X113857142Y-97407200D02*
X113904761Y-97359580D01*
X130738094Y-111454819D02*
X130166666Y-111454819D01*
X130452380Y-112454819D02*
X130452380Y-111454819D01*
X129833332Y-112454819D02*
X129833332Y-111454819D01*
X129833332Y-111454819D02*
X129452380Y-111454819D01*
X129452380Y-111454819D02*
X129357142Y-111502438D01*
X129357142Y-111502438D02*
X129309523Y-111550057D01*
X129309523Y-111550057D02*
X129261904Y-111645295D01*
X129261904Y-111645295D02*
X129261904Y-111788152D01*
X129261904Y-111788152D02*
X129309523Y-111883390D01*
X129309523Y-111883390D02*
X129357142Y-111931009D01*
X129357142Y-111931009D02*
X129452380Y-111978628D01*
X129452380Y-111978628D02*
X129833332Y-111978628D01*
X128309523Y-112454819D02*
X128880951Y-112454819D01*
X128595237Y-112454819D02*
X128595237Y-111454819D01*
X128595237Y-111454819D02*
X128690475Y-111597676D01*
X128690475Y-111597676D02*
X128785713Y-111692914D01*
X128785713Y-111692914D02*
X128880951Y-111740533D01*
X127928570Y-111550057D02*
X127880951Y-111502438D01*
X127880951Y-111502438D02*
X127785713Y-111454819D01*
X127785713Y-111454819D02*
X127547618Y-111454819D01*
X127547618Y-111454819D02*
X127452380Y-111502438D01*
X127452380Y-111502438D02*
X127404761Y-111550057D01*
X127404761Y-111550057D02*
X127357142Y-111645295D01*
X127357142Y-111645295D02*
X127357142Y-111740533D01*
X127357142Y-111740533D02*
X127404761Y-111883390D01*
X127404761Y-111883390D02*
X127976189Y-112454819D01*
X127976189Y-112454819D02*
X127357142Y-112454819D01*
X116333333Y-118454819D02*
X116333333Y-119169104D01*
X116333333Y-119169104D02*
X116380952Y-119311961D01*
X116380952Y-119311961D02*
X116476190Y-119407200D01*
X116476190Y-119407200D02*
X116619047Y-119454819D01*
X116619047Y-119454819D02*
X116714285Y-119454819D01*
X115857142Y-119454819D02*
X115857142Y-118454819D01*
X115857142Y-118454819D02*
X115476190Y-118454819D01*
X115476190Y-118454819D02*
X115380952Y-118502438D01*
X115380952Y-118502438D02*
X115333333Y-118550057D01*
X115333333Y-118550057D02*
X115285714Y-118645295D01*
X115285714Y-118645295D02*
X115285714Y-118788152D01*
X115285714Y-118788152D02*
X115333333Y-118883390D01*
X115333333Y-118883390D02*
X115380952Y-118931009D01*
X115380952Y-118931009D02*
X115476190Y-118978628D01*
X115476190Y-118978628D02*
X115857142Y-118978628D01*
X114333333Y-119454819D02*
X114904761Y-119454819D01*
X114619047Y-119454819D02*
X114619047Y-118454819D01*
X114619047Y-118454819D02*
X114714285Y-118597676D01*
X114714285Y-118597676D02*
X114809523Y-118692914D01*
X114809523Y-118692914D02*
X114904761Y-118740533D01*
X132761904Y-99954819D02*
X132190476Y-99954819D01*
X132476190Y-100954819D02*
X132476190Y-99954819D01*
X131857142Y-100954819D02*
X131857142Y-99954819D01*
X131857142Y-99954819D02*
X131476190Y-99954819D01*
X131476190Y-99954819D02*
X131380952Y-100002438D01*
X131380952Y-100002438D02*
X131333333Y-100050057D01*
X131333333Y-100050057D02*
X131285714Y-100145295D01*
X131285714Y-100145295D02*
X131285714Y-100288152D01*
X131285714Y-100288152D02*
X131333333Y-100383390D01*
X131333333Y-100383390D02*
X131380952Y-100431009D01*
X131380952Y-100431009D02*
X131476190Y-100478628D01*
X131476190Y-100478628D02*
X131857142Y-100478628D01*
X130952380Y-99954819D02*
X130285714Y-99954819D01*
X130285714Y-99954819D02*
X130714285Y-100954819D01*
X105833333Y-121954819D02*
X105833333Y-122669104D01*
X105833333Y-122669104D02*
X105880952Y-122811961D01*
X105880952Y-122811961D02*
X105976190Y-122907200D01*
X105976190Y-122907200D02*
X106119047Y-122954819D01*
X106119047Y-122954819D02*
X106214285Y-122954819D01*
X105357142Y-122954819D02*
X105357142Y-121954819D01*
X105357142Y-121954819D02*
X104976190Y-121954819D01*
X104976190Y-121954819D02*
X104880952Y-122002438D01*
X104880952Y-122002438D02*
X104833333Y-122050057D01*
X104833333Y-122050057D02*
X104785714Y-122145295D01*
X104785714Y-122145295D02*
X104785714Y-122288152D01*
X104785714Y-122288152D02*
X104833333Y-122383390D01*
X104833333Y-122383390D02*
X104880952Y-122431009D01*
X104880952Y-122431009D02*
X104976190Y-122478628D01*
X104976190Y-122478628D02*
X105357142Y-122478628D01*
X104452380Y-121954819D02*
X103833333Y-121954819D01*
X103833333Y-121954819D02*
X104166666Y-122335771D01*
X104166666Y-122335771D02*
X104023809Y-122335771D01*
X104023809Y-122335771D02*
X103928571Y-122383390D01*
X103928571Y-122383390D02*
X103880952Y-122431009D01*
X103880952Y-122431009D02*
X103833333Y-122526247D01*
X103833333Y-122526247D02*
X103833333Y-122764342D01*
X103833333Y-122764342D02*
X103880952Y-122859580D01*
X103880952Y-122859580D02*
X103928571Y-122907200D01*
X103928571Y-122907200D02*
X104023809Y-122954819D01*
X104023809Y-122954819D02*
X104309523Y-122954819D01*
X104309523Y-122954819D02*
X104404761Y-122907200D01*
X104404761Y-122907200D02*
X104452380Y-122859580D01*
X113738094Y-118454819D02*
X113166666Y-118454819D01*
X113452380Y-119454819D02*
X113452380Y-118454819D01*
X112833332Y-119454819D02*
X112833332Y-118454819D01*
X112833332Y-118454819D02*
X112452380Y-118454819D01*
X112452380Y-118454819D02*
X112357142Y-118502438D01*
X112357142Y-118502438D02*
X112309523Y-118550057D01*
X112309523Y-118550057D02*
X112261904Y-118645295D01*
X112261904Y-118645295D02*
X112261904Y-118788152D01*
X112261904Y-118788152D02*
X112309523Y-118883390D01*
X112309523Y-118883390D02*
X112357142Y-118931009D01*
X112357142Y-118931009D02*
X112452380Y-118978628D01*
X112452380Y-118978628D02*
X112833332Y-118978628D01*
X111309523Y-119454819D02*
X111880951Y-119454819D01*
X111595237Y-119454819D02*
X111595237Y-118454819D01*
X111595237Y-118454819D02*
X111690475Y-118597676D01*
X111690475Y-118597676D02*
X111785713Y-118692914D01*
X111785713Y-118692914D02*
X111880951Y-118740533D01*
X110452380Y-118788152D02*
X110452380Y-119454819D01*
X110690475Y-118407200D02*
X110928570Y-119121485D01*
X110928570Y-119121485D02*
X110309523Y-119121485D01*
X119761904Y-100454819D02*
X119190476Y-100454819D01*
X119476190Y-101454819D02*
X119476190Y-100454819D01*
X118857142Y-101454819D02*
X118857142Y-100454819D01*
X118857142Y-100454819D02*
X118476190Y-100454819D01*
X118476190Y-100454819D02*
X118380952Y-100502438D01*
X118380952Y-100502438D02*
X118333333Y-100550057D01*
X118333333Y-100550057D02*
X118285714Y-100645295D01*
X118285714Y-100645295D02*
X118285714Y-100788152D01*
X118285714Y-100788152D02*
X118333333Y-100883390D01*
X118333333Y-100883390D02*
X118380952Y-100931009D01*
X118380952Y-100931009D02*
X118476190Y-100978628D01*
X118476190Y-100978628D02*
X118857142Y-100978628D01*
X117714285Y-100883390D02*
X117809523Y-100835771D01*
X117809523Y-100835771D02*
X117857142Y-100788152D01*
X117857142Y-100788152D02*
X117904761Y-100692914D01*
X117904761Y-100692914D02*
X117904761Y-100645295D01*
X117904761Y-100645295D02*
X117857142Y-100550057D01*
X117857142Y-100550057D02*
X117809523Y-100502438D01*
X117809523Y-100502438D02*
X117714285Y-100454819D01*
X117714285Y-100454819D02*
X117523809Y-100454819D01*
X117523809Y-100454819D02*
X117428571Y-100502438D01*
X117428571Y-100502438D02*
X117380952Y-100550057D01*
X117380952Y-100550057D02*
X117333333Y-100645295D01*
X117333333Y-100645295D02*
X117333333Y-100692914D01*
X117333333Y-100692914D02*
X117380952Y-100788152D01*
X117380952Y-100788152D02*
X117428571Y-100835771D01*
X117428571Y-100835771D02*
X117523809Y-100883390D01*
X117523809Y-100883390D02*
X117714285Y-100883390D01*
X117714285Y-100883390D02*
X117809523Y-100931009D01*
X117809523Y-100931009D02*
X117857142Y-100978628D01*
X117857142Y-100978628D02*
X117904761Y-101073866D01*
X117904761Y-101073866D02*
X117904761Y-101264342D01*
X117904761Y-101264342D02*
X117857142Y-101359580D01*
X117857142Y-101359580D02*
X117809523Y-101407200D01*
X117809523Y-101407200D02*
X117714285Y-101454819D01*
X117714285Y-101454819D02*
X117523809Y-101454819D01*
X117523809Y-101454819D02*
X117428571Y-101407200D01*
X117428571Y-101407200D02*
X117380952Y-101359580D01*
X117380952Y-101359580D02*
X117333333Y-101264342D01*
X117333333Y-101264342D02*
X117333333Y-101073866D01*
X117333333Y-101073866D02*
X117380952Y-100978628D01*
X117380952Y-100978628D02*
X117428571Y-100931009D01*
X117428571Y-100931009D02*
X117523809Y-100883390D01*
X79454819Y-95738095D02*
X79454819Y-96309523D01*
X80454819Y-96023809D02*
X79454819Y-96023809D01*
X80454819Y-96642857D02*
X79454819Y-96642857D01*
X79454819Y-96642857D02*
X79454819Y-97023809D01*
X79454819Y-97023809D02*
X79502438Y-97119047D01*
X79502438Y-97119047D02*
X79550057Y-97166666D01*
X79550057Y-97166666D02*
X79645295Y-97214285D01*
X79645295Y-97214285D02*
X79788152Y-97214285D01*
X79788152Y-97214285D02*
X79883390Y-97166666D01*
X79883390Y-97166666D02*
X79931009Y-97119047D01*
X79931009Y-97119047D02*
X79978628Y-97023809D01*
X79978628Y-97023809D02*
X79978628Y-96642857D01*
X79788152Y-98071428D02*
X80454819Y-98071428D01*
X79407200Y-97833333D02*
X80121485Y-97595238D01*
X80121485Y-97595238D02*
X80121485Y-98214285D01*
X79954819Y-104761905D02*
X79954819Y-105333333D01*
X80954819Y-105047619D02*
X79954819Y-105047619D01*
X80954819Y-105666667D02*
X79954819Y-105666667D01*
X79954819Y-105666667D02*
X79954819Y-106047619D01*
X79954819Y-106047619D02*
X80002438Y-106142857D01*
X80002438Y-106142857D02*
X80050057Y-106190476D01*
X80050057Y-106190476D02*
X80145295Y-106238095D01*
X80145295Y-106238095D02*
X80288152Y-106238095D01*
X80288152Y-106238095D02*
X80383390Y-106190476D01*
X80383390Y-106190476D02*
X80431009Y-106142857D01*
X80431009Y-106142857D02*
X80478628Y-106047619D01*
X80478628Y-106047619D02*
X80478628Y-105666667D01*
X80954819Y-107190476D02*
X80954819Y-106619048D01*
X80954819Y-106904762D02*
X79954819Y-106904762D01*
X79954819Y-106904762D02*
X80097676Y-106809524D01*
X80097676Y-106809524D02*
X80192914Y-106714286D01*
X80192914Y-106714286D02*
X80240533Y-106619048D01*
X79954819Y-107809524D02*
X79954819Y-107904762D01*
X79954819Y-107904762D02*
X80002438Y-108000000D01*
X80002438Y-108000000D02*
X80050057Y-108047619D01*
X80050057Y-108047619D02*
X80145295Y-108095238D01*
X80145295Y-108095238D02*
X80335771Y-108142857D01*
X80335771Y-108142857D02*
X80573866Y-108142857D01*
X80573866Y-108142857D02*
X80764342Y-108095238D01*
X80764342Y-108095238D02*
X80859580Y-108047619D01*
X80859580Y-108047619D02*
X80907200Y-108000000D01*
X80907200Y-108000000D02*
X80954819Y-107904762D01*
X80954819Y-107904762D02*
X80954819Y-107809524D01*
X80954819Y-107809524D02*
X80907200Y-107714286D01*
X80907200Y-107714286D02*
X80859580Y-107666667D01*
X80859580Y-107666667D02*
X80764342Y-107619048D01*
X80764342Y-107619048D02*
X80573866Y-107571429D01*
X80573866Y-107571429D02*
X80335771Y-107571429D01*
X80335771Y-107571429D02*
X80145295Y-107619048D01*
X80145295Y-107619048D02*
X80050057Y-107666667D01*
X80050057Y-107666667D02*
X80002438Y-107714286D01*
X80002438Y-107714286D02*
X79954819Y-107809524D01*
X83954819Y-104738095D02*
X83954819Y-105309523D01*
X84954819Y-105023809D02*
X83954819Y-105023809D01*
X84954819Y-105642857D02*
X83954819Y-105642857D01*
X83954819Y-105642857D02*
X83954819Y-106023809D01*
X83954819Y-106023809D02*
X84002438Y-106119047D01*
X84002438Y-106119047D02*
X84050057Y-106166666D01*
X84050057Y-106166666D02*
X84145295Y-106214285D01*
X84145295Y-106214285D02*
X84288152Y-106214285D01*
X84288152Y-106214285D02*
X84383390Y-106166666D01*
X84383390Y-106166666D02*
X84431009Y-106119047D01*
X84431009Y-106119047D02*
X84478628Y-106023809D01*
X84478628Y-106023809D02*
X84478628Y-105642857D01*
X84954819Y-106690476D02*
X84954819Y-106880952D01*
X84954819Y-106880952D02*
X84907200Y-106976190D01*
X84907200Y-106976190D02*
X84859580Y-107023809D01*
X84859580Y-107023809D02*
X84716723Y-107119047D01*
X84716723Y-107119047D02*
X84526247Y-107166666D01*
X84526247Y-107166666D02*
X84145295Y-107166666D01*
X84145295Y-107166666D02*
X84050057Y-107119047D01*
X84050057Y-107119047D02*
X84002438Y-107071428D01*
X84002438Y-107071428D02*
X83954819Y-106976190D01*
X83954819Y-106976190D02*
X83954819Y-106785714D01*
X83954819Y-106785714D02*
X84002438Y-106690476D01*
X84002438Y-106690476D02*
X84050057Y-106642857D01*
X84050057Y-106642857D02*
X84145295Y-106595238D01*
X84145295Y-106595238D02*
X84383390Y-106595238D01*
X84383390Y-106595238D02*
X84478628Y-106642857D01*
X84478628Y-106642857D02*
X84526247Y-106690476D01*
X84526247Y-106690476D02*
X84573866Y-106785714D01*
X84573866Y-106785714D02*
X84573866Y-106976190D01*
X84573866Y-106976190D02*
X84526247Y-107071428D01*
X84526247Y-107071428D02*
X84478628Y-107119047D01*
X84478628Y-107119047D02*
X84383390Y-107166666D01*
D11*
%TO.C,TP1*%
X84700000Y-93000000D02*
G75*
G02*
X83300000Y-93000000I-700000J0D01*
G01*
X83300000Y-93000000D02*
G75*
G02*
X84700000Y-93000000I700000J0D01*
G01*
%TO.C,TP11*%
X136700000Y-109000000D02*
G75*
G02*
X135300000Y-109000000I-700000J0D01*
G01*
X135300000Y-109000000D02*
G75*
G02*
X136700000Y-109000000I700000J0D01*
G01*
%TO.C,SW2*%
X86750000Y-103000000D02*
X86750000Y-101000000D01*
X88200000Y-99250000D02*
X87750000Y-99700000D01*
X88200000Y-99250000D02*
X90800000Y-99250000D01*
X88200000Y-104750000D02*
X87750000Y-104300000D01*
X88200000Y-104750000D02*
X90800000Y-104750000D01*
X90800000Y-99250000D02*
X91250000Y-99700000D01*
X90800000Y-104750000D02*
X91250000Y-104300000D01*
X92250000Y-103000000D02*
X92250000Y-101000000D01*
%TO.C,TP3*%
X86700000Y-94000000D02*
G75*
G02*
X85300000Y-94000000I-700000J0D01*
G01*
X85300000Y-94000000D02*
G75*
G02*
X86700000Y-94000000I700000J0D01*
G01*
%TO.C,TP15*%
X69700000Y-117000000D02*
G75*
G02*
X68300000Y-117000000I-700000J0D01*
G01*
X68300000Y-117000000D02*
G75*
G02*
X69700000Y-117000000I700000J0D01*
G01*
%TO.C,TP13*%
X119700000Y-120500000D02*
G75*
G02*
X118300000Y-120500000I-700000J0D01*
G01*
X118300000Y-120500000D02*
G75*
G02*
X119700000Y-120500000I700000J0D01*
G01*
%TO.C,TP2*%
X81700000Y-93000000D02*
G75*
G02*
X80300000Y-93000000I-700000J0D01*
G01*
X80300000Y-93000000D02*
G75*
G02*
X81700000Y-93000000I700000J0D01*
G01*
%TO.C,SW1*%
X114750000Y-93500000D02*
X114750000Y-91500000D01*
X116200000Y-89750000D02*
X115750000Y-90200000D01*
X116200000Y-89750000D02*
X118800000Y-89750000D01*
X116200000Y-95250000D02*
X115750000Y-94800000D01*
X116200000Y-95250000D02*
X118800000Y-95250000D01*
X118800000Y-89750000D02*
X119250000Y-90200000D01*
X118800000Y-95250000D02*
X119250000Y-94800000D01*
X120250000Y-93500000D02*
X120250000Y-91500000D01*
%TO.C,TP6*%
X134700000Y-98000000D02*
G75*
G02*
X133300000Y-98000000I-700000J0D01*
G01*
X133300000Y-98000000D02*
G75*
G02*
X134700000Y-98000000I700000J0D01*
G01*
%TO.C,JP2*%
X106600000Y-120300000D02*
X106600000Y-119700000D01*
X107300000Y-119000000D02*
X108700000Y-119000000D01*
X108700000Y-121000000D02*
X107300000Y-121000000D01*
X109400000Y-119700000D02*
X109400000Y-120300000D01*
X106600000Y-119700000D02*
G75*
G02*
X107300000Y-119000000I700000J0D01*
G01*
X107300000Y-121000000D02*
G75*
G02*
X106600000Y-120300000I0J700000D01*
G01*
X108700000Y-119000000D02*
G75*
G02*
X109400000Y-119700000I1J-699999D01*
G01*
X109400000Y-120300000D02*
G75*
G02*
X108700000Y-121000000I-699999J-1D01*
G01*
%TO.C,SW3*%
X72750000Y-103000000D02*
X72750000Y-101000000D01*
X74200000Y-99250000D02*
X73750000Y-99700000D01*
X74200000Y-99250000D02*
X76800000Y-99250000D01*
X74200000Y-104750000D02*
X73750000Y-104300000D01*
X74200000Y-104750000D02*
X76800000Y-104750000D01*
X76800000Y-99250000D02*
X77250000Y-99700000D01*
X76800000Y-104750000D02*
X77250000Y-104300000D01*
X78250000Y-103000000D02*
X78250000Y-101000000D01*
%TO.C,TP5*%
X117700000Y-97000000D02*
G75*
G02*
X116300000Y-97000000I-700000J0D01*
G01*
X116300000Y-97000000D02*
G75*
G02*
X117700000Y-97000000I700000J0D01*
G01*
%TO.C,TP12*%
X132700000Y-112000000D02*
G75*
G02*
X131300000Y-112000000I-700000J0D01*
G01*
X131300000Y-112000000D02*
G75*
G02*
X132700000Y-112000000I700000J0D01*
G01*
%TO.C,JP1*%
X113450000Y-121800000D02*
X113450000Y-121200000D01*
X114100000Y-120500000D02*
X116900000Y-120500000D01*
X116400000Y-123000000D02*
X116700000Y-122700000D01*
X116400000Y-123000000D02*
X117000000Y-123000000D01*
X116900000Y-122500000D02*
X114100000Y-122500000D01*
X117000000Y-123000000D02*
X116700000Y-122700000D01*
X117550000Y-121200000D02*
X117550000Y-121800000D01*
X113450000Y-121200000D02*
G75*
G02*
X114150000Y-120500000I700000J0D01*
G01*
X114150000Y-122500000D02*
G75*
G02*
X113450000Y-121800000I0J700000D01*
G01*
X116850000Y-120500000D02*
G75*
G02*
X117550000Y-121200000I1J-699999D01*
G01*
X117550000Y-121800000D02*
G75*
G02*
X116850000Y-122500000I-699999J-1D01*
G01*
%TO.C,TP7*%
X134700000Y-100500000D02*
G75*
G02*
X133300000Y-100500000I-700000J0D01*
G01*
X133300000Y-100500000D02*
G75*
G02*
X134700000Y-100500000I700000J0D01*
G01*
%TO.C,JP3*%
X106600000Y-122800000D02*
X106600000Y-122200000D01*
X107300000Y-121500000D02*
X108700000Y-121500000D01*
X108700000Y-123500000D02*
X107300000Y-123500000D01*
X109400000Y-122200000D02*
X109400000Y-122800000D01*
X106600000Y-122200000D02*
G75*
G02*
X107300000Y-121500000I700000J0D01*
G01*
X107300000Y-123500000D02*
G75*
G02*
X106600000Y-122800000I0J700000D01*
G01*
X108700000Y-121500000D02*
G75*
G02*
X109400000Y-122200000I1J-699999D01*
G01*
X109400000Y-122800000D02*
G75*
G02*
X108700000Y-123500000I-699999J-1D01*
G01*
%TO.C,TP14*%
X112700000Y-120500000D02*
G75*
G02*
X111300000Y-120500000I-700000J0D01*
G01*
X111300000Y-120500000D02*
G75*
G02*
X112700000Y-120500000I700000J0D01*
G01*
%TO.C,TP8*%
X121700000Y-101000000D02*
G75*
G02*
X120300000Y-101000000I-700000J0D01*
G01*
X120300000Y-101000000D02*
G75*
G02*
X121700000Y-101000000I700000J0D01*
G01*
%TO.C,TP4*%
X79700000Y-94000000D02*
G75*
G02*
X78300000Y-94000000I-700000J0D01*
G01*
X78300000Y-94000000D02*
G75*
G02*
X79700000Y-94000000I700000J0D01*
G01*
%TO.C,TP10*%
X81200000Y-103000000D02*
G75*
G02*
X79800000Y-103000000I-700000J0D01*
G01*
X79800000Y-103000000D02*
G75*
G02*
X81200000Y-103000000I700000J0D01*
G01*
%TO.C,TP9*%
X85200000Y-103000000D02*
G75*
G02*
X83800000Y-103000000I-700000J0D01*
G01*
X83800000Y-103000000D02*
G75*
G02*
X85200000Y-103000000I700000J0D01*
G01*
%TD*%
%LPC*%
D12*
G36*
X105931810Y-132503336D02*
G01*
X105934426Y-132503796D01*
X105937661Y-132504692D01*
X105941268Y-132506170D01*
X105945001Y-132508374D01*
X105946837Y-132509794D01*
X105948613Y-132511450D01*
X105950297Y-132513361D01*
X105951858Y-132515544D01*
X105953266Y-132518018D01*
X105954489Y-132520800D01*
X105955497Y-132523910D01*
X105956259Y-132527365D01*
X105956745Y-132531183D01*
X105956922Y-132535383D01*
X105956762Y-132539982D01*
X105956232Y-132544999D01*
X105955302Y-132550453D01*
X105953941Y-132556360D01*
X105952119Y-132562740D01*
X105949804Y-132569610D01*
X105946965Y-132576989D01*
X105943572Y-132584895D01*
X105939595Y-132593346D01*
X105935001Y-132602360D01*
X105938105Y-132603154D01*
X105928246Y-132620192D01*
X105917300Y-132636644D01*
X105905313Y-132652532D01*
X105892328Y-132667880D01*
X105863542Y-132697043D01*
X105831296Y-132724315D01*
X105795943Y-132749876D01*
X105757837Y-132773907D01*
X105717330Y-132796591D01*
X105674778Y-132818107D01*
X105630532Y-132838637D01*
X105584947Y-132858362D01*
X105491173Y-132896123D01*
X105303104Y-132969955D01*
X104961885Y-133108862D01*
X104941554Y-133089874D01*
X104920790Y-133071402D01*
X104899604Y-133053455D01*
X104878007Y-133036037D01*
X104856007Y-133019155D01*
X104833617Y-133002817D01*
X104810845Y-132987028D01*
X104787703Y-132971795D01*
X104764199Y-132957124D01*
X104740345Y-132943023D01*
X104716151Y-132929497D01*
X104691627Y-132916554D01*
X104666783Y-132904200D01*
X104641630Y-132892441D01*
X104616177Y-132881284D01*
X104590435Y-132870735D01*
X104645937Y-132842986D01*
X104791853Y-132781732D01*
X104944261Y-132722360D01*
X105101991Y-132666609D01*
X105263869Y-132616223D01*
X105345997Y-132593586D01*
X105428723Y-132572943D01*
X105511900Y-132554512D01*
X105595382Y-132538511D01*
X105679022Y-132525158D01*
X105762673Y-132514670D01*
X105846189Y-132507264D01*
X105929424Y-132503160D01*
X105929421Y-132503142D01*
X105931810Y-132503336D01*
G37*
G36*
X105936129Y-133025374D02*
G01*
X105961537Y-133027271D01*
X105985678Y-133029999D01*
X106008580Y-133033498D01*
X106030273Y-133037708D01*
X106050787Y-133042567D01*
X106070151Y-133048016D01*
X106088395Y-133053993D01*
X106105548Y-133060439D01*
X106121640Y-133067291D01*
X106136700Y-133074491D01*
X106150757Y-133081977D01*
X106163841Y-133089688D01*
X106175982Y-133097565D01*
X106187209Y-133105545D01*
X106197551Y-133113570D01*
X106207038Y-133121578D01*
X106215699Y-133129508D01*
X106223564Y-133137300D01*
X106230662Y-133144894D01*
X106237024Y-133152229D01*
X106242677Y-133159243D01*
X106251978Y-133172071D01*
X106258802Y-133182892D01*
X106263385Y-133191221D01*
X106266768Y-133198466D01*
X106273292Y-133241381D01*
X106276572Y-133282730D01*
X106276759Y-133322568D01*
X106274001Y-133360952D01*
X106268450Y-133397936D01*
X106260254Y-133433576D01*
X106249564Y-133467928D01*
X106236529Y-133501046D01*
X106221298Y-133532987D01*
X106204023Y-133563805D01*
X106184851Y-133593557D01*
X106163934Y-133622297D01*
X106141421Y-133650081D01*
X106117462Y-133676964D01*
X106065803Y-133728250D01*
X106010156Y-133776600D01*
X105951719Y-133822455D01*
X105891690Y-133866259D01*
X105831267Y-133908456D01*
X105714032Y-133989802D01*
X105659616Y-134029838D01*
X105609598Y-134070039D01*
X105551801Y-133965703D01*
X105492463Y-133862258D01*
X105431595Y-133759721D01*
X105369207Y-133658110D01*
X105305310Y-133557440D01*
X105239914Y-133457729D01*
X105173030Y-133358995D01*
X105104668Y-133261253D01*
X105173244Y-133228046D01*
X105239145Y-133197780D01*
X105302422Y-133170350D01*
X105363126Y-133145653D01*
X105421308Y-133123583D01*
X105477020Y-133104036D01*
X105530311Y-133086908D01*
X105581233Y-133072095D01*
X105629837Y-133059491D01*
X105676173Y-133048993D01*
X105720293Y-133040496D01*
X105762247Y-133033895D01*
X105802086Y-133029087D01*
X105839861Y-133025966D01*
X105875624Y-133024429D01*
X105909424Y-133024370D01*
X105936129Y-133025374D01*
G37*
G36*
X89443950Y-112190159D02*
G01*
X89496142Y-112305285D01*
X89539549Y-112424644D01*
X89574152Y-112547433D01*
X89599930Y-112672849D01*
X89616865Y-112800088D01*
X89624936Y-112928347D01*
X89624126Y-113056823D01*
X89614414Y-113184714D01*
X89595781Y-113311215D01*
X89568208Y-113435524D01*
X89531675Y-113556838D01*
X89486162Y-113674352D01*
X89431651Y-113787266D01*
X89368122Y-113894774D01*
X89332970Y-113946251D01*
X89295556Y-113996075D01*
X89203413Y-114080753D01*
X89106453Y-114158125D01*
X89005096Y-114228093D01*
X88899764Y-114290559D01*
X88790882Y-114345424D01*
X88678870Y-114392589D01*
X88564151Y-114431958D01*
X88447147Y-114463430D01*
X88328281Y-114486908D01*
X88207974Y-114502293D01*
X88086650Y-114509488D01*
X87964731Y-114508392D01*
X87842638Y-114498910D01*
X87720794Y-114480940D01*
X87599622Y-114454387D01*
X87479543Y-114419150D01*
X87405529Y-114382339D01*
X87328744Y-114337483D01*
X87250082Y-114285167D01*
X87170441Y-114225979D01*
X87090714Y-114160503D01*
X87011799Y-114089326D01*
X86934590Y-114013034D01*
X86859982Y-113932211D01*
X86788872Y-113847445D01*
X86722155Y-113759321D01*
X86660727Y-113668425D01*
X86605482Y-113575342D01*
X86557318Y-113480660D01*
X86517128Y-113384962D01*
X86500304Y-113336916D01*
X86485809Y-113288836D01*
X86473756Y-113240796D01*
X86464256Y-113192868D01*
X86531010Y-113126644D01*
X86591650Y-113067703D01*
X86647037Y-113015343D01*
X86698030Y-112968865D01*
X86745490Y-112927569D01*
X86790277Y-112890755D01*
X86833250Y-112857722D01*
X86875271Y-112827771D01*
X86917198Y-112800200D01*
X86959892Y-112774311D01*
X87004214Y-112749403D01*
X87051022Y-112724776D01*
X87155542Y-112673564D01*
X87280331Y-112615074D01*
X87273839Y-112651528D01*
X87268863Y-112688109D01*
X87265394Y-112724770D01*
X87263429Y-112761468D01*
X87262960Y-112798155D01*
X87263982Y-112834787D01*
X87266489Y-112871318D01*
X87270476Y-112907703D01*
X87275935Y-112943896D01*
X87282861Y-112979852D01*
X87291249Y-113015525D01*
X87301092Y-113050871D01*
X87312385Y-113085842D01*
X87325121Y-113120395D01*
X87339294Y-113154484D01*
X87354900Y-113188062D01*
X87376281Y-113235588D01*
X87398597Y-113280023D01*
X87422058Y-113321495D01*
X87446875Y-113360129D01*
X87473258Y-113396053D01*
X87501418Y-113429392D01*
X87531567Y-113460274D01*
X87563913Y-113488825D01*
X87598669Y-113515171D01*
X87636045Y-113539439D01*
X87676251Y-113561756D01*
X87719499Y-113582248D01*
X87765998Y-113601042D01*
X87815959Y-113618264D01*
X87869594Y-113634041D01*
X87927112Y-113648499D01*
X87987482Y-113650624D01*
X88045447Y-113650130D01*
X88101131Y-113646983D01*
X88154659Y-113641150D01*
X88206154Y-113632597D01*
X88255741Y-113621289D01*
X88303545Y-113607193D01*
X88349690Y-113590276D01*
X88394300Y-113570503D01*
X88437500Y-113547840D01*
X88479414Y-113522255D01*
X88520166Y-113493712D01*
X88559880Y-113462178D01*
X88598682Y-113427619D01*
X88636695Y-113390002D01*
X88674044Y-113349292D01*
X88703238Y-113309549D01*
X88729787Y-113268389D01*
X88753668Y-113225941D01*
X88774857Y-113182332D01*
X88793331Y-113137691D01*
X88809065Y-113092145D01*
X88822038Y-113045823D01*
X88832225Y-112998852D01*
X88839602Y-112951360D01*
X88844148Y-112903475D01*
X88845837Y-112855324D01*
X88844647Y-112807037D01*
X88840554Y-112758740D01*
X88833535Y-112710562D01*
X88823566Y-112662631D01*
X88810624Y-112615074D01*
X88805722Y-112597803D01*
X88800398Y-112580955D01*
X88788530Y-112548476D01*
X88775109Y-112517528D01*
X88760222Y-112488000D01*
X88743960Y-112459784D01*
X88726408Y-112432770D01*
X88707657Y-112406850D01*
X88687795Y-112381913D01*
X88666909Y-112357850D01*
X88645088Y-112334553D01*
X88622421Y-112311911D01*
X88598996Y-112289815D01*
X88574901Y-112268157D01*
X88550224Y-112246826D01*
X88499481Y-112204712D01*
X88549298Y-112189333D01*
X88600699Y-112175818D01*
X88653500Y-112163984D01*
X88707514Y-112153648D01*
X88762557Y-112144627D01*
X88818444Y-112136741D01*
X88932009Y-112123638D01*
X89161117Y-112103004D01*
X89273699Y-112092554D01*
X89382993Y-112080068D01*
X89443950Y-112190159D01*
G37*
G36*
X115864311Y-136304051D02*
G01*
X115887509Y-136305378D01*
X115910639Y-136307618D01*
X115933677Y-136310765D01*
X115956596Y-136314810D01*
X115979372Y-136319748D01*
X116001979Y-136325569D01*
X116024393Y-136332268D01*
X116046587Y-136339837D01*
X116068537Y-136348269D01*
X116090217Y-136357556D01*
X116111602Y-136367691D01*
X116132667Y-136378667D01*
X116153387Y-136390476D01*
X116173736Y-136403112D01*
X116193689Y-136416567D01*
X116213222Y-136430834D01*
X116232307Y-136445905D01*
X116250922Y-136461773D01*
X116269039Y-136478432D01*
X116286634Y-136495873D01*
X116303682Y-136514090D01*
X116320157Y-136533075D01*
X116336035Y-136552821D01*
X116351289Y-136573320D01*
X116365896Y-136594566D01*
X116379828Y-136616552D01*
X116393062Y-136639269D01*
X116405572Y-136662710D01*
X116417332Y-136686869D01*
X116428318Y-136711739D01*
X116428318Y-136710812D01*
X116449172Y-136806715D01*
X116471305Y-136902318D01*
X116494715Y-136997607D01*
X116519397Y-137092570D01*
X116545348Y-137187195D01*
X116572565Y-137281467D01*
X116601045Y-137375375D01*
X116630785Y-137468905D01*
X116452755Y-137517350D01*
X116274080Y-137563274D01*
X116094789Y-137606687D01*
X115914910Y-137647598D01*
X115734473Y-137686016D01*
X115553506Y-137721950D01*
X115372039Y-137755410D01*
X115190099Y-137786405D01*
X115179753Y-137606247D01*
X115171623Y-137419953D01*
X115170196Y-137325889D01*
X115171493Y-137231950D01*
X115176237Y-137138691D01*
X115185149Y-137046664D01*
X115198955Y-136956423D01*
X115218377Y-136868521D01*
X115230419Y-136825620D01*
X115244137Y-136783512D01*
X115259621Y-136742265D01*
X115276960Y-136701948D01*
X115296246Y-136662631D01*
X115317568Y-136624383D01*
X115341018Y-136587274D01*
X115366685Y-136551371D01*
X115394660Y-136516745D01*
X115425033Y-136483464D01*
X115457895Y-136451599D01*
X115493336Y-136421217D01*
X115512091Y-136407692D01*
X115531139Y-136395019D01*
X115550460Y-136383193D01*
X115570034Y-136372209D01*
X115589844Y-136362061D01*
X115609870Y-136352745D01*
X115630092Y-136344255D01*
X115650492Y-136336586D01*
X115671051Y-136329732D01*
X115691750Y-136323690D01*
X115712569Y-136318453D01*
X115733491Y-136314016D01*
X115754494Y-136310374D01*
X115775562Y-136307523D01*
X115796674Y-136305456D01*
X115817812Y-136304169D01*
X115817812Y-136304166D01*
X115841070Y-136303645D01*
X115864311Y-136304051D01*
G37*
G36*
X117656301Y-135637720D02*
G01*
X117707184Y-135758276D01*
X117754410Y-135880218D01*
X117797954Y-136003461D01*
X117837789Y-136127922D01*
X117873890Y-136253517D01*
X117906233Y-136380161D01*
X117934791Y-136507771D01*
X117959540Y-136636263D01*
X117957990Y-136635466D01*
X117894430Y-136748948D01*
X117855860Y-136686612D01*
X117820336Y-136622807D01*
X117787884Y-136557644D01*
X117758526Y-136491234D01*
X117732286Y-136423690D01*
X117709189Y-136355122D01*
X117689258Y-136285642D01*
X117672517Y-136215362D01*
X117658991Y-136144394D01*
X117648702Y-136072848D01*
X117641675Y-136000836D01*
X117637934Y-135928471D01*
X117637502Y-135855863D01*
X117640404Y-135783124D01*
X117646663Y-135710366D01*
X117656303Y-135637699D01*
X117656301Y-135637720D01*
G37*
G36*
X109242628Y-124233334D02*
G01*
X109272504Y-124234787D01*
X109301731Y-124237609D01*
X109330246Y-124241945D01*
X109357983Y-124247939D01*
X109371540Y-124251604D01*
X109384878Y-124255739D01*
X109397990Y-124260360D01*
X109410868Y-124265487D01*
X109423502Y-124271137D01*
X109435887Y-124277329D01*
X109448012Y-124284081D01*
X109459871Y-124291411D01*
X109471455Y-124299338D01*
X109482757Y-124307878D01*
X109493767Y-124317051D01*
X109504479Y-124326874D01*
X109514883Y-124337366D01*
X109524973Y-124348544D01*
X109534740Y-124360428D01*
X109544175Y-124373034D01*
X109553272Y-124386382D01*
X109562021Y-124400489D01*
X109570416Y-124415374D01*
X109578447Y-124431054D01*
X109586106Y-124447548D01*
X109593387Y-124464874D01*
X109591061Y-124465668D01*
X109595927Y-124488861D01*
X109599680Y-124511711D01*
X109602353Y-124534215D01*
X109603977Y-124556373D01*
X109604584Y-124578186D01*
X109604206Y-124599652D01*
X109602876Y-124620771D01*
X109600623Y-124641544D01*
X109597482Y-124661968D01*
X109593482Y-124682045D01*
X109588657Y-124701773D01*
X109583038Y-124721152D01*
X109576657Y-124740181D01*
X109569545Y-124758861D01*
X109561735Y-124777190D01*
X109553258Y-124795169D01*
X109544147Y-124812797D01*
X109534432Y-124830073D01*
X109524146Y-124846997D01*
X109513321Y-124863569D01*
X109490180Y-124895653D01*
X109465263Y-124926322D01*
X109438826Y-124955573D01*
X109411122Y-124983402D01*
X109382407Y-125009805D01*
X109352935Y-125034780D01*
X109348051Y-125020287D01*
X109342209Y-125006567D01*
X109335448Y-124993612D01*
X109327810Y-124981414D01*
X109319335Y-124969964D01*
X109310066Y-124959255D01*
X109300043Y-124949277D01*
X109289306Y-124940023D01*
X109277897Y-124931484D01*
X109265858Y-124923652D01*
X109253228Y-124916519D01*
X109240048Y-124910076D01*
X109226361Y-124904315D01*
X109212207Y-124899227D01*
X109182660Y-124891041D01*
X109151737Y-124885449D01*
X109119766Y-124882387D01*
X109087073Y-124881786D01*
X109053988Y-124883582D01*
X109020839Y-124887707D01*
X108987952Y-124894094D01*
X108955657Y-124902678D01*
X108924281Y-124913393D01*
X108902303Y-124926317D01*
X108879206Y-124941222D01*
X108855392Y-124958022D01*
X108831268Y-124976632D01*
X108807237Y-124996968D01*
X108783705Y-125018944D01*
X108761074Y-125042476D01*
X108739751Y-125067479D01*
X108720139Y-125093868D01*
X108702644Y-125121558D01*
X108694816Y-125135865D01*
X108687669Y-125150465D01*
X108681253Y-125165347D01*
X108675619Y-125180502D01*
X108670817Y-125195918D01*
X108666899Y-125211586D01*
X108663913Y-125227494D01*
X108661912Y-125243631D01*
X108660946Y-125259988D01*
X108661065Y-125276553D01*
X108662320Y-125293316D01*
X108664761Y-125310267D01*
X108668004Y-125326881D01*
X108671612Y-125342655D01*
X108675555Y-125357611D01*
X108679800Y-125371767D01*
X108684318Y-125385145D01*
X108689078Y-125397766D01*
X108694049Y-125409649D01*
X108699201Y-125420815D01*
X108704503Y-125431285D01*
X108709924Y-125441078D01*
X108715434Y-125450217D01*
X108721002Y-125458721D01*
X108726597Y-125466610D01*
X108732189Y-125473905D01*
X108737747Y-125480627D01*
X108743240Y-125486795D01*
X108748638Y-125492432D01*
X108753909Y-125497556D01*
X108759024Y-125502188D01*
X108763952Y-125506350D01*
X108773123Y-125513341D01*
X108781176Y-125518694D01*
X108787867Y-125522573D01*
X108792950Y-125525140D01*
X108797311Y-125526997D01*
X108699866Y-125572287D01*
X108598186Y-125615763D01*
X108545832Y-125635929D01*
X108492506Y-125654570D01*
X108438238Y-125671331D01*
X108383057Y-125685853D01*
X108326992Y-125697780D01*
X108270073Y-125706755D01*
X108212329Y-125712421D01*
X108153788Y-125714420D01*
X108094481Y-125712397D01*
X108034435Y-125705993D01*
X107973681Y-125694853D01*
X107912247Y-125678618D01*
X107892752Y-125666942D01*
X107874296Y-125654414D01*
X107856871Y-125641078D01*
X107840471Y-125626974D01*
X107825089Y-125612145D01*
X107810716Y-125596634D01*
X107797346Y-125580481D01*
X107784972Y-125563729D01*
X107773585Y-125546420D01*
X107763180Y-125528596D01*
X107753749Y-125510299D01*
X107745284Y-125491571D01*
X107737778Y-125472455D01*
X107731224Y-125452991D01*
X107725614Y-125433222D01*
X107720943Y-125413190D01*
X107717201Y-125392938D01*
X107714382Y-125372507D01*
X107711484Y-125331275D01*
X107712191Y-125289832D01*
X107716444Y-125248514D01*
X107724186Y-125207657D01*
X107735358Y-125167596D01*
X107749903Y-125128669D01*
X107767761Y-125091211D01*
X107796910Y-125038714D01*
X107827319Y-124988488D01*
X107858930Y-124940474D01*
X107891687Y-124894614D01*
X107925532Y-124850849D01*
X107960409Y-124809120D01*
X107996261Y-124769369D01*
X108033029Y-124731536D01*
X108109092Y-124661394D01*
X108188140Y-124598222D01*
X108269719Y-124541552D01*
X108353373Y-124490914D01*
X108438645Y-124445838D01*
X108525079Y-124405856D01*
X108612220Y-124370496D01*
X108699612Y-124339290D01*
X108786798Y-124311769D01*
X108873323Y-124287461D01*
X109042567Y-124246612D01*
X109085829Y-124241568D01*
X109107288Y-124239350D01*
X109128609Y-124237396D01*
X109149775Y-124235751D01*
X109170768Y-124234460D01*
X109191572Y-124233569D01*
X109212168Y-124233124D01*
X109212168Y-124233105D01*
X109242628Y-124233334D01*
G37*
G36*
X116988751Y-135927450D02*
G01*
X117029474Y-135934788D01*
X117068764Y-135944820D01*
X117106651Y-135957431D01*
X117143162Y-135972504D01*
X117178326Y-135989925D01*
X117212171Y-136009579D01*
X117244724Y-136031349D01*
X117276015Y-136055120D01*
X117306072Y-136080777D01*
X117334922Y-136108205D01*
X117362593Y-136137288D01*
X117389115Y-136167911D01*
X117438820Y-136233314D01*
X117484263Y-136303492D01*
X117525670Y-136377520D01*
X117563265Y-136454476D01*
X117597273Y-136533437D01*
X117627922Y-136613479D01*
X117655435Y-136693679D01*
X117680039Y-136773114D01*
X117721418Y-136925995D01*
X117717385Y-136927542D01*
X117608893Y-137002665D01*
X117500704Y-137075511D01*
X117391923Y-137144991D01*
X117337032Y-137178128D01*
X117281656Y-137210015D01*
X117225686Y-137240517D01*
X117169008Y-137269496D01*
X117111512Y-137296818D01*
X117053085Y-137322345D01*
X116993614Y-137345943D01*
X116932990Y-137367474D01*
X116871099Y-137386802D01*
X116807829Y-137403793D01*
X116703065Y-137084371D01*
X116677516Y-137000718D01*
X116653959Y-136916093D01*
X116633263Y-136830771D01*
X116616293Y-136745026D01*
X116603919Y-136659132D01*
X116597007Y-136573364D01*
X116596426Y-136487995D01*
X116598781Y-136445547D01*
X116603043Y-136403300D01*
X116609322Y-136361291D01*
X116617725Y-136319553D01*
X116628362Y-136278121D01*
X116641341Y-136237028D01*
X116656770Y-136196309D01*
X116674757Y-136155999D01*
X116695412Y-136116131D01*
X116718842Y-136076740D01*
X116731152Y-136060745D01*
X116744243Y-136045518D01*
X116758080Y-136031085D01*
X116772623Y-136017472D01*
X116787837Y-136004704D01*
X116803684Y-135992808D01*
X116820126Y-135981809D01*
X116837126Y-135971733D01*
X116854648Y-135962606D01*
X116872653Y-135954453D01*
X116891104Y-135947301D01*
X116909964Y-135941175D01*
X116929196Y-135936101D01*
X116948762Y-135932104D01*
X116968626Y-135929211D01*
X116988749Y-135927448D01*
X116988751Y-135927450D01*
G37*
G36*
X64000000Y-85000000D02*
G01*
X74000000Y-85000000D01*
X74000000Y-95000000D01*
X64000000Y-95000000D01*
X64000000Y-85000000D01*
G37*
G36*
X92269994Y-111859805D02*
G01*
X92248921Y-111914492D01*
X92231221Y-111970038D01*
X92216893Y-112026294D01*
X92205935Y-112083108D01*
X92198343Y-112140328D01*
X92194117Y-112197803D01*
X92193254Y-112255382D01*
X92195751Y-112312913D01*
X92201607Y-112370245D01*
X92210820Y-112427226D01*
X92223387Y-112483706D01*
X92239306Y-112539533D01*
X92258575Y-112594555D01*
X92281192Y-112648621D01*
X92307155Y-112701580D01*
X92332775Y-112742535D01*
X92358676Y-112781464D01*
X92385211Y-112818370D01*
X92412736Y-112853257D01*
X92441604Y-112886130D01*
X92472172Y-112916991D01*
X92504792Y-112945845D01*
X92539821Y-112972695D01*
X92577611Y-112997546D01*
X92618519Y-113020400D01*
X92662899Y-113041262D01*
X92711105Y-113060135D01*
X92763492Y-113077024D01*
X92820415Y-113091931D01*
X92882228Y-113104861D01*
X92949286Y-113115818D01*
X92993917Y-113121503D01*
X93038533Y-113124579D01*
X93083031Y-113125077D01*
X93127306Y-113123031D01*
X93171255Y-113118472D01*
X93214773Y-113111433D01*
X93257756Y-113101947D01*
X93300100Y-113090046D01*
X93341702Y-113075763D01*
X93382455Y-113059129D01*
X93422258Y-113040179D01*
X93461005Y-113018943D01*
X93498592Y-112995454D01*
X93534916Y-112969746D01*
X93569871Y-112941850D01*
X93603355Y-112911800D01*
X93643629Y-112865215D01*
X93680390Y-112814488D01*
X93713461Y-112760106D01*
X93742659Y-112702559D01*
X93767805Y-112642333D01*
X93788720Y-112579918D01*
X93805223Y-112515800D01*
X93817134Y-112450469D01*
X93824274Y-112384413D01*
X93826461Y-112318120D01*
X93823517Y-112252077D01*
X93815261Y-112186773D01*
X93801513Y-112122697D01*
X93792523Y-112091271D01*
X93782093Y-112060335D01*
X93770200Y-112029951D01*
X93756822Y-112000178D01*
X93741935Y-111971078D01*
X93725518Y-111942712D01*
X93822658Y-111962205D01*
X93905523Y-111977378D01*
X93981862Y-111992027D01*
X94059421Y-112009948D01*
X94101078Y-112021322D01*
X94145946Y-112034939D01*
X94194992Y-112051271D01*
X94249184Y-112070795D01*
X94309491Y-112093985D01*
X94376882Y-112121314D01*
X94452324Y-112153259D01*
X94536787Y-112190293D01*
X94540158Y-112259093D01*
X94540802Y-112327050D01*
X94538800Y-112394110D01*
X94534234Y-112460220D01*
X94527184Y-112525327D01*
X94517733Y-112589378D01*
X94505963Y-112652319D01*
X94491954Y-112714097D01*
X94475788Y-112774660D01*
X94457547Y-112833953D01*
X94437312Y-112891924D01*
X94415165Y-112948519D01*
X94391187Y-113003685D01*
X94365460Y-113057369D01*
X94338066Y-113109518D01*
X94309085Y-113160078D01*
X94278600Y-113208997D01*
X94246692Y-113256221D01*
X94213442Y-113301696D01*
X94178932Y-113345371D01*
X94143244Y-113387190D01*
X94106460Y-113427102D01*
X94068659Y-113465053D01*
X94029925Y-113500989D01*
X93990339Y-113534858D01*
X93949982Y-113566606D01*
X93908935Y-113596181D01*
X93867281Y-113623528D01*
X93825101Y-113648595D01*
X93782476Y-113671328D01*
X93739488Y-113691675D01*
X93696218Y-113709581D01*
X93571141Y-113752712D01*
X93444535Y-113786702D01*
X93316977Y-113811765D01*
X93189041Y-113828116D01*
X93061305Y-113835971D01*
X92934343Y-113835544D01*
X92808731Y-113827050D01*
X92685046Y-113810705D01*
X92563863Y-113786723D01*
X92445757Y-113755320D01*
X92331306Y-113716710D01*
X92221084Y-113671109D01*
X92115667Y-113618730D01*
X92015631Y-113559791D01*
X91921552Y-113494504D01*
X91834006Y-113423086D01*
X91758426Y-113352952D01*
X91690125Y-113277955D01*
X91628793Y-113198498D01*
X91574120Y-113114981D01*
X91525795Y-113027809D01*
X91483508Y-112937383D01*
X91446948Y-112844105D01*
X91415805Y-112748380D01*
X91389769Y-112650607D01*
X91368529Y-112551191D01*
X91351775Y-112450534D01*
X91339196Y-112349038D01*
X91330482Y-112247105D01*
X91325322Y-112145138D01*
X91323406Y-112043539D01*
X91324424Y-111942712D01*
X91443093Y-111910322D01*
X91562739Y-111882274D01*
X91683243Y-111858587D01*
X91804485Y-111839275D01*
X91926345Y-111824357D01*
X92048704Y-111813849D01*
X92171443Y-111807768D01*
X92294443Y-111806131D01*
X92269994Y-111859805D01*
G37*
G36*
X108435790Y-134285878D02*
G01*
X108469025Y-134286959D01*
X108501822Y-134288918D01*
X108534157Y-134291739D01*
X108566008Y-134295409D01*
X108597353Y-134299913D01*
X108628168Y-134305238D01*
X108658431Y-134311369D01*
X108688119Y-134318293D01*
X108717209Y-134325995D01*
X108745679Y-134334461D01*
X108773506Y-134343677D01*
X108800666Y-134353628D01*
X108827138Y-134364302D01*
X108852898Y-134375684D01*
X108877925Y-134387759D01*
X108902194Y-134400514D01*
X108925683Y-134413934D01*
X108948370Y-134428006D01*
X108970232Y-134442715D01*
X108991245Y-134458047D01*
X109011388Y-134473989D01*
X109030638Y-134490525D01*
X109048971Y-134507643D01*
X109066365Y-134525327D01*
X109082798Y-134543564D01*
X109098245Y-134562339D01*
X109112686Y-134581640D01*
X109126097Y-134601450D01*
X109138455Y-134621758D01*
X109149737Y-134642547D01*
X109159921Y-134663805D01*
X109161629Y-134663805D01*
X109172193Y-134701394D01*
X109180280Y-134738405D01*
X109185975Y-134774831D01*
X109189362Y-134810667D01*
X109190527Y-134845905D01*
X109189555Y-134880540D01*
X109186532Y-134914564D01*
X109181542Y-134947972D01*
X109174671Y-134980756D01*
X109166003Y-135012911D01*
X109155624Y-135044431D01*
X109143620Y-135075308D01*
X109130075Y-135105537D01*
X109115075Y-135135110D01*
X109098704Y-135164022D01*
X109081048Y-135192266D01*
X109062192Y-135219835D01*
X109042222Y-135246724D01*
X108999277Y-135298433D01*
X108952896Y-135347343D01*
X108903759Y-135393401D01*
X108852548Y-135436556D01*
X108799945Y-135476757D01*
X108746630Y-135513953D01*
X108693286Y-135548092D01*
X108375786Y-135712264D01*
X108309681Y-135548548D01*
X108238438Y-135387149D01*
X108162122Y-135228186D01*
X108080796Y-135071776D01*
X107994525Y-134918040D01*
X107903373Y-134767094D01*
X107807403Y-134619057D01*
X107706680Y-134474048D01*
X107751350Y-134450613D01*
X107796042Y-134428847D01*
X107840717Y-134408726D01*
X107885334Y-134390225D01*
X107929857Y-134373320D01*
X107974244Y-134357986D01*
X108018458Y-134344199D01*
X108062460Y-134331935D01*
X108106210Y-134321168D01*
X108149669Y-134311875D01*
X108192799Y-134304030D01*
X108235561Y-134297610D01*
X108277914Y-134292591D01*
X108319822Y-134288947D01*
X108361244Y-134286654D01*
X108402141Y-134285687D01*
X108435790Y-134285878D01*
G37*
G36*
X107905828Y-133507160D02*
G01*
X107929246Y-133508951D01*
X107952267Y-133511764D01*
X107974868Y-133515637D01*
X107997022Y-133520611D01*
X108018708Y-133526722D01*
X108039898Y-133534010D01*
X108060570Y-133542513D01*
X108080699Y-133552269D01*
X108100261Y-133563318D01*
X108119230Y-133575697D01*
X108137583Y-133589445D01*
X108155295Y-133604602D01*
X108172342Y-133621204D01*
X108188699Y-133639291D01*
X108204342Y-133658901D01*
X108210882Y-133671080D01*
X108216412Y-133685941D01*
X108221097Y-133706328D01*
X108223172Y-133731998D01*
X108220874Y-133762709D01*
X108212440Y-133798220D01*
X108196104Y-133838289D01*
X108184423Y-133859957D01*
X108170105Y-133882674D01*
X108152930Y-133906409D01*
X108132677Y-133931133D01*
X108109126Y-133956815D01*
X108082057Y-133983424D01*
X108051249Y-134010931D01*
X108016481Y-134039306D01*
X107977534Y-134068518D01*
X107934186Y-134098537D01*
X107886217Y-134129332D01*
X107833407Y-134160874D01*
X107775535Y-134193132D01*
X107712381Y-134226076D01*
X107643724Y-134259676D01*
X107569344Y-134293902D01*
X107568549Y-134297005D01*
X107530721Y-134271929D01*
X107492764Y-134244326D01*
X107454570Y-134214640D01*
X107416029Y-134183320D01*
X107256215Y-134050606D01*
X107214303Y-134017800D01*
X107171388Y-133986036D01*
X107127361Y-133955759D01*
X107082113Y-133927416D01*
X107035536Y-133901453D01*
X106987518Y-133878316D01*
X106937953Y-133858451D01*
X106912555Y-133849885D01*
X106886729Y-133842304D01*
X106934650Y-133825038D01*
X106986365Y-133804264D01*
X107099556Y-133754770D01*
X107223064Y-133698984D01*
X107353650Y-133642070D01*
X107420585Y-133614802D01*
X107488076Y-133589188D01*
X107555718Y-133565872D01*
X107623105Y-133545500D01*
X107689833Y-133528717D01*
X107755498Y-133516169D01*
X107819694Y-133508500D01*
X107882017Y-133506356D01*
X107882018Y-133506356D01*
X107882020Y-133506356D01*
X107882021Y-133506356D01*
X107882023Y-133506356D01*
X107882024Y-133506356D01*
X107882025Y-133506355D01*
X107882028Y-133506355D01*
X107882030Y-133506354D01*
X107882033Y-133506354D01*
X107882034Y-133506354D01*
X107882035Y-133506354D01*
X107882036Y-133506354D01*
X107882037Y-133506354D01*
X107905828Y-133507160D01*
G37*
D13*
%TO.C,J3*%
X97475000Y-124710000D03*
D14*
X97475000Y-127250000D03*
X100015000Y-124710000D03*
X100015000Y-127250000D03*
X102555000Y-124710000D03*
X102555000Y-127250000D03*
%TD*%
D15*
%TO.C,J1*%
X85390000Y-95600000D03*
X79610000Y-95600000D03*
D16*
X86820000Y-96130000D03*
D17*
X86820000Y-91950000D03*
D16*
X78180000Y-96130000D03*
D17*
X78180000Y-91950000D03*
%TD*%
D18*
%TO.C,J4*%
X109000000Y-133000000D03*
D19*
X110796051Y-131203949D03*
X112592102Y-129407898D03*
X114388154Y-127611846D03*
X116184205Y-125815795D03*
X117980256Y-124019744D03*
%TD*%
D20*
%TO.C,J2*%
X82019744Y-124019744D03*
D21*
X83815795Y-125815795D03*
X85611846Y-127611846D03*
X87407898Y-129407898D03*
X89203949Y-131203949D03*
X91000000Y-133000000D03*
%TD*%
D22*
%TO.C,TP1*%
X84000000Y-93000000D03*
%TD*%
%TO.C,TP11*%
X136000000Y-109000000D03*
%TD*%
D23*
%TO.C,SW2*%
X92500000Y-100125000D03*
X86500000Y-100125000D03*
X92500000Y-103875000D03*
X86500000Y-103875000D03*
%TD*%
D22*
%TO.C,TP3*%
X86000000Y-94000000D03*
%TD*%
%TO.C,TP15*%
X69000000Y-117000000D03*
%TD*%
%TO.C,TP13*%
X119000000Y-120500000D03*
%TD*%
%TO.C,TP2*%
X81000000Y-93000000D03*
%TD*%
D23*
%TO.C,SW1*%
X120500000Y-90625000D03*
X114500000Y-90625000D03*
X120500000Y-94375000D03*
X114500000Y-94375000D03*
%TD*%
D22*
%TO.C,TP6*%
X134000000Y-98000000D03*
%TD*%
D24*
%TO.C,JP2*%
X108650000Y-120000000D03*
D25*
X107350000Y-120000000D03*
%TD*%
D23*
%TO.C,SW3*%
X78500000Y-100125000D03*
X72500000Y-100125000D03*
X78500000Y-103875000D03*
X72500000Y-103875000D03*
%TD*%
D22*
%TO.C,TP5*%
X117000000Y-97000000D03*
%TD*%
%TO.C,TP12*%
X132000000Y-112000000D03*
%TD*%
D26*
%TO.C,JP1*%
X116800000Y-121500000D03*
D27*
X115500000Y-121500000D03*
D28*
X114200000Y-121500000D03*
%TD*%
D22*
%TO.C,TP7*%
X134000000Y-100500000D03*
%TD*%
D24*
%TO.C,JP3*%
X108650000Y-122500000D03*
D25*
X107350000Y-122500000D03*
%TD*%
D22*
%TO.C,TP14*%
X112000000Y-120500000D03*
%TD*%
%TO.C,TP8*%
X121000000Y-101000000D03*
%TD*%
%TO.C,TP4*%
X79000000Y-94000000D03*
%TD*%
%TO.C,TP10*%
X80500000Y-103000000D03*
%TD*%
%TO.C,TP9*%
X84500000Y-103000000D03*
%TD*%
%LPD*%
M02*
