M48
; DRILL file {KiCad 8.99.0-77eaa75db1} date 2024-12-04T17:57:14+0100
; FORMAT={-:-/ absolute / metric / decimal}
; #@! TF.CreationDate,2024-12-04T17:57:14+01:00
; #@! TF.GenerationSoftware,Kicad,Pcbnew,8.99.0-77eaa75db1
; #@! TF.FileFunction,Plated,1,2,PTH
FMAT,2
METRIC
; #@! TA.AperFunction,Plated,PTH,ViaDrill
T1C0.254
; #@! TA.AperFunction,Plated,PTH,ComponentDrill
T2C0.600
; #@! TA.AperFunction,Plated,PTH,ComponentDrill
T3C1.000
%
G90
G05
T1
X67.0Y-105.5
X67.0Y-110.5
X67.5Y-105.0
X67.5Y-111.0
X67.5Y-112.5
X68.0Y-105.5
X68.0Y-110.5
X68.5Y-105.0
X68.5Y-111.0
X68.5Y-116.0
X69.0Y-105.5
X69.0Y-110.5
X69.5Y-105.0
X69.5Y-111.0
X70.0Y-105.5
X70.0Y-106.5
X70.0Y-107.5
X70.0Y-108.5
X70.0Y-109.5
X70.0Y-110.5
X70.0Y-113.0
X70.5Y-98.0
X71.0Y-111.5
X71.0Y-114.0
X71.0Y-116.5
X71.5Y-94.5
X72.0Y-105.5
X72.0Y-106.5
X72.0Y-107.5
X72.0Y-108.5
X72.0Y-109.5
X72.0Y-110.5
X72.5Y-97.0
X72.5Y-98.0
X72.5Y-102.0
X72.5Y-105.0
X72.5Y-111.0
X73.0Y-105.5
X73.0Y-110.5
X73.0Y-113.5
X73.0Y-117.0
X73.5Y-92.0
X73.5Y-93.5
X73.5Y-105.0
X73.5Y-111.0
X74.0Y-105.5
X74.0Y-110.5
X74.5Y-105.0
X74.5Y-111.0
X74.5Y-114.5
X74.5Y-116.5
X75.0Y-105.5
X75.0Y-110.5
X75.5Y-114.0
X76.0Y-112.0
X77.0Y-110.5
X78.0Y-110.5
X79.0Y-98.5
X80.0Y-98.5
X81.0Y-94.0
X81.0Y-126.5
X82.121Y-94.465
X82.5Y-91.0
X82.5Y-93.0
X82.879Y-94.465
X83.0Y-120.5
X83.5Y-108.0
X83.5Y-112.0
X83.5Y-116.0
X84.0Y-94.0
X84.0Y-121.5
X85.0Y-98.5
X85.0Y-108.0
X85.5Y-120.5
X86.0Y-116.5
X86.5Y-98.0
X86.5Y-101.0
X86.5Y-103.0
X86.5Y-107.0
X86.5Y-122.5
X86.5Y-134.0
X86.5Y-140.0
X87.0Y-125.0
X87.408Y-134.5
X87.5Y-99.5
X87.5Y-112.0
X87.5Y-120.5
X88.0Y-125.0
X88.5Y-135.5
X88.5Y-142.5
X88.5Y-144.0
X89.204Y-136.0
X89.5Y-103.0
X89.5Y-104.5
X89.5Y-107.0
X89.5Y-116.0
X89.5Y-142.5
X89.5Y-144.0
X90.0Y-99.5
X91.5Y-92.0
X91.5Y-93.5
X92.5Y-107.0
X92.5Y-131.0
X93.0Y-101.0
X93.0Y-139.0
X93.5Y-133.0
X94.0Y-136.0
X94.5Y-130.5
X94.5Y-133.5
X95.0Y-107.0
X95.0Y-118.0
X95.0Y-133.0
X95.0Y-147.0
X95.5Y-128.5
X96.0Y-108.5
X96.0Y-130.5
X96.5Y-129.0
X97.0Y-115.5
X97.0Y-131.0
X97.0Y-136.0
X97.0Y-137.0
X97.5Y-111.0
X98.0Y-117.0
X98.0Y-119.5
X98.0Y-121.5
X98.5Y-99.5
X99.0Y-102.5
X99.0Y-108.5
X99.0Y-122.5
X99.5Y-135.0
X99.5Y-136.0
X99.5Y-137.0
X100.0Y-120.0
X100.0Y-121.0
X100.0Y-123.0
X100.0Y-147.0
X101.0Y-98.5
X101.5Y-134.0
X101.5Y-136.0
X103.0Y-121.0
X103.5Y-109.0
X103.5Y-111.0
X103.5Y-112.5
X103.5Y-115.0
X103.5Y-117.0
X103.5Y-135.0
X104.0Y-102.5
X104.5Y-134.0
X105.0Y-103.5
X105.0Y-109.0
X105.0Y-111.0
X105.0Y-112.5
X105.0Y-114.5
X105.0Y-121.0
X105.0Y-136.0
X105.0Y-139.0
X105.0Y-147.0
X106.0Y-120.0
X106.5Y-115.0
X107.0Y-134.5
X107.0Y-140.0
X107.0Y-141.0
X107.5Y-117.0
X107.5Y-137.0
X107.5Y-138.5
X108.0Y-143.0
X109.5Y-137.0
X110.0Y-144.0
X111.0Y-146.0
X111.5Y-121.5
X111.5Y-144.55
X111.5Y-145.5
X112.0Y-102.5
X112.0Y-104.0
X112.0Y-122.5
X112.0Y-135.0
X112.0Y-136.5
X112.0Y-144.0
X112.5Y-114.5
X112.5Y-138.5
X113.5Y-95.0
X113.5Y-96.0
X113.5Y-97.0
X113.5Y-122.5
X113.5Y-132.5
X114.0Y-120.0
X114.0Y-135.0
X114.5Y-138.5
X115.0Y-132.5
X116.0Y-120.0
X116.5Y-94.5
X117.0Y-90.5
X117.0Y-128.5
X117.0Y-131.5
X117.5Y-122.5
X117.5Y-129.5
X118.0Y-120.0
X118.0Y-134.5
X118.5Y-94.5
X118.5Y-96.0
X118.5Y-97.5
X118.5Y-99.0
X118.5Y-129.5
X119.0Y-91.0
X119.0Y-103.5
X119.0Y-130.5
X119.5Y-96.0
X119.5Y-99.0
X119.5Y-101.0
X119.5Y-114.5
X119.5Y-121.5
X120.0Y-120.5
X120.0Y-122.5
X120.5Y-91.5
X120.5Y-93.5
X120.5Y-96.0
X121.0Y-102.5
X121.0Y-109.0
X121.0Y-111.0
X121.0Y-113.0
X122.0Y-121.5
X122.5Y-108.5
X122.5Y-111.5
X123.5Y-93.5
X123.5Y-108.5
X123.5Y-111.5
X123.5Y-118.0
X123.5Y-123.0
X124.0Y-115.0
X124.0Y-117.5
X124.0Y-123.5
X124.5Y-111.5
X124.5Y-118.0
X124.5Y-123.0
X125.0Y-115.0
X125.0Y-117.5
X125.0Y-123.5
X125.25Y-114.0
X125.5Y-102.5
X125.5Y-118.0
X125.5Y-123.0
X126.0Y-97.5
X126.0Y-117.5
X126.0Y-123.5
X126.5Y-113.0
X126.5Y-118.0
X126.5Y-119.0
X126.5Y-120.0
X126.5Y-121.0
X126.5Y-122.0
X126.5Y-123.0
X127.0Y-93.5
X127.5Y-115.0
X127.75Y-114.0
X128.0Y-111.0
X128.25Y-112.5
X128.25Y-113.25
X128.5Y-101.5
X128.5Y-106.0
X128.5Y-118.0
X128.5Y-119.0
X128.5Y-120.0
X128.5Y-121.0
X128.5Y-122.0
X128.5Y-123.0
X129.0Y-93.5
X129.0Y-117.5
X129.0Y-123.5
X129.5Y-118.0
X129.5Y-123.0
X130.0Y-93.5
X130.0Y-115.0
X130.0Y-117.5
X130.0Y-123.5
X130.5Y-118.0
X130.5Y-123.0
X131.0Y-117.5
X131.0Y-123.5
X131.5Y-96.5
X131.5Y-118.0
X131.5Y-123.0
X132.0Y-97.5
X132.5Y-115.0
X133.0Y-101.5
X133.5Y-112.5
X134.5Y-109.0
T3
X82.02Y-124.02
X83.816Y-125.816
X85.612Y-127.612
X87.408Y-129.408
X89.204Y-131.204
X91.0Y-133.0
X97.475Y-124.71
X97.475Y-127.25
X100.015Y-124.71
X100.015Y-127.25
X102.555Y-124.71
X102.555Y-127.25
X109.0Y-133.0
X110.796Y-131.204
X112.592Y-129.408
X114.388Y-127.612
X116.184Y-125.816
X117.98Y-124.02
T2
X78.18Y-92.25G85X78.18Y-91.65
G05
X78.18Y-96.68G85X78.18Y-95.58
G05
X86.82Y-92.25G85X86.82Y-91.65
G05
X86.82Y-96.68G85X86.82Y-95.58
G05
M30
