%TF.GenerationSoftware,KiCad,Pcbnew,8.99.0-77eaa75db1*%
%TF.CreationDate,2024-12-04T17:57:00+01:00*%
%TF.ProjectId,geheimbadge-controller,67656865-696d-4626-9164-67652d636f6e,1.0.0*%
%TF.SameCoordinates,Original*%
%TF.FileFunction,Profile,NP*%
%FSLAX46Y46*%
G04 Gerber Fmt 4.6, Leading zero omitted, Abs format (unit mm)*
G04 Created by KiCad (PCBNEW 8.99.0-77eaa75db1) date 2024-12-04 17:57:00*
%MOMM*%
%LPD*%
G01*
G04 APERTURE LIST*
%TA.AperFunction,Profile*%
%ADD10C,0.100000*%
%TD*%
G04 APERTURE END LIST*
D10*
X116981598Y-86861199D02*
X117026996Y-86862000D01*
X117106399Y-86864304D01*
X117144600Y-86865800D01*
X117231300Y-86869904D01*
X117265899Y-86871903D01*
X117352298Y-86877602D01*
X117388500Y-86880303D01*
X117483398Y-86888200D01*
X117512600Y-86890900D01*
X117611297Y-86900605D01*
X117645897Y-86904305D01*
X117744999Y-86915902D01*
X117769199Y-86918801D01*
X117868499Y-86931603D01*
X117891598Y-86934701D01*
X118014599Y-86952004D01*
X118036197Y-86955102D01*
X118141098Y-86971001D01*
X118162899Y-86974404D01*
X118331096Y-87001901D01*
X118371998Y-87008202D01*
X118468498Y-87022599D01*
X118570698Y-87036904D01*
X118674698Y-87050805D01*
X118853397Y-87072900D01*
X118970997Y-87086800D01*
X119083599Y-87099198D01*
X119189197Y-87110200D01*
X119288700Y-87119698D01*
X119397400Y-87129304D01*
X119417099Y-87131104D01*
X119483398Y-87137605D01*
X119501697Y-87139504D01*
X119544597Y-87144105D01*
X119572197Y-87147301D01*
X119622997Y-87153405D01*
X119653396Y-87157403D01*
X119690197Y-87162400D01*
X119719097Y-87166604D01*
X119756199Y-87172204D01*
X119793499Y-87178201D01*
X119819698Y-87182702D01*
X119868797Y-87191804D01*
X119896499Y-87197205D01*
X119952099Y-87209000D01*
X119970497Y-87213204D01*
X120033497Y-87228600D01*
X120047496Y-87232201D01*
X120195999Y-87288003D01*
X120219799Y-87285401D01*
X120225097Y-87287301D01*
X120221496Y-87297601D01*
X120257599Y-87311204D01*
X120282898Y-87309403D01*
X120295299Y-87314301D01*
X120294998Y-87315003D01*
X120381500Y-87312104D01*
X120599998Y-87408700D01*
X120625297Y-87408700D01*
X120645199Y-87409104D01*
X120738498Y-87413300D01*
X120755298Y-87414399D01*
X120855900Y-87423798D01*
X120874298Y-87426003D01*
X120979999Y-87441498D01*
X120996196Y-87444299D01*
X121078598Y-87460503D01*
X121104099Y-87466004D01*
X121160000Y-87479005D01*
X121171398Y-87481805D01*
X121240497Y-87500199D01*
X121249298Y-87502801D01*
X121296898Y-87516999D01*
X121323997Y-87525498D01*
X121361900Y-87537804D01*
X121379398Y-87543603D01*
X121423698Y-87559106D01*
X121449497Y-87568398D01*
X121501796Y-87588105D01*
X121530300Y-87599305D01*
X121561798Y-87612099D01*
X121586998Y-87622399D01*
X121617599Y-87635400D01*
X121677498Y-87661301D01*
X121697696Y-87669701D01*
X121713897Y-87676202D01*
X121734398Y-87684106D01*
X121750698Y-87690102D01*
X121768799Y-87696603D01*
X121788097Y-87703202D01*
X121803398Y-87708199D01*
X121826198Y-87715203D01*
X121848999Y-87721802D01*
X121878196Y-87722802D01*
X122011200Y-87731904D01*
X122085197Y-87739404D01*
X122201198Y-87754700D01*
X122286197Y-87768403D01*
X122392997Y-87788605D01*
X122482998Y-87808205D01*
X122575599Y-87830704D01*
X122668499Y-87855599D01*
X122756298Y-87881303D01*
X122846496Y-87910004D01*
X122929100Y-87938302D01*
X123025596Y-87973702D01*
X123102398Y-88003602D01*
X123190899Y-88040299D01*
X123272796Y-88076401D01*
X123361698Y-88117905D01*
X123436298Y-88154702D01*
X123517299Y-88196801D01*
X123599598Y-88242005D01*
X123677498Y-88287202D01*
X123756897Y-88335801D01*
X123823997Y-88379105D01*
X123912899Y-88439805D01*
X123969700Y-88481003D01*
X124068397Y-88557099D01*
X124114998Y-88595605D01*
X124218097Y-88686501D01*
X124237499Y-88704903D01*
X124327697Y-88897599D01*
X124793197Y-89318101D01*
X125295097Y-90267701D01*
X125349197Y-90238205D01*
X125358497Y-90255402D01*
X125358997Y-90255204D01*
X125363998Y-90265404D01*
X125364597Y-90266503D01*
X125365097Y-90266304D01*
X125367798Y-90272499D01*
X125373100Y-90282105D01*
X125375698Y-90289200D01*
X125377899Y-90293702D01*
X125377399Y-90293900D01*
X125377998Y-90295304D01*
X125378998Y-90297699D01*
X125379596Y-90297501D01*
X125384998Y-90313500D01*
X125386596Y-90317505D01*
X125388199Y-90317101D01*
X125394199Y-90339302D01*
X125572998Y-90824501D01*
X125578899Y-90852204D01*
X125590297Y-90910599D01*
X125596897Y-90947205D01*
X125602997Y-90983002D01*
X125610496Y-91028901D01*
X125615989Y-91065705D01*
X125906296Y-90644799D01*
X127604194Y-90395699D01*
X127606491Y-90387802D01*
X127676193Y-90408402D01*
X127701896Y-90415505D01*
X127726898Y-90422104D01*
X127728996Y-90422600D01*
X127750297Y-90427201D01*
X127750198Y-90427704D01*
X127750396Y-90427803D01*
X127748993Y-90433800D01*
X128124092Y-90534302D01*
X128161094Y-90549302D01*
X128208694Y-90569298D01*
X128255592Y-90589699D01*
X128284691Y-90602700D01*
X128313698Y-90615898D01*
X128335693Y-90626000D01*
X128381195Y-90647400D01*
X128408195Y-90660302D01*
X128471893Y-90691399D01*
X128505096Y-90707901D01*
X128564293Y-90738205D01*
X128586395Y-90749604D01*
X128684494Y-90801201D01*
X128714492Y-90816498D01*
X128730491Y-90824402D01*
X128744896Y-90831101D01*
X128772293Y-90843102D01*
X128788696Y-90849800D01*
X128808998Y-90857598D01*
X128812996Y-90859101D01*
X128830696Y-90864998D01*
X128848198Y-90870202D01*
X128855995Y-90871804D01*
X128912597Y-90872902D01*
X130160194Y-91341401D01*
X130172195Y-91351403D01*
X130212295Y-91386101D01*
X130230598Y-91402298D01*
X130269996Y-91438103D01*
X130302498Y-91468598D01*
X130330993Y-91495804D01*
X130373291Y-91536904D01*
X130387092Y-91550499D01*
X130427192Y-91590302D01*
X130442795Y-91605904D01*
X130495697Y-91659501D01*
X130504097Y-91668099D01*
X130558998Y-91724404D01*
X130622192Y-91790001D01*
X130631294Y-91799599D01*
X130676292Y-91846802D01*
X130692192Y-91863800D01*
X130736297Y-91911202D01*
X130762497Y-91939904D01*
X130793197Y-91974305D01*
X130821892Y-92007103D01*
X130858894Y-92050400D01*
X130895996Y-92095101D01*
X130912697Y-92115700D01*
X130956794Y-92172501D01*
X130976692Y-92199105D01*
X131017296Y-92255303D01*
X131032394Y-92277001D01*
X131089691Y-92364205D01*
X131099891Y-92380600D01*
X131142494Y-92452401D01*
X131151695Y-92468804D01*
X131195396Y-92550499D01*
X131205597Y-92570801D01*
X131246895Y-92657799D01*
X131256294Y-92678902D01*
X131285896Y-92748803D01*
X131298095Y-92779099D01*
X131324592Y-92849099D01*
X131336296Y-92881600D01*
X131353096Y-92930405D01*
X131367393Y-92973999D01*
X131382698Y-93022698D01*
X131397293Y-93070900D01*
X131407394Y-93105599D01*
X131426597Y-93173699D01*
X131434395Y-93202103D01*
X131451095Y-93265099D01*
X131455696Y-93282799D01*
X131476196Y-93362801D01*
X131479393Y-93375405D01*
X131516495Y-93524300D01*
X131531692Y-93581803D01*
X131545791Y-93633103D01*
X131559196Y-93679505D01*
X131574493Y-93729500D01*
X131585991Y-93765099D01*
X131598793Y-93802498D01*
X131614097Y-93844902D01*
X131624092Y-93871498D01*
X131639793Y-93909798D01*
X131646492Y-93925301D01*
X131659897Y-93955002D01*
X131677696Y-93991501D01*
X131679596Y-93995201D01*
X131698295Y-94029503D01*
X131704292Y-94040001D01*
X131710792Y-94050904D01*
X131730293Y-94081704D01*
X131735992Y-94090104D01*
X131783394Y-94157502D01*
X131794395Y-94173203D01*
X131833694Y-94230202D01*
X131850197Y-94254600D01*
X131875793Y-94292801D01*
X131886192Y-94308502D01*
X131929092Y-94374100D01*
X131944496Y-94398002D01*
X131990593Y-94470505D01*
X132006897Y-94496605D01*
X132045395Y-94559402D01*
X132059494Y-94582702D01*
X132107391Y-94663299D01*
X132115997Y-94677902D01*
X132135391Y-94711098D01*
X132151893Y-94739899D01*
X132186294Y-94801201D01*
X132203094Y-94831703D01*
X132234291Y-94889603D01*
X132259193Y-94937500D01*
X132277595Y-94973801D01*
X132297195Y-95013901D01*
X132317398Y-95056099D01*
X132323692Y-95069099D01*
X132348198Y-95117500D01*
X132372993Y-95164802D01*
X132406891Y-95227104D01*
X132438392Y-95283600D01*
X132475395Y-95348099D01*
X132509392Y-95405899D01*
X132526596Y-95434502D01*
X132559791Y-95488701D01*
X132589592Y-95535698D01*
X132642997Y-95617599D01*
X132656097Y-95637901D01*
X132690498Y-95692200D01*
X132697792Y-95703804D01*
X132737495Y-95767204D01*
X132747993Y-95784202D01*
X132776993Y-95831604D01*
X132787094Y-95848198D01*
X132822593Y-95907699D01*
X132840591Y-95938202D01*
X132873291Y-95995201D01*
X133041992Y-96211899D01*
X132985893Y-96255600D01*
X133053894Y-96336998D01*
X133354995Y-96224304D01*
X134947395Y-96833404D01*
X134952896Y-96826401D01*
X134958893Y-96831200D01*
X134959594Y-96830398D01*
X134965591Y-96835701D01*
X134965797Y-96835503D01*
X134966697Y-96836304D01*
X134966896Y-96836098D01*
X134968292Y-96837501D01*
X134968796Y-96837105D01*
X134975692Y-96844200D01*
X134975998Y-96844299D01*
X134978096Y-96846504D01*
X134986793Y-96853500D01*
X134987991Y-96855102D01*
X134993194Y-96859398D01*
X134992897Y-96859802D01*
X134994995Y-96861603D01*
X134993797Y-96862999D01*
X135598495Y-97681702D01*
X135498794Y-99046501D01*
X135517395Y-99074303D01*
X135529991Y-99094101D01*
X135570297Y-99159901D01*
X135580291Y-99176800D01*
X135616592Y-99241402D01*
X135627594Y-99261803D01*
X135663292Y-99331402D01*
X135674194Y-99353599D01*
X135702293Y-99413700D01*
X135714096Y-99440101D01*
X135742393Y-99506401D01*
X135754791Y-99536899D01*
X135777893Y-99596599D01*
X135787292Y-99622200D01*
X135806495Y-99676601D01*
X135817398Y-99709000D01*
X135832794Y-99756599D01*
X135844497Y-99794601D01*
X135860695Y-99850002D01*
X135871391Y-99888599D01*
X135884193Y-99937099D01*
X135894394Y-99977600D01*
X135905594Y-100025001D01*
X135916794Y-100074901D01*
X135925895Y-100117302D01*
X135936592Y-100170101D01*
X135944893Y-100213901D01*
X135953293Y-100260700D01*
X135959396Y-100297001D01*
X135969391Y-100359100D01*
X135974594Y-100393600D01*
X135982498Y-100448902D01*
X135986892Y-100481899D01*
X135996094Y-100555500D01*
X135999191Y-100582001D01*
X136007698Y-100657902D01*
X136010696Y-100678802D01*
X136014396Y-100700401D01*
X136020294Y-100731800D01*
X136025291Y-100756500D01*
X136033897Y-100796902D01*
X136040596Y-100827400D01*
X136049591Y-100865803D01*
X136058792Y-100903801D01*
X136067596Y-100938801D01*
X136089897Y-101023300D01*
X136100792Y-101062401D01*
X136111397Y-101099399D01*
X136136497Y-101182400D01*
X136147293Y-101216801D01*
X136156196Y-101243900D01*
X136187896Y-101336502D01*
X136194496Y-101356300D01*
X136206398Y-101392403D01*
X136211891Y-101409202D01*
X136225792Y-101452301D01*
X136231193Y-101469700D01*
X136241691Y-101503403D01*
X136246597Y-101519401D01*
X136261894Y-101570103D01*
X136268997Y-101594402D01*
X136291298Y-101672001D01*
X136298393Y-101697201D01*
X136309791Y-101738800D01*
X136314392Y-101756000D01*
X136326996Y-101803600D01*
X136331497Y-101821003D01*
X136341697Y-101860901D01*
X136345993Y-101878300D01*
X136353096Y-101907402D01*
X136357994Y-101927601D01*
X136368995Y-101975002D01*
X136376091Y-102006401D01*
X136389991Y-102070103D01*
X136397194Y-102104801D01*
X136404297Y-102140701D01*
X136410392Y-102172802D01*
X136413597Y-102190601D01*
X136419098Y-102222401D01*
X136425293Y-102259799D01*
X136438392Y-102352801D01*
X136440391Y-102369899D01*
X136445091Y-102415198D01*
X136445793Y-102417800D01*
X136446991Y-102422500D01*
X136449898Y-102432101D01*
X136459793Y-102462802D01*
X136464096Y-102474898D01*
X136470894Y-102492900D01*
X136473396Y-102499400D01*
X136481491Y-102519000D01*
X136484291Y-102525302D01*
X136488098Y-102533500D01*
X136491897Y-102541201D01*
X136515396Y-102583899D01*
X136547294Y-102644301D01*
X136561493Y-102672099D01*
X136584198Y-102718402D01*
X136593193Y-102737300D01*
X136618492Y-102792701D01*
X136627792Y-102813899D01*
X136657196Y-102884501D01*
X136666298Y-102907599D01*
X136706695Y-103019900D01*
X136713394Y-103040400D01*
X136741897Y-103166701D01*
X136753196Y-103180098D01*
X136753296Y-103180499D01*
X136745392Y-103182502D01*
X136749695Y-103201499D01*
X136796196Y-103261599D01*
X136893196Y-103718100D01*
X136875892Y-103816901D01*
X136886291Y-103893401D01*
X136899498Y-103891700D01*
X136900398Y-103898501D01*
X136893295Y-103944999D01*
X136910591Y-104072101D01*
X136912796Y-104071898D01*
X136913795Y-104082499D01*
X136914192Y-104082499D01*
X136914993Y-104095099D01*
X136915497Y-104098201D01*
X136915596Y-104098201D01*
X136915695Y-104099299D01*
X136917892Y-104112899D01*
X136918892Y-104118399D01*
X136920395Y-104126101D01*
X136924797Y-104146899D01*
X136930694Y-104172599D01*
X136936294Y-104194701D01*
X136941192Y-104212699D01*
X136946693Y-104230700D01*
X136960991Y-104273700D01*
X136982292Y-104341399D01*
X136985397Y-104352099D01*
X136998291Y-104397899D01*
X137003593Y-104417800D01*
X137015396Y-104463900D01*
X137023796Y-104498301D01*
X137031295Y-104530101D01*
X137036995Y-104555602D01*
X137042595Y-104581199D01*
X137050293Y-104617202D01*
X137056793Y-104649299D01*
X137073097Y-104732901D01*
X137080497Y-104773002D01*
X137096595Y-104865001D01*
X137101295Y-104893699D01*
X137109291Y-104943702D01*
X137111694Y-104959102D01*
X137118896Y-105006900D01*
X137120796Y-105019900D01*
X137129394Y-105079299D01*
X137131691Y-105095500D01*
X137138794Y-105147799D01*
X137140693Y-105161898D01*
X137147796Y-105217101D01*
X137150291Y-105237502D01*
X137162391Y-105339202D01*
X137165695Y-105368998D01*
X137171791Y-105427802D01*
X137172996Y-105440200D01*
X137178291Y-105495299D01*
X137180092Y-105514399D01*
X137197792Y-105716601D01*
X137203598Y-105777202D01*
X137208793Y-105826499D01*
X137213791Y-105868602D01*
X137218498Y-105904300D01*
X137223198Y-105933799D01*
X137225097Y-105944999D01*
X137224891Y-105944999D01*
X137226097Y-105952300D01*
X137150894Y-105964202D01*
X137179191Y-106336100D01*
X137516998Y-106262000D01*
X137517692Y-106265399D01*
X137523597Y-106298301D01*
X137524795Y-106297999D01*
X137527191Y-106310500D01*
X137526291Y-106313899D01*
X137542495Y-106405002D01*
X137543297Y-106404898D01*
X137544098Y-106410300D01*
X137543792Y-106412200D01*
X137545593Y-106422400D01*
X137547493Y-106436202D01*
X137556297Y-106510600D01*
X137558197Y-106529799D01*
X137562492Y-106579600D01*
X137565498Y-106620799D01*
X137567695Y-106653701D01*
X137571197Y-106715999D01*
X137572693Y-106746100D01*
X137575493Y-106814002D01*
X137578697Y-106899501D01*
X137579094Y-106912101D01*
X137589691Y-107261302D01*
X137591491Y-107304500D01*
X137596092Y-107390399D01*
X137598694Y-107427802D01*
X137601494Y-107464599D01*
X137609092Y-107550799D01*
X137616493Y-107622302D01*
X137621696Y-107665301D01*
X137628998Y-107718799D01*
X137631195Y-107733100D01*
X137634796Y-107754802D01*
X137640793Y-107772601D01*
X137651092Y-107803901D01*
X137671196Y-107866900D01*
X137681595Y-107900500D01*
X137696991Y-107951899D01*
X137706192Y-107983500D01*
X137722397Y-108041099D01*
X137733398Y-108082000D01*
X137746895Y-108134200D01*
X137755996Y-108170298D01*
X137768295Y-108221900D01*
X137776397Y-108257201D01*
X137787193Y-108306201D01*
X137796898Y-108352698D01*
X137805793Y-108398200D01*
X137814193Y-108444499D01*
X137821892Y-108489199D01*
X137828697Y-108531699D01*
X137834991Y-108573901D01*
X137842994Y-108633899D01*
X137848396Y-108679801D01*
X137853592Y-108728900D01*
X137855896Y-108753600D01*
X137859894Y-108803698D01*
X137862495Y-108842299D01*
X137866394Y-108921801D01*
X137867294Y-108955500D01*
X137868095Y-109011599D01*
X137868095Y-109031401D01*
X137866691Y-109107001D01*
X137865692Y-109131999D01*
X137860695Y-109217101D01*
X137858993Y-109237899D01*
X137852592Y-109303401D01*
X137851097Y-109317199D01*
X137837196Y-109416900D01*
X137834991Y-109430201D01*
X137818397Y-109518500D01*
X137815796Y-109530600D01*
X137813194Y-109553401D01*
X137809097Y-109594802D01*
X137804992Y-109642100D01*
X137800796Y-109695701D01*
X137796592Y-109755999D01*
X137792495Y-109819098D01*
X137784195Y-109970599D01*
X137776596Y-110137401D01*
X137773292Y-110222201D01*
X137767395Y-110405700D01*
X137764793Y-110502101D01*
X137762794Y-110590098D01*
X137760894Y-110690200D01*
X137759597Y-110780398D01*
X137756492Y-111076999D01*
X137755897Y-111201201D01*
X137755798Y-111311000D01*
X137756294Y-111414698D01*
X137757194Y-111491702D01*
X137759094Y-111566401D01*
X137760894Y-111614200D01*
X137796493Y-111675002D01*
X137798393Y-111676299D01*
X137804191Y-111686301D01*
X137803398Y-111686801D01*
X137823196Y-111720599D01*
X137826393Y-111726600D01*
X137789291Y-111746798D01*
X138084991Y-112073100D01*
X138209495Y-112494399D01*
X138190391Y-112860400D01*
X138201393Y-112930499D01*
X138205391Y-112959899D01*
X138214798Y-113042399D01*
X138217796Y-113073802D01*
X138223793Y-113156901D01*
X138225395Y-113189200D01*
X138227997Y-113276301D01*
X138228195Y-113303599D01*
X138227295Y-113383601D01*
X138226394Y-113409701D01*
X138221695Y-113496501D01*
X138219993Y-113519900D01*
X138210495Y-113614699D01*
X138207992Y-113635001D01*
X138192795Y-113736102D01*
X138190597Y-113748599D01*
X138169998Y-113850299D01*
X138167495Y-113860801D01*
X138144096Y-113924201D01*
X138147194Y-113939799D01*
X138147094Y-113940200D01*
X138138992Y-113938102D01*
X138092392Y-114064700D01*
X138096298Y-114102099D01*
X138093795Y-114109099D01*
X138078094Y-114103400D01*
X138049797Y-114180098D01*
X138051094Y-114214400D01*
X138045494Y-114227401D01*
X138034195Y-114222400D01*
X138020294Y-114260199D01*
X138020294Y-114281298D01*
X138019096Y-114283801D01*
X138012695Y-114280700D01*
X137992393Y-114335799D01*
X137991295Y-114338000D01*
X137939995Y-114311301D01*
X137888992Y-114611602D01*
X137792793Y-114747302D01*
X137787895Y-114994800D01*
X137787597Y-115009002D01*
X137786796Y-115040500D01*
X137785095Y-115085700D01*
X137783294Y-115121901D01*
X137082695Y-116545901D01*
X137078598Y-116549399D01*
X136899994Y-117086799D01*
X136228897Y-117459899D01*
X136154297Y-117639800D01*
X136127891Y-117628901D01*
X135596695Y-118911797D01*
X135347892Y-119104096D01*
X135168098Y-119347600D01*
X135162697Y-119378697D01*
X135160492Y-119391198D01*
X135148895Y-119455899D01*
X135120598Y-119609399D01*
X135008094Y-119588597D01*
X134956093Y-120107900D01*
X135052391Y-120115498D01*
X135050392Y-120140797D01*
X135046791Y-120193398D01*
X135043892Y-120246198D01*
X135041595Y-120298299D01*
X135039993Y-120347798D01*
X135039192Y-120393697D01*
X135038894Y-120441499D01*
X135039291Y-120495499D01*
X135040191Y-120535600D01*
X135041794Y-120580800D01*
X135049293Y-120725400D01*
X135052597Y-120794900D01*
X135053497Y-120816098D01*
X135056091Y-120886300D01*
X135056793Y-120908196D01*
X135058197Y-120960000D01*
X135058792Y-120993699D01*
X135059196Y-121039300D01*
X135059196Y-121073399D01*
X135058891Y-121114999D01*
X135057892Y-121164098D01*
X135056892Y-121196198D01*
X135053993Y-121256699D01*
X135051498Y-121296899D01*
X135046692Y-121358399D01*
X135044296Y-121384099D01*
X135038093Y-121441098D01*
X135035896Y-121459100D01*
X135023491Y-121544900D01*
X135020393Y-121563699D01*
X135008598Y-121627599D01*
X135003692Y-121652097D01*
X134986992Y-121727898D01*
X134983597Y-121741799D01*
X134964592Y-121814500D01*
X134957397Y-121840199D01*
X134940597Y-121896600D01*
X134935196Y-121913999D01*
X134917892Y-121966496D01*
X134906791Y-121998799D01*
X134888893Y-122048798D01*
X134879295Y-122074498D01*
X134863495Y-122115197D01*
X134846496Y-122157800D01*
X134833297Y-122190099D01*
X134816292Y-122230496D01*
X134806991Y-122252396D01*
X134784096Y-122305199D01*
X134773391Y-122329400D01*
X134763298Y-122351998D01*
X134753494Y-122373498D01*
X134724792Y-122435300D01*
X134717598Y-122450700D01*
X134703193Y-122481099D01*
X134692192Y-122503899D01*
X134655891Y-122578099D01*
X134643295Y-122603299D01*
X134609398Y-122670197D01*
X134596595Y-122694898D01*
X134564392Y-122756398D01*
X134551796Y-122779897D01*
X134522094Y-122834798D01*
X134505592Y-122864697D01*
X134476997Y-122915299D01*
X132921394Y-123722398D01*
X132925194Y-123731099D01*
X132778991Y-123796300D01*
X132619392Y-123878999D01*
X132219093Y-124251099D01*
X132192894Y-124266297D01*
X132167297Y-124281098D01*
X132117294Y-124309197D01*
X132088295Y-124325299D01*
X132063591Y-124338696D01*
X132040191Y-124351197D01*
X131979797Y-124382897D01*
X131965095Y-124390599D01*
X131950096Y-124398297D01*
X131947998Y-124399400D01*
X131936897Y-124405499D01*
X131935898Y-124406098D01*
X131930595Y-124409398D01*
X131928894Y-124410497D01*
X131904197Y-124427697D01*
X131872093Y-124451997D01*
X131836097Y-124481099D01*
X131787895Y-124522500D01*
X131744697Y-124561799D01*
X131695396Y-124608899D01*
X131646896Y-124657597D01*
X131601295Y-124705697D01*
X131563896Y-124747098D01*
X131520996Y-124797097D01*
X131495491Y-124828698D01*
X131471397Y-124860597D01*
X131462494Y-124873498D01*
X131454391Y-124889897D01*
X131452591Y-124888997D01*
X131440498Y-124909699D01*
X131429794Y-124903397D01*
X131096595Y-125509698D01*
X131084793Y-125522797D01*
X131026596Y-125584599D01*
X131023796Y-125587399D01*
X130803291Y-125867997D01*
X130750595Y-125891797D01*
X130747497Y-125909097D01*
X130746696Y-125910298D01*
X130704193Y-125938897D01*
X130694298Y-125976498D01*
X130693596Y-125977300D01*
X130687294Y-125980496D01*
X130673095Y-126043199D01*
X130666893Y-126068200D01*
X130245994Y-126887399D01*
X130244194Y-126889600D01*
X130156296Y-126985898D01*
X130140991Y-127001599D01*
X130091194Y-127050897D01*
X130074394Y-127067098D01*
X130030098Y-127108197D01*
X130009895Y-127126397D01*
X129981895Y-127151196D01*
X129960495Y-127169698D01*
X129927894Y-127197400D01*
X129812797Y-127292996D01*
X129738594Y-127356000D01*
X129669693Y-127415597D01*
X129598594Y-127478700D01*
X129535392Y-127536199D01*
X129475593Y-127591897D01*
X129417595Y-127647500D01*
X129364593Y-127699799D01*
X129312492Y-127752698D01*
X129271698Y-127795598D01*
X129216392Y-127855798D01*
X129191894Y-127883698D01*
X129153091Y-127929398D01*
X129130897Y-127956998D01*
X129108993Y-127985597D01*
X129094391Y-128005898D01*
X129087494Y-128016099D01*
X129078598Y-128034200D01*
X129059395Y-128072499D01*
X128998794Y-128184598D01*
X128985496Y-128207398D01*
X128923095Y-128307698D01*
X128900894Y-128341100D01*
X128854492Y-128407899D01*
X128827194Y-128445599D01*
X128773094Y-128516797D01*
X128732292Y-128567998D01*
X128692993Y-128615899D01*
X128658691Y-128656400D01*
X128618293Y-128702599D01*
X128568596Y-128757699D01*
X128530594Y-128798798D01*
X128478798Y-128852998D01*
X128444496Y-128888097D01*
X128388092Y-128944398D01*
X128349991Y-128981500D01*
X128284996Y-129042996D01*
X128250892Y-129074597D01*
X128191192Y-129128499D01*
X128156692Y-129158898D01*
X128085693Y-129220197D01*
X128054497Y-129246499D01*
X127989692Y-129300198D01*
X127954696Y-129328496D01*
X127875297Y-129391301D01*
X127840797Y-129417996D01*
X127776092Y-129466798D01*
X127740196Y-129493298D01*
X127666191Y-129546697D01*
X127630195Y-129572099D01*
X127556999Y-129622498D01*
X127515297Y-129650399D01*
X127432289Y-129704499D01*
X127391090Y-129730595D01*
X127328697Y-129769200D01*
X127280800Y-129797799D01*
X127196296Y-129846799D01*
X127186195Y-129852696D01*
X127155189Y-129870396D01*
X127133995Y-129882798D01*
X127058998Y-130029996D01*
X127056595Y-130033799D01*
X126778793Y-130373097D01*
X126773193Y-130383397D01*
X126759193Y-130410100D01*
X126747093Y-130433797D01*
X126734199Y-130459500D01*
X126678695Y-130574300D01*
X125287800Y-131661298D01*
X125219497Y-131644498D01*
X124632599Y-132576596D01*
X124719597Y-132632497D01*
X124714397Y-132640698D01*
X124714599Y-132640798D01*
X124713600Y-132642400D01*
X124713997Y-132642697D01*
X124695099Y-132669797D01*
X124695648Y-132670248D01*
X124696197Y-132670697D01*
X124679897Y-132691396D01*
X124664497Y-132713899D01*
X124661197Y-132718396D01*
X124659698Y-132717297D01*
X124646499Y-132734197D01*
X124570697Y-132674901D01*
X124521698Y-132752698D01*
X124407997Y-133041398D01*
X124258899Y-133179398D01*
X124253998Y-133181600D01*
X124252899Y-133184998D01*
X124246299Y-133190999D01*
X124226497Y-133193898D01*
X124220798Y-133196500D01*
X124212997Y-133221799D01*
X124208599Y-133225896D01*
X124199600Y-133227597D01*
X124197300Y-133236398D01*
X124192497Y-133240899D01*
X124158798Y-133248601D01*
X124151897Y-133278397D01*
X124150097Y-133280099D01*
X124143898Y-133281697D01*
X124142898Y-133286698D01*
X124139698Y-133289700D01*
X124090599Y-133304898D01*
X124071800Y-133352498D01*
X124069000Y-133355199D01*
X124059597Y-133358899D01*
X124056499Y-133366200D01*
X124052700Y-133369496D01*
X124041698Y-133373296D01*
X124037399Y-133384297D01*
X124034099Y-133387498D01*
X124027099Y-133390599D01*
X124025200Y-133395596D01*
X124023399Y-133397298D01*
X123970600Y-133423497D01*
X123955700Y-133459897D01*
X123952400Y-133462899D01*
X123950397Y-133463998D01*
X123949699Y-133465596D01*
X123944797Y-133470097D01*
X123937896Y-133470700D01*
X123934700Y-133472398D01*
X123930698Y-133482900D01*
X123928200Y-133485299D01*
X123912697Y-133487401D01*
X123905300Y-133506596D01*
X123902099Y-133509599D01*
X123867397Y-133515500D01*
X123851200Y-133556798D01*
X123845497Y-133561997D01*
X123842296Y-133562695D01*
X123810299Y-133641797D01*
X123452598Y-133967000D01*
X123338096Y-133979699D01*
X123329399Y-133988400D01*
X123282398Y-134033898D01*
X123260998Y-134053899D01*
X123212497Y-134097798D01*
X123191200Y-134116597D01*
X123144497Y-134156300D01*
X123112297Y-134182797D01*
X123048599Y-134233197D01*
X123029499Y-134247701D01*
X122989300Y-134276498D01*
X122985798Y-134283398D01*
X122528198Y-134627400D01*
X122475998Y-134557896D01*
X122362900Y-134643399D01*
X122404499Y-134701798D01*
X121418998Y-135403500D01*
X121399898Y-135376599D01*
X121306400Y-135470296D01*
X121312000Y-135475499D01*
X121305698Y-135482297D01*
X121306297Y-135482900D01*
X121295498Y-135493497D01*
X121292099Y-135497899D01*
X121286499Y-135505696D01*
X121283100Y-135510697D01*
X121280899Y-135514298D01*
X121272098Y-135532498D01*
X121271648Y-135532247D01*
X121271423Y-135532122D01*
X121271198Y-135531999D01*
X121270698Y-135532899D01*
X121270598Y-135532850D01*
X121270498Y-135532799D01*
X121270298Y-135532697D01*
X121269298Y-135534497D01*
X121269148Y-135534399D01*
X121269072Y-135534350D01*
X121269034Y-135534324D01*
X121268997Y-135534299D01*
X121268947Y-135534399D01*
X121268923Y-135534448D01*
X121268898Y-135534497D01*
X121258297Y-135528199D01*
X121252098Y-135524701D01*
X121065597Y-135711400D01*
X120775497Y-135848096D01*
X120768898Y-135833897D01*
X120426998Y-136066197D01*
X120583000Y-136259999D01*
X120049900Y-136689198D01*
X120046798Y-136695298D01*
X120031700Y-136723798D01*
X119996700Y-136787099D01*
X119984100Y-136808896D01*
X119946598Y-136871297D01*
X119937298Y-136886098D01*
X119879997Y-136972600D01*
X119866996Y-136991097D01*
X119420997Y-137425496D01*
X119426498Y-137430997D01*
X119423500Y-137433999D01*
X119423649Y-137434198D01*
X119423723Y-137434298D01*
X119423797Y-137434399D01*
X119421299Y-137436696D01*
X119421600Y-137436997D01*
X119410900Y-137446797D01*
X119411049Y-137446947D01*
X119411123Y-137447022D01*
X119411197Y-137447099D01*
X119407097Y-137450597D01*
X119406448Y-137451249D01*
X119405800Y-137451897D01*
X119396000Y-137462899D01*
X119389396Y-137470601D01*
X119378597Y-137483395D01*
X119366298Y-137498601D01*
X119360599Y-137505898D01*
X119350300Y-137519498D01*
X119336696Y-137537999D01*
X119325699Y-137553399D01*
X119320598Y-137560899D01*
X119311798Y-137574201D01*
X119266498Y-137645596D01*
X119253898Y-137665295D01*
X119234798Y-137694600D01*
X119215500Y-137723699D01*
X119197597Y-137750195D01*
X119167099Y-137793996D01*
X119146099Y-137823399D01*
X119102699Y-137881898D01*
X119095199Y-137891499D01*
X119065998Y-137928498D01*
X119054798Y-137942296D01*
X118259098Y-138533997D01*
X118245098Y-138539800D01*
X118150398Y-138575799D01*
X118131698Y-138582398D01*
X118089699Y-138596600D01*
X118062099Y-138605596D01*
X118009399Y-138622098D01*
X118007297Y-138622701D01*
X117904297Y-138763898D01*
X117875599Y-138743001D01*
X117229999Y-139629399D01*
X117015598Y-139744496D01*
X116977798Y-139797799D01*
X116951198Y-139778996D01*
X116699997Y-139913800D01*
X116623699Y-139931699D01*
X116561199Y-139988297D01*
X116548999Y-139994798D01*
X116535797Y-139970097D01*
X116467998Y-140027398D01*
X116461899Y-140027299D01*
X116580799Y-140159798D01*
X115959400Y-140717599D01*
X115918598Y-140828900D01*
X115915996Y-140834199D01*
X115871196Y-140812199D01*
X115543297Y-141546597D01*
X115132698Y-141893796D01*
X114312198Y-142310498D01*
X113573097Y-142152196D01*
X113576999Y-142242696D01*
X113577297Y-142289296D01*
X113574398Y-142412396D01*
X113571098Y-142471700D01*
X113562599Y-142576898D01*
X113554897Y-142647797D01*
X113542499Y-142741998D01*
X113531097Y-142814999D01*
X113515697Y-142900800D01*
X113499199Y-142982999D01*
X113482300Y-143059499D01*
X113464699Y-143131898D01*
X113438198Y-144232198D01*
X112601398Y-145056500D01*
X112571197Y-145139096D01*
X112553997Y-145188596D01*
X112532798Y-145252198D01*
X112507900Y-145332398D01*
X112497497Y-145368298D01*
X112486999Y-145408299D01*
X112483799Y-145422200D01*
X112482300Y-145438001D01*
X112481449Y-145437898D01*
X112480598Y-145437798D01*
X112477096Y-145459298D01*
X112450798Y-145454999D01*
X111995498Y-146558400D01*
X112000198Y-146561696D01*
X111999897Y-146562199D01*
X112000900Y-146563001D01*
X111990898Y-146575997D01*
X111991100Y-146576199D01*
X111985798Y-146582898D01*
X111984798Y-146584397D01*
X111983799Y-146586797D01*
X111981899Y-146588899D01*
X111977497Y-146596398D01*
X111972698Y-146607198D01*
X111970497Y-146610997D01*
X111969799Y-146612397D01*
X111969700Y-146612397D01*
X111803199Y-146910298D01*
X111788398Y-146932099D01*
X111750999Y-146985196D01*
X111731399Y-147012097D01*
X111707496Y-147044400D01*
X111687099Y-147071298D01*
X111668197Y-147095700D01*
X111648399Y-147120999D01*
X111625396Y-147149800D01*
X111599399Y-147181798D01*
X111579696Y-147205598D01*
X111547798Y-147243596D01*
X111534298Y-147259499D01*
X111508598Y-147289498D01*
X111491996Y-147308499D01*
X111455799Y-147349698D01*
X111444698Y-147362298D01*
X111417099Y-147393098D01*
X111401600Y-147410100D01*
X111361797Y-147453698D01*
X111344299Y-147472497D01*
X111306698Y-147512498D01*
X111293998Y-147525899D01*
X111265697Y-147555497D01*
X111247597Y-147574098D01*
X111207699Y-147614797D01*
X111196899Y-147625699D01*
X111153099Y-147669598D01*
X111133899Y-147688497D01*
X111094898Y-147726598D01*
X111077797Y-147743100D01*
X111005497Y-147811997D01*
X110971496Y-147845197D01*
X110937500Y-147879098D01*
X110907497Y-147909497D01*
X110874698Y-147943601D01*
X110845298Y-147974698D01*
X110817798Y-148004498D01*
X110796497Y-148028199D01*
X110769397Y-148059098D01*
X110747799Y-148084096D01*
X110729999Y-148105599D01*
X110725399Y-148111199D01*
X110609997Y-148319299D01*
X110610197Y-148319448D01*
X110610297Y-148319523D01*
X110610397Y-148319600D01*
X110607097Y-148324696D01*
X110605297Y-148327798D01*
X110601597Y-148333398D01*
X110599098Y-148335500D01*
X110483299Y-148493798D01*
X110466598Y-148514398D01*
X110392997Y-148599500D01*
X110370800Y-148623799D01*
X110326297Y-148670998D01*
X110309398Y-148688199D01*
X110281196Y-148716599D01*
X110266899Y-148730798D01*
X110244899Y-148752099D01*
X110230900Y-148765500D01*
X110194198Y-148799600D01*
X110171200Y-148820500D01*
X110147899Y-148841397D01*
X110133999Y-148853597D01*
X110100799Y-148882199D01*
X110082798Y-148897298D01*
X110054600Y-148920598D01*
X110034599Y-148936898D01*
X110002197Y-148962697D01*
X109982399Y-148977998D01*
X109952099Y-149001199D01*
X109911098Y-149031796D01*
X109909298Y-149033200D01*
X109905800Y-149036000D01*
X109890198Y-149048898D01*
X109882099Y-149055898D01*
X109867599Y-149068997D01*
X109853698Y-149082097D01*
X109849598Y-149086099D01*
X109824398Y-149111298D01*
X109807598Y-149129300D01*
X109788597Y-149150498D01*
X109777397Y-149163499D01*
X109773800Y-149167897D01*
X109764599Y-149179398D01*
X109758098Y-149191598D01*
X109750198Y-149206296D01*
X109730900Y-149241597D01*
X109705997Y-149285798D01*
X109675499Y-149338597D01*
X109660099Y-149364697D01*
X109624199Y-149424600D01*
X109608597Y-149450200D01*
X109573200Y-149507199D01*
X109557697Y-149531796D01*
X109518497Y-149592900D01*
X109505298Y-149613297D01*
X109458896Y-149683896D01*
X109445198Y-149704499D01*
X109399997Y-149771199D01*
X109383598Y-149795098D01*
X109350696Y-149842397D01*
X109332699Y-149867799D01*
X109291500Y-149925099D01*
X109273597Y-149949399D01*
X109233497Y-150003499D01*
X109213997Y-150030499D01*
X109205799Y-150042199D01*
X109197597Y-150054398D01*
X109196697Y-150056199D01*
X109196499Y-150056096D01*
X109193798Y-150060197D01*
X109192299Y-150063100D01*
X109192224Y-150063074D01*
X109192148Y-150063049D01*
X109192072Y-150063024D01*
X109191997Y-150063001D01*
X109191498Y-150063897D01*
X109191498Y-150063798D01*
X109186397Y-150072598D01*
X109186197Y-150072547D01*
X109186097Y-150072523D01*
X109185997Y-150072499D01*
X109181099Y-150080399D01*
X109180896Y-150080296D01*
X109178997Y-150083096D01*
X109073898Y-150015397D01*
X108642597Y-150780297D01*
X108660698Y-150791894D01*
X108777198Y-150861497D01*
X108774997Y-150865296D01*
X108775398Y-150865594D01*
X108769897Y-150874093D01*
X108770500Y-150874497D01*
X108763599Y-150884293D01*
X108757698Y-150894196D01*
X108747497Y-150913094D01*
X108733097Y-150941094D01*
X108720699Y-150965791D01*
X108698898Y-151011193D01*
X108692898Y-151023591D01*
X108660999Y-151088593D01*
X108643997Y-151122697D01*
X108598400Y-151211396D01*
X108583297Y-151240266D01*
X108536697Y-151327454D01*
X108524700Y-151349625D01*
X108471798Y-151445619D01*
X108460899Y-151465211D01*
X108397400Y-151577432D01*
X108388500Y-151593125D01*
X108314998Y-151720414D01*
X108307098Y-151733994D01*
X108232097Y-151861497D01*
X108224998Y-151873551D01*
X108144397Y-152008485D01*
X108138199Y-152018708D01*
X108055198Y-152155831D01*
X108049297Y-152165528D01*
X107949798Y-152327851D01*
X107856998Y-152477342D01*
X107748798Y-152649857D01*
X107641800Y-152818650D01*
X107523197Y-153004426D01*
X107412098Y-153176637D01*
X107288398Y-153366975D01*
X107173099Y-153542428D01*
X107047397Y-153732438D01*
X106923000Y-153918824D01*
X106746898Y-154180657D01*
X106662399Y-154307137D01*
X106578499Y-154434022D01*
X106501499Y-154551957D01*
X106432296Y-154659135D01*
X106372200Y-154753602D01*
X106318897Y-154839051D01*
X106303699Y-154863831D01*
X106270897Y-154918656D01*
X106260898Y-154938935D01*
X106260498Y-154938752D01*
X106223697Y-155013215D01*
X106216598Y-155026505D01*
X106185997Y-155081452D01*
X106159099Y-155128144D01*
X106136200Y-155167024D01*
X106099498Y-155227418D01*
X106085598Y-155250001D01*
X106047397Y-155311143D01*
X106038299Y-155325631D01*
X105988498Y-155403718D01*
X105978199Y-155419778D01*
X105918197Y-155511994D01*
X105852600Y-155611901D01*
X105844200Y-155624574D01*
X105781997Y-155717637D01*
X105775898Y-155726678D01*
X105710998Y-155822663D01*
X105639999Y-155926782D01*
X105633697Y-155936021D01*
X105568298Y-156030763D01*
X105560997Y-156041154D01*
X105496700Y-156133164D01*
X105490299Y-156142243D01*
X105427997Y-156230187D01*
X105420597Y-156240517D01*
X105361297Y-156323212D01*
X105351299Y-156336961D01*
X105301098Y-156405732D01*
X105286098Y-156425958D01*
X105237697Y-156490434D01*
X105221897Y-156511216D01*
X105183197Y-156561463D01*
X105154697Y-156597527D01*
X105126999Y-156631852D01*
X105077099Y-156691255D01*
X105070297Y-156698975D01*
X105059498Y-156715058D01*
X105052200Y-156726273D01*
X105041298Y-156743348D01*
X105007698Y-156798028D01*
X104973999Y-156854646D01*
X104932598Y-156926782D01*
X104917297Y-156954102D01*
X104876198Y-157029588D01*
X104836399Y-157104897D01*
X104784397Y-157206307D01*
X104775299Y-157223771D01*
X104753498Y-157265443D01*
X104739399Y-157291825D01*
X104713497Y-157339341D01*
X104699798Y-157364045D01*
X104676899Y-157404771D01*
X104657799Y-157437943D01*
X104636398Y-157474252D01*
X104617897Y-157505113D01*
X104602298Y-157530564D01*
X104568599Y-157583688D01*
X104555000Y-157604401D01*
X104523098Y-157651444D01*
X104502998Y-157680222D01*
X104451698Y-157749986D01*
X104199798Y-158288117D01*
X103874199Y-158619218D01*
X103859996Y-158639192D01*
X103840000Y-158666711D01*
X103786499Y-158737077D01*
X103764797Y-158764291D01*
X103726497Y-158811067D01*
X103717899Y-158821214D01*
X103643398Y-158904298D01*
X103631897Y-158916444D01*
X103541698Y-159005868D01*
X103538597Y-159008683D01*
X103391998Y-159109437D01*
X103266300Y-159237321D01*
X103243099Y-159248628D01*
X103241798Y-159248681D01*
X103241624Y-159248914D01*
X103241449Y-159249145D01*
X103241100Y-159249604D01*
X103228798Y-159255677D01*
X103224098Y-159256074D01*
X103219398Y-159262048D01*
X103186199Y-159305077D01*
X103147899Y-159356522D01*
X103111500Y-159406602D01*
X103066799Y-159469865D01*
X103022598Y-159533967D01*
X102976597Y-159602113D01*
X102930099Y-159672311D01*
X102784797Y-159897233D01*
X102778198Y-159907472D01*
X102654297Y-160096635D01*
X102647400Y-160107072D01*
X102556797Y-160243668D01*
X102549499Y-160254517D01*
X102476497Y-160363084D01*
X102465500Y-160379166D01*
X102399997Y-160474519D01*
X102387100Y-160493104D01*
X102360397Y-160531007D01*
X100803699Y-161378037D01*
X99539699Y-160829438D01*
X98506199Y-161039613D01*
X97553699Y-160366639D01*
X97530098Y-160421769D01*
X97458198Y-160391023D01*
X97458000Y-160391297D01*
X97454799Y-160389588D01*
X97444397Y-160385117D01*
X97444797Y-160384217D01*
X97398998Y-160359773D01*
X97398399Y-160360658D01*
X97388199Y-160353974D01*
X97382999Y-160351212D01*
X97383198Y-160350770D01*
X97321598Y-160310731D01*
X97322300Y-160309678D01*
X97293297Y-160287278D01*
X97292499Y-160288163D01*
X97280800Y-160277604D01*
X97275097Y-160273225D01*
X97275497Y-160272797D01*
X97242698Y-160243272D01*
X97242099Y-160243867D01*
X97234997Y-160236344D01*
X97229999Y-160231843D01*
X97230400Y-160231416D01*
X97196197Y-160194886D01*
X97195999Y-160195054D01*
X97193798Y-160192338D01*
X97181797Y-160179498D01*
X97182800Y-160178552D01*
X97161197Y-160151658D01*
X97159897Y-160152528D01*
X97137699Y-160119477D01*
X96308998Y-159772172D01*
X96301498Y-159777894D01*
X96291500Y-159764848D01*
X96291425Y-159764808D01*
X96291349Y-159764768D01*
X96291273Y-159764731D01*
X96291236Y-159764713D01*
X96291198Y-159764695D01*
X96286499Y-159758317D01*
X96281898Y-159752297D01*
X96276100Y-159745217D01*
X96274799Y-159743638D01*
X96260498Y-159728013D01*
X96250396Y-159717683D01*
X96215500Y-159683488D01*
X96178699Y-159646455D01*
X96159198Y-159626351D01*
X96114097Y-159578233D01*
X96103897Y-159566926D01*
X96079998Y-159540147D01*
X96067699Y-159526017D01*
X96039398Y-159492997D01*
X96019996Y-159469865D01*
X95965999Y-159402345D01*
X95948498Y-159379517D01*
X95883400Y-159289567D01*
X95872699Y-159273751D01*
X95815300Y-159178017D01*
X95745998Y-159130174D01*
X95432796Y-158580186D01*
X95440899Y-158575593D01*
X94903999Y-158102738D01*
X94887600Y-158059174D01*
X94869999Y-158013711D01*
X94865696Y-158003404D01*
X94859600Y-157989472D01*
X94845096Y-157958314D01*
X94835300Y-157938081D01*
X94819095Y-157907441D01*
X94811100Y-157892831D01*
X94792896Y-157860841D01*
X94781898Y-157842652D01*
X94763199Y-157812638D01*
X94744999Y-157784791D01*
X94717098Y-157743951D01*
X94697899Y-157716927D01*
X94671497Y-157681077D01*
X94657799Y-157662995D01*
X94629696Y-157627152D01*
X94599899Y-157590478D01*
X94572300Y-157557526D01*
X94541797Y-157522088D01*
X94498600Y-157473451D01*
X94483997Y-157456834D01*
X94429798Y-157394441D01*
X94387199Y-157343751D01*
X94327297Y-157270051D01*
X94292896Y-157226502D01*
X94240497Y-157158158D01*
X94212200Y-157120347D01*
X94153400Y-157039948D01*
X94124096Y-156998643D01*
X94063999Y-156911851D01*
X94040600Y-156877366D01*
X93982601Y-156789758D01*
X93959896Y-156754678D01*
X93903896Y-156666108D01*
X93881496Y-156629838D01*
X93829097Y-156542848D01*
X93809997Y-156510468D01*
X93752998Y-156411866D01*
X93732700Y-156375855D01*
X93683998Y-156287408D01*
X93664798Y-156251542D01*
X93619198Y-156164651D01*
X93598699Y-156124421D01*
X93557400Y-156040986D01*
X93535101Y-155994492D01*
X93496799Y-155911897D01*
X93475200Y-155863801D01*
X93439800Y-155781938D01*
X93414900Y-155721421D01*
X93391300Y-155661652D01*
X93366600Y-155595582D01*
X93345899Y-155536958D01*
X93317501Y-155450456D01*
X93304500Y-155407647D01*
X93274200Y-155296433D01*
X93268400Y-155272157D01*
X93231600Y-155015656D01*
X93228500Y-155000031D01*
X93228000Y-154998177D01*
X93224300Y-154985658D01*
X93223400Y-154985754D01*
X93222500Y-154985856D01*
X93221500Y-154976197D01*
X93218601Y-154966561D01*
X93207901Y-154933732D01*
X93191299Y-154885781D01*
X93173000Y-154835618D01*
X93152099Y-154780793D01*
X93130899Y-154727631D01*
X93102701Y-154660355D01*
X93083101Y-154615495D01*
X93062500Y-154570084D01*
X93042000Y-154527375D01*
X93028499Y-154500901D01*
X93021700Y-154488267D01*
X93009901Y-154469636D01*
X92801700Y-153768998D01*
X92796600Y-153771134D01*
X92795000Y-153767281D01*
X92794599Y-153767457D01*
X92787599Y-153749543D01*
X92787201Y-153748444D01*
X92787163Y-153748456D01*
X92787125Y-153748466D01*
X92787088Y-153748476D01*
X92787050Y-153748485D01*
X92786975Y-153748503D01*
X92786899Y-153748521D01*
X92785700Y-153744935D01*
X92785300Y-153744076D01*
X92784900Y-153743211D01*
X92784200Y-153741837D01*
X92784150Y-153741852D01*
X92784100Y-153741867D01*
X92784000Y-153741899D01*
X92783900Y-153741933D01*
X92783800Y-153741967D01*
X92783100Y-153739762D01*
X92772001Y-153718247D01*
X92769500Y-153713654D01*
X92753799Y-153685746D01*
X92749000Y-153677644D01*
X92735300Y-153654817D01*
X92712101Y-153617532D01*
X92694999Y-153590661D01*
X92678100Y-153565247D01*
X92672500Y-153557038D01*
X92671200Y-153555604D01*
X92671400Y-153555375D01*
X92668001Y-153550355D01*
X92662700Y-153544297D01*
X92663000Y-153544053D01*
X92662875Y-153543920D01*
X92662750Y-153543785D01*
X92662625Y-153543648D01*
X92662500Y-153543511D01*
X92662599Y-153543443D01*
X92656400Y-153535752D01*
X92656425Y-153535726D01*
X92656450Y-153535699D01*
X92656501Y-153535644D01*
X92656551Y-153535588D01*
X92656601Y-153535531D01*
X92656100Y-153534874D01*
X92655599Y-153534211D01*
X92656500Y-153533547D01*
X92654800Y-153531037D01*
X92695499Y-153503198D01*
X92705600Y-153495332D01*
X91576500Y-152541993D01*
X91547399Y-152465043D01*
X91537800Y-152439027D01*
X91501899Y-152339906D01*
X91494899Y-152320344D01*
X91464901Y-152234712D01*
X91459200Y-152218247D01*
X91422599Y-152111054D01*
X91416799Y-152093621D01*
X91385601Y-151999314D01*
X91381799Y-151987931D01*
X91346500Y-151878732D01*
X91340900Y-151861207D01*
X91312000Y-151769196D01*
X91307100Y-151753266D01*
X91276600Y-151653291D01*
X91270200Y-151631951D01*
X91242599Y-151537537D01*
X91236601Y-151516557D01*
X91214901Y-151439408D01*
X91207800Y-151413377D01*
X91189899Y-151346177D01*
X91180099Y-151307801D01*
X91165100Y-151246766D01*
X91152900Y-151193993D01*
X91143600Y-151150994D01*
X91138500Y-151123895D01*
X91135700Y-151120393D01*
X91131201Y-151099595D01*
X91121200Y-151082993D01*
X91109600Y-151064195D01*
X91094400Y-151040391D01*
X91077801Y-151014993D01*
X91061500Y-150990495D01*
X91047500Y-150970391D01*
X90998399Y-150901093D01*
X90985599Y-150882798D01*
X90966600Y-150855294D01*
X90943201Y-150820794D01*
X90925199Y-150793496D01*
X90909700Y-150769692D01*
X90890600Y-150739991D01*
X90876899Y-150718194D01*
X90859399Y-150690194D01*
X90844900Y-150666497D01*
X90827301Y-150637391D01*
X90806699Y-150602494D01*
X90795299Y-150582696D01*
X90782800Y-150560693D01*
X90767200Y-150532891D01*
X90747200Y-150496293D01*
X90733499Y-150470490D01*
X90717500Y-150439797D01*
X90708101Y-150421594D01*
X90690201Y-150385590D01*
X90683201Y-150371095D01*
X90665300Y-150333299D01*
X90656900Y-150315095D01*
X90615400Y-150218297D01*
X90607700Y-150198796D01*
X90598600Y-150172898D01*
X90597101Y-150171399D01*
X90595600Y-150167699D01*
X90596700Y-150167298D01*
X90581100Y-150122498D01*
X90578001Y-150119599D01*
X90575100Y-150111199D01*
X90576000Y-150110898D01*
X90576900Y-150110600D01*
X90551300Y-150037198D01*
X90549900Y-150032697D01*
X90560301Y-150029599D01*
X90554800Y-150023797D01*
X90526600Y-149995000D01*
X90496000Y-149964696D01*
X90442501Y-149912000D01*
X90432501Y-149902097D01*
X90354299Y-149824098D01*
X90339700Y-149809399D01*
X90304300Y-149773396D01*
X90295500Y-149764298D01*
X90041700Y-149649098D01*
X89780500Y-148612897D01*
X89650600Y-148491300D01*
X89640100Y-148481297D01*
X89543800Y-148389798D01*
X89422399Y-148273499D01*
X89304399Y-148159398D01*
X89109501Y-147969598D01*
X88901800Y-147765599D01*
X88708500Y-147573998D01*
X88512800Y-147378796D01*
X88444099Y-147311299D01*
X88382801Y-147251897D01*
X88322700Y-147194600D01*
X88269800Y-147145200D01*
X88215700Y-147095700D01*
X88169201Y-147053998D01*
X88129900Y-147019799D01*
X88077501Y-146975598D01*
X88051000Y-146953900D01*
X88022800Y-146931600D01*
X87985100Y-146903298D01*
X87974001Y-146895299D01*
X87961799Y-146886998D01*
X87958999Y-146885697D01*
X87959100Y-146885498D01*
X87959150Y-146885398D01*
X87959200Y-146885297D01*
X87956400Y-146883496D01*
X87943701Y-146877099D01*
X87944099Y-146876397D01*
X87936001Y-146871899D01*
X87944200Y-146857396D01*
X86841699Y-145857598D01*
X86812601Y-145794797D01*
X86763099Y-145692296D01*
X86704900Y-145574899D01*
X86647100Y-145461400D01*
X86600799Y-145372800D01*
X86583700Y-145339200D01*
X86568300Y-145308297D01*
X86553600Y-145278199D01*
X86543501Y-145256898D01*
X86522001Y-145210500D01*
X86514101Y-145192899D01*
X86499799Y-145160001D01*
X86490600Y-145138398D01*
X86470001Y-145088097D01*
X86464401Y-145073697D01*
X86441200Y-145011998D01*
X86436800Y-144999600D01*
X86418100Y-144944501D01*
X86414699Y-144934098D01*
X86393301Y-144863500D01*
X86391300Y-144856496D01*
X86364099Y-144294400D01*
X86338800Y-144227696D01*
X86341501Y-144170400D01*
X86329099Y-144174798D01*
X86327200Y-144169301D01*
X86325500Y-144161797D01*
X86324100Y-144162297D01*
X86323301Y-144159898D01*
X86323000Y-144150399D01*
X86286600Y-143984197D01*
X86271600Y-143987798D01*
X86269201Y-143977998D01*
X86269600Y-143965596D01*
X86266000Y-143966496D01*
X86265600Y-143964696D01*
X86270799Y-143911599D01*
X86218401Y-143672101D01*
X86216900Y-143655400D01*
X86215000Y-143572896D01*
X86193399Y-143542397D01*
X86181900Y-143525399D01*
X86152601Y-143481099D01*
X86131901Y-143448796D01*
X86095501Y-143389798D01*
X86087499Y-143376199D01*
X86052900Y-143315495D01*
X86037700Y-143287698D01*
X86003700Y-143222699D01*
X85991600Y-143198399D01*
X85968601Y-143150998D01*
X85964100Y-143141400D01*
X85929001Y-143061799D01*
X85920500Y-143041398D01*
X85887399Y-142956097D01*
X85883501Y-142945500D01*
X85862100Y-142868497D01*
X85854999Y-142861096D01*
X85854299Y-142859097D01*
X85859001Y-142857598D01*
X85848600Y-142819997D01*
X85764600Y-142716000D01*
X85791799Y-142593099D01*
X85789600Y-142589898D01*
X85789501Y-142589299D01*
X85792801Y-142588696D01*
X86009599Y-141609601D01*
X85236999Y-140637601D01*
X83870701Y-139974995D01*
X83853700Y-139993798D01*
X83842100Y-139983296D01*
X83841800Y-139983598D01*
X83834800Y-139976796D01*
X83804701Y-139950696D01*
X83725000Y-139877797D01*
X83709400Y-139862698D01*
X83648401Y-139801198D01*
X83628601Y-139780301D01*
X83571800Y-139717900D01*
X83553200Y-139696599D01*
X83496799Y-139628896D01*
X83474100Y-139600499D01*
X83429001Y-139541799D01*
X83409200Y-139514996D01*
X83365200Y-139452901D01*
X83342600Y-139419698D01*
X83300701Y-139355698D01*
X83278000Y-139319501D01*
X83247900Y-139269898D01*
X83229900Y-139239198D01*
X83193001Y-139173596D01*
X83170500Y-139131696D01*
X83142299Y-139077199D01*
X83125700Y-139043897D01*
X83100300Y-138991200D01*
X83080900Y-138949097D01*
X83049200Y-138876996D01*
X83030401Y-138831700D01*
X83008699Y-138777299D01*
X82996601Y-138745496D01*
X82975200Y-138686799D01*
X82959699Y-138642098D01*
X82937299Y-138573300D01*
X82922701Y-138525800D01*
X82905000Y-138464597D01*
X82895900Y-138431096D01*
X82878401Y-138361798D01*
X82868101Y-138317899D01*
X82853401Y-138249497D01*
X82847000Y-138217099D01*
X82835901Y-138154096D01*
X82815201Y-138141599D01*
X82286300Y-137462899D01*
X82234399Y-137510899D01*
X82189399Y-137462399D01*
X82112600Y-137320996D01*
X82089000Y-137336999D01*
X82049699Y-137278996D01*
X82050400Y-137278500D01*
X82035400Y-137253400D01*
X82034500Y-137253896D01*
X82007801Y-137201695D01*
X82007763Y-137201709D01*
X82007725Y-137201723D01*
X82007650Y-137201748D01*
X82007499Y-137201798D01*
X82005399Y-137196896D01*
X81999599Y-137185498D01*
X82000299Y-137185098D01*
X81980400Y-137138398D01*
X82007200Y-137126996D01*
X81967701Y-137054097D01*
X81940799Y-137019696D01*
X81939600Y-137015897D01*
X81945801Y-137013997D01*
X81793001Y-136732598D01*
X81673601Y-136579396D01*
X81664699Y-136489796D01*
X81651600Y-136467297D01*
X81618400Y-136456097D01*
X81594700Y-136432896D01*
X81594101Y-136428597D01*
X81588300Y-136426698D01*
X81297399Y-136141896D01*
X81144300Y-135625798D01*
X81123399Y-135620496D01*
X81080700Y-135645299D01*
X81077301Y-135639298D01*
X81060699Y-135604398D01*
X80941900Y-135574098D01*
X80517500Y-135346997D01*
X80167801Y-134779500D01*
X80127001Y-134826398D01*
X79592199Y-134361298D01*
X79248899Y-133837899D01*
X78645799Y-133724297D01*
X78680601Y-133539597D01*
X77649801Y-133533399D01*
X76897601Y-132988896D01*
X76714802Y-132763097D01*
X76653702Y-132743398D01*
X76608801Y-132715398D01*
X76584301Y-132721097D01*
X76572801Y-132717297D01*
X76569501Y-132713498D01*
X76564701Y-132714799D01*
X76550901Y-132710297D01*
X76520001Y-132678296D01*
X76486101Y-132689496D01*
X76472201Y-132684998D01*
X76469401Y-132682298D01*
X76465701Y-132682896D01*
X76451901Y-132678498D01*
X76417401Y-132649598D01*
X76378901Y-132654897D01*
X76367801Y-132651296D01*
X76362701Y-132647496D01*
X76358101Y-132648099D01*
X76348201Y-132644997D01*
X75403501Y-131999699D01*
X75381101Y-131905400D01*
X75315901Y-131856099D01*
X75295301Y-131708600D01*
X75289301Y-131703496D01*
X75287501Y-131652501D01*
X75275401Y-131565801D01*
X75230301Y-131523599D01*
X75243301Y-131335797D01*
X75239201Y-131306798D01*
X75201601Y-131147900D01*
X75027101Y-130681897D01*
X74411001Y-130841397D01*
X73023281Y-129799100D01*
X72988431Y-129731801D01*
X72970001Y-129695298D01*
X72923631Y-129601098D01*
X72903411Y-129558698D01*
X72864561Y-129474896D01*
X72846541Y-129434895D01*
X72808441Y-129347600D01*
X72790971Y-129306397D01*
X72757371Y-129224599D01*
X72738801Y-129177598D01*
X72705821Y-129091199D01*
X72689971Y-129048097D01*
X72661071Y-128966798D01*
X72642961Y-128913400D01*
X72614481Y-128825498D01*
X72596521Y-128766999D01*
X72573611Y-128688100D01*
X72558841Y-128634396D01*
X72538631Y-128556798D01*
X72523401Y-128494199D01*
X72512361Y-128445397D01*
X72457471Y-128410497D01*
X72438921Y-128398599D01*
X72388151Y-128365498D01*
X72366481Y-128351197D01*
X72323671Y-128322499D01*
X72294311Y-128302499D01*
X72263331Y-128280900D01*
X72243181Y-128266499D01*
X71520612Y-128006200D01*
X70554141Y-127263200D01*
X70506861Y-126964299D01*
X70452922Y-126818299D01*
X70439081Y-126823800D01*
X70433421Y-126809598D01*
X70428591Y-126752397D01*
X70391361Y-126651700D01*
X70378581Y-126655499D01*
X70377742Y-126652699D01*
X70378051Y-126615697D01*
X70338511Y-126508698D01*
X70333491Y-126486997D01*
X70310651Y-126373498D01*
X70305421Y-126342896D01*
X70290421Y-126239098D01*
X70285182Y-126194600D01*
X70277741Y-126118798D01*
X70272502Y-126052800D01*
X70268431Y-125988099D01*
X70265502Y-125925397D01*
X70263851Y-125878198D01*
X70261751Y-125786797D01*
X70261231Y-125747498D01*
X70260921Y-125657098D01*
X70261141Y-125619798D01*
X70262801Y-125510999D01*
X70263271Y-125488500D01*
X70266631Y-125361897D01*
X70267471Y-125336297D01*
X70270631Y-125255898D01*
X70163761Y-125206799D01*
X70163591Y-125237599D01*
X70144742Y-125237397D01*
X70101071Y-125221997D01*
X70094861Y-125225098D01*
X70094281Y-125236100D01*
X70075041Y-125235097D01*
X69981782Y-125281899D01*
X69872161Y-125201299D01*
X69867961Y-125199498D01*
X69866070Y-125208600D01*
X69838741Y-125202897D01*
X69839862Y-125197499D01*
X69701251Y-125196198D01*
X69656750Y-125147298D01*
X69632931Y-125129498D01*
X69628571Y-125140797D01*
X69602401Y-125130597D01*
X69604081Y-125126298D01*
X69323392Y-125147099D01*
X69284511Y-125105100D01*
X69270032Y-125105496D01*
X69118801Y-124926499D01*
X68788051Y-124849198D01*
X68782071Y-124844399D01*
X68772321Y-124830800D01*
X68763181Y-124829400D01*
X68711551Y-124788098D01*
X68580752Y-124754998D01*
X68063632Y-124322297D01*
X68029341Y-124274098D01*
X67950621Y-124205399D01*
X67943621Y-124198800D01*
X67855412Y-124110497D01*
X67841171Y-124095300D01*
X67761691Y-124005299D01*
X67750382Y-123991597D01*
X67672712Y-123891900D01*
X67660892Y-123875699D01*
X67600572Y-123788098D01*
X67587161Y-123767499D01*
X67521991Y-123660100D01*
X67511522Y-123641599D01*
X67462432Y-123549100D01*
X67451962Y-123527997D01*
X67399302Y-123413197D01*
X67391462Y-123394597D01*
X67353742Y-123296800D01*
X67262302Y-123167699D01*
X67262161Y-123167600D01*
X67081802Y-123036797D01*
X66366041Y-121798200D01*
X66350891Y-121812299D01*
X66324702Y-121784299D01*
X66324092Y-121784799D01*
X66316181Y-121775098D01*
X66304261Y-121762399D01*
X66296811Y-121764996D01*
X66292772Y-121753400D01*
X66292511Y-121753499D01*
X66292331Y-121752999D01*
X66291641Y-121753198D01*
X66288602Y-121742898D01*
X66287472Y-121743100D01*
X66286502Y-121738999D01*
X66285372Y-121737698D01*
X66286041Y-121737100D01*
X66285861Y-121736398D01*
X66278852Y-121726899D01*
X66279572Y-121726296D01*
X66275501Y-121720300D01*
X66275982Y-121719899D01*
X66275622Y-121719399D01*
X66275912Y-121719197D01*
X66272062Y-121712800D01*
X66278591Y-121708898D01*
X66276471Y-121701699D01*
X66277452Y-121701398D01*
X66277281Y-121700398D01*
X66274492Y-121688699D01*
X66275212Y-121688496D01*
X66269151Y-121653996D01*
X66281451Y-121651799D01*
X66267211Y-121627198D01*
X66265422Y-121610200D01*
X66382581Y-121597897D01*
X65680521Y-120507398D01*
X65679271Y-120492497D01*
X65677092Y-120463498D01*
X65532562Y-120374200D01*
X64886212Y-119055699D01*
X64872712Y-119062798D01*
X64868512Y-119054700D01*
X64824262Y-118956098D01*
X64821092Y-118957497D01*
X64818072Y-118950700D01*
X64816182Y-118938100D01*
X64773302Y-118842599D01*
X64766082Y-118823697D01*
X64748882Y-118775597D01*
X64595184Y-118462098D01*
X64612382Y-118299798D01*
X64600723Y-118249699D01*
X64593780Y-118218799D01*
X64573059Y-118123099D01*
X64569641Y-118106898D01*
X64562423Y-118072200D01*
X64558044Y-118050502D01*
X64538879Y-117952800D01*
X64534576Y-117930301D01*
X64514374Y-117820701D01*
X64510315Y-117797900D01*
X64494613Y-117706801D01*
X64491989Y-117691199D01*
X64482773Y-117635100D01*
X64479492Y-117614402D01*
X64465576Y-117523799D01*
X64462631Y-117503901D01*
X64455719Y-117455699D01*
X64453430Y-117439200D01*
X64448730Y-117404300D01*
X64446563Y-117387702D01*
X64433990Y-117288100D01*
X64426483Y-117233600D01*
X64424637Y-117221000D01*
X64419464Y-117216700D01*
X64400406Y-117202700D01*
X63960479Y-116755599D01*
X63756317Y-116469600D01*
X62897796Y-115569602D01*
X62893188Y-115555400D01*
X62865646Y-115462802D01*
X62854751Y-115422599D01*
X62836105Y-115348102D01*
X62826172Y-115304999D01*
X62812561Y-115241198D01*
X62797592Y-115164801D01*
X62788238Y-115113601D01*
X62777343Y-115049201D01*
X62770660Y-115007102D01*
X62756530Y-114911200D01*
X62751510Y-114874701D01*
X62739166Y-114778701D01*
X62735595Y-114749301D01*
X62720199Y-114613700D01*
X62717880Y-114592299D01*
X62704803Y-114464900D01*
X62702820Y-114444499D01*
X62687637Y-114280101D01*
X62686386Y-114266002D01*
X62671615Y-114092601D01*
X62670624Y-114080401D01*
X62654785Y-113880000D01*
X62639190Y-113671199D01*
X62621826Y-113427699D01*
X62604092Y-113166499D01*
X62585452Y-112884799D01*
X62566982Y-112597701D01*
X62565022Y-112572501D01*
X62563812Y-112562800D01*
X62563372Y-112559699D01*
X62560652Y-112542102D01*
X62558452Y-112529300D01*
X62553532Y-112503199D01*
X62550322Y-112487399D01*
X62547092Y-112472602D01*
X62541652Y-112449698D01*
X62537312Y-112432300D01*
X62532152Y-112412799D01*
X62527692Y-112396998D01*
X62523312Y-112382300D01*
X62518642Y-112367400D01*
X62514332Y-112354400D01*
X62512832Y-112350200D01*
X62510692Y-112344600D01*
X62480972Y-112278300D01*
X62457362Y-112223498D01*
X62446682Y-112197699D01*
X62428012Y-112150802D01*
X62424342Y-112141299D01*
X62305012Y-111191600D01*
X62306682Y-111177298D01*
X62313722Y-111123500D01*
X62315922Y-111108298D01*
X62323392Y-111060698D01*
X62328412Y-111031100D01*
X62337022Y-110983802D01*
X62343202Y-110951999D01*
X62350452Y-110916400D01*
X62358502Y-110878600D01*
X62362812Y-110858901D01*
X62375992Y-110800002D01*
X62379622Y-110784098D01*
X62404802Y-110675700D01*
X62417912Y-110616500D01*
X62431232Y-110552802D01*
X62444552Y-110486300D01*
X62458912Y-110411300D01*
X62471922Y-110340400D01*
X62485882Y-110260699D01*
X62499652Y-110178901D01*
X62513362Y-110094298D01*
X62527492Y-110003001D01*
X62541012Y-109913001D01*
X62555202Y-109813800D01*
X62568492Y-109718902D01*
X62581922Y-109618201D01*
X62595752Y-109511000D01*
X62609268Y-109402999D01*
X62636505Y-109173098D01*
X62666382Y-108904399D01*
X62669128Y-108880999D01*
X62673523Y-108845302D01*
X62678634Y-108806800D01*
X62686065Y-108754802D01*
X62691070Y-108721801D01*
X62695892Y-108691600D01*
X62700805Y-108662200D01*
X62710327Y-108607901D01*
X62718689Y-108563201D01*
X62729049Y-108511100D01*
X62733581Y-108489001D01*
X62739135Y-108462600D01*
X62748565Y-108420001D01*
X62760193Y-108370200D01*
X62774246Y-108313701D01*
X62782715Y-108281699D01*
X62803329Y-108209300D01*
X62811599Y-108182101D01*
X62905182Y-107941401D01*
X62905060Y-107941401D01*
X62906082Y-107938498D01*
X62905853Y-107938399D01*
X62906936Y-107935500D01*
X62906418Y-107935302D01*
X62910797Y-107924601D01*
X62910354Y-107924399D01*
X62911773Y-107921302D01*
X62916305Y-107905700D01*
X62921005Y-107887801D01*
X62928299Y-107858199D01*
X62939071Y-107810599D01*
X62948974Y-107764399D01*
X62961746Y-107700099D01*
X62975143Y-107629599D01*
X62988311Y-107556701D01*
X63004394Y-107464099D01*
X63021850Y-107360099D01*
X63038177Y-107260299D01*
X63058487Y-107132998D01*
X63078796Y-107003699D01*
X63099319Y-106870601D01*
X63121719Y-106721701D01*
X63124481Y-106704001D01*
X63144790Y-106576800D01*
X63147629Y-106559501D01*
X63167526Y-106441501D01*
X63171005Y-106421500D01*
X63196121Y-106281299D01*
X63210418Y-106203399D01*
X63212890Y-106190299D01*
X63240112Y-106047599D01*
X63242676Y-106034400D01*
X63258499Y-105954501D01*
X63287079Y-105813601D01*
X63290115Y-105798900D01*
X63318802Y-105662799D01*
X63322555Y-105645301D01*
X63352905Y-105507399D01*
X63355499Y-105495700D01*
X63367340Y-105443400D01*
X63371078Y-105427199D01*
X63384582Y-105369700D01*
X63387390Y-105357901D01*
X63400055Y-105305400D01*
X63403549Y-105291201D01*
X63430755Y-105182002D01*
X63468506Y-105028800D01*
X63520355Y-104811400D01*
X63556854Y-104653399D01*
X63588165Y-104513099D01*
X63605529Y-104432799D01*
X63619018Y-104367900D01*
X63646362Y-104228900D01*
X63651809Y-104202201D01*
X63664154Y-104143699D01*
X63671951Y-104108298D01*
X63684204Y-104054999D01*
X63695236Y-104009501D01*
X63707901Y-103959800D01*
X63722366Y-103906100D01*
X63730438Y-103877700D01*
X63746612Y-103823802D01*
X63756546Y-103792300D01*
X63784271Y-103710502D01*
X63790970Y-103692099D01*
X63818115Y-103621600D01*
X63821777Y-103612601D01*
X63881729Y-103489901D01*
X63881775Y-103479098D01*
X63885757Y-103470900D01*
X63890014Y-103472999D01*
X63941559Y-103367499D01*
X63947952Y-103356398D01*
X64031799Y-103404700D01*
X64203277Y-102908400D01*
X64348312Y-102762198D01*
X64353805Y-102736701D01*
X64356415Y-102724700D01*
X64397644Y-102538501D01*
X64439422Y-102353701D01*
X64441879Y-102343001D01*
X64528000Y-101971702D01*
X64567123Y-101796802D01*
X64603103Y-101630901D01*
X64637492Y-101465401D01*
X64668642Y-101310001D01*
X64697422Y-101159500D01*
X64724122Y-101013100D01*
X64747372Y-100878200D01*
X64768062Y-100750500D01*
X64786992Y-100624401D01*
X64803422Y-100505100D01*
X64814372Y-100415100D01*
X64825792Y-100306103D01*
X64831342Y-100242100D01*
X64835022Y-100183601D01*
X64836682Y-100136501D01*
X64836622Y-100115700D01*
X64834012Y-100083401D01*
X64872652Y-100080299D01*
X65094922Y-98926201D01*
X65088622Y-98923500D01*
X65079542Y-98920101D01*
X65079762Y-98919502D01*
X65077862Y-98918701D01*
X65089842Y-98891601D01*
X65087782Y-98890503D01*
X65093442Y-98880100D01*
X65096882Y-98867901D01*
X65103212Y-98841301D01*
X65110682Y-98803600D01*
X65117152Y-98763801D01*
X65122862Y-98719902D01*
X65126922Y-98677200D01*
X65129272Y-98638401D01*
X65130172Y-98606300D01*
X65130192Y-98604500D01*
X65129872Y-98577701D01*
X65129542Y-98571201D01*
X65125812Y-98553200D01*
X65127612Y-98552803D01*
X65124852Y-98532501D01*
X65196132Y-98522800D01*
X65203262Y-96895302D01*
X65206512Y-96889503D01*
X66334091Y-95969803D01*
X66480272Y-95922699D01*
X66562822Y-95794205D01*
X66611052Y-95718201D01*
X66688372Y-95597298D01*
X66700531Y-95578499D01*
X66771392Y-95470299D01*
X66786502Y-95447601D01*
X66854752Y-95346504D01*
X66871401Y-95322204D01*
X66950221Y-95209099D01*
X66966111Y-95186600D01*
X67036242Y-95088798D01*
X67055452Y-95062500D01*
X67134701Y-94955704D01*
X67150771Y-94934303D01*
X67237441Y-94820801D01*
X67256441Y-94796303D01*
X67345521Y-94683205D01*
X67361302Y-94663399D01*
X67455522Y-94546898D01*
X67471522Y-94527405D01*
X67577662Y-94399498D01*
X67591602Y-94382904D01*
X67701522Y-94253303D01*
X67713422Y-94239403D01*
X67836621Y-94096802D01*
X67847431Y-94084404D01*
X67985292Y-93927498D01*
X67994601Y-93917000D01*
X68138531Y-93755402D01*
X68146852Y-93746201D01*
X68299482Y-93577004D01*
X68306351Y-93569405D01*
X68476032Y-93383301D01*
X68665432Y-93177300D01*
X68867602Y-92958702D01*
X69085481Y-92724602D01*
X69318542Y-92475205D01*
X71097181Y-90575501D01*
X72282501Y-89961404D01*
X72515821Y-89929001D01*
X72541581Y-89925599D01*
X72609101Y-89917199D01*
X72669931Y-89910500D01*
X72735361Y-89904305D01*
X72799921Y-89899201D01*
X72857391Y-89895699D01*
X72919611Y-89892800D01*
X72974361Y-89891099D01*
X73035641Y-89890198D01*
X73076371Y-89890198D01*
X73146121Y-89891404D01*
X73188091Y-89892899D01*
X73266771Y-89897202D01*
X73306131Y-89900101D01*
X73385271Y-89907601D01*
X73414581Y-89910905D01*
X73500381Y-89922600D01*
X73525391Y-89926598D01*
X73636901Y-89947602D01*
X73649901Y-89950402D01*
X73758701Y-89986504D01*
X73778702Y-89982804D01*
X73782201Y-89983704D01*
X73779601Y-89993401D01*
X73881901Y-90027299D01*
X73908101Y-90024499D01*
X73923601Y-90030099D01*
X73920101Y-90040002D01*
X74023301Y-90074204D01*
X74031701Y-90073899D01*
X74033401Y-90074601D01*
X74032301Y-90077202D01*
X74052001Y-90083703D01*
X74058501Y-90086602D01*
X73980101Y-90259301D01*
X74059701Y-90295700D01*
X74353401Y-89660805D01*
X74376301Y-89646699D01*
X74385401Y-89640702D01*
X74396801Y-89633004D01*
X74415501Y-89620003D01*
X74437301Y-89603905D01*
X74439901Y-89601899D01*
X74449301Y-89593003D01*
X74451601Y-89591805D01*
X74454701Y-89589203D01*
X74454901Y-89589402D01*
X74456601Y-89587998D01*
X74457301Y-89588898D01*
X75264001Y-89172402D01*
X75252801Y-89138604D01*
X75273401Y-89131798D01*
X75275701Y-89130898D01*
X75292001Y-89124001D01*
X75305101Y-89118203D01*
X75326301Y-89108201D01*
X75334401Y-89104203D01*
X75380901Y-89080201D01*
X75449201Y-89046601D01*
X75472801Y-89035500D01*
X75548801Y-89001801D01*
X75587701Y-88985406D01*
X75660001Y-88956803D01*
X75700001Y-88941804D01*
X75730801Y-88930504D01*
X75762001Y-88919503D01*
X75809801Y-88903100D01*
X75852601Y-88889100D01*
X75885401Y-88878701D01*
X75916001Y-88869301D01*
X75945901Y-88860299D01*
X75975301Y-88851700D01*
X76011901Y-88841401D01*
X76061002Y-88828103D01*
X76098801Y-88818299D01*
X76123501Y-88812104D01*
X76164601Y-88802300D01*
X76210501Y-88791802D01*
X76285101Y-88776299D01*
X76325101Y-88768799D01*
X76366901Y-88761399D01*
X76387101Y-88758004D01*
X76431601Y-88751099D01*
X76466001Y-88746201D01*
X76494501Y-88742303D01*
X76516601Y-88739503D01*
X77590801Y-89049805D01*
X77602001Y-89047799D01*
X77612400Y-89046105D01*
X77614500Y-89036400D01*
X77638900Y-89041703D01*
X77670801Y-89036698D01*
X77696901Y-89032799D01*
X77724100Y-89029000D01*
X77761400Y-89023904D01*
X77794000Y-89019799D01*
X77828500Y-89015801D01*
X77868799Y-89011399D01*
X77900999Y-89008301D01*
X77931600Y-89005501D01*
X77972601Y-89002206D01*
X78000799Y-89000100D01*
X78039400Y-88997399D01*
X78070801Y-88995598D01*
X78101099Y-88994004D01*
X78133001Y-88992600D01*
X78176801Y-88991006D01*
X78208900Y-88990105D01*
X78245901Y-88989403D01*
X78268900Y-88989098D01*
X78307401Y-88988702D01*
X78344000Y-88988801D01*
X78386800Y-88989205D01*
X78408201Y-88989503D01*
X78448801Y-88990403D01*
X78476900Y-88991105D01*
X78512899Y-88992402D01*
X78541300Y-88993600D01*
X78592699Y-88996102D01*
X78619901Y-88997605D01*
X78655000Y-88999802D01*
X78678900Y-89001504D01*
X78733400Y-89005501D01*
X78753000Y-89007104D01*
X78788999Y-89010102D01*
X78827400Y-89012902D01*
X78852400Y-89013703D01*
X78908201Y-89013802D01*
X78967800Y-89012505D01*
X79035600Y-89009598D01*
X79123201Y-89004403D01*
X79211401Y-88998101D01*
X79310400Y-88989304D01*
X79412700Y-88979104D01*
X79509000Y-88968400D01*
X79619199Y-88954598D01*
X79721100Y-88940903D01*
X79831701Y-88924599D01*
X79933300Y-88908600D01*
X80040800Y-88890305D01*
X80135000Y-88873200D01*
X80230600Y-88854500D01*
X80333200Y-88832703D01*
X80416000Y-88813500D01*
X80491100Y-88794900D01*
X80525501Y-88786599D01*
X80675899Y-88751900D01*
X80769800Y-88732705D01*
X80932199Y-88703400D01*
X81010200Y-88690903D01*
X81189800Y-88665803D01*
X81254900Y-88657700D01*
X81461300Y-88635705D01*
X81515600Y-88630700D01*
X81718200Y-88614701D01*
X81767700Y-88611405D01*
X81997400Y-88598900D01*
X82041500Y-88597100D01*
X82269600Y-88589699D01*
X82310699Y-88588799D01*
X82556499Y-88585999D01*
X82596300Y-88585900D01*
X82836900Y-88587899D01*
X82875499Y-88588601D01*
X83125999Y-88595505D01*
X83162599Y-88596902D01*
X83406400Y-88608101D01*
X83444200Y-88610200D01*
X83690700Y-88626198D01*
X83730400Y-88629204D01*
X83967001Y-88649300D01*
X84008699Y-88653298D01*
X84238399Y-88677605D01*
X84281999Y-88682702D01*
X84500601Y-88710801D01*
X84552499Y-88718201D01*
X84776500Y-88752900D01*
X84831501Y-88762200D01*
X85014900Y-88795899D01*
X85081400Y-88809304D01*
X85258199Y-88848099D01*
X85337200Y-88867104D01*
X85492201Y-88907700D01*
X85587700Y-88935303D01*
X85730501Y-88980401D01*
X85760500Y-88990105D01*
X85800399Y-89003403D01*
X85906299Y-89037202D01*
X86033901Y-89076501D01*
X86259500Y-89143899D01*
X86409000Y-89187501D01*
X86444099Y-89197999D01*
X86476301Y-89208100D01*
X86504801Y-89217202D01*
X86529100Y-89225098D01*
X86554001Y-89233498D01*
X86583999Y-89243806D01*
X86603700Y-89250603D01*
X86628799Y-89259499D01*
X86680200Y-89278504D01*
X86733200Y-89298905D01*
X86778000Y-89316804D01*
X86825599Y-89336503D01*
X86880300Y-89360100D01*
X86906900Y-89372002D01*
X86935100Y-89384904D01*
X86951000Y-89392304D01*
X87002201Y-89417199D01*
X87023201Y-89427804D01*
X87450800Y-89738503D01*
X87456001Y-89731499D01*
X87471500Y-89742905D01*
X87471700Y-89742699D01*
X87475700Y-89745705D01*
X87476301Y-89745003D01*
X87486700Y-89753899D01*
X87499799Y-89761803D01*
X87500400Y-89762200D01*
X87513099Y-89736901D01*
X89203701Y-89344704D01*
X89250900Y-89355302D01*
X89360901Y-89430802D01*
X89372600Y-89389901D01*
X89379499Y-89391900D01*
X89412201Y-89402299D01*
X89412401Y-89401604D01*
X89420400Y-89404099D01*
X89421900Y-89405305D01*
X89479999Y-89423699D01*
X89508199Y-89433503D01*
X89576101Y-89458298D01*
X89619400Y-89475098D01*
X89671899Y-89496201D01*
X89718000Y-89515603D01*
X89752500Y-89530404D01*
X89813600Y-89557404D01*
X89837400Y-89568101D01*
X89867901Y-89582101D01*
X89894300Y-89594399D01*
X89953500Y-89622498D01*
X89972000Y-89631402D01*
X90011200Y-89650498D01*
X90032501Y-89661103D01*
X90097999Y-89694001D01*
X90125000Y-89707802D01*
X90226101Y-89760605D01*
X90322900Y-89809998D01*
X90383400Y-89840104D01*
X90434700Y-89865304D01*
X90472400Y-89883202D01*
X90654400Y-89950204D01*
X90659500Y-89952401D01*
X90840299Y-90042504D01*
X90845600Y-90045403D01*
X90949001Y-90107804D01*
X90972299Y-90122903D01*
X91033100Y-90163705D01*
X91063301Y-90184701D01*
X91116701Y-90223405D01*
X91153801Y-90251099D01*
X91194799Y-90282601D01*
X91235599Y-90314904D01*
X91272501Y-90344704D01*
X91316499Y-90381203D01*
X91352800Y-90412003D01*
X91399500Y-90452599D01*
X91430799Y-90480400D01*
X91479299Y-90524498D01*
X91508600Y-90551598D01*
X91553800Y-90594300D01*
X91586300Y-90625702D01*
X91629801Y-90668602D01*
X91660000Y-90699204D01*
X91703201Y-90743599D01*
X91735901Y-90778199D01*
X91780800Y-90826798D01*
X91819299Y-90869599D01*
X91844200Y-90898201D01*
X91884100Y-90945404D01*
X91920200Y-90989502D01*
X91967901Y-91050103D01*
X91984899Y-91072502D01*
X92034000Y-91140198D01*
X92046900Y-91158898D01*
X92116300Y-91266205D01*
X92127399Y-91284600D01*
X92151701Y-91326104D01*
X92156900Y-91335305D01*
X92177900Y-91371102D01*
X92185699Y-91383904D01*
X92210500Y-91423005D01*
X92220899Y-91438904D01*
X92244600Y-91473900D01*
X92267200Y-91505600D01*
X92280599Y-91523705D01*
X92292301Y-91539002D01*
X92294800Y-91542099D01*
X92297800Y-91545098D01*
X92297701Y-91545205D01*
X92362501Y-91612503D01*
X92371900Y-91622803D01*
X92468700Y-91748604D01*
X92482099Y-91755204D01*
X92483499Y-91757103D01*
X92478300Y-91761200D01*
X92514301Y-91807900D01*
X92526001Y-91814301D01*
X92528900Y-91818299D01*
X92524700Y-91821404D01*
X92567600Y-91877205D01*
X92569999Y-91878601D01*
X92571100Y-91880204D01*
X92570301Y-91880700D01*
X92573000Y-91884201D01*
X92575500Y-91888100D01*
X92562700Y-91896401D01*
X92586700Y-91904900D01*
X92591699Y-91912903D01*
X92498300Y-91971901D01*
X92587101Y-92048203D01*
X92615700Y-92026200D01*
X92632000Y-92047402D01*
X92632900Y-92048500D01*
X92646900Y-92064598D01*
X92676000Y-92095803D01*
X92719900Y-92140602D01*
X92759500Y-92179398D01*
X92805099Y-92222504D01*
X92870399Y-92282204D01*
X92921200Y-92327202D01*
X92990900Y-92387398D01*
X93053699Y-92440102D01*
X93126699Y-92499504D01*
X93195400Y-92554001D01*
X93272199Y-92612801D01*
X93327600Y-92653901D01*
X93397100Y-92703598D01*
X93471401Y-92754799D01*
X93497200Y-92772202D01*
X93516401Y-92785401D01*
X93558500Y-92814598D01*
X93573400Y-92825104D01*
X93606701Y-92848603D01*
X93634197Y-92868401D01*
X93692997Y-92911599D01*
X93715698Y-92928399D01*
X93740497Y-92947098D01*
X93759998Y-92962105D01*
X93784199Y-92980904D01*
X93802601Y-92995202D01*
X93832996Y-93019402D01*
X93850795Y-93033699D01*
X93867595Y-93047303D01*
X93887996Y-93064202D01*
X93908199Y-93081002D01*
X93943397Y-93111100D01*
X93971897Y-93136002D01*
X94025196Y-93184304D01*
X94035698Y-93194199D01*
X94106998Y-93264702D01*
X94122799Y-93281205D01*
X94028499Y-93372002D01*
X94040699Y-93377602D01*
X94044796Y-93368599D01*
X94045200Y-93368805D01*
X94045696Y-93367798D01*
X94106598Y-93398301D01*
X94106399Y-93398701D01*
X94106299Y-93398901D01*
X94106197Y-93399102D01*
X94115898Y-93404702D01*
X94116298Y-93404000D01*
X94128795Y-93412102D01*
X94132198Y-93414002D01*
X94132099Y-93414200D01*
X94146297Y-93423302D01*
X94146348Y-93423252D01*
X94146398Y-93423203D01*
X94146447Y-93423154D01*
X94146471Y-93423129D01*
X94146496Y-93423104D01*
X94151897Y-93426903D01*
X94163498Y-93434403D01*
X94627899Y-93649201D01*
X94643398Y-93661202D01*
X94696895Y-93704300D01*
X94714397Y-93718804D01*
X94739998Y-93740502D01*
X94773498Y-93769402D01*
X94811798Y-93803299D01*
X94849998Y-93837998D01*
X94871097Y-93857399D01*
X94910900Y-93894600D01*
X94932499Y-93915001D01*
X94984997Y-93965599D01*
X95003898Y-93984002D01*
X95057399Y-94036904D01*
X95072899Y-94052399D01*
X95126796Y-94106804D01*
X95138698Y-94118904D01*
X95203899Y-94185898D01*
X95214698Y-94197098D01*
X95274997Y-94260002D01*
X95284599Y-94270004D01*
X95353397Y-94342903D01*
X95364097Y-94354202D01*
X95441601Y-94437500D01*
X95521099Y-94523598D01*
X95528999Y-94532303D01*
X95679199Y-94696899D01*
X95745197Y-94768700D01*
X95808300Y-94836700D01*
X95935997Y-94972999D01*
X95994098Y-95034401D01*
X96108200Y-95153099D01*
X96158897Y-95205101D01*
X96211300Y-95258301D01*
X96252697Y-95299805D01*
X96299099Y-95345604D01*
X96334900Y-95380600D01*
X96363399Y-95407898D01*
X96377300Y-95420898D01*
X96585598Y-95584198D01*
X96592296Y-95590301D01*
X96642597Y-95637504D01*
X96661297Y-95655701D01*
X96700798Y-95695099D01*
X96720398Y-95715301D01*
X96754398Y-95750999D01*
X96784797Y-95783897D01*
X96808696Y-95810104D01*
X96832599Y-95836800D01*
X96848098Y-95854401D01*
X96867599Y-95876701D01*
X96892097Y-95905304D01*
X96930797Y-95951301D01*
X96949398Y-95973701D01*
X96971199Y-96000503D01*
X96985798Y-96018600D01*
X97010799Y-96050003D01*
X97035000Y-96081001D01*
X97076999Y-96135902D01*
X97098499Y-96164497D01*
X97163799Y-96253097D01*
X97295398Y-96429901D01*
X97417400Y-96592499D01*
X97512996Y-96718002D01*
X97635799Y-96875198D01*
X97642498Y-96883804D01*
X97711597Y-96973305D01*
X97718799Y-96982704D01*
X97780098Y-97063003D01*
X97791198Y-97077804D01*
X97854698Y-97162598D01*
X97865997Y-97177902D01*
X97920097Y-97251701D01*
X97933799Y-97270599D01*
X97979900Y-97335003D01*
X97990799Y-97350403D01*
X98038997Y-97419102D01*
X98054199Y-97441002D01*
X98093597Y-97498901D01*
X98113197Y-97528202D01*
X98117397Y-97534702D01*
X98282299Y-97582302D01*
X98562000Y-97935501D01*
X98566398Y-97944801D01*
X98571296Y-97947300D01*
X98586097Y-97965900D01*
X98586899Y-97988701D01*
X98600498Y-98017601D01*
X98641197Y-98035400D01*
X98651600Y-98048603D01*
X98651699Y-98050400D01*
X98653599Y-98051102D01*
X98662899Y-98062801D01*
X98680698Y-98189102D01*
X98749298Y-98335602D01*
X98909797Y-98457302D01*
X98914497Y-98466499D01*
X98915497Y-98476700D01*
X98922600Y-98482101D01*
X98925998Y-98488903D01*
X98930797Y-98524902D01*
X98953197Y-98541901D01*
X98956199Y-98547901D01*
X98956199Y-98548000D01*
X98958698Y-98552803D01*
X98965099Y-98580902D01*
X98975696Y-98587902D01*
X98976898Y-98589901D01*
X98973198Y-98616802D01*
X99012100Y-98788002D01*
X99044197Y-98826000D01*
X99044498Y-98899200D01*
X99155697Y-99016903D01*
X99156399Y-99019199D01*
X99155399Y-99026901D01*
X99157497Y-99028999D01*
X99151897Y-99077400D01*
X99185096Y-99113003D01*
X99187000Y-99119400D01*
X99182499Y-99162399D01*
X99208896Y-99191402D01*
X99210499Y-99196701D01*
X99214496Y-99209801D01*
X99215698Y-99244602D01*
X99229599Y-99259601D01*
X99234497Y-99275600D01*
X99233398Y-99278500D01*
X99236297Y-99281700D01*
X99241199Y-99297703D01*
X99232097Y-99324200D01*
X99257599Y-99351601D01*
X99263397Y-99370602D01*
X99259899Y-99382500D01*
X99270599Y-99394302D01*
X99275200Y-99409599D01*
X99273899Y-99414600D01*
X99279998Y-99425201D01*
X99346698Y-99644501D01*
X99404899Y-99798702D01*
X99409797Y-99813900D01*
X99410999Y-99816902D01*
X99418499Y-99834202D01*
X99441299Y-99883400D01*
X99455299Y-99912300D01*
X99477600Y-99957100D01*
X99488098Y-99977600D01*
X99500000Y-100000000D01*
X99542297Y-99897400D01*
X99571499Y-99827602D01*
X99634800Y-99678200D01*
X99638698Y-99668899D01*
X99690998Y-99547302D01*
X99697899Y-99531502D01*
X99750000Y-99413002D01*
X99755199Y-99401302D01*
X99781597Y-99342399D01*
X99786400Y-99331600D01*
X99828098Y-99240002D01*
X99835800Y-99223400D01*
X99855598Y-99180702D01*
X99863598Y-99163799D01*
X99894397Y-99099300D01*
X99910297Y-99066700D01*
X99926498Y-99034202D01*
X99947399Y-98993702D01*
X99951297Y-98986202D01*
X99966697Y-98818802D01*
X99967899Y-98811203D01*
X99993396Y-98682201D01*
X99997398Y-98665100D01*
X100026100Y-98555500D01*
X100030998Y-98538601D01*
X100051799Y-98472000D01*
X100058597Y-98451500D01*
X100103698Y-98328899D01*
X100110798Y-98311302D01*
X100158199Y-98203300D01*
X100163299Y-98192802D01*
X100294399Y-97959701D01*
X100294197Y-97959602D01*
X100296997Y-97955101D01*
X100298099Y-97953102D01*
X100302398Y-97946701D01*
X100304199Y-97943901D01*
X100306400Y-97940201D01*
X100313698Y-97927299D01*
X100326698Y-97903000D01*
X100335899Y-97885403D01*
X100356098Y-97845100D01*
X100364300Y-97828102D01*
X100383697Y-97786301D01*
X100406398Y-97735401D01*
X100411999Y-97722401D01*
X100432098Y-97673500D01*
X100456299Y-97610599D01*
X100475197Y-97563202D01*
X100482300Y-97546100D01*
X100498398Y-97508301D01*
X100508098Y-97486103D01*
X100523498Y-97451900D01*
X100533397Y-97430500D01*
X100559299Y-97376400D01*
X100583000Y-97328701D01*
X100606399Y-97283302D01*
X100624599Y-97248901D01*
X100634399Y-97230598D01*
X100648899Y-97204002D01*
X100664097Y-97176498D01*
X100676998Y-97153702D01*
X100695297Y-97122002D01*
X100726597Y-97068802D01*
X100753299Y-97024704D01*
X100775997Y-96988304D01*
X100785598Y-96973099D01*
X100801197Y-96948601D01*
X100816700Y-96924599D01*
X100834297Y-96897804D01*
X100850696Y-96873199D01*
X100866600Y-96849800D01*
X100889000Y-96817398D01*
X100904400Y-96795601D01*
X100919998Y-96773903D01*
X100938099Y-96749000D01*
X100957798Y-96722404D01*
X100968597Y-96708000D01*
X100997799Y-96670204D01*
X101012398Y-96651703D01*
X101044998Y-96611603D01*
X101073700Y-96577202D01*
X101108299Y-96534698D01*
X101119098Y-96520904D01*
X101154400Y-96474502D01*
X101165497Y-96459602D01*
X101200798Y-96410499D01*
X101212898Y-96393303D01*
X101245399Y-96345703D01*
X101271797Y-96305298D01*
X101282200Y-96289001D01*
X101291500Y-96273903D01*
X101299400Y-96260902D01*
X101308696Y-96244697D01*
X101341400Y-96183205D01*
X101368999Y-96132805D01*
X101395897Y-96085503D01*
X101418098Y-96047600D01*
X101437500Y-95973503D01*
X101486999Y-95935104D01*
X101505298Y-95906097D01*
X101531399Y-95866005D01*
X101562198Y-95819801D01*
X101586097Y-95784698D01*
X101631397Y-95719902D01*
X101701297Y-95768700D01*
X102322696Y-95286102D01*
X102189899Y-95191200D01*
X102518299Y-94731598D01*
X102563198Y-94695000D01*
X102584297Y-94663200D01*
X102621700Y-94608398D01*
X102644798Y-94575203D01*
X102688598Y-94513603D01*
X102709499Y-94484703D01*
X102768596Y-94404701D01*
X102789699Y-94376701D01*
X102846897Y-94301903D01*
X102863498Y-94280601D01*
X102917000Y-94212700D01*
X102934898Y-94190300D01*
X103000396Y-94109505D01*
X103016598Y-94089798D01*
X103081600Y-94011704D01*
X103103100Y-93986298D01*
X103158798Y-93921700D01*
X103177898Y-93899704D01*
X103233597Y-93836899D01*
X103262298Y-93805298D01*
X103319397Y-93743500D01*
X103351497Y-93709702D01*
X103394798Y-93665001D01*
X103436699Y-93623101D01*
X103474296Y-93586502D01*
X103539398Y-93525902D01*
X103553398Y-93513504D01*
X103764499Y-93359101D01*
X103763199Y-93357399D01*
X103851398Y-93292702D01*
X103852699Y-93294602D01*
X103859996Y-93289200D01*
X103908298Y-93260498D01*
X105362400Y-92242699D01*
X105378399Y-92241402D01*
X105411197Y-92198601D01*
X105437298Y-92165299D01*
X105480900Y-92111000D01*
X105499698Y-92087899D01*
X105550598Y-92026299D01*
X105571697Y-92001198D01*
X105618999Y-91945801D01*
X105644798Y-91916199D01*
X105700199Y-91853905D01*
X105718399Y-91833702D01*
X105768299Y-91779099D01*
X105792598Y-91752999D01*
X105841400Y-91701401D01*
X105864498Y-91677399D01*
X105918098Y-91622704D01*
X105937500Y-91603203D01*
X105988399Y-91552605D01*
X106014099Y-91527504D01*
X106062099Y-91481499D01*
X106091697Y-91453705D01*
X106140499Y-91408799D01*
X106166698Y-91385003D01*
X106204300Y-91351601D01*
X106242397Y-91318703D01*
X106258499Y-91305100D01*
X106364196Y-91086098D01*
X107090099Y-90508301D01*
X107102600Y-90506104D01*
X107114498Y-90488999D01*
X107114898Y-90488701D01*
X107118198Y-90492905D01*
X107126499Y-90481598D01*
X107471199Y-90410302D01*
X107891597Y-90147301D01*
X108098400Y-89874405D01*
X109151497Y-89156998D01*
X109626400Y-89241006D01*
X109639499Y-89225403D01*
X109658600Y-89204003D01*
X109722397Y-89135399D01*
X109738498Y-89118806D01*
X109809200Y-89049904D01*
X109828098Y-89032303D01*
X109908798Y-88961304D01*
X109926498Y-88946503D01*
X110008796Y-88881501D01*
X110027500Y-88867501D01*
X110114097Y-88806199D01*
X110133598Y-88793099D01*
X110226497Y-88734604D01*
X110245300Y-88723504D01*
X110330997Y-88675599D01*
X110348499Y-88666405D01*
X111760498Y-88764405D01*
X112215000Y-87895699D01*
X112228897Y-87885804D01*
X112290100Y-87843804D01*
X112336197Y-87813401D01*
X112397297Y-87774705D01*
X112436397Y-87750901D01*
X112497799Y-87715005D01*
X112543598Y-87689400D01*
X112601898Y-87657899D01*
X112643097Y-87636605D01*
X112710800Y-87603104D01*
X112750698Y-87584306D01*
X112821296Y-87552705D01*
X112857300Y-87537400D01*
X112948498Y-87501305D01*
X112976700Y-87491006D01*
X113063198Y-87461404D01*
X113067497Y-87460000D01*
X113580898Y-87396600D01*
X113580898Y-87396302D01*
X113585296Y-87395203D01*
X113602199Y-87387902D01*
X113775497Y-87321900D01*
X113801998Y-87313203D01*
X113847397Y-87298905D01*
X113862999Y-87294205D01*
X113899299Y-87283601D01*
X113932697Y-87274201D01*
X113960998Y-87266404D01*
X113984997Y-87260003D01*
X114009597Y-87253602D01*
X114048298Y-87243905D01*
X114086197Y-87234704D01*
X114112797Y-87228501D01*
X114133999Y-87223702D01*
X114178199Y-87214005D01*
X114202900Y-87208703D01*
X114232197Y-87202599D01*
X114250698Y-87198899D01*
X114302200Y-87188699D01*
X114321998Y-87184899D01*
X114349499Y-87179803D01*
X114375797Y-87175004D01*
X114428497Y-87165902D01*
X114450699Y-87162202D01*
X114483799Y-87156899D01*
X114500698Y-87154198D01*
X114544597Y-87147500D01*
X114564499Y-87144601D01*
X114609298Y-87138200D01*
X114640400Y-87134003D01*
X114675197Y-87129601D01*
X114694599Y-87127305D01*
X114737797Y-87122201D01*
X114768398Y-87118905D01*
X114852798Y-87110406D01*
X114897297Y-87105599D01*
X114992397Y-87094704D01*
X115095699Y-87081605D01*
X115208297Y-87066705D01*
X115265400Y-87058602D01*
X115379898Y-87042001D01*
X115491699Y-87024903D01*
X115602699Y-87007104D01*
X115696998Y-86991006D01*
X115789596Y-86974305D01*
X115846599Y-86963403D01*
X115930000Y-86947900D01*
X115964298Y-86941804D01*
X116036098Y-86929803D01*
X116077598Y-86923302D01*
X116152797Y-86912301D01*
X116192798Y-86906899D01*
X116265297Y-86897805D01*
X116311298Y-86892503D01*
X116384098Y-86885102D01*
X116425800Y-86881303D01*
X116500698Y-86875199D01*
X116547100Y-86872002D01*
X116621799Y-86867699D01*
X116663799Y-86865701D01*
X116740898Y-86862901D01*
X116788498Y-86861703D01*
X116861500Y-86860802D01*
X116899700Y-86860703D01*
X116981598Y-86861199D01*
M02*
