  0
SECTION
  2
BLOCKS
  0
ENDSEC
  0
SECTION
  2
ENTITIES
  0
LINE
  8
0
 10
27.4132
 20
0.135666
 11
27.4317
 21
0.161972
  0
LINE
  8
0
 10
27.4317
 20
0.161972
 11
27.4453
 21
0.181503
  0
LINE
  8
0
 10
27.4453
 20
0.181503
 11
27.4908
 21
0.247726
  0
LINE
  8
0
 10
27.4908
 20
0.247726
 11
27.5017
 21
0.263733
  0
LINE
  8
0
 10
27.5017
 20
0.263733
 11
27.5524
 21
0.339127
  0
LINE
  8
0
 10
27.5524
 20
0.339127
 11
27.5596
 21
0.349792
  0
LINE
  8
0
 10
27.5596
 20
0.349792
 11
27.6225
 21
0.444656
  0
LINE
  8
0
 10
27.6225
 20
0.444656
 11
27.6294
 21
0.455124
  0
LINE
  8
0
 10
27.6294
 20
0.455124
 11
27.7154
 21
0.586487
  0
LINE
  8
0
 10
27.7154
 20
0.586487
 11
27.722
 21
0.596573
  0
LINE
  8
0
 10
27.722
 20
0.596573
 11
27.8207
 21
0.749359
  0
LINE
  8
0
 10
27.8207
 20
0.749359
 11
27.8505
 21
0.794403
  0
LINE
  8
0
 10
27.8505
 20
0.794403
 11
27.8783
 21
0.835556
  0
LINE
  8
0
 10
27.8783
 20
0.835556
 11
27.9062
 21
0.876007
  0
LINE
  8
0
 10
27.9062
 20
0.876007
 11
27.9322
 21
0.912766
  0
LINE
  8
0
 10
27.9322
 20
0.912766
 11
27.9535
 21
0.942123
  0
LINE
  8
0
 10
27.9535
 20
0.942123
 11
27.9744
 21
0.970215
  0
LINE
  8
0
 10
27.9744
 20
0.970215
 11
27.9871
 21
0.98671
  0
LINE
  8
0
 10
27.9871
 20
0.98671
 11
28.1467
 21
1.09624
  0
LINE
  8
0
 10
28.1467
 20
1.09624
 11
28.1488
 21
1.09819
  0
LINE
  8
0
 10
28.1488
 20
1.09819
 11
28.2405
 21
1.18889
  0
LINE
  8
0
 10
28.2405
 20
1.18889
 11
28.2485
 21
1.19733
  0
LINE
  8
0
 10
28.2485
 20
1.19733
 11
28.3233
 21
1.28093
  0
LINE
  8
0
 10
28.3233
 20
1.28093
 11
28.3293
 21
1.28798
  0
LINE
  8
0
 10
28.3293
 20
1.28798
 11
28.3676
 21
1.33464
  0
LINE
  8
0
 10
28.3676
 20
1.33464
 11
28.3826
 21
1.35355
  0
LINE
  8
0
 10
28.3826
 20
1.35355
 11
28.436
 21
1.42366
  0
LINE
  8
0
 10
28.436
 20
1.42366
 11
28.4498
 21
1.44278
  0
LINE
  8
0
 10
28.4498
 20
1.44278
 11
28.4748
 21
1.47787
  0
LINE
  8
0
 10
28.4748
 20
1.47787
 11
28.4784
 21
1.48311
  0
LINE
  8
0
 10
28.4784
 20
1.48311
 11
28.5314
 21
1.56355
  0
LINE
  8
0
 10
28.5314
 20
1.56355
 11
28.5367
 21
1.57205
  0
LINE
  8
0
 10
28.5367
 20
1.57205
 11
28.5412
 21
1.57968
  0
LINE
  8
0
 10
28.5412
 20
1.57968
 11
28.7449
 21
1.78665
  0
LINE
  8
0
 10
28.7449
 20
1.78665
 11
28.8947
 21
2.10663
  0
LINE
  8
0
 10
28.8947
 20
2.10663
 11
28.9029
 21
2.11781
  0
LINE
  8
0
 10
28.9029
 20
2.11781
 11
28.9168
 21
2.1378
  0
LINE
  8
0
 10
28.9168
 20
2.1378
 11
28.9497
 21
2.18636
  0
LINE
  8
0
 10
28.9497
 20
2.18636
 11
28.9592
 21
2.20076
  0
LINE
  8
0
 10
28.9592
 20
2.20076
 11
28.9913
 21
2.2514
  0
LINE
  8
0
 10
28.9913
 20
2.2514
 11
29.0021
 21
2.26906
  0
LINE
  8
0
 10
29.0021
 20
2.26906
 11
29.0215
 21
2.30135
  0
LINE
  8
0
 10
29.0215
 20
2.30135
 11
29.0363
 21
2.32657
  0
LINE
  8
0
 10
29.0363
 20
2.32657
 11
29.0554
 21
2.35973
  0
LINE
  8
0
 10
29.0554
 20
2.35973
 11
29.0713
 21
2.38802
  0
LINE
  8
0
 10
29.0713
 20
2.38802
 11
29.085
 21
2.41269
  0
LINE
  8
0
 10
29.085
 20
2.41269
 11
29.103
 21
2.44569
  0
LINE
  8
0
 10
29.103
 20
2.44569
 11
29.1168
 21
2.47153
  0
LINE
  8
0
 10
29.1168
 20
2.47153
 11
29.132
 21
2.50046
  0
LINE
  8
0
 10
29.132
 20
2.50046
 11
29.1412
 21
2.51828
  0
LINE
  8
0
 10
29.1412
 20
2.51828
 11
29.1759
 21
2.58589
  0
LINE
  8
0
 10
29.1759
 20
2.58589
 11
29.1991
 21
2.62994
  0
LINE
  8
0
 10
29.1991
 20
2.62994
 11
29.2249
 21
2.67732
  0
LINE
  8
0
 10
29.2249
 20
2.67732
 11
29.2315
 21
2.68904
  0
LINE
  8
0
 10
29.2315
 20
2.68904
 11
29.2571
 21
2.73366
  0
LINE
  8
0
 10
29.2571
 20
2.73366
 11
29.2749
 21
2.7636
  0
LINE
  8
0
 10
29.2749
 20
2.7636
 11
29.2883
 21
2.78531
  0
LINE
  8
0
 10
29.2883
 20
2.78531
 11
29.3106
 21
2.8118
  0
LINE
  8
0
 10
29.3106
 20
2.8118
 11
29.3298
 21
2.83565
  0
LINE
  8
0
 10
29.3298
 20
2.83565
 11
29.3583
 21
2.8717
  0
LINE
  8
0
 10
29.3583
 20
2.8717
 11
29.3852
 21
2.90659
  0
LINE
  8
0
 10
29.3852
 20
2.90659
 11
29.4012
 21
2.92764
  0
LINE
  8
0
 10
29.4012
 20
2.92764
 11
29.4348
 21
2.97243
  0
LINE
  8
0
 10
29.4348
 20
2.97243
 11
29.4496
 21
2.9924
  0
LINE
  8
0
 10
29.4496
 20
2.9924
 11
29.4845
 21
3.04016
  0
LINE
  8
0
 10
29.4845
 20
3.04016
 11
29.4945
 21
3.05406
  0
LINE
  8
0
 10
29.4945
 20
3.05406
 11
29.5357
 21
3.1115
  0
LINE
  8
0
 10
29.5357
 20
3.1115
 11
29.5428
 21
3.12143
  0
LINE
  8
0
 10
29.5428
 20
3.12143
 11
29.5861
 21
3.1825
  0
LINE
  8
0
 10
29.5861
 20
3.1825
 11
29.5927
 21
3.19191
  0
LINE
  8
0
 10
29.5927
 20
3.19191
 11
29.6374
 21
3.2558
  0
LINE
  8
0
 10
29.6374
 20
3.2558
 11
29.6445
 21
3.26593
  0
LINE
  8
0
 10
29.6445
 20
3.26593
 11
29.6899
 21
3.33173
  0
LINE
  8
0
 10
29.6899
 20
3.33173
 11
29.6965
 21
3.34143
  0
LINE
  8
0
 10
29.6965
 20
3.34143
 11
29.7471
 21
3.41551
  0
LINE
  8
0
 10
29.7471
 20
3.41551
 11
29.7921
 21
3.48218
  0
LINE
  8
0
 10
29.7921
 20
3.48218
 11
29.7982
 21
3.4912
  0
LINE
  8
0
 10
29.7982
 20
3.4912
 11
29.8414
 21
3.55582
  0
LINE
  8
0
 10
29.8414
 20
3.55582
 11
29.8499
 21
3.56862
  0
LINE
  8
0
 10
29.8499
 20
3.56862
 11
29.8918
 21
3.63245
  0
LINE
  8
0
 10
29.8918
 20
3.63245
 11
29.9386
 21
3.70436
  0
LINE
  8
0
 10
29.9386
 20
3.70436
 11
29.9491
 21
3.72067
  0
LINE
  8
0
 10
29.9491
 20
3.72067
 11
29.9836
 21
3.7749
  0
LINE
  8
0
 10
29.9836
 20
3.7749
 11
29.9927
 21
3.78929
  0
LINE
  8
0
 10
29.9927
 20
3.78929
 11
30.0193
 21
3.83176
  0
LINE
  8
0
 10
30.0193
 20
3.83176
 11
30.0333
 21
3.85455
  0
LINE
  8
0
 10
30.0333
 20
3.85455
 11
30.0587
 21
3.8965
  0
LINE
  8
0
 10
30.0587
 20
3.8965
 11
30.0811
 21
3.93433
  0
LINE
  8
0
 10
30.0811
 20
3.93433
 11
30.0998
 21
3.96674
  0
LINE
  8
0
 10
30.0998
 20
3.96674
 11
30.1316
 21
4.024
  0
LINE
  8
0
 10
30.1316
 20
4.024
 11
30.1365
 21
4.03323
  0
LINE
  8
0
 10
30.1365
 20
4.03323
 11
30.1631
 21
4.08705
  0
LINE
  8
0
 10
30.1631
 20
4.08705
 11
30.1746
 21
4.10631
  0
LINE
  8
0
 10
30.1746
 20
4.10631
 11
30.1821
 21
4.11844
  0
LINE
  8
0
 10
30.1821
 20
4.11844
 11
30.2168
 21
4.17404
  0
LINE
  8
0
 10
30.2168
 20
4.17404
 11
30.2569
 21
4.23718
  0
LINE
  8
0
 10
30.2569
 20
4.23718
 11
30.302
 21
4.30701
  0
LINE
  8
0
 10
30.302
 20
4.30701
 11
30.3551
 21
4.38841
  0
LINE
  8
0
 10
30.3551
 20
4.38841
 11
30.4099
 21
4.47118
  0
LINE
  8
0
 10
30.4099
 20
4.47118
 11
30.4673
 21
4.55707
  0
LINE
  8
0
 10
30.4673
 20
4.55707
 11
30.5907
 21
4.7406
  0
LINE
  8
0
 10
30.5907
 20
4.7406
 11
30.6786
 21
4.87236
  0
LINE
  8
0
 10
30.6786
 20
4.87236
 11
30.7669
 21
5.00581
  0
LINE
  8
0
 10
30.7669
 20
5.00581
 11
30.847
 21
5.12766
  0
LINE
  8
0
 10
30.847
 20
5.12766
 11
30.8523
 21
5.1358
  0
LINE
  8
0
 10
30.8523
 20
5.1358
 11
30.9358
 21
5.26424
  0
LINE
  8
0
 10
30.9358
 20
5.26424
 11
31.0176
 21
5.39119
  0
LINE
  8
0
 10
31.0176
 20
5.39119
 11
31.0978
 21
5.51675
  0
LINE
  8
0
 10
31.0978
 20
5.51675
 11
31.1687
 21
5.62869
  0
LINE
  8
0
 10
31.1687
 20
5.62869
 11
31.2504
 21
5.75887
  0
LINE
  8
0
 10
31.2504
 20
5.75887
 11
31.3148
 21
5.86269
  0
LINE
  8
0
 10
31.3148
 20
5.86269
 11
31.3917
 21
5.98807
  0
LINE
  8
0
 10
31.3917
 20
5.98807
 11
31.4494
 21
6.0833
  0
LINE
  8
0
 10
31.4494
 20
6.0833
 11
31.4552
 21
6.09303
  0
LINE
  8
0
 10
31.4552
 20
6.09303
 11
31.5112
 21
6.18674
  0
LINE
  8
0
 10
31.5112
 20
6.18674
 11
31.5185
 21
6.19904
  0
LINE
  8
0
 10
31.5185
 20
6.19904
 11
31.5705
 21
6.28758
  0
LINE
  8
0
 10
31.5705
 20
6.28758
 11
31.5785
 21
6.30121
  0
LINE
  8
0
 10
31.5785
 20
6.30121
 11
31.6295
 21
6.3896
  0
LINE
  8
0
 10
31.6295
 20
6.3896
 11
31.6383
 21
6.40498
  0
LINE
  8
0
 10
31.6383
 20
6.40498
 11
31.6823
 21
6.48291
  0
LINE
  8
0
 10
31.6823
 20
6.48291
 11
31.6935
 21
6.50293
  0
LINE
  8
0
 10
31.6935
 20
6.50293
 11
31.7302
 21
6.5696
  0
LINE
  8
0
 10
31.7302
 20
6.5696
 11
31.7421
 21
6.59158
  0
LINE
  8
0
 10
31.7421
 20
6.59158
 11
31.7745
 21
6.65213
  0
LINE
  8
0
 10
31.7745
 20
6.65213
 11
31.7895
 21
6.68083
  0
LINE
  8
0
 10
31.7895
 20
6.68083
 11
31.8212
 21
6.74242
  0
LINE
  8
0
 10
31.8212
 20
6.74242
 11
31.8384
 21
6.77686
  0
LINE
  8
0
 10
31.8384
 20
6.77686
 11
31.8605
 21
6.82199
  0
LINE
  8
0
 10
31.8605
 20
6.82199
 11
31.8665
 21
6.83427
  0
LINE
  8
0
 10
31.8665
 20
6.83427
 11
31.8794
 21
6.8611
  0
LINE
  8
0
 10
31.8794
 20
6.8611
 11
31.8844
 21
6.87109
  0
LINE
  8
0
 10
31.8844
 20
6.87109
 11
31.8887
 21
6.87946
  0
LINE
  8
0
 10
31.8887
 20
6.87946
 11
31.8945
 21
6.8893
  0
LINE
  8
0
 10
31.8945
 20
6.8893
 11
31.8941
 21
6.88956
  0
LINE
  8
0
 10
31.8941
 20
6.88956
 11
31.8952
 21
6.89149
  0
LINE
  8
0
 10
31.8952
 20
6.89149
 11
31.8951
 21
6.89154
  0
LINE
  8
0
 10
31.8951
 20
6.89154
 11
31.8981
 21
6.89711
  0
LINE
  8
0
 10
31.8981
 20
6.89711
 11
31.8978
 21
6.89726
  0
LINE
  8
0
 10
31.8978
 20
6.89726
 11
31.8996
 21
6.90062
  0
LINE
  8
0
 10
31.8996
 20
6.90062
 11
31.7336
 21
6.98599
  0
LINE
  8
0
 10
31.7336
 20
6.98599
 11
32.0245
 21
7.50192
  0
LINE
  8
0
 10
32.0245
 20
7.50192
 11
32.036
 21
7.49449
  0
LINE
  8
0
 10
32.036
 20
7.49449
 11
32.1588
 21
7.40805
  0
LINE
  8
0
 10
32.1588
 20
7.40805
 11
32.161
 21
7.41118
  0
LINE
  8
0
 10
32.161
 20
7.41118
 11
32.1614
 21
7.41096
  0
LINE
  8
0
 10
32.1614
 20
7.41096
 11
32.1627
 21
7.4129
  0
LINE
  8
0
 10
32.1627
 20
7.4129
 11
32.1629
 21
7.41272
  0
LINE
  8
0
 10
32.1629
 20
7.41272
 11
32.1706
 21
7.42461
  0
LINE
  8
0
 10
32.1706
 20
7.42461
 11
32.1707
 21
7.42456
  0
LINE
  8
0
 10
32.1707
 20
7.42456
 11
32.1721
 21
7.42693
  0
LINE
  8
0
 10
32.1721
 20
7.42693
 11
32.1804
 21
7.43842
  0
LINE
  8
0
 10
32.1804
 20
7.43842
 11
32.2053
 21
7.47192
  0
LINE
  8
0
 10
32.2053
 20
7.47192
 11
32.2231
 21
7.49623
  0
LINE
  8
0
 10
32.2231
 20
7.49623
 11
32.2518
 21
7.536
  0
LINE
  8
0
 10
32.2518
 20
7.536
 11
32.2698
 21
7.56143
  0
LINE
  8
0
 10
32.2698
 20
7.56143
 11
32.2927
 21
7.5943
  0
LINE
  8
0
 10
32.2927
 20
7.5943
 11
32.3091
 21
7.61818
  0
LINE
  8
0
 10
32.3091
 20
7.61818
 11
32.3404
 21
7.66455
  0
LINE
  8
0
 10
32.3404
 20
7.66455
 11
32.3539
 21
7.68481
  0
LINE
  8
0
 10
32.3539
 20
7.68481
 11
32.3862
 21
7.73389
  0
LINE
  8
0
 10
32.3862
 20
7.73389
 11
32.3998
 21
7.75487
  0
LINE
  8
0
 10
32.3998
 20
7.75487
 11
32.427
 21
7.79732
  0
LINE
  8
0
 10
32.427
 20
7.79732
 11
32.4421
 21
7.82135
  0
LINE
  8
0
 10
32.4421
 20
7.82135
 11
32.4667
 21
7.86098
  0
LINE
  8
0
 10
32.4667
 20
7.86098
 11
32.4824
 21
7.88673
  0
LINE
  8
0
 10
32.4824
 20
7.88673
 11
32.5074
 21
7.92831
  0
LINE
  8
0
 10
32.5074
 20
7.92831
 11
32.5227
 21
7.95427
  0
LINE
  8
0
 10
32.5227
 20
7.95427
 11
32.5439
 21
7.99091
  0
LINE
  8
0
 10
32.5439
 20
7.99091
 11
32.5523
 21
8.00581
  0
LINE
  8
0
 10
32.5523
 20
8.00581
 11
32.5825
 21
8.02887
  0
LINE
  8
0
 10
32.5825
 20
8.02887
 11
32.5963
 21
8.03957
  0
LINE
  8
0
 10
32.5963
 20
8.03957
 11
32.6279
 21
8.06471
  0
LINE
  8
0
 10
32.6279
 20
8.06471
 11
32.6418
 21
8.07597
  0
LINE
  8
0
 10
32.6418
 20
8.07597
 11
32.6717
 21
8.10074
  0
LINE
  8
0
 10
32.6717
 20
8.10074
 11
32.6842
 21
8.11128
  0
LINE
  8
0
 10
32.6842
 20
8.11128
 11
32.7145
 21
8.13739
  0
LINE
  8
0
 10
32.7145
 20
8.13739
 11
32.7242
 21
8.14589
  0
LINE
  8
0
 10
32.7242
 20
8.14589
 11
32.7497
 21
8.1687
  0
LINE
  8
0
 10
32.7497
 20
8.1687
 11
32.7657
 21
8.18324
  0
LINE
  8
0
 10
32.7657
 20
8.18324
 11
32.8023
 21
8.21736
  0
LINE
  8
0
 10
32.8023
 20
8.21736
 11
32.8121
 21
8.22667
  0
LINE
  8
0
 10
32.8121
 20
8.22667
 11
32.8332
 21
8.24716
  0
LINE
  8
0
 10
32.8332
 20
8.24716
 11
32.8431
 21
8.25697
  0
LINE
  8
0
 10
32.8431
 20
8.25697
 11
32.8713
 21
8.28525
  0
LINE
  8
0
 10
32.8713
 20
8.28525
 11
32.883
 21
8.29724
  0
LINE
  8
0
 10
32.883
 20
8.29724
 11
32.9278
 21
8.34471
  0
LINE
  8
0
 10
32.9278
 20
8.34471
 11
32.9432
 21
8.36157
  0
LINE
  8
0
 10
32.9432
 20
8.36157
 11
33.0167
 21
8.44659
  0
LINE
  8
0
 10
33.0167
 20
8.44659
 11
33.0283
 21
8.46085
  0
LINE
  8
0
 10
33.0283
 20
8.46085
 11
33.143
 21
8.61765
  0
LINE
  8
0
 10
33.143
 20
8.61765
 11
33.1461
 21
8.62053
  0
LINE
  8
0
 10
33.1461
 20
8.62053
 11
33.1487
 21
8.62445
  0
LINE
  8
0
 10
33.1487
 20
8.62445
 11
33.1509
 21
8.62856
  0
LINE
  8
0
 10
33.1509
 20
8.62856
 11
33.1532
 21
8.63168
  0
LINE
  8
0
 10
33.1532
 20
8.63168
 11
33.1554
 21
8.63503
  0
LINE
  8
0
 10
33.1554
 20
8.63503
 11
33.1548
 21
8.63545
  0
LINE
  8
0
 10
33.1548
 20
8.63545
 11
33.2217
 21
8.7562
  0
LINE
  8
0
 10
33.2217
 20
8.7562
 11
33.2287
 21
8.76421
  0
LINE
  8
0
 10
33.2287
 20
8.76421
 11
33.2389
 21
8.77545
  0
LINE
  8
0
 10
33.2389
 20
8.77545
 11
33.2527
 21
8.79044
  0
LINE
  8
0
 10
33.2527
 20
8.79044
 11
33.269
 21
8.80768
  0
LINE
  8
0
 10
33.269
 20
8.80768
 11
33.2879
 21
8.82729
  0
LINE
  8
0
 10
33.2879
 20
8.82729
 11
33.3039
 21
8.84363
  0
LINE
  8
0
 10
33.3039
 20
8.84363
 11
33.3219
 21
8.86153
  0
LINE
  8
0
 10
33.3219
 20
8.86153
 11
33.342
 21
8.88113
  0
LINE
  8
0
 10
33.342
 20
8.88113
 11
33.3893
 21
8.92624
  0
LINE
  8
0
 10
33.3893
 20
8.92624
 11
33.4065
 21
8.94276
  0
LINE
  8
0
 10
33.4065
 20
8.94276
 11
33.4336
 21
8.96922
  0
LINE
  8
0
 10
33.4336
 20
8.96922
 11
33.4528
 21
8.9882
  0
LINE
  8
0
 10
33.4528
 20
8.9882
 11
33.4832
 21
9.01866
  0
LINE
  8
0
 10
33.4832
 20
9.01866
 11
33.494
 21
9.02966
  0
LINE
  8
0
 10
33.494
 20
9.02966
 11
33.5218
 21
9.05794
  0
LINE
  8
0
 10
33.5218
 20
9.05794
 11
33.5394
 21
9.07603
  0
LINE
  8
0
 10
33.5394
 20
9.07603
 11
33.5591
 21
9.0966
  0
LINE
  8
0
 10
33.5591
 20
9.0966
 11
33.5722
 21
9.11047
  0
LINE
  8
0
 10
33.5722
 20
9.11047
 11
33.5983
 21
9.13824
  0
LINE
  8
0
 10
33.5983
 20
9.13824
 11
33.6157
 21
9.15701
  0
LINE
  8
0
 10
33.6157
 20
9.15701
 11
33.6434
 21
9.18726
  0
LINE
  8
0
 10
33.6434
 20
9.18726
 11
33.6592
 21
9.20468
  0
LINE
  8
0
 10
33.6592
 20
9.20468
 11
33.6783
 21
9.22606
  0
LINE
  8
0
 10
33.6783
 20
9.22606
 11
33.6883
 21
9.23735
  0
LINE
  8
0
 10
33.6883
 20
9.23735
 11
33.7135
 21
9.26591
  0
LINE
  8
0
 10
33.7135
 20
9.26591
 11
33.7311
 21
9.28613
  0
LINE
  8
0
 10
33.7311
 20
9.28613
 11
33.7489
 21
9.30699
  0
LINE
  8
0
 10
33.7489
 20
9.30699
 11
33.7624
 21
9.32291
  0
LINE
  8
0
 10
33.7624
 20
9.32291
 11
33.7845
 21
9.34923
  0
LINE
  8
0
 10
33.7845
 20
9.34923
 11
33.8042
 21
9.37302
  0
LINE
  8
0
 10
33.8042
 20
9.37302
 11
33.8223
 21
9.39526
  0
LINE
  8
0
 10
33.8223
 20
9.39526
 11
33.8441
 21
9.42253
  0
LINE
  8
0
 10
33.8441
 20
9.42253
 11
33.8578
 21
9.44005
  0
LINE
  8
0
 10
33.8578
 20
9.44005
 11
33.8776
 21
9.46571
  0
LINE
  8
0
 10
33.8776
 20
9.46571
 11
33.8918
 21
9.48439
  0
LINE
  8
0
 10
33.8918
 20
9.48439
 11
33.9161
 21
9.51711
  0
LINE
  8
0
 10
33.9161
 20
9.51711
 11
33.9297
 21
9.5358
  0
LINE
  8
0
 10
33.9297
 20
9.5358
 11
33.9671
 21
9.58905
  0
LINE
  8
0
 10
33.9671
 20
9.58905
 11
33.9775
 21
9.60425
  0
LINE
  8
0
 10
33.9775
 20
9.60425
 11
34.1052
 21
9.83292
  0
LINE
  8
0
 10
34.1052
 20
9.83292
 11
34.1053
 21
9.83289
  0
LINE
  8
0
 10
34.1053
 20
9.83289
 11
34.1079
 21
9.83704
  0
LINE
  8
0
 10
34.1079
 20
9.83704
 11
34.1129
 21
9.84425
  0
LINE
  8
0
 10
34.1129
 20
9.84425
 11
34.1127
 21
9.84438
  0
LINE
  8
0
 10
34.1127
 20
9.84438
 11
34.1136
 21
9.84586
  0
LINE
  8
0
 10
34.1136
 20
9.84586
 11
34.1138
 21
9.84575
  0
LINE
  8
0
 10
34.1138
 20
9.84575
 11
34.116
 21
9.84946
  0
LINE
  8
0
 10
34.116
 20
9.84946
 11
34.1168
 21
9.85074
  0
LINE
  8
0
 10
34.1168
 20
9.85074
 11
34.1168
 21
9.85078
  0
LINE
  8
0
 10
34.1168
 20
9.85078
 11
34.119
 21
9.85469
  0
LINE
  8
0
 10
34.119
 20
9.85469
 11
34.1191
 21
9.85464
  0
LINE
  8
0
 10
34.1191
 20
9.85464
 11
34.1216
 21
9.85907
  0
LINE
  8
0
 10
34.1216
 20
9.85907
 11
34.1231
 21
9.86153
  0
LINE
  8
0
 10
34.1231
 20
9.86153
 11
34.1232
 21
9.8615
  0
LINE
  8
0
 10
34.1232
 20
9.8615
 11
34.1251
 21
9.8651
  0
LINE
  8
0
 10
34.1251
 20
9.8651
 11
34.1311
 21
9.87526
  0
LINE
  8
0
 10
34.1311
 20
9.87526
 11
34.1307
 21
9.87546
  0
LINE
  8
0
 10
34.1307
 20
9.87546
 11
34.1324
 21
9.87866
  0
LINE
  8
0
 10
34.1324
 20
9.87866
 11
34.1325
 21
9.87865
  0
LINE
  8
0
 10
34.1325
 20
9.87865
 11
34.1331
 21
9.87993
  0
LINE
  8
0
 10
34.1331
 20
9.87993
 11
34.135
 21
9.88341
  0
LINE
  8
0
 10
34.135
 20
9.88341
 11
34.135
 21
9.88339
  0
LINE
  8
0
 10
34.135
 20
9.88339
 11
34.1355
 21
9.88429
  0
LINE
  8
0
 10
34.1355
 20
9.88429
 11
34.1363
 21
9.88579
  0
LINE
  8
0
 10
34.1363
 20
9.88579
 11
34.1362
 21
9.88582
  0
LINE
  8
0
 10
34.1362
 20
9.88582
 11
34.1391
 21
9.89153
  0
LINE
  8
0
 10
34.1391
 20
9.89153
 11
34.1392
 21
9.89148
  0
LINE
  8
0
 10
34.1392
 20
9.89148
 11
34.1407
 21
9.89467
  0
LINE
  8
0
 10
34.1407
 20
9.89467
 11
34.1424
 21
9.89806
  0
LINE
  8
0
 10
34.1424
 20
9.89806
 11
34.1423
 21
9.8981
  0
LINE
  8
0
 10
34.1423
 20
9.8981
 11
34.1452
 21
9.90396
  0
LINE
  8
0
 10
34.1452
 20
9.90396
 11
34.1451
 21
9.90401
  0
LINE
  8
0
 10
34.1451
 20
9.90401
 11
34.146
 21
9.90578
  0
LINE
  8
0
 10
34.146
 20
9.90578
 11
34.1465
 21
9.90674
  0
LINE
  8
0
 10
34.1465
 20
9.90674
 11
34.1479
 21
9.90997
  0
LINE
  8
0
 10
34.1479
 20
9.90997
 11
34.1492
 21
9.91263
  0
LINE
  8
0
 10
34.1492
 20
9.91263
 11
34.1491
 21
9.91266
  0
LINE
  8
0
 10
34.1491
 20
9.91266
 11
34.1563
 21
9.92854
  0
LINE
  8
0
 10
34.1563
 20
9.92854
 11
34.1264
 21
9.94202
  0
LINE
  8
0
 10
34.1264
 20
9.94202
 11
34.4944
 21
10.8322
  0
LINE
  8
0
 10
34.4944
 20
10.8322
 11
34.535
 21
10.8228
  0
LINE
  8
0
 10
34.535
 20
10.8228
 11
34.537
 21
10.8315
  0
LINE
  8
0
 10
34.537
 20
10.8315
 11
34.5372
 21
10.8315
  0
LINE
  8
0
 10
34.5372
 20
10.8315
 11
34.539
 21
10.8402
  0
LINE
  8
0
 10
34.539
 20
10.8402
 11
34.5392
 21
10.8401
  0
LINE
  8
0
 10
34.5392
 20
10.8401
 11
34.5401
 21
10.8448
  0
LINE
  8
0
 10
34.5401
 20
10.8448
 11
34.5428
 21
10.8551
  0
LINE
  8
0
 10
34.5428
 20
10.8551
 11
34.5462
 21
10.8668
  0
LINE
  8
0
 10
34.5462
 20
10.8668
 11
34.5602
 21
10.912
  0
LINE
  8
0
 10
34.5602
 20
10.912
 11
34.5714
 21
10.9455
  0
LINE
  8
0
 10
34.5714
 20
10.9455
 11
34.5804
 21
10.9714
  0
LINE
  8
0
 10
34.5804
 20
10.9714
 11
34.599
 21
11.0224
  0
LINE
  8
0
 10
34.599
 20
11.0224
 11
34.6013
 21
11.0284
  0
LINE
  8
0
 10
34.6013
 20
11.0284
 11
35.1822
 21
11.6006
  0
LINE
  8
0
 10
35.1822
 20
11.6006
 11
35.2004
 21
12.3545
  0
LINE
  8
0
 10
35.2004
 20
12.3545
 11
35.2166
 21
12.4161
  0
LINE
  8
0
 10
35.2166
 20
12.4161
 11
35.2315
 21
12.4773
  0
LINE
  8
0
 10
35.2315
 20
12.4773
 11
35.2484
 21
12.5536
  0
LINE
  8
0
 10
35.2484
 20
12.5536
 11
35.2517
 21
12.5701
  0
LINE
  8
0
 10
35.2517
 20
12.5701
 11
35.3577
 21
12.5474
  0
LINE
  8
0
 10
35.3577
 20
12.5474
 11
36.1783
 21
12.9641
  0
LINE
  8
0
 10
36.1783
 20
12.9641
 11
36.4634
 21
13.2052
  0
LINE
  8
0
 10
36.4634
 20
13.2052
 11
36.6989
 21
13.7324
  0
LINE
  8
0
 10
36.6989
 20
13.7324
 11
37.1976
 21
14.1802
  0
LINE
  8
0
 10
37.1976
 20
14.1802
 11
37.1267
 21
14.2592
  0
LINE
  8
0
 10
37.1267
 20
14.2592
 11
37.1611
 21
14.2672
  0
LINE
  8
0
 10
37.1611
 20
14.2672
 11
37.5291
 21
14.4647
  0
LINE
  8
0
 10
37.5291
 20
14.4647
 11
38.0186
 21
15.1368
  0
LINE
  8
0
 10
38.0186
 20
15.1368
 11
38.0274
 21
15.1396
  0
LINE
  8
0
 10
38.0274
 20
15.1396
 11
38.069
 21
15.1538
  0
LINE
  8
0
 10
38.069
 20
15.1538
 11
38.082
 21
15.1583
  0
LINE
  8
0
 10
38.082
 20
15.1583
 11
38.1782
 21
15.195
  0
LINE
  8
0
 10
38.1782
 20
15.195
 11
38.1879
 21
15.199
  0
LINE
  8
0
 10
38.1879
 20
15.199
 11
38.9817
 21
15.7895
  0
LINE
  8
0
 10
38.9817
 20
15.7895
 11
38.9894
 21
15.7991
  0
LINE
  8
0
 10
38.9894
 20
15.7991
 11
39.0193
 21
15.8368
  0
LINE
  8
0
 10
39.0193
 20
15.8368
 11
39.0244
 21
15.8435
  0
LINE
  8
0
 10
39.0244
 20
15.8435
 11
39.0676
 21
15.9016
  0
LINE
  8
0
 10
39.0676
 20
15.9016
 11
39.0823
 21
15.922
  0
LINE
  8
0
 10
39.0823
 20
15.922
 11
39.1124
 21
15.9653
  0
LINE
  8
0
 10
39.1124
 20
15.9653
 11
39.1248
 21
15.9837
  0
LINE
  8
0
 10
39.1248
 20
15.9837
 11
39.1451
 21
16.0143
  0
LINE
  8
0
 10
39.1451
 20
16.0143
 11
39.1583
 21
16.0346
  0
LINE
  8
0
 10
39.1583
 20
16.0346
 11
39.1707
 21
16.0538
  0
LINE
  8
0
 10
39.1707
 20
16.0538
 11
39.1977
 21
16.0965
  0
LINE
  8
0
 10
39.1977
 20
16.0965
 11
39.2026
 21
16.1032
  0
LINE
  8
0
 10
39.2026
 20
16.1032
 11
39.2066
 21
16.1074
  0
LINE
  8
0
 10
39.2066
 20
16.1074
 11
39.2064
 21
16.1076
  0
LINE
  8
0
 10
39.2064
 20
16.1076
 11
39.2157
 21
16.118
  0
LINE
  8
0
 10
39.2157
 20
16.118
 11
39.2152
 21
16.1184
  0
LINE
  8
0
 10
39.2152
 20
16.1184
 11
39.2154
 21
16.1186
  0
LINE
  8
0
 10
39.2154
 20
16.1186
 11
39.2151
 21
16.1188
  0
LINE
  8
0
 10
39.2151
 20
16.1188
 11
39.2154
 21
16.1191
  0
LINE
  8
0
 10
39.2154
 20
16.1191
 11
39.2149
 21
16.1195
  0
LINE
  8
0
 10
39.2149
 20
16.1195
 11
39.2155
 21
16.1203
  0
LINE
  8
0
 10
39.2155
 20
16.1203
 11
39.2055
 21
16.1278
  0
LINE
  8
0
 10
39.2055
 20
16.1278
 11
39.5718
 21
16.4845
  0
LINE
  8
0
 10
39.5718
 20
16.4845
 11
39.5808
 21
16.4973
  0
LINE
  8
0
 10
39.5808
 20
16.4973
 11
39.6381
 21
16.5839
  0
LINE
  8
0
 10
39.6381
 20
16.5839
 11
39.6446
 21
16.5942
  0
LINE
  8
0
 10
39.6446
 20
16.5942
 11
39.6743
 21
16.6435
  0
LINE
  8
0
 10
39.6743
 20
16.6435
 11
39.9519
 21
16.867
  0
LINE
  8
0
 10
39.9519
 20
16.867
 11
39.8479
 21
16.9962
  0
LINE
  8
0
 10
39.8479
 20
16.9962
 11
39.8615
 21
17.0299
  0
LINE
  8
0
 10
39.8615
 20
17.0299
 11
39.8693
 21
17.0499
  0
LINE
  8
0
 10
39.8693
 20
17.0499
 11
39.8875
 21
17.0986
  0
LINE
  8
0
 10
39.8875
 20
17.0986
 11
39.8978
 21
17.1276
  0
LINE
  8
0
 10
39.8978
 20
17.1276
 11
39.9106
 21
17.1648
  0
LINE
  8
0
 10
39.9106
 20
17.1648
 11
39.9184
 21
17.1701
  0
LINE
  8
0
 10
39.9184
 20
17.1701
 11
39.9626
 21
17.0762
  0
LINE
  8
0
 10
39.9626
 20
17.0762
 11
40.1641
 21
17.1711
  0
LINE
  8
0
 10
40.1641
 20
17.1711
 11
40.4351
 21
17.4418
  0
LINE
  8
0
 10
40.4351
 20
17.4418
 11
40.4628
 21
17.412
  0
LINE
  8
0
 10
40.4628
 20
17.412
 11
40.4731
 21
17.4216
  0
LINE
  8
0
 10
40.4731
 20
17.4216
 11
40.4733
 21
17.4214
  0
LINE
  8
0
 10
40.4733
 20
17.4214
 11
40.4988
 21
17.4464
  0
LINE
  8
0
 10
40.4988
 20
17.4464
 11
40.4986
 21
17.4466
  0
LINE
  8
0
 10
40.4986
 20
17.4466
 11
40.4988
 21
17.4468
  0
LINE
  8
0
 10
40.4988
 20
17.4468
 11
40.5036
 21
17.44
  0
LINE
  8
0
 10
40.5036
 20
17.44
 11
41.188
 21
17.9273
  0
LINE
  8
0
 10
41.188
 20
17.9273
 11
41.1394
 21
17.9955
  0
LINE
  8
0
 10
41.1394
 20
17.9955
 11
41.1789
 21
18.0254
  0
LINE
  8
0
 10
41.1789
 20
18.0254
 11
41.1916
 21
17.9955
  0
LINE
  8
0
 10
41.1916
 20
17.9955
 11
41.1957
 21
17.9973
  0
LINE
  8
0
 10
41.1957
 20
17.9973
 11
41.2555
 21
18.0298
  0
LINE
  8
0
 10
41.2555
 20
18.0298
 11
41.2576
 21
18.027
  0
LINE
  8
0
 10
41.2576
 20
18.027
 11
41.2587
 21
18.0247
  0
LINE
  8
0
 10
41.2587
 20
18.0247
 11
41.2592
 21
18.025
  0
LINE
  8
0
 10
41.2592
 20
18.025
 11
41.2867
 21
17.9884
  0
LINE
  8
0
 10
41.2867
 20
17.9884
 11
41.6044
 21
18.2272
  0
LINE
  8
0
 10
41.6044
 20
18.2272
 11
41.607
 21
18.2322
  0
LINE
  8
0
 10
41.607
 20
18.2322
 11
41.6375
 21
18.2541
  0
LINE
  8
0
 10
41.6375
 20
18.2541
 11
41.6508
 21
18.2641
  0
LINE
  8
0
 10
41.6508
 20
18.2641
 11
41.7137
 21
18.3139
  0
LINE
  8
0
 10
41.7137
 20
18.3139
 11
41.736
 21
18.3323
  0
LINE
  8
0
 10
41.736
 20
18.3323
 11
41.7832
 21
18.3724
  0
LINE
  8
0
 10
41.7832
 20
18.3724
 11
41.798
 21
18.3855
  0
LINE
  8
0
 10
41.798
 20
18.3855
 11
41.8451
 21
18.4282
  0
LINE
  8
0
 10
41.8451
 20
18.4282
 11
41.86
 21
18.4421
  0
LINE
  8
0
 10
41.86
 20
18.4421
 11
41.8934
 21
18.4744
  0
LINE
  8
0
 10
41.8934
 20
18.4744
 11
41.9724
 21
18.4832
  0
LINE
  8
0
 10
41.9724
 20
18.4832
 11
42.2208
 21
18.709
  0
LINE
  8
0
 10
42.2208
 20
18.709
 11
42.2452
 21
18.7692
  0
LINE
  8
0
 10
42.2452
 20
18.7692
 11
42.252
 21
18.7706
  0
LINE
  8
0
 10
42.252
 20
18.7706
 11
42.256
 21
18.7743
  0
LINE
  8
0
 10
42.256
 20
18.7743
 11
42.2658
 21
18.7994
  0
LINE
  8
0
 10
42.2658
 20
18.7994
 11
42.2869
 21
18.8029
  0
LINE
  8
0
 10
42.2869
 20
18.8029
 11
42.2892
 21
18.805
  0
LINE
  8
0
 10
42.2892
 20
18.805
 11
42.2954
 21
18.8209
  0
LINE
  8
0
 10
42.2954
 20
18.8209
 11
42.3099
 21
18.8287
  0
LINE
  8
0
 10
42.3099
 20
18.8287
 11
42.3152
 21
18.8292
  0
LINE
  8
0
 10
42.3152
 20
18.8292
 11
42.3187
 21
18.8323
  0
LINE
  8
0
 10
42.3187
 20
18.8323
 11
42.3192
 21
18.8337
  0
LINE
  8
0
 10
42.3192
 20
18.8337
 11
42.3212
 21
18.8347
  0
LINE
  8
0
 10
42.3212
 20
18.8347
 11
42.3235
 21
18.8368
  0
LINE
  8
0
 10
42.3235
 20
18.8368
 11
42.3347
 21
18.8645
  0
LINE
  8
0
 10
42.3347
 20
18.8645
 11
42.3749
 21
18.8844
  0
LINE
  8
0
 10
42.3749
 20
18.8844
 11
42.3761
 21
18.8856
  0
LINE
  8
0
 10
42.3761
 20
18.8856
 11
42.3772
 21
18.8884
  0
LINE
  8
0
 10
42.3772
 20
18.8884
 11
42.3812
 21
18.8902
  0
LINE
  8
0
 10
42.3812
 20
18.8902
 11
42.3835
 21
18.8924
  0
LINE
  8
0
 10
42.3835
 20
18.8924
 11
42.385
 21
18.8962
  0
LINE
  8
0
 10
42.385
 20
18.8962
 11
42.3885
 21
18.9044
  0
LINE
  8
0
 10
42.3885
 20
18.9044
 11
42.4026
 21
18.91
  0
LINE
  8
0
 10
42.4026
 20
18.91
 11
42.4045
 21
18.9118
  0
LINE
  8
0
 10
42.4045
 20
18.9118
 11
42.4191
 21
18.9486
  0
LINE
  8
0
 10
42.4191
 20
18.9486
 11
42.4569
 21
18.9603
  0
LINE
  8
0
 10
42.4569
 20
18.9603
 11
42.4591
 21
18.9624
  0
LINE
  8
0
 10
42.4591
 20
18.9624
 11
42.4602
 21
18.9682
  0
LINE
  8
0
 10
42.4602
 20
18.9682
 11
42.4675
 21
18.9702
  0
LINE
  8
0
 10
42.4675
 20
18.9702
 11
42.4688
 21
18.9713
  0
LINE
  8
0
 10
42.4688
 20
18.9713
 11
42.4724
 21
18.9874
  0
LINE
  8
0
 10
42.4724
 20
18.9874
 11
42.4906
 21
18.9915
  0
LINE
  8
0
 10
42.4906
 20
18.9915
 11
42.4939
 21
18.9946
  0
LINE
  8
0
 10
42.4939
 20
18.9946
 11
42.4957
 21
19.0011
  0
LINE
  8
0
 10
42.4957
 20
19.0011
 11
42.5023
 21
19.0023
  0
LINE
  8
0
 10
42.5023
 20
19.0023
 11
42.5053
 21
19.0051
  0
LINE
  8
0
 10
42.5053
 20
19.0051
 11
42.5105
 21
19.0219
  0
LINE
  8
0
 10
42.5105
 20
19.0219
 11
42.5193
 21
19.026
  0
LINE
  8
0
 10
42.5193
 20
19.026
 11
42.5295
 21
19.0275
  0
LINE
  8
0
 10
42.5295
 20
19.0275
 11
42.5341
 21
19.0317
  0
LINE
  8
0
 10
42.5341
 20
19.0317
 11
42.5345
 21
19.033
  0
LINE
  8
0
 10
42.5345
 20
19.033
 11
42.5364
 21
19.0339
  0
LINE
  8
0
 10
42.5364
 20
19.0339
 11
42.64
 21
19.1297
  0
LINE
  8
0
 10
42.64
 20
19.1297
 11
42.7729
 21
19.4672
  0
LINE
  8
0
 10
42.7729
 20
19.4672
 11
42.8556
 21
19.3969
  0
LINE
  8
0
 10
42.8556
 20
19.3969
 11
42.8589
 21
19.4008
  0
LINE
  8
0
 10
42.8589
 20
19.4008
 11
42.7749
 21
19.4721
  0
LINE
  8
0
 10
42.7749
 20
19.4721
 11
42.7804
 21
19.4863
  0
LINE
  8
0
 10
42.7804
 20
19.4863
 11
42.8717
 21
19.4149
  0
LINE
  8
0
 10
42.8717
 20
19.4149
 11
42.8936
 21
19.4429
  0
LINE
  8
0
 10
42.8936
 20
19.4429
 11
42.8944
 21
19.4423
  0
LINE
  8
0
 10
42.8944
 20
19.4423
 11
42.8967
 21
19.4455
  0
LINE
  8
0
 10
42.8967
 20
19.4455
 11
42.9043
 21
19.4566
  0
LINE
  8
0
 10
42.9043
 20
19.4566
 11
42.9062
 21
19.459
  0
LINE
  8
0
 10
42.9062
 20
19.459
 11
42.9061
 21
19.4591
  0
LINE
  8
0
 10
42.9061
 20
19.4591
 11
42.9207
 21
19.4803
  0
LINE
  8
0
 10
42.9207
 20
19.4803
 11
42.921
 21
19.4802
  0
LINE
  8
0
 10
42.921
 20
19.4802
 11
42.939
 21
19.5061
  0
LINE
  8
0
 10
42.939
 20
19.5061
 11
42.9387
 21
19.5064
  0
LINE
  8
0
 10
42.9387
 20
19.5064
 11
42.9466
 21
19.5179
  0
LINE
  8
0
 10
42.9466
 20
19.5179
 11
42.9501
 21
19.5232
  0
LINE
  8
0
 10
42.9501
 20
19.5232
 11
42.8269
 21
19.6041
  0
LINE
  8
0
 10
42.8269
 20
19.6041
 11
42.8271
 21
19.6048
  0
LINE
  8
0
 10
42.8271
 20
19.6048
 11
42.9511
 21
19.5252
  0
LINE
  8
0
 10
42.9511
 20
19.5252
 11
42.9556
 21
19.5321
  0
LINE
  8
0
 10
42.9556
 20
19.5321
 11
42.8302
 21
19.6126
  0
LINE
  8
0
 10
42.8302
 20
19.6126
 11
42.8333
 21
19.6204
  0
LINE
  8
0
 10
42.8333
 20
19.6204
 11
43.1036
 21
20.0498
  0
LINE
  8
0
 10
43.1036
 20
20.0498
 11
44.1201
 21
20.8443
  0
LINE
  8
0
 10
44.1201
 20
20.8443
 11
44.1343
 21
20.8291
  0
LINE
  8
0
 10
44.1343
 20
20.8291
 11
44.249
 21
20.9364
  0
LINE
  8
0
 10
44.249
 20
20.9364
 11
44.2687
 21
20.9604
  0
LINE
  8
0
 10
44.2687
 20
20.9604
 11
44.352
 21
21.0255
  0
LINE
  8
0
 10
44.352
 20
21.0255
 11
44.3889
 21
21.1018
  0
LINE
  8
0
 10
44.3889
 20
21.1018
 11
44.3941
 21
21.1123
  0
LINE
  8
0
 10
44.3941
 20
21.1123
 11
44.3957
 21
21.1153
  0
LINE
  8
0
 10
44.3957
 20
21.1153
 11
44.5701
 21
21.3281
  0
LINE
  8
0
 10
44.5701
 20
21.3281
 11
44.5741
 21
21.3305
  0
LINE
  8
0
 10
44.5741
 20
21.3305
 11
44.6174
 21
21.3573
  0
LINE
  8
0
 10
44.6174
 20
21.3573
 11
44.6589
 21
21.3836
  0
LINE
  8
0
 10
44.6589
 20
21.3836
 11
44.7165
 21
21.4212
  0
LINE
  8
0
 10
44.7165
 20
21.4212
 11
44.7582
 21
21.4491
  0
LINE
  8
0
 10
44.7582
 20
21.4491
 11
44.809
 21
21.4841
  0
LINE
  8
0
 10
44.809
 20
21.4841
 11
44.845
 21
21.5095
  0
LINE
  8
0
 10
44.845
 20
21.5095
 11
44.8965
 21
21.5465
  0
LINE
  8
0
 10
44.8965
 20
21.5465
 11
44.932
 21
21.5728
  0
LINE
  8
0
 10
44.932
 20
21.5728
 11
44.9769
 21
21.6067
  0
LINE
  8
0
 10
44.9769
 20
21.6067
 11
45.0118
 21
21.6337
  0
LINE
  8
0
 10
45.0118
 20
21.6337
 11
45.067
 21
21.6773
  0
LINE
  8
0
 10
45.067
 20
21.6773
 11
45.1015
 21
21.7052
  0
LINE
  8
0
 10
45.1015
 20
21.7052
 11
45.1466
 21
21.7425
  0
LINE
  8
0
 10
45.1466
 20
21.7425
 11
45.1782
 21
21.7692
  0
LINE
  8
0
 10
45.1782
 20
21.7692
 11
45.2275
 21
21.8118
  0
LINE
  8
0
 10
45.2275
 20
21.8118
 11
45.2617
 21
21.842
  0
LINE
  8
0
 10
45.2617
 20
21.842
 11
45.3031
 21
21.8794
  0
LINE
  8
0
 10
45.3031
 20
21.8794
 11
45.3375
 21
21.9112
  0
LINE
  8
0
 10
45.3375
 20
21.9112
 11
45.3827
 21
21.954
  0
LINE
  8
0
 10
45.3827
 20
21.954
 11
45.4203
 21
21.9906
  0
LINE
  8
0
 10
45.4203
 20
21.9906
 11
45.4595
 21
22.0297
  0
LINE
  8
0
 10
45.4595
 20
22.0297
 11
45.4942
 21
22.0652
  0
LINE
  8
0
 10
45.4942
 20
22.0652
 11
45.5301
 21
22.1029
  0
LINE
  8
0
 10
45.5301
 20
22.1029
 11
45.568
 21
22.1437
  0
LINE
  8
0
 10
45.568
 20
22.1437
 11
45.6025
 21
22.182
  0
LINE
  8
0
 10
45.6025
 20
22.182
 11
45.6428
 21
22.2281
  0
LINE
  8
0
 10
45.6428
 20
22.2281
 11
45.6667
 21
22.2562
  0
LINE
  8
0
 10
45.6667
 20
22.2562
 11
45.7063
 21
22.3045
  0
LINE
  8
0
 10
45.7063
 20
22.3045
 11
45.7346
 21
22.3401
  0
LINE
  8
0
 10
45.7346
 20
22.3401
 11
45.7882
 21
22.4106
  0
LINE
  8
0
 10
45.7882
 20
22.4106
 11
45.8072
 21
22.4368
  0
LINE
  8
0
 10
45.8072
 20
22.4368
 11
45.854
 21
22.5042
  0
LINE
  8
0
 10
45.854
 20
22.5042
 11
45.8694
 21
22.5274
  0
LINE
  8
0
 10
45.8694
 20
22.5274
 11
45.9316
 21
22.6272
  0
LINE
  8
0
 10
45.9316
 20
22.6272
 11
45.9408
 21
22.643
  0
LINE
  8
0
 10
45.9408
 20
22.643
 11
45.9951
 21
22.7435
  0
LINE
  8
0
 10
45.9951
 20
22.7435
 11
46.0093
 21
22.7602
  0
LINE
  8
0
 10
46.0093
 20
22.7602
 11
46.0177
 21
22.7697
  0
LINE
  8
0
 10
46.0177
 20
22.7697
 11
46.0497
 21
22.8046
  0
LINE
  8
0
 10
46.0497
 20
22.8046
 11
46.0697
 21
22.8257
  0
LINE
  8
0
 10
46.0697
 20
22.8257
 11
46.0992
 21
22.8556
  0
LINE
  8
0
 10
46.0992
 20
22.8556
 11
46.1293
 21
22.8853
  0
LINE
  8
0
 10
46.1293
 20
22.8853
 11
46.164
 21
22.9186
  0
LINE
  8
0
 10
46.164
 20
22.9186
 11
46.1993
 21
22.9515
  0
LINE
  8
0
 10
46.1993
 20
22.9515
 11
46.2388
 21
22.9875
  0
LINE
  8
0
 10
46.2388
 20
22.9875
 11
46.2814
 21
23.0252
  0
LINE
  8
0
 10
46.2814
 20
23.0252
 11
46.3234
 21
23.0616
  0
LINE
  8
0
 10
46.3234
 20
23.0616
 11
46.3717
 21
23.1026
  0
LINE
  8
0
 10
46.3717
 20
23.1026
 11
46.4487
 21
23.1665
  0
LINE
  8
0
 10
46.4487
 20
23.1665
 11
46.4809
 21
23.1938
  0
LINE
  8
0
 10
46.4809
 20
23.1938
 11
46.4957
 21
23.2067
  0
LINE
  8
0
 10
46.4957
 20
23.2067
 11
46.5249
 21
23.2325
  0
LINE
  8
0
 10
46.5249
 20
23.2325
 11
46.539
 21
23.2452
  0
LINE
  8
0
 10
46.539
 20
23.2452
 11
46.5821
 21
23.2853
  0
LINE
  8
0
 10
46.5821
 20
23.2853
 11
46.5938
 21
23.2965
  0
LINE
  8
0
 10
46.5938
 20
23.2965
 11
46.6432
 21
23.3454
  0
LINE
  8
0
 10
46.6432
 20
23.3454
 11
46.6538
 21
23.3563
  0
LINE
  8
0
 10
46.6538
 20
23.3563
 11
46.738
 21
23.4483
  0
LINE
  8
0
 10
46.738
 20
23.4483
 11
46.7393
 21
23.4498
  0
LINE
  8
0
 10
46.7393
 20
23.4498
 11
47.1035
 21
24.1559
  0
LINE
  8
0
 10
47.1035
 20
24.1559
 11
47.1163
 21
24.1646
  0
LINE
  8
0
 10
47.1163
 20
24.1646
 11
47.1169
 21
24.1654
  0
LINE
  8
0
 10
47.1169
 20
24.1654
 11
47.1176
 21
24.1689
  0
LINE
  8
0
 10
47.1176
 20
24.1689
 11
47.1464
 21
24.182
  0
LINE
  8
0
 10
47.1464
 20
24.182
 11
47.283
 21
24.3557
  0
LINE
  8
0
 10
47.283
 20
24.3557
 11
47.3142
 21
24.3889
  0
LINE
  8
0
 10
47.3142
 20
24.3889
 11
47.3224
 21
24.398
  0
LINE
  8
0
 10
47.3224
 20
24.398
 11
47.3369
 21
24.4244
  0
LINE
  8
0
 10
47.3369
 20
24.4244
 11
47.3566
 21
24.4494
  0
LINE
  8
0
 10
47.3566
 20
24.4494
 11
47.3569
 21
24.4606
  0
LINE
  8
0
 10
47.3569
 20
24.4606
 11
47.5947
 21
24.8932
  0
LINE
  8
0
 10
47.5947
 20
24.8932
 11
47.6104
 21
24.8813
  0
LINE
  8
0
 10
47.6104
 20
24.8813
 11
47.6143
 21
24.8865
  0
LINE
  8
0
 10
47.6143
 20
24.8865
 11
47.6149
 21
24.8861
  0
LINE
  8
0
 10
47.6149
 20
24.8861
 11
47.6221
 21
24.8965
  0
LINE
  8
0
 10
47.6221
 20
24.8965
 11
47.6223
 21
24.8964
  0
LINE
  8
0
 10
47.6223
 20
24.8964
 11
47.6254
 21
24.9011
  0
LINE
  8
0
 10
47.6254
 20
24.9011
 11
47.6256
 21
24.9009
  0
LINE
  8
0
 10
47.6256
 20
24.9009
 11
47.6284
 21
24.9053
  0
LINE
  8
0
 10
47.6284
 20
24.9053
 11
47.6343
 21
24.9126
  0
LINE
  8
0
 10
47.6343
 20
24.9126
 11
47.6531
 21
24.9344
  0
LINE
  8
0
 10
47.6531
 20
24.9344
 11
47.6685
 21
24.9515
  0
LINE
  8
0
 10
47.6685
 20
24.9515
 11
47.6906
 21
24.9749
  0
LINE
  8
0
 10
47.6906
 20
24.9749
 11
47.7127
 21
24.997
  0
LINE
  8
0
 10
47.7127
 20
24.997
 11
47.7363
 21
25.0195
  0
LINE
  8
0
 10
47.7363
 20
25.0195
 11
47.7549
 21
25.0365
  0
LINE
  8
0
 10
47.7549
 20
25.0365
 11
47.7747
 21
25.0535
  0
LINE
  8
0
 10
47.7747
 20
25.0535
 11
47.7763
 21
25.0548
  0
LINE
  8
0
 10
47.7763
 20
25.0548
 11
47.8092
 21
25.0721
  0
LINE
  8
0
 10
47.8092
 20
25.0721
 11
47.8331
 21
25.0848
  0
LINE
  8
0
 10
47.8331
 20
25.0848
 11
47.8503
 21
25.0941
  0
LINE
  8
0
 10
47.8503
 20
25.0941
 11
47.8785
 21
25.1098
  0
LINE
  8
0
 10
47.8785
 20
25.1098
 11
47.9132
 21
25.1293
  0
LINE
  8
0
 10
47.9132
 20
25.1293
 11
47.94
 21
25.1447
  0
LINE
  8
0
 10
47.94
 20
25.1447
 11
47.9582
 21
25.1553
  0
LINE
  8
0
 10
47.9582
 20
25.1553
 11
48.2443
 21
25.4213
  0
LINE
  8
0
 10
48.2443
 20
25.4213
 11
48.3884
 21
25.4855
  0
LINE
  8
0
 10
48.3884
 20
25.4855
 11
48.3664
 21
25.5348
  0
LINE
  8
0
 10
48.3664
 20
25.5348
 11
48.4972
 21
25.6564
  0
LINE
  8
0
 10
48.4972
 20
25.6564
 11
48.5053
 21
25.6475
  0
LINE
  8
0
 10
48.5053
 20
25.6475
 11
48.5131
 21
25.6547
  0
LINE
  8
0
 10
48.5131
 20
25.6547
 11
48.505
 21
25.6636
  0
LINE
  8
0
 10
48.505
 20
25.6636
 11
48.5068
 21
25.6653
  0
LINE
  8
0
 10
48.5068
 20
25.6653
 11
48.5071
 21
25.6655
  0
LINE
  8
0
 10
48.5071
 20
25.6655
 11
48.5156
 21
25.6567
  0
LINE
  8
0
 10
48.5156
 20
25.6567
 11
48.5314
 21
25.6719
  0
LINE
  8
0
 10
48.5314
 20
25.6719
 11
48.5315
 21
25.6718
  0
LINE
  8
0
 10
48.5315
 20
25.6718
 11
48.5346
 21
25.6749
  0
LINE
  8
0
 10
48.5346
 20
25.6749
 11
48.538
 21
25.6782
  0
LINE
  8
0
 10
48.538
 20
25.6782
 11
48.5379
 21
25.6783
  0
LINE
  8
0
 10
48.5379
 20
25.6783
 11
48.5429
 21
25.6834
  0
LINE
  8
0
 10
48.5429
 20
25.6834
 11
48.543
 21
25.6834
  0
LINE
  8
0
 10
48.543
 20
25.6834
 11
48.5443
 21
25.6848
  0
LINE
  8
0
 10
48.5443
 20
25.6848
 11
49.7498
 21
26.3104
  0
LINE
  8
0
 10
49.7498
 20
26.3104
 11
49.7696
 21
26.3456
  0
LINE
  8
0
 10
49.7696
 20
26.3456
 11
49.7857
 21
26.3747
  0
LINE
  8
0
 10
49.7857
 20
26.3747
 11
49.8063
 21
26.4128
  0
LINE
  8
0
 10
49.8063
 20
26.4128
 11
49.819
 21
26.4364
  0
LINE
  8
0
 10
49.819
 20
26.4364
 11
49.8414
 21
26.4791
  0
LINE
  8
0
 10
49.8414
 20
26.4791
 11
49.8544
 21
26.5043
  0
LINE
  8
0
 10
49.8544
 20
26.5043
 11
49.8779
 21
26.5508
  0
LINE
  8
0
 10
49.8779
 20
26.5508
 11
49.8904
 21
26.5759
  0
LINE
  8
0
 10
49.8904
 20
26.5759
 11
49.9157
 21
26.6275
  0
LINE
  8
0
 10
49.9157
 20
26.6275
 11
49.9259
 21
26.6488
  0
LINE
  8
0
 10
49.9259
 20
26.6488
 11
49.936
 21
26.67
  0
LINE
  8
0
 10
49.936
 20
26.67
 11
49.9439
 21
26.6868
  0
LINE
  8
0
 10
49.9439
 20
26.6868
 11
49.9638
 21
26.7297
  0
LINE
  8
0
 10
49.9638
 20
26.7297
 11
49.9737
 21
26.7515
  0
LINE
  8
0
 10
49.9737
 20
26.7515
 11
49.9808
 21
26.7672
  0
LINE
  8
0
 10
49.9808
 20
26.7672
 11
49.9909
 21
26.7903
  0
LINE
  8
0
 10
49.9909
 20
26.7903
 11
50.0069
 21
26.827
  0
LINE
  8
0
 10
50.0069
 20
26.827
 11
50.0166
 21
26.8498
  0
LINE
  8
0
 10
50.0166
 20
26.8498
 11
50.0284
 21
26.8779
  0
LINE
  8
0
 10
50.0284
 20
26.8779
 11
50.0414
 21
26.9097
  0
LINE
  8
0
 10
50.0414
 20
26.9097
 11
50.0532
 21
26.9392
  0
LINE
  8
0
 10
50.0532
 20
26.9392
 11
50.0691
 21
26.9805
  0
LINE
  8
0
 10
50.0691
 20
26.9805
 11
50.0758
 21
26.9984
  0
LINE
  8
0
 10
50.0758
 20
26.9984
 11
50.0935
 21
27.0476
  0
LINE
  8
0
 10
50.0935
 20
27.0476
 11
50.1012
 21
27.0699
  0
LINE
  8
0
 10
50.1012
 20
27.0699
 11
50.1185
 21
27.1226
  0
LINE
  8
0
 10
50.1185
 20
27.1226
 11
50.1223
 21
27.1347
  0
LINE
  8
0
 10
50.1223
 20
27.1347
 11
50.1389
 21
27.1908
  0
LINE
  8
0
 10
50.1389
 20
27.1908
 11
50.144
 21
27.2086
  0
LINE
  8
0
 10
50.144
 20
27.2086
 11
50.1636
 21
27.2838
  0
LINE
  8
0
 10
50.1636
 20
27.2838
 11
50.1659
 21
27.2935
  0
LINE
  8
0
 10
50.1659
 20
27.2935
 11
50.182
 21
27.3666
  0
LINE
  8
0
 10
50.182
 20
27.3666
 11
50.1854
 21
27.3836
  0
LINE
  8
0
 10
50.1854
 20
27.3836
 11
50.1974
 21
27.4483
  0
LINE
  8
0
 10
50.1974
 20
27.4483
 11
50.1995
 21
27.4614
  0
LINE
  8
0
 10
50.1995
 20
27.4614
 11
50.2119
 21
27.547
  0
LINE
  8
0
 10
50.2119
 20
27.547
 11
50.2134
 21
27.5594
  0
LINE
  8
0
 10
50.2134
 20
27.5594
 11
50.2196
 21
27.6161
  0
LINE
  8
0
 10
50.2196
 20
27.6161
 11
50.2213
 21
27.634
  0
LINE
  8
0
 10
50.2213
 20
27.634
 11
50.2261
 21
27.6965
  0
LINE
  8
0
 10
50.2261
 20
27.6965
 11
50.2279
 21
27.7245
  0
LINE
  8
0
 10
50.2279
 20
27.7245
 11
50.2307
 21
27.7832
  0
LINE
  8
0
 10
50.2307
 20
27.7832
 11
50.2314
 21
27.8055
  0
LINE
  8
0
 10
50.2314
 20
27.8055
 11
50.2324
 21
27.8563
  0
LINE
  8
0
 10
50.2324
 20
27.8563
 11
50.2326
 21
27.8852
  0
LINE
  8
0
 10
50.2326
 20
27.8852
 11
50.2326
 21
27.9183
  0
LINE
  8
0
 10
50.2326
 20
27.9183
 11
50.2323
 21
27.95
  0
LINE
  8
0
 10
50.2323
 20
27.95
 11
50.2317
 21
27.9843
  0
LINE
  8
0
 10
50.2317
 20
27.9843
 11
50.2308
 21
28.0202
  0
LINE
  8
0
 10
50.2308
 20
28.0202
 11
50.2301
 21
28.0421
  0
LINE
  8
0
 10
50.2301
 20
28.0421
 11
50.2283
 21
28.0908
  0
LINE
  8
0
 10
50.2283
 20
28.0908
 11
50.2274
 21
28.1116
  0
LINE
  8
0
 10
50.2274
 20
28.1116
 11
50.2254
 21
28.1542
  0
LINE
  8
0
 10
50.2254
 20
28.1542
 11
50.22
 21
28.2579
  0
LINE
  8
0
 10
50.22
 20
28.2579
 11
50.2192
 21
28.2789
  0
LINE
  8
0
 10
50.2192
 20
28.2789
 11
50.2188
 21
28.2989
  0
LINE
  8
0
 10
50.2188
 20
28.2989
 11
50.2186
 21
28.3289
  0
LINE
  8
0
 10
50.2186
 20
28.3289
 11
50.2187
 21
28.354
  0
LINE
  8
0
 10
50.2187
 20
28.354
 11
50.2191
 21
28.3784
  0
LINE
  8
0
 10
50.2191
 20
28.3784
 11
50.22
 21
28.405
  0
LINE
  8
0
 10
50.22
 20
28.405
 11
50.2212
 21
28.4332
  0
LINE
  8
0
 10
50.2212
 20
28.4332
 11
50.2229
 21
28.4622
  0
LINE
  8
0
 10
50.2229
 20
28.4622
 11
50.2249
 21
28.492
  0
LINE
  8
0
 10
50.2249
 20
28.492
 11
50.226
 21
28.5061
  0
LINE
  8
0
 10
50.226
 20
28.5061
 11
50.0502
 21
28.52
  0
LINE
  8
0
 10
50.0502
 20
28.52
 11
50.0522
 21
28.54
  0
LINE
  8
0
 10
50.0522
 20
28.54
 11
50.2436
 21
28.7991
  0
LINE
  8
0
 10
50.2436
 20
28.7991
 11
50.2652
 21
28.7951
  0
LINE
  8
0
 10
50.2652
 20
28.7951
 11
50.272
 21
28.8323
  0
LINE
  8
0
 10
50.272
 20
28.8323
 11
50.3685
 21
28.9068
  0
LINE
  8
0
 10
50.3685
 20
28.9068
 11
50.4181
 21
29.0267
  0
LINE
  8
0
 10
50.4181
 20
29.0267
 11
50.4201
 21
29.0292
  0
LINE
  8
0
 10
50.4201
 20
29.0292
 11
50.503
 21
29.1451
  0
LINE
  8
0
 10
50.503
 20
29.1451
 11
50.5072
 21
29.1513
  0
LINE
  8
0
 10
50.5072
 20
29.1513
 11
50.5559
 21
29.2382
  0
LINE
  8
0
 10
50.5559
 20
29.2382
 11
50.5681
 21
29.2487
  0
LINE
  8
0
 10
50.5681
 20
29.2487
 11
50.5697
 21
29.2514
  0
LINE
  8
0
 10
50.5697
 20
29.2514
 11
50.5649
 21
29.2542
  0
LINE
  8
0
 10
50.5649
 20
29.2542
 11
50.6115
 21
29.3372
  0
LINE
  8
0
 10
50.6115
 20
29.3372
 11
50.622
 21
29.3475
  0
LINE
  8
0
 10
50.622
 20
29.3475
 11
50.6264
 21
29.356
  0
LINE
  8
0
 10
50.6264
 20
29.356
 11
50.623
 21
29.3577
  0
LINE
  8
0
 10
50.623
 20
29.3577
 11
50.6524
 21
29.4101
  0
LINE
  8
0
 10
50.6524
 20
29.4101
 11
50.6544
 21
29.4144
  0
LINE
  8
0
 10
50.6544
 20
29.4144
 11
50.5909
 21
29.444
  0
LINE
  8
0
 10
50.5909
 20
29.444
 11
50.8124
 21
29.9791
  0
LINE
  8
0
 10
50.8124
 20
29.9791
 11
50.9319
 21
30.0456
  0
LINE
  8
0
 10
50.9319
 20
30.0456
 11
50.9465
 21
30.0395
  0
LINE
  8
0
 10
50.9465
 20
30.0395
 11
50.9541
 21
30.0579
  0
LINE
  8
0
 10
50.9541
 20
30.0579
 11
51.3991
 21
30.3054
  0
LINE
  8
0
 10
51.3991
 20
30.3054
 11
51.6187
 21
30.966
  0
LINE
  8
0
 10
51.6187
 20
30.966
 11
52.1236
 21
31.9925
  0
LINE
  8
0
 10
52.1236
 20
31.9925
 11
52.1249
 21
32.0176
  0
LINE
  8
0
 10
52.1249
 20
32.0176
 11
52.1266
 21
32.0628
  0
LINE
  8
0
 10
52.1266
 20
32.0628
 11
52.1272
 21
32.0847
  0
LINE
  8
0
 10
52.1272
 20
32.0847
 11
52.1275
 21
32.0988
  0
LINE
  8
0
 10
52.1275
 20
32.0988
 11
52.1313
 21
32.2952
  0
LINE
  8
0
 10
52.1313
 20
32.2952
 11
52.1354
 21
32.3193
  0
LINE
  8
0
 10
52.1354
 20
32.3193
 11
52.2003
 21
32.2856
  0
LINE
  8
0
 10
52.2003
 20
32.2856
 11
52.2011
 21
32.2871
  0
LINE
  8
0
 10
52.2011
 20
32.2871
 11
52.221
 21
32.3412
  0
LINE
  8
0
 10
52.221
 20
32.3412
 11
52.2272
 21
32.3383
  0
LINE
  8
0
 10
52.2272
 20
32.3383
 11
52.228
 21
32.3399
  0
LINE
  8
0
 10
52.228
 20
32.3399
 11
52.228
 21
32.3601
  0
LINE
  8
0
 10
52.228
 20
32.3601
 11
52.244
 21
32.4035
  0
LINE
  8
0
 10
52.244
 20
32.4035
 11
52.2552
 21
32.3986
  0
LINE
  8
0
 10
52.2552
 20
32.3986
 11
52.2592
 21
32.4076
  0
LINE
  8
0
 10
52.2592
 20
32.4076
 11
52.2579
 21
32.4411
  0
LINE
  8
0
 10
52.2579
 20
32.4411
 11
52.2893
 21
32.5264
  0
LINE
  8
0
 10
52.2893
 20
32.5264
 11
52.3047
 21
32.5209
  0
LINE
  8
0
 10
52.3047
 20
32.5209
 11
52.3064
 21
32.5258
  0
LINE
  8
0
 10
52.3064
 20
32.5258
 11
52.3025
 21
32.5622
  0
LINE
  8
0
 10
52.3025
 20
32.5622
 11
52.3477
 21
32.6846
  0
LINE
  8
0
 10
52.3477
 20
32.6846
 11
52.3556
 21
32.6825
  0
LINE
  8
0
 10
52.3556
 20
32.6825
 11
52.3557
 21
32.6828
  0
LINE
  8
0
 10
52.3557
 20
32.6828
 11
52.3527
 21
32.6983
  0
LINE
  8
0
 10
52.3527
 20
32.6983
 11
52.3753
 21
32.7595
  0
LINE
  8
0
 10
52.3753
 20
32.7595
 11
52.377
 21
32.7667
  0
LINE
  8
0
 10
52.377
 20
32.7667
 11
52.3979
 21
32.8697
  0
LINE
  8
0
 10
52.3979
 20
32.8697
 11
52.3994
 21
32.8783
  0
LINE
  8
0
 10
52.3994
 20
32.8783
 11
52.4148
 21
32.9811
  0
LINE
  8
0
 10
52.4148
 20
32.9811
 11
52.4166
 21
32.9952
  0
LINE
  8
0
 10
52.4166
 20
32.9952
 11
52.4258
 21
33.0877
  0
LINE
  8
0
 10
52.4258
 20
33.0877
 11
52.427
 21
33.1039
  0
LINE
  8
0
 10
52.427
 20
33.1039
 11
52.4318
 21
33.192
  0
LINE
  8
0
 10
52.4318
 20
33.192
 11
52.4324
 21
33.2101
  0
LINE
  8
0
 10
52.4324
 20
33.2101
 11
52.4333
 21
33.2886
  0
LINE
  8
0
 10
52.4333
 20
33.2886
 11
52.4332
 21
33.3076
  0
LINE
  8
0
 10
52.4332
 20
33.3076
 11
52.4306
 21
33.3962
  0
LINE
  8
0
 10
52.4306
 20
33.3962
 11
52.4294
 21
33.4187
  0
LINE
  8
0
 10
52.4294
 20
33.4187
 11
52.4234
 21
33.5023
  0
LINE
  8
0
 10
52.4234
 20
33.5023
 11
52.4213
 21
33.5241
  0
LINE
  8
0
 10
52.4213
 20
33.5241
 11
52.412
 21
33.6053
  0
LINE
  8
0
 10
52.412
 20
33.6053
 11
52.4093
 21
33.6257
  0
LINE
  8
0
 10
52.4093
 20
33.6257
 11
52.3952
 21
33.7145
  0
LINE
  8
0
 10
52.3952
 20
33.7145
 11
52.3902
 21
33.7422
  0
LINE
  8
0
 10
52.3902
 20
33.7422
 11
52.3828
 21
33.7799
  0
LINE
  8
0
 10
52.3828
 20
33.7799
 11
52.3953
 21
34.0201
  0
LINE
  8
0
 10
52.3953
 20
34.0201
 11
52.3089
 21
34.3126
  0
LINE
  8
0
 10
52.3089
 20
34.3126
 11
52.1066
 21
34.5358
  0
LINE
  8
0
 10
52.1066
 20
34.5358
 11
52.1061
 21
34.5556
  0
LINE
  8
0
 10
52.1061
 20
34.5556
 11
52.1056
 21
34.5999
  0
LINE
  8
0
 10
52.1056
 20
34.5999
 11
52.1053
 21
34.6702
  0
LINE
  8
0
 10
52.1053
 20
34.6702
 11
52.1053
 21
34.7433
  0
LINE
  8
0
 10
52.1053
 20
34.7433
 11
52.1058
 21
34.8239
  0
LINE
  8
0
 10
52.1058
 20
34.8239
 11
52.1078
 21
35.0284
  0
LINE
  8
0
 10
52.1078
 20
35.0284
 11
52.1087
 21
35.0891
  0
LINE
  8
0
 10
52.1087
 20
35.0891
 11
52.11
 21
35.1555
  0
LINE
  8
0
 10
52.11
 20
35.1555
 11
52.1114
 21
35.2177
  0
LINE
  8
0
 10
52.1114
 20
35.2177
 11
52.113
 21
35.278
  0
LINE
  8
0
 10
52.113
 20
35.278
 11
52.1171
 21
35.4049
  0
LINE
  8
0
 10
52.1171
 20
35.4049
 11
52.1192
 21
35.4575
  0
LINE
  8
0
 10
52.1192
 20
35.4575
 11
52.1242
 21
35.5687
  0
LINE
  8
0
 10
52.1242
 20
35.5687
 11
52.1297
 21
35.6689
  0
LINE
  8
0
 10
52.1297
 20
35.6689
 11
52.1321
 21
35.706
  0
LINE
  8
0
 10
52.1321
 20
35.706
 11
52.1349
 21
35.7454
  0
LINE
  8
0
 10
52.1349
 20
35.7454
 11
52.1374
 21
35.7774
  0
LINE
  8
0
 10
52.1374
 20
35.7774
 11
52.1398
 21
35.8053
  0
LINE
  8
0
 10
52.1398
 20
35.8053
 11
52.1407
 21
35.8149
  0
LINE
  8
0
 10
52.1407
 20
35.8149
 11
52.152
 21
35.875
  0
LINE
  8
0
 10
52.152
 20
35.875
 11
52.1536
 21
35.8842
  0
LINE
  8
0
 10
52.1536
 20
35.8842
 11
52.1674
 21
35.9829
  0
LINE
  8
0
 10
52.1674
 20
35.9829
 11
52.1685
 21
35.9925
  0
LINE
  8
0
 10
52.1685
 20
35.9925
 11
52.175
 21
36.0601
  0
LINE
  8
0
 10
52.175
 20
36.0601
 11
52.1762
 21
36.0746
  0
LINE
  8
0
 10
52.1762
 20
36.0746
 11
52.1812
 21
36.159
  0
LINE
  8
0
 10
52.1812
 20
36.159
 11
52.1818
 21
36.1763
  0
LINE
  8
0
 10
52.1818
 20
36.1763
 11
52.1833
 21
36.2518
  0
LINE
  8
0
 10
52.1833
 20
36.2518
 11
52.1833
 21
36.2655
  0
LINE
  8
0
 10
52.1833
 20
36.2655
 11
52.1825
 21
36.3216
  0
LINE
  8
0
 10
52.1825
 20
36.3216
 11
52.1818
 21
36.345
  0
LINE
  8
0
 10
52.1818
 20
36.345
 11
52.178
 21
36.424
  0
LINE
  8
0
 10
52.178
 20
36.424
 11
52.1762
 21
36.4508
  0
LINE
  8
0
 10
52.1762
 20
36.4508
 11
52.1721
 21
36.5016
  0
LINE
  8
0
 10
52.1721
 20
36.5016
 11
52.1705
 21
36.5188
  0
LINE
  8
0
 10
52.1705
 20
36.5188
 11
52.1653
 21
36.5685
  0
LINE
  8
0
 10
52.1653
 20
36.5685
 11
52.1615
 21
36.6004
  0
LINE
  8
0
 10
52.1615
 20
36.6004
 11
52.1537
 21
36.6585
  0
LINE
  8
0
 10
52.1537
 20
36.6585
 11
52.1494
 21
36.6878
  0
LINE
  8
0
 10
52.1494
 20
36.6878
 11
52.1424
 21
36.7314
  0
LINE
  8
0
 10
52.1424
 20
36.7314
 11
52.1371
 21
36.7625
  0
LINE
  8
0
 10
52.1371
 20
36.7625
 11
52.1286
 21
36.8087
  0
LINE
  8
0
 10
52.1286
 20
36.8087
 11
52.1225
 21
36.8403
  0
LINE
  8
0
 10
52.1225
 20
36.8403
 11
52.1127
 21
36.887
  0
LINE
  8
0
 10
52.1127
 20
36.887
 11
52.1052
 21
36.9211
  0
LINE
  8
0
 10
52.1052
 20
36.9211
 11
52.0972
 21
36.9562
  0
LINE
  8
0
 10
52.0972
 20
36.9562
 11
52.0886
 21
36.992
  0
LINE
  8
0
 10
52.0886
 20
36.992
 11
52.0795
 21
37.0284
  0
LINE
  8
0
 10
52.0795
 20
37.0284
 11
52.0701
 21
37.0646
  0
LINE
  8
0
 10
52.0701
 20
37.0646
 11
52.0592
 21
37.1051
  0
LINE
  8
0
 10
52.0592
 20
37.1051
 11
52.0479
 21
37.1451
  0
LINE
  8
0
 10
52.0479
 20
37.1451
 11
52.0389
 21
37.1763
  0
LINE
  8
0
 10
52.0389
 20
37.1763
 11
52.0282
 21
37.212
  0
LINE
  8
0
 10
52.0282
 20
37.212
 11
52.0175
 21
37.2464
  0
LINE
  8
0
 10
52.0175
 20
37.2464
 11
52.0071
 21
37.2793
  0
LINE
  8
0
 10
52.0071
 20
37.2793
 11
52.0048
 21
37.2982
  0
LINE
  8
0
 10
52.0048
 20
37.2982
 11
52.0006
 21
37.3386
  0
LINE
  8
0
 10
52.0006
 20
37.3386
 11
51.9961
 21
37.3895
  0
LINE
  8
0
 10
51.9961
 20
37.3895
 11
51.9944
 21
37.4114
  0
LINE
  8
0
 10
51.9944
 20
37.4114
 11
51.9933
 21
37.4277
  0
LINE
  8
0
 10
51.9933
 20
37.4277
 11
51.9904
 21
37.4819
  0
LINE
  8
0
 10
51.9904
 20
37.4819
 11
51.9896
 21
37.5017
  0
LINE
  8
0
 10
51.9896
 20
37.5017
 11
51.9823
 21
37.7422
  0
LINE
  8
0
 10
51.9823
 20
37.7422
 11
51.9819
 21
37.7547
  0
LINE
  8
0
 10
51.9819
 20
37.7547
 11
51.9797
 21
37.8141
  0
LINE
  8
0
 10
51.9797
 20
37.8141
 11
51.9776
 21
37.8646
  0
LINE
  8
0
 10
51.9776
 20
37.8646
 11
51.9761
 21
37.8947
  0
LINE
  8
0
 10
51.9761
 20
37.8947
 11
51.9736
 21
37.9379
  0
LINE
  8
0
 10
51.9736
 20
37.9379
 11
51.9715
 21
37.9705
  0
LINE
  8
0
 10
51.9715
 20
37.9705
 11
51.9694
 21
37.9991
  0
LINE
  8
0
 10
51.9694
 20
37.9991
 11
51.9653
 21
38.0465
  0
LINE
  8
0
 10
51.9653
 20
38.0465
 11
51.964
 21
38.0598
  0
LINE
  8
0
 10
51.964
 20
38.0598
 11
51.9547
 21
38.1388
  0
LINE
  8
0
 10
51.9547
 20
38.1388
 11
51.9534
 21
38.1484
  0
LINE
  8
0
 10
51.9534
 20
38.1484
 11
51.9518
 21
38.1575
  0
LINE
  8
0
 10
51.9518
 20
38.1575
 11
51.952
 21
38.1592
  0
LINE
  8
0
 10
51.952
 20
38.1592
 11
51.9515
 21
38.1629
  0
LINE
  8
0
 10
51.9515
 20
38.1629
 11
51.9508
 21
38.1628
  0
LINE
  8
0
 10
51.9508
 20
38.1628
 11
51.9342
 21
38.2547
  0
LINE
  8
0
 10
51.9342
 20
38.2547
 11
51.9352
 21
38.2585
  0
LINE
  8
0
 10
51.9352
 20
38.2585
 11
51.9335
 21
38.2672
  0
LINE
  8
0
 10
51.9335
 20
38.2672
 11
51.932
 21
38.2669
  0
LINE
  8
0
 10
51.932
 20
38.2669
 11
51.9239
 21
38.3119
  0
LINE
  8
0
 10
51.9239
 20
38.3119
 11
51.9234
 21
38.3142
  0
LINE
  8
0
 10
51.9234
 20
38.3142
 11
51.5848
 21
38.2385
  0
LINE
  8
0
 10
51.5848
 20
38.2385
 11
51.568
 21
38.4604
  0
LINE
  8
0
 10
51.568
 20
38.4604
 11
51.7298
 21
38.4861
  0
LINE
  8
0
 10
51.7298
 20
38.4861
 11
51.7274
 21
38.5013
  0
LINE
  8
0
 10
51.7274
 20
38.5013
 11
51.7275
 21
38.5014
  0
LINE
  8
0
 10
51.7275
 20
38.5014
 11
51.7269
 21
38.5044
  0
LINE
  8
0
 10
51.7269
 20
38.5044
 11
51.7259
 21
38.5107
  0
LINE
  8
0
 10
51.7259
 20
38.5107
 11
51.7242
 21
38.524
  0
LINE
  8
0
 10
51.7242
 20
38.524
 11
51.7216
 21
38.546
  0
LINE
  8
0
 10
51.7216
 20
38.546
 11
51.7187
 21
38.5732
  0
LINE
  8
0
 10
51.7187
 20
38.5732
 11
51.7152
 21
38.6096
  0
LINE
  8
0
 10
51.7152
 20
38.6096
 11
51.7032
 21
38.7472
  0
LINE
  8
0
 10
51.7032
 20
38.7472
 11
51.7014
 21
38.7664
  0
LINE
  8
0
 10
51.7014
 20
38.7664
 11
51.6977
 21
38.8047
  0
LINE
  8
0
 10
51.6977
 20
38.8047
 11
51.6965
 21
38.8167
  0
LINE
  8
0
 10
51.6965
 20
38.8167
 11
51.6923
 21
38.8576
  0
LINE
  8
0
 10
51.6923
 20
38.8576
 11
51.6889
 21
38.8878
  0
LINE
  8
0
 10
51.6889
 20
38.8878
 11
51.6806
 21
38.9583
  0
LINE
  8
0
 10
51.6806
 20
38.9583
 11
51.678
 21
38.979
  0
LINE
  8
0
 10
51.678
 20
38.979
 11
51.6731
 21
39.0173
  0
LINE
  8
0
 10
51.6731
 20
39.0173
 11
51.6713
 21
39.0309
  0
LINE
  8
0
 10
51.6713
 20
39.0309
 11
51.6663
 21
39.0673
  0
LINE
  8
0
 10
51.6663
 20
39.0673
 11
51.6639
 21
39.0843
  0
LINE
  8
0
 10
51.6639
 20
39.0843
 11
51.658
 21
39.1255
  0
LINE
  8
0
 10
51.658
 20
39.1255
 11
51.6561
 21
39.1378
  0
LINE
  8
0
 10
51.6561
 20
39.1378
 11
51.6511
 21
39.171
  0
LINE
  8
0
 10
51.6511
 20
39.171
 11
51.6487
 21
39.1867
  0
LINE
  8
0
 10
51.6487
 20
39.1867
 11
51.6432
 21
39.2214
  0
LINE
  8
0
 10
51.6432
 20
39.2214
 11
51.6384
 21
39.2498
  0
LINE
  8
0
 10
51.6384
 20
39.2498
 11
51.6273
 21
39.3137
  0
LINE
  8
0
 10
51.6273
 20
39.3137
 11
51.6199
 21
39.354
  0
LINE
  8
0
 10
51.6199
 20
39.354
 11
51.6086
 21
39.412
  0
LINE
  8
0
 10
51.6086
 20
39.412
 11
51.602
 21
39.4442
  0
LINE
  8
0
 10
51.602
 20
39.4442
 11
51.5967
 21
39.4692
  0
LINE
  8
0
 10
51.5967
 20
39.4692
 11
51.591
 21
39.4952
  0
LINE
  8
0
 10
51.591
 20
39.4952
 11
51.587
 21
39.5128
  0
LINE
  8
0
 10
51.587
 20
39.5128
 11
51.5797
 21
39.544
  0
LINE
  8
0
 10
51.5797
 20
39.544
 11
51.5739
 21
39.5679
  0
LINE
  8
0
 10
51.5739
 20
39.5679
 11
51.5621
 21
39.6141
  0
LINE
  8
0
 10
51.5621
 20
39.6141
 11
51.5583
 21
39.6279
  0
LINE
  8
0
 10
51.5583
 20
39.6279
 11
51.5454
 21
39.6738
  0
LINE
  8
0
 10
51.5454
 20
39.6738
 11
51.5433
 21
39.6812
  0
LINE
  8
0
 10
51.5433
 20
39.6812
 11
51.5221
 21
39.7487
  0
LINE
  8
0
 10
51.5221
 20
39.7487
 11
51.5154
 21
39.7686
  0
LINE
  8
0
 10
51.5154
 20
39.7686
 11
51.514
 21
39.7748
  0
LINE
  8
0
 10
51.514
 20
39.7748
 11
51.5129
 21
39.7822
  0
LINE
  8
0
 10
51.5129
 20
39.7822
 11
51.5127
 21
39.7822
  0
LINE
  8
0
 10
51.5127
 20
39.7822
 11
51.5113
 21
39.7908
  0
LINE
  8
0
 10
51.5113
 20
39.7908
 11
51.5107
 21
39.7907
  0
LINE
  8
0
 10
51.5107
 20
39.7907
 11
51.5093
 21
39.7971
  0
LINE
  8
0
 10
51.5093
 20
39.7971
 11
51.5062
 21
39.7964
  0
LINE
  8
0
 10
51.5062
 20
39.7964
 11
51.4999
 21
39.8428
  0
LINE
  8
0
 10
51.4999
 20
39.8428
 11
51.5068
 21
39.8896
  0
LINE
  8
0
 10
51.5068
 20
39.8896
 11
51.5062
 21
39.8944
  0
LINE
  8
0
 10
51.5062
 20
39.8944
 11
51.4931
 21
39.8928
  0
LINE
  8
0
 10
51.4931
 20
39.8928
 11
51.4808
 21
39.983
  0
LINE
  8
0
 10
51.4808
 20
39.983
 11
51.4826
 21
40.0098
  0
LINE
  8
0
 10
51.4826
 20
40.0098
 11
51.4929
 21
40.0688
  0
LINE
  8
0
 10
51.4929
 20
40.0688
 11
51.4255
 21
40.3858
  0
LINE
  8
0
 10
51.4255
 20
40.3858
 11
51.3894
 21
40.4325
  0
LINE
  8
0
 10
51.3894
 20
40.4325
 11
51.3511
 21
40.6021
  0
LINE
  8
0
 10
51.3511
 20
40.6021
 11
51.3465
 21
40.6164
  0
LINE
  8
0
 10
51.3465
 20
40.6164
 11
51.3066
 21
40.7273
  0
LINE
  8
0
 10
51.3066
 20
40.7273
 11
51.3002
 21
40.7434
  0
LINE
  8
0
 10
51.3002
 20
40.7434
 11
51.2706
 21
40.8147
  0
LINE
  8
0
 10
51.2706
 20
40.8147
 11
51.2641
 21
40.8295
  0
LINE
  8
0
 10
51.2641
 20
40.8295
 11
51.2386
 21
40.8854
  0
LINE
  8
0
 10
51.2386
 20
40.8854
 11
51.2323
 21
40.8986
  0
LINE
  8
0
 10
51.2323
 20
40.8986
 11
51.21
 21
40.944
  0
LINE
  8
0
 10
51.21
 20
40.944
 11
51.2002
 21
40.9634
  0
LINE
  8
0
 10
51.2002
 20
40.9634
 11
51.1807
 21
41.0002
  0
LINE
  8
0
 10
51.1807
 20
41.0002
 11
51.1731
 21
41.0542
  0
LINE
  8
0
 10
51.1731
 20
41.0542
 11
51.1688
 21
41.0802
  0
LINE
  8
0
 10
51.1688
 20
41.0802
 11
51.1637
 21
41.1096
  0
LINE
  8
0
 10
51.1637
 20
41.1096
 11
51.1615
 21
41.122
  0
LINE
  8
0
 10
51.1615
 20
41.122
 11
51.1551
 21
41.1556
  0
LINE
  8
0
 10
51.1551
 20
41.1556
 11
51.1502
 21
41.1805
  0
LINE
  8
0
 10
51.1502
 20
41.1805
 11
51.1428
 21
41.2159
  0
LINE
  8
0
 10
51.1428
 20
41.2159
 11
51.1332
 21
41.2601
  0
LINE
  8
0
 10
51.1332
 20
41.2601
 11
51.1261
 21
41.2915
  0
LINE
  8
0
 10
51.1261
 20
41.2915
 11
51.1184
 21
41.3244
  0
LINE
  8
0
 10
51.1184
 20
41.3244
 11
51.1138
 21
41.3437
  0
LINE
  8
0
 10
51.1138
 20
41.3437
 11
51.1089
 21
41.364
  0
LINE
  8
0
 10
51.1089
 20
41.364
 11
51.1043
 21
41.3822
  0
LINE
  8
0
 10
51.1043
 20
41.3822
 11
51.0973
 21
41.4099
  0
LINE
  8
0
 10
51.0973
 20
41.4099
 11
51.0929
 21
41.4268
  0
LINE
  8
0
 10
51.0929
 20
41.4268
 11
51.0842
 21
41.4599
  0
LINE
  8
0
 10
51.0842
 20
41.4599
 11
51.0794
 21
41.4777
  0
LINE
  8
0
 10
51.0794
 20
41.4777
 11
51.0714
 21
41.5066
  0
LINE
  8
0
 10
51.0714
 20
41.5066
 11
51.0645
 21
41.5313
  0
LINE
  8
0
 10
51.0645
 20
41.5313
 11
51.049
 21
41.5851
  0
LINE
  8
0
 10
51.049
 20
41.5851
 11
51.0416
 21
41.6104
  0
LINE
  8
0
 10
51.0416
 20
41.6104
 11
51.031
 21
41.6455
  0
LINE
  8
0
 10
51.031
 20
41.6455
 11
51.0265
 21
41.6604
  0
LINE
  8
0
 10
51.0265
 20
41.6604
 11
51.0192
 21
41.6838
  0
LINE
  8
0
 10
51.0192
 20
41.6838
 11
51.0137
 21
41.7013
  0
LINE
  8
0
 10
51.0137
 20
41.7013
 11
51.0041
 21
41.7313
  0
LINE
  8
0
 10
51.0041
 20
41.7313
 11
50.9984
 21
41.7486
  0
LINE
  8
0
 10
50.9984
 20
41.7486
 11
50.9901
 21
41.7737
  0
LINE
  8
0
 10
50.9901
 20
41.7737
 11
50.9835
 21
41.7934
  0
LINE
  8
0
 10
50.9835
 20
41.7934
 11
50.963
 21
41.8533
  0
LINE
  8
0
 10
50.963
 20
41.8533
 11
50.9586
 21
41.8667
  0
LINE
  8
0
 10
50.9586
 20
41.8667
 11
50.9538
 21
41.882
  0
LINE
  8
0
 10
50.9538
 20
41.882
 11
50.9386
 21
41.9322
  0
LINE
  8
0
 10
50.9386
 20
41.9322
 11
50.9328
 21
41.9526
  0
LINE
  8
0
 10
50.9328
 20
41.9526
 11
50.9274
 21
41.972
  0
LINE
  8
0
 10
50.9274
 20
41.972
 11
50.9135
 21
42.0244
  0
LINE
  8
0
 10
50.9135
 20
42.0244
 11
50.909
 21
42.0423
  0
LINE
  8
0
 10
50.909
 20
42.0423
 11
50.904
 21
42.0631
  0
LINE
  8
0
 10
50.904
 20
42.0631
 11
50.899
 21
42.0844
  0
LINE
  8
0
 10
50.899
 20
42.0844
 11
50.8955
 21
42.1001
  0
LINE
  8
0
 10
50.8955
 20
42.1001
 11
50.8907
 21
42.123
  0
LINE
  8
0
 10
50.8907
 20
42.123
 11
50.8886
 21
42.1332
  0
LINE
  8
0
 10
50.8886
 20
42.1332
 11
50.8864
 21
42.1453
  0
LINE
  8
0
 10
50.8864
 20
42.1453
 11
50.8817
 21
42.1873
  0
LINE
  8
0
 10
50.8817
 20
42.1873
 11
50.8785
 21
42.2142
  0
LINE
  8
0
 10
50.8785
 20
42.2142
 11
50.8721
 21
42.2653
  0
LINE
  8
0
 10
50.8721
 20
42.2653
 11
50.8678
 21
42.2975
  0
LINE
  8
0
 10
50.8678
 20
42.2975
 11
50.8623
 21
42.3358
  0
LINE
  8
0
 10
50.8623
 20
42.3358
 11
50.8569
 21
42.3714
  0
LINE
  8
0
 10
50.8569
 20
42.3714
 11
50.85
 21
42.4145
  0
LINE
  8
0
 10
50.85
 20
42.4145
 11
50.844
 21
42.45
  0
LINE
  8
0
 10
50.844
 20
42.45
 11
50.8382
 21
42.4825
  0
LINE
  8
0
 10
50.8382
 20
42.4825
 11
50.8298
 21
42.5264
  0
LINE
  8
0
 10
50.8298
 20
42.5264
 11
50.8224
 21
42.5631
  0
LINE
  8
0
 10
50.8224
 20
42.5631
 11
50.8135
 21
42.605
  0
LINE
  8
0
 10
50.8135
 20
42.605
 11
50.8057
 21
42.6396
  0
LINE
  8
0
 10
50.8057
 20
42.6396
 11
50.7942
 21
42.688
  0
LINE
  8
0
 10
50.7942
 20
42.688
 11
50.7872
 21
42.7161
  0
LINE
  8
0
 10
50.7872
 20
42.7161
 11
50.7745
 21
42.7641
  0
LINE
  8
0
 10
50.7745
 20
42.7641
 11
50.7671
 21
42.7909
  0
LINE
  8
0
 10
50.7671
 20
42.7909
 11
50.7508
 21
42.8464
  0
LINE
  8
0
 10
50.7508
 20
42.8464
 11
50.7427
 21
42.8728
  0
LINE
  8
0
 10
50.7427
 20
42.8728
 11
50.7273
 21
42.9204
  0
LINE
  8
0
 10
50.7273
 20
42.9204
 11
50.7198
 21
42.9429
  0
LINE
  8
0
 10
50.7198
 20
42.9429
 11
50.7003
 21
42.9981
  0
LINE
  8
0
 10
50.7003
 20
42.9981
 11
50.6938
 21
43.0158
  0
LINE
  8
0
 10
50.6938
 20
43.0158
 11
50.6712
 21
43.0742
  0
LINE
  8
0
 10
50.6712
 20
43.0742
 11
50.6626
 21
43.0954
  0
LINE
  8
0
 10
50.6626
 20
43.0954
 11
50.6334
 21
43.1638
  0
LINE
  8
0
 10
50.6334
 20
43.1638
 11
50.6252
 21
43.1821
  0
LINE
  8
0
 10
50.6252
 20
43.1821
 11
50.5984
 21
43.2393
  0
LINE
  8
0
 10
50.5984
 20
43.2393
 11
50.5908
 21
43.2548
  0
LINE
  8
0
 10
50.5908
 20
43.2548
 11
50.5543
 21
43.326
  0
LINE
  8
0
 10
50.5543
 20
43.326
 11
50.5467
 21
43.3401
  0
LINE
  8
0
 10
50.5467
 20
43.3401
 11
50.5105
 21
43.4045
  0
LINE
  8
0
 10
50.5105
 20
43.4045
 11
50.5036
 21
43.4163
  0
LINE
  8
0
 10
50.5036
 20
43.4163
 11
50.4965
 21
43.4278
  0
LINE
  8
0
 10
50.4965
 20
43.4278
 11
50.5648
 21
44.3572
  0
LINE
  8
0
 10
50.5648
 20
44.3572
 11
50.0087
 21
45.1103
  0
LINE
  8
0
 10
50.0087
 20
45.1103
 11
50.0205
 21
45.1214
  0
LINE
  8
0
 10
50.0205
 20
45.1214
 11
50.0117
 21
45.1308
  0
LINE
  8
0
 10
50.0117
 20
45.1308
 11
50.0118
 21
45.1309
  0
LINE
  8
0
 10
50.0118
 20
45.1309
 11
50.0054
 21
45.1373
  0
LINE
  8
0
 10
50.0054
 20
45.1373
 11
50.0055
 21
45.1374
  0
LINE
  8
0
 10
50.0055
 20
45.1374
 11
50.0003
 21
45.1426
  0
LINE
  8
0
 10
50.0003
 20
45.1426
 11
49.995
 21
45.1479
  0
LINE
  8
0
 10
49.995
 20
45.1479
 11
49.995
 21
45.1479
  0
LINE
  8
0
 10
49.995
 20
45.1479
 11
49.9927
 21
45.1501
  0
LINE
  8
0
 10
49.9927
 20
45.1501
 11
49.9883
 21
45.1544
  0
LINE
  8
0
 10
49.9883
 20
45.1544
 11
49.9882
 21
45.1543
  0
LINE
  8
0
 10
49.9882
 20
45.1543
 11
49.9868
 21
45.1557
  0
LINE
  8
0
 10
49.9868
 20
45.1557
 11
49.9869
 21
45.1558
  0
LINE
  8
0
 10
49.9869
 20
45.1558
 11
49.9811
 21
45.1611
  0
LINE
  8
0
 10
49.9811
 20
45.1611
 11
49.9813
 21
45.1613
  0
LINE
  8
0
 10
49.9813
 20
45.1613
 11
49.9718
 21
45.1697
  0
LINE
  8
0
 10
49.9718
 20
45.1697
 11
49.9698
 21
45.1715
  0
LINE
  8
0
 10
49.9698
 20
45.1715
 11
49.9698
 21
45.1714
  0
LINE
  8
0
 10
49.9698
 20
45.1714
 11
49.9695
 21
45.1717
  0
LINE
  8
0
 10
49.9695
 20
45.1717
 11
49.9696
 21
45.1718
  0
LINE
  8
0
 10
49.9696
 20
45.1718
 11
49.9648
 21
45.1758
  0
LINE
  8
0
 10
49.9648
 20
45.1758
 11
49.9567
 21
45.183
  0
LINE
  8
0
 10
49.9567
 20
45.183
 11
49.9565
 21
45.1828
  0
LINE
  8
0
 10
49.9565
 20
45.1828
 11
49.953
 21
45.1857
  0
LINE
  8
0
 10
49.953
 20
45.1857
 11
49.9528
 21
45.1861
  0
LINE
  8
0
 10
49.9528
 20
45.1861
 11
49.9496
 21
45.1886
  0
LINE
  8
0
 10
49.9496
 20
45.1886
 11
49.9473
 21
45.1905
  0
LINE
  8
0
 10
49.9473
 20
45.1905
 11
49.9473
 21
45.1905
  0
LINE
  8
0
 10
49.9473
 20
45.1905
 11
49.9292
 21
45.2049
  0
LINE
  8
0
 10
49.9292
 20
45.2049
 11
49.9046
 21
45.1741
  0
LINE
  8
0
 10
49.9046
 20
45.1741
 11
48.5953
 21
45.675
  0
LINE
  8
0
 10
48.5953
 20
45.675
 11
48.5926
 21
45.6796
  0
LINE
  8
0
 10
48.5926
 20
45.6796
 11
48.5678
 21
45.7209
  0
LINE
  8
0
 10
48.5678
 20
45.7209
 11
48.558
 21
45.7372
  0
LINE
  8
0
 10
48.558
 20
45.7372
 11
48.5378
 21
45.7701
  0
LINE
  8
0
 10
48.5378
 20
45.7701
 11
48.5275
 21
45.7868
  0
LINE
  8
0
 10
48.5275
 20
45.7868
 11
48.5
 21
45.8308
  0
LINE
  8
0
 10
48.5
 20
45.8308
 11
48.4923
 21
45.8431
  0
LINE
  8
0
 10
48.4923
 20
45.8431
 11
48.4684
 21
45.8808
  0
LINE
  8
0
 10
48.4684
 20
45.8808
 11
48.4556
 21
45.9007
  0
LINE
  8
0
 10
48.4556
 20
45.9007
 11
48.4204
 21
45.9546
  0
LINE
  8
0
 10
48.4204
 20
45.9546
 11
48.4052
 21
45.9785
  0
LINE
  8
0
 10
48.4052
 20
45.9785
 11
48.3844
 21
46.0126
  0
LINE
  8
0
 10
48.3844
 20
46.0126
 11
48.3762
 21
46.0261
  0
LINE
  8
0
 10
48.3762
 20
46.0261
 11
48.3553
 21
46.0617
  0
LINE
  8
0
 10
48.3553
 20
46.0617
 11
48.334
 21
46.0989
  0
LINE
  8
0
 10
48.334
 20
46.0989
 11
48.3145
 21
46.1337
  0
LINE
  8
0
 10
48.3145
 20
46.1337
 11
48.2951
 21
46.1694
  0
LINE
  8
0
 10
48.2951
 20
46.1694
 11
48.282
 21
46.1944
  0
LINE
  8
0
 10
48.282
 20
46.1944
 11
48.2691
 21
46.22
  0
LINE
  8
0
 10
48.2691
 20
46.22
 11
48.2677
 21
46.2227
  0
LINE
  8
0
 10
48.2677
 20
46.2227
 11
48.2551
 21
46.2493
  0
LINE
  8
0
 10
48.2551
 20
46.2493
 11
48.2358
 21
46.2885
  0
LINE
  8
0
 10
48.2358
 20
46.2885
 11
48.2231
 21
46.3138
  0
LINE
  8
0
 10
48.2231
 20
46.3138
 11
48.1975
 21
46.3628
  0
LINE
  8
0
 10
48.1975
 20
46.3628
 11
48.1759
 21
46.403
  0
LINE
  8
0
 10
48.1759
 20
46.403
 11
48.1595
 21
46.4328
  0
LINE
  8
0
 10
48.1595
 20
46.4328
 11
48.1356
 21
46.4754
  0
LINE
  8
0
 10
48.1356
 20
46.4754
 11
48.1185
 21
46.5053
  0
LINE
  8
0
 10
48.1185
 20
46.5053
 11
48.105
 21
46.5283
  0
LINE
  8
0
 10
48.105
 20
46.5283
 11
48.097
 21
46.5419
  0
LINE
  8
0
 10
48.097
 20
46.5419
 11
48.0637
 21
46.5978
  0
LINE
  8
0
 10
48.0637
 20
46.5978
 11
48.0496
 21
46.6212
  0
LINE
  8
0
 10
48.0496
 20
46.6212
 11
48.0228
 21
46.6649
  0
LINE
  8
0
 10
48.0228
 20
46.6649
 11
48.0065
 21
46.691
  0
LINE
  8
0
 10
48.0065
 20
46.691
 11
47.9745
 21
46.7414
  0
LINE
  8
0
 10
47.9745
 20
46.7414
 11
47.9591
 21
46.7653
  0
LINE
  8
0
 10
47.9591
 20
46.7653
 11
47.9293
 21
46.8108
  0
LINE
  8
0
 10
47.9293
 20
46.8108
 11
47.9187
 21
46.8269
  0
LINE
  8
0
 10
47.9187
 20
46.8269
 11
47.9009
 21
46.8534
  0
LINE
  8
0
 10
47.9009
 20
46.8534
 11
47.8849
 21
46.877
  0
LINE
  8
0
 10
47.8849
 20
46.877
 11
47.8576
 21
46.9167
  0
LINE
  8
0
 10
47.8576
 20
46.9167
 11
47.8461
 21
46.9331
  0
LINE
  8
0
 10
47.8461
 20
46.9331
 11
47.8201
 21
46.97
  0
LINE
  8
0
 10
47.8201
 20
46.97
 11
47.8188
 21
46.972
  0
LINE
  8
0
 10
47.8188
 20
46.972
 11
47.8173
 21
46.9749
  0
LINE
  8
0
 10
47.8173
 20
46.9749
 11
47.8142
 21
46.9811
  0
LINE
  8
0
 10
47.8142
 20
46.9811
 11
47.8105
 21
46.9893
  0
LINE
  8
0
 10
47.8105
 20
46.9893
 11
47.8045
 21
47.004
  0
LINE
  8
0
 10
47.8045
 20
47.004
 11
47.8025
 21
47.0092
  0
LINE
  8
0
 10
47.8025
 20
47.0092
 11
47.7947
 21
47.0308
  0
LINE
  8
0
 10
47.7947
 20
47.0308
 11
47.79
 21
47.0448
  0
LINE
  8
0
 10
47.79
 20
47.0448
 11
47.7849
 21
47.0605
  0
LINE
  8
0
 10
47.7849
 20
47.0605
 11
47.7764
 21
47.0881
  0
LINE
  8
0
 10
47.7764
 20
47.0881
 11
47.7698
 21
47.1111
  0
LINE
  8
0
 10
47.7698
 20
47.1111
 11
47.7622
 21
47.1385
  0
LINE
  8
0
 10
47.7622
 20
47.1385
 11
47.7534
 21
47.1721
  0
LINE
  8
0
 10
47.7534
 20
47.1721
 11
47.7285
 21
47.2718
  0
LINE
  8
0
 10
47.7285
 20
47.2718
 11
47.7253
 21
47.2847
  0
LINE
  8
0
 10
47.7253
 20
47.2847
 11
47.711
 21
47.3403
  0
LINE
  8
0
 10
47.711
 20
47.3403
 11
47.7066
 21
47.3573
  0
LINE
  8
0
 10
47.7066
 20
47.3573
 11
47.6949
 21
47.4011
  0
LINE
  8
0
 10
47.6949
 20
47.4011
 11
47.6871
 21
47.4296
  0
LINE
  8
0
 10
47.6871
 20
47.4296
 11
47.6738
 21
47.4769
  0
LINE
  8
0
 10
47.6738
 20
47.4769
 11
47.6636
 21
47.5121
  0
LINE
  8
0
 10
47.6636
 20
47.5121
 11
47.6535
 21
47.5456
  0
LINE
  8
0
 10
47.6535
 20
47.5456
 11
47.6382
 21
47.5941
  0
LINE
  8
0
 10
47.6382
 20
47.5941
 11
47.6282
 21
47.6244
  0
LINE
  8
0
 10
47.6282
 20
47.6244
 11
47.6115
 21
47.6729
  0
LINE
  8
0
 10
47.6115
 20
47.6729
 11
47.6034
 21
47.6954
  0
LINE
  8
0
 10
47.6034
 20
47.6954
 11
47.577
 21
47.7653
  0
LINE
  8
0
 10
47.577
 20
47.7653
 11
47.5685
 21
47.7863
  0
LINE
  8
0
 10
47.5685
 20
47.7863
 11
47.5387
 21
47.8567
  0
LINE
  8
0
 10
47.5387
 20
47.8567
 11
47.5322
 21
47.8713
  0
LINE
  8
0
 10
47.5322
 20
47.8713
 11
47.4906
 21
47.9589
  0
LINE
  8
0
 10
47.4906
 20
47.9589
 11
47.4834
 21
47.973
  0
LINE
  8
0
 10
47.4834
 20
47.973
 11
47.4411
 21
48.0523
  0
LINE
  8
0
 10
47.4411
 20
48.0523
 11
47.4347
 21
48.0636
  0
LINE
  8
0
 10
47.4347
 20
48.0636
 11
47.3905
 21
48.1383
  0
LINE
  8
0
 10
47.3905
 20
48.1383
 11
47.3835
 21
48.1497
  0
LINE
  8
0
 10
47.3835
 20
48.1497
 11
47.3268
 21
48.2358
  0
LINE
  8
0
 10
47.3268
 20
48.2358
 11
47.3163
 21
48.2508
  0
LINE
  8
0
 10
47.3163
 20
48.2508
 11
47.2755
 21
48.3073
  0
LINE
  8
0
 10
47.2755
 20
48.3073
 11
47.2617
 21
48.3258
  0
LINE
  8
0
 10
47.2617
 20
48.3258
 11
47.2178
 21
48.3823
  0
LINE
  8
0
 10
47.2178
 20
48.3823
 11
47.2062
 21
48.3967
  0
LINE
  8
0
 10
47.2062
 20
48.3967
 11
47.1689
 21
48.4415
  0
LINE
  8
0
 10
47.1689
 20
48.4415
 11
47.1432
 21
48.4716
  0
LINE
  8
0
 10
47.1432
 20
48.4716
 11
47.1149
 21
48.504
  0
LINE
  8
0
 10
47.1149
 20
48.504
 11
47.0935
 21
48.5279
  0
LINE
  8
0
 10
47.0935
 20
48.5279
 11
47.0673
 21
48.5567
  0
LINE
  8
0
 10
47.0673
 20
48.5567
 11
47.0367
 21
48.5897
  0
LINE
  8
0
 10
47.0367
 20
48.5897
 11
47.0203
 21
48.6071
  0
LINE
  8
0
 10
47.0203
 20
48.6071
 11
46.9891
 21
48.6398
  0
LINE
  8
0
 10
46.9891
 20
48.6398
 11
46.9805
 21
48.6489
  0
LINE
  8
0
 10
46.9805
 20
48.6489
 11
46.9417
 21
48.6891
  0
LINE
  8
0
 10
46.9417
 20
48.6891
 11
46.9341
 21
48.697
  0
LINE
  8
0
 10
46.9341
 20
48.697
 11
46.896
 21
48.7361
  0
LINE
  8
0
 10
46.896
 20
48.7361
 11
46.8875
 21
48.7447
  0
LINE
  8
0
 10
46.8875
 20
48.7447
 11
46.8508
 21
48.7819
  0
LINE
  8
0
 10
46.8508
 20
48.7819
 11
46.8355
 21
48.7973
  0
LINE
  8
0
 10
46.8355
 20
48.7973
 11
46.8076
 21
48.8249
  0
LINE
  8
0
 10
46.8076
 20
48.8249
 11
46.7932
 21
48.8391
  0
LINE
  8
0
 10
46.7932
 20
48.8391
 11
46.7639
 21
48.8677
  0
LINE
  8
0
 10
46.7639
 20
48.8677
 11
46.7356
 21
48.8946
  0
LINE
  8
0
 10
46.7356
 20
48.8946
 11
46.713
 21
48.9157
  0
LINE
  8
0
 10
46.713
 20
48.9157
 11
46.6742
 21
48.9511
  0
LINE
  8
0
 10
46.6742
 20
48.9511
 11
46.6615
 21
48.9624
  0
LINE
  8
0
 10
46.6615
 20
48.9624
 11
46.622
 21
48.9965
  0
LINE
  8
0
 10
46.622
 20
48.9965
 11
46.6138
 21
49.0034
  0
LINE
  8
0
 10
46.6138
 20
49.0034
 11
45.5067
 21
49.4195
  0
LINE
  8
0
 10
45.5067
 20
49.4195
 11
45.5137
 21
49.4377
  0
LINE
  8
0
 10
45.5137
 20
49.4377
 11
45.5074
 21
49.4402
  0
LINE
  8
0
 10
45.5074
 20
49.4402
 11
45.5076
 21
49.441
  0
LINE
  8
0
 10
45.5076
 20
49.441
 11
45.4918
 21
49.4463
  0
LINE
  8
0
 10
45.4918
 20
49.4463
 11
45.4898
 21
49.4472
  0
LINE
  8
0
 10
45.4898
 20
49.4472
 11
45.4899
 21
49.4474
  0
LINE
  8
0
 10
45.4899
 20
49.4474
 11
45.4884
 21
49.4478
  0
LINE
  8
0
 10
45.4884
 20
49.4478
 11
45.4754
 21
49.4544
  0
LINE
  8
0
 10
45.4754
 20
49.4544
 11
45.4114
 21
49.4882
  0
LINE
  8
0
 10
45.4114
 20
49.4882
 11
45.389
 21
49.4998
  0
LINE
  8
0
 10
45.389
 20
49.4998
 11
45.3478
 21
49.5208
  0
LINE
  8
0
 10
45.3478
 20
49.5208
 11
45.3152
 21
49.5371
  0
LINE
  8
0
 10
45.3152
 20
49.5371
 11
45.2709
 21
49.5587
  0
LINE
  8
0
 10
45.2709
 20
49.5587
 11
45.2432
 21
49.5719
  0
LINE
  8
0
 10
45.2432
 20
49.5719
 11
45.2115
 21
49.5868
  0
LINE
  8
0
 10
45.2115
 20
49.5868
 11
45.1906
 21
49.5965
  0
LINE
  8
0
 10
45.1906
 20
49.5965
 11
45.1705
 21
49.6056
  0
LINE
  8
0
 10
45.1705
 20
49.6056
 11
45.1403
 21
49.619
  0
LINE
  8
0
 10
45.1403
 20
49.619
 11
45.1078
 21
49.6332
  0
LINE
  8
0
 10
45.1078
 20
49.6332
 11
45.0617
 21
49.6526
  0
LINE
  8
0
 10
45.0617
 20
49.6526
 11
45.036
 21
49.663
  0
LINE
  8
0
 10
45.036
 20
49.663
 11
44.6951
 21
49.7543
  0
LINE
  8
0
 10
44.6951
 20
49.7543
 11
44.6973
 21
49.7627
  0
LINE
  8
0
 10
44.6973
 20
49.7627
 11
44.6903
 21
49.7646
  0
LINE
  8
0
 10
44.6903
 20
49.7646
 11
44.6904
 21
49.7648
  0
LINE
  8
0
 10
44.6904
 20
49.7648
 11
44.6787
 21
49.7676
  0
LINE
  8
0
 10
44.6787
 20
49.7676
 11
44.677
 21
49.7681
  0
LINE
  8
0
 10
44.677
 20
49.7681
 11
44.677
 21
49.7682
  0
LINE
  8
0
 10
44.677
 20
49.7682
 11
44.6736
 21
49.769
  0
LINE
  8
0
 10
44.6736
 20
49.769
 11
44.6716
 21
49.7695
  0
LINE
  8
0
 10
44.6716
 20
49.7695
 11
44.6624
 21
49.772
  0
LINE
  8
0
 10
44.6624
 20
49.772
 11
44.6194
 21
49.7848
  0
LINE
  8
0
 10
44.6194
 20
49.7848
 11
44.6166
 21
49.7754
  0
LINE
  8
0
 10
44.6166
 20
49.7754
 11
44.5598
 21
49.7906
  0
LINE
  8
0
 10
44.5598
 20
49.7906
 11
44.5244
 21
49.7955
  0
LINE
  8
0
 10
44.5244
 20
49.7955
 11
44.5195
 21
49.7609
  0
LINE
  8
0
 10
44.5195
 20
49.7609
 11
43.3297
 21
49.5861
  0
LINE
  8
0
 10
43.3297
 20
49.5861
 11
42.902
 21
50.3951
  0
LINE
  8
0
 10
42.902
 20
50.3951
 11
42.5895
 21
50.6773
  0
LINE
  8
0
 10
42.5895
 20
50.6773
 11
42.5271
 21
50.8107
  0
LINE
  8
0
 10
42.5271
 20
50.8107
 11
42.5137
 21
50.8235
  0
LINE
  8
0
 10
42.5137
 20
50.8235
 11
42.4093
 21
50.9156
  0
LINE
  8
0
 10
42.4093
 20
50.9156
 11
42.3769
 21
50.9423
  0
LINE
  8
0
 10
42.3769
 20
50.9423
 11
42.2792
 21
51.0177
  0
LINE
  8
0
 10
42.2792
 20
51.0177
 11
42.2397
 21
51.0463
  0
LINE
  8
0
 10
42.2397
 20
51.0463
 11
42.15
 21
51.1075
  0
LINE
  8
0
 10
42.15
 20
51.1075
 11
42.1035
 21
51.1376
  0
LINE
  8
0
 10
42.1035
 20
51.1376
 11
42.0247
 21
51.1857
  0
LINE
  8
0
 10
42.0247
 20
51.1857
 11
41.9707
 21
51.2172
  0
LINE
  8
0
 10
41.9707
 20
51.2172
 11
41.888
 21
51.2626
  0
LINE
  8
0
 10
41.888
 20
51.2626
 11
41.8318
 21
51.2918
  0
LINE
  8
0
 10
41.8318
 20
51.2918
 11
41.7569
 21
51.3287
  0
LINE
  8
0
 10
41.7569
 20
51.3287
 11
41.6952
 21
51.3576
  0
LINE
  8
0
 10
41.6952
 20
51.3576
 11
41.6137
 21
51.3935
  0
LINE
  8
0
 10
41.6137
 20
51.3935
 11
41.5523
 21
51.4189
  0
LINE
  8
0
 10
41.5523
 20
51.4189
 11
41.475
 21
51.4491
  0
LINE
  8
0
 10
41.475
 20
51.4491
 11
41.4079
 21
51.4737
  0
LINE
  8
0
 10
41.4079
 20
51.4737
 11
41.3255
 21
51.5019
  0
LINE
  8
0
 10
41.3255
 20
51.5019
 11
41.2628
 21
51.5218
  0
LINE
  8
0
 10
41.2628
 20
51.5218
 11
41.1754
 21
51.5474
  0
LINE
  8
0
 10
41.1754
 20
51.5474
 11
41.1109
 21
51.5647
  0
LINE
  8
0
 10
41.1109
 20
51.5647
 11
41.0181
 21
51.5872
  0
LINE
  8
0
 10
41.0181
 20
51.5872
 11
40.9556
 21
51.6008
  0
LINE
  8
0
 10
40.9556
 20
51.6008
 11
40.8486
 21
51.6211
  0
LINE
  8
0
 10
40.8486
 20
51.6211
 11
40.7896
 21
51.6306
  0
LINE
  8
0
 10
40.7896
 20
51.6306
 11
40.6737
 21
51.6459
  0
LINE
  8
0
 10
40.6737
 20
51.6459
 11
40.6223
 21
51.6511
  0
LINE
  8
0
 10
40.6223
 20
51.6511
 11
40.567
 21
51.6549
  0
LINE
  8
0
 10
40.567
 20
51.6549
 11
40.5302
 21
51.6708
  0
LINE
  8
0
 10
40.5302
 20
51.6708
 11
40.4983
 21
51.6843
  0
LINE
  8
0
 10
40.4983
 20
51.6843
 11
40.4809
 21
51.6915
  0
LINE
  8
0
 10
40.4809
 20
51.6915
 11
40.4504
 21
51.7038
  0
LINE
  8
0
 10
40.4504
 20
51.7038
 11
40.4306
 21
51.7115
  0
LINE
  8
0
 10
40.4306
 20
51.7115
 11
40.3787
 21
51.7312
  0
LINE
  8
0
 10
40.3787
 20
51.7312
 11
40.3608
 21
51.7376
  0
LINE
  8
0
 10
40.3608
 20
51.7376
 11
40.315
 21
51.7536
  0
LINE
  8
0
 10
40.315
 20
51.7536
 11
40.3029
 21
51.7576
  0
LINE
  8
0
 10
40.3029
 20
51.7576
 11
40.2653
 21
51.7698
  0
LINE
  8
0
 10
40.2653
 20
51.7698
 11
40.2465
 21
51.7757
  0
LINE
  8
0
 10
40.2465
 20
51.7757
 11
40.202
 21
51.789
  0
LINE
  8
0
 10
40.202
 20
51.789
 11
40.1959
 21
51.7908
  0
LINE
  8
0
 10
40.1959
 20
51.7908
 11
40.1214
 21
51.8107
  0
LINE
  8
0
 10
40.1214
 20
51.8107
 11
40.1134
 21
51.8126
  0
LINE
  8
0
 10
40.1134
 20
51.8126
 11
40.0609
 21
51.8248
  0
LINE
  8
0
 10
40.0609
 20
51.8248
 11
40.0432
 21
51.8287
  0
LINE
  8
0
 10
40.0432
 20
51.8287
 11
39.959
 21
51.8451
  0
LINE
  8
0
 10
39.959
 20
51.8451
 11
39.9477
 21
51.8471
  0
LINE
  8
0
 10
39.9477
 20
51.8471
 11
39.8434
 21
51.8623
  0
LINE
  8
0
 10
39.8434
 20
51.8623
 11
39.8306
 21
51.8638
  0
LINE
  8
0
 10
39.8306
 20
51.8638
 11
39.7324
 21
51.8731
  0
LINE
  8
0
 10
39.7324
 20
51.8731
 11
39.7202
 21
51.8739
  0
LINE
  8
0
 10
39.7202
 20
51.8739
 11
39.6756
 21
51.8936
  0
LINE
  8
0
 10
39.6756
 20
51.8936
 11
39.5925
 21
51.8909
  0
LINE
  8
0
 10
39.5925
 20
51.8909
 11
39.5962
 21
51.9003
  0
LINE
  8
0
 10
39.5962
 20
51.9003
 11
39.5877
 21
51.9037
  0
LINE
  8
0
 10
39.5877
 20
51.9037
 11
39.5625
 21
51.902
  0
LINE
  8
0
 10
39.5625
 20
51.902
 11
39.5164
 21
51.9193
  0
LINE
  8
0
 10
39.5164
 20
51.9193
 11
39.5199
 21
51.9294
  0
LINE
  8
0
 10
39.5199
 20
51.9294
 11
39.5162
 21
51.9307
  0
LINE
  8
0
 10
39.5162
 20
51.9307
 11
39.4931
 21
51.9281
  0
LINE
  8
0
 10
39.4931
 20
51.9281
 11
39.3522
 21
51.9811
  0
LINE
  8
0
 10
39.3522
 20
51.9811
 11
39.3425
 21
51.9837
  0
LINE
  8
0
 10
39.3425
 20
51.9837
 11
39.28
 21
51.9989
  0
LINE
  8
0
 10
39.28
 20
51.9989
 11
39.2672
 21
52.0019
  0
LINE
  8
0
 10
39.2672
 20
52.0019
 11
39.2086
 21
52.0143
  0
LINE
  8
0
 10
39.2086
 20
52.0143
 11
39.1894
 21
52.0181
  0
LINE
  8
0
 10
39.1894
 20
52.0181
 11
39.1422
 21
52.0267
  0
LINE
  8
0
 10
39.1422
 20
52.0267
 11
39.124
 21
52.0299
  0
LINE
  8
0
 10
39.124
 20
52.0299
 11
39.0862
 21
52.036
  0
LINE
  8
0
 10
39.0862
 20
52.036
 11
39.0603
 21
52.0399
  0
LINE
  8
0
 10
39.0603
 20
52.0399
 11
39.0314
 21
52.0441
  0
LINE
  8
0
 10
39.0314
 20
52.0441
 11
39.0059
 21
52.0476
  0
LINE
  8
0
 10
39.0059
 20
52.0476
 11
38.976
 21
52.0514
  0
LINE
  8
0
 10
38.976
 20
52.0514
 11
38.9408
 21
52.0557
  0
LINE
  8
0
 10
38.9408
 20
52.0557
 11
38.9129
 21
52.0589
  0
LINE
  8
0
 10
38.9129
 20
52.0589
 11
38.8831
 21
52.0621
  0
LINE
  8
0
 10
38.8831
 20
52.0621
 11
38.8642
 21
52.0641
  0
LINE
  8
0
 10
38.8642
 20
52.0641
 11
38.8182
 21
52.0686
  0
LINE
  8
0
 10
38.8182
 20
52.0686
 11
38.7993
 21
52.0703
  0
LINE
  8
0
 10
38.7993
 20
52.0703
 11
38.7288
 21
52.0765
  0
LINE
  8
0
 10
38.7288
 20
52.0765
 11
38.6597
 21
52.0831
  0
LINE
  8
0
 10
38.6597
 20
52.0831
 11
38.5934
 21
52.0901
  0
LINE
  8
0
 10
38.5934
 20
52.0901
 11
38.5188
 21
52.0983
  0
LINE
  8
0
 10
38.5188
 20
52.0983
 11
38.4388
 21
52.1077
  0
LINE
  8
0
 10
38.4388
 20
52.1077
 11
38.3221
 21
52.1221
  0
LINE
  8
0
 10
38.3221
 20
52.1221
 11
38.2549
 21
52.1311
  0
LINE
  8
0
 10
38.2549
 20
52.1311
 11
38.1861
 21
52.1407
  0
LINE
  8
0
 10
38.1861
 20
52.1407
 11
38.127
 21
52.1496
  0
LINE
  8
0
 10
38.127
 20
52.1496
 11
38.1015
 21
52.1535
  0
LINE
  8
0
 10
38.1015
 20
52.1535
 11
37.9863
 21
52.1723
  0
LINE
  8
0
 10
37.9863
 20
52.1723
 11
37.9646
 21
52.1757
  0
LINE
  8
0
 10
37.9646
 20
52.1757
 11
37.8917
 21
52.1867
  0
LINE
  8
0
 10
37.8917
 20
52.1867
 11
37.8699
 21
52.1899
  0
LINE
  8
0
 10
37.8699
 20
52.1899
 11
37.7845
 21
52.2019
  0
LINE
  8
0
 10
37.7845
 20
52.2019
 11
37.7618
 21
52.205
  0
LINE
  8
0
 10
37.7618
 20
52.205
 11
37.6928
 21
52.2139
  0
LINE
  8
0
 10
37.6928
 20
52.2139
 11
37.6682
 21
52.2169
  0
LINE
  8
0
 10
37.6682
 20
52.2169
 11
37.5993
 21
52.2249
  0
LINE
  8
0
 10
37.5993
 20
52.2249
 11
37.5649
 21
52.2286
  0
LINE
  8
0
 10
37.5649
 20
52.2286
 11
37.4964
 21
52.2353
  0
LINE
  8
0
 10
37.4964
 20
52.2353
 11
37.4672
 21
52.238
  0
LINE
  8
0
 10
37.4672
 20
52.238
 11
37.4014
 21
52.2435
  0
LINE
  8
0
 10
37.4014
 20
52.2435
 11
37.3647
 21
52.2462
  0
LINE
  8
0
 10
37.3647
 20
52.2462
 11
37.3047
 21
52.2502
  0
LINE
  8
0
 10
37.3047
 20
52.2502
 11
37.2708
 21
52.2521
  0
LINE
  8
0
 10
37.2708
 20
52.2521
 11
37.2106
 21
52.255
  0
LINE
  8
0
 10
37.2106
 20
52.255
 11
37.1715
 21
52.2565
  0
LINE
  8
0
 10
37.1715
 20
52.2565
 11
37.1164
 21
52.2581
  0
LINE
  8
0
 10
37.1164
 20
52.2581
 11
37.0717
 21
52.2589
  0
LINE
  8
0
 10
37.0717
 20
52.2589
 11
37.0148
 21
52.2592
  0
LINE
  8
0
 10
37.0148
 20
52.2592
 11
36.976
 21
52.2591
  0
LINE
  8
0
 10
36.976
 20
52.2591
 11
36.9254
 21
52.2585
  0
LINE
  8
0
 10
36.9254
 20
52.2585
 11
36.8784
 21
52.2573
  0
LINE
  8
0
 10
36.8784
 20
52.2573
 11
36.8248
 21
52.2554
  0
LINE
  8
0
 10
36.8248
 20
52.2554
 11
36.7825
 21
52.2534
  0
LINE
  8
0
 10
36.7825
 20
52.2534
 11
36.7307
 21
52.2504
  0
LINE
  8
0
 10
36.7307
 20
52.2504
 11
36.6846
 21
52.2472
  0
LINE
  8
0
 10
36.6846
 20
52.2472
 11
36.6325
 21
52.243
  0
LINE
  8
0
 10
36.6325
 20
52.243
 11
36.5907
 21
52.2391
  0
LINE
  8
0
 10
36.5907
 20
52.2391
 11
36.5402
 21
52.234
  0
LINE
  8
0
 10
36.5402
 20
52.234
 11
36.4938
 21
52.2287
  0
LINE
  8
0
 10
36.4938
 20
52.2287
 11
36.4434
 21
52.2224
  0
LINE
  8
0
 10
36.4434
 20
52.2224
 11
36.4037
 21
52.217
  0
LINE
  8
0
 10
36.4037
 20
52.217
 11
36.3515
 21
52.2093
  0
LINE
  8
0
 10
36.3515
 20
52.2093
 11
36.31
 21
52.2028
  0
LINE
  8
0
 10
36.31
 20
52.2028
 11
36.2601
 21
52.1945
  0
LINE
  8
0
 10
36.2601
 20
52.1945
 11
36.2257
 21
52.1884
  0
LINE
  8
0
 10
36.2257
 20
52.1884
 11
36.1678
 21
52.1776
  0
LINE
  8
0
 10
36.1678
 20
52.1776
 11
36.1289
 21
52.1702
  0
LINE
  8
0
 10
36.1289
 20
52.1702
 11
36.0709
 21
52.1597
  0
LINE
  8
0
 10
36.0709
 20
52.1597
 11
36.0097
 21
52.1493
  0
LINE
  8
0
 10
36.0097
 20
52.1493
 11
35.9368
 21
52.1376
  0
LINE
  8
0
 10
35.9368
 20
52.1376
 11
35.8667
 21
52.1269
  0
LINE
  8
0
 10
35.8667
 20
52.1269
 11
35.7898
 21
52.1157
  0
LINE
  8
0
 10
35.7898
 20
52.1157
 11
35.7523
 21
52.1104
  0
LINE
  8
0
 10
35.7523
 20
52.1104
 11
35.6786
 21
52.1006
  0
LINE
  8
0
 10
35.6786
 20
52.1006
 11
35.6145
 21
52.0925
  0
LINE
  8
0
 10
35.6145
 20
52.0925
 11
35.5523
 21
52.0854
  0
LINE
  8
0
 10
35.5523
 20
52.0854
 11
35.5253
 21
52.0825
  0
LINE
  8
0
 10
35.5253
 20
52.0825
 11
35.4687
 21
52.0768
  0
LINE
  8
0
 10
35.4687
 20
52.0768
 11
35.44
 21
52.0736
  0
LINE
  8
0
 10
35.44
 20
52.0736
 11
35.41
 21
52.0702
  0
LINE
  8
0
 10
35.41
 20
52.0702
 11
35.3893
 21
52.0677
  0
LINE
  8
0
 10
35.3893
 20
52.0677
 11
35.3651
 21
52.0646
  0
LINE
  8
0
 10
35.3651
 20
52.0646
 11
35.3334
 21
52.0603
  0
LINE
  8
0
 10
35.3334
 20
52.0603
 11
35.3023
 21
52.0559
  0
LINE
  8
0
 10
35.3023
 20
52.0559
 11
35.2828
 21
52.053
  0
LINE
  8
0
 10
35.2828
 20
52.053
 11
35.2523
 21
52.0484
  0
LINE
  8
0
 10
35.2523
 20
52.0484
 11
35.2356
 21
52.0457
  0
LINE
  8
0
 10
35.2356
 20
52.0457
 11
35.2127
 21
52.042
  0
LINE
  8
0
 10
35.2127
 20
52.042
 11
35.1911
 21
52.0384
  0
LINE
  8
0
 10
35.1911
 20
52.0384
 11
35.1545
 21
52.0321
  0
LINE
  8
0
 10
35.1545
 20
52.0321
 11
35.1263
 21
52.027
  0
LINE
  8
0
 10
35.1263
 20
52.027
 11
35.1073
 21
52.0235
  0
LINE
  8
0
 10
35.1073
 20
52.0235
 11
35.0891
 21
52.02
  0
LINE
  8
0
 10
35.0891
 20
52.02
 11
35.0533
 21
52.0129
  0
LINE
  8
0
 10
35.0533
 20
52.0129
 11
35.0349
 21
52.0092
  0
LINE
  8
0
 10
35.0349
 20
52.0092
 11
35.0145
 21
52.005
  0
LINE
  8
0
 10
35.0145
 20
52.005
 11
34.9893
 21
51.9996
  0
LINE
  8
0
 10
34.9893
 20
51.9996
 11
34.9586
 21
51.9928
  0
LINE
  8
0
 10
34.9586
 20
51.9928
 11
34.9366
 21
51.9878
  0
LINE
  8
0
 10
34.9366
 20
51.9878
 11
34.9182
 21
51.9836
  0
LINE
  8
0
 10
34.9182
 20
51.9836
 11
34.8819
 21
51.9748
  0
LINE
  8
0
 10
34.8819
 20
51.9748
 11
34.8551
 21
51.968
  0
LINE
  8
0
 10
34.8551
 20
51.968
 11
34.8283
 21
51.9611
  0
LINE
  8
0
 10
34.8283
 20
51.9611
 11
34.8117
 21
51.9566
  0
LINE
  8
0
 10
34.8117
 20
51.9566
 11
34.7839
 21
51.949
  0
LINE
  8
0
 10
34.7839
 20
51.949
 11
34.7607
 21
51.9425
  0
LINE
  8
0
 10
34.7607
 20
51.9425
 11
34.7268
 21
51.9326
  0
LINE
  8
0
 10
34.7268
 20
51.9326
 11
34.7159
 21
51.9293
  0
LINE
  8
0
 10
34.7159
 20
51.9293
 11
34.6687
 21
51.9144
  0
LINE
  8
0
 10
34.6687
 20
51.9144
 11
34.6503
 21
51.9084
  0
LINE
  8
0
 10
34.6503
 20
51.9084
 11
34.5186
 21
51.8583
  0
LINE
  8
0
 10
34.5186
 20
51.8583
 11
34.1657
 21
51.8148
  0
LINE
  8
0
 10
34.1657
 20
51.8148
 11
34.1627
 21
51.8138
  0
LINE
  8
0
 10
34.1627
 20
51.8138
 11
34.0757
 21
51.7841
  0
LINE
  8
0
 10
34.0757
 20
51.7841
 11
34.0562
 21
51.7769
  0
LINE
  8
0
 10
34.0562
 20
51.7769
 11
33.9646
 21
51.7406
  0
LINE
  8
0
 10
33.9646
 20
51.7406
 11
33.9396
 21
51.73
  0
LINE
  8
0
 10
33.9396
 20
51.73
 11
33.8693
 21
51.6986
  0
LINE
  8
0
 10
33.8693
 20
51.6986
 11
33.8416
 21
51.6855
  0
LINE
  8
0
 10
33.8416
 20
51.6855
 11
33.7739
 21
51.6521
  0
LINE
  8
0
 10
33.7739
 20
51.6521
 11
33.7452
 21
51.6372
  0
LINE
  8
0
 10
33.7452
 20
51.6372
 11
33.687
 21
51.6059
  0
LINE
  8
0
 10
33.687
 20
51.6059
 11
33.6553
 21
51.588
  0
LINE
  8
0
 10
33.6553
 20
51.588
 11
33.593
 21
51.5517
  0
LINE
  8
0
 10
33.593
 20
51.5517
 11
33.5659
 21
51.5352
  0
LINE
  8
0
 10
33.5659
 20
51.5352
 11
33.5051
 21
51.4966
  0
LINE
  8
0
 10
33.5051
 20
51.4966
 11
33.4731
 21
51.4755
  0
LINE
  8
0
 10
33.4731
 20
51.4755
 11
33.4131
 21
51.4343
  0
LINE
  8
0
 10
33.4131
 20
51.4343
 11
33.4034
 21
51.4274
  0
LINE
  8
0
 10
33.4034
 20
51.4274
 11
33.1117
 21
50.8702
  0
LINE
  8
0
 10
33.1117
 20
50.8702
 11
32.1777
 21
50.9355
  0
LINE
  8
0
 10
32.1777
 20
50.9355
 11
32.1656
 21
50.9291
  0
LINE
  8
0
 10
32.1656
 20
50.9291
 11
32.0783
 21
50.8804
  0
LINE
  8
0
 10
32.0783
 20
50.8804
 11
32.0653
 21
50.8727
  0
LINE
  8
0
 10
32.0653
 20
50.8727
 11
31.9713
 21
50.8134
  0
LINE
  8
0
 10
31.9713
 20
50.8134
 11
31.9577
 21
50.8044
  0
LINE
  8
0
 10
31.9577
 20
50.8044
 11
31.8727
 21
50.7441
  0
LINE
  8
0
 10
31.8727
 20
50.7441
 11
31.8597
 21
50.7344
  0
LINE
  8
0
 10
31.8597
 20
50.7344
 11
31.7759
 21
50.6682
  0
LINE
  8
0
 10
31.7759
 20
50.6682
 11
31.7636
 21
50.6579
  0
LINE
  8
0
 10
31.7636
 20
50.6579
 11
31.6983
 21
50.6005
  0
LINE
  8
0
 10
31.6983
 20
50.6005
 11
31.4649
 21
50.6418
  0
LINE
  8
0
 10
31.4649
 20
50.6418
 11
30.4117
 21
49.9244
  0
LINE
  8
0
 10
30.4117
 20
49.9244
 11
30.2466
 21
49.7066
  0
LINE
  8
0
 10
30.2466
 20
49.7066
 11
29.8863
 21
49.6367
  0
LINE
  8
0
 10
29.8863
 20
49.6367
 11
29.8821
 21
49.6425
  0
LINE
  8
0
 10
29.8821
 20
49.6425
 11
29.8818
 21
49.6422
  0
LINE
  8
0
 10
29.8818
 20
49.6422
 11
29.8764
 21
49.6348
  0
LINE
  8
0
 10
29.8764
 20
49.6348
 11
29.8724
 21
49.634
  0
LINE
  8
0
 10
29.8724
 20
49.634
 11
29.8459
 21
49.5981
  0
LINE
  8
0
 10
29.8459
 20
49.5981
 11
29.818
 21
49.5932
  0
LINE
  8
0
 10
29.818
 20
49.5932
 11
29.3139
 21
49.192
  0
LINE
  8
0
 10
29.3139
 20
49.192
 11
29.2407
 21
49.0404
  0
LINE
  8
0
 10
29.2407
 20
49.0404
 11
29.2158
 21
49.0194
  0
LINE
  8
0
 10
29.2158
 20
49.0194
 11
29.1771
 21
48.9859
  0
LINE
  8
0
 10
29.1771
 20
48.9859
 11
29.151
 21
48.9627
  0
LINE
  8
0
 10
29.151
 20
48.9627
 11
29.1254
 21
48.9395
  0
LINE
  8
0
 10
29.1254
 20
48.9395
 11
29.0915
 21
48.9084
  0
LINE
  8
0
 10
29.0915
 20
48.9084
 11
29.0616
 21
48.8803
  0
LINE
  8
0
 10
29.0616
 20
48.8803
 11
29.0283
 21
48.8483
  0
LINE
  8
0
 10
29.0283
 20
48.8483
 11
29.0029
 21
48.8235
  0
LINE
  8
0
 10
29.0029
 20
48.8235
 11
28.9675
 21
48.7883
  0
LINE
  8
0
 10
28.9675
 20
48.7883
 11
28.9477
 21
48.7684
  0
LINE
  8
0
 10
28.9477
 20
48.7684
 11
28.9105
 21
48.7304
  0
LINE
  8
0
 10
28.9105
 20
48.7304
 11
28.8878
 21
48.7068
  0
LINE
  8
0
 10
28.8878
 20
48.7068
 11
28.8539
 21
48.671
  0
LINE
  8
0
 10
28.8539
 20
48.671
 11
28.8297
 21
48.645
  0
LINE
  8
0
 10
28.8297
 20
48.645
 11
28.795
 21
48.6071
  0
LINE
  8
0
 10
28.795
 20
48.6071
 11
28.7765
 21
48.5865
  0
LINE
  8
0
 10
28.7765
 20
48.5865
 11
28.738
 21
48.5432
  0
LINE
  8
0
 10
28.738
 20
48.5432
 11
28.7122
 21
48.5137
  0
LINE
  8
0
 10
28.7122
 20
48.5137
 11
28.6794
 21
48.4752
  0
LINE
  8
0
 10
28.6794
 20
48.4752
 11
28.6586
 21
48.4505
  0
LINE
  8
0
 10
28.6586
 20
48.4505
 11
28.6233
 21
48.4078
  0
LINE
  8
0
 10
28.6233
 20
48.4078
 11
28.604
 21
48.3841
  0
LINE
  8
0
 10
28.604
 20
48.3841
 11
28.5738
 21
48.3464
  0
LINE
  8
0
 10
28.5738
 20
48.3464
 11
28.5479
 21
48.3133
  0
LINE
  8
0
 10
28.5479
 20
48.3133
 11
28.5097
 21
48.2636
  0
LINE
  8
0
 10
28.5097
 20
48.2636
 11
28.4477
 21
48.1818
  0
LINE
  8
0
 10
28.4477
 20
48.1818
 11
28.4304
 21
48.1598
  0
LINE
  8
0
 10
28.4304
 20
48.1598
 11
28.4235
 21
48.151
  0
LINE
  8
0
 10
28.4235
 20
48.151
 11
27.7274
 21
47.6636
  0
LINE
  8
0
 10
27.7274
 20
47.6636
 11
27.6853
 21
47.7343
  0
LINE
  8
0
 10
27.6853
 20
47.7343
 11
27.6428
 21
47.709
  0
LINE
  8
0
 10
27.6428
 20
47.709
 11
27.6181
 21
47.6909
  0
LINE
  8
0
 10
27.6181
 20
47.6909
 11
27.6174
 21
47.692
  0
LINE
  8
0
 10
27.6174
 20
47.692
 11
27.6153
 21
47.6906
  0
LINE
  8
0
 10
27.6153
 20
47.6906
 11
27.6161
 21
47.6895
  0
LINE
  8
0
 10
27.6161
 20
47.6895
 11
27.5903
 21
47.6706
  0
LINE
  8
0
 10
27.5903
 20
47.6706
 11
27.5878
 21
47.674
  0
LINE
  8
0
 10
27.5878
 20
47.674
 11
27.5266
 21
47.6291
  0
LINE
  8
0
 10
27.5266
 20
47.6291
 11
27.529
 21
47.6258
  0
LINE
  8
0
 10
27.529
 20
47.6258
 11
27.5117
 21
47.6131
  0
LINE
  8
0
 10
27.5117
 20
47.6131
 11
27.5106
 21
47.6145
  0
LINE
  8
0
 10
27.5106
 20
47.6145
 11
27.5038
 21
47.6089
  0
LINE
  8
0
 10
27.5038
 20
47.6089
 11
27.5045
 21
47.6079
  0
LINE
  8
0
 10
27.5045
 20
47.6079
 11
27.4986
 21
47.6036
  0
LINE
  8
0
 10
27.4986
 20
47.6036
 11
27.4979
 21
47.6045
  0
LINE
  8
0
 10
27.4979
 20
47.6045
 11
27.4874
 21
47.5954
  0
LINE
  8
0
 10
27.4874
 20
47.5954
 11
27.3379
 21
47.4861
  0
LINE
  8
0
 10
27.3379
 20
47.4861
 11
27.3282
 21
47.4775
  0
LINE
  8
0
 10
27.3282
 20
47.4775
 11
27.2612
 21
47.4153
  0
LINE
  8
0
 10
27.2612
 20
47.4153
 11
27.2351
 21
47.3899
  0
LINE
  8
0
 10
27.2351
 20
47.3899
 11
27.1939
 21
47.3486
  0
LINE
  8
0
 10
27.1939
 20
47.3486
 11
27.1638
 21
47.3176
  0
LINE
  8
0
 10
27.1638
 20
47.3176
 11
27.1314
 21
47.2834
  0
LINE
  8
0
 10
27.1314
 20
47.2834
 11
27.0917
 21
47.2405
  0
LINE
  8
0
 10
27.0917
 20
47.2405
 11
27.063
 21
47.2088
  0
LINE
  8
0
 10
27.063
 20
47.2088
 11
27.0243
 21
47.1651
  0
LINE
  8
0
 10
27.0243
 20
47.1651
 11
27.0055
 21
47.1436
  0
LINE
  8
0
 10
27.0055
 20
47.1436
 11
26.9668
 21
47.0986
  0
LINE
  8
0
 10
26.9668
 20
47.0986
 11
26.9451
 21
47.0731
  0
LINE
  8
0
 10
26.9451
 20
47.0731
 11
26.9
 21
47.0188
  0
LINE
  8
0
 10
26.9
 20
47.0188
 11
26.8839
 21
46.9992
  0
LINE
  8
0
 10
26.8839
 20
46.9992
 11
26.8383
 21
46.9431
  0
LINE
  8
0
 10
26.8383
 20
46.9431
 11
26.8202
 21
46.9203
  0
LINE
  8
0
 10
26.8202
 20
46.9203
 11
26.7831
 21
46.8732
  0
LINE
  8
0
 10
26.7831
 20
46.8732
 11
26.767
 21
46.8525
  0
LINE
  8
0
 10
26.767
 20
46.8525
 11
26.7272
 21
46.8006
  0
LINE
  8
0
 10
26.7272
 20
46.8006
 11
26.7057
 21
46.772
  0
LINE
  8
0
 10
26.7057
 20
46.772
 11
26.6647
 21
46.7165
  0
LINE
  8
0
 10
26.6647
 20
46.7165
 11
26.644
 21
46.6879
  0
LINE
  8
0
 10
26.644
 20
46.6879
 11
26.6136
 21
46.6451
  0
LINE
  8
0
 10
26.6136
 20
46.6451
 11
26.5904
 21
46.6118
  0
LINE
  8
0
 10
26.5904
 20
46.6118
 11
26.5645
 21
46.5737
  0
LINE
  8
0
 10
26.5645
 20
46.5737
 11
26.5568
 21
46.5622
  0
LINE
  8
0
 10
26.5568
 20
46.5622
 11
26.5264
 21
46.5375
  0
LINE
  8
0
 10
26.5264
 20
46.5375
 11
26.2984
 21
46.2183
  0
LINE
  8
0
 10
26.2984
 20
46.2183
 11
26.3473
 21
46.1833
  0
LINE
  8
0
 10
26.3473
 20
46.1833
 11
26.3233
 21
46.1308
  0
LINE
  8
0
 10
26.3233
 20
46.1308
 11
26.3208
 21
46.1245
  0
LINE
  8
0
 10
26.3208
 20
46.1245
 11
26.4512
 21
46.0722
  0
LINE
  8
0
 10
26.4512
 20
46.0722
 11
26.0398
 21
45.7527
  0
LINE
  8
0
 10
26.0398
 20
45.7527
 11
25.9066
 21
45.8456
  0
LINE
  8
0
 10
25.9066
 20
45.8456
 11
25.8752
 21
45.8006
  0
LINE
  8
0
 10
25.8752
 20
45.8006
 11
25.8513
 21
45.7656
  0
LINE
  8
0
 10
25.8513
 20
45.7656
 11
25.8299
 21
45.7336
  0
LINE
  8
0
 10
25.8299
 20
45.7336
 11
25.8041
 21
45.6937
  0
LINE
  8
0
 10
25.8041
 20
45.6937
 11
25.7809
 21
45.6571
  0
LINE
  8
0
 10
25.7809
 20
45.6571
 11
25.7553
 21
45.6156
  0
LINE
  8
0
 10
25.7553
 20
45.6156
 11
25.7363
 21
45.5838
  0
LINE
  8
0
 10
25.7363
 20
45.5838
 11
25.7128
 21
45.5437
  0
LINE
  8
0
 10
25.7128
 20
45.5437
 11
25.6941
 21
45.5108
  0
LINE
  8
0
 10
25.6941
 20
45.5108
 11
25.6669
 21
45.4612
  0
LINE
  8
0
 10
25.6669
 20
45.4612
 11
25.6497
 21
45.4288
  0
LINE
  8
0
 10
25.6497
 20
45.4288
 11
25.6444
 21
45.4204
  0
LINE
  8
0
 10
25.6444
 20
45.4204
 11
25.6318
 21
45.4012
  0
LINE
  8
0
 10
25.6318
 20
45.4012
 11
25.6146
 21
45.3761
  0
LINE
  8
0
 10
25.6146
 20
45.3761
 11
25.6104
 21
45.3701
  0
LINE
  8
0
 10
25.6104
 20
45.3701
 11
25.5906
 21
45.3425
  0
LINE
  8
0
 10
25.5906
 20
45.3425
 11
25.5889
 21
45.3402
  0
LINE
  8
0
 10
25.5889
 20
45.3402
 11
25.5682
 21
45.313
  0
LINE
  8
0
 10
25.5682
 20
45.313
 11
25.5671
 21
45.3117
  0
LINE
  8
0
 10
25.5671
 20
45.3117
 11
25.5487
 21
45.289
  0
LINE
  8
0
 10
25.5487
 20
45.289
 11
25.5313
 21
45.2681
  0
LINE
  8
0
 10
25.5313
 20
45.2681
 11
25.4981
 21
45.2273
  0
LINE
  8
0
 10
25.4981
 20
45.2273
 11
25.4879
 21
45.2144
  0
LINE
  8
0
 10
25.4879
 20
45.2144
 11
25.4597
 21
45.1778
  0
LINE
  8
0
 10
25.4597
 20
45.1778
 11
25.4522
 21
45.1678
  0
LINE
  8
0
 10
25.4522
 20
45.1678
 11
25.4316
 21
45.14
  0
LINE
  8
0
 10
25.4316
 20
45.14
 11
25.419
 21
45.1227
  0
LINE
  8
0
 10
25.419
 20
45.1227
 11
25.4042
 21
45.102
  0
LINE
  8
0
 10
25.4042
 20
45.102
 11
25.3935
 21
45.0869
  0
LINE
  8
0
 10
25.3935
 20
45.0869
 11
25.3713
 21
45.0549
  0
LINE
  8
0
 10
25.3713
 20
45.0549
 11
25.3602
 21
45.0386
  0
LINE
  8
0
 10
25.3602
 20
45.0386
 11
25.3427
 21
45.0123
  0
LINE
  8
0
 10
25.3427
 20
45.0123
 11
25.3305
 21
44.9937
  0
LINE
  8
0
 10
25.3305
 20
44.9937
 11
25.3164
 21
44.9719
  0
LINE
  8
0
 10
25.3164
 20
44.9719
 11
25.3056
 21
44.9549
  0
LINE
  8
0
 10
25.3056
 20
44.9549
 11
25.2951
 21
44.9383
  0
LINE
  8
0
 10
25.2951
 20
44.9383
 11
25.2794
 21
44.913
  0
LINE
  8
0
 10
25.2794
 20
44.913
 11
25.2528
 21
44.8692
  0
LINE
  8
0
 10
25.2528
 20
44.8692
 11
25.2311
 21
44.8323
  0
LINE
  8
0
 10
25.2311
 20
44.8323
 11
25.213
 21
44.801
  0
LINE
  8
0
 10
25.213
 20
44.801
 11
25.2041
 21
44.7852
  0
LINE
  8
0
 10
25.2041
 20
44.7852
 11
25.1881
 21
44.7563
  0
LINE
  8
0
 10
25.1881
 20
44.7563
 11
25.1781
 21
44.7378
  0
LINE
  8
0
 10
25.1781
 20
44.7378
 11
25.1688
 21
44.7206
  0
LINE
  8
0
 10
25.1688
 20
44.7206
 11
25.1562
 21
44.6967
  0
LINE
  8
0
 10
25.1562
 20
44.6967
 11
25.1325
 21
44.6507
  0
LINE
  8
0
 10
25.1325
 20
44.6507
 11
25.116
 21
44.6176
  0
LINE
  8
0
 10
25.116
 20
44.6176
 11
25.0902
 21
44.5636
  0
LINE
  8
0
 10
25.0902
 20
44.5636
 11
25.0833
 21
44.5488
  0
LINE
  8
0
 10
25.0833
 20
44.5488
 11
25.0681
 21
44.515
  0
LINE
  8
0
 10
25.0681
 20
44.515
 11
25.0614
 21
44.4996
  0
LINE
  8
0
 10
25.0614
 20
44.4996
 11
25.0453
 21
44.4618
  0
LINE
  8
0
 10
25.0453
 20
44.4618
 11
25.0403
 21
44.4498
  0
LINE
  8
0
 10
25.0403
 20
44.4498
 11
25.0213
 21
44.4023
  0
LINE
  8
0
 10
25.0213
 20
44.4023
 11
25.0067
 21
44.3644
  0
LINE
  8
0
 10
25.0067
 20
44.3644
 11
24.997
 21
44.3408
  0
LINE
  8
0
 10
24.997
 20
44.3408
 11
24.985
 21
44.3139
  0
LINE
  8
0
 10
24.985
 20
44.3139
 11
24.9755
 21
44.2935
  0
LINE
  8
0
 10
24.9755
 20
44.2935
 11
24.9735
 21
44.2894
  0
LINE
  8
0
 10
24.9735
 20
44.2894
 11
24.9639
 21
44.2702
  0
LINE
  8
0
 10
24.9639
 20
44.2702
 11
24.9611
 21
44.2648
  0
LINE
  8
0
 10
24.9611
 20
44.2648
 11
24.9595
 21
44.2617
  0
LINE
  8
0
 10
24.9595
 20
44.2617
 11
24.9581
 21
44.2594
  0
LINE
  8
0
 10
24.9581
 20
44.2594
 11
24.9582
 21
44.2593
  0
LINE
  8
0
 10
24.9582
 20
44.2593
 11
24.9564
 21
44.2562
  0
LINE
  8
0
 10
24.9564
 20
44.2562
 11
24.9565
 21
44.2562
  0
LINE
  8
0
 10
24.9565
 20
44.2562
 11
24.9504
 21
44.2455
  0
LINE
  8
0
 10
24.9504
 20
44.2455
 11
24.9511
 21
44.2451
  0
LINE
  8
0
 10
24.9511
 20
44.2451
 11
24.8676
 21
44.0967
  0
LINE
  8
0
 10
24.8676
 20
44.0967
 11
24.8374
 21
44.1613
  0
LINE
  8
0
 10
24.8374
 20
44.1613
 11
24.8251
 21
44.2487
  0
LINE
  8
0
 10
24.8251
 20
44.2487
 11
24.8186
 21
44.2568
  0
LINE
  8
0
 10
24.8186
 20
44.2568
 11
24.8185
 21
44.2569
  0
LINE
  8
0
 10
24.8185
 20
44.2569
 11
24.8123
 21
44.2648
  0
LINE
  8
0
 10
24.8123
 20
44.2648
 11
24.783
 21
44.2776
  0
LINE
  8
0
 10
24.783
 20
44.2776
 11
24.7722
 21
44.3006
  0
LINE
  8
0
 10
24.7722
 20
44.3006
 11
24.7717
 21
44.316
  0
LINE
  8
0
 10
24.7717
 20
44.316
 11
24.7614
 21
44.329
  0
LINE
  8
0
 10
24.7614
 20
44.329
 11
24.7582
 21
44.3306
  0
LINE
  8
0
 10
24.7582
 20
44.3306
 11
24.7554
 21
44.3366
  0
LINE
  8
0
 10
24.7554
 20
44.3366
 11
24.5612
 21
44.5819
  0
LINE
  8
0
 10
24.5612
 20
44.5819
 11
24.4495
 21
44.6141
  0
LINE
  8
0
 10
24.4495
 20
44.6141
 11
24.4286
 21
44.6448
  0
LINE
  8
0
 10
24.4286
 20
44.6448
 11
24.4133
 21
44.6669
  0
LINE
  8
0
 10
24.4133
 20
44.6669
 11
24.3798
 21
44.7146
  0
LINE
  8
0
 10
24.3798
 20
44.7146
 11
24.3691
 21
44.7297
  0
LINE
  8
0
 10
24.3691
 20
44.7297
 11
24.3371
 21
44.7744
  0
LINE
  8
0
 10
24.3371
 20
44.7744
 11
24.3234
 21
44.7935
  0
LINE
  8
0
 10
24.3234
 20
44.7935
 11
24.2858
 21
44.8447
  0
LINE
  8
0
 10
24.2858
 20
44.8447
 11
24.2744
 21
44.8601
  0
LINE
  8
0
 10
24.2744
 20
44.8601
 11
24.2303
 21
44.919
  0
LINE
  8
0
 10
24.2303
 20
44.919
 11
24.2191
 21
44.9339
  0
LINE
  8
0
 10
24.2191
 20
44.9339
 11
24.1766
 21
44.9896
  0
LINE
  8
0
 10
24.1766
 20
44.9896
 11
24.1693
 21
44.999
  0
LINE
  8
0
 10
24.1693
 20
44.999
 11
24.1214
 21
45.0612
  0
LINE
  8
0
 10
24.1214
 20
45.0612
 11
24.1147
 21
45.0698
  0
LINE
  8
0
 10
24.1147
 20
45.0698
 11
24.0312
 21
45.1766
  0
LINE
  8
0
 10
24.0312
 20
45.1766
 11
23.9682
 21
45.2593
  0
LINE
  8
0
 10
23.9682
 20
45.2593
 11
23.8876
 21
45.3667
  0
LINE
  8
0
 10
23.8876
 20
45.3667
 11
23.7981
 21
45.487
  0
LINE
  8
0
 10
23.7981
 20
45.487
 11
23.7519
 21
45.5497
  0
LINE
  8
0
 10
23.7519
 20
45.5497
 11
23.7303
 21
45.5784
  0
LINE
  8
0
 10
23.7303
 20
45.5784
 11
23.7012
 21
45.6165
  0
LINE
  8
0
 10
23.7012
 20
45.6165
 11
23.6768
 21
45.6477
  0
LINE
  8
0
 10
23.6768
 20
45.6477
 11
23.6595
 21
45.6695
  0
LINE
  8
0
 10
23.6595
 20
45.6695
 11
23.6448
 21
45.6877
  0
LINE
  8
0
 10
23.6448
 20
45.6877
 11
23.6296
 21
45.7063
  0
LINE
  8
0
 10
23.6296
 20
45.7063
 11
23.6111
 21
45.7285
  0
LINE
  8
0
 10
23.6111
 20
45.7285
 11
23.5843
 21
45.7605
  0
LINE
  8
0
 10
23.5843
 20
45.7605
 11
23.5602
 21
45.7886
  0
LINE
  8
0
 10
23.5602
 20
45.7886
 11
23.5467
 21
45.8041
  0
LINE
  8
0
 10
23.5467
 20
45.8041
 11
23.5311
 21
45.8217
  0
LINE
  8
0
 10
23.5311
 20
45.8217
 11
23.5145
 21
45.8403
  0
LINE
  8
0
 10
23.5145
 20
45.8403
 11
23.4905
 21
45.8667
  0
LINE
  8
0
 10
23.4905
 20
45.8667
 11
23.4693
 21
45.8895
  0
LINE
  8
0
 10
23.4693
 20
45.8895
 11
23.4342
 21
45.9264
  0
LINE
  8
0
 10
23.4342
 20
45.9264
 11
23.4206
 21
45.9405
  0
LINE
  8
0
 10
23.4206
 20
45.9405
 11
23.3824
 21
45.9785
  0
LINE
  8
0
 10
23.3824
 20
45.9785
 11
23.3694
 21
45.9912
  0
LINE
  8
0
 10
23.3694
 20
45.9912
 11
23.3202
 21
46.0375
  0
LINE
  8
0
 10
23.3202
 20
46.0375
 11
23.3155
 21
46.0417
  0
LINE
  8
0
 10
23.3155
 20
46.0417
 11
23.1707
 21
46.1553
  0
LINE
  8
0
 10
23.1707
 20
46.1553
 11
23.1686
 21
46.1573
  0
LINE
  8
0
 10
23.1686
 20
46.1573
 11
23.1557
 21
46.1696
  0
LINE
  8
0
 10
23.1557
 20
46.1696
 11
23.1302
 21
46.1945
  0
LINE
  8
0
 10
23.1302
 20
46.1945
 11
23.1055
 21
46.219
  0
LINE
  8
0
 10
23.1055
 20
46.219
 11
23.0771
 21
46.2475
  0
LINE
  8
0
 10
23.0771
 20
46.2475
 11
23.0443
 21
46.2807
  0
LINE
  8
0
 10
23.0443
 20
46.2807
 11
23.0108
 21
46.3151
  0
LINE
  8
0
 10
23.0108
 20
46.3151
 11
22.9356
 21
46.3934
  0
LINE
  8
0
 10
22.9356
 20
46.3934
 11
22.8982
 21
46.4328
  0
LINE
  8
0
 10
22.8982
 20
46.4328
 11
22.8115
 21
46.5254
  0
LINE
  8
0
 10
22.8115
 20
46.5254
 11
22.7694
 21
46.5707
  0
LINE
  8
0
 10
22.7694
 20
46.5707
 11
22.7228
 21
46.6214
  0
LINE
  8
0
 10
22.7228
 20
46.6214
 11
22.6215
 21
46.7325
  0
LINE
  8
0
 10
22.6215
 20
46.7325
 11
22.6138
 21
46.7408
  0
LINE
  8
0
 10
22.6138
 20
46.7408
 11
22.5564
 21
46.8031
  0
LINE
  8
0
 10
22.5564
 20
46.8031
 11
22.5025
 21
46.8609
  0
LINE
  8
0
 10
22.5025
 20
46.8609
 11
22.4923
 21
46.8718
  0
LINE
  8
0
 10
22.4923
 20
46.8718
 11
22.4445
 21
46.9224
  0
LINE
  8
0
 10
22.4445
 20
46.9224
 11
22.4346
 21
46.9328
  0
LINE
  8
0
 10
22.4346
 20
46.9328
 11
22.3927
 21
46.9765
  0
LINE
  8
0
 10
22.3927
 20
46.9765
 11
22.3822
 21
46.9874
  0
LINE
  8
0
 10
22.3822
 20
46.9874
 11
22.3369
 21
47.0339
  0
LINE
  8
0
 10
22.3369
 20
47.0339
 11
22.3252
 21
47.0459
  0
LINE
  8
0
 10
22.3252
 20
47.0459
 11
22.2877
 21
47.0837
  0
LINE
  8
0
 10
22.2877
 20
47.0837
 11
22.2721
 21
47.0993
  0
LINE
  8
0
 10
22.2721
 20
47.0993
 11
22.2349
 21
47.136
  0
LINE
  8
0
 10
22.2349
 20
47.136
 11
22.216
 21
47.1544
  0
LINE
  8
0
 10
22.216
 20
47.1544
 11
22.1796
 21
47.1896
  0
LINE
  8
0
 10
22.1796
 20
47.1896
 11
22.1577
 21
47.2103
  0
LINE
  8
0
 10
22.1577
 20
47.2103
 11
22.1301
 21
47.2361
  0
LINE
  8
0
 10
22.1301
 20
47.2361
 11
22.1093
 21
47.2552
  0
LINE
  8
0
 10
22.1093
 20
47.2552
 11
22.0827
 21
47.2794
  0
LINE
  8
0
 10
22.0827
 20
47.2794
 11
22.0446
 21
47.3131
  0
LINE
  8
0
 10
22.0446
 20
47.3131
 11
22.0213
 21
47.3331
  0
LINE
  8
0
 10
22.0213
 20
47.3331
 11
21.9941
 21
47.3562
  0
LINE
  8
0
 10
21.9941
 20
47.3562
 11
21.9819
 21
47.3663
  0
LINE
  8
0
 10
21.9819
 20
47.3663
 11
21.9305
 21
47.4077
  0
LINE
  8
0
 10
21.9305
 20
47.4077
 11
21.9197
 21
47.416
  0
LINE
  8
0
 10
21.9197
 20
47.416
 11
21.5956
 21
47.566
  0
LINE
  8
0
 10
21.5956
 20
47.566
 11
21.5923
 21
47.5685
  0
LINE
  8
0
 10
21.5923
 20
47.5685
 11
21.5918
 21
47.5678
  0
LINE
  8
0
 10
21.5918
 20
47.5678
 11
21.5913
 21
47.568
  0
LINE
  8
0
 10
21.5913
 20
47.568
 11
21.592
 21
47.569
  0
LINE
  8
0
 10
21.592
 20
47.569
 11
21.5882
 21
47.5718
  0
LINE
  8
0
 10
21.5882
 20
47.5718
 11
21.6326
 21
47.6146
  0
LINE
  8
0
 10
21.6326
 20
47.6146
 11
21.6216
 21
47.626
  0
LINE
  8
0
 10
21.6216
 20
47.626
 11
21.5523
 21
47.6944
  0
LINE
  8
0
 10
21.5523
 20
47.6944
 11
21.545
 21
47.7012
  0
LINE
  8
0
 10
21.545
 20
47.7012
 11
21.4913
 21
47.75
  0
LINE
  8
0
 10
21.4913
 20
47.75
 11
21.4715
 21
47.7673
  0
LINE
  8
0
 10
21.4715
 20
47.7673
 11
21.4361
 21
47.7976
  0
LINE
  8
0
 10
21.4361
 20
47.7976
 11
21.422
 21
47.8093
  0
LINE
  8
0
 10
21.422
 20
47.8093
 11
21.4018
 21
47.826
  0
LINE
  8
0
 10
21.4018
 20
47.826
 11
21.3901
 21
47.8355
  0
LINE
  8
0
 10
21.3901
 20
47.8355
 11
21.3722
 21
47.8499
  0
LINE
  8
0
 10
21.3722
 20
47.8499
 11
21.351
 21
47.8667
  0
LINE
  8
0
 10
21.351
 20
47.8667
 11
21.3333
 21
47.8806
  0
LINE
  8
0
 10
21.3333
 20
47.8806
 11
21.3165
 21
47.8936
  0
LINE
  8
0
 10
21.3165
 20
47.8936
 11
21.2959
 21
47.9094
  0
LINE
  8
0
 10
21.2959
 20
47.9094
 11
21.2787
 21
47.9224
  0
LINE
  8
0
 10
21.2787
 20
47.9224
 11
21.256
 21
47.9393
  0
LINE
  8
0
 10
21.256
 20
47.9393
 11
21.2151
 21
47.9692
  0
LINE
  8
0
 10
21.2151
 20
47.9692
 11
21.1881
 21
47.9887
  0
LINE
  8
0
 10
21.1881
 20
47.9887
 11
21.1649
 21
48.005
  0
LINE
  8
0
 10
21.1649
 20
48.005
 11
21.1506
 21
48.0151
  0
LINE
  8
0
 10
21.1506
 20
48.0151
 11
21.1214
 21
48.0354
  0
LINE
  8
0
 10
21.1214
 20
48.0354
 11
21.1017
 21
48.0489
  0
LINE
  8
0
 10
21.1017
 20
48.0489
 11
21.0863
 21
48.0593
  0
LINE
  8
0
 10
21.0863
 20
48.0593
 11
21.0404
 21
48.0909
  0
LINE
  8
0
 10
21.0404
 20
48.0909
 11
21.0007
 21
48.1193
  0
LINE
  8
0
 10
21.0007
 20
48.1193
 11
20.9709
 21
48.1414
  0
LINE
  8
0
 10
20.9709
 20
48.1414
 11
20.9252
 21
48.1764
  0
LINE
  8
0
 10
20.9252
 20
48.1764
 11
20.8841
 21
48.209
  0
LINE
  8
0
 10
20.8841
 20
48.209
 11
20.8408
 21
48.2443
  0
LINE
  8
0
 10
20.8408
 20
48.2443
 11
20.8037
 21
48.2754
  0
LINE
  8
0
 10
20.8037
 20
48.2754
 11
20.7614
 21
48.3119
  0
LINE
  8
0
 10
20.7614
 20
48.3119
 11
20.7321
 21
48.3379
  0
LINE
  8
0
 10
20.7321
 20
48.3379
 11
20.6949
 21
48.3719
  0
LINE
  8
0
 10
20.6949
 20
48.3719
 11
20.6707
 21
48.3948
  0
LINE
  8
0
 10
20.6707
 20
48.3948
 11
20.6512
 21
48.4138
  0
LINE
  8
0
 10
20.6512
 20
48.4138
 11
20.6309
 21
48.4346
  0
LINE
  8
0
 10
20.6309
 20
48.4346
 11
20.6248
 21
48.4412
  0
LINE
  8
0
 10
20.6248
 20
48.4412
 11
20.6226
 21
48.4438
  0
LINE
  8
0
 10
20.6226
 20
48.4438
 11
20.6224
 21
48.4437
  0
LINE
  8
0
 10
20.6224
 20
48.4437
 11
20.6177
 21
48.4493
  0
LINE
  8
0
 10
20.6177
 20
48.4493
 11
20.6461
 21
48.4673
  0
LINE
  8
0
 10
20.6461
 20
48.4673
 11
20.6426
 21
48.4728
  0
LINE
  8
0
 10
20.6426
 20
48.4728
 11
20.6224
 21
48.4854
  0
LINE
  8
0
 10
20.6224
 20
48.4854
 11
20.6308
 21
48.4908
  0
LINE
  8
0
 10
20.6308
 20
48.4908
 11
20.629
 21
48.4935
  0
LINE
  8
0
 10
20.629
 20
48.4935
 11
20.6118
 21
48.516
  0
LINE
  8
0
 10
20.6118
 20
48.516
 11
20.6137
 21
48.5173
  0
LINE
  8
0
 10
20.6137
 20
48.5173
 11
20.613
 21
48.5184
  0
LINE
  8
0
 10
20.613
 20
48.5184
 11
20.6074
 21
48.5216
  0
LINE
  8
0
 10
20.6074
 20
48.5216
 11
20.5744
 21
48.5645
  0
LINE
  8
0
 10
20.5744
 20
48.5645
 11
20.5787
 21
48.5677
  0
LINE
  8
0
 10
20.5787
 20
48.5677
 11
20.5767
 21
48.5705
  0
LINE
  8
0
 10
20.5767
 20
48.5705
 11
20.5648
 21
48.5769
  0
LINE
  8
0
 10
20.5648
 20
48.5769
 11
20.5328
 21
48.6185
  0
LINE
  8
0
 10
20.5328
 20
48.6185
 11
20.5379
 21
48.6224
  0
LINE
  8
0
 10
20.5379
 20
48.6224
 11
20.5369
 21
48.6237
  0
LINE
  8
0
 10
20.5369
 20
48.6237
 11
20.5237
 21
48.6303
  0
LINE
  8
0
 10
20.5237
 20
48.6303
 11
20.4304
 21
48.7514
  0
LINE
  8
0
 10
20.4304
 20
48.7514
 11
20.4239
 21
48.7586
  0
LINE
  8
0
 10
20.4239
 20
48.7586
 11
20.3927
 21
48.791
  0
LINE
  8
0
 10
20.3927
 20
48.791
 11
20.3909
 21
48.7934
  0
LINE
  8
0
 10
20.3909
 20
48.7934
 11
20.382
 21
48.8066
  0
LINE
  8
0
 10
20.382
 20
48.8066
 11
20.3786
 21
48.8118
  0
LINE
  8
0
 10
20.3786
 20
48.8118
 11
20.3677
 21
48.829
  0
LINE
  8
0
 10
20.3677
 20
48.829
 11
20.3568
 21
48.8475
  0
LINE
  8
0
 10
20.3568
 20
48.8475
 11
20.355
 21
48.8508
  0
LINE
  8
0
 10
20.355
 20
48.8508
 11
20.3316
 21
48.8907
  0
LINE
  8
0
 10
20.3316
 20
48.8907
 11
20.3239
 21
48.9035
  0
LINE
  8
0
 10
20.3239
 20
48.9035
 11
20.2543
 21
49.0112
  0
LINE
  8
0
 10
20.2543
 20
49.0112
 11
20.2453
 21
49.0242
  0
LINE
  8
0
 10
20.2453
 20
49.0242
 11
20.1955
 21
49.0929
  0
LINE
  8
0
 10
20.1955
 20
49.0929
 11
20.1837
 21
49.1084
  0
LINE
  8
0
 10
20.1837
 20
49.1084
 11
20.1368
 21
49.168
  0
LINE
  8
0
 10
20.1368
 20
49.168
 11
20.1117
 21
49.1986
  0
LINE
  8
0
 10
20.1117
 20
49.1986
 11
20.0721
 21
49.2454
  0
LINE
  8
0
 10
20.0721
 20
49.2454
 11
20.0548
 21
49.2653
  0
LINE
  8
0
 10
20.0548
 20
49.2653
 11
20.0154
 21
49.3092
  0
LINE
  8
0
 10
20.0154
 20
49.3092
 11
19.9843
 21
49.3429
  0
LINE
  8
0
 10
19.9843
 20
49.3429
 11
19.952
 21
49.3769
  0
LINE
  8
0
 10
19.952
 20
49.3769
 11
19.922
 21
49.4078
  0
LINE
  8
0
 10
19.922
 20
49.4078
 11
19.8916
 21
49.4386
  0
LINE
  8
0
 10
19.8916
 20
49.4386
 11
19.8614
 21
49.4684
  0
LINE
  8
0
 10
19.8614
 20
49.4684
 11
19.8292
 21
49.4995
  0
LINE
  8
0
 10
19.8292
 20
49.4995
 11
19.7978
 21
49.5291
  0
LINE
  8
0
 10
19.7978
 20
49.5291
 11
19.7683
 21
49.5565
  0
LINE
  8
0
 10
19.7683
 20
49.5565
 11
19.7346
 21
49.5871
  0
LINE
  8
0
 10
19.7346
 20
49.5871
 11
19.7035
 21
49.6147
  0
LINE
  8
0
 10
19.7035
 20
49.6147
 11
19.6711
 21
49.6429
  0
LINE
  8
0
 10
19.6711
 20
49.6429
 11
19.6344
 21
49.6741
  0
LINE
  8
0
 10
19.6344
 20
49.6741
 11
19.6038
 21
49.6994
  0
LINE
  8
0
 10
19.6038
 20
49.6994
 11
19.5671
 21
49.729
  0
LINE
  8
0
 10
19.5671
 20
49.729
 11
19.5388
 21
49.7514
  0
LINE
  8
0
 10
19.5388
 20
49.7514
 11
19.4981
 21
49.7828
  0
LINE
  8
0
 10
19.4981
 20
49.7828
 11
19.4723
 21
49.802
  0
LINE
  8
0
 10
19.4723
 20
49.802
 11
19.4187
 21
49.8408
  0
LINE
  8
0
 10
19.4187
 20
49.8408
 11
19.3978
 21
49.8554
  0
LINE
  8
0
 10
19.3978
 20
49.8554
 11
19.3379
 21
49.8956
  0
LINE
  8
0
 10
19.3379
 20
49.8956
 11
19.3217
 21
49.9061
  0
LINE
  8
0
 10
19.3217
 20
49.9061
 11
19.2091
 21
49.9737
  0
LINE
  8
0
 10
19.2091
 20
49.9737
 11
19.2054
 21
49.9757
  0
LINE
  8
0
 10
19.2054
 20
49.9757
 11
19.0362
 21
50.0597
  0
LINE
  8
0
 10
19.0362
 20
50.0597
 11
19.0327
 21
50.0612
  0
LINE
  8
0
 10
19.0327
 20
50.0612
 11
18.9071
 21
50.1076
  0
LINE
  8
0
 10
18.9071
 20
50.1076
 11
18.8979
 21
50.112
  0
LINE
  8
0
 10
18.8979
 20
50.112
 11
18.8673
 21
50.127
  0
LINE
  8
0
 10
18.8673
 20
50.127
 11
18.8297
 21
50.1457
  0
LINE
  8
0
 10
18.8297
 20
50.1457
 11
18.767
 21
50.1777
  0
LINE
  8
0
 10
18.767
 20
50.1777
 11
18.7001
 21
50.2127
  0
LINE
  8
0
 10
18.7001
 20
50.2127
 11
18.6726
 21
50.2268
  0
LINE
  8
0
 10
18.6726
 20
50.2268
 11
18.6271
 21
50.2496
  0
LINE
  8
0
 10
18.6271
 20
50.2496
 11
18.6068
 21
50.2596
  0
LINE
  8
0
 10
18.6068
 20
50.2596
 11
18.5796
 21
50.2729
  0
LINE
  8
0
 10
18.5796
 20
50.2729
 11
18.5602
 21
50.2823
  0
LINE
  8
0
 10
18.5602
 20
50.2823
 11
18.519
 21
50.3018
  0
LINE
  8
0
 10
18.519
 20
50.3018
 11
18.4929
 21
50.314
  0
LINE
  8
0
 10
18.4929
 20
50.314
 11
18.4717
 21
50.3237
  0
LINE
  8
0
 10
18.4717
 20
50.3237
 11
18.4477
 21
50.3345
  0
LINE
  8
0
 10
18.4477
 20
50.3345
 11
18.4053
 21
50.3532
  0
LINE
  8
0
 10
18.4053
 20
50.3532
 11
18.3707
 21
50.3681
  0
LINE
  8
0
 10
18.3707
 20
50.3681
 11
18.3387
 21
50.3815
  0
LINE
  8
0
 10
18.3387
 20
50.3815
 11
18.287
 21
50.4024
  0
LINE
  8
0
 10
18.287
 20
50.4024
 11
18.2569
 21
50.414
  0
LINE
  8
0
 10
18.2569
 20
50.414
 11
18.1888
 21
50.4389
  0
LINE
  8
0
 10
18.1888
 20
50.4389
 11
18.1693
 21
50.4457
  0
LINE
  8
0
 10
18.1693
 20
50.4457
 11
18.1131
 21
50.4634
  0
LINE
  8
0
 10
18.1131
 20
50.4634
 11
18.1116
 21
50.4647
  0
LINE
  8
0
 10
18.1116
 20
50.4647
 11
18.1061
 21
50.4664
  0
LINE
  8
0
 10
18.1061
 20
50.4664
 11
18.1059
 21
50.4657
  0
LINE
  8
0
 10
18.1059
 20
50.4657
 11
18.0651
 21
50.4786
  0
LINE
  8
0
 10
18.0651
 20
50.4786
 11
18.0603
 21
50.48
  0
LINE
  8
0
 10
18.0603
 20
50.48
 11
18.0488
 21
50.44
  0
LINE
  8
0
 10
18.0488
 20
50.44
 11
17.9438
 21
50.5121
  0
LINE
  8
0
 10
17.9438
 20
50.5121
 11
17.911
 21
50.5195
  0
LINE
  8
0
 10
17.911
 20
50.5195
 11
16.7574
 21
50.2516
  0
LINE
  8
0
 10
16.7574
 20
50.2516
 11
16.537
 21
50.4118
  0
LINE
  8
0
 10
16.537
 20
50.4118
 11
16.5224
 21
50.4191
  0
LINE
  8
0
 10
16.5224
 20
50.4191
 11
16.4731
 21
50.4431
  0
LINE
  8
0
 10
16.4731
 20
50.4431
 11
16.462
 21
50.4482
  0
LINE
  8
0
 10
16.462
 20
50.4482
 11
16.4328
 21
50.4617
  0
LINE
  8
0
 10
16.4328
 20
50.4617
 11
16.4143
 21
50.4699
  0
LINE
  8
0
 10
16.4143
 20
50.4699
 11
16.3586
 21
50.4939
  0
LINE
  8
0
 10
16.3586
 20
50.4939
 11
16.3255
 21
50.5076
  0
LINE
  8
0
 10
16.3255
 20
50.5076
 11
16.2817
 21
50.5251
  0
LINE
  8
0
 10
16.2817
 20
50.5251
 11
16.2449
 21
50.5392
  0
LINE
  8
0
 10
16.2449
 20
50.5392
 11
16.193
 21
50.5584
  0
LINE
  8
0
 10
16.193
 20
50.5584
 11
16.1756
 21
50.5646
  0
LINE
  8
0
 10
16.1756
 20
50.5646
 11
16.1568
 21
50.5711
  0
LINE
  8
0
 10
16.1568
 20
50.5711
 11
16.136
 21
50.5783
  0
LINE
  8
0
 10
16.136
 20
50.5783
 11
16.11
 21
50.587
  0
LINE
  8
0
 10
16.11
 20
50.587
 11
16.0931
 21
50.5925
  0
LINE
  8
0
 10
16.0931
 20
50.5925
 11
16.0661
 21
50.6012
  0
LINE
  8
0
 10
16.0661
 20
50.6012
 11
16.0437
 21
50.6081
  0
LINE
  8
0
 10
16.0437
 20
50.6081
 11
16.0077
 21
50.619
  0
LINE
  8
0
 10
16.0077
 20
50.619
 11
15.9055
 21
50.6488
  0
LINE
  8
0
 10
15.9055
 20
50.6488
 11
15.7547
 21
50.6938
  0
LINE
  8
0
 10
15.7547
 20
50.6938
 11
15.6702
 21
50.7198
  0
LINE
  8
0
 10
15.6702
 20
50.7198
 11
15.6037
 21
50.7411
  0
LINE
  8
0
 10
15.6037
 20
50.7411
 11
15.5797
 21
50.7491
  0
LINE
  8
0
 10
15.5797
 20
50.7491
 11
15.5495
 21
50.7589
  0
LINE
  8
0
 10
15.5495
 20
50.7589
 11
15.4504
 21
50.7902
  0
LINE
  8
0
 10
15.4504
 20
50.7902
 11
15.3552
 21
50.8177
  0
LINE
  8
0
 10
15.3552
 20
50.8177
 11
15.2476
 21
50.8459
  0
LINE
  8
0
 10
15.2476
 20
50.8459
 11
15.1681
 21
50.865
  0
LINE
  8
0
 10
15.1681
 20
50.865
 11
15.0453
 21
50.8919
  0
LINE
  8
0
 10
15.0453
 20
50.8919
 11
14.979
 21
50.9053
  0
LINE
  8
0
 10
14.979
 20
50.9053
 11
14.8516
 21
50.9287
  0
LINE
  8
0
 10
14.8516
 20
50.9287
 11
14.7968
 21
50.938
  0
LINE
  8
0
 10
14.7968
 20
50.938
 11
14.6412
 21
50.9621
  0
LINE
  8
0
 10
14.6412
 20
50.9621
 11
14.5892
 21
50.9695
  0
LINE
  8
0
 10
14.5892
 20
50.9695
 11
14.4374
 21
50.989
  0
LINE
  8
0
 10
14.4374
 20
50.989
 11
14.3939
 21
50.9941
  0
LINE
  8
0
 10
14.3939
 20
50.9941
 11
14.2343
 21
51.011
  0
LINE
  8
0
 10
14.2343
 20
51.011
 11
14.1926
 21
51.015
  0
LINE
  8
0
 10
14.1926
 20
51.015
 11
14.0283
 21
51.0289
  0
LINE
  8
0
 10
14.0283
 20
51.0289
 11
13.9884
 21
51.0319
  0
LINE
  8
0
 10
13.9884
 20
51.0319
 11
13.8173
 21
51.043
  0
LINE
  8
0
 10
13.8173
 20
51.043
 11
13.7796
 21
51.0451
  0
LINE
  8
0
 10
13.7796
 20
51.0451
 11
13.6103
 21
51.0529
  0
LINE
  8
0
 10
13.6103
 20
51.0529
 11
13.5737
 21
51.0543
  0
LINE
  8
0
 10
13.5737
 20
51.0543
 11
13.3997
 21
51.0591
  0
LINE
  8
0
 10
13.3997
 20
51.0591
 11
13.3609
 21
51.0598
  0
LINE
  8
0
 10
13.3609
 20
51.0598
 11
13.1938
 21
51.0611
  0
LINE
  8
0
 10
13.1938
 20
51.0611
 11
13.1545
 21
51.0611
  0
LINE
  8
0
 10
13.1545
 20
51.0611
 11
12.9837
 21
51.0591
  0
LINE
  8
0
 10
12.9837
 20
51.0591
 11
12.9423
 21
51.0582
  0
LINE
  8
0
 10
12.9423
 20
51.0582
 11
12.7839
 21
51.0531
  0
LINE
  8
0
 10
12.7839
 20
51.0531
 11
12.7399
 21
51.0512
  0
LINE
  8
0
 10
12.7399
 20
51.0512
 11
12.5804
 21
51.0426
  0
LINE
  8
0
 10
12.5804
 20
51.0426
 11
12.5311
 21
51.0393
  0
LINE
  8
0
 10
12.5311
 20
51.0393
 11
12.3903
 21
51.0282
  0
LINE
  8
0
 10
12.3903
 20
51.0282
 11
12.3361
 21
51.0231
  0
LINE
  8
0
 10
12.3361
 20
51.0231
 11
12.1928
 21
51.0079
  0
LINE
  8
0
 10
12.1928
 20
51.0079
 11
12.1273
 21
50.9998
  0
LINE
  8
0
 10
12.1273
 20
50.9998
 11
12.0026
 21
50.9823
  0
LINE
  8
0
 10
12.0026
 20
50.9823
 11
11.9249
 21
50.9699
  0
LINE
  8
0
 10
11.9249
 20
50.9699
 11
11.812
 21
50.9495
  0
LINE
  8
0
 10
11.812
 20
50.9495
 11
11.7182
 21
50.9303
  0
LINE
  8
0
 10
11.7182
 20
50.9303
 11
11.6137
 21
50.9062
  0
LINE
  8
0
 10
11.6137
 20
50.9062
 11
11.5794
 21
50.898
  0
LINE
  8
0
 10
11.5794
 20
50.898
 11
11.5321
 21
50.8862
  0
LINE
  8
0
 10
11.5321
 20
50.8862
 11
11.4856
 21
50.8755
  0
LINE
  8
0
 10
11.4856
 20
50.8755
 11
11.4235
 21
50.8623
  0
LINE
  8
0
 10
11.4235
 20
50.8623
 11
11.3669
 21
50.8512
  0
LINE
  8
0
 10
11.3669
 20
50.8512
 11
11.3081
 21
50.8405
  0
LINE
  8
0
 10
11.3081
 20
50.8405
 11
11.2402
 21
50.8289
  0
LINE
  8
0
 10
11.2402
 20
50.8289
 11
11.1776
 21
50.8191
  0
LINE
  8
0
 10
11.1776
 20
50.8191
 11
11.107
 21
50.8087
  0
LINE
  8
0
 10
11.107
 20
50.8087
 11
11.0439
 21
50.8002
  0
LINE
  8
0
 10
11.0439
 20
50.8002
 11
10.9724
 21
50.7912
  0
LINE
  8
0
 10
10.9724
 20
50.7912
 11
10.9142
 21
50.7848
  0
LINE
  8
0
 10
10.9142
 20
50.7848
 11
10.8495
 21
50.7783
  0
LINE
  8
0
 10
10.8495
 20
50.7783
 11
10.7897
 21
50.773
  0
LINE
  8
0
 10
10.7897
 20
50.773
 11
10.7367
 21
50.7692
  0
LINE
  8
0
 10
10.7367
 20
50.7692
 11
10.6849
 21
50.7661
  0
LINE
  8
0
 10
10.6849
 20
50.7661
 11
10.6505
 21
50.7646
  0
LINE
  8
0
 10
10.6505
 20
50.7646
 11
10.6219
 21
50.764
  0
LINE
  8
0
 10
10.6219
 20
50.764
 11
10.6013
 21
50.7641
  0
LINE
  8
0
 10
10.6013
 20
50.7641
 11
10.5931
 21
50.7647
  0
LINE
  8
0
 10
10.5931
 20
50.7647
 11
10.5712
 21
50.7665
  0
LINE
  8
0
 10
10.5712
 20
50.7665
 11
10.5524
 21
50.768
  0
LINE
  8
0
 10
10.5524
 20
50.768
 11
10.5146
 21
50.7709
  0
LINE
  8
0
 10
10.5146
 20
50.7709
 11
10.4902
 21
50.7725
  0
LINE
  8
0
 10
10.4902
 20
50.7725
 11
10.4658
 21
50.7741
  0
LINE
  8
0
 10
10.4658
 20
50.7741
 11
10.4381
 21
50.7756
  0
LINE
  8
0
 10
10.4381
 20
50.7756
 11
10.4024
 21
50.7774
  0
LINE
  8
0
 10
10.4024
 20
50.7774
 11
10.3758
 21
50.7785
  0
LINE
  8
0
 10
10.3758
 20
50.7785
 11
10.3508
 21
50.7794
  0
LINE
  8
0
 10
10.3508
 20
50.7794
 11
10.3211
 21
50.7802
  0
LINE
  8
0
 10
10.3211
 20
50.7802
 11
10.2929
 21
50.7808
  0
LINE
  8
0
 10
10.2929
 20
50.7808
 11
10.2713
 21
50.7811
  0
LINE
  8
0
 10
10.2713
 20
50.7811
 11
10.2416
 21
50.7814
  0
LINE
  8
0
 10
10.2416
 20
50.7814
 11
10.205
 21
50.7814
  0
LINE
  8
0
 10
10.205
 20
50.7814
 11
10.1782
 21
50.7812
  0
LINE
  8
0
 10
10.1782
 20
50.7812
 11
10.1561
 21
50.7809
  0
LINE
  8
0
 10
10.1561
 20
50.7809
 11
10.1305
 21
50.7804
  0
LINE
  8
0
 10
10.1305
 20
50.7804
 11
10.0984
 21
50.7795
  0
LINE
  8
0
 10
10.0984
 20
50.7795
 11
10.068
 21
50.7784
  0
LINE
  8
0
 10
10.068
 20
50.7784
 11
10.0349
 21
50.7769
  0
LINE
  8
0
 10
10.0349
 20
50.7769
 11
10.0139
 21
50.7758
  0
LINE
  8
0
 10
10.0139
 20
50.7758
 11
9.98293
 21
50.774
  0
LINE
  8
0
 10
9.98293
 20
50.774
 11
9.95616
 21
50.7722
  0
LINE
  8
0
 10
9.95616
 20
50.7722
 11
9.92882
 21
50.7701
  0
LINE
  8
0
 10
9.92882
 20
50.7701
 11
9.90041
 21
50.7678
  0
LINE
  8
0
 10
9.90041
 20
50.7678
 11
9.86922
 21
50.765
  0
LINE
  8
0
 10
9.86922
 20
50.765
 11
9.84682
 21
50.7628
  0
LINE
  8
0
 10
9.84682
 20
50.7628
 11
9.80573
 21
50.7584
  0
LINE
  8
0
 10
9.80573
 20
50.7584
 11
9.78174
 21
50.7556
  0
LINE
  8
0
 10
9.78174
 20
50.7556
 11
9.74911
 21
50.7514
  0
LINE
  8
0
 10
9.74911
 20
50.7514
 11
9.72324
 21
50.7479
  0
LINE
  8
0
 10
9.72324
 20
50.7479
 11
9.69728
 21
50.7442
  0
LINE
  8
0
 10
9.69728
 20
50.7442
 11
9.67918
 21
50.7416
  0
LINE
  8
0
 10
9.67918
 20
50.7416
 11
9.64476
 21
50.7361
  0
LINE
  8
0
 10
9.64476
 20
50.7361
 11
9.63409
 21
50.7344
  0
LINE
  8
0
 10
9.63409
 20
50.7344
 11
8.88927
 21
50.9496
  0
LINE
  8
0
 10
8.88927
 20
50.9496
 11
8.87393
 21
50.9476
  0
LINE
  8
0
 10
8.87393
 20
50.9476
 11
8.84483
 21
50.9436
  0
LINE
  8
0
 10
8.84483
 20
50.9436
 11
8.82098
 21
50.9402
  0
LINE
  8
0
 10
8.82098
 20
50.9402
 11
8.77835
 21
50.9336
  0
LINE
  8
0
 10
8.77835
 20
50.9336
 11
8.76433
 21
50.9313
  0
LINE
  8
0
 10
8.76433
 20
50.9313
 11
8.72028
 21
50.9235
  0
LINE
  8
0
 10
8.72028
 20
50.9235
 11
8.6925
 21
50.9183
  0
LINE
  8
0
 10
8.6925
 20
50.9183
 11
8.6183
 21
50.9028
  0
LINE
  8
0
 10
8.6183
 20
50.9028
 11
8.58638
 21
50.8956
  0
LINE
  8
0
 10
8.58638
 20
50.8956
 11
8.54591
 21
50.8859
  0
LINE
  8
0
 10
8.54591
 20
50.8859
 11
8.52876
 21
50.8816
  0
LINE
  8
0
 10
8.52876
 20
50.8816
 11
8.49126
 21
50.8719
  0
LINE
  8
0
 10
8.49126
 20
50.8719
 11
8.45715
 21
50.8626
  0
LINE
  8
0
 10
8.45715
 20
50.8626
 11
8.41875
 21
50.8518
  0
LINE
  8
0
 10
8.41875
 20
50.8518
 11
8.39833
 21
50.8458
  0
LINE
  8
0
 10
8.39833
 20
50.8458
 11
8.37115
 21
50.8377
  0
LINE
  8
0
 10
8.37115
 20
50.8377
 11
8.34993
 21
50.8312
  0
LINE
  8
0
 10
8.34993
 20
50.8312
 11
8.315
 21
50.8201
  0
LINE
  8
0
 10
8.315
 20
50.8201
 11
8.28526
 21
50.8103
  0
LINE
  8
0
 10
8.28526
 20
50.8103
 11
8.2382
 21
50.7942
  0
LINE
  8
0
 10
8.2382
 20
50.7942
 11
8.21654
 21
50.7865
  0
LINE
  8
0
 10
8.21654
 20
50.7865
 11
8.18579
 21
50.7753
  0
LINE
  8
0
 10
8.18579
 20
50.7753
 11
8.15802
 21
50.7649
  0
LINE
  8
0
 10
8.15802
 20
50.7649
 11
8.08556
 21
50.7362
  0
LINE
  8
0
 10
8.08556
 20
50.7362
 11
8.05852
 21
50.7248
  0
LINE
  8
0
 10
8.05852
 20
50.7248
 11
7.98215
 21
50.6909
  0
LINE
  8
0
 10
7.98215
 20
50.6909
 11
7.96573
 21
50.6832
  0
LINE
  8
0
 10
7.96573
 20
50.6832
 11
7.8981
 21
50.6499
  0
LINE
  8
0
 10
7.8981
 20
50.6499
 11
7.87314
 21
50.637
  0
LINE
  8
0
 10
7.87314
 20
50.637
 11
7.86961
 21
50.6357
  0
LINE
  8
0
 10
7.86961
 20
50.6357
 11
7.86966
 21
50.6355
  0
LINE
  8
0
 10
7.86966
 20
50.6355
 11
7.86716
 21
50.6345
  0
LINE
  8
0
 10
7.86716
 20
50.6345
 11
7.86719
 21
50.6345
  0
LINE
  8
0
 10
7.86719
 20
50.6345
 11
7.8609
 21
50.6318
  0
LINE
  8
0
 10
7.8609
 20
50.6318
 11
7.86101
 21
50.6316
  0
LINE
  8
0
 10
7.86101
 20
50.6316
 11
7.85895
 21
50.6306
  0
LINE
  8
0
 10
7.85895
 20
50.6306
 11
7.85904
 21
50.6304
  0
LINE
  8
0
 10
7.85904
 20
50.6304
 11
7.85501
 21
50.6285
  0
LINE
  8
0
 10
7.85501
 20
50.6285
 11
7.85533
 21
50.6278
  0
LINE
  8
0
 10
7.85533
 20
50.6278
 11
7.85332
 21
50.6268
  0
LINE
  8
0
 10
7.85332
 20
50.6268
 11
7.87297
 21
50.5887
  0
LINE
  8
0
 10
7.87297
 20
50.5887
 11
7.18005
 21
50.2308
  0
LINE
  8
0
 10
7.18005
 20
50.2308
 11
7.17178
 21
50.2427
  0
LINE
  8
0
 10
7.17178
 20
50.2427
 11
7.17027
 21
50.2416
  0
LINE
  8
0
 10
7.17027
 20
50.2416
 11
7.16995
 21
50.2421
  0
LINE
  8
0
 10
7.16995
 20
50.2421
 11
7.16087
 21
50.2354
  0
LINE
  8
0
 10
7.16087
 20
50.2354
 11
7.16083
 21
50.2354
  0
LINE
  8
0
 10
7.16083
 20
50.2354
 11
7.15904
 21
50.2341
  0
LINE
  8
0
 10
7.15904
 20
50.2341
 11
7.15894
 21
50.2342
  0
LINE
  8
0
 10
7.15894
 20
50.2342
 11
7.15318
 21
50.2297
  0
LINE
  8
0
 10
7.15318
 20
50.2297
 11
7.15111
 21
50.2282
  0
LINE
  8
0
 10
7.15111
 20
50.2282
 11
7.15108
 21
50.2282
  0
LINE
  8
0
 10
7.15108
 20
50.2282
 11
7.15044
 21
50.2277
  0
LINE
  8
0
 10
7.15044
 20
50.2277
 11
7.14395
 21
50.2237
  0
LINE
  8
0
 10
7.14395
 20
50.2237
 11
7.14374
 21
50.2233
  0
LINE
  8
0
 10
7.14374
 20
50.2233
 11
7.13921
 21
50.2203
  0
LINE
  8
0
 10
7.13921
 20
50.2203
 11
7.13931
 21
50.2202
  0
LINE
  8
0
 10
7.13931
 20
50.2202
 11
7.13338
 21
50.2161
  0
LINE
  8
0
 10
7.13338
 20
50.2161
 11
7.13382
 21
50.2155
  0
LINE
  8
0
 10
7.13382
 20
50.2155
 11
7.13229
 21
50.2144
  0
LINE
  8
0
 10
7.13229
 20
50.2144
 11
7.13292
 21
50.2135
  0
LINE
  8
0
 10
7.13292
 20
50.2135
 11
7.13173
 21
50.2125
  0
LINE
  8
0
 10
7.13173
 20
50.2125
 11
7.13177
 21
50.2125
  0
LINE
  8
0
 10
7.13177
 20
50.2125
 11
7.12901
 21
50.2101
  0
LINE
  8
0
 10
7.12901
 20
50.2101
 11
7.12376
 21
50.2057
  0
LINE
  8
0
 10
7.12376
 20
50.2057
 11
7.12384
 21
50.2056
  0
LINE
  8
0
 10
7.12384
 20
50.2056
 11
7.11559
 21
50.1984
  0
LINE
  8
0
 10
7.11559
 20
50.1984
 11
7.11568
 21
50.1983
  0
LINE
  8
0
 10
7.11568
 20
50.1983
 11
7.11383
 21
50.1966
  0
LINE
  8
0
 10
7.11383
 20
50.1966
 11
7.11308
 21
50.1962
  0
LINE
  8
0
 10
7.11308
 20
50.1962
 11
7.09084
 21
50.1754
  0
LINE
  8
0
 10
7.09084
 20
50.1754
 11
7.11139
 21
50.1534
  0
LINE
  8
0
 10
7.11139
 20
50.1534
 11
7.08817
 21
50.1033
  0
LINE
  8
0
 10
7.08817
 20
50.1033
 11
6.98625
 21
50.1225
  0
LINE
  8
0
 10
6.98625
 20
50.1225
 11
6.96889
 21
50.1252
  0
LINE
  8
0
 10
6.96889
 20
50.1252
 11
6.88263
 21
50.137
  0
LINE
  8
0
 10
6.88263
 20
50.137
 11
6.86227
 21
50.1393
  0
LINE
  8
0
 10
6.86227
 20
50.1393
 11
6.78241
 21
50.1469
  0
LINE
  8
0
 10
6.78241
 20
50.1469
 11
6.75507
 21
50.1489
  0
LINE
  8
0
 10
6.75507
 20
50.1489
 11
6.67715
 21
50.1532
  0
LINE
  8
0
 10
6.67715
 20
50.1532
 11
6.64801
 21
50.1542
  0
LINE
  8
0
 10
6.64801
 20
50.1542
 11
6.5779
 21
50.1554
  0
LINE
  8
0
 10
6.5779
 20
50.1554
 11
6.54962
 21
50.1554
  0
LINE
  8
0
 10
6.54962
 20
50.1554
 11
6.48865
 21
50.1545
  0
LINE
  8
0
 10
6.48865
 20
50.1545
 11
6.45062
 21
50.1533
  0
LINE
  8
0
 10
6.45062
 20
50.1533
 11
6.38799
 21
50.1504
  0
LINE
  8
0
 10
6.38799
 20
50.1504
 11
6.34807
 21
50.148
  0
LINE
  8
0
 10
6.34807
 20
50.148
 11
6.28374
 21
50.1429
  0
LINE
  8
0
 10
6.28374
 20
50.1429
 11
6.23831
 21
50.1387
  0
LINE
  8
0
 10
6.23831
 20
50.1387
 11
6.17699
 21
50.1319
  0
LINE
  8
0
 10
6.17699
 20
50.1319
 11
6.1301
 21
50.126
  0
LINE
  8
0
 10
6.1301
 20
50.126
 11
6.10475
 21
50.1227
  0
LINE
  8
0
 10
6.10475
 20
50.1227
 11
5.94272
 21
50.1002
  0
LINE
  8
0
 10
5.94272
 20
50.1002
 11
4.75735
 21
49.4861
  0
LINE
  8
0
 10
4.75735
 20
49.4861
 11
3.5218
 21
48.1664
  0
LINE
  8
0
 10
3.5218
 20
48.1664
 11
3.3591
 21
47.9923
  0
LINE
  8
0
 10
3.3591
 20
47.9923
 11
3.20656
 21
47.8284
  0
LINE
  8
0
 10
3.20656
 20
47.8284
 11
3.0648
 21
47.6752
  0
LINE
  8
0
 10
3.0648
 20
47.6752
 11
2.93164
 21
47.5303
  0
LINE
  8
0
 10
2.93164
 20
47.5303
 11
2.80681
 21
47.3933
  0
LINE
  8
0
 10
2.80681
 20
47.3933
 11
2.70082
 21
47.2758
  0
LINE
  8
0
 10
2.70082
 20
47.2758
 11
2.59271
 21
47.1546
  0
LINE
  8
0
 10
2.59271
 20
47.1546
 11
2.58336
 21
47.144
  0
LINE
  8
0
 10
2.58336
 20
47.144
 11
2.48761
 21
47.035
  0
LINE
  8
0
 10
2.48761
 20
47.035
 11
2.47687
 21
47.0227
  0
LINE
  8
0
 10
2.47687
 20
47.0227
 11
2.39131
 21
46.9237
  0
LINE
  8
0
 10
2.39131
 20
46.9237
 11
2.37921
 21
46.9096
  0
LINE
  8
0
 10
2.37921
 20
46.9096
 11
2.30289
 21
46.8196
  0
LINE
  8
0
 10
2.30289
 20
46.8196
 11
2.28908
 21
46.8031
  0
LINE
  8
0
 10
2.28908
 20
46.8031
 11
2.21536
 21
46.7143
  0
LINE
  8
0
 10
2.21536
 20
46.7143
 11
2.1993
 21
46.6947
  0
LINE
  8
0
 10
2.1993
 20
46.6947
 11
2.13387
 21
46.6137
  0
LINE
  8
0
 10
2.13387
 20
46.6137
 11
2.11813
 21
46.594
  0
LINE
  8
0
 10
2.11813
 20
46.594
 11
2.05627
 21
46.5155
  0
LINE
  8
0
 10
2.05627
 20
46.5155
 11
2.03732
 21
46.4911
  0
LINE
  8
0
 10
2.03732
 20
46.4911
 11
1.97713
 21
46.4122
  0
LINE
  8
0
 10
1.97713
 20
46.4122
 11
1.96083
 21
46.3906
  0
LINE
  8
0
 10
1.96083
 20
46.3906
 11
1.90581
 21
46.3164
  0
LINE
  8
0
 10
1.90581
 20
46.3164
 11
1.88696
 21
46.2906
  0
LINE
  8
0
 10
1.88696
 20
46.2906
 11
1.83826
 21
46.2227
  0
LINE
  8
0
 10
1.83826
 20
46.2227
 11
1.82227
 21
46.2001
  0
LINE
  8
0
 10
1.82227
 20
46.2001
 11
1.76752
 21
46.1215
  0
LINE
  8
0
 10
1.76752
 20
46.1215
 11
1.75076
 21
46.0971
  0
LINE
  8
0
 10
1.75076
 20
46.0971
 11
1.70337
 21
46.0269
  0
LINE
  8
0
 10
1.70337
 20
46.0269
 11
1.68825
 21
46.0041
  0
LINE
  8
0
 10
1.68825
 20
46.0041
 11
1.63904
 21
45.929
  0
LINE
  8
0
 10
1.63904
 20
45.929
 11
1.62697
 21
45.9103
  0
LINE
  8
0
 10
1.62697
 20
45.9103
 11
1.57214
 21
45.8246
  0
LINE
  8
0
 10
1.57214
 20
45.8246
 11
1.53758
 21
45.7701
  0
LINE
  8
0
 10
1.53758
 20
45.7701
 11
1.52972
 21
45.7579
  0
LINE
  8
0
 10
1.52972
 20
45.7579
 11
0.577728
 21
44.9791
  0
LINE
  8
0
 10
0.577728
 20
44.9791
 11
0.575485
 21
44.9751
  0
LINE
  8
0
 10
0.575485
 20
44.9751
 11
0.571655
 21
43.6445
  0
LINE
  8
0
 10
0.571655
 20
43.6445
 11
0.538345
 21
43.6646
  0
LINE
  8
0
 10
0.538345
 20
43.6646
 11
0.524002
 21
43.6408
  0
LINE
  8
0
 10
0.524002
 20
43.6408
 11
0.523285
 21
43.6412
  0
LINE
  8
0
 10
0.523285
 20
43.6412
 11
0.492981
 21
43.5853
  0
LINE
  8
0
 10
0.492981
 20
43.5853
 11
0.493744
 21
43.5848
  0
LINE
  8
0
 10
0.493744
 20
43.5848
 11
0.485962
 21
43.5688
  0
LINE
  8
0
 10
0.485962
 20
43.5688
 11
0.485458
 21
43.5691
  0
LINE
  8
0
 10
0.485458
 20
43.5691
 11
0.464661
 21
43.5221
  0
LINE
  8
0
 10
0.464661
 20
43.5221
 11
0.449219
 21
43.5225
  0
LINE
  8
0
 10
0.449219
 20
43.5225
 11
0.449127
 21
43.5195
  0
LINE
  8
0
 10
0.449127
 20
43.5195
 11
0.448227
 21
43.5195
  0
LINE
  8
0
 10
0.448227
 20
43.5195
 11
0.448395
 21
43.506
  0
LINE
  8
0
 10
0.448395
 20
43.506
 11
0.448196
 21
43.506
  0
LINE
  8
0
 10
0.448196
 20
43.506
 11
0.448196
 21
43.5058
  0
LINE
  8
0
 10
0.448196
 20
43.5058
 11
0.4478
 21
43.5058
  0
LINE
  8
0
 10
0.4478
 20
43.5058
 11
0.448395
 21
43.4947
  0
LINE
  8
0
 10
0.448395
 20
43.4947
 11
0.44812
 21
43.4901
  0
LINE
  8
0
 10
0.44812
 20
43.4901
 11
0.447205
 21
43.4805
  0
LINE
  8
0
 10
0.447205
 20
43.4805
 11
0.445938
 21
43.4706
  0
LINE
  8
0
 10
0.445938
 20
43.4706
 11
0.444748
 21
43.4634
  0
LINE
  8
0
 10
0.444748
 20
43.4634
 11
0.443481
 21
43.4593
  0
LINE
  8
0
 10
0.443481
 20
43.4593
 11
0.443741
 21
43.4592
  0
LINE
  8
0
 10
0.443741
 20
43.4592
 11
0.440002
 21
43.446
  0
LINE
  8
0
 10
0.440002
 20
43.446
 11
0.44075
 21
43.4457
  0
LINE
  8
0
 10
0.44075
 20
43.4457
 11
0.438766
 21
43.4374
  0
LINE
  8
0
 10
0.438766
 20
43.4374
 11
0.43959
 21
43.4372
  0
LINE
  8
0
 10
0.43959
 20
43.4372
 11
0.439117
 21
43.4349
  0
LINE
  8
0
 10
0.439117
 20
43.4349
 11
0.45433
 21
43.4319
  0
LINE
  8
0
 10
0.45433
 20
43.4319
 11
0.456238
 21
43.4178
  0
LINE
  8
0
 10
0.456238
 20
43.4178
 11
0.456604
 21
43.4178
  0
LINE
  8
0
 10
0.456604
 20
43.4178
 11
0.458847
 21
43.4045
  0
LINE
  8
0
 10
0.458847
 20
43.4045
 11
0.458267
 21
43.4044
  0
LINE
  8
0
 10
0.458267
 20
43.4044
 11
0.467896
 21
43.3581
  0
LINE
  8
0
 10
0.467896
 20
43.3581
 11
0.294479
 21
42.4617
  0
LINE
  8
0
 10
0.294479
 20
42.4617
 11
0.245605
 21
42.4635
  0
LINE
  8
0
 10
0.245605
 20
42.4635
 11
0.245407
 21
42.4576
  0
LINE
  8
0
 10
0.245407
 20
42.4576
 11
0.24469
 21
42.4576
  0
LINE
  8
0
 10
0.24469
 20
42.4576
 11
0.244736
 21
42.4464
  0
LINE
  8
0
 10
0.244736
 20
42.4464
 11
0.244507
 21
42.4464
  0
LINE
  8
0
 10
0.244507
 20
42.4464
 11
0.24472
 21
42.438
  0
LINE
  8
0
 10
0.24472
 20
42.438
 11
0.244293
 21
42.4259
  0
LINE
  8
0
 10
0.244293
 20
42.4259
 11
0.242691
 21
42.4006
  0
LINE
  8
0
 10
0.242691
 20
42.4006
 11
0.23996
 21
42.369
  0
LINE
  8
0
 10
0.23996
 20
42.369
 11
0.233154
 21
42.3042
  0
LINE
  8
0
 10
0.233154
 20
42.3042
 11
0.226883
 21
42.2526
  0
LINE
  8
0
 10
0.226883
 20
42.2526
 11
0.21637
 21
42.1763
  0
LINE
  8
0
 10
0.21637
 20
42.1763
 11
0.20459
 21
42.0977
  0
LINE
  8
0
 10
0.20459
 20
42.0977
 11
0.190918
 21
42.0133
  0
LINE
  8
0
 10
0.190918
 20
42.0133
 11
0.176163
 21
41.9277
  0
LINE
  8
0
 10
0.176163
 20
41.9277
 11
0.158783
 21
41.8324
  0
LINE
  8
0
 10
0.158783
 20
41.8324
 11
0.139175
 21
41.7299
  0
LINE
  8
0
 10
0.139175
 20
41.7299
 11
0.118958
 21
41.629
  0
LINE
  8
0
 10
0.118958
 20
41.629
 11
0.0958557
 21
41.5178
  0
LINE
  8
0
 10
0.0958557
 20
41.5178
 11
0.0721283
 21
41.4084
  0
LINE
  8
0
 10
0.0721283
 20
41.4084
 11
0.0454865
 21
41.2893
  0
LINE
  8
0
 10
0.0454865
 20
41.2893
 11
-0.0135803
 21
41.0346
  0
LINE
  8
0
 10
-0.0135803
 20
41.0346
 11
-0.0160675
 21
41.0238
  0
LINE
  8
0
 10
-0.0160675
 20
41.0238
 11
-0.0469971
 21
40.8869
  0
LINE
  8
0
 10
-0.0469971
 20
40.8869
 11
-0.0698547
 21
40.7837
  0
LINE
  8
0
 10
-0.0698547
 20
40.7837
 11
-0.188904
 21
40.4391
  0
LINE
  8
0
 10
-0.188904
 20
40.4391
 11
-0.290833
 21
40.4978
  0
LINE
  8
0
 10
-0.290833
 20
40.4978
 11
-0.295273
 21
40.4901
  0
LINE
  8
0
 10
-0.295273
 20
40.4901
 11
-0.349869
 21
40.3781
  0
LINE
  8
0
 10
-0.349869
 20
40.3781
 11
-0.354187
 21
40.3802
  0
LINE
  8
0
 10
-0.354187
 20
40.3802
 11
-0.356949
 21
40.3746
  0
LINE
  8
0
 10
-0.356949
 20
40.3746
 11
-0.356995
 21
40.3635
  0
LINE
  8
0
 10
-0.356995
 20
40.3635
 11
-0.416214
 21
40.2421
  0
LINE
  8
0
 10
-0.416214
 20
40.2421
 11
-0.418747
 21
40.2358
  0
LINE
  8
0
 10
-0.418747
 20
40.2358
 11
-0.444321
 21
40.1693
  0
LINE
  8
0
 10
-0.444321
 20
40.1693
 11
-0.448975
 21
40.1565
  0
LINE
  8
0
 10
-0.448975
 20
40.1565
 11
-0.476685
 21
40.0749
  0
LINE
  8
0
 10
-0.476685
 20
40.0749
 11
-0.483597
 21
40.0531
  0
LINE
  8
0
 10
-0.483597
 20
40.0531
 11
-0.500275
 21
39.9975
  0
LINE
  8
0
 10
-0.500275
 20
39.9975
 11
-0.505875
 21
39.9778
  0
LINE
  8
0
 10
-0.505875
 20
39.9778
 11
-0.520294
 21
39.9242
  0
LINE
  8
0
 10
-0.520294
 20
39.9242
 11
-0.529083
 21
39.8897
  0
LINE
  8
0
 10
-0.529083
 20
39.8897
 11
-0.539948
 21
39.8449
  0
LINE
  8
0
 10
-0.539948
 20
39.8449
 11
-0.548462
 21
39.8079
  0
LINE
  8
0
 10
-0.548462
 20
39.8079
 11
-0.55629
 21
39.7724
  0
LINE
  8
0
 10
-0.55629
 20
39.7724
 11
-0.564865
 21
39.7317
  0
LINE
  8
0
 10
-0.564865
 20
39.7317
 11
-0.570343
 21
39.7048
  0
LINE
  8
0
 10
-0.570343
 20
39.7048
 11
-0.588501
 21
39.6126
  0
LINE
  8
0
 10
-0.588501
 20
39.6126
 11
-0.597382
 21
39.5698
  0
LINE
  8
0
 10
-0.597382
 20
39.5698
 11
-0.607666
 21
39.5223
  0
LINE
  8
0
 10
-0.607666
 20
39.5223
 11
-0.628937
 21
39.4269
  0
LINE
  8
0
 10
-0.628937
 20
39.4269
 11
-0.653397
 21
39.3211
  0
LINE
  8
0
 10
-0.653397
 20
39.3211
 11
-0.687759
 21
39.1769
  0
LINE
  8
0
 10
-0.687759
 20
39.1769
 11
-0.714676
 21
39.0677
  0
LINE
  8
0
 10
-0.714676
 20
39.0677
 11
-0.732254
 21
38.9972
  0
LINE
  8
0
 10
-0.732254
 20
38.9972
 11
-0.73587
 21
38.9825
  0
LINE
  8
0
 10
-0.73587
 20
38.9825
 11
-0.744659
 21
38.9461
  0
LINE
  8
0
 10
-0.744659
 20
38.9461
 11
-0.75676
 21
38.8947
  0
LINE
  8
0
 10
-0.75676
 20
38.8947
 11
-0.760712
 21
38.8776
  0
LINE
  8
0
 10
-0.760712
 20
38.8776
 11
-0.768921
 21
38.8413
  0
LINE
  8
0
 10
-0.768921
 20
38.8413
 11
-0.792389
 21
38.7348
  0
LINE
  8
0
 10
-0.792389
 20
38.7348
 11
-0.796234
 21
38.7169
  0
LINE
  8
0
 10
-0.796234
 20
38.7169
 11
-0.816147
 21
38.6223
  0
LINE
  8
0
 10
-0.816147
 20
38.6223
 11
-0.819122
 21
38.6079
  0
LINE
  8
0
 10
-0.819122
 20
38.6079
 11
-0.840912
 21
38.5004
  0
LINE
  8
0
 10
-0.840912
 20
38.5004
 11
-0.850571
 21
38.4516
  0
LINE
  8
0
 10
-0.850571
 20
38.4516
 11
-0.853134
 21
38.4384
  0
LINE
  8
0
 10
-0.853134
 20
38.4384
 11
-0.87204
 21
38.3393
  0
LINE
  8
0
 10
-0.87204
 20
38.3393
 11
-0.874542
 21
38.3259
  0
LINE
  8
0
 10
-0.874542
 20
38.3259
 11
-0.884857
 21
38.2697
  0
LINE
  8
0
 10
-0.884857
 20
38.2697
 11
-0.902313
 21
38.1724
  0
LINE
  8
0
 10
-0.902313
 20
38.1724
 11
-0.905899
 21
38.1517
  0
LINE
  8
0
 10
-0.905899
 20
38.1517
 11
-0.919708
 21
38.0698
  0
LINE
  8
0
 10
-0.919708
 20
38.0698
 11
-0.922516
 21
38.0527
  0
LINE
  8
0
 10
-0.922516
 20
38.0527
 11
-0.936615
 21
37.9644
  0
LINE
  8
0
 10
-0.936615
 20
37.9644
 11
-0.939331
 21
37.9468
  0
LINE
  8
0
 10
-0.939331
 20
37.9468
 11
-0.954361
 21
37.847
  0
LINE
  8
0
 10
-0.954361
 20
37.847
 11
-0.969055
 21
37.7516
  0
LINE
  8
0
 10
-0.969055
 20
37.7516
 11
-0.983154
 21
37.662
  0
LINE
  8
0
 10
-0.983154
 20
37.662
 11
-0.995941
 21
37.5818
  0
LINE
  8
0
 10
-0.995941
 20
37.5818
 11
-1.00752
 21
37.511
  0
LINE
  8
0
 10
-1.00752
 20
37.511
 11
-1.01909
 21
37.4421
  0
LINE
  8
0
 10
-1.01909
 20
37.4421
 11
-1.02888
 21
37.3857
  0
LINE
  8
0
 10
-1.02888
 20
37.3857
 11
-1.03798
 21
37.3354
  0
LINE
  8
0
 10
-1.03798
 20
37.3354
 11
-1.04628
 21
37.2917
  0
LINE
  8
0
 10
-1.04628
 20
37.2917
 11
-1.05351
 21
37.2553
  0
LINE
  8
0
 10
-1.05351
 20
37.2553
 11
-1.05846
 21
37.2322
  0
LINE
  8
0
 10
-1.05846
 20
37.2322
 11
-1.06418
 21
37.2069
  0
LINE
  8
0
 10
-1.06418
 20
37.2069
 11
-1.06671
 21
37.1966
  0
LINE
  8
0
 10
-1.06671
 20
37.1966
 11
-1.06859
 21
37.1906
  0
LINE
  8
0
 10
-1.06859
 20
37.1906
 11
-1.06853
 21
37.1906
  0
LINE
  8
0
 10
-1.06853
 20
37.1906
 11
-1.13512
 21
37.0193
  0
LINE
  8
0
 10
-1.13512
 20
37.0193
 11
-1.14085
 21
37.0005
  0
LINE
  8
0
 10
-1.14085
 20
37.0005
 11
-1.16109
 21
36.9294
  0
LINE
  8
0
 10
-1.16109
 20
36.9294
 11
-1.16698
 21
36.9072
  0
LINE
  8
0
 10
-1.16698
 20
36.9072
 11
-1.1813
 21
36.8496
  0
LINE
  8
0
 10
-1.1813
 20
36.8496
 11
-1.18938
 21
36.815
  0
LINE
  8
0
 10
-1.18938
 20
36.815
 11
-1.19896
 21
36.7717
  0
LINE
  8
0
 10
-1.19896
 20
36.7717
 11
-1.2028
 21
36.7534
  0
LINE
  8
0
 10
-1.2028
 20
36.7534
 11
-1.20708
 21
36.7325
  0
LINE
  8
0
 10
-1.20708
 20
36.7325
 11
-1.21428
 21
36.6963
  0
LINE
  8
0
 10
-1.21428
 20
36.6963
 11
-1.22256
 21
36.652
  0
LINE
  8
0
 10
-1.22256
 20
36.652
 11
-1.22919
 21
36.6143
  0
LINE
  8
0
 10
-1.22919
 20
36.6143
 11
-1.23431
 21
36.5837
  0
LINE
  8
0
 10
-1.23431
 20
36.5837
 11
-1.23766
 21
36.5628
  0
LINE
  8
0
 10
-1.23766
 20
36.5628
 11
-1.2426
 21
36.5301
  0
LINE
  8
0
 10
-1.2426
 20
36.5301
 11
-1.24776
 21
36.494
  0
LINE
  8
0
 10
-1.24776
 20
36.494
 11
-1.25284
 21
36.4557
  0
LINE
  8
0
 10
-1.25284
 20
36.4557
 11
-1.25589
 21
36.4309
  0
LINE
  8
0
 10
-1.25589
 20
36.4309
 11
-1.25864
 21
36.4075
  0
LINE
  8
0
 10
-1.25864
 20
36.4075
 11
-1.27931
 21
36.2216
  0
LINE
  8
0
 10
-1.27931
 20
36.2216
 11
-1.29755
 21
36.0678
  0
LINE
  8
0
 10
-1.29755
 20
36.0678
 11
-1.30666
 21
35.995
  0
LINE
  8
0
 10
-1.30666
 20
35.995
 11
-1.31578
 21
35.9243
  0
LINE
  8
0
 10
-1.31578
 20
35.9243
 11
-1.32465
 21
35.8578
  0
LINE
  8
0
 10
-1.32465
 20
35.8578
 11
-1.33391
 21
35.7916
  0
LINE
  8
0
 10
-1.33391
 20
35.7916
 11
-1.34294
 21
35.7285
  0
LINE
  8
0
 10
-1.34294
 20
35.7285
 11
-1.35219
 21
35.667
  0
LINE
  8
0
 10
-1.35219
 20
35.667
 11
-1.36104
 21
35.6098
  0
LINE
  8
0
 10
-1.36104
 20
35.6098
 11
-1.37004
 21
35.5542
  0
LINE
  8
0
 10
-1.37004
 20
35.5542
 11
-1.3786
 21
35.5033
  0
LINE
  8
0
 10
-1.3786
 20
35.5033
 11
-1.38776
 21
35.4511
  0
LINE
  8
0
 10
-1.38776
 20
35.4511
 11
-1.39635
 21
35.4043
  0
LINE
  8
0
 10
-1.39635
 20
35.4043
 11
-1.40489
 21
35.3596
  0
LINE
  8
0
 10
-1.40489
 20
35.3596
 11
-1.41356
 21
35.3164
  0
LINE
  8
0
 10
-1.41356
 20
35.3164
 11
-1.42097
 21
35.281
  0
LINE
  8
0
 10
-1.42097
 20
35.281
 11
-1.42905
 21
35.2445
  0
LINE
  8
0
 10
-1.42905
 20
35.2445
 11
-1.44569
 21
35.1728
  0
LINE
  8
0
 10
-1.44569
 20
35.1728
 11
-1.4493
 21
35.157
  0
LINE
  8
0
 10
-1.4493
 20
35.157
 11
-1.45845
 21
35.1161
  0
LINE
  8
0
 10
-1.45845
 20
35.1161
 11
-1.46266
 21
35.0968
  0
LINE
  8
0
 10
-1.46266
 20
35.0968
 11
-1.46826
 21
35.0706
  0
LINE
  8
0
 10
-1.46826
 20
35.0706
 11
-1.47568
 21
35.0342
  0
LINE
  8
0
 10
-1.47568
 20
35.0342
 11
-1.47997
 21
35.0121
  0
LINE
  8
0
 10
-1.47997
 20
35.0121
 11
-1.48837
 21
34.9659
  0
LINE
  8
0
 10
-1.48837
 20
34.9659
 11
-1.49187
 21
34.9453
  0
LINE
  8
0
 10
-1.49187
 20
34.9453
 11
-1.4994
 21
34.8974
  0
LINE
  8
0
 10
-1.4994
 20
34.8974
 11
-1.50093
 21
34.8869
  0
LINE
  8
0
 10
-1.50093
 20
34.8869
 11
-1.50819
 21
34.8312
  0
LINE
  8
0
 10
-1.50819
 20
34.8312
 11
-1.50935
 21
34.8213
  0
LINE
  8
0
 10
-1.50935
 20
34.8213
 11
-1.38934
 21
33.8718
  0
LINE
  8
0
 10
-1.38934
 20
33.8718
 11
-1.3868
 21
33.8652
  0
LINE
  8
0
 10
-1.3868
 20
33.8652
 11
-1.36859
 21
33.8196
  0
LINE
  8
0
 10
-1.36859
 20
33.8196
 11
-1.36118
 21
33.8016
  0
LINE
  8
0
 10
-1.36118
 20
33.8016
 11
-1.33765
 21
33.747
  0
LINE
  8
0
 10
-1.33765
 20
33.747
 11
-1.33183
 21
33.734
  0
LINE
  8
0
 10
-1.33183
 20
33.734
 11
-1.33127
 21
33.7318
  0
LINE
  8
0
 10
-1.33127
 20
33.7318
 11
-1.32979
 21
33.7254
  0
LINE
  8
0
 10
-1.32979
 20
33.7254
 11
-1.32933
 21
33.7231
  0
LINE
  8
0
 10
-1.32933
 20
33.7231
 11
-1.31725
 21
33.5355
  0
LINE
  8
0
 10
-1.31725
 20
33.5355
 11
-1.30423
 21
33.3388
  0
LINE
  8
0
 10
-1.30423
 20
33.3388
 11
-1.29178
 21
33.1555
  0
LINE
  8
0
 10
-1.29178
 20
33.1555
 11
-1.27956
 21
32.9841
  0
LINE
  8
0
 10
-1.27956
 20
32.9841
 11
-1.26807
 21
32.8305
  0
LINE
  8
0
 10
-1.26807
 20
32.8305
 11
-1.25752
 21
32.6972
  0
LINE
  8
0
 10
-1.25752
 20
32.6972
 11
-1.25653
 21
32.6852
  0
LINE
  8
0
 10
-1.25653
 20
32.6852
 11
-1.24628
 21
32.5648
  0
LINE
  8
0
 10
-1.24628
 20
32.5648
 11
-1.24506
 21
32.551
  0
LINE
  8
0
 10
-1.24506
 20
32.551
 11
-1.23453
 21
32.4368
  0
LINE
  8
0
 10
-1.23453
 20
32.4368
 11
-1.23248
 21
32.4159
  0
LINE
  8
0
 10
-1.23248
 20
32.4159
 11
-1.22339
 21
32.3274
  0
LINE
  8
0
 10
-1.22339
 20
32.3274
 11
-1.22112
 21
32.3064
  0
LINE
  8
0
 10
-1.22112
 20
32.3064
 11
-1.21043
 21
32.2123
  0
LINE
  8
0
 10
-1.21043
 20
32.2123
 11
-1.20685
 21
32.1826
  0
LINE
  8
0
 10
-1.20685
 20
32.1826
 11
-1.19827
 21
32.116
  0
LINE
  8
0
 10
-1.19827
 20
32.116
 11
-1.19319
 21
32.0791
  0
LINE
  8
0
 10
-1.19319
 20
32.0791
 11
-1.18336
 21
32.0125
  0
LINE
  8
0
 10
-1.18336
 20
32.0125
 11
-1.17685
 21
31.9714
  0
LINE
  8
0
 10
-1.17685
 20
31.9714
 11
-1.1693
 21
31.9267
  0
LINE
  8
0
 10
-1.1693
 20
31.9267
 11
-1.15987
 21
31.875
  0
LINE
  8
0
 10
-1.15987
 20
31.875
 11
-1.14948
 21
31.822
  0
LINE
  8
0
 10
-1.14948
 20
31.822
 11
-1.13562
 21
31.7571
  0
LINE
  8
0
 10
-1.13562
 20
31.7571
 11
-1.12871
 21
31.7271
  0
LINE
  8
0
 10
-1.12871
 20
31.7271
 11
-1.11047
 21
31.6544
  0
LINE
  8
0
 10
-1.11047
 20
31.6544
 11
-1.10292
 21
31.6265
  0
LINE
  8
0
 10
-1.10292
 20
31.6265
 11
-1.07497
 21
31.5324
  0
LINE
  8
0
 10
-1.07497
 20
31.5324
 11
-1.07176
 21
31.5225
  0
LINE
  8
0
 10
-1.07176
 20
31.5225
 11
-0.593033
 21
31.021
  0
LINE
  8
0
 10
-0.593033
 20
31.021
 11
-0.59668
 21
31.0184
  0
LINE
  8
0
 10
-0.59668
 20
31.0184
 11
-0.25
 21
30.5327
  0
LINE
  8
0
 10
-0.25
 20
30.5327
 11
-0.00984192
 21
30.2888
  0
LINE
  8
0
 10
-0.00984192
 20
30.2888
 11
-0.00889587
 21
30.2821
  0
LINE
  8
0
 10
-0.00889587
 20
30.2821
 11
-0.0058136
 21
30.2613
  0
LINE
  8
0
 10
-0.0058136
 20
30.2613
 11
0.00386047
 21
30.1983
  0
LINE
  8
0
 10
0.00386047
 20
30.1983
 11
0.00704956
 21
30.1782
  0
LINE
  8
0
 10
0.00704956
 20
30.1782
 11
0.013443
 21
30.1392
  0
LINE
  8
0
 10
0.013443
 20
30.1392
 11
0.0161591
 21
30.1232
  0
LINE
  8
0
 10
0.0161591
 20
30.1232
 11
0.0270691
 21
30.0599
  0
LINE
  8
0
 10
0.0270691
 20
30.0599
 11
0.0310669
 21
30.0375
  0
LINE
  8
0
 10
0.0310669
 20
30.0375
 11
0.0450897
 21
29.9614
  0
LINE
  8
0
 10
0.0450897
 20
29.9614
 11
0.0493927
 21
29.9388
  0
LINE
  8
0
 10
0.0493927
 20
29.9388
 11
0.0626984
 21
29.871
  0
LINE
  8
0
 10
0.0626984
 20
29.871
 11
0.0671844
 21
29.8488
  0
LINE
  8
0
 10
0.0671844
 20
29.8488
 11
0.0722046
 21
29.8246
  0
LINE
  8
0
 10
0.0722046
 20
29.8246
 11
0.0755157
 21
29.8089
  0
LINE
  8
0
 10
0.0755157
 20
29.8089
 11
0.0818176
 21
29.7798
  0
LINE
  8
0
 10
0.0818176
 20
29.7798
 11
0.0804749
 21
29.7671
  0
LINE
  8
0
 10
0.0804749
 20
29.7671
 11
0.0877991
 21
29.7522
  0
LINE
  8
0
 10
0.0877991
 20
29.7522
 11
0.0899048
 21
29.7424
  0
LINE
  8
0
 10
0.0899048
 20
29.7424
 11
0.0968323
 21
29.7116
  0
LINE
  8
0
 10
0.0968323
 20
29.7116
 11
0.109482
 21
29.6573
  0
LINE
  8
0
 10
0.109482
 20
29.6573
 11
0.115768
 21
29.6311
  0
LINE
  8
0
 10
0.115768
 20
29.6311
 11
0.122452
 21
29.604
  0
LINE
  8
0
 10
0.122452
 20
29.604
 11
0.132141
 21
29.5665
  0
LINE
  8
0
 10
0.132141
 20
29.5665
 11
0.141235
 21
29.5325
  0
LINE
  8
0
 10
0.141235
 20
29.5325
 11
0.149384
 21
29.503
  0
LINE
  8
0
 10
0.149384
 20
29.503
 11
0.160278
 21
29.4647
  0
LINE
  8
0
 10
0.160278
 20
29.4647
 11
0.167633
 21
29.4394
  0
LINE
  8
0
 10
0.167633
 20
29.4394
 11
0.173233
 21
29.4207
  0
LINE
  8
0
 10
0.173233
 20
29.4207
 11
0.181534
 21
29.3936
  0
LINE
  8
0
 10
0.181534
 20
29.3936
 11
0.190186
 21
29.366
  0
LINE
  8
0
 10
0.190186
 20
29.366
 11
0.202393
 21
29.3285
  0
LINE
  8
0
 10
0.202393
 20
29.3285
 11
0.208939
 21
29.309
  0
LINE
  8
0
 10
0.208939
 20
29.309
 11
0.236282
 21
29.2328
  0
LINE
  8
0
 10
0.236282
 20
29.2328
 11
0.241302
 21
29.2196
  0
LINE
  8
0
 10
0.241302
 20
29.2196
 11
0.284332
 21
29.1235
  0
LINE
  8
0
 10
0.284332
 20
29.1235
 11
0.286209
 21
29.1114
  0
LINE
  8
0
 10
0.286209
 20
29.1114
 11
0.288315
 21
29.1067
  0
LINE
  8
0
 10
0.288315
 20
29.1067
 11
0.291306
 21
29.108
  0
LINE
  8
0
 10
0.291306
 20
29.108
 11
0.33374
 21
29.0133
  0
LINE
  8
0
 10
0.33374
 20
29.0133
 11
0.336639
 21
29.0077
  0
LINE
  8
0
 10
0.336639
 20
29.0077
 11
0.429276
 21
29.0556
  0
LINE
  8
0
 10
0.429276
 20
29.0556
 11
0.832809
 21
28.2325
  0
LINE
  8
0
 10
0.832809
 20
28.2325
 11
0.832916
 21
28.2312
  0
LINE
  8
0
 10
0.832916
 20
28.2312
 11
0.835098
 21
28.2278
  0
LINE
  8
0
 10
0.835098
 20
28.2278
 11
1.01782
 21
27.8551
  0
LINE
  8
0
 10
1.01782
 20
27.8551
 11
1.11298
 21
27.7963
  0
LINE
  8
0
 10
1.11298
 20
27.7963
 11
1.328
 21
27.4623
  0
LINE
  8
0
 10
1.328
 20
27.4623
 11
1.24026
 21
27.4531
  0
LINE
  8
0
 10
1.24026
 20
27.4531
 11
1.2415
 21
27.4414
  0
LINE
  8
0
 10
1.2415
 20
27.4414
 11
1.26492
 21
27.4008
  0
LINE
  8
0
 10
1.26492
 20
27.4008
 11
1.2467
 21
27.3982
  0
LINE
  8
0
 10
1.2467
 20
27.3982
 11
1.24911
 21
27.3812
  0
LINE
  8
0
 10
1.24911
 20
27.3812
 11
1.2583
 21
27.3825
  0
LINE
  8
0
 10
1.2583
 20
27.3825
 11
1.24869
 21
27.3808
  0
LINE
  8
0
 10
1.24869
 20
27.3808
 11
1.2569
 21
27.334
  0
LINE
  8
0
 10
1.2569
 20
27.334
 11
1.25735
 21
27.334
  0
LINE
  8
0
 10
1.25735
 20
27.334
 11
1.26022
 21
27.3204
  0
LINE
  8
0
 10
1.26022
 20
27.3204
 11
1.2599
 21
27.3203
  0
LINE
  8
0
 10
1.2599
 20
27.3203
 11
1.26892
 21
27.2825
  0
LINE
  8
0
 10
1.26892
 20
27.2825
 11
1.26923
 21
27.2826
  0
LINE
  8
0
 10
1.26923
 20
27.2826
 11
1.26974
 21
27.2807
  0
LINE
  8
0
 10
1.26974
 20
27.2807
 11
1.26945
 21
27.2806
  0
LINE
  8
0
 10
1.26945
 20
27.2806
 11
1.27278
 21
27.2693
  0
LINE
  8
0
 10
1.27278
 20
27.2693
 11
1.27312
 21
27.2681
  0
LINE
  8
0
 10
1.27312
 20
27.2681
 11
1.27315
 21
27.2681
  0
LINE
  8
0
 10
1.27315
 20
27.2681
 11
1.27998
 21
27.2449
  0
LINE
  8
0
 10
1.27998
 20
27.2449
 11
1.28024
 21
27.2449
  0
LINE
  8
0
 10
1.28024
 20
27.2449
 11
1.28302
 21
27.2364
  0
LINE
  8
0
 10
1.28302
 20
27.2364
 11
1.28282
 21
27.2363
  0
LINE
  8
0
 10
1.28282
 20
27.2363
 11
1.28647
 21
27.2259
  0
LINE
  8
0
 10
1.28647
 20
27.2259
 11
1.2863
 21
27.2258
  0
LINE
  8
0
 10
1.2863
 20
27.2258
 11
1.28888
 21
27.2189
  0
LINE
  8
0
 10
1.28888
 20
27.2189
 11
1.2887
 21
27.2189
  0
LINE
  8
0
 10
1.2887
 20
27.2189
 11
1.29094
 21
27.2132
  0
LINE
  8
0
 10
1.29094
 20
27.2132
 11
1.29344
 21
27.2061
  0
LINE
  8
0
 10
1.29344
 20
27.2061
 11
1.29367
 21
27.2061
  0
LINE
  8
0
 10
1.29367
 20
27.2061
 11
1.29669
 21
27.1981
  0
LINE
  8
0
 10
1.29669
 20
27.1981
 11
1.29688
 21
27.1981
  0
LINE
  8
0
 10
1.29688
 20
27.1981
 11
1.29953
 21
27.1915
  0
LINE
  8
0
 10
1.29953
 20
27.1915
 11
1.29967
 21
27.1915
  0
LINE
  8
0
 10
1.29967
 20
27.1915
 11
1.30006
 21
27.1906
  0
LINE
  8
0
 10
1.30006
 20
27.1906
 11
1.29985
 21
27.1905
  0
LINE
  8
0
 10
1.29985
 20
27.1905
 11
1.30396
 21
27.1814
  0
LINE
  8
0
 10
1.30396
 20
27.1814
 11
1.30606
 21
27.1764
  0
LINE
  8
0
 10
1.30606
 20
27.1764
 11
1.30617
 21
27.1764
  0
LINE
  8
0
 10
1.30617
 20
27.1764
 11
1.30656
 21
27.1755
  0
LINE
  8
0
 10
1.30656
 20
27.1755
 11
1.30643
 21
27.1755
  0
LINE
  8
0
 10
1.30643
 20
27.1755
 11
1.30934
 21
27.1694
  0
LINE
  8
0
 10
1.30934
 20
27.1694
 11
1.31329
 21
27.1606
  0
LINE
  8
0
 10
1.31329
 20
27.1606
 11
1.31343
 21
27.1606
  0
LINE
  8
0
 10
1.31343
 20
27.1606
 11
1.31436
 21
27.1588
  0
LINE
  8
0
 10
1.31436
 20
27.1588
 11
1.31416
 21
27.1587
  0
LINE
  8
0
 10
1.31416
 20
27.1587
 11
1.31735
 21
27.1526
  0
LINE
  8
0
 10
1.31735
 20
27.1526
 11
1.31944
 21
27.1482
  0
LINE
  8
0
 10
1.31944
 20
27.1482
 11
1.31961
 21
27.1483
  0
LINE
  8
0
 10
1.31961
 20
27.1483
 11
1.32013
 21
27.1473
  0
LINE
  8
0
 10
1.32013
 20
27.1473
 11
1.31998
 21
27.1472
  0
LINE
  8
0
 10
1.31998
 20
27.1472
 11
1.32222
 21
27.1431
  0
LINE
  8
0
 10
1.32222
 20
27.1431
 11
1.32457
 21
27.1385
  0
LINE
  8
0
 10
1.32457
 20
27.1385
 11
1.32471
 21
27.1385
  0
LINE
  8
0
 10
1.32471
 20
27.1385
 11
1.32542
 21
27.1371
  0
LINE
  8
0
 10
1.32542
 20
27.1371
 11
1.32535
 21
27.1371
  0
LINE
  8
0
 10
1.32535
 20
27.1371
 11
1.32652
 21
27.1351
  0
LINE
  8
0
 10
1.32652
 20
27.1351
 11
1.32776
 21
27.1327
  0
LINE
  8
0
 10
1.32776
 20
27.1327
 11
1.32785
 21
27.1328
  0
LINE
  8
0
 10
1.32785
 20
27.1328
 11
1.32945
 21
27.13
  0
LINE
  8
0
 10
1.32945
 20
27.13
 11
1.32927
 21
27.1299
  0
LINE
  8
0
 10
1.32927
 20
27.1299
 11
1.33217
 21
27.1251
  0
LINE
  8
0
 10
1.33217
 20
27.1251
 11
1.33415
 21
27.1215
  0
LINE
  8
0
 10
1.33415
 20
27.1215
 11
1.33429
 21
27.1216
  0
LINE
  8
0
 10
1.33429
 20
27.1216
 11
1.33493
 21
27.1205
  0
LINE
  8
0
 10
1.33493
 20
27.1205
 11
1.33945
 21
27.1127
  0
LINE
  8
0
 10
1.33945
 20
27.1127
 11
1.3396
 21
27.1128
  0
LINE
  8
0
 10
1.3396
 20
27.1128
 11
1.3398
 21
27.1124
  0
LINE
  8
0
 10
1.3398
 20
27.1124
 11
1.33974
 21
27.1124
  0
LINE
  8
0
 10
1.33974
 20
27.1124
 11
1.34161
 21
27.1094
  0
LINE
  8
0
 10
1.34161
 20
27.1094
 11
1.34497
 21
27.1039
  0
LINE
  8
0
 10
1.34497
 20
27.1039
 11
1.34511
 21
27.1039
  0
LINE
  8
0
 10
1.34511
 20
27.1039
 11
1.34741
 21
27.1003
  0
LINE
  8
0
 10
1.34741
 20
27.1003
 11
1.34721
 21
27.1002
  0
LINE
  8
0
 10
1.34721
 20
27.1002
 11
1.35262
 21
27.0921
  0
LINE
  8
0
 10
1.35262
 20
27.0921
 11
1.35406
 21
27.0898
  0
LINE
  8
0
 10
1.35406
 20
27.0898
 11
1.35413
 21
27.0899
  0
LINE
  8
0
 10
1.35413
 20
27.0899
 11
1.35855
 21
27.0833
  0
LINE
  8
0
 10
1.35855
 20
27.0833
 11
1.35851
 21
27.0832
  0
LINE
  8
0
 10
1.35851
 20
27.0832
 11
1.36005
 21
27.081
  0
LINE
  8
0
 10
1.36005
 20
27.081
 11
1.36581
 21
27.0724
  0
LINE
  8
0
 10
1.36581
 20
27.0724
 11
1.36601
 21
27.0726
  0
LINE
  8
0
 10
1.36601
 20
27.0726
 11
1.3663
 21
27.0721
  0
LINE
  8
0
 10
1.3663
 20
27.0721
 11
1.36613
 21
27.072
  0
LINE
  8
0
 10
1.36613
 20
27.072
 11
1.37141
 21
27.0649
  0
LINE
  8
0
 10
1.37141
 20
27.0649
 11
1.37297
 21
27.0627
  0
LINE
  8
0
 10
1.37297
 20
27.0627
 11
1.37302
 21
27.0627
  0
LINE
  8
0
 10
1.37302
 20
27.0627
 11
1.38512
 21
27.0463
  0
LINE
  8
0
 10
1.38512
 20
27.0463
 11
1.3853
 21
27.0464
  0
LINE
  8
0
 10
1.3853
 20
27.0464
 11
1.39024
 21
27.04
  0
LINE
  8
0
 10
1.39024
 20
27.04
 11
1.38997
 21
27.0398
  0
LINE
  8
0
 10
1.38997
 20
27.0398
 11
1.41687
 21
27.0071
  0
LINE
  8
0
 10
1.41687
 20
27.0071
 11
1.41718
 21
27.0073
  0
LINE
  8
0
 10
1.41718
 20
27.0073
 11
1.42657
 21
26.9965
  0
LINE
  8
0
 10
1.42657
 20
26.9965
 11
1.4603
 21
27.0259
  0
LINE
  8
0
 10
1.4603
 20
27.0259
 11
1.42722
 21
26.995
  0
LINE
  8
0
 10
1.42722
 20
26.995
 11
1.46059
 21
26.9593
  0
LINE
  8
0
 10
1.46059
 20
26.9593
 11
1.49919
 21
26.9953
  0
LINE
  8
0
 10
1.49919
 20
26.9953
 11
1.50378
 21
26.9873
  0
LINE
  8
0
 10
1.50378
 20
26.9873
 11
1.46851
 21
26.952
  0
LINE
  8
0
 10
1.46851
 20
26.952
 11
1.47534
 21
26.9452
  0
LINE
  8
0
 10
1.47534
 20
26.9452
 11
1.50879
 21
26.9787
  0
LINE
  8
0
 10
1.50879
 20
26.9787
 11
1.84776
 21
26.3919
  0
LINE
  8
0
 10
1.84776
 20
26.3919
 11
1.83066
 21
26.3798
  0
LINE
  8
0
 10
1.83066
 20
26.3798
 11
1.96156
 21
26.1949
  0
LINE
  8
0
 10
1.96156
 20
26.1949
 11
2.05609
 21
26.0312
  0
LINE
  8
0
 10
2.05609
 20
26.0312
 11
2.07764
 21
26.0156
  0
LINE
  8
0
 10
2.07764
 20
26.0156
 11
2.12523
 21
25.9119
  0
LINE
  8
0
 10
2.12523
 20
25.9119
 11
2.13251
 21
25.8973
  0
LINE
  8
0
 10
2.13251
 20
25.8973
 11
2.1813
 21
25.8053
  0
LINE
  8
0
 10
2.1813
 20
25.8053
 11
2.18857
 21
25.7925
  0
LINE
  8
0
 10
2.18857
 20
25.7925
 11
2.25294
 21
25.6863
  0
LINE
  8
0
 10
2.25294
 20
25.6863
 11
2.26225
 21
25.672
  0
LINE
  8
0
 10
2.26225
 20
25.672
 11
2.32327
 21
25.5833
  0
LINE
  8
0
 10
2.32327
 20
25.5833
 11
2.33148
 21
25.5721
  0
LINE
  8
0
 10
2.33148
 20
25.5721
 11
2.40916
 21
25.4723
  0
LINE
  8
0
 10
2.40916
 20
25.4723
 11
2.41702
 21
25.4629
  0
LINE
  8
0
 10
2.41702
 20
25.4629
 11
2.4976
 21
25.3716
  0
LINE
  8
0
 10
2.4976
 20
25.3716
 11
2.50749
 21
25.3611
  0
LINE
  8
0
 10
2.50749
 20
25.3611
 11
2.5928
 21
25.2756
  0
LINE
  8
0
 10
2.5928
 20
25.2756
 11
2.59767
 21
25.271
  0
LINE
  8
0
 10
2.59767
 20
25.271
 11
2.68001
 21
25.1991
  0
LINE
  8
0
 10
2.68001
 20
25.1991
 11
2.70471
 21
25.1644
  0
LINE
  8
0
 10
2.70471
 20
25.1644
 11
3.06383
 21
24.8639
  0
LINE
  8
0
 10
3.06383
 20
24.8639
 11
3.15428
 21
24.841
  0
LINE
  8
0
 10
3.15428
 20
24.841
 11
3.20102
 21
24.8037
  0
LINE
  8
0
 10
3.20102
 20
24.8037
 11
3.20555
 21
24.8029
  0
LINE
  8
0
 10
3.20555
 20
24.8029
 11
3.21033
 21
24.7963
  0
LINE
  8
0
 10
3.21033
 20
24.7963
 11
3.21446
 21
24.793
  0
LINE
  8
0
 10
3.21446
 20
24.793
 11
3.52563
 21
24.7198
  0
LINE
  8
0
 10
3.52563
 20
24.7198
 11
3.68457
 21
24.5316
  0
LINE
  8
0
 10
3.68457
 20
24.5316
 11
3.71059
 21
24.5323
  0
LINE
  8
0
 10
3.71059
 20
24.5323
 11
3.74844
 21
24.4915
  0
LINE
  8
0
 10
3.74844
 20
24.4915
 11
3.94719
 21
24.5063
  0
LINE
  8
0
 10
3.94719
 20
24.5063
 11
3.9454
 21
24.5016
  0
LINE
  8
0
 10
3.9454
 20
24.5016
 11
3.96359
 21
24.4946
  0
LINE
  8
0
 10
3.96359
 20
24.4946
 11
3.96684
 21
24.503
  0
LINE
  8
0
 10
3.96684
 20
24.503
 11
4.00706
 21
24.4588
  0
LINE
  8
0
 10
4.00706
 20
24.4588
 11
4.01697
 21
24.4588
  0
LINE
  8
0
 10
4.01697
 20
24.4588
 11
4.01747
 21
24.448
  0
LINE
  8
0
 10
4.01747
 20
24.448
 11
4.02155
 21
24.3833
  0
LINE
  8
0
 10
4.02155
 20
24.3833
 11
4.02518
 21
24.3374
  0
LINE
  8
0
 10
4.02518
 20
24.3374
 11
4.03261
 21
24.2618
  0
LINE
  8
0
 10
4.03261
 20
24.2618
 11
4.03624
 21
24.2309
  0
LINE
  8
0
 10
4.03624
 20
24.2309
 11
4.05145
 21
24.1257
  0
LINE
  8
0
 10
4.05145
 20
24.1257
 11
4.0551
 21
24.1044
  0
LINE
  8
0
 10
4.0551
 20
24.1044
 11
4.07764
 21
23.9925
  0
LINE
  8
0
 10
4.07764
 20
23.9925
 11
4.08112
 21
23.9775
  0
LINE
  8
0
 10
4.08112
 20
23.9775
 11
4.11859
 21
23.8761
  0
LINE
  8
0
 10
4.11859
 20
23.8761
 11
4.11844
 21
23.8394
  0
LINE
  8
0
 10
4.11844
 20
23.8394
 11
4.11902
 21
23.8375
  0
LINE
  8
0
 10
4.11902
 20
23.8375
 11
4.13147
 21
23.8412
  0
LINE
  8
0
 10
4.13147
 20
23.8412
 11
4.17032
 21
23.7361
  0
LINE
  8
0
 10
4.17032
 20
23.7361
 11
4.17497
 21
23.6792
  0
LINE
  8
0
 10
4.17497
 20
23.6792
 11
4.17891
 21
23.6694
  0
LINE
  8
0
 10
4.17891
 20
23.6694
 11
4.19292
 21
23.6749
  0
LINE
  8
0
 10
4.19292
 20
23.6749
 11
4.25635
 21
23.5033
  0
LINE
  8
0
 10
4.25635
 20
23.5033
 11
4.26079
 21
23.4948
  0
LINE
  8
0
 10
4.26079
 20
23.4948
 11
4.28241
 21
23.506
  0
LINE
  8
0
 10
4.28241
 20
23.506
 11
4.3241
 21
23.2427
  0
LINE
  8
0
 10
4.3241
 20
23.2427
 11
5.29042
 21
22.4999
  0
LINE
  8
0
 10
5.29042
 20
22.4999
 11
5.66075
 21
22.3665
  0
LINE
  8
0
 10
5.66075
 20
22.3665
 11
5.67561
 21
22.3181
  0
LINE
  8
0
 10
5.67561
 20
22.3181
 11
5.69537
 21
22.257
  0
LINE
  8
0
 10
5.69537
 20
22.257
 11
5.71365
 21
22.2031
  0
LINE
  8
0
 10
5.71365
 20
22.2031
 11
5.73372
 21
22.1467
  0
LINE
  8
0
 10
5.73372
 20
22.1467
 11
5.74957
 21
22.1036
  0
LINE
  8
0
 10
5.74957
 20
22.1036
 11
5.77248
 21
22.0436
  0
LINE
  8
0
 10
5.77248
 20
22.0436
 11
5.791
 21
21.9968
  0
LINE
  8
0
 10
5.791
 20
21.9968
 11
5.81433
 21
21.9399
  0
LINE
  8
0
 10
5.81433
 20
21.9399
 11
5.83197
 21
21.8983
  0
LINE
  8
0
 10
5.83197
 20
21.8983
 11
5.85844
 21
21.8377
  0
LINE
  8
0
 10
5.85844
 20
21.8377
 11
5.87613
 21
21.7984
  0
LINE
  8
0
 10
5.87613
 20
21.7984
 11
5.90309
 21
21.7402
  0
LINE
  8
0
 10
5.90309
 20
21.7402
 11
5.92371
 21
21.6971
  0
LINE
  8
0
 10
5.92371
 20
21.6971
 11
5.95592
 21
21.6316
  0
LINE
  8
0
 10
5.95592
 20
21.6316
 11
5.97403
 21
21.5958
  0
LINE
  8
0
 10
5.97403
 20
21.5958
 11
5.99823
 21
21.549
  0
LINE
  8
0
 10
5.99823
 20
21.549
 11
7.38577
 21
20.5065
  0
LINE
  8
0
 10
7.38577
 20
20.5065
 11
7.51532
 21
20.5401
  0
LINE
  8
0
 10
7.51532
 20
20.5401
 11
7.50604
 21
20.4059
  0
LINE
  8
0
 10
7.50604
 20
20.4059
 11
7.56932
 21
20.3467
  0
LINE
  8
0
 10
7.56932
 20
20.3467
 11
7.57365
 21
20.2231
  0
LINE
  8
0
 10
7.57365
 20
20.2231
 11
7.60591
 21
20.196
  0
LINE
  8
0
 10
7.60591
 20
20.196
 11
7.62457
 21
20.0625
  0
LINE
  8
0
 10
7.62457
 20
20.0625
 11
7.69807
 21
20.007
  0
LINE
  8
0
 10
7.69807
 20
20.007
 11
7.71959
 21
19.9163
  0
LINE
  8
0
 10
7.71959
 20
19.9163
 11
7.87
 21
19.8135
  0
LINE
  8
0
 10
7.87
 20
19.8135
 11
7.87729
 21
19.7941
  0
LINE
  8
0
 10
7.87729
 20
19.7941
 11
7.97409
 21
19.7424
  0
LINE
  8
0
 10
7.97409
 20
19.7424
 11
8.24304
 21
19.5587
  0
LINE
  8
0
 10
8.24304
 20
19.5587
 11
8.23947
 21
19.5537
  0
LINE
  8
0
 10
8.23947
 20
19.5537
 11
8.27821
 21
19.526
  0
LINE
  8
0
 10
8.27821
 20
19.526
 11
8.28233
 21
19.5318
  0
LINE
  8
0
 10
8.28233
 20
19.5318
 11
8.38919
 21
19.4588
  0
LINE
  8
0
 10
8.38919
 20
19.4588
 11
8.38766
 21
19.4561
  0
LINE
  8
0
 10
8.38766
 20
19.4561
 11
8.39647
 21
19.4511
  0
LINE
  8
0
 10
8.39647
 20
19.4511
 11
8.39758
 21
19.4531
  0
LINE
  8
0
 10
8.39758
 20
19.4531
 11
8.66318
 21
19.2717
  0
LINE
  8
0
 10
8.66318
 20
19.2717
 11
8.67
 21
19.2695
  0
LINE
  8
0
 10
8.67
 20
19.2695
 11
8.67392
 21
19.27
  0
LINE
  8
0
 10
8.67392
 20
19.27
 11
8.67822
 21
19.2668
  0
LINE
  8
0
 10
8.67822
 20
19.2668
 11
8.68593
 21
19.2643
  0
LINE
  8
0
 10
8.68593
 20
19.2643
 11
8.71338
 21
19.2681
  0
LINE
  8
0
 10
8.71338
 20
19.2681
 11
8.73805
 21
19.2475
  0
LINE
  8
0
 10
8.73805
 20
19.2475
 11
8.74765
 21
19.2444
  0
LINE
  8
0
 10
8.74765
 20
19.2444
 11
8.74797
 21
19.2444
  0
LINE
  8
0
 10
8.74797
 20
19.2444
 11
8.74825
 21
19.2442
  0
LINE
  8
0
 10
8.74825
 20
19.2442
 11
8.75792
 21
19.2411
  0
LINE
  8
0
 10
8.75792
 20
19.2411
 11
8.77127
 21
19.2455
  0
LINE
  8
0
 10
8.77127
 20
19.2455
 11
8.87317
 21
19.1197
  0
LINE
  8
0
 10
8.87317
 20
19.1197
 11
9.39549
 21
18.7415
  0
LINE
  8
0
 10
9.39549
 20
18.7415
 11
10.3506
 21
18.7359
  0
LINE
  8
0
 10
10.3506
 20
18.7359
 11
10.3705
 21
18.7055
  0
LINE
  8
0
 10
10.3705
 20
18.7055
 11
10.3325
 21
18.5034
  0
LINE
  8
0
 10
10.3325
 20
18.5034
 11
10.5271
 21
18.4668
  0
LINE
  8
0
 10
10.5271
 20
18.4668
 11
10.7017
 21
18.2005
  0
LINE
  8
0
 10
10.7017
 20
18.2005
 11
11.0731
 21
17.8775
  0
LINE
  8
0
 10
11.0731
 20
17.8775
 11
11.1394
 21
17.9537
  0
LINE
  8
0
 10
11.1394
 20
17.9537
 11
11.4571
 21
17.4382
  0
LINE
  8
0
 10
11.4571
 20
17.4382
 11
11.7518
 21
17.2805
  0
LINE
  8
0
 10
11.7518
 20
17.2805
 11
11.7745
 21
17.2747
  0
LINE
  8
0
 10
11.7745
 20
17.2747
 11
11.8595
 21
16.9883
  0
LINE
  8
0
 10
11.8595
 20
16.9883
 11
12.0616
 21
16.7905
  0
LINE
  8
0
 10
12.0616
 20
16.7905
 11
12.0617
 21
16.7905
  0
LINE
  8
0
 10
12.0617
 20
16.7905
 11
12.0662
 21
16.7456
  0
LINE
  8
0
 10
12.0662
 20
16.7456
 11
12.1523
 21
16.6351
  0
LINE
  8
0
 10
12.1523
 20
16.6351
 11
12.1501
 21
16.6345
  0
LINE
  8
0
 10
12.1501
 20
16.6345
 11
12.1509
 21
16.6319
  0
LINE
  8
0
 10
12.1509
 20
16.6319
 11
12.1981
 21
16.5714
  0
LINE
  8
0
 10
12.1981
 20
16.5714
 11
12.2238
 21
16.5241
  0
LINE
  8
0
 10
12.2238
 20
16.5241
 11
12.1924
 21
16.512
  0
LINE
  8
0
 10
12.1924
 20
16.512
 11
12.1955
 21
16.5039
  0
LINE
  8
0
 10
12.1955
 20
16.5039
 11
12.228
 21
16.5164
  0
LINE
  8
0
 10
12.228
 20
16.5164
 11
12.2328
 21
16.5075
  0
LINE
  8
0
 10
12.2328
 20
16.5075
 11
12.1992
 21
16.4932
  0
LINE
  8
0
 10
12.1992
 20
16.4932
 11
12.218
 21
16.4491
  0
LINE
  8
0
 10
12.218
 20
16.4491
 11
12.2558
 21
16.4652
  0
LINE
  8
0
 10
12.2558
 20
16.4652
 11
12.2618
 21
16.4542
  0
LINE
  8
0
 10
12.2618
 20
16.4542
 11
12.2243
 21
16.4367
  0
LINE
  8
0
 10
12.2243
 20
16.4367
 11
12.2274
 21
16.4302
  0
LINE
  8
0
 10
12.2274
 20
16.4302
 11
12.2652
 21
16.4479
  0
LINE
  8
0
 10
12.2652
 20
16.4479
 11
12.2686
 21
16.4416
  0
LINE
  8
0
 10
12.2686
 20
16.4416
 11
12.2305
 21
16.4221
  0
LINE
  8
0
 10
12.2305
 20
16.4221
 11
12.2547
 21
16.3746
  0
LINE
  8
0
 10
12.2547
 20
16.3746
 11
12.2941
 21
16.3947
  0
LINE
  8
0
 10
12.2941
 20
16.3947
 11
12.3007
 21
16.3826
  0
LINE
  8
0
 10
12.3007
 20
16.3826
 11
12.2628
 21
16.3613
  0
LINE
  8
0
 10
12.2628
 20
16.3613
 11
12.2662
 21
16.3554
  0
LINE
  8
0
 10
12.2662
 20
16.3554
 11
12.304
 21
16.3765
  0
LINE
  8
0
 10
12.304
 20
16.3765
 11
12.3086
 21
16.3681
  0
LINE
  8
0
 10
12.3086
 20
16.3681
 11
12.2712
 21
16.3458
  0
LINE
  8
0
 10
12.2712
 20
16.3458
 11
12.2899
 21
16.3145
  0
LINE
  8
0
 10
12.2899
 20
16.3145
 11
12.326
 21
16.336
  0
LINE
  8
0
 10
12.326
 20
16.336
 11
12.33
 21
16.3286
  0
LINE
  8
0
 10
12.33
 20
16.3286
 11
12.2952
 21
16.3066
  0
LINE
  8
0
 10
12.2952
 20
16.3066
 11
12.2986
 21
16.3013
  0
LINE
  8
0
 10
12.2986
 20
16.3013
 11
12.333
 21
16.3231
  0
LINE
  8
0
 10
12.333
 20
16.3231
 11
12.3372
 21
16.3153
  0
LINE
  8
0
 10
12.3372
 20
16.3153
 11
12.3035
 21
16.2925
  0
LINE
  8
0
 10
12.3035
 20
16.2925
 11
12.3309
 21
16.2522
  0
LINE
  8
0
 10
12.3309
 20
16.2522
 11
12.3606
 21
16.2724
  0
LINE
  8
0
 10
12.3606
 20
16.2724
 11
12.3663
 21
16.2618
  0
LINE
  8
0
 10
12.3663
 20
16.2618
 11
12.339
 21
16.2419
  0
LINE
  8
0
 10
12.339
 20
16.2419
 11
12.3409
 21
16.2392
  0
LINE
  8
0
 10
12.3409
 20
16.2392
 11
12.3679
 21
16.2589
  0
LINE
  8
0
 10
12.3679
 20
16.2589
 11
12.4583
 21
16.0926
  0
LINE
  8
0
 10
12.4583
 20
16.0926
 11
12.4895
 21
16.0588
  0
LINE
  8
0
 10
12.4895
 20
16.0588
 11
12.5527
 21
16.1174
  0
LINE
  8
0
 10
12.5527
 20
16.1174
 11
12.7414
 21
15.8758
  0
LINE
  8
0
 10
12.7414
 20
15.8758
 11
12.7488
 21
15.8648
  0
LINE
  8
0
 10
12.7488
 20
15.8648
 11
12.7599
 21
15.849
  0
LINE
  8
0
 10
12.7599
 20
15.849
 11
12.7696
 21
15.8357
  0
LINE
  8
0
 10
12.7696
 20
15.8357
 11
12.7827
 21
15.7745
  0
LINE
  8
0
 10
12.7827
 20
15.7745
 11
12.7899
 21
15.7441
  0
LINE
  8
0
 10
12.7899
 20
15.7441
 11
12.8074
 21
15.6745
  0
LINE
  8
0
 10
12.8074
 20
15.6745
 11
12.8138
 21
15.6513
  0
LINE
  8
0
 10
12.8138
 20
15.6513
 11
12.8312
 21
15.5911
  0
LINE
  8
0
 10
12.8312
 20
15.5911
 11
12.8413
 21
15.5581
  0
LINE
  8
0
 10
12.8413
 20
15.5581
 11
12.864
 21
15.4884
  0
LINE
  8
0
 10
12.864
 20
15.4884
 11
12.8748
 21
15.4574
  0
LINE
  8
0
 10
12.8748
 20
15.4574
 11
12.8961
 21
15.3988
  0
LINE
  8
0
 10
12.8961
 20
15.3988
 11
12.9045
 21
15.3767
  0
LINE
  8
0
 10
12.9045
 20
15.3767
 11
12.9259
 21
15.323
  0
LINE
  8
0
 10
12.9259
 20
15.323
 11
12.939
 21
15.2915
  0
LINE
  8
0
 10
12.939
 20
15.2915
 11
12.9708
 21
15.219
  0
LINE
  8
0
 10
12.9708
 20
15.219
 11
12.9844
 21
15.1898
  0
LINE
  8
0
 10
12.9844
 20
15.1898
 11
13.0097
 21
15.137
  0
LINE
  8
0
 10
13.0097
 20
15.137
 11
13.0213
 21
15.1138
  0
LINE
  8
0
 10
13.0213
 20
15.1138
 11
13.0492
 21
15.0598
  0
LINE
  8
0
 10
13.0492
 20
15.0598
 11
13.0649
 21
15.0308
  0
LINE
  8
0
 10
13.0649
 20
15.0308
 11
13.1022
 21
14.9644
  0
LINE
  8
0
 10
13.1022
 20
14.9644
 11
13.1147
 21
14.9431
  0
LINE
  8
0
 10
13.1147
 20
14.9431
 11
13.1446
 21
14.8938
  0
LINE
  8
0
 10
13.1446
 20
14.8938
 11
13.1604
 21
14.8687
  0
LINE
  8
0
 10
13.1604
 20
14.8687
 11
13.2027
 21
14.8038
  0
LINE
  8
0
 10
13.2027
 20
14.8038
 11
13.2185
 21
14.7808
  0
LINE
  8
0
 10
13.2185
 20
14.7808
 11
13.2612
 21
14.7205
  0
LINE
  8
0
 10
13.2612
 20
14.7205
 11
13.275
 21
14.7019
  0
LINE
  8
0
 10
13.275
 20
14.7019
 11
13.321
 21
14.6419
  0
LINE
  8
0
 10
13.321
 20
14.6419
 11
13.3368
 21
14.6221
  0
LINE
  8
0
 10
13.3368
 20
14.6221
 11
13.3926
 21
14.5552
  0
LINE
  8
0
 10
13.3926
 20
14.5552
 11
13.4055
 21
14.5404
  0
LINE
  8
0
 10
13.4055
 20
14.5404
 11
13.4626
 21
14.4777
  0
LINE
  8
0
 10
13.4626
 20
14.4777
 11
13.4763
 21
14.4632
  0
LINE
  8
0
 10
13.4763
 20
14.4632
 11
13.5371
 21
14.4019
  0
LINE
  8
0
 10
13.5371
 20
14.4019
 11
13.5479
 21
14.3914
  0
LINE
  8
0
 10
13.5479
 20
14.3914
 11
13.6282
 21
14.318
  0
LINE
  8
0
 10
13.6282
 20
14.318
 11
13.6458
 21
14.3027
  0
LINE
  8
0
 10
13.6458
 20
14.3027
 11
13.6524
 21
14.2968
  0
LINE
  8
0
 10
13.6524
 20
14.2968
 11
13.6525
 21
14.2969
  0
LINE
  8
0
 10
13.6525
 20
14.2969
 11
13.662
 21
14.2887
  0
LINE
  8
0
 10
13.662
 20
14.2887
 11
13.6945
 21
14.3262
  0
LINE
  8
0
 10
13.6945
 20
14.3262
 11
14.6823
 21
13.847
  0
LINE
  8
0
 10
14.6823
 20
13.847
 11
14.965
 21
13.4909
  0
LINE
  8
0
 10
14.965
 20
13.4909
 11
14.8372
 21
12.9141
  0
LINE
  8
0
 10
14.8372
 20
12.9141
 11
14.7943
 21
12.9082
  0
LINE
  8
0
 10
14.7943
 20
12.9082
 11
14.7943
 21
12.9077
  0
LINE
  8
0
 10
14.7943
 20
12.9077
 11
14.8255
 21
12.8608
  0
LINE
  8
0
 10
14.8255
 20
12.8608
 11
14.7942
 21
12.7199
  0
LINE
  8
0
 10
14.7942
 20
12.7199
 11
14.8543
 21
12.6455
  0
LINE
  8
0
 10
14.8543
 20
12.6455
 11
14.8722
 21
12.5816
  0
LINE
  8
0
 10
14.8722
 20
12.5816
 11
14.8675
 21
12.5801
  0
LINE
  8
0
 10
14.8675
 20
12.5801
 11
14.868
 21
12.5787
  0
LINE
  8
0
 10
14.868
 20
12.5787
 11
14.8751
 21
12.5712
  0
LINE
  8
0
 10
14.8751
 20
12.5712
 11
14.8968
 21
12.4931
  0
LINE
  8
0
 10
14.8968
 20
12.4931
 11
14.8995
 21
12.4857
  0
LINE
  8
0
 10
14.8995
 20
12.4857
 11
14.9331
 21
12.3993
  0
LINE
  8
0
 10
14.9331
 20
12.3993
 11
14.939
 21
12.3851
  0
LINE
  8
0
 10
14.939
 20
12.3851
 11
14.9738
 21
12.3063
  0
LINE
  8
0
 10
14.9738
 20
12.3063
 11
14.9769
 21
12.2996
  0
LINE
  8
0
 10
14.9769
 20
12.2996
 11
14.9998
 21
12.252
  0
LINE
  8
0
 10
14.9998
 20
12.252
 11
15.0083
 21
12.2352
  0
LINE
  8
0
 10
15.0083
 20
12.2352
 11
15.0432
 21
12.1684
  0
LINE
  8
0
 10
15.0432
 20
12.1684
 11
15.0538
 21
12.1492
  0
LINE
  8
0
 10
15.0538
 20
12.1492
 11
15.0869
 21
12.0909
  0
LINE
  8
0
 10
15.0869
 20
12.0909
 11
15.0925
 21
12.0815
  0
LINE
  8
0
 10
15.0925
 20
12.0815
 11
15.1177
 21
12.0406
  0
LINE
  8
0
 10
15.1177
 20
12.0406
 11
15.148
 21
11.9022
  0
LINE
  8
0
 10
15.148
 20
11.9022
 11
15.1477
 21
11.8854
  0
LINE
  8
0
 10
15.1477
 20
11.8854
 11
15.1433
 21
11.8482
  0
LINE
  8
0
 10
15.1433
 20
11.8482
 11
15.1436
 21
11.8469
  0
LINE
  8
0
 10
15.1436
 20
11.8469
 11
15.147
 21
11.8477
  0
LINE
  8
0
 10
15.147
 20
11.8477
 11
15.1467
 21
11.8349
  0
LINE
  8
0
 10
15.1467
 20
11.8349
 11
15.1484
 21
11.828
  0
LINE
  8
0
 10
15.1484
 20
11.828
 11
15.1634
 21
11.8317
  0
LINE
  8
0
 10
15.1634
 20
11.8317
 11
15.2
 21
11.6646
  0
LINE
  8
0
 10
15.2
 20
11.6646
 11
15.2003
 21
11.6552
  0
LINE
  8
0
 10
15.2003
 20
11.6552
 11
15.2009
 21
11.6536
  0
LINE
  8
0
 10
15.2009
 20
11.6536
 11
15.2023
 21
11.6541
  0
LINE
  8
0
 10
15.2023
 20
11.6541
 11
15.2043
 21
11.6449
  0
LINE
  8
0
 10
15.2043
 20
11.6449
 11
15.2057
 21
11.6411
  0
LINE
  8
0
 10
15.2057
 20
11.6411
 11
15.215
 21
11.6444
  0
LINE
  8
0
 10
15.215
 20
11.6444
 11
15.217
 21
11.6029
  0
LINE
  8
0
 10
15.217
 20
11.6029
 11
15.2166
 21
11.5931
  0
LINE
  8
0
 10
15.2166
 20
11.5931
 11
15.2176
 21
11.5903
  0
LINE
  8
0
 10
15.2176
 20
11.5903
 11
15.2359
 21
11.2087
  0
LINE
  8
0
 10
15.2359
 20
11.2087
 11
15.2372
 21
11.2038
  0
LINE
  8
0
 10
15.2372
 20
11.2038
 11
15.2596
 21
11.1302
  0
LINE
  8
0
 10
15.2596
 20
11.1302
 11
15.2619
 21
11.123
  0
LINE
  8
0
 10
15.2619
 20
11.123
 11
15.2802
 21
11.0691
  0
LINE
  8
0
 10
15.2802
 20
11.0691
 11
15.2832
 21
11.0606
  0
LINE
  8
0
 10
15.2832
 20
11.0606
 11
15.3068
 21
10.9977
  0
LINE
  8
0
 10
15.3068
 20
10.9977
 11
15.3107
 21
10.9877
  0
LINE
  8
0
 10
15.3107
 20
10.9877
 11
15.3311
 21
10.938
  0
LINE
  8
0
 10
15.3311
 20
10.938
 11
15.3375
 21
10.923
  0
LINE
  8
0
 10
15.3375
 20
10.923
 11
15.3514
 21
10.8911
  0
LINE
  8
0
 10
15.3514
 20
10.8911
 11
15.3569
 21
10.8789
  0
LINE
  8
0
 10
15.3569
 20
10.8789
 11
15.3786
 21
10.8317
  0
LINE
  8
0
 10
15.3786
 20
10.8317
 11
15.3857
 21
10.817
  0
LINE
  8
0
 10
15.3857
 20
10.817
 11
15.3999
 21
10.7878
  0
LINE
  8
0
 10
15.3999
 20
10.7878
 11
15.4106
 21
10.7663
  0
LINE
  8
0
 10
15.4106
 20
10.7663
 11
15.4283
 21
10.7317
  0
LINE
  8
0
 10
15.4283
 20
10.7317
 11
15.4592
 21
10.6725
  0
LINE
  8
0
 10
15.4592
 20
10.6725
 11
15.4956
 21
10.601
  0
LINE
  8
0
 10
15.4956
 20
10.601
 11
15.5343
 21
10.523
  0
LINE
  8
0
 10
15.5343
 20
10.523
 11
15.5642
 21
10.461
  0
LINE
  8
0
 10
15.5642
 20
10.461
 11
15.5828
 21
10.4209
  0
LINE
  8
0
 10
15.5828
 20
10.4209
 11
16.5838
 21
9.51311
  0
LINE
  8
0
 10
16.5838
 20
9.51311
 11
16.5528
 21
9.47177
  0
LINE
  8
0
 10
16.5528
 20
9.47177
 11
16.5602
 21
9.46626
  0
LINE
  8
0
 10
16.5602
 20
9.46626
 11
16.56
 21
9.46606
  0
LINE
  8
0
 10
16.56
 20
9.46606
 11
16.5627
 21
9.46411
  0
LINE
  8
0
 10
16.5627
 20
9.46411
 11
16.5625
 21
9.46385
  0
LINE
  8
0
 10
16.5625
 20
9.46385
 11
16.5713
 21
9.45793
  0
LINE
  8
0
 10
16.5713
 20
9.45793
 11
16.5721
 21
9.45731
  0
LINE
  8
0
 10
16.5721
 20
9.45731
 11
16.572
 21
9.45711
  0
LINE
  8
0
 10
16.572
 20
9.45711
 11
16.5745
 21
9.45551
  0
LINE
  8
0
 10
16.5745
 20
9.45551
 11
16.5843
 21
9.44812
  0
LINE
  8
0
 10
16.5843
 20
9.44812
 11
16.5934
 21
9.44095
  0
LINE
  8
0
 10
16.5934
 20
9.44095
 11
16.6053
 21
9.4312
  0
LINE
  8
0
 10
16.6053
 20
9.4312
 11
16.6339
 21
9.40709
  0
LINE
  8
0
 10
16.6339
 20
9.40709
 11
16.6539
 21
9.38965
  0
LINE
  8
0
 10
16.6539
 20
9.38965
 11
16.6809
 21
9.36545
  0
LINE
  8
0
 10
16.6809
 20
9.36545
 11
16.7141
 21
9.33504
  0
LINE
  8
0
 10
16.7141
 20
9.33504
 11
16.7465
 21
9.30476
  0
LINE
  8
0
 10
16.7465
 20
9.30476
 11
16.7844
 21
9.26877
  0
LINE
  8
0
 10
16.7844
 20
9.26877
 11
16.8241
 21
9.23018
  0
LINE
  8
0
 10
16.8241
 20
9.23018
 11
16.8661
 21
9.189
  0
LINE
  8
0
 10
16.8661
 20
9.189
 11
17.0035
 21
9.05186
  0
LINE
  8
0
 10
17.0035
 20
9.05186
 11
17.1378
 21
8.91884
  0
LINE
  8
0
 10
17.1378
 20
8.91884
 11
17.2856
 21
8.77361
  0
LINE
  8
0
 10
17.2856
 20
8.77361
 11
17.4227
 21
8.64008
  0
LINE
  8
0
 10
17.4227
 20
8.64008
 11
17.5104
 21
8.55536
  0
LINE
  8
0
 10
17.5104
 20
8.55536
 11
17.5862
 21
8.48274
  0
LINE
  8
0
 10
17.5862
 20
8.48274
 11
17.6596
 21
8.41293
  0
LINE
  8
0
 10
17.6596
 20
8.41293
 11
17.6702
 21
8.40298
  0
LINE
  8
0
 10
17.6702
 20
8.40298
 11
17.711
 21
8.36476
  0
LINE
  8
0
 10
17.711
 20
8.36476
 11
17.8903
 21
7.65344
  0
LINE
  8
0
 10
17.8903
 20
7.65344
 11
18.063
 21
7.57498
  0
LINE
  8
0
 10
18.063
 20
7.57498
 11
18.0741
 21
7.56329
  0
LINE
  8
0
 10
18.0741
 20
7.56329
 11
18.0899
 21
7.54686
  0
LINE
  8
0
 10
18.0899
 20
7.54686
 11
18.1063
 21
7.53
  0
LINE
  8
0
 10
18.1063
 20
7.53
 11
18.1308
 21
7.505
  0
LINE
  8
0
 10
18.1308
 20
7.505
 11
18.1448
 21
7.49098
  0
LINE
  8
0
 10
18.1448
 20
7.49098
 11
18.1758
 21
7.46004
  0
LINE
  8
0
 10
18.1758
 20
7.46004
 11
18.176
 21
7.45953
  0
LINE
  8
0
 10
18.176
 20
7.45953
 11
18.1773
 21
7.4583
  0
LINE
  8
0
 10
18.1773
 20
7.4583
 11
18.185
 21
7.43643
  0
LINE
  8
0
 10
18.185
 20
7.43643
 11
18.1904
 21
7.42291
  0
LINE
  8
0
 10
18.1904
 20
7.42291
 11
18.2311
 21
7.32797
  0
LINE
  8
0
 10
18.2311
 20
7.32797
 11
18.2369
 21
7.31532
  0
LINE
  8
0
 10
18.2369
 20
7.31532
 11
18.2545
 21
7.27803
  0
LINE
  8
0
 10
18.2545
 20
7.27803
 11
18.2593
 21
7.26799
  0
LINE
  8
0
 10
18.2593
 20
7.26799
 11
18.2784
 21
7.22975
  0
LINE
  8
0
 10
18.2784
 20
7.22975
 11
18.2849
 21
7.2171
  0
LINE
  8
0
 10
18.2849
 20
7.2171
 11
18.3001
 21
7.1879
  0
LINE
  8
0
 10
18.3001
 20
7.1879
 11
18.3096
 21
7.17001
  0
LINE
  8
0
 10
18.3096
 20
7.17001
 11
18.3303
 21
7.13223
  0
LINE
  8
0
 10
18.3303
 20
7.13223
 11
18.3411
 21
7.1129
  0
LINE
  8
0
 10
18.3411
 20
7.1129
 11
18.3533
 21
7.09149
  0
LINE
  8
0
 10
18.3533
 20
7.09149
 11
18.3612
 21
7.07776
  0
LINE
  8
0
 10
18.3612
 20
7.07776
 11
18.3822
 21
7.04219
  0
LINE
  8
0
 10
18.3822
 20
7.04219
 11
18.3944
 21
7.02197
  0
LINE
  8
0
 10
18.3944
 20
7.02197
 11
18.4081
 21
6.99965
  0
LINE
  8
0
 10
18.4081
 20
6.99965
 11
18.4202
 21
6.98016
  0
LINE
  8
0
 10
18.4202
 20
6.98016
 11
18.4342
 21
6.95811
  0
LINE
  8
0
 10
18.4342
 20
6.95811
 11
18.4474
 21
6.93747
  0
LINE
  8
0
 10
18.4474
 20
6.93747
 11
18.4639
 21
6.91211
  0
LINE
  8
0
 10
18.4639
 20
6.91211
 11
18.4764
 21
6.89322
  0
LINE
  8
0
 10
18.4764
 20
6.89322
 11
18.4992
 21
6.85962
  0
LINE
  8
0
 10
18.4992
 20
6.85962
 11
18.5124
 21
6.8405
  0
LINE
  8
0
 10
18.5124
 20
6.8405
 11
18.525
 21
6.82249
  0
LINE
  8
0
 10
18.525
 20
6.82249
 11
18.545
 21
6.79428
  0
LINE
  8
0
 10
18.545
 20
6.79428
 11
18.546
 21
6.79004
  0
LINE
  8
0
 10
18.546
 20
6.79004
 11
18.5564
 21
6.74767
  0
LINE
  8
0
 10
18.5564
 20
6.74767
 11
18.5662
 21
6.70912
  0
LINE
  8
0
 10
18.5662
 20
6.70912
 11
18.5787
 21
6.66245
  0
LINE
  8
0
 10
18.5787
 20
6.66245
 11
18.5857
 21
6.6366
  0
LINE
  8
0
 10
18.5857
 20
6.6366
 11
18.6008
 21
6.58302
  0
LINE
  8
0
 10
18.6008
 20
6.58302
 11
18.6069
 21
6.56183
  0
LINE
  8
0
 10
18.6069
 20
6.56183
 11
18.6261
 21
6.49626
  0
LINE
  8
0
 10
18.6261
 20
6.49626
 11
18.6323
 21
6.4754
  0
LINE
  8
0
 10
18.6323
 20
6.4754
 11
18.6534
 21
6.40598
  0
LINE
  8
0
 10
18.6534
 20
6.40598
 11
18.6585
 21
6.38963
  0
LINE
  8
0
 10
18.6585
 20
6.38963
 11
18.6786
 21
6.32573
  0
LINE
  8
0
 10
18.6786
 20
6.32573
 11
18.6841
 21
6.3084
  0
LINE
  8
0
 10
18.6841
 20
6.3084
 11
18.7086
 21
6.23257
  0
LINE
  8
0
 10
18.7086
 20
6.23257
 11
18.7125
 21
6.22084
  0
LINE
  8
0
 10
18.7125
 20
6.22084
 11
18.7342
 21
6.15535
  0
LINE
  8
0
 10
18.7342
 20
6.15535
 11
18.7399
 21
6.13831
  0
LINE
  8
0
 10
18.7399
 20
6.13831
 11
18.7653
 21
6.06386
  0
LINE
  8
0
 10
18.7653
 20
6.06386
 11
18.7711
 21
6.04709
  0
LINE
  8
0
 10
18.7711
 20
6.04709
 11
18.7919
 21
5.98763
  0
LINE
  8
0
 10
18.7919
 20
5.98763
 11
18.7987
 21
5.96863
  0
LINE
  8
0
 10
18.7987
 20
5.96863
 11
18.8236
 21
5.89978
  0
LINE
  8
0
 10
18.8236
 20
5.89978
 11
18.8336
 21
5.87288
  0
LINE
  8
0
 10
18.8336
 20
5.87288
 11
18.8538
 21
5.81946
  0
LINE
  8
0
 10
18.8538
 20
5.81946
 11
19.6809
 21
5.12082
  0
LINE
  8
0
 10
19.6809
 20
5.12082
 11
19.6938
 21
5.07738
  0
LINE
  8
0
 10
19.6938
 20
5.07738
 11
19.6657
 21
5.0694
  0
LINE
  8
0
 10
19.6657
 20
5.0694
 11
19.6692
 21
5.0571
  0
LINE
  8
0
 10
19.6692
 20
5.0571
 11
19.6975
 21
5.06512
  0
LINE
  8
0
 10
19.6975
 20
5.06512
 11
19.6977
 21
5.0645
  0
LINE
  8
0
 10
19.6977
 20
5.0645
 11
19.6694
 21
5.05568
  0
LINE
  8
0
 10
19.6694
 20
5.05568
 11
19.68
 21
5.02138
  0
LINE
  8
0
 10
19.68
 20
5.02138
 11
19.7079
 21
5.03006
  0
LINE
  8
0
 10
19.7079
 20
5.03006
 11
19.708
 21
5.02969
  0
LINE
  8
0
 10
19.708
 20
5.02969
 11
19.7065
 21
5.02867
  0
LINE
  8
0
 10
19.7065
 20
5.02867
 11
19.6807
 21
5.01953
  0
LINE
  8
0
 10
19.6807
 20
5.01953
 11
19.6832
 21
5.0127
  0
LINE
  8
0
 10
19.6832
 20
5.0127
 11
19.67
 21
5.00368
  0
LINE
  8
0
 10
19.67
 20
5.00368
 11
19.6795
 21
4.98978
  0
LINE
  8
0
 10
19.6795
 20
4.98978
 11
19.6795
 21
4.98975
  0
LINE
  8
0
 10
19.6795
 20
4.98975
 11
19.6809
 21
4.98772
  0
LINE
  8
0
 10
19.6809
 20
4.98772
 11
19.6836
 21
4.98378
  0
LINE
  8
0
 10
19.6836
 20
4.98378
 11
19.6892
 21
4.97537
  0
LINE
  8
0
 10
19.6892
 20
4.97537
 11
19.6965
 21
4.96378
  0
LINE
  8
0
 10
19.6965
 20
4.96378
 11
19.7086
 21
4.94444
  0
LINE
  8
0
 10
19.7086
 20
4.94444
 11
19.7137
 21
4.93597
  0
LINE
  8
0
 10
19.7137
 20
4.93597
 11
19.7167
 21
4.93051
  0
LINE
  8
0
 10
19.7167
 20
4.93051
 11
19.7194
 21
4.92534
  0
LINE
  8
0
 10
19.7194
 20
4.92534
 11
19.7209
 21
4.92223
  0
LINE
  8
0
 10
19.7209
 20
4.92223
 11
19.721
 21
4.92226
  0
LINE
  8
0
 10
19.721
 20
4.92226
 11
19.7277
 21
4.90932
  0
LINE
  8
0
 10
19.7277
 20
4.90932
 11
19.7393
 21
4.91534
  0
LINE
  8
0
 10
19.7393
 20
4.91534
 11
19.7415
 21
4.91292
  0
LINE
  8
0
 10
19.7415
 20
4.91292
 11
19.7424
 21
4.91374
  0
LINE
  8
0
 10
19.7424
 20
4.91374
 11
19.8915
 21
4.41177
  0
LINE
  8
0
 10
19.8915
 20
4.41177
 11
19.8841
 21
4.40804
  0
LINE
  8
0
 10
19.8841
 20
4.40804
 11
19.8855
 21
4.40536
  0
LINE
  8
0
 10
19.8855
 20
4.40536
 11
19.8851
 21
4.40517
  0
LINE
  8
0
 10
19.8851
 20
4.40517
 11
19.8882
 21
4.39954
  0
LINE
  8
0
 10
19.8882
 20
4.39954
 11
19.888
 21
4.39946
  0
LINE
  8
0
 10
19.888
 20
4.39946
 11
19.8925
 21
4.39148
  0
LINE
  8
0
 10
19.8925
 20
4.39148
 11
19.895
 21
4.38672
  0
LINE
  8
0
 10
19.895
 20
4.38672
 11
19.9033
 21
4.36925
  0
LINE
  8
0
 10
19.9033
 20
4.36925
 11
19.9134
 21
4.34705
  0
LINE
  8
0
 10
19.9134
 20
4.34705
 11
19.9232
 21
4.32468
  0
LINE
  8
0
 10
19.9232
 20
4.32468
 11
19.9387
 21
4.28757
  0
LINE
  8
0
 10
19.9387
 20
4.28757
 11
19.9503
 21
4.25854
  0
LINE
  8
0
 10
19.9503
 20
4.25854
 11
19.9613
 21
4.22983
  0
LINE
  8
0
 10
19.9613
 20
4.22983
 11
19.9707
 21
4.2039
  0
LINE
  8
0
 10
19.9707
 20
4.2039
 11
19.9787
 21
4.18082
  0
LINE
  8
0
 10
19.9787
 20
4.18082
 11
19.9805
 21
4.17525
  0
LINE
  8
0
 10
19.9805
 20
4.17525
 11
20.0062
 21
3.99628
  0
LINE
  8
0
 10
20.0062
 20
3.99628
 11
20.0103
 21
3.97942
  0
LINE
  8
0
 10
20.0103
 20
3.97942
 11
20.0405
 21
3.86852
  0
LINE
  8
0
 10
20.0405
 20
3.86852
 11
20.0495
 21
3.83879
  0
LINE
  8
0
 10
20.0495
 20
3.83879
 11
20.0777
 21
3.75294
  0
LINE
  8
0
 10
20.0777
 20
3.75294
 11
20.092
 21
3.71223
  0
LINE
  8
0
 10
20.092
 20
3.71223
 11
20.1169
 21
3.64561
  0
LINE
  8
0
 10
20.1169
 20
3.64561
 11
20.1333
 21
3.6041
  0
LINE
  8
0
 10
20.1333
 20
3.6041
 11
20.1582
 21
3.54372
  0
LINE
  8
0
 10
20.1582
 20
3.54372
 11
20.1828
 21
3.48688
  0
LINE
  8
0
 10
20.1828
 20
3.48688
 11
20.2044
 21
3.43864
  0
LINE
  8
0
 10
20.2044
 20
3.43864
 11
20.231
 21
3.38129
  0
LINE
  8
0
 10
20.231
 20
3.38129
 11
20.2533
 21
3.33481
  0
LINE
  8
0
 10
20.2533
 20
3.33481
 11
20.282
 21
3.27687
  0
LINE
  8
0
 10
20.282
 20
3.27687
 11
20.3025
 21
3.23676
  0
LINE
  8
0
 10
20.3025
 20
3.23676
 11
20.3341
 21
3.17642
  0
LINE
  8
0
 10
20.3341
 20
3.17642
 11
20.3535
 21
3.14034
  0
LINE
  8
0
 10
20.3535
 20
3.14034
 11
20.3873
 21
3.0789
  0
LINE
  8
0
 10
20.3873
 20
3.0789
 11
20.4073
 21
3.04335
  0
LINE
  8
0
 10
20.4073
 20
3.04335
 11
20.4469
 21
2.97487
  0
LINE
  8
0
 10
20.4469
 20
2.97487
 11
20.4662
 21
2.94214
  0
LINE
  8
0
 10
20.4662
 20
2.94214
 11
20.5026
 21
2.88173
  0
LINE
  8
0
 10
20.5026
 20
2.88173
 11
20.525
 21
2.84549
  0
LINE
  8
0
 10
20.525
 20
2.84549
 11
20.5639
 21
2.78398
  0
LINE
  8
0
 10
20.5639
 20
2.78398
 11
20.5865
 21
2.74901
  0
LINE
  8
0
 10
20.5865
 20
2.74901
 11
20.6268
 21
2.68817
  0
LINE
  8
0
 10
20.6268
 20
2.68817
 11
20.6502
 21
2.65353
  0
LINE
  8
0
 10
20.6502
 20
2.65353
 11
20.692
 21
2.59326
  0
LINE
  8
0
 10
20.692
 20
2.59326
 11
20.7215
 21
2.5518
  0
LINE
  8
0
 10
20.7215
 20
2.5518
 11
20.7622
 21
2.49599
  0
LINE
  8
0
 10
20.7622
 20
2.49599
 11
20.7901
 21
2.45883
  0
LINE
  8
0
 10
20.7901
 20
2.45883
 11
20.8265
 21
2.41136
  0
LINE
  8
0
 10
20.8265
 20
2.41136
 11
20.8614
 21
2.36708
  0
LINE
  8
0
 10
20.8614
 20
2.36708
 11
20.903
 21
2.3159
  0
LINE
  8
0
 10
20.903
 20
2.3159
 11
20.9452
 21
2.26575
  0
LINE
  8
0
 10
20.9452
 20
2.26575
 11
20.9828
 21
2.22241
  0
LINE
  8
0
 10
20.9828
 20
2.22241
 11
20.9976
 21
2.20561
  0
LINE
  8
0
 10
20.9976
 20
2.20561
 11
21.0244
 21
2.17546
  0
LINE
  8
0
 10
21.0244
 20
2.17546
 11
21.0393
 21
2.15814
  0
LINE
  8
0
 10
21.0393
 20
2.15814
 11
21.0532
 21
2.14153
  0
LINE
  8
0
 10
21.0532
 20
2.14153
 11
21.0681
 21
2.12315
  0
LINE
  8
0
 10
21.0681
 20
2.12315
 11
21.0818
 21
2.10564
  0
LINE
  8
0
 10
21.0818
 20
2.10564
 11
21.085
 21
2.1015
  0
LINE
  8
0
 10
21.085
 20
2.1015
 11
21.0974
 21
2.08458
  0
LINE
  8
0
 10
21.0974
 20
2.08458
 11
21.1047
 21
2.07442
  0
LINE
  8
0
 10
21.1047
 20
2.07442
 11
21.1172
 21
2.056
  0
LINE
  8
0
 10
21.1172
 20
2.056
 11
21.1237
 21
2.04601
  0
LINE
  8
0
 10
21.1237
 20
2.04601
 11
21.1304
 21
2.03545
  0
LINE
  8
0
 10
21.1304
 20
2.03545
 11
21.1317
 21
2.03313
  0
LINE
  8
0
 10
21.1317
 20
2.03313
 11
21.1385
 21
2.02112
  0
LINE
  8
0
 10
21.1385
 20
2.02112
 11
21.1432
 21
2.01233
  0
LINE
  8
0
 10
21.1432
 20
2.01233
 11
21.1465
 21
2.00513
  0
LINE
  8
0
 10
21.1465
 20
2.00513
 11
21.1536
 21
1.98694
  0
LINE
  8
0
 10
21.1536
 20
1.98694
 11
21.1639
 21
1.95946
  0
LINE
  8
0
 10
21.1639
 20
1.95946
 11
21.6131
 21
1.56386
  0
LINE
  8
0
 10
21.6131
 20
1.56386
 11
21.5721
 21
1.54054
  0
LINE
  8
0
 10
21.5721
 20
1.54054
 11
21.7896
 21
1.1586
  0
LINE
  8
0
 10
21.7896
 20
1.1586
 11
21.833
 21
1.12868
  0
LINE
  8
0
 10
21.833
 20
1.12868
 11
21.8357
 21
1.12411
  0
LINE
  8
0
 10
21.8357
 20
1.12411
 11
21.8418
 21
1.12007
  0
LINE
  8
0
 10
21.8418
 20
1.12007
 11
21.903
 21
1.01817
  0
LINE
  8
0
 10
21.903
 20
1.01817
 11
21.9104
 21
1.00719
  0
LINE
  8
0
 10
21.9104
 20
1.00719
 11
21.9768
 21
0.915375
  0
LINE
  8
0
 10
21.9768
 20
0.915375
 11
21.9889
 21
0.899536
  0
LINE
  8
0
 10
21.9889
 20
0.899536
 11
22.0421
 21
0.833221
  0
LINE
  8
0
 10
22.0421
 20
0.833221
 11
22.0555
 21
0.817154
  0
LINE
  8
0
 10
22.0555
 20
0.817154
 11
22.0836
 21
0.784348
  0
LINE
  8
0
 10
22.0836
 20
0.784348
 11
22.0921
 21
0.774536
  0
LINE
  8
0
 10
22.0921
 20
0.774536
 11
22.1165
 21
0.747223
  0
LINE
  8
0
 10
22.1165
 20
0.747223
 11
22.1236
 21
0.739365
  0
LINE
  8
0
 10
22.1236
 20
0.739365
 11
22.1684
 21
0.691589
  0
LINE
  8
0
 10
22.1684
 20
0.691589
 11
22.1819
 21
0.677628
  0
LINE
  8
0
 10
22.1819
 20
0.677628
 11
22.2194
 21
0.639877
  0
LINE
  8
0
 10
22.2194
 20
0.639877
 11
22.2349
 21
0.624725
  0
LINE
  8
0
 10
22.2349
 20
0.624725
 11
22.2365
 21
0.622955
  0
LINE
  8
0
 10
22.2365
 20
0.622955
 11
22.2365
 21
0.623001
  0
LINE
  8
0
 10
22.2365
 20
0.623001
 11
22.2436
 21
0.61528
  0
LINE
  8
0
 10
22.2436
 20
0.61528
 11
22.2439
 21
0.615601
  0
LINE
  8
0
 10
22.2439
 20
0.615601
 11
22.2498
 21
0.60965
  0
LINE
  8
0
 10
22.2498
 20
0.60965
 11
22.2732
 21
0.632584
  0
LINE
  8
0
 10
22.2732
 20
0.632584
 11
22.792
 21
0.415176
  0
LINE
  8
0
 10
22.792
 20
0.415176
 11
22.7955
 21
0.409897
  0
LINE
  8
0
 10
22.7955
 20
0.409897
 11
22.799
 21
0.412231
  0
LINE
  8
0
 10
22.799
 20
0.412231
 11
22.8172
 21
0.404587
  0
LINE
  8
0
 10
22.8172
 20
0.404587
 11
22.8065
 21
0.396622
  0
LINE
  8
0
 10
22.8065
 20
0.396622
 11
22.8129
 21
0.388123
  0
LINE
  8
0
 10
22.8129
 20
0.388123
 11
22.8286
 21
0.399826
  0
LINE
  8
0
 10
22.8286
 20
0.399826
 11
22.84
 21
0.395065
  0
LINE
  8
0
 10
22.84
 20
0.395065
 11
22.8194
 21
0.378525
  0
LINE
  8
0
 10
22.8194
 20
0.378525
 11
22.851
 21
0.33905
  0
LINE
  8
0
 10
22.851
 20
0.33905
 11
22.8931
 21
0.372803
  0
LINE
  8
0
 10
22.8931
 20
0.372803
 11
22.8987
 21
0.370453
  0
LINE
  8
0
 10
22.8987
 20
0.370453
 11
22.8561
 21
0.333893
  0
LINE
  8
0
 10
22.8561
 20
0.333893
 11
22.8628
 21
0.326111
  0
LINE
  8
0
 10
22.8628
 20
0.326111
 11
22.9093
 21
0.366013
  0
LINE
  8
0
 10
22.9093
 20
0.366013
 11
22.9213
 21
0.360977
  0
LINE
  8
0
 10
22.9213
 20
0.360977
 11
22.8717
 21
0.314529
  0
LINE
  8
0
 10
22.8717
 20
0.314529
 11
22.9136
 21
0.269821
  0
LINE
  8
0
 10
22.9136
 20
0.269821
 11
22.9828
 21
0.334656
  0
LINE
  8
0
 10
22.9828
 20
0.334656
 11
22.9932
 21
0.327469
  0
LINE
  8
0
 10
22.9932
 20
0.327469
 11
22.926
 21
0.258759
  0
LINE
  8
0
 10
22.926
 20
0.258759
 11
22.933
 21
0.251923
  0
LINE
  8
0
 10
22.933
 20
0.251923
 11
23.0014
 21
0.321823
  0
LINE
  8
0
 10
23.0014
 20
0.321823
 11
23.0093
 21
0.316345
  0
LINE
  8
0
 10
23.0093
 20
0.316345
 11
22.9422
 21
0.241898
  0
LINE
  8
0
 10
22.9422
 20
0.241898
 11
22.9856
 21
0.202789
  0
LINE
  8
0
 10
22.9856
 20
0.202789
 11
23.0578
 21
0.282883
  0
LINE
  8
0
 10
23.0578
 20
0.282883
 11
23.0631
 21
0.279221
  0
LINE
  8
0
 10
23.0631
 20
0.279221
 11
22.9944
 21
0.196487
  0
LINE
  8
0
 10
22.9944
 20
0.196487
 11
23.0029
 21
0.189362
  0
LINE
  8
0
 10
23.0029
 20
0.189362
 11
23.0723
 21
0.272858
  0
LINE
  8
0
 10
23.0723
 20
0.272858
 11
23.076
 21
0.27034
  0
LINE
  8
0
 10
23.076
 20
0.27034
 11
23.009
 21
0.183624
  0
LINE
  8
0
 10
23.009
 20
0.183624
 11
23.0496
 21
0.152222
  0
LINE
  8
0
 10
23.0496
 20
0.152222
 11
23.1183
 21
0.241119
  0
LINE
  8
0
 10
23.1183
 20
0.241119
 11
23.1266
 21
0.235352
  0
LINE
  8
0
 10
23.1266
 20
0.235352
 11
23.0615
 21
0.144333
  0
LINE
  8
0
 10
23.0615
 20
0.144333
 11
23.0684
 21
0.139389
  0
LINE
  8
0
 10
23.0684
 20
0.139389
 11
23.1336
 21
0.23053
  0
LINE
  8
0
 10
23.1336
 20
0.23053
 11
23.1437
 21
0.223557
  0
LINE
  8
0
 10
23.1437
 20
0.223557
 11
23.082
 21
0.128616
  0
LINE
  8
0
 10
23.082
 20
0.128616
 11
23.1354
 21
0.0939484
  0
LINE
  8
0
 10
23.1354
 20
0.0939484
 11
23.1961
 21
0.187378
  0
LINE
  8
0
 10
23.1961
 20
0.187378
 11
23.2041
 21
0.181854
  0
LINE
  8
0
 10
23.2041
 20
0.181854
 11
23.1484
 21
0.087326
  0
LINE
  8
0
 10
23.1484
 20
0.087326
 11
23.1561
 21
0.0827484
  0
LINE
  8
0
 10
23.1561
 20
0.0827484
 11
23.2115
 21
0.176727
  0
LINE
  8
0
 10
23.2115
 20
0.176727
 11
23.2178
 21
0.172424
  0
LINE
  8
0
 10
23.2178
 20
0.172424
 11
23.2223
 21
0.173294
  0
LINE
  8
0
 10
23.2223
 20
0.173294
 11
23.1693
 21
0.0741272
  0
LINE
  8
0
 10
23.1693
 20
0.0741272
 11
23.2215
 21
0.0462799
  0
LINE
  8
0
 10
23.2215
 20
0.0462799
 11
23.2729
 21
0.142471
  0
LINE
  8
0
 10
23.2729
 20
0.142471
 11
23.2839
 21
0.134628
  0
LINE
  8
0
 10
23.2839
 20
0.134628
 11
23.238
 21
0.0391388
  0
LINE
  8
0
 10
23.238
 20
0.0391388
 11
23.2441
 21
0.0361633
  0
LINE
  8
0
 10
23.2441
 20
0.0361633
 11
23.2896
 21
0.130615
  0
LINE
  8
0
 10
23.2896
 20
0.130615
 11
23.3006
 21
0.122818
  0
LINE
  8
0
 10
23.3006
 20
0.122818
 11
23.2599
 21
0.0275726
  0
LINE
  8
0
 10
23.2599
 20
0.0275726
 11
23.3195
 21
0.00212097
  0
LINE
  8
0
 10
23.3195
 20
0.00212097
 11
23.3547
 21
0.0845947
  0
LINE
  8
0
 10
23.3547
 20
0.0845947
 11
23.3676
 21
0.0754547
  0
LINE
  8
0
 10
23.3676
 20
0.0754547
 11
23.3379
 21
-0.00386047
  0
LINE
  8
0
 10
23.3379
 20
-0.00386047
 11
23.3443
 21
-0.0062561
  0
LINE
  8
0
 10
23.3443
 20
-0.0062561
 11
23.3734
 21
0.0713806
  0
LINE
  8
0
 10
23.3734
 20
0.0713806
 11
24.1356
 21
-0.46756
  0
LINE
  8
0
 10
24.1356
 20
-0.46756
 11
24.9265
 21
-0.306839
  0
LINE
  8
0
 10
24.9265
 20
-0.306839
 11
25.8571
 21
-0.710648
  0
LINE
  8
0
 10
25.8571
 20
-0.710648
 11
27.4132
 21
0.135666
  0
LINE
  8
0
 10
20.5511
 20
48.4072
 11
20.5552
 21
48.4098
  0
LINE
  8
0
 10
20.5552
 20
48.4098
 11
20.5517
 21
48.4067
  0
LINE
  8
0
 10
20.5517
 20
48.4067
 11
20.5511
 21
48.4072
  0
LINE
  8
0
 10
0.0499878
 20
-0.0499878
 11
0.5
 21
-0.0499878
  0
LINE
  8
0
 10
0.5
 20
-0.0499878
 11
0.5
 21
0.0499878
  0
LINE
  8
0
 10
0.5
 20
0.0499878
 11
0.0499878
 21
0.0499878
  0
LINE
  8
0
 10
0.0499878
 20
0.0499878
 11
0.0499878
 21
0.5
  0
LINE
  8
0
 10
0.0499878
 20
0.5
 11
-0.0499878
 21
0.5
  0
LINE
  8
0
 10
-0.0499878
 20
0.5
 11
-0.0499878
 21
0.0499878
  0
LINE
  8
0
 10
-0.0499878
 20
0.0499878
 11
-0.5
 21
0.0499878
  0
LINE
  8
0
 10
-0.5
 20
0.0499878
 11
-0.5
 21
-0.0499878
  0
LINE
  8
0
 10
-0.5
 20
-0.0499878
 11
-0.0499878
 21
-0.0499878
  0
LINE
  8
0
 10
-0.0499878
 20
-0.0499878
 11
-0.0499878
 21
-0.5
  0
LINE
  8
0
 10
-0.0499878
 20
-0.5
 11
0.0499878
 21
-0.5
  0
LINE
  8
0
 10
0.0499878
 20
-0.5
 11
0.0499878
 21
-0.0499878
  0
ENDSEC
  0
SECTION
  2
OBJECTS
  0
DICTIONARY
  0
ENDSEC
  0
EOF
