%TF.GenerationSoftware,KiCad,Pcbnew,7.0.7*%
%TF.CreationDate,2023-11-30T15:47:58+01:00*%
%TF.ProjectId,geheimbadge,67656865-696d-4626-9164-67652e6b6963,0.1.0*%
%TF.SameCoordinates,Original*%
%TF.FileFunction,Soldermask,Top*%
%TF.FilePolarity,Negative*%
%FSLAX46Y46*%
G04 Gerber Fmt 4.6, Leading zero omitted, Abs format (unit mm)*
G04 Created by KiCad (PCBNEW 7.0.7) date 2023-11-30 15:47:58*
%MOMM*%
%LPD*%
G01*
G04 APERTURE LIST*
G04 APERTURE END LIST*
G36*
X89009643Y-91926735D02*
G01*
X89013024Y-91926139D01*
X89023113Y-91931964D01*
X89027002Y-91933259D01*
X89030266Y-91933728D01*
X89036821Y-91939407D01*
X89053033Y-91946967D01*
X98553033Y-101446967D01*
X98555703Y-101450781D01*
X98557453Y-101451791D01*
X98558580Y-101454889D01*
X98562406Y-101460353D01*
X98563122Y-101461309D01*
X98563142Y-101461404D01*
X98567974Y-101468304D01*
X98569401Y-101484617D01*
X98575000Y-101500000D01*
X98575000Y-119000000D01*
X98573282Y-119009741D01*
X98573861Y-119013024D01*
X98572194Y-119015909D01*
X98572163Y-119016085D01*
X98571993Y-119017273D01*
X98571939Y-119017355D01*
X98570477Y-119025652D01*
X98557951Y-119040579D01*
X98548209Y-119057453D01*
X98541850Y-119059767D01*
X98537500Y-119064952D01*
X98518848Y-119068240D01*
X98510220Y-119072181D01*
X98507139Y-119072401D01*
X98500000Y-119075000D01*
X98492693Y-119075000D01*
X96604757Y-119075000D01*
X96575000Y-119104757D01*
X96575000Y-125395243D01*
X96604757Y-125425000D01*
X98500000Y-125425000D01*
X98509741Y-125426717D01*
X98513024Y-125426139D01*
X98515909Y-125427805D01*
X98516047Y-125427829D01*
X98517275Y-125428006D01*
X98517360Y-125428061D01*
X98525652Y-125429523D01*
X98540579Y-125442048D01*
X98557453Y-125451791D01*
X98559767Y-125458149D01*
X98564952Y-125462500D01*
X98568240Y-125481148D01*
X98572181Y-125489779D01*
X98572401Y-125492860D01*
X98575000Y-125500000D01*
X98575000Y-126500000D01*
X98573282Y-126509741D01*
X98573861Y-126513024D01*
X98572194Y-126515909D01*
X98572163Y-126516085D01*
X98571993Y-126517273D01*
X98571939Y-126517355D01*
X98570477Y-126525652D01*
X98557951Y-126540579D01*
X98548209Y-126557453D01*
X98541850Y-126559767D01*
X98537500Y-126564952D01*
X98518848Y-126568240D01*
X98510220Y-126572181D01*
X98507139Y-126572401D01*
X98500000Y-126575000D01*
X98492693Y-126575000D01*
X96604757Y-126575000D01*
X96575000Y-126604757D01*
X96575000Y-132895243D01*
X96604757Y-132925000D01*
X98500000Y-132925000D01*
X98509741Y-132926717D01*
X98513024Y-132926139D01*
X98515909Y-132927805D01*
X98516047Y-132927829D01*
X98517275Y-132928006D01*
X98517360Y-132928061D01*
X98525652Y-132929523D01*
X98540579Y-132942048D01*
X98557453Y-132951791D01*
X98559767Y-132958149D01*
X98564952Y-132962500D01*
X98568240Y-132981148D01*
X98572181Y-132989779D01*
X98572401Y-132992860D01*
X98575000Y-133000000D01*
X98575000Y-153500000D01*
X98572163Y-153516085D01*
X98572157Y-153516127D01*
X98572445Y-153519412D01*
X98571285Y-153521068D01*
X98570477Y-153525652D01*
X98560690Y-153537315D01*
X98558324Y-153543659D01*
X98555686Y-153545634D01*
X98549488Y-153552291D01*
X98547707Y-153555062D01*
X98547376Y-153555213D01*
X98543018Y-153561437D01*
X98539704Y-153562324D01*
X98537500Y-153564952D01*
X98527535Y-153566709D01*
X98525462Y-153568261D01*
X98522175Y-153568496D01*
X98513363Y-153570746D01*
X98510368Y-153572113D01*
X98505683Y-153571439D01*
X98493464Y-153574714D01*
X98490356Y-153573264D01*
X98486976Y-153573861D01*
X98476884Y-153568034D01*
X98472995Y-153566740D01*
X98469734Y-153566271D01*
X98463181Y-153560593D01*
X98446967Y-153553033D01*
X88946967Y-144053033D01*
X88944296Y-144049219D01*
X88942547Y-144048209D01*
X88941418Y-144045108D01*
X88937616Y-144039678D01*
X88936877Y-144038691D01*
X88936855Y-144038591D01*
X88932027Y-144031696D01*
X88930599Y-144015384D01*
X88925000Y-144000000D01*
X88925000Y-143992700D01*
X88924999Y-143992697D01*
X88925000Y-92003630D01*
X88925000Y-92000000D01*
X88927823Y-91983985D01*
X88927841Y-91983862D01*
X88927555Y-91980589D01*
X88928714Y-91978932D01*
X88929523Y-91974348D01*
X88939306Y-91962688D01*
X88941675Y-91956338D01*
X88944314Y-91954363D01*
X88950509Y-91947709D01*
X88952289Y-91944938D01*
X88952625Y-91944784D01*
X88956982Y-91938563D01*
X88960295Y-91937675D01*
X88962500Y-91935048D01*
X88972462Y-91933291D01*
X88974539Y-91931737D01*
X88977825Y-91931502D01*
X88986633Y-91929254D01*
X88989630Y-91927885D01*
X88994319Y-91928559D01*
X89006536Y-91925286D01*
X89009643Y-91926735D01*
G37*
G36*
X111015994Y-91927853D02*
G01*
X111019412Y-91927555D01*
X111027700Y-91933358D01*
X111030264Y-91933727D01*
X111032753Y-91935884D01*
X111040572Y-91940523D01*
X111043660Y-91941675D01*
X111046498Y-91945466D01*
X111057453Y-91951791D01*
X111058625Y-91955013D01*
X111061437Y-91956982D01*
X111064451Y-91968234D01*
X111066287Y-91971900D01*
X111068262Y-91974538D01*
X111068880Y-91983187D01*
X111075000Y-92000000D01*
X111075000Y-144000000D01*
X111074191Y-144004585D01*
X111074714Y-144006536D01*
X111073320Y-144009524D01*
X111072160Y-144016106D01*
X111071992Y-144017275D01*
X111071939Y-144017356D01*
X111070477Y-144025652D01*
X111059951Y-144038195D01*
X111053033Y-144053033D01*
X101553033Y-153553033D01*
X101539633Y-153562414D01*
X101539620Y-153562425D01*
X101537500Y-153564952D01*
X101535509Y-153565303D01*
X101531696Y-153567973D01*
X101516526Y-153569300D01*
X101510367Y-153572113D01*
X101507107Y-153571645D01*
X101498020Y-153571970D01*
X101494802Y-153572669D01*
X101494459Y-153572541D01*
X101486976Y-153573861D01*
X101484005Y-153572146D01*
X101480589Y-153572445D01*
X101472298Y-153566639D01*
X101469733Y-153566271D01*
X101467246Y-153564115D01*
X101459425Y-153559475D01*
X101456339Y-153558324D01*
X101453501Y-153554533D01*
X101442547Y-153548209D01*
X101441374Y-153544986D01*
X101438563Y-153543018D01*
X101435549Y-153531769D01*
X101433712Y-153528099D01*
X101431737Y-153525461D01*
X101431118Y-153516809D01*
X101425000Y-153500000D01*
X101425000Y-133000000D01*
X101426717Y-132990258D01*
X101426139Y-132986976D01*
X101427805Y-132984090D01*
X101427828Y-132983960D01*
X101428006Y-132982723D01*
X101428061Y-132982636D01*
X101429523Y-132974348D01*
X101442048Y-132959420D01*
X101451791Y-132942547D01*
X101458149Y-132940232D01*
X101462500Y-132935048D01*
X101481143Y-132931760D01*
X101489779Y-132927817D01*
X101492866Y-132927596D01*
X101500000Y-132925000D01*
X103395243Y-132925000D01*
X103425000Y-132895243D01*
X103425000Y-126604757D01*
X103395243Y-126575000D01*
X101503634Y-126575000D01*
X101500000Y-126575000D01*
X101490258Y-126573282D01*
X101486976Y-126573861D01*
X101484090Y-126572194D01*
X101483923Y-126572165D01*
X101482725Y-126571993D01*
X101482641Y-126571939D01*
X101474348Y-126570477D01*
X101459420Y-126557951D01*
X101442547Y-126548209D01*
X101440232Y-126541850D01*
X101435048Y-126537500D01*
X101431760Y-126518853D01*
X101427817Y-126510219D01*
X101427596Y-126507133D01*
X101425000Y-126500000D01*
X101425000Y-125500000D01*
X101426717Y-125490258D01*
X101426139Y-125486976D01*
X101427805Y-125484090D01*
X101427828Y-125483960D01*
X101428006Y-125482723D01*
X101428061Y-125482636D01*
X101429523Y-125474348D01*
X101442048Y-125459420D01*
X101451791Y-125442547D01*
X101458149Y-125440232D01*
X101462500Y-125435048D01*
X101481143Y-125431760D01*
X101489779Y-125427817D01*
X101492866Y-125427596D01*
X101500000Y-125425000D01*
X103395243Y-125425000D01*
X103425000Y-125395243D01*
X103425000Y-119104757D01*
X103395243Y-119075000D01*
X101503634Y-119075000D01*
X101500000Y-119075000D01*
X101490258Y-119073282D01*
X101486976Y-119073861D01*
X101484090Y-119072194D01*
X101483923Y-119072165D01*
X101482725Y-119071993D01*
X101482641Y-119071939D01*
X101474348Y-119070477D01*
X101459420Y-119057951D01*
X101442547Y-119048209D01*
X101440232Y-119041850D01*
X101435048Y-119037500D01*
X101431760Y-119018853D01*
X101427817Y-119010219D01*
X101427596Y-119007133D01*
X101425000Y-119000000D01*
X101425000Y-101500000D01*
X101425808Y-101495414D01*
X101425286Y-101493464D01*
X101426679Y-101490475D01*
X101427825Y-101483977D01*
X101428005Y-101482726D01*
X101428061Y-101482638D01*
X101429523Y-101474348D01*
X101440048Y-101461804D01*
X101446967Y-101446967D01*
X101452129Y-101441804D01*
X101452131Y-101441802D01*
X110944400Y-91949533D01*
X110944403Y-91949530D01*
X110946967Y-91946967D01*
X110960304Y-91937627D01*
X110960387Y-91937565D01*
X110962500Y-91935048D01*
X110964489Y-91934697D01*
X110968304Y-91932026D01*
X110983471Y-91930699D01*
X110989633Y-91927885D01*
X110992893Y-91928354D01*
X111001977Y-91928029D01*
X111005195Y-91927329D01*
X111005541Y-91927458D01*
X111013024Y-91926139D01*
X111015994Y-91927853D01*
G37*
G36*
X105914200Y-151490865D02*
G01*
X105959619Y-151521213D01*
X106157609Y-151719203D01*
X106187957Y-151764622D01*
X106198614Y-151818198D01*
X106187957Y-151871773D01*
X106157609Y-151917193D01*
X105917193Y-152157609D01*
X105871773Y-152187957D01*
X105818198Y-152198614D01*
X105764622Y-152187957D01*
X105719203Y-152157609D01*
X105521213Y-151959619D01*
X105490865Y-151914200D01*
X105480208Y-151860624D01*
X105490865Y-151807049D01*
X105521213Y-151761629D01*
X105592308Y-151690534D01*
X105758089Y-151524752D01*
X105758092Y-151524749D01*
X105761629Y-151521213D01*
X105807049Y-151490865D01*
X105860624Y-151480208D01*
X105914200Y-151490865D01*
G37*
G36*
X94167824Y-151465738D02*
G01*
X94213244Y-151496086D01*
X94453660Y-151736502D01*
X94484008Y-151781922D01*
X94494665Y-151835497D01*
X94484008Y-151889073D01*
X94453660Y-151934492D01*
X94255670Y-152132482D01*
X94210251Y-152162830D01*
X94156675Y-152173487D01*
X94103100Y-152162830D01*
X94057680Y-152132482D01*
X93817264Y-151892066D01*
X93786916Y-151846646D01*
X93776259Y-151793071D01*
X93786916Y-151739495D01*
X93817264Y-151694076D01*
X93820806Y-151690534D01*
X94011714Y-151499625D01*
X94011717Y-151499622D01*
X94015254Y-151496086D01*
X94060673Y-151465738D01*
X94114249Y-151455081D01*
X94167824Y-151465738D01*
G37*
G36*
X105235378Y-150812043D02*
G01*
X105280797Y-150842391D01*
X105478787Y-151040381D01*
X105509135Y-151085800D01*
X105519792Y-151139376D01*
X105509135Y-151192951D01*
X105478787Y-151238371D01*
X105238371Y-151478787D01*
X105192951Y-151509135D01*
X105139376Y-151519792D01*
X105085800Y-151509135D01*
X105040381Y-151478787D01*
X104842391Y-151280797D01*
X104812043Y-151235378D01*
X104801386Y-151181802D01*
X104812043Y-151128227D01*
X104842391Y-151082807D01*
X104913486Y-151011712D01*
X105079267Y-150845930D01*
X105079270Y-150845927D01*
X105082807Y-150842391D01*
X105128227Y-150812043D01*
X105181802Y-150801386D01*
X105235378Y-150812043D01*
G37*
G36*
X94846646Y-150786916D02*
G01*
X94892066Y-150817264D01*
X95132482Y-151057680D01*
X95162830Y-151103100D01*
X95173487Y-151156675D01*
X95162830Y-151210251D01*
X95132482Y-151255670D01*
X94934492Y-151453660D01*
X94889073Y-151484008D01*
X94835497Y-151494665D01*
X94781922Y-151484008D01*
X94736502Y-151453660D01*
X94496086Y-151213244D01*
X94465738Y-151167824D01*
X94455081Y-151114249D01*
X94465738Y-151060673D01*
X94496086Y-151015254D01*
X94592959Y-150918381D01*
X94690536Y-150820803D01*
X94690539Y-150820800D01*
X94694076Y-150817264D01*
X94739495Y-150786916D01*
X94793071Y-150776259D01*
X94846646Y-150786916D01*
G37*
G36*
X106701045Y-149468812D02*
G01*
X107549573Y-150317340D01*
X107564217Y-150352696D01*
X107549573Y-150388051D01*
X107160664Y-150776960D01*
X107125309Y-150791604D01*
X107089953Y-150776960D01*
X107086416Y-150773423D01*
X107086413Y-150773421D01*
X107024589Y-150711595D01*
X106991118Y-150706783D01*
X106911132Y-150750460D01*
X106819491Y-150770394D01*
X106806678Y-150777391D01*
X106665689Y-150918381D01*
X106630334Y-150933025D01*
X106594979Y-150918381D01*
X106206070Y-150529472D01*
X106191426Y-150494117D01*
X106193339Y-150489496D01*
X106193341Y-150489491D01*
X106204155Y-150463384D01*
X106204156Y-150463381D01*
X106206070Y-150458762D01*
X106209604Y-150455227D01*
X106209606Y-150455225D01*
X106242949Y-150421881D01*
X106250255Y-150397002D01*
X106249094Y-150391665D01*
X106247827Y-150388268D01*
X106247568Y-150384650D01*
X106247567Y-150384645D01*
X106237932Y-150249933D01*
X106237932Y-150249927D01*
X106237674Y-150246315D01*
X106238444Y-150242772D01*
X106238445Y-150242767D01*
X106267152Y-150110801D01*
X106267154Y-150110793D01*
X106267925Y-150107253D01*
X106269662Y-150104070D01*
X106269666Y-150104062D01*
X106311601Y-150027266D01*
X106306789Y-149993795D01*
X106244962Y-149931969D01*
X106244961Y-149931968D01*
X106241425Y-149928432D01*
X106226781Y-149893076D01*
X106228694Y-149888455D01*
X106228696Y-149888450D01*
X106239510Y-149862343D01*
X106239511Y-149862340D01*
X106241425Y-149857721D01*
X106244958Y-149854187D01*
X106244961Y-149854184D01*
X106626796Y-149472349D01*
X106626799Y-149472346D01*
X106630334Y-149468812D01*
X106640591Y-149464563D01*
X106661064Y-149456083D01*
X106661067Y-149456082D01*
X106665689Y-149454168D01*
X106701045Y-149468812D01*
G37*
G36*
X93357317Y-149437697D02*
G01*
X93357321Y-149437698D01*
X93383428Y-149448512D01*
X93388051Y-149450427D01*
X93776960Y-149839336D01*
X93791604Y-149874691D01*
X93776960Y-149910047D01*
X93711594Y-149975411D01*
X93706782Y-150008881D01*
X93750460Y-150088868D01*
X93751231Y-150092414D01*
X93751232Y-150092416D01*
X93755231Y-150110801D01*
X93780711Y-150227930D01*
X93770558Y-150369883D01*
X93769283Y-150373300D01*
X93768128Y-150378606D01*
X93775431Y-150403492D01*
X93790266Y-150418327D01*
X93808777Y-150436838D01*
X93808778Y-150436840D01*
X93812315Y-150440377D01*
X93826959Y-150475732D01*
X93812315Y-150511087D01*
X93423406Y-150899996D01*
X93388051Y-150914640D01*
X93352696Y-150899996D01*
X93211707Y-150759007D01*
X93198891Y-150752009D01*
X93107253Y-150732075D01*
X93060935Y-150706783D01*
X93027266Y-150688398D01*
X92993796Y-150693209D01*
X92928432Y-150758575D01*
X92893076Y-150773219D01*
X92857721Y-150758575D01*
X92468812Y-150369666D01*
X92454168Y-150334311D01*
X92456080Y-150329693D01*
X92456081Y-150329691D01*
X92466898Y-150303575D01*
X92466899Y-150303573D01*
X92468812Y-150298955D01*
X92472345Y-150295421D01*
X92472348Y-150295418D01*
X93313801Y-149453965D01*
X93313804Y-149453962D01*
X93317340Y-149450427D01*
X93321959Y-149448513D01*
X93321962Y-149448512D01*
X93348076Y-149437696D01*
X93348078Y-149437695D01*
X93352696Y-149435783D01*
X93357317Y-149437697D01*
G37*
G36*
X108185969Y-149680944D02*
G01*
X107867771Y-149999142D01*
X107019243Y-149150614D01*
X107022784Y-149147073D01*
X107333903Y-148835953D01*
X107333906Y-148835950D01*
X107337441Y-148832416D01*
X108185969Y-149680944D01*
G37*
G36*
X92662560Y-148832416D02*
G01*
X92977218Y-149147073D01*
X92977219Y-149147075D01*
X92980757Y-149150613D01*
X92695587Y-149435783D01*
X92135769Y-149995602D01*
X92135765Y-149995604D01*
X92132229Y-149999141D01*
X91810494Y-149677406D01*
X91640793Y-149507706D01*
X91640790Y-149507702D01*
X91637255Y-149504167D01*
X91640792Y-149500629D01*
X91640795Y-149500626D01*
X92482242Y-148659177D01*
X92482251Y-148659170D01*
X92485783Y-148655639D01*
X92662560Y-148832416D01*
G37*
G36*
X108154152Y-148022782D02*
G01*
X108154153Y-148022783D01*
X108995602Y-148864230D01*
X108995606Y-148864236D01*
X108999141Y-148867771D01*
X108504167Y-149362745D01*
X108292034Y-149150612D01*
X107659177Y-148517757D01*
X107659172Y-148517750D01*
X107655639Y-148514217D01*
X107659178Y-148510677D01*
X108147073Y-148022781D01*
X108147079Y-148022776D01*
X108150613Y-148019243D01*
X108154152Y-148022782D01*
G37*
G36*
X92167584Y-148337441D02*
G01*
X91319056Y-149185969D01*
X91000858Y-148867771D01*
X91357952Y-148510677D01*
X91845848Y-148022780D01*
X91845851Y-148022777D01*
X91849386Y-148019243D01*
X92167584Y-148337441D01*
G37*
G36*
X90510504Y-147193340D02*
G01*
X90510508Y-147193341D01*
X90536615Y-147204155D01*
X90541238Y-147206070D01*
X90544774Y-147209606D01*
X90544777Y-147209608D01*
X90578117Y-147242948D01*
X90602994Y-147250255D01*
X90608338Y-147249092D01*
X90611732Y-147247827D01*
X90615345Y-147247568D01*
X90615348Y-147247568D01*
X90750066Y-147237932D01*
X90750071Y-147237932D01*
X90753685Y-147237674D01*
X90757227Y-147238444D01*
X90757232Y-147238445D01*
X90889198Y-147267152D01*
X90889204Y-147267154D01*
X90892747Y-147267925D01*
X90895932Y-147269664D01*
X90895934Y-147269665D01*
X90972733Y-147311601D01*
X91006204Y-147306789D01*
X91068027Y-147244964D01*
X91068033Y-147244959D01*
X91071568Y-147241425D01*
X91076187Y-147239511D01*
X91076190Y-147239510D01*
X91102304Y-147228694D01*
X91102306Y-147228693D01*
X91106924Y-147226781D01*
X91111545Y-147228695D01*
X91111549Y-147228696D01*
X91137656Y-147239510D01*
X91142279Y-147241425D01*
X91531188Y-147630334D01*
X91545832Y-147665689D01*
X91531188Y-147701045D01*
X90682660Y-148549573D01*
X90647304Y-148564217D01*
X90611949Y-148549573D01*
X90223040Y-148160664D01*
X90208396Y-148125309D01*
X90210308Y-148120691D01*
X90210309Y-148120689D01*
X90221126Y-148094573D01*
X90221127Y-148094571D01*
X90223040Y-148089953D01*
X90226573Y-148086419D01*
X90226578Y-148086413D01*
X90288404Y-148024589D01*
X90293216Y-147991118D01*
X90251280Y-147914319D01*
X90251279Y-147914317D01*
X90249540Y-147911132D01*
X90248769Y-147907589D01*
X90248767Y-147907583D01*
X90229606Y-147819495D01*
X90222606Y-147806676D01*
X90081619Y-147665689D01*
X90066975Y-147630334D01*
X90068888Y-147625713D01*
X90068890Y-147625708D01*
X90079704Y-147599601D01*
X90079705Y-147599598D01*
X90081619Y-147594979D01*
X90085152Y-147591445D01*
X90085155Y-147591442D01*
X90466990Y-147209607D01*
X90466993Y-147209604D01*
X90470528Y-147206070D01*
X90480785Y-147201821D01*
X90501258Y-147193341D01*
X90501261Y-147193340D01*
X90505883Y-147191426D01*
X90510504Y-147193340D01*
G37*
G36*
X109480353Y-147174955D02*
G01*
X109480357Y-147174956D01*
X109506464Y-147185770D01*
X109511087Y-147187685D01*
X109899996Y-147576594D01*
X109914640Y-147611949D01*
X109899996Y-147647304D01*
X109759006Y-147788293D01*
X109752009Y-147801106D01*
X109732075Y-147892747D01*
X109688398Y-147972733D01*
X109693209Y-148006203D01*
X109758575Y-148071568D01*
X109773219Y-148106924D01*
X109758575Y-148142279D01*
X109369666Y-148531188D01*
X109334311Y-148545832D01*
X109298955Y-148531188D01*
X108450427Y-147682660D01*
X108435783Y-147647304D01*
X108437696Y-147642683D01*
X108437698Y-147642678D01*
X108448512Y-147616571D01*
X108448513Y-147616568D01*
X108450427Y-147611949D01*
X108453960Y-147608415D01*
X108453963Y-147608412D01*
X108835798Y-147226577D01*
X108835801Y-147226574D01*
X108839336Y-147223040D01*
X108849593Y-147218791D01*
X108870066Y-147210311D01*
X108870069Y-147210310D01*
X108874691Y-147208396D01*
X108910047Y-147223040D01*
X108913582Y-147226575D01*
X108913586Y-147226578D01*
X108975410Y-147288404D01*
X109008881Y-147293216D01*
X109085677Y-147251281D01*
X109085685Y-147251277D01*
X109088868Y-147249540D01*
X109092408Y-147248769D01*
X109092416Y-147248767D01*
X109224382Y-147220060D01*
X109224387Y-147220059D01*
X109227930Y-147219289D01*
X109231542Y-147219547D01*
X109231548Y-147219547D01*
X109366260Y-147229182D01*
X109366265Y-147229183D01*
X109369883Y-147229442D01*
X109373280Y-147230709D01*
X109378617Y-147231870D01*
X109403496Y-147224564D01*
X109436840Y-147191221D01*
X109436842Y-147191219D01*
X109440377Y-147187685D01*
X109444996Y-147185771D01*
X109444999Y-147185770D01*
X109471106Y-147174956D01*
X109471111Y-147174954D01*
X109475732Y-147173041D01*
X109480353Y-147174955D01*
G37*
G36*
X100648355Y-147264645D02*
G01*
X100663000Y-147300000D01*
X100663000Y-147850000D01*
X100648355Y-147885355D01*
X100613000Y-147900000D01*
X100607996Y-147900000D01*
X100520560Y-147900000D01*
X100493491Y-147920264D01*
X100467816Y-148007708D01*
X100417114Y-148086600D01*
X100413000Y-148100615D01*
X100413000Y-148300000D01*
X100398355Y-148335355D01*
X100363000Y-148350000D01*
X100357996Y-148350000D01*
X99818004Y-148350000D01*
X99813000Y-148350000D01*
X99777645Y-148335355D01*
X99775730Y-148330732D01*
X99775729Y-148330731D01*
X99764915Y-148304623D01*
X99763000Y-148300000D01*
X99763000Y-148247843D01*
X99750572Y-148225083D01*
X99745992Y-148222139D01*
X99742680Y-148220627D01*
X99635125Y-148127430D01*
X99567872Y-148022783D01*
X99560146Y-148010761D01*
X99560145Y-148010760D01*
X99558184Y-148007708D01*
X99557162Y-148004227D01*
X99557160Y-148004223D01*
X99545548Y-147964674D01*
X99532508Y-147920264D01*
X99505440Y-147900000D01*
X99413000Y-147900000D01*
X99377645Y-147885355D01*
X99375730Y-147880732D01*
X99375729Y-147880731D01*
X99364915Y-147854623D01*
X99363000Y-147850000D01*
X99363000Y-147300000D01*
X99367803Y-147288404D01*
X99375730Y-147269267D01*
X99375731Y-147269265D01*
X99377645Y-147264645D01*
X99382263Y-147262731D01*
X99382268Y-147262729D01*
X99408376Y-147251915D01*
X99408377Y-147251914D01*
X99413000Y-147250000D01*
X100613000Y-147250000D01*
X100648355Y-147264645D01*
G37*
G36*
X100613000Y-146800000D02*
G01*
X99413000Y-146800000D01*
X99413000Y-146350000D01*
X100613000Y-146350000D01*
X100613000Y-146800000D01*
G37*
G36*
X100613000Y-145900000D02*
G01*
X99413000Y-145900000D01*
X99413000Y-145200000D01*
X100613000Y-145200000D01*
X100613000Y-145900000D01*
G37*
G36*
X100372355Y-143664645D02*
G01*
X100387000Y-143700000D01*
X100387000Y-143870188D01*
X100387000Y-143899384D01*
X100391115Y-143913400D01*
X100441816Y-143992292D01*
X100467491Y-144079735D01*
X100494560Y-144100000D01*
X100581996Y-144100000D01*
X100587000Y-144100000D01*
X100622355Y-144114645D01*
X100637000Y-144150000D01*
X100637000Y-144700000D01*
X100622355Y-144735355D01*
X100587000Y-144750000D01*
X100581996Y-144750000D01*
X99392004Y-144750000D01*
X99387000Y-144750000D01*
X99351645Y-144735355D01*
X99349730Y-144730732D01*
X99349729Y-144730731D01*
X99338915Y-144704623D01*
X99337000Y-144700000D01*
X99337000Y-144150000D01*
X99351645Y-144114645D01*
X99356263Y-144112731D01*
X99356268Y-144112729D01*
X99382376Y-144101915D01*
X99382377Y-144101914D01*
X99387000Y-144100000D01*
X99479440Y-144100000D01*
X99506508Y-144079735D01*
X99522389Y-144025652D01*
X99531160Y-143995776D01*
X99531162Y-143995769D01*
X99532184Y-143992292D01*
X99534144Y-143989241D01*
X99534146Y-143989238D01*
X99607160Y-143875627D01*
X99607161Y-143875625D01*
X99609125Y-143872570D01*
X99611870Y-143870191D01*
X99611873Y-143870188D01*
X99713934Y-143781752D01*
X99713935Y-143781750D01*
X99716680Y-143779373D01*
X99719972Y-143777869D01*
X99724578Y-143774908D01*
X99737000Y-143752153D01*
X99737000Y-143705004D01*
X99737000Y-143705003D01*
X99737000Y-143700000D01*
X99751645Y-143664645D01*
X99756263Y-143662731D01*
X99756268Y-143662729D01*
X99782376Y-143651915D01*
X99782377Y-143651914D01*
X99787000Y-143650000D01*
X100337000Y-143650000D01*
X100372355Y-143664645D01*
G37*
G36*
X99713576Y-142200657D02*
G01*
X99758995Y-142231005D01*
X99789343Y-142276424D01*
X99800000Y-142330000D01*
X99800000Y-142670000D01*
X99789343Y-142723576D01*
X99758995Y-142768995D01*
X99713576Y-142799343D01*
X99660000Y-142810000D01*
X99380000Y-142810000D01*
X99326424Y-142799343D01*
X99281005Y-142768995D01*
X99250657Y-142723576D01*
X99240000Y-142670000D01*
X99240000Y-142330000D01*
X99250657Y-142276424D01*
X99281005Y-142231005D01*
X99326424Y-142200657D01*
X99380000Y-142190000D01*
X99660000Y-142190000D01*
X99713576Y-142200657D01*
G37*
G36*
X100673576Y-142200657D02*
G01*
X100718995Y-142231005D01*
X100749343Y-142276424D01*
X100760000Y-142330000D01*
X100760000Y-142670000D01*
X100749343Y-142723576D01*
X100718995Y-142768995D01*
X100673576Y-142799343D01*
X100620000Y-142810000D01*
X100340000Y-142810000D01*
X100286424Y-142799343D01*
X100241005Y-142768995D01*
X100210657Y-142723576D01*
X100200000Y-142670000D01*
X100200000Y-142330000D01*
X100210657Y-142276424D01*
X100241005Y-142231005D01*
X100286424Y-142200657D01*
X100340000Y-142190000D01*
X100620000Y-142190000D01*
X100673576Y-142200657D01*
G37*
G36*
X87213576Y-139200657D02*
G01*
X87258995Y-139231005D01*
X87289343Y-139276424D01*
X87300000Y-139330000D01*
X87300000Y-139670000D01*
X87289343Y-139723576D01*
X87258995Y-139768995D01*
X87213576Y-139799343D01*
X87160000Y-139810000D01*
X86880000Y-139810000D01*
X86826424Y-139799343D01*
X86781005Y-139768995D01*
X86750657Y-139723576D01*
X86740000Y-139670000D01*
X86740000Y-139330000D01*
X86750657Y-139276424D01*
X86781005Y-139231005D01*
X86826424Y-139200657D01*
X86880000Y-139190000D01*
X87160000Y-139190000D01*
X87213576Y-139200657D01*
G37*
G36*
X88173576Y-139200657D02*
G01*
X88218995Y-139231005D01*
X88249343Y-139276424D01*
X88260000Y-139330000D01*
X88260000Y-139670000D01*
X88249343Y-139723576D01*
X88218995Y-139768995D01*
X88173576Y-139799343D01*
X88120000Y-139810000D01*
X87840000Y-139810000D01*
X87786424Y-139799343D01*
X87741005Y-139768995D01*
X87710657Y-139723576D01*
X87700000Y-139670000D01*
X87700000Y-139330000D01*
X87710657Y-139276424D01*
X87741005Y-139231005D01*
X87786424Y-139200657D01*
X87840000Y-139190000D01*
X88120000Y-139190000D01*
X88173576Y-139200657D01*
G37*
G36*
X99713576Y-139200657D02*
G01*
X99758995Y-139231005D01*
X99789343Y-139276424D01*
X99800000Y-139330000D01*
X99800000Y-139670000D01*
X99789343Y-139723576D01*
X99758995Y-139768995D01*
X99713576Y-139799343D01*
X99660000Y-139810000D01*
X99380000Y-139810000D01*
X99326424Y-139799343D01*
X99281005Y-139768995D01*
X99250657Y-139723576D01*
X99240000Y-139670000D01*
X99240000Y-139330000D01*
X99250657Y-139276424D01*
X99281005Y-139231005D01*
X99326424Y-139200657D01*
X99380000Y-139190000D01*
X99660000Y-139190000D01*
X99713576Y-139200657D01*
G37*
G36*
X100673576Y-139200657D02*
G01*
X100718995Y-139231005D01*
X100749343Y-139276424D01*
X100760000Y-139330000D01*
X100760000Y-139670000D01*
X100749343Y-139723576D01*
X100718995Y-139768995D01*
X100673576Y-139799343D01*
X100620000Y-139810000D01*
X100340000Y-139810000D01*
X100286424Y-139799343D01*
X100241005Y-139768995D01*
X100210657Y-139723576D01*
X100200000Y-139670000D01*
X100200000Y-139330000D01*
X100210657Y-139276424D01*
X100241005Y-139231005D01*
X100286424Y-139200657D01*
X100340000Y-139190000D01*
X100620000Y-139190000D01*
X100673576Y-139200657D01*
G37*
G36*
X88148355Y-137264645D02*
G01*
X88163000Y-137300000D01*
X88163000Y-137850000D01*
X88148355Y-137885355D01*
X88113000Y-137900000D01*
X88107996Y-137900000D01*
X88020560Y-137900000D01*
X87993491Y-137920264D01*
X87967816Y-138007708D01*
X87890875Y-138127430D01*
X87783320Y-138220627D01*
X87780006Y-138222140D01*
X87775428Y-138225083D01*
X87763000Y-138247843D01*
X87763000Y-138300000D01*
X87748355Y-138335355D01*
X87713000Y-138350000D01*
X87707996Y-138350000D01*
X87168004Y-138350000D01*
X87163000Y-138350000D01*
X87127645Y-138335355D01*
X87125730Y-138330732D01*
X87125729Y-138330731D01*
X87114915Y-138304623D01*
X87113000Y-138300000D01*
X87113000Y-138100615D01*
X87108885Y-138086600D01*
X87058184Y-138007708D01*
X87057162Y-138004227D01*
X87057160Y-138004223D01*
X87045548Y-137964674D01*
X87032508Y-137920264D01*
X87005440Y-137900000D01*
X86913000Y-137900000D01*
X86877645Y-137885355D01*
X86875730Y-137880732D01*
X86875729Y-137880731D01*
X86864915Y-137854623D01*
X86863000Y-137850000D01*
X86863000Y-137300000D01*
X86877645Y-137264645D01*
X86882263Y-137262731D01*
X86882268Y-137262729D01*
X86908376Y-137251915D01*
X86908377Y-137251914D01*
X86913000Y-137250000D01*
X88113000Y-137250000D01*
X88148355Y-137264645D01*
G37*
G36*
X100648355Y-137264645D02*
G01*
X100663000Y-137300000D01*
X100663000Y-137850000D01*
X100648355Y-137885355D01*
X100613000Y-137900000D01*
X100607996Y-137900000D01*
X100520560Y-137900000D01*
X100493491Y-137920264D01*
X100467816Y-138007708D01*
X100390875Y-138127430D01*
X100283320Y-138220627D01*
X100280006Y-138222140D01*
X100275428Y-138225083D01*
X100263000Y-138247843D01*
X100263000Y-138300000D01*
X100248355Y-138335355D01*
X100213000Y-138350000D01*
X100207996Y-138350000D01*
X99668004Y-138350000D01*
X99663000Y-138350000D01*
X99627645Y-138335355D01*
X99625730Y-138330732D01*
X99625729Y-138330731D01*
X99614915Y-138304623D01*
X99613000Y-138300000D01*
X99613000Y-138100615D01*
X99608885Y-138086600D01*
X99558184Y-138007708D01*
X99557162Y-138004227D01*
X99557160Y-138004223D01*
X99545548Y-137964674D01*
X99532508Y-137920264D01*
X99505440Y-137900000D01*
X99413000Y-137900000D01*
X99377645Y-137885355D01*
X99375730Y-137880732D01*
X99375729Y-137880731D01*
X99364915Y-137854623D01*
X99363000Y-137850000D01*
X99363000Y-137300000D01*
X99377645Y-137264645D01*
X99382263Y-137262731D01*
X99382268Y-137262729D01*
X99408376Y-137251915D01*
X99408377Y-137251914D01*
X99413000Y-137250000D01*
X100613000Y-137250000D01*
X100648355Y-137264645D01*
G37*
G36*
X113148355Y-137264645D02*
G01*
X113163000Y-137300000D01*
X113163000Y-137850000D01*
X113148355Y-137885355D01*
X113113000Y-137900000D01*
X113107996Y-137900000D01*
X113020560Y-137900000D01*
X112993491Y-137920264D01*
X112967816Y-138007708D01*
X112917114Y-138086600D01*
X112913000Y-138100611D01*
X112913000Y-138300000D01*
X112898355Y-138335355D01*
X112863000Y-138350000D01*
X112857996Y-138350000D01*
X112318004Y-138350000D01*
X112313000Y-138350000D01*
X112277645Y-138335355D01*
X112275730Y-138330732D01*
X112275729Y-138330731D01*
X112264915Y-138304623D01*
X112263000Y-138300000D01*
X112263000Y-138247843D01*
X112250572Y-138225083D01*
X112245992Y-138222139D01*
X112242680Y-138220627D01*
X112135125Y-138127430D01*
X112058184Y-138007708D01*
X112057162Y-138004227D01*
X112057160Y-138004223D01*
X112045548Y-137964674D01*
X112032508Y-137920264D01*
X112005440Y-137900000D01*
X111913000Y-137900000D01*
X111877645Y-137885355D01*
X111875730Y-137880732D01*
X111875729Y-137880731D01*
X111864915Y-137854623D01*
X111863000Y-137850000D01*
X111863000Y-137300000D01*
X111877645Y-137264645D01*
X111882263Y-137262731D01*
X111882268Y-137262729D01*
X111908376Y-137251915D01*
X111908377Y-137251914D01*
X111913000Y-137250000D01*
X113113000Y-137250000D01*
X113148355Y-137264645D01*
G37*
G36*
X86009741Y-91926717D02*
G01*
X86013024Y-91926139D01*
X86015909Y-91927805D01*
X86016047Y-91927829D01*
X86017275Y-91928006D01*
X86017360Y-91928061D01*
X86025652Y-91929523D01*
X86040579Y-91942048D01*
X86057453Y-91951791D01*
X86059767Y-91958149D01*
X86064952Y-91962500D01*
X86068240Y-91981148D01*
X86072181Y-91989779D01*
X86072401Y-91992860D01*
X86075000Y-92000000D01*
X86075000Y-137000000D01*
X86072163Y-137016085D01*
X86072157Y-137016131D01*
X86072444Y-137019411D01*
X86071285Y-137021065D01*
X86070477Y-137025652D01*
X86060690Y-137037315D01*
X86058324Y-137043659D01*
X86055686Y-137045634D01*
X86049488Y-137052291D01*
X86047707Y-137055062D01*
X86047375Y-137055213D01*
X86043018Y-137061437D01*
X86039704Y-137062324D01*
X86037500Y-137064952D01*
X86027535Y-137066709D01*
X86025462Y-137068261D01*
X86022175Y-137068496D01*
X86013363Y-137070746D01*
X86010368Y-137072113D01*
X86005683Y-137071439D01*
X85993463Y-137074714D01*
X85990355Y-137073265D01*
X85986976Y-137073861D01*
X85976884Y-137068034D01*
X85972995Y-137066740D01*
X85969734Y-137066271D01*
X85963182Y-137060594D01*
X85946967Y-137053033D01*
X76946967Y-128053033D01*
X76944296Y-128049219D01*
X76942547Y-128048209D01*
X76941418Y-128045108D01*
X76937616Y-128039678D01*
X76936877Y-128038691D01*
X76936855Y-128038591D01*
X76932027Y-128031696D01*
X76930599Y-128015384D01*
X76925000Y-128000000D01*
X76925000Y-92000000D01*
X76926717Y-91990258D01*
X76926139Y-91986976D01*
X76927805Y-91984090D01*
X76927828Y-91983960D01*
X76928006Y-91982723D01*
X76928061Y-91982636D01*
X76929523Y-91974348D01*
X76942048Y-91959420D01*
X76951791Y-91942547D01*
X76958149Y-91940232D01*
X76962500Y-91935048D01*
X76981143Y-91931760D01*
X76989779Y-91927817D01*
X76992866Y-91927596D01*
X77000000Y-91925000D01*
X86000000Y-91925000D01*
X86009741Y-91926717D01*
G37*
G36*
X123009741Y-91926717D02*
G01*
X123013024Y-91926139D01*
X123015909Y-91927805D01*
X123016047Y-91927829D01*
X123017275Y-91928006D01*
X123017360Y-91928061D01*
X123025652Y-91929523D01*
X123040579Y-91942048D01*
X123057453Y-91951791D01*
X123059767Y-91958149D01*
X123064952Y-91962500D01*
X123068240Y-91981148D01*
X123072181Y-91989779D01*
X123072401Y-91992860D01*
X123075000Y-92000000D01*
X123075000Y-128000000D01*
X123074191Y-128004586D01*
X123074714Y-128006537D01*
X123073320Y-128009525D01*
X123072160Y-128016106D01*
X123071992Y-128017275D01*
X123071939Y-128017356D01*
X123070477Y-128025652D01*
X123059951Y-128038195D01*
X123053033Y-128053033D01*
X114053033Y-137053033D01*
X114039633Y-137062414D01*
X114039620Y-137062425D01*
X114037500Y-137064952D01*
X114035509Y-137065303D01*
X114031696Y-137067973D01*
X114016526Y-137069300D01*
X114010367Y-137072113D01*
X114007107Y-137071645D01*
X113998020Y-137071970D01*
X113994802Y-137072669D01*
X113994459Y-137072541D01*
X113986976Y-137073861D01*
X113984005Y-137072146D01*
X113980589Y-137072445D01*
X113972298Y-137066639D01*
X113969733Y-137066271D01*
X113967246Y-137064115D01*
X113959425Y-137059475D01*
X113956339Y-137058324D01*
X113953501Y-137054533D01*
X113942547Y-137048209D01*
X113941374Y-137044986D01*
X113938563Y-137043018D01*
X113935549Y-137031769D01*
X113933712Y-137028099D01*
X113931737Y-137025461D01*
X113931118Y-137016809D01*
X113925000Y-137000000D01*
X113925000Y-92000000D01*
X113926717Y-91990258D01*
X113926139Y-91986976D01*
X113927805Y-91984090D01*
X113927828Y-91983960D01*
X113928006Y-91982723D01*
X113928061Y-91982636D01*
X113929523Y-91974348D01*
X113942048Y-91959420D01*
X113951791Y-91942547D01*
X113958149Y-91940232D01*
X113962500Y-91935048D01*
X113981143Y-91931760D01*
X113989779Y-91927817D01*
X113992866Y-91927596D01*
X114000000Y-91925000D01*
X123000000Y-91925000D01*
X123009741Y-91926717D01*
G37*
G36*
X88087000Y-136800000D02*
G01*
X86887000Y-136800000D01*
X86887000Y-136100000D01*
X88087000Y-136100000D01*
X88087000Y-136800000D01*
G37*
G36*
X100587000Y-136800000D02*
G01*
X99387000Y-136800000D01*
X99387000Y-136100000D01*
X100587000Y-136100000D01*
X100587000Y-136800000D01*
G37*
G36*
X113113000Y-136800000D02*
G01*
X111913000Y-136800000D01*
X111913000Y-136350000D01*
X113113000Y-136350000D01*
X113113000Y-136800000D01*
G37*
G36*
X82167824Y-135465738D02*
G01*
X82213244Y-135496086D01*
X82453660Y-135736502D01*
X82484008Y-135781922D01*
X82494665Y-135835497D01*
X82484008Y-135889073D01*
X82453660Y-135934492D01*
X82255670Y-136132482D01*
X82210251Y-136162830D01*
X82156675Y-136173487D01*
X82103100Y-136162830D01*
X82057680Y-136132482D01*
X81817264Y-135892066D01*
X81786916Y-135846646D01*
X81776259Y-135793071D01*
X81786916Y-135739495D01*
X81817264Y-135694076D01*
X81866345Y-135644995D01*
X82011714Y-135499625D01*
X82011717Y-135499622D01*
X82015254Y-135496086D01*
X82060673Y-135465738D01*
X82114249Y-135455081D01*
X82167824Y-135465738D01*
G37*
G36*
X113113000Y-135900000D02*
G01*
X111913000Y-135900000D01*
X111913000Y-135200000D01*
X113113000Y-135200000D01*
X113113000Y-135900000D01*
G37*
G36*
X88087000Y-135650000D02*
G01*
X86887000Y-135650000D01*
X86887000Y-135200000D01*
X88087000Y-135200000D01*
X88087000Y-135650000D01*
G37*
G36*
X100587000Y-135650000D02*
G01*
X99387000Y-135650000D01*
X99387000Y-135200000D01*
X100587000Y-135200000D01*
X100587000Y-135650000D01*
G37*
G36*
X82846646Y-134786916D02*
G01*
X82892066Y-134817264D01*
X83132482Y-135057680D01*
X83162830Y-135103100D01*
X83173487Y-135156675D01*
X83162830Y-135210251D01*
X83132482Y-135255670D01*
X82934492Y-135453660D01*
X82889073Y-135484008D01*
X82835497Y-135494665D01*
X82781922Y-135484008D01*
X82736502Y-135453660D01*
X82496086Y-135213244D01*
X82465738Y-135167824D01*
X82455081Y-135114249D01*
X82465738Y-135060673D01*
X82496086Y-135015254D01*
X82592959Y-134918381D01*
X82690536Y-134820803D01*
X82690539Y-134820800D01*
X82694076Y-134817264D01*
X82739495Y-134786916D01*
X82793071Y-134776259D01*
X82846646Y-134786916D01*
G37*
G36*
X118701045Y-133468812D02*
G01*
X119549573Y-134317340D01*
X119564217Y-134352696D01*
X119549573Y-134388051D01*
X119160664Y-134776960D01*
X119125309Y-134791604D01*
X119089953Y-134776960D01*
X119086416Y-134773423D01*
X119086413Y-134773421D01*
X119024589Y-134711595D01*
X118991118Y-134706783D01*
X118911132Y-134750460D01*
X118819491Y-134770394D01*
X118806678Y-134777391D01*
X118665689Y-134918381D01*
X118630334Y-134933025D01*
X118594979Y-134918381D01*
X118206070Y-134529472D01*
X118191426Y-134494117D01*
X118193339Y-134489496D01*
X118193341Y-134489491D01*
X118204155Y-134463384D01*
X118204156Y-134463381D01*
X118206070Y-134458762D01*
X118209604Y-134455227D01*
X118209606Y-134455225D01*
X118242949Y-134421881D01*
X118250255Y-134397002D01*
X118249094Y-134391665D01*
X118247827Y-134388268D01*
X118247568Y-134384650D01*
X118247567Y-134384645D01*
X118237932Y-134249933D01*
X118237932Y-134249927D01*
X118237674Y-134246315D01*
X118238444Y-134242772D01*
X118238445Y-134242767D01*
X118267152Y-134110801D01*
X118267154Y-134110793D01*
X118267925Y-134107253D01*
X118269662Y-134104070D01*
X118269666Y-134104062D01*
X118311601Y-134027266D01*
X118306789Y-133993795D01*
X118244962Y-133931969D01*
X118244961Y-133931968D01*
X118241425Y-133928432D01*
X118226781Y-133893076D01*
X118228694Y-133888455D01*
X118228696Y-133888450D01*
X118239510Y-133862343D01*
X118239511Y-133862340D01*
X118241425Y-133857721D01*
X118244958Y-133854187D01*
X118244961Y-133854184D01*
X118626796Y-133472349D01*
X118626799Y-133472346D01*
X118630334Y-133468812D01*
X118640591Y-133464563D01*
X118661064Y-133456083D01*
X118661067Y-133456082D01*
X118665689Y-133454168D01*
X118701045Y-133468812D01*
G37*
G36*
X81357317Y-133437697D02*
G01*
X81357321Y-133437698D01*
X81383428Y-133448512D01*
X81388051Y-133450427D01*
X81776960Y-133839336D01*
X81791604Y-133874691D01*
X81776960Y-133910047D01*
X81711594Y-133975411D01*
X81706782Y-134008881D01*
X81750460Y-134088868D01*
X81751231Y-134092414D01*
X81751232Y-134092416D01*
X81756220Y-134115348D01*
X81780711Y-134227930D01*
X81770558Y-134369883D01*
X81769283Y-134373300D01*
X81768128Y-134378606D01*
X81775431Y-134403492D01*
X81790266Y-134418327D01*
X81808777Y-134436838D01*
X81808778Y-134436840D01*
X81812315Y-134440377D01*
X81826959Y-134475732D01*
X81812315Y-134511087D01*
X81423406Y-134899996D01*
X81388051Y-134914640D01*
X81352696Y-134899996D01*
X81211707Y-134759007D01*
X81198891Y-134752009D01*
X81107253Y-134732075D01*
X81060935Y-134706783D01*
X81027266Y-134688398D01*
X80993796Y-134693209D01*
X80928432Y-134758575D01*
X80893076Y-134773219D01*
X80857721Y-134758575D01*
X80468812Y-134369666D01*
X80454168Y-134334311D01*
X80456080Y-134329693D01*
X80456081Y-134329691D01*
X80466898Y-134303575D01*
X80466899Y-134303573D01*
X80468812Y-134298955D01*
X80472345Y-134295421D01*
X80472348Y-134295418D01*
X81313801Y-133453965D01*
X81313804Y-133453962D01*
X81317340Y-133450427D01*
X81321959Y-133448513D01*
X81321962Y-133448512D01*
X81348076Y-133437696D01*
X81348078Y-133437695D01*
X81352696Y-133435783D01*
X81357317Y-133437697D01*
G37*
G36*
X87722355Y-133664645D02*
G01*
X87737000Y-133700000D01*
X87737000Y-133705003D01*
X87737000Y-133752153D01*
X87749422Y-133774908D01*
X87754026Y-133777868D01*
X87757320Y-133779373D01*
X87864875Y-133872570D01*
X87941816Y-133992292D01*
X87967491Y-134079735D01*
X87994560Y-134100000D01*
X88081996Y-134100000D01*
X88087000Y-134100000D01*
X88122355Y-134114645D01*
X88137000Y-134150000D01*
X88137000Y-134700000D01*
X88122355Y-134735355D01*
X88087000Y-134750000D01*
X88081996Y-134750000D01*
X86892004Y-134750000D01*
X86887000Y-134750000D01*
X86851645Y-134735355D01*
X86849730Y-134730732D01*
X86849729Y-134730731D01*
X86838915Y-134704623D01*
X86837000Y-134700000D01*
X86837000Y-134150000D01*
X86851645Y-134114645D01*
X86856263Y-134112731D01*
X86856268Y-134112729D01*
X86882376Y-134101915D01*
X86882377Y-134101914D01*
X86887000Y-134100000D01*
X86979440Y-134100000D01*
X87006508Y-134079735D01*
X87021915Y-134027266D01*
X87031160Y-133995776D01*
X87031162Y-133995769D01*
X87032184Y-133992292D01*
X87034144Y-133989241D01*
X87034146Y-133989238D01*
X87082885Y-133913400D01*
X87087000Y-133899384D01*
X87087000Y-133705004D01*
X87087000Y-133705003D01*
X87087000Y-133700000D01*
X87093428Y-133684482D01*
X87099730Y-133669267D01*
X87099731Y-133669265D01*
X87101645Y-133664645D01*
X87106263Y-133662731D01*
X87106268Y-133662729D01*
X87132376Y-133651915D01*
X87132377Y-133651914D01*
X87137000Y-133650000D01*
X87687000Y-133650000D01*
X87722355Y-133664645D01*
G37*
G36*
X100222355Y-133664645D02*
G01*
X100237000Y-133700000D01*
X100237000Y-133705003D01*
X100237000Y-133752153D01*
X100249422Y-133774908D01*
X100254026Y-133777868D01*
X100257320Y-133779373D01*
X100364875Y-133872570D01*
X100441816Y-133992292D01*
X100467491Y-134079735D01*
X100494560Y-134100000D01*
X100581996Y-134100000D01*
X100587000Y-134100000D01*
X100622355Y-134114645D01*
X100637000Y-134150000D01*
X100637000Y-134700000D01*
X100622355Y-134735355D01*
X100587000Y-134750000D01*
X100581996Y-134750000D01*
X99392004Y-134750000D01*
X99387000Y-134750000D01*
X99351645Y-134735355D01*
X99349730Y-134730732D01*
X99349729Y-134730731D01*
X99338915Y-134704623D01*
X99337000Y-134700000D01*
X99337000Y-134150000D01*
X99351645Y-134114645D01*
X99356263Y-134112731D01*
X99356268Y-134112729D01*
X99382376Y-134101915D01*
X99382377Y-134101914D01*
X99387000Y-134100000D01*
X99479440Y-134100000D01*
X99506508Y-134079735D01*
X99521915Y-134027266D01*
X99531160Y-133995776D01*
X99531162Y-133995769D01*
X99532184Y-133992292D01*
X99534144Y-133989241D01*
X99534146Y-133989238D01*
X99582885Y-133913400D01*
X99587000Y-133899384D01*
X99587000Y-133705004D01*
X99587000Y-133705003D01*
X99587000Y-133700000D01*
X99593428Y-133684482D01*
X99599730Y-133669267D01*
X99599731Y-133669265D01*
X99601645Y-133664645D01*
X99606263Y-133662731D01*
X99606268Y-133662729D01*
X99632376Y-133651915D01*
X99632377Y-133651914D01*
X99637000Y-133650000D01*
X100187000Y-133650000D01*
X100222355Y-133664645D01*
G37*
G36*
X112872355Y-133664645D02*
G01*
X112887000Y-133700000D01*
X112886999Y-133899387D01*
X112891113Y-133913397D01*
X112941816Y-133992292D01*
X112967491Y-134079735D01*
X112994560Y-134100000D01*
X113081996Y-134100000D01*
X113087000Y-134100000D01*
X113122355Y-134114645D01*
X113137000Y-134150000D01*
X113137000Y-134700000D01*
X113122355Y-134735355D01*
X113087000Y-134750000D01*
X113081996Y-134750000D01*
X111892004Y-134750000D01*
X111887000Y-134750000D01*
X111851645Y-134735355D01*
X111849730Y-134730732D01*
X111849729Y-134730731D01*
X111838915Y-134704623D01*
X111837000Y-134700000D01*
X111837000Y-134150000D01*
X111851645Y-134114645D01*
X111856263Y-134112731D01*
X111856268Y-134112729D01*
X111882376Y-134101915D01*
X111882377Y-134101914D01*
X111887000Y-134100000D01*
X111979440Y-134100000D01*
X112006508Y-134079735D01*
X112021915Y-134027266D01*
X112031160Y-133995776D01*
X112031162Y-133995769D01*
X112032184Y-133992292D01*
X112034144Y-133989241D01*
X112034146Y-133989238D01*
X112107160Y-133875627D01*
X112107161Y-133875625D01*
X112109125Y-133872570D01*
X112111870Y-133870191D01*
X112111873Y-133870188D01*
X112213934Y-133781752D01*
X112213935Y-133781750D01*
X112216680Y-133779373D01*
X112219972Y-133777869D01*
X112224578Y-133774908D01*
X112237000Y-133752153D01*
X112237000Y-133705004D01*
X112237000Y-133705003D01*
X112237000Y-133700000D01*
X112243428Y-133684482D01*
X112249730Y-133669267D01*
X112249731Y-133669265D01*
X112251645Y-133664645D01*
X112256263Y-133662731D01*
X112256268Y-133662729D01*
X112282376Y-133651915D01*
X112282377Y-133651914D01*
X112287000Y-133650000D01*
X112837000Y-133650000D01*
X112872355Y-133664645D01*
G37*
G36*
X120185969Y-133680944D02*
G01*
X119867771Y-133999142D01*
X119019243Y-133150614D01*
X119169857Y-133000000D01*
X119333903Y-132835953D01*
X119333906Y-132835950D01*
X119337441Y-132832416D01*
X120185969Y-133680944D01*
G37*
G36*
X80628567Y-132798423D02*
G01*
X80977218Y-133147073D01*
X80977219Y-133147075D01*
X80980757Y-133150613D01*
X80695587Y-133435783D01*
X80135769Y-133995602D01*
X80135765Y-133995604D01*
X80132229Y-133999141D01*
X79783088Y-133650000D01*
X79640793Y-133507706D01*
X79640790Y-133507702D01*
X79637255Y-133504167D01*
X79640792Y-133500629D01*
X79640795Y-133500626D01*
X80482242Y-132659177D01*
X80482251Y-132659170D01*
X80485783Y-132655639D01*
X80628567Y-132798423D01*
G37*
G36*
X120154152Y-132022782D02*
G01*
X120154153Y-132022783D01*
X120995602Y-132864230D01*
X120995606Y-132864236D01*
X120999141Y-132867771D01*
X120504167Y-133362745D01*
X120292034Y-133150612D01*
X119659177Y-132517757D01*
X119659172Y-132517750D01*
X119655639Y-132514217D01*
X119659179Y-132510676D01*
X120147073Y-132022781D01*
X120147079Y-132022776D01*
X120150613Y-132019243D01*
X120154152Y-132022782D01*
G37*
G36*
X80167584Y-132337441D02*
G01*
X79319056Y-133185969D01*
X79000858Y-132867771D01*
X79357952Y-132510677D01*
X79845848Y-132022780D01*
X79845851Y-132022777D01*
X79849386Y-132019243D01*
X80167584Y-132337441D01*
G37*
G36*
X112213576Y-132200657D02*
G01*
X112258995Y-132231005D01*
X112289343Y-132276424D01*
X112300000Y-132330000D01*
X112300000Y-132670000D01*
X112289343Y-132723576D01*
X112258995Y-132768995D01*
X112213576Y-132799343D01*
X112160000Y-132810000D01*
X111880000Y-132810000D01*
X111826424Y-132799343D01*
X111781005Y-132768995D01*
X111750657Y-132723576D01*
X111740000Y-132670000D01*
X111740000Y-132330000D01*
X111750657Y-132276424D01*
X111781005Y-132231005D01*
X111826424Y-132200657D01*
X111880000Y-132190000D01*
X112160000Y-132190000D01*
X112213576Y-132200657D01*
G37*
G36*
X113173576Y-132200657D02*
G01*
X113218995Y-132231005D01*
X113249343Y-132276424D01*
X113260000Y-132330000D01*
X113260000Y-132670000D01*
X113249343Y-132723576D01*
X113218995Y-132768995D01*
X113173576Y-132799343D01*
X113120000Y-132810000D01*
X112840000Y-132810000D01*
X112786424Y-132799343D01*
X112741005Y-132768995D01*
X112710657Y-132723576D01*
X112700000Y-132670000D01*
X112700000Y-132330000D01*
X112710657Y-132276424D01*
X112741005Y-132231005D01*
X112786424Y-132200657D01*
X112840000Y-132190000D01*
X113120000Y-132190000D01*
X113173576Y-132200657D01*
G37*
G36*
X78510504Y-131193340D02*
G01*
X78510508Y-131193341D01*
X78536615Y-131204155D01*
X78541238Y-131206070D01*
X78544774Y-131209606D01*
X78544777Y-131209608D01*
X78578117Y-131242948D01*
X78602994Y-131250255D01*
X78608338Y-131249092D01*
X78611732Y-131247827D01*
X78615345Y-131247568D01*
X78615348Y-131247568D01*
X78750066Y-131237932D01*
X78750071Y-131237932D01*
X78753685Y-131237674D01*
X78757227Y-131238444D01*
X78757232Y-131238445D01*
X78889198Y-131267152D01*
X78889204Y-131267154D01*
X78892747Y-131267925D01*
X78895932Y-131269664D01*
X78895934Y-131269665D01*
X78972733Y-131311601D01*
X79006204Y-131306789D01*
X79068027Y-131244964D01*
X79068033Y-131244959D01*
X79071568Y-131241425D01*
X79076187Y-131239511D01*
X79076190Y-131239510D01*
X79102304Y-131228694D01*
X79102306Y-131228693D01*
X79106924Y-131226781D01*
X79111545Y-131228695D01*
X79111549Y-131228696D01*
X79137656Y-131239510D01*
X79142279Y-131241425D01*
X79531188Y-131630334D01*
X79545832Y-131665689D01*
X79531188Y-131701045D01*
X78682660Y-132549573D01*
X78647304Y-132564217D01*
X78611949Y-132549573D01*
X78223040Y-132160664D01*
X78208396Y-132125309D01*
X78210308Y-132120691D01*
X78210309Y-132120689D01*
X78221126Y-132094573D01*
X78221127Y-132094571D01*
X78223040Y-132089953D01*
X78226573Y-132086419D01*
X78226578Y-132086413D01*
X78288404Y-132024589D01*
X78293216Y-131991118D01*
X78251280Y-131914319D01*
X78251279Y-131914317D01*
X78249540Y-131911132D01*
X78248769Y-131907589D01*
X78248767Y-131907583D01*
X78229606Y-131819495D01*
X78222606Y-131806676D01*
X78081619Y-131665689D01*
X78066975Y-131630334D01*
X78068888Y-131625713D01*
X78068890Y-131625708D01*
X78079704Y-131599601D01*
X78079705Y-131599598D01*
X78081619Y-131594979D01*
X78085152Y-131591445D01*
X78085155Y-131591442D01*
X78466990Y-131209607D01*
X78466993Y-131209604D01*
X78470528Y-131206070D01*
X78480785Y-131201821D01*
X78501258Y-131193341D01*
X78501261Y-131193340D01*
X78505883Y-131191426D01*
X78510504Y-131193340D01*
G37*
G36*
X121480353Y-131174955D02*
G01*
X121480357Y-131174956D01*
X121499139Y-131182736D01*
X121511087Y-131187685D01*
X121899996Y-131576594D01*
X121914640Y-131611949D01*
X121899996Y-131647304D01*
X121759006Y-131788293D01*
X121752009Y-131801106D01*
X121732075Y-131892747D01*
X121688398Y-131972733D01*
X121693209Y-132006203D01*
X121758575Y-132071568D01*
X121773219Y-132106924D01*
X121758575Y-132142279D01*
X121369666Y-132531188D01*
X121334311Y-132545832D01*
X121298955Y-132531188D01*
X120450427Y-131682660D01*
X120435783Y-131647304D01*
X120437696Y-131642683D01*
X120437698Y-131642678D01*
X120448512Y-131616571D01*
X120448513Y-131616568D01*
X120450427Y-131611949D01*
X120453960Y-131608415D01*
X120453963Y-131608412D01*
X120835798Y-131226577D01*
X120835801Y-131226574D01*
X120839336Y-131223040D01*
X120849593Y-131218791D01*
X120870066Y-131210311D01*
X120870069Y-131210310D01*
X120874691Y-131208396D01*
X120879309Y-131210308D01*
X120879310Y-131210309D01*
X120886010Y-131213084D01*
X120910047Y-131223040D01*
X120913582Y-131226575D01*
X120913586Y-131226578D01*
X120975410Y-131288404D01*
X121008881Y-131293216D01*
X121085677Y-131251281D01*
X121085685Y-131251277D01*
X121088868Y-131249540D01*
X121092408Y-131248769D01*
X121092416Y-131248767D01*
X121224382Y-131220060D01*
X121224387Y-131220059D01*
X121227930Y-131219289D01*
X121231542Y-131219547D01*
X121231548Y-131219547D01*
X121366260Y-131229182D01*
X121366265Y-131229183D01*
X121369883Y-131229442D01*
X121373280Y-131230709D01*
X121378617Y-131231870D01*
X121403496Y-131224564D01*
X121436840Y-131191221D01*
X121436842Y-131191219D01*
X121440377Y-131187685D01*
X121444996Y-131185771D01*
X121444999Y-131185770D01*
X121471106Y-131174956D01*
X121471111Y-131174954D01*
X121475732Y-131173041D01*
X121480353Y-131174955D01*
G37*
G36*
X97719116Y-127300818D02*
G01*
X97771524Y-127306899D01*
X97789430Y-127314805D01*
X97812584Y-127319411D01*
X97837371Y-127335973D01*
X97858614Y-127345353D01*
X97873122Y-127359861D01*
X97895312Y-127374688D01*
X97910138Y-127396877D01*
X97924646Y-127411385D01*
X97934024Y-127432625D01*
X97950589Y-127457416D01*
X97955195Y-127480572D01*
X97963100Y-127498475D01*
X97969178Y-127550872D01*
X97970000Y-127555000D01*
X97970000Y-132045000D01*
X97969178Y-132049128D01*
X97963100Y-132101524D01*
X97955195Y-132119426D01*
X97950589Y-132142584D01*
X97934023Y-132167376D01*
X97924646Y-132188614D01*
X97910140Y-132203119D01*
X97895312Y-132225312D01*
X97873119Y-132240140D01*
X97858614Y-132254646D01*
X97837376Y-132264023D01*
X97812584Y-132280589D01*
X97789426Y-132285195D01*
X97771524Y-132293100D01*
X97719129Y-132299178D01*
X97715000Y-132300000D01*
X97205000Y-132300000D01*
X97200873Y-132299179D01*
X97148475Y-132293100D01*
X97130572Y-132285195D01*
X97107416Y-132280589D01*
X97082625Y-132264024D01*
X97061385Y-132254646D01*
X97046877Y-132240138D01*
X97024688Y-132225312D01*
X97009861Y-132203122D01*
X96995353Y-132188614D01*
X96985973Y-132167371D01*
X96969411Y-132142584D01*
X96964805Y-132119430D01*
X96956899Y-132101524D01*
X96950818Y-132049117D01*
X96950000Y-132045000D01*
X96950000Y-127555000D01*
X96950818Y-127550885D01*
X96956899Y-127498475D01*
X96964805Y-127480568D01*
X96969411Y-127457416D01*
X96985972Y-127432630D01*
X96995353Y-127411385D01*
X97009863Y-127396874D01*
X97024688Y-127374688D01*
X97046874Y-127359863D01*
X97061385Y-127345353D01*
X97082630Y-127335972D01*
X97107416Y-127319411D01*
X97130568Y-127314805D01*
X97148475Y-127306899D01*
X97200884Y-127300818D01*
X97205000Y-127300000D01*
X97715000Y-127300000D01*
X97719116Y-127300818D01*
G37*
G36*
X100259116Y-127300818D02*
G01*
X100311524Y-127306899D01*
X100329430Y-127314805D01*
X100352584Y-127319411D01*
X100377371Y-127335973D01*
X100398614Y-127345353D01*
X100413122Y-127359861D01*
X100435312Y-127374688D01*
X100450138Y-127396877D01*
X100464646Y-127411385D01*
X100474024Y-127432625D01*
X100490589Y-127457416D01*
X100495195Y-127480572D01*
X100503100Y-127498475D01*
X100509178Y-127550872D01*
X100510000Y-127555000D01*
X100510000Y-132045000D01*
X100509178Y-132049128D01*
X100503100Y-132101524D01*
X100495195Y-132119426D01*
X100490589Y-132142584D01*
X100474023Y-132167376D01*
X100464646Y-132188614D01*
X100450140Y-132203119D01*
X100435312Y-132225312D01*
X100413119Y-132240140D01*
X100398614Y-132254646D01*
X100377376Y-132264023D01*
X100352584Y-132280589D01*
X100329426Y-132285195D01*
X100311524Y-132293100D01*
X100259129Y-132299178D01*
X100255000Y-132300000D01*
X99745000Y-132300000D01*
X99740873Y-132299179D01*
X99688475Y-132293100D01*
X99670572Y-132285195D01*
X99647416Y-132280589D01*
X99622625Y-132264024D01*
X99601385Y-132254646D01*
X99586877Y-132240138D01*
X99564688Y-132225312D01*
X99549861Y-132203122D01*
X99535353Y-132188614D01*
X99525973Y-132167371D01*
X99509411Y-132142584D01*
X99504805Y-132119430D01*
X99496899Y-132101524D01*
X99490818Y-132049117D01*
X99490000Y-132045000D01*
X99490000Y-127555000D01*
X99490818Y-127550885D01*
X99496899Y-127498475D01*
X99504805Y-127480568D01*
X99509411Y-127457416D01*
X99525972Y-127432630D01*
X99535353Y-127411385D01*
X99549863Y-127396874D01*
X99564688Y-127374688D01*
X99586874Y-127359863D01*
X99601385Y-127345353D01*
X99622630Y-127335972D01*
X99647416Y-127319411D01*
X99670568Y-127314805D01*
X99688475Y-127306899D01*
X99740884Y-127300818D01*
X99745000Y-127300000D01*
X100255000Y-127300000D01*
X100259116Y-127300818D01*
G37*
G36*
X102799116Y-127300818D02*
G01*
X102851524Y-127306899D01*
X102869430Y-127314805D01*
X102892584Y-127319411D01*
X102917371Y-127335973D01*
X102938614Y-127345353D01*
X102953122Y-127359861D01*
X102975312Y-127374688D01*
X102990138Y-127396877D01*
X103004646Y-127411385D01*
X103014024Y-127432625D01*
X103030589Y-127457416D01*
X103035195Y-127480572D01*
X103043100Y-127498475D01*
X103049178Y-127550872D01*
X103050000Y-127555000D01*
X103050000Y-132045000D01*
X103049178Y-132049128D01*
X103043100Y-132101524D01*
X103035195Y-132119426D01*
X103030589Y-132142584D01*
X103014023Y-132167376D01*
X103004646Y-132188614D01*
X102990140Y-132203119D01*
X102975312Y-132225312D01*
X102953119Y-132240140D01*
X102938614Y-132254646D01*
X102917376Y-132264023D01*
X102892584Y-132280589D01*
X102869426Y-132285195D01*
X102851524Y-132293100D01*
X102799129Y-132299178D01*
X102795000Y-132300000D01*
X102285000Y-132300000D01*
X102280873Y-132299179D01*
X102228475Y-132293100D01*
X102210572Y-132285195D01*
X102187416Y-132280589D01*
X102162625Y-132264024D01*
X102141385Y-132254646D01*
X102126877Y-132240138D01*
X102104688Y-132225312D01*
X102089861Y-132203122D01*
X102075353Y-132188614D01*
X102065973Y-132167371D01*
X102049411Y-132142584D01*
X102044805Y-132119430D01*
X102036899Y-132101524D01*
X102030818Y-132049117D01*
X102030000Y-132045000D01*
X102030000Y-127555000D01*
X102030818Y-127550885D01*
X102036899Y-127498475D01*
X102044805Y-127480568D01*
X102049411Y-127457416D01*
X102065972Y-127432630D01*
X102075353Y-127411385D01*
X102089863Y-127396874D01*
X102104688Y-127374688D01*
X102126874Y-127359863D01*
X102141385Y-127345353D01*
X102162630Y-127335972D01*
X102187416Y-127319411D01*
X102210568Y-127314805D01*
X102228475Y-127306899D01*
X102280884Y-127300818D01*
X102285000Y-127300000D01*
X102795000Y-127300000D01*
X102799116Y-127300818D01*
G37*
G36*
X122889073Y-130515992D02*
G01*
X122934492Y-130546340D01*
X123132482Y-130744330D01*
X123162830Y-130789749D01*
X123173487Y-130843325D01*
X123162830Y-130896900D01*
X123132482Y-130942320D01*
X122892066Y-131182736D01*
X122846646Y-131213084D01*
X122793071Y-131223741D01*
X122739495Y-131213084D01*
X122694076Y-131182736D01*
X122496086Y-130984746D01*
X122465738Y-130939327D01*
X122455081Y-130885751D01*
X122465738Y-130832176D01*
X122496086Y-130786756D01*
X122542052Y-130740790D01*
X122732962Y-130549879D01*
X122732965Y-130549876D01*
X122736502Y-130546340D01*
X122781922Y-130515992D01*
X122835497Y-130505335D01*
X122889073Y-130515992D01*
G37*
G36*
X122210251Y-129837170D02*
G01*
X122255670Y-129867518D01*
X122453660Y-130065508D01*
X122484008Y-130110927D01*
X122494665Y-130164503D01*
X122484008Y-130218078D01*
X122453660Y-130263498D01*
X122213244Y-130503914D01*
X122167824Y-130534262D01*
X122114249Y-130544919D01*
X122060673Y-130534262D01*
X122015254Y-130503914D01*
X121817264Y-130305924D01*
X121786916Y-130260505D01*
X121776259Y-130206929D01*
X121786916Y-130153354D01*
X121817264Y-130107934D01*
X121863230Y-130061968D01*
X122054140Y-129871057D01*
X122054143Y-129871054D01*
X122057680Y-129867518D01*
X122103100Y-129837170D01*
X122156675Y-129826513D01*
X122210251Y-129837170D01*
G37*
G36*
X75213576Y-129200657D02*
G01*
X75258995Y-129231005D01*
X75289343Y-129276424D01*
X75300000Y-129330000D01*
X75300000Y-129670000D01*
X75289343Y-129723576D01*
X75258995Y-129768995D01*
X75213576Y-129799343D01*
X75160000Y-129810000D01*
X74880000Y-129810000D01*
X74826424Y-129799343D01*
X74781005Y-129768995D01*
X74750657Y-129723576D01*
X74740000Y-129670000D01*
X74740000Y-129330000D01*
X74750657Y-129276424D01*
X74781005Y-129231005D01*
X74826424Y-129200657D01*
X74880000Y-129190000D01*
X75160000Y-129190000D01*
X75213576Y-129200657D01*
G37*
G36*
X76173576Y-129200657D02*
G01*
X76218995Y-129231005D01*
X76249343Y-129276424D01*
X76260000Y-129330000D01*
X76260000Y-129670000D01*
X76249343Y-129723576D01*
X76218995Y-129768995D01*
X76173576Y-129799343D01*
X76120000Y-129810000D01*
X75840000Y-129810000D01*
X75786424Y-129799343D01*
X75741005Y-129768995D01*
X75710657Y-129723576D01*
X75700000Y-129670000D01*
X75700000Y-129330000D01*
X75710657Y-129276424D01*
X75741005Y-129231005D01*
X75786424Y-129200657D01*
X75840000Y-129190000D01*
X76120000Y-129190000D01*
X76173576Y-129200657D01*
G37*
G36*
X87213576Y-129200657D02*
G01*
X87258995Y-129231005D01*
X87289343Y-129276424D01*
X87300000Y-129330000D01*
X87300000Y-129670000D01*
X87289343Y-129723576D01*
X87258995Y-129768995D01*
X87213576Y-129799343D01*
X87160000Y-129810000D01*
X86880000Y-129810000D01*
X86826424Y-129799343D01*
X86781005Y-129768995D01*
X86750657Y-129723576D01*
X86740000Y-129670000D01*
X86740000Y-129330000D01*
X86750657Y-129276424D01*
X86781005Y-129231005D01*
X86826424Y-129200657D01*
X86880000Y-129190000D01*
X87160000Y-129190000D01*
X87213576Y-129200657D01*
G37*
G36*
X88173576Y-129200657D02*
G01*
X88218995Y-129231005D01*
X88249343Y-129276424D01*
X88260000Y-129330000D01*
X88260000Y-129670000D01*
X88249343Y-129723576D01*
X88218995Y-129768995D01*
X88173576Y-129799343D01*
X88120000Y-129810000D01*
X87840000Y-129810000D01*
X87786424Y-129799343D01*
X87741005Y-129768995D01*
X87710657Y-129723576D01*
X87700000Y-129670000D01*
X87700000Y-129330000D01*
X87710657Y-129276424D01*
X87741005Y-129231005D01*
X87786424Y-129200657D01*
X87840000Y-129190000D01*
X88120000Y-129190000D01*
X88173576Y-129200657D01*
G37*
G36*
X76148355Y-127264645D02*
G01*
X76163000Y-127300000D01*
X76163000Y-127850000D01*
X76148355Y-127885355D01*
X76113000Y-127900000D01*
X76107996Y-127900000D01*
X76020560Y-127900000D01*
X75993491Y-127920264D01*
X75967816Y-128007708D01*
X75890875Y-128127430D01*
X75783320Y-128220627D01*
X75780006Y-128222140D01*
X75775428Y-128225083D01*
X75763000Y-128247843D01*
X75763000Y-128300000D01*
X75748355Y-128335355D01*
X75713000Y-128350000D01*
X75707996Y-128350000D01*
X75168004Y-128350000D01*
X75163000Y-128350000D01*
X75127645Y-128335355D01*
X75125730Y-128330732D01*
X75125729Y-128330731D01*
X75114915Y-128304623D01*
X75113000Y-128300000D01*
X75113000Y-128100615D01*
X75108885Y-128086600D01*
X75058184Y-128007708D01*
X75057162Y-128004227D01*
X75057160Y-128004223D01*
X75043290Y-127956982D01*
X75032508Y-127920264D01*
X75005440Y-127900000D01*
X74913000Y-127900000D01*
X74877645Y-127885355D01*
X74875730Y-127880732D01*
X74875729Y-127880731D01*
X74864915Y-127854623D01*
X74863000Y-127850000D01*
X74863000Y-127300000D01*
X74877645Y-127264645D01*
X74882263Y-127262731D01*
X74882268Y-127262729D01*
X74908376Y-127251915D01*
X74908377Y-127251914D01*
X74913000Y-127250000D01*
X76113000Y-127250000D01*
X76148355Y-127264645D01*
G37*
G36*
X88148355Y-127264645D02*
G01*
X88163000Y-127300000D01*
X88163000Y-127850000D01*
X88148355Y-127885355D01*
X88113000Y-127900000D01*
X88107996Y-127900000D01*
X88020560Y-127900000D01*
X87993491Y-127920264D01*
X87967816Y-128007708D01*
X87890875Y-128127430D01*
X87783320Y-128220627D01*
X87780006Y-128222140D01*
X87775428Y-128225083D01*
X87763000Y-128247843D01*
X87763000Y-128300000D01*
X87748355Y-128335355D01*
X87713000Y-128350000D01*
X87707996Y-128350000D01*
X87168004Y-128350000D01*
X87163000Y-128350000D01*
X87127645Y-128335355D01*
X87125730Y-128330732D01*
X87125729Y-128330731D01*
X87114915Y-128304623D01*
X87113000Y-128300000D01*
X87113000Y-128100615D01*
X87108885Y-128086600D01*
X87058184Y-128007708D01*
X87057162Y-128004227D01*
X87057160Y-128004223D01*
X87043290Y-127956982D01*
X87032508Y-127920264D01*
X87005440Y-127900000D01*
X86913000Y-127900000D01*
X86877645Y-127885355D01*
X86875730Y-127880732D01*
X86875729Y-127880731D01*
X86864915Y-127854623D01*
X86863000Y-127850000D01*
X86863000Y-127300000D01*
X86877645Y-127264645D01*
X86882263Y-127262731D01*
X86882268Y-127262729D01*
X86908376Y-127251915D01*
X86908377Y-127251914D01*
X86913000Y-127250000D01*
X88113000Y-127250000D01*
X88148355Y-127264645D01*
G37*
G36*
X113148355Y-127264645D02*
G01*
X113163000Y-127300000D01*
X113163000Y-127850000D01*
X113148355Y-127885355D01*
X113113000Y-127900000D01*
X113107996Y-127900000D01*
X113020560Y-127900000D01*
X112993491Y-127920264D01*
X112967816Y-128007708D01*
X112917114Y-128086600D01*
X112913000Y-128100611D01*
X112913000Y-128300000D01*
X112898355Y-128335355D01*
X112863000Y-128350000D01*
X112857996Y-128350000D01*
X112318004Y-128350000D01*
X112313000Y-128350000D01*
X112277645Y-128335355D01*
X112275730Y-128330732D01*
X112275729Y-128330731D01*
X112264915Y-128304623D01*
X112263000Y-128300000D01*
X112263000Y-128247843D01*
X112250572Y-128225083D01*
X112245992Y-128222139D01*
X112242680Y-128220627D01*
X112135125Y-128127430D01*
X112058184Y-128007708D01*
X112057162Y-128004227D01*
X112057160Y-128004223D01*
X112043290Y-127956982D01*
X112032508Y-127920264D01*
X112005440Y-127900000D01*
X111913000Y-127900000D01*
X111877645Y-127885355D01*
X111875730Y-127880732D01*
X111875729Y-127880731D01*
X111864915Y-127854623D01*
X111863000Y-127850000D01*
X111863000Y-127300000D01*
X111877645Y-127264645D01*
X111882263Y-127262731D01*
X111882268Y-127262729D01*
X111908376Y-127251915D01*
X111908377Y-127251914D01*
X111913000Y-127250000D01*
X113113000Y-127250000D01*
X113148355Y-127264645D01*
G37*
G36*
X125148355Y-127264645D02*
G01*
X125163000Y-127300000D01*
X125163000Y-127850000D01*
X125148355Y-127885355D01*
X125113000Y-127900000D01*
X125107996Y-127900000D01*
X125020560Y-127900000D01*
X124993491Y-127920264D01*
X124967816Y-128007708D01*
X124917114Y-128086600D01*
X124913000Y-128100611D01*
X124913000Y-128300000D01*
X124898355Y-128335355D01*
X124863000Y-128350000D01*
X124857996Y-128350000D01*
X124318004Y-128350000D01*
X124313000Y-128350000D01*
X124277645Y-128335355D01*
X124275730Y-128330732D01*
X124275729Y-128330731D01*
X124264915Y-128304623D01*
X124263000Y-128300000D01*
X124263000Y-128247843D01*
X124250572Y-128225083D01*
X124245992Y-128222139D01*
X124242680Y-128220627D01*
X124135125Y-128127430D01*
X124058184Y-128007708D01*
X124057162Y-128004227D01*
X124057160Y-128004223D01*
X124043290Y-127956982D01*
X124032508Y-127920264D01*
X124005440Y-127900000D01*
X123913000Y-127900000D01*
X123877645Y-127885355D01*
X123875730Y-127880732D01*
X123875729Y-127880731D01*
X123864915Y-127854623D01*
X123863000Y-127850000D01*
X123863000Y-127300000D01*
X123877645Y-127264645D01*
X123882263Y-127262731D01*
X123882268Y-127262729D01*
X123908376Y-127251915D01*
X123908377Y-127251914D01*
X123913000Y-127250000D01*
X125113000Y-127250000D01*
X125148355Y-127264645D01*
G37*
G36*
X76087000Y-126800000D02*
G01*
X74887000Y-126800000D01*
X74887000Y-126100000D01*
X76087000Y-126100000D01*
X76087000Y-126800000D01*
G37*
G36*
X88087000Y-126800000D02*
G01*
X86887000Y-126800000D01*
X86887000Y-126100000D01*
X88087000Y-126100000D01*
X88087000Y-126800000D01*
G37*
G36*
X113113000Y-126800000D02*
G01*
X111913000Y-126800000D01*
X111913000Y-126350000D01*
X113113000Y-126350000D01*
X113113000Y-126800000D01*
G37*
G36*
X125113000Y-126800000D02*
G01*
X123913000Y-126800000D01*
X123913000Y-126350000D01*
X125113000Y-126350000D01*
X125113000Y-126800000D01*
G37*
G36*
X72167824Y-125465738D02*
G01*
X72213244Y-125496086D01*
X72453660Y-125736502D01*
X72484008Y-125781922D01*
X72494665Y-125835497D01*
X72484008Y-125889073D01*
X72453660Y-125934492D01*
X72255670Y-126132482D01*
X72210251Y-126162830D01*
X72156675Y-126173487D01*
X72103100Y-126162830D01*
X72057680Y-126132482D01*
X71817264Y-125892066D01*
X71786916Y-125846646D01*
X71776259Y-125793071D01*
X71786916Y-125739495D01*
X71817264Y-125694076D01*
X71866345Y-125644995D01*
X72011714Y-125499625D01*
X72011717Y-125499622D01*
X72015254Y-125496086D01*
X72060673Y-125465738D01*
X72114249Y-125455081D01*
X72167824Y-125465738D01*
G37*
G36*
X113113000Y-125900000D02*
G01*
X111913000Y-125900000D01*
X111913000Y-125200000D01*
X113113000Y-125200000D01*
X113113000Y-125900000D01*
G37*
G36*
X125113000Y-125900000D02*
G01*
X123913000Y-125900000D01*
X123913000Y-125200000D01*
X125113000Y-125200000D01*
X125113000Y-125900000D01*
G37*
G36*
X76087000Y-125650000D02*
G01*
X74887000Y-125650000D01*
X74887000Y-125200000D01*
X76087000Y-125200000D01*
X76087000Y-125650000D01*
G37*
G36*
X88087000Y-125650000D02*
G01*
X86887000Y-125650000D01*
X86887000Y-125200000D01*
X88087000Y-125200000D01*
X88087000Y-125650000D01*
G37*
G36*
X72846646Y-124786916D02*
G01*
X72892066Y-124817264D01*
X73132482Y-125057680D01*
X73162830Y-125103100D01*
X73173487Y-125156675D01*
X73162830Y-125210251D01*
X73132482Y-125255670D01*
X72934492Y-125453660D01*
X72889073Y-125484008D01*
X72835497Y-125494665D01*
X72781922Y-125484008D01*
X72736502Y-125453660D01*
X72496086Y-125213244D01*
X72465738Y-125167824D01*
X72455081Y-125114249D01*
X72465738Y-125060673D01*
X72496086Y-125015254D01*
X72592959Y-124918381D01*
X72690536Y-124820803D01*
X72690539Y-124820800D01*
X72694076Y-124817264D01*
X72739495Y-124786916D01*
X72793071Y-124776259D01*
X72846646Y-124786916D01*
G37*
G36*
X74015995Y-92927854D02*
G01*
X74019411Y-92927556D01*
X74027697Y-92933357D01*
X74030265Y-92933727D01*
X74032755Y-92935885D01*
X74040573Y-92940524D01*
X74043660Y-92941675D01*
X74046497Y-92945465D01*
X74057453Y-92951791D01*
X74058626Y-92955013D01*
X74061437Y-92956982D01*
X74064452Y-92968237D01*
X74066287Y-92971902D01*
X74068262Y-92974540D01*
X74068880Y-92983187D01*
X74075000Y-93000000D01*
X74075000Y-125000000D01*
X74072162Y-125016090D01*
X74072157Y-125016131D01*
X74072444Y-125019411D01*
X74071285Y-125021065D01*
X74070477Y-125025652D01*
X74060688Y-125037317D01*
X74058322Y-125043661D01*
X74055687Y-125045634D01*
X74049490Y-125052290D01*
X74047709Y-125055060D01*
X74047376Y-125055211D01*
X74043018Y-125061437D01*
X74039704Y-125062324D01*
X74037500Y-125064952D01*
X74027532Y-125066709D01*
X74025460Y-125068261D01*
X74022175Y-125068496D01*
X74013363Y-125070746D01*
X74010368Y-125072113D01*
X74005683Y-125071439D01*
X73993463Y-125074714D01*
X73990355Y-125073265D01*
X73986976Y-125073861D01*
X73976884Y-125068034D01*
X73972995Y-125066740D01*
X73969734Y-125066271D01*
X73963182Y-125060594D01*
X73946967Y-125053033D01*
X67446967Y-118553033D01*
X67444296Y-118549219D01*
X67442547Y-118548209D01*
X67441418Y-118545108D01*
X67437616Y-118539678D01*
X67436877Y-118538691D01*
X67436855Y-118538591D01*
X67432027Y-118531696D01*
X67430599Y-118515384D01*
X67425000Y-118500000D01*
X67425000Y-99500000D01*
X67425808Y-99495414D01*
X67425286Y-99493464D01*
X67426679Y-99490475D01*
X67427825Y-99483977D01*
X67428005Y-99482726D01*
X67428061Y-99482638D01*
X67429523Y-99474348D01*
X67440048Y-99461804D01*
X67446967Y-99446967D01*
X67452129Y-99441804D01*
X67452131Y-99441802D01*
X73944400Y-92949533D01*
X73944403Y-92949530D01*
X73946967Y-92946967D01*
X73960287Y-92937640D01*
X73960388Y-92937564D01*
X73962500Y-92935048D01*
X73964490Y-92934696D01*
X73968304Y-92932027D01*
X73983465Y-92930700D01*
X73989631Y-92927885D01*
X73992893Y-92928354D01*
X74001977Y-92928029D01*
X74005196Y-92927328D01*
X74005544Y-92927457D01*
X74013024Y-92926139D01*
X74015995Y-92927854D01*
G37*
G36*
X126009643Y-92926735D02*
G01*
X126013024Y-92926139D01*
X126023113Y-92931964D01*
X126027002Y-92933259D01*
X126030266Y-92933728D01*
X126036821Y-92939407D01*
X126053033Y-92946967D01*
X132553033Y-99446967D01*
X132555703Y-99450780D01*
X132557453Y-99451791D01*
X132558581Y-99454891D01*
X132562396Y-99460340D01*
X132563122Y-99461309D01*
X132563143Y-99461406D01*
X132567973Y-99468304D01*
X132569399Y-99484614D01*
X132575000Y-99500000D01*
X132575000Y-118500000D01*
X132574191Y-118504586D01*
X132574714Y-118506537D01*
X132573320Y-118509525D01*
X132572160Y-118516106D01*
X132571992Y-118517275D01*
X132571939Y-118517356D01*
X132570477Y-118525652D01*
X132559951Y-118538195D01*
X132553033Y-118553033D01*
X126053033Y-125053033D01*
X126039633Y-125062414D01*
X126039620Y-125062425D01*
X126037500Y-125064952D01*
X126035509Y-125065303D01*
X126031696Y-125067973D01*
X126016526Y-125069300D01*
X126010367Y-125072113D01*
X126007107Y-125071645D01*
X125998020Y-125071970D01*
X125994802Y-125072669D01*
X125994459Y-125072541D01*
X125986976Y-125073861D01*
X125984005Y-125072146D01*
X125980589Y-125072445D01*
X125972298Y-125066639D01*
X125969733Y-125066271D01*
X125967246Y-125064115D01*
X125959425Y-125059475D01*
X125956339Y-125058324D01*
X125953501Y-125054533D01*
X125942547Y-125048209D01*
X125941374Y-125044986D01*
X125938563Y-125043018D01*
X125935549Y-125031769D01*
X125933712Y-125028099D01*
X125931737Y-125025461D01*
X125931118Y-125016809D01*
X125925000Y-125000000D01*
X125925000Y-93000000D01*
X125927823Y-92983985D01*
X125927841Y-92983862D01*
X125927555Y-92980589D01*
X125928714Y-92978932D01*
X125929523Y-92974348D01*
X125939306Y-92962688D01*
X125941675Y-92956338D01*
X125944314Y-92954363D01*
X125950509Y-92947709D01*
X125952289Y-92944938D01*
X125952625Y-92944784D01*
X125956982Y-92938563D01*
X125960295Y-92937675D01*
X125962500Y-92935048D01*
X125972462Y-92933291D01*
X125974539Y-92931737D01*
X125977825Y-92931502D01*
X125986633Y-92929254D01*
X125989630Y-92927885D01*
X125994319Y-92928559D01*
X126006536Y-92925286D01*
X126009643Y-92926735D01*
G37*
G36*
X128701045Y-123468812D02*
G01*
X129549573Y-124317340D01*
X129564217Y-124352696D01*
X129549573Y-124388051D01*
X129160664Y-124776960D01*
X129125309Y-124791604D01*
X129089953Y-124776960D01*
X129086416Y-124773423D01*
X129086413Y-124773421D01*
X129024589Y-124711595D01*
X128991118Y-124706783D01*
X128911132Y-124750460D01*
X128819491Y-124770394D01*
X128806678Y-124777391D01*
X128665689Y-124918381D01*
X128630334Y-124933025D01*
X128594979Y-124918381D01*
X128206070Y-124529472D01*
X128191426Y-124494117D01*
X128193339Y-124489496D01*
X128193341Y-124489491D01*
X128204155Y-124463384D01*
X128204156Y-124463381D01*
X128206070Y-124458762D01*
X128209604Y-124455227D01*
X128209606Y-124455225D01*
X128242949Y-124421881D01*
X128250255Y-124397002D01*
X128249094Y-124391665D01*
X128247827Y-124388268D01*
X128247568Y-124384650D01*
X128247567Y-124384645D01*
X128237932Y-124249933D01*
X128237932Y-124249927D01*
X128237674Y-124246315D01*
X128238444Y-124242772D01*
X128238445Y-124242767D01*
X128267152Y-124110801D01*
X128267154Y-124110793D01*
X128267925Y-124107253D01*
X128269662Y-124104070D01*
X128269666Y-124104062D01*
X128311601Y-124027266D01*
X128306789Y-123993795D01*
X128244962Y-123931969D01*
X128244961Y-123931968D01*
X128241425Y-123928432D01*
X128226781Y-123893076D01*
X128228694Y-123888455D01*
X128228696Y-123888450D01*
X128239510Y-123862343D01*
X128239511Y-123862340D01*
X128241425Y-123857721D01*
X128244958Y-123854187D01*
X128244961Y-123854184D01*
X128626796Y-123472349D01*
X128626799Y-123472346D01*
X128630334Y-123468812D01*
X128640591Y-123464563D01*
X128661064Y-123456083D01*
X128661067Y-123456082D01*
X128665689Y-123454168D01*
X128701045Y-123468812D01*
G37*
G36*
X71357317Y-123437697D02*
G01*
X71357321Y-123437698D01*
X71383428Y-123448512D01*
X71388051Y-123450427D01*
X71776960Y-123839336D01*
X71791604Y-123874691D01*
X71776960Y-123910047D01*
X71711594Y-123975411D01*
X71706782Y-124008881D01*
X71750460Y-124088868D01*
X71751231Y-124092414D01*
X71751232Y-124092416D01*
X71756220Y-124115348D01*
X71780711Y-124227930D01*
X71770558Y-124369883D01*
X71769283Y-124373300D01*
X71768128Y-124378606D01*
X71775431Y-124403492D01*
X71790266Y-124418327D01*
X71808777Y-124436838D01*
X71808778Y-124436840D01*
X71812315Y-124440377D01*
X71826959Y-124475732D01*
X71812315Y-124511087D01*
X71423406Y-124899996D01*
X71388051Y-124914640D01*
X71352696Y-124899996D01*
X71211707Y-124759007D01*
X71198891Y-124752009D01*
X71107253Y-124732075D01*
X71060935Y-124706783D01*
X71027266Y-124688398D01*
X70993796Y-124693209D01*
X70928432Y-124758575D01*
X70893076Y-124773219D01*
X70857721Y-124758575D01*
X70468812Y-124369666D01*
X70454168Y-124334311D01*
X70456080Y-124329693D01*
X70456081Y-124329691D01*
X70466898Y-124303575D01*
X70466899Y-124303573D01*
X70468812Y-124298955D01*
X70472345Y-124295421D01*
X70472348Y-124295418D01*
X71313801Y-123453965D01*
X71313804Y-123453962D01*
X71317340Y-123450427D01*
X71321959Y-123448513D01*
X71321962Y-123448512D01*
X71348076Y-123437696D01*
X71348078Y-123437695D01*
X71352696Y-123435783D01*
X71357317Y-123437697D01*
G37*
G36*
X75722355Y-123664645D02*
G01*
X75737000Y-123700000D01*
X75737000Y-123705003D01*
X75737000Y-123752153D01*
X75749422Y-123774908D01*
X75754026Y-123777868D01*
X75757320Y-123779373D01*
X75864875Y-123872570D01*
X75941816Y-123992292D01*
X75967491Y-124079735D01*
X75994560Y-124100000D01*
X76081996Y-124100000D01*
X76087000Y-124100000D01*
X76122355Y-124114645D01*
X76137000Y-124150000D01*
X76137000Y-124700000D01*
X76122355Y-124735355D01*
X76087000Y-124750000D01*
X76081996Y-124750000D01*
X74892004Y-124750000D01*
X74887000Y-124750000D01*
X74851645Y-124735355D01*
X74849730Y-124730732D01*
X74849729Y-124730731D01*
X74838915Y-124704623D01*
X74837000Y-124700000D01*
X74837000Y-124150000D01*
X74851645Y-124114645D01*
X74856263Y-124112731D01*
X74856268Y-124112729D01*
X74882376Y-124101915D01*
X74882377Y-124101914D01*
X74887000Y-124100000D01*
X74979440Y-124100000D01*
X75006508Y-124079735D01*
X75021915Y-124027266D01*
X75031160Y-123995776D01*
X75031162Y-123995769D01*
X75032184Y-123992292D01*
X75034144Y-123989241D01*
X75034146Y-123989238D01*
X75082885Y-123913400D01*
X75087000Y-123899384D01*
X75087000Y-123705004D01*
X75087000Y-123705003D01*
X75087000Y-123700000D01*
X75093428Y-123684482D01*
X75099730Y-123669267D01*
X75099731Y-123669265D01*
X75101645Y-123664645D01*
X75106263Y-123662731D01*
X75106268Y-123662729D01*
X75132376Y-123651915D01*
X75132377Y-123651914D01*
X75137000Y-123650000D01*
X75687000Y-123650000D01*
X75722355Y-123664645D01*
G37*
G36*
X87722355Y-123664645D02*
G01*
X87737000Y-123700000D01*
X87737000Y-123705003D01*
X87737000Y-123752153D01*
X87749422Y-123774908D01*
X87754026Y-123777868D01*
X87757320Y-123779373D01*
X87864875Y-123872570D01*
X87941816Y-123992292D01*
X87967491Y-124079735D01*
X87994560Y-124100000D01*
X88081996Y-124100000D01*
X88087000Y-124100000D01*
X88122355Y-124114645D01*
X88137000Y-124150000D01*
X88137000Y-124700000D01*
X88122355Y-124735355D01*
X88087000Y-124750000D01*
X88081996Y-124750000D01*
X86892004Y-124750000D01*
X86887000Y-124750000D01*
X86851645Y-124735355D01*
X86849730Y-124730732D01*
X86849729Y-124730731D01*
X86838915Y-124704623D01*
X86837000Y-124700000D01*
X86837000Y-124150000D01*
X86851645Y-124114645D01*
X86856263Y-124112731D01*
X86856268Y-124112729D01*
X86882376Y-124101915D01*
X86882377Y-124101914D01*
X86887000Y-124100000D01*
X86979440Y-124100000D01*
X87006508Y-124079735D01*
X87021915Y-124027266D01*
X87031160Y-123995776D01*
X87031162Y-123995769D01*
X87032184Y-123992292D01*
X87034144Y-123989241D01*
X87034146Y-123989238D01*
X87082885Y-123913400D01*
X87087000Y-123899384D01*
X87087000Y-123705004D01*
X87087000Y-123705003D01*
X87087000Y-123700000D01*
X87093428Y-123684482D01*
X87099730Y-123669267D01*
X87099731Y-123669265D01*
X87101645Y-123664645D01*
X87106263Y-123662731D01*
X87106268Y-123662729D01*
X87132376Y-123651915D01*
X87132377Y-123651914D01*
X87137000Y-123650000D01*
X87687000Y-123650000D01*
X87722355Y-123664645D01*
G37*
G36*
X112872355Y-123664645D02*
G01*
X112887000Y-123700000D01*
X112886999Y-123899387D01*
X112891113Y-123913397D01*
X112941816Y-123992292D01*
X112967491Y-124079735D01*
X112994560Y-124100000D01*
X113081996Y-124100000D01*
X113087000Y-124100000D01*
X113122355Y-124114645D01*
X113137000Y-124150000D01*
X113137000Y-124700000D01*
X113122355Y-124735355D01*
X113087000Y-124750000D01*
X113081996Y-124750000D01*
X111892004Y-124750000D01*
X111887000Y-124750000D01*
X111851645Y-124735355D01*
X111849730Y-124730732D01*
X111849729Y-124730731D01*
X111838915Y-124704623D01*
X111837000Y-124700000D01*
X111837000Y-124150000D01*
X111851645Y-124114645D01*
X111856263Y-124112731D01*
X111856268Y-124112729D01*
X111882376Y-124101915D01*
X111882377Y-124101914D01*
X111887000Y-124100000D01*
X111979440Y-124100000D01*
X112006508Y-124079735D01*
X112021915Y-124027266D01*
X112031160Y-123995776D01*
X112031162Y-123995769D01*
X112032184Y-123992292D01*
X112034144Y-123989241D01*
X112034146Y-123989238D01*
X112107160Y-123875627D01*
X112107161Y-123875625D01*
X112109125Y-123872570D01*
X112111870Y-123870191D01*
X112111873Y-123870188D01*
X112213934Y-123781752D01*
X112213935Y-123781750D01*
X112216680Y-123779373D01*
X112219972Y-123777869D01*
X112224578Y-123774908D01*
X112237000Y-123752153D01*
X112237000Y-123705004D01*
X112237000Y-123705003D01*
X112237000Y-123700000D01*
X112243428Y-123684482D01*
X112249730Y-123669267D01*
X112249731Y-123669265D01*
X112251645Y-123664645D01*
X112256263Y-123662731D01*
X112256268Y-123662729D01*
X112282376Y-123651915D01*
X112282377Y-123651914D01*
X112287000Y-123650000D01*
X112837000Y-123650000D01*
X112872355Y-123664645D01*
G37*
G36*
X124872355Y-123664645D02*
G01*
X124887000Y-123700000D01*
X124886999Y-123899387D01*
X124891113Y-123913397D01*
X124941816Y-123992292D01*
X124967491Y-124079735D01*
X124994560Y-124100000D01*
X125081996Y-124100000D01*
X125087000Y-124100000D01*
X125122355Y-124114645D01*
X125137000Y-124150000D01*
X125137000Y-124700000D01*
X125122355Y-124735355D01*
X125087000Y-124750000D01*
X125081996Y-124750000D01*
X123892004Y-124750000D01*
X123887000Y-124750000D01*
X123851645Y-124735355D01*
X123849730Y-124730732D01*
X123849729Y-124730731D01*
X123838915Y-124704623D01*
X123837000Y-124700000D01*
X123837000Y-124150000D01*
X123851645Y-124114645D01*
X123856263Y-124112731D01*
X123856268Y-124112729D01*
X123882376Y-124101915D01*
X123882377Y-124101914D01*
X123887000Y-124100000D01*
X123979440Y-124100000D01*
X124006508Y-124079735D01*
X124021915Y-124027266D01*
X124031160Y-123995776D01*
X124031162Y-123995769D01*
X124032184Y-123992292D01*
X124034144Y-123989241D01*
X124034146Y-123989238D01*
X124107160Y-123875627D01*
X124107161Y-123875625D01*
X124109125Y-123872570D01*
X124111870Y-123870191D01*
X124111873Y-123870188D01*
X124213934Y-123781752D01*
X124213935Y-123781750D01*
X124216680Y-123779373D01*
X124219972Y-123777869D01*
X124224578Y-123774908D01*
X124237000Y-123752153D01*
X124237000Y-123705004D01*
X124237000Y-123705003D01*
X124237000Y-123700000D01*
X124243428Y-123684482D01*
X124249730Y-123669267D01*
X124249731Y-123669265D01*
X124251645Y-123664645D01*
X124256263Y-123662731D01*
X124256268Y-123662729D01*
X124282376Y-123651915D01*
X124282377Y-123651914D01*
X124287000Y-123650000D01*
X124837000Y-123650000D01*
X124872355Y-123664645D01*
G37*
G36*
X97719116Y-119700818D02*
G01*
X97771524Y-119706899D01*
X97789430Y-119714805D01*
X97812584Y-119719411D01*
X97837371Y-119735973D01*
X97858614Y-119745353D01*
X97873122Y-119759861D01*
X97895312Y-119774688D01*
X97910138Y-119796877D01*
X97924646Y-119811385D01*
X97934024Y-119832625D01*
X97950589Y-119857416D01*
X97955195Y-119880572D01*
X97963100Y-119898475D01*
X97969178Y-119950872D01*
X97970000Y-119955000D01*
X97970000Y-124445000D01*
X97969178Y-124449128D01*
X97963100Y-124501524D01*
X97955195Y-124519426D01*
X97950589Y-124542584D01*
X97934023Y-124567376D01*
X97924646Y-124588614D01*
X97910140Y-124603119D01*
X97895312Y-124625312D01*
X97873119Y-124640140D01*
X97858614Y-124654646D01*
X97837376Y-124664023D01*
X97812584Y-124680589D01*
X97789426Y-124685195D01*
X97771524Y-124693100D01*
X97719129Y-124699178D01*
X97715000Y-124700000D01*
X97205000Y-124700000D01*
X97200873Y-124699179D01*
X97148475Y-124693100D01*
X97130572Y-124685195D01*
X97107416Y-124680589D01*
X97082625Y-124664024D01*
X97061385Y-124654646D01*
X97046877Y-124640138D01*
X97024688Y-124625312D01*
X97009861Y-124603122D01*
X96995353Y-124588614D01*
X96985973Y-124567371D01*
X96969411Y-124542584D01*
X96964805Y-124519430D01*
X96956899Y-124501524D01*
X96950818Y-124449117D01*
X96950000Y-124445000D01*
X96950000Y-119955000D01*
X96950818Y-119950885D01*
X96956899Y-119898475D01*
X96964805Y-119880568D01*
X96969411Y-119857416D01*
X96985972Y-119832630D01*
X96995353Y-119811385D01*
X97009863Y-119796874D01*
X97024688Y-119774688D01*
X97046874Y-119759863D01*
X97061385Y-119745353D01*
X97082630Y-119735972D01*
X97107416Y-119719411D01*
X97130568Y-119714805D01*
X97148475Y-119706899D01*
X97200884Y-119700818D01*
X97205000Y-119700000D01*
X97715000Y-119700000D01*
X97719116Y-119700818D01*
G37*
G36*
X100259116Y-119700818D02*
G01*
X100311524Y-119706899D01*
X100329430Y-119714805D01*
X100352584Y-119719411D01*
X100377371Y-119735973D01*
X100398614Y-119745353D01*
X100413122Y-119759861D01*
X100435312Y-119774688D01*
X100450138Y-119796877D01*
X100464646Y-119811385D01*
X100474024Y-119832625D01*
X100490589Y-119857416D01*
X100495195Y-119880572D01*
X100503100Y-119898475D01*
X100509178Y-119950872D01*
X100510000Y-119955000D01*
X100510000Y-124445000D01*
X100509178Y-124449128D01*
X100503100Y-124501524D01*
X100495195Y-124519426D01*
X100490589Y-124542584D01*
X100474023Y-124567376D01*
X100464646Y-124588614D01*
X100450140Y-124603119D01*
X100435312Y-124625312D01*
X100413119Y-124640140D01*
X100398614Y-124654646D01*
X100377376Y-124664023D01*
X100352584Y-124680589D01*
X100329426Y-124685195D01*
X100311524Y-124693100D01*
X100259129Y-124699178D01*
X100255000Y-124700000D01*
X99745000Y-124700000D01*
X99740873Y-124699179D01*
X99688475Y-124693100D01*
X99670572Y-124685195D01*
X99647416Y-124680589D01*
X99622625Y-124664024D01*
X99601385Y-124654646D01*
X99586877Y-124640138D01*
X99564688Y-124625312D01*
X99549861Y-124603122D01*
X99535353Y-124588614D01*
X99525973Y-124567371D01*
X99509411Y-124542584D01*
X99504805Y-124519430D01*
X99496899Y-124501524D01*
X99490818Y-124449117D01*
X99490000Y-124445000D01*
X99490000Y-119955000D01*
X99490818Y-119950885D01*
X99496899Y-119898475D01*
X99504805Y-119880568D01*
X99509411Y-119857416D01*
X99525972Y-119832630D01*
X99535353Y-119811385D01*
X99549863Y-119796874D01*
X99564688Y-119774688D01*
X99586874Y-119759863D01*
X99601385Y-119745353D01*
X99622630Y-119735972D01*
X99647416Y-119719411D01*
X99670568Y-119714805D01*
X99688475Y-119706899D01*
X99740884Y-119700818D01*
X99745000Y-119700000D01*
X100255000Y-119700000D01*
X100259116Y-119700818D01*
G37*
G36*
X102799116Y-119700818D02*
G01*
X102851524Y-119706899D01*
X102869430Y-119714805D01*
X102892584Y-119719411D01*
X102917371Y-119735973D01*
X102938614Y-119745353D01*
X102953122Y-119759861D01*
X102975312Y-119774688D01*
X102990138Y-119796877D01*
X103004646Y-119811385D01*
X103014024Y-119832625D01*
X103030589Y-119857416D01*
X103035195Y-119880572D01*
X103043100Y-119898475D01*
X103049178Y-119950872D01*
X103050000Y-119955000D01*
X103050000Y-124445000D01*
X103049178Y-124449128D01*
X103043100Y-124501524D01*
X103035195Y-124519426D01*
X103030589Y-124542584D01*
X103014023Y-124567376D01*
X103004646Y-124588614D01*
X102990140Y-124603119D01*
X102975312Y-124625312D01*
X102953119Y-124640140D01*
X102938614Y-124654646D01*
X102917376Y-124664023D01*
X102892584Y-124680589D01*
X102869426Y-124685195D01*
X102851524Y-124693100D01*
X102799129Y-124699178D01*
X102795000Y-124700000D01*
X102285000Y-124700000D01*
X102280873Y-124699179D01*
X102228475Y-124693100D01*
X102210572Y-124685195D01*
X102187416Y-124680589D01*
X102162625Y-124664024D01*
X102141385Y-124654646D01*
X102126877Y-124640138D01*
X102104688Y-124625312D01*
X102089861Y-124603122D01*
X102075353Y-124588614D01*
X102065973Y-124567371D01*
X102049411Y-124542584D01*
X102044805Y-124519430D01*
X102036899Y-124501524D01*
X102030818Y-124449117D01*
X102030000Y-124445000D01*
X102030000Y-119955000D01*
X102030818Y-119950885D01*
X102036899Y-119898475D01*
X102044805Y-119880568D01*
X102049411Y-119857416D01*
X102065972Y-119832630D01*
X102075353Y-119811385D01*
X102089863Y-119796874D01*
X102104688Y-119774688D01*
X102126874Y-119759863D01*
X102141385Y-119745353D01*
X102162630Y-119735972D01*
X102187416Y-119719411D01*
X102210568Y-119714805D01*
X102228475Y-119706899D01*
X102280884Y-119700818D01*
X102285000Y-119700000D01*
X102795000Y-119700000D01*
X102799116Y-119700818D01*
G37*
G36*
X130185969Y-123680944D02*
G01*
X129867771Y-123999142D01*
X129019243Y-123150614D01*
X129022784Y-123147073D01*
X129333903Y-122835953D01*
X129333906Y-122835950D01*
X129337441Y-122832416D01*
X130185969Y-123680944D01*
G37*
G36*
X70628567Y-122798423D02*
G01*
X70977218Y-123147073D01*
X70977219Y-123147075D01*
X70980757Y-123150613D01*
X70695587Y-123435783D01*
X70135769Y-123995602D01*
X70135765Y-123995604D01*
X70132229Y-123999141D01*
X69783088Y-123650000D01*
X69640793Y-123507706D01*
X69640790Y-123507702D01*
X69637255Y-123504167D01*
X69640792Y-123500629D01*
X69640795Y-123500626D01*
X70482242Y-122659177D01*
X70482251Y-122659170D01*
X70485783Y-122655639D01*
X70628567Y-122798423D01*
G37*
G36*
X130154152Y-122022782D02*
G01*
X130154153Y-122022783D01*
X130995602Y-122864230D01*
X130995606Y-122864236D01*
X130999141Y-122867771D01*
X130504167Y-123362745D01*
X130292034Y-123150612D01*
X129659177Y-122517757D01*
X129659172Y-122517750D01*
X129655639Y-122514217D01*
X129659178Y-122510676D01*
X130147073Y-122022781D01*
X130147079Y-122022776D01*
X130150613Y-122019243D01*
X130154152Y-122022782D01*
G37*
G36*
X70167584Y-122337441D02*
G01*
X69319056Y-123185969D01*
X69000858Y-122867771D01*
X69357952Y-122510677D01*
X69845848Y-122022780D01*
X69845851Y-122022777D01*
X69849386Y-122019243D01*
X70167584Y-122337441D01*
G37*
G36*
X112213576Y-122200657D02*
G01*
X112258995Y-122231005D01*
X112289343Y-122276424D01*
X112300000Y-122330000D01*
X112300000Y-122670000D01*
X112289343Y-122723576D01*
X112258995Y-122768995D01*
X112213576Y-122799343D01*
X112160000Y-122810000D01*
X111880000Y-122810000D01*
X111826424Y-122799343D01*
X111781005Y-122768995D01*
X111750657Y-122723576D01*
X111740000Y-122670000D01*
X111740000Y-122330000D01*
X111750657Y-122276424D01*
X111781005Y-122231005D01*
X111826424Y-122200657D01*
X111880000Y-122190000D01*
X112160000Y-122190000D01*
X112213576Y-122200657D01*
G37*
G36*
X113173576Y-122200657D02*
G01*
X113218995Y-122231005D01*
X113249343Y-122276424D01*
X113260000Y-122330000D01*
X113260000Y-122670000D01*
X113249343Y-122723576D01*
X113218995Y-122768995D01*
X113173576Y-122799343D01*
X113120000Y-122810000D01*
X112840000Y-122810000D01*
X112786424Y-122799343D01*
X112741005Y-122768995D01*
X112710657Y-122723576D01*
X112700000Y-122670000D01*
X112700000Y-122330000D01*
X112710657Y-122276424D01*
X112741005Y-122231005D01*
X112786424Y-122200657D01*
X112840000Y-122190000D01*
X113120000Y-122190000D01*
X113173576Y-122200657D01*
G37*
G36*
X124213576Y-122200657D02*
G01*
X124258995Y-122231005D01*
X124289343Y-122276424D01*
X124300000Y-122330000D01*
X124300000Y-122670000D01*
X124289343Y-122723576D01*
X124258995Y-122768995D01*
X124213576Y-122799343D01*
X124160000Y-122810000D01*
X123880000Y-122810000D01*
X123826424Y-122799343D01*
X123781005Y-122768995D01*
X123750657Y-122723576D01*
X123740000Y-122670000D01*
X123740000Y-122330000D01*
X123750657Y-122276424D01*
X123781005Y-122231005D01*
X123826424Y-122200657D01*
X123880000Y-122190000D01*
X124160000Y-122190000D01*
X124213576Y-122200657D01*
G37*
G36*
X125173576Y-122200657D02*
G01*
X125218995Y-122231005D01*
X125249343Y-122276424D01*
X125260000Y-122330000D01*
X125260000Y-122670000D01*
X125249343Y-122723576D01*
X125218995Y-122768995D01*
X125173576Y-122799343D01*
X125120000Y-122810000D01*
X124840000Y-122810000D01*
X124786424Y-122799343D01*
X124741005Y-122768995D01*
X124710657Y-122723576D01*
X124700000Y-122670000D01*
X124700000Y-122330000D01*
X124710657Y-122276424D01*
X124741005Y-122231005D01*
X124786424Y-122200657D01*
X124840000Y-122190000D01*
X125120000Y-122190000D01*
X125173576Y-122200657D01*
G37*
G36*
X68510504Y-121193340D02*
G01*
X68510508Y-121193341D01*
X68536615Y-121204155D01*
X68541238Y-121206070D01*
X68544774Y-121209606D01*
X68544777Y-121209608D01*
X68578117Y-121242948D01*
X68602994Y-121250255D01*
X68608338Y-121249092D01*
X68611732Y-121247827D01*
X68615345Y-121247568D01*
X68615348Y-121247568D01*
X68750066Y-121237932D01*
X68750071Y-121237932D01*
X68753685Y-121237674D01*
X68757227Y-121238444D01*
X68757232Y-121238445D01*
X68889198Y-121267152D01*
X68889204Y-121267154D01*
X68892747Y-121267925D01*
X68895932Y-121269664D01*
X68895934Y-121269665D01*
X68972733Y-121311601D01*
X69006204Y-121306789D01*
X69068027Y-121244964D01*
X69068033Y-121244959D01*
X69071568Y-121241425D01*
X69076187Y-121239511D01*
X69076190Y-121239510D01*
X69102304Y-121228694D01*
X69102306Y-121228693D01*
X69106924Y-121226781D01*
X69111545Y-121228695D01*
X69111549Y-121228696D01*
X69137656Y-121239510D01*
X69142279Y-121241425D01*
X69531188Y-121630334D01*
X69545832Y-121665689D01*
X69531188Y-121701045D01*
X68682660Y-122549573D01*
X68647304Y-122564217D01*
X68611949Y-122549573D01*
X68223040Y-122160664D01*
X68208396Y-122125309D01*
X68210308Y-122120691D01*
X68210309Y-122120689D01*
X68221126Y-122094573D01*
X68221127Y-122094571D01*
X68223040Y-122089953D01*
X68226573Y-122086419D01*
X68226578Y-122086413D01*
X68288404Y-122024589D01*
X68293216Y-121991118D01*
X68251280Y-121914319D01*
X68251279Y-121914317D01*
X68249540Y-121911132D01*
X68248769Y-121907589D01*
X68248767Y-121907583D01*
X68229606Y-121819495D01*
X68222606Y-121806676D01*
X68081619Y-121665689D01*
X68066975Y-121630334D01*
X68068888Y-121625713D01*
X68068890Y-121625708D01*
X68079704Y-121599601D01*
X68079705Y-121599598D01*
X68081619Y-121594979D01*
X68085152Y-121591445D01*
X68085155Y-121591442D01*
X68466990Y-121209607D01*
X68466993Y-121209604D01*
X68470528Y-121206070D01*
X68480785Y-121201821D01*
X68501258Y-121193341D01*
X68501261Y-121193340D01*
X68505883Y-121191426D01*
X68510504Y-121193340D01*
G37*
G36*
X131480353Y-121174955D02*
G01*
X131480357Y-121174956D01*
X131499139Y-121182736D01*
X131511087Y-121187685D01*
X131899996Y-121576594D01*
X131914640Y-121611949D01*
X131899996Y-121647304D01*
X131759006Y-121788293D01*
X131752009Y-121801106D01*
X131732075Y-121892747D01*
X131688398Y-121972733D01*
X131693209Y-122006203D01*
X131758575Y-122071568D01*
X131773219Y-122106924D01*
X131758575Y-122142279D01*
X131369666Y-122531188D01*
X131334311Y-122545832D01*
X131298955Y-122531188D01*
X130450427Y-121682660D01*
X130435783Y-121647304D01*
X130437696Y-121642683D01*
X130437698Y-121642678D01*
X130448512Y-121616571D01*
X130448513Y-121616568D01*
X130450427Y-121611949D01*
X130453960Y-121608415D01*
X130453963Y-121608412D01*
X130835798Y-121226577D01*
X130835801Y-121226574D01*
X130839336Y-121223040D01*
X130849593Y-121218791D01*
X130870066Y-121210311D01*
X130870069Y-121210310D01*
X130874691Y-121208396D01*
X130879309Y-121210308D01*
X130879310Y-121210309D01*
X130886010Y-121213084D01*
X130910047Y-121223040D01*
X130913582Y-121226575D01*
X130913586Y-121226578D01*
X130975410Y-121288404D01*
X131008881Y-121293216D01*
X131085677Y-121251281D01*
X131085685Y-121251277D01*
X131088868Y-121249540D01*
X131092408Y-121248769D01*
X131092416Y-121248767D01*
X131224382Y-121220060D01*
X131224387Y-121220059D01*
X131227930Y-121219289D01*
X131231542Y-121219547D01*
X131231548Y-121219547D01*
X131366260Y-121229182D01*
X131366265Y-121229183D01*
X131369883Y-121229442D01*
X131373280Y-121230709D01*
X131378617Y-121231870D01*
X131403496Y-121224564D01*
X131436840Y-121191221D01*
X131436842Y-121191219D01*
X131440377Y-121187685D01*
X131444996Y-121185771D01*
X131444999Y-121185770D01*
X131471106Y-121174956D01*
X131471111Y-121174954D01*
X131475732Y-121173041D01*
X131480353Y-121174955D01*
G37*
G36*
X132889073Y-120515992D02*
G01*
X132934492Y-120546340D01*
X133132482Y-120744330D01*
X133162830Y-120789749D01*
X133173487Y-120843325D01*
X133162830Y-120896900D01*
X133132482Y-120942320D01*
X132892066Y-121182736D01*
X132846646Y-121213084D01*
X132793071Y-121223741D01*
X132739495Y-121213084D01*
X132694076Y-121182736D01*
X132496086Y-120984746D01*
X132465738Y-120939327D01*
X132455081Y-120885751D01*
X132465738Y-120832176D01*
X132496086Y-120786756D01*
X132542052Y-120740790D01*
X132732962Y-120549879D01*
X132732965Y-120549876D01*
X132736502Y-120546340D01*
X132781922Y-120515992D01*
X132835497Y-120505335D01*
X132889073Y-120515992D01*
G37*
G36*
X132210251Y-119837170D02*
G01*
X132255670Y-119867518D01*
X132453660Y-120065508D01*
X132484008Y-120110927D01*
X132494665Y-120164503D01*
X132484008Y-120218078D01*
X132453660Y-120263498D01*
X132213244Y-120503914D01*
X132167824Y-120534262D01*
X132114249Y-120544919D01*
X132060673Y-120534262D01*
X132015254Y-120503914D01*
X131817264Y-120305924D01*
X131786916Y-120260505D01*
X131776259Y-120206929D01*
X131786916Y-120153354D01*
X131817264Y-120107934D01*
X131863230Y-120061968D01*
X132054140Y-119871057D01*
X132054143Y-119871054D01*
X132057680Y-119867518D01*
X132103100Y-119837170D01*
X132156675Y-119826513D01*
X132210251Y-119837170D01*
G37*
G36*
X75213576Y-119200657D02*
G01*
X75258995Y-119231005D01*
X75289343Y-119276424D01*
X75300000Y-119330000D01*
X75300000Y-119670000D01*
X75289343Y-119723576D01*
X75258995Y-119768995D01*
X75213576Y-119799343D01*
X75160000Y-119810000D01*
X74880000Y-119810000D01*
X74826424Y-119799343D01*
X74781005Y-119768995D01*
X74750657Y-119723576D01*
X74740000Y-119670000D01*
X74740000Y-119330000D01*
X74750657Y-119276424D01*
X74781005Y-119231005D01*
X74826424Y-119200657D01*
X74880000Y-119190000D01*
X75160000Y-119190000D01*
X75213576Y-119200657D01*
G37*
G36*
X76173576Y-119200657D02*
G01*
X76218995Y-119231005D01*
X76249343Y-119276424D01*
X76260000Y-119330000D01*
X76260000Y-119670000D01*
X76249343Y-119723576D01*
X76218995Y-119768995D01*
X76173576Y-119799343D01*
X76120000Y-119810000D01*
X75840000Y-119810000D01*
X75786424Y-119799343D01*
X75741005Y-119768995D01*
X75710657Y-119723576D01*
X75700000Y-119670000D01*
X75700000Y-119330000D01*
X75710657Y-119276424D01*
X75741005Y-119231005D01*
X75786424Y-119200657D01*
X75840000Y-119190000D01*
X76120000Y-119190000D01*
X76173576Y-119200657D01*
G37*
G36*
X87213576Y-119200657D02*
G01*
X87258995Y-119231005D01*
X87289343Y-119276424D01*
X87300000Y-119330000D01*
X87300000Y-119670000D01*
X87289343Y-119723576D01*
X87258995Y-119768995D01*
X87213576Y-119799343D01*
X87160000Y-119810000D01*
X86880000Y-119810000D01*
X86826424Y-119799343D01*
X86781005Y-119768995D01*
X86750657Y-119723576D01*
X86740000Y-119670000D01*
X86740000Y-119330000D01*
X86750657Y-119276424D01*
X86781005Y-119231005D01*
X86826424Y-119200657D01*
X86880000Y-119190000D01*
X87160000Y-119190000D01*
X87213576Y-119200657D01*
G37*
G36*
X88173576Y-119200657D02*
G01*
X88218995Y-119231005D01*
X88249343Y-119276424D01*
X88260000Y-119330000D01*
X88260000Y-119670000D01*
X88249343Y-119723576D01*
X88218995Y-119768995D01*
X88173576Y-119799343D01*
X88120000Y-119810000D01*
X87840000Y-119810000D01*
X87786424Y-119799343D01*
X87741005Y-119768995D01*
X87710657Y-119723576D01*
X87700000Y-119670000D01*
X87700000Y-119330000D01*
X87710657Y-119276424D01*
X87741005Y-119231005D01*
X87786424Y-119200657D01*
X87840000Y-119190000D01*
X88120000Y-119190000D01*
X88173576Y-119200657D01*
G37*
G36*
X66648355Y-117264645D02*
G01*
X66663000Y-117300000D01*
X66663000Y-117850000D01*
X66648355Y-117885355D01*
X66613000Y-117900000D01*
X66607996Y-117900000D01*
X66520560Y-117900000D01*
X66493491Y-117920264D01*
X66467816Y-118007708D01*
X66390875Y-118127430D01*
X66283320Y-118220627D01*
X66280006Y-118222140D01*
X66275428Y-118225083D01*
X66263000Y-118247843D01*
X66263000Y-118300000D01*
X66248355Y-118335355D01*
X66213000Y-118350000D01*
X66207996Y-118350000D01*
X65668004Y-118350000D01*
X65663000Y-118350000D01*
X65627645Y-118335355D01*
X65625730Y-118330732D01*
X65625729Y-118330731D01*
X65614915Y-118304623D01*
X65613000Y-118300000D01*
X65613000Y-118100615D01*
X65608885Y-118086600D01*
X65558184Y-118007708D01*
X65557162Y-118004227D01*
X65557160Y-118004223D01*
X65545548Y-117964674D01*
X65532508Y-117920264D01*
X65505440Y-117900000D01*
X65413000Y-117900000D01*
X65377645Y-117885355D01*
X65375730Y-117880732D01*
X65375729Y-117880731D01*
X65364915Y-117854623D01*
X65363000Y-117850000D01*
X65363000Y-117845001D01*
X65362999Y-117844996D01*
X65362999Y-117305004D01*
X65363000Y-117304998D01*
X65363000Y-117300000D01*
X65377645Y-117264645D01*
X65382263Y-117262731D01*
X65382268Y-117262729D01*
X65408376Y-117251915D01*
X65408377Y-117251914D01*
X65413000Y-117250000D01*
X66613000Y-117250000D01*
X66648355Y-117264645D01*
G37*
G36*
X76148355Y-117264645D02*
G01*
X76163000Y-117300000D01*
X76163000Y-117850000D01*
X76148355Y-117885355D01*
X76113000Y-117900000D01*
X76107996Y-117900000D01*
X76020560Y-117900000D01*
X75993491Y-117920264D01*
X75967816Y-118007708D01*
X75890875Y-118127430D01*
X75783320Y-118220627D01*
X75780006Y-118222140D01*
X75775428Y-118225083D01*
X75763000Y-118247843D01*
X75763000Y-118300000D01*
X75748355Y-118335355D01*
X75713000Y-118350000D01*
X75707996Y-118350000D01*
X75168004Y-118350000D01*
X75163000Y-118350000D01*
X75127645Y-118335355D01*
X75125730Y-118330732D01*
X75125729Y-118330731D01*
X75114915Y-118304623D01*
X75113000Y-118300000D01*
X75113000Y-118100615D01*
X75108885Y-118086600D01*
X75058184Y-118007708D01*
X75057162Y-118004227D01*
X75057160Y-118004223D01*
X75045548Y-117964674D01*
X75032508Y-117920264D01*
X75005440Y-117900000D01*
X74913000Y-117900000D01*
X74877645Y-117885355D01*
X74875730Y-117880732D01*
X74875729Y-117880731D01*
X74864915Y-117854623D01*
X74863000Y-117850000D01*
X74863000Y-117300000D01*
X74877645Y-117264645D01*
X74882263Y-117262731D01*
X74882268Y-117262729D01*
X74908376Y-117251915D01*
X74908377Y-117251914D01*
X74913000Y-117250000D01*
X76113000Y-117250000D01*
X76148355Y-117264645D01*
G37*
G36*
X88148355Y-117264645D02*
G01*
X88163000Y-117300000D01*
X88163000Y-117850000D01*
X88148355Y-117885355D01*
X88113000Y-117900000D01*
X88107996Y-117900000D01*
X88020560Y-117900000D01*
X87993491Y-117920264D01*
X87967816Y-118007708D01*
X87890875Y-118127430D01*
X87783320Y-118220627D01*
X87780006Y-118222140D01*
X87775428Y-118225083D01*
X87763000Y-118247843D01*
X87763000Y-118300000D01*
X87748355Y-118335355D01*
X87713000Y-118350000D01*
X87707996Y-118350000D01*
X87168004Y-118350000D01*
X87163000Y-118350000D01*
X87127645Y-118335355D01*
X87125730Y-118330732D01*
X87125729Y-118330731D01*
X87114915Y-118304623D01*
X87113000Y-118300000D01*
X87113000Y-118100614D01*
X87108885Y-118086600D01*
X87058184Y-118007708D01*
X87057162Y-118004227D01*
X87057160Y-118004223D01*
X87045548Y-117964674D01*
X87032508Y-117920264D01*
X87005440Y-117900000D01*
X86913000Y-117900000D01*
X86877645Y-117885355D01*
X86875730Y-117880732D01*
X86875729Y-117880731D01*
X86864915Y-117854623D01*
X86863000Y-117850000D01*
X86863000Y-117300000D01*
X86877645Y-117264645D01*
X86882263Y-117262731D01*
X86882268Y-117262729D01*
X86908376Y-117251915D01*
X86908377Y-117251914D01*
X86913000Y-117250000D01*
X88113000Y-117250000D01*
X88148355Y-117264645D01*
G37*
G36*
X100648355Y-117264645D02*
G01*
X100663000Y-117300000D01*
X100663000Y-117850000D01*
X100648355Y-117885355D01*
X100613000Y-117900000D01*
X100607996Y-117900000D01*
X100520560Y-117900000D01*
X100493491Y-117920264D01*
X100467816Y-118007708D01*
X100417114Y-118086600D01*
X100413000Y-118100615D01*
X100413000Y-118300000D01*
X100398355Y-118335355D01*
X100363000Y-118350000D01*
X100357996Y-118350000D01*
X99818004Y-118350000D01*
X99813000Y-118350000D01*
X99777645Y-118335355D01*
X99775730Y-118330732D01*
X99775729Y-118330731D01*
X99764915Y-118304623D01*
X99763000Y-118300000D01*
X99763000Y-118247843D01*
X99750572Y-118225083D01*
X99745992Y-118222139D01*
X99742680Y-118220627D01*
X99635125Y-118127430D01*
X99558184Y-118007708D01*
X99557162Y-118004227D01*
X99557160Y-118004223D01*
X99545548Y-117964674D01*
X99532508Y-117920264D01*
X99505440Y-117900000D01*
X99413000Y-117900000D01*
X99377645Y-117885355D01*
X99375730Y-117880732D01*
X99375729Y-117880731D01*
X99364915Y-117854623D01*
X99363000Y-117850000D01*
X99363000Y-117300000D01*
X99377645Y-117264645D01*
X99382263Y-117262731D01*
X99382268Y-117262729D01*
X99408376Y-117251915D01*
X99408377Y-117251914D01*
X99413000Y-117250000D01*
X100613000Y-117250000D01*
X100648355Y-117264645D01*
G37*
G36*
X113148355Y-117264645D02*
G01*
X113163000Y-117300000D01*
X113163000Y-117850000D01*
X113148355Y-117885355D01*
X113113000Y-117900000D01*
X113107996Y-117900000D01*
X113020560Y-117900000D01*
X112993491Y-117920264D01*
X112967816Y-118007708D01*
X112917114Y-118086600D01*
X112913000Y-118100611D01*
X112913000Y-118300000D01*
X112898355Y-118335355D01*
X112863000Y-118350000D01*
X112857996Y-118350000D01*
X112318004Y-118350000D01*
X112313000Y-118350000D01*
X112277645Y-118335355D01*
X112275730Y-118330732D01*
X112275729Y-118330731D01*
X112264915Y-118304623D01*
X112263000Y-118300000D01*
X112263000Y-118247843D01*
X112250572Y-118225083D01*
X112245992Y-118222139D01*
X112242680Y-118220627D01*
X112135125Y-118127430D01*
X112058184Y-118007708D01*
X112057162Y-118004227D01*
X112057160Y-118004223D01*
X112045548Y-117964674D01*
X112032508Y-117920264D01*
X112005440Y-117900000D01*
X111913000Y-117900000D01*
X111877645Y-117885355D01*
X111875730Y-117880732D01*
X111875729Y-117880731D01*
X111864915Y-117854623D01*
X111863000Y-117850000D01*
X111863000Y-117300000D01*
X111877645Y-117264645D01*
X111882263Y-117262731D01*
X111882268Y-117262729D01*
X111908376Y-117251915D01*
X111908377Y-117251914D01*
X111913000Y-117250000D01*
X113113000Y-117250000D01*
X113148355Y-117264645D01*
G37*
G36*
X125148355Y-117264645D02*
G01*
X125163000Y-117300000D01*
X125163000Y-117850000D01*
X125148355Y-117885355D01*
X125113000Y-117900000D01*
X125107996Y-117900000D01*
X125020560Y-117900000D01*
X124993491Y-117920264D01*
X124967816Y-118007708D01*
X124917114Y-118086600D01*
X124913000Y-118100611D01*
X124913000Y-118300000D01*
X124898355Y-118335355D01*
X124863000Y-118350000D01*
X124857996Y-118350000D01*
X124318004Y-118350000D01*
X124313000Y-118350000D01*
X124277645Y-118335355D01*
X124275730Y-118330732D01*
X124275729Y-118330731D01*
X124264915Y-118304623D01*
X124263000Y-118300000D01*
X124263000Y-118247843D01*
X124250572Y-118225083D01*
X124245992Y-118222139D01*
X124242680Y-118220627D01*
X124135125Y-118127430D01*
X124058184Y-118007708D01*
X124057162Y-118004227D01*
X124057160Y-118004223D01*
X124045548Y-117964674D01*
X124032508Y-117920264D01*
X124005440Y-117900000D01*
X123913000Y-117900000D01*
X123877645Y-117885355D01*
X123875730Y-117880732D01*
X123875729Y-117880731D01*
X123864915Y-117854623D01*
X123863000Y-117850000D01*
X123863000Y-117300000D01*
X123877645Y-117264645D01*
X123882263Y-117262731D01*
X123882268Y-117262729D01*
X123908376Y-117251915D01*
X123908377Y-117251914D01*
X123913000Y-117250000D01*
X125113000Y-117250000D01*
X125148355Y-117264645D01*
G37*
G36*
X134648355Y-117264645D02*
G01*
X134663000Y-117300000D01*
X134663000Y-117850000D01*
X134648355Y-117885355D01*
X134613000Y-117900000D01*
X134607996Y-117900000D01*
X134520560Y-117900000D01*
X134493491Y-117920264D01*
X134467816Y-118007708D01*
X134417114Y-118086600D01*
X134413000Y-118100615D01*
X134413000Y-118300000D01*
X134398355Y-118335355D01*
X134363000Y-118350000D01*
X134357996Y-118350000D01*
X133818004Y-118350000D01*
X133813000Y-118350000D01*
X133777645Y-118335355D01*
X133775730Y-118330732D01*
X133775729Y-118330731D01*
X133764915Y-118304623D01*
X133763000Y-118300000D01*
X133763000Y-118247843D01*
X133750572Y-118225083D01*
X133745992Y-118222139D01*
X133742680Y-118220627D01*
X133635125Y-118127430D01*
X133558184Y-118007708D01*
X133557162Y-118004227D01*
X133557160Y-118004223D01*
X133545548Y-117964674D01*
X133532508Y-117920264D01*
X133505440Y-117900000D01*
X133413000Y-117900000D01*
X133377645Y-117885355D01*
X133375730Y-117880732D01*
X133375729Y-117880731D01*
X133364915Y-117854623D01*
X133363000Y-117850000D01*
X133363000Y-117300000D01*
X133377645Y-117264645D01*
X133382263Y-117262731D01*
X133382268Y-117262729D01*
X133408376Y-117251915D01*
X133408377Y-117251914D01*
X133413000Y-117250000D01*
X134613000Y-117250000D01*
X134648355Y-117264645D01*
G37*
G36*
X66587000Y-116800000D02*
G01*
X65387000Y-116800000D01*
X65387000Y-116100000D01*
X66587000Y-116100000D01*
X66587000Y-116800000D01*
G37*
G36*
X76087000Y-116800000D02*
G01*
X74887000Y-116800000D01*
X74887000Y-116100000D01*
X76087000Y-116100000D01*
X76087000Y-116800000D01*
G37*
G36*
X88087000Y-116800000D02*
G01*
X86887000Y-116800000D01*
X86887000Y-116100000D01*
X88087000Y-116100000D01*
X88087000Y-116800000D01*
G37*
G36*
X100613000Y-116800000D02*
G01*
X99413000Y-116800000D01*
X99413000Y-116350000D01*
X100613000Y-116350000D01*
X100613000Y-116800000D01*
G37*
G36*
X113113000Y-116800000D02*
G01*
X111913000Y-116800000D01*
X111913000Y-116350000D01*
X113113000Y-116350000D01*
X113113000Y-116800000D01*
G37*
G36*
X125113000Y-116800000D02*
G01*
X123913000Y-116800000D01*
X123913000Y-116350000D01*
X125113000Y-116350000D01*
X125113000Y-116800000D01*
G37*
G36*
X134613000Y-116800000D02*
G01*
X133413000Y-116800000D01*
X133413000Y-116350000D01*
X134613000Y-116350000D01*
X134613000Y-116800000D01*
G37*
G36*
X64723576Y-116210657D02*
G01*
X64768995Y-116241005D01*
X64799343Y-116286424D01*
X64810000Y-116340000D01*
X64810000Y-116620000D01*
X64799343Y-116673576D01*
X64768995Y-116718995D01*
X64723576Y-116749343D01*
X64670000Y-116760000D01*
X64330000Y-116760000D01*
X64276424Y-116749343D01*
X64231005Y-116718995D01*
X64200657Y-116673576D01*
X64190000Y-116620000D01*
X64190000Y-116340000D01*
X64200657Y-116286424D01*
X64231005Y-116241005D01*
X64276424Y-116210657D01*
X64330000Y-116200000D01*
X64670000Y-116200000D01*
X64723576Y-116210657D01*
G37*
G36*
X100613000Y-115900000D02*
G01*
X99413000Y-115900000D01*
X99413000Y-115200000D01*
X100613000Y-115200000D01*
X100613000Y-115900000D01*
G37*
G36*
X113113000Y-115900000D02*
G01*
X111913000Y-115900000D01*
X111913000Y-115200000D01*
X113113000Y-115200000D01*
X113113000Y-115900000D01*
G37*
G36*
X125113000Y-115900000D02*
G01*
X123913000Y-115900000D01*
X123913000Y-115200000D01*
X125113000Y-115200000D01*
X125113000Y-115900000D01*
G37*
G36*
X134613000Y-115900000D02*
G01*
X133413000Y-115900000D01*
X133413000Y-115200000D01*
X134613000Y-115200000D01*
X134613000Y-115900000D01*
G37*
G36*
X64723576Y-115250657D02*
G01*
X64768995Y-115281005D01*
X64799343Y-115326424D01*
X64810000Y-115380000D01*
X64810000Y-115660000D01*
X64799343Y-115713576D01*
X64768995Y-115758995D01*
X64723576Y-115789343D01*
X64670000Y-115800000D01*
X64330000Y-115800000D01*
X64276424Y-115789343D01*
X64231005Y-115758995D01*
X64200657Y-115713576D01*
X64190000Y-115660000D01*
X64190000Y-115380000D01*
X64200657Y-115326424D01*
X64231005Y-115281005D01*
X64276424Y-115250657D01*
X64330000Y-115240000D01*
X64670000Y-115240000D01*
X64723576Y-115250657D01*
G37*
G36*
X66587000Y-115650000D02*
G01*
X65387000Y-115650000D01*
X65387000Y-115200000D01*
X66587000Y-115200000D01*
X66587000Y-115650000D01*
G37*
G36*
X76087000Y-115650000D02*
G01*
X74887000Y-115650000D01*
X74887000Y-115200000D01*
X76087000Y-115200000D01*
X76087000Y-115650000D01*
G37*
G36*
X88087000Y-115650000D02*
G01*
X86887000Y-115650000D01*
X86887000Y-115200000D01*
X88087000Y-115200000D01*
X88087000Y-115650000D01*
G37*
G36*
X66222355Y-113664645D02*
G01*
X66237000Y-113700000D01*
X66237000Y-113705003D01*
X66237000Y-113752153D01*
X66249422Y-113774908D01*
X66254026Y-113777868D01*
X66257320Y-113779373D01*
X66364875Y-113872570D01*
X66441816Y-113992292D01*
X66467491Y-114079735D01*
X66494560Y-114100000D01*
X66581996Y-114100000D01*
X66587000Y-114100000D01*
X66622355Y-114114645D01*
X66637000Y-114150000D01*
X66637000Y-114700000D01*
X66622355Y-114735355D01*
X66587000Y-114750000D01*
X66581996Y-114750000D01*
X65392004Y-114750000D01*
X65387000Y-114750000D01*
X65351645Y-114735355D01*
X65349730Y-114730732D01*
X65349729Y-114730731D01*
X65338915Y-114704623D01*
X65337000Y-114700000D01*
X65337000Y-114150000D01*
X65351645Y-114114645D01*
X65356263Y-114112731D01*
X65356268Y-114112729D01*
X65382376Y-114101915D01*
X65382377Y-114101914D01*
X65387000Y-114100000D01*
X65479440Y-114100000D01*
X65506508Y-114079735D01*
X65517498Y-114042306D01*
X65531160Y-113995776D01*
X65531162Y-113995769D01*
X65532184Y-113992292D01*
X65534144Y-113989241D01*
X65534146Y-113989238D01*
X65582885Y-113913400D01*
X65587000Y-113899384D01*
X65587000Y-113705004D01*
X65587000Y-113705003D01*
X65587000Y-113700000D01*
X65601645Y-113664645D01*
X65606263Y-113662731D01*
X65606268Y-113662729D01*
X65632376Y-113651915D01*
X65632377Y-113651914D01*
X65637000Y-113650000D01*
X66187000Y-113650000D01*
X66222355Y-113664645D01*
G37*
G36*
X75722355Y-113664645D02*
G01*
X75737000Y-113700000D01*
X75737000Y-113705003D01*
X75737000Y-113752153D01*
X75749422Y-113774908D01*
X75754026Y-113777868D01*
X75757320Y-113779373D01*
X75864875Y-113872570D01*
X75941816Y-113992292D01*
X75967491Y-114079735D01*
X75994560Y-114100000D01*
X76081996Y-114100000D01*
X76087000Y-114100000D01*
X76122355Y-114114645D01*
X76137000Y-114150000D01*
X76137000Y-114700000D01*
X76122355Y-114735355D01*
X76087000Y-114750000D01*
X76081996Y-114750000D01*
X74892004Y-114750000D01*
X74887000Y-114750000D01*
X74851645Y-114735355D01*
X74849730Y-114730732D01*
X74849729Y-114730731D01*
X74838915Y-114704623D01*
X74837000Y-114700000D01*
X74837000Y-114150000D01*
X74851645Y-114114645D01*
X74856263Y-114112731D01*
X74856268Y-114112729D01*
X74882376Y-114101915D01*
X74882377Y-114101914D01*
X74887000Y-114100000D01*
X74979440Y-114100000D01*
X75006508Y-114079735D01*
X75017498Y-114042306D01*
X75031160Y-113995776D01*
X75031162Y-113995769D01*
X75032184Y-113992292D01*
X75034144Y-113989241D01*
X75034146Y-113989238D01*
X75082885Y-113913400D01*
X75087000Y-113899384D01*
X75087000Y-113705004D01*
X75087000Y-113705003D01*
X75087000Y-113700000D01*
X75101645Y-113664645D01*
X75106263Y-113662731D01*
X75106268Y-113662729D01*
X75132376Y-113651915D01*
X75132377Y-113651914D01*
X75137000Y-113650000D01*
X75687000Y-113650000D01*
X75722355Y-113664645D01*
G37*
G36*
X87722355Y-113664645D02*
G01*
X87737000Y-113700000D01*
X87737000Y-113705003D01*
X87737000Y-113752153D01*
X87749422Y-113774908D01*
X87754026Y-113777868D01*
X87757320Y-113779373D01*
X87864875Y-113872570D01*
X87941816Y-113992292D01*
X87967491Y-114079735D01*
X87994560Y-114100000D01*
X88081996Y-114100000D01*
X88087000Y-114100000D01*
X88122355Y-114114645D01*
X88137000Y-114150000D01*
X88137000Y-114700000D01*
X88122355Y-114735355D01*
X88087000Y-114750000D01*
X88081996Y-114750000D01*
X86892004Y-114750000D01*
X86887000Y-114750000D01*
X86851645Y-114735355D01*
X86849730Y-114730732D01*
X86849729Y-114730731D01*
X86838915Y-114704623D01*
X86837000Y-114700000D01*
X86837000Y-114150000D01*
X86851645Y-114114645D01*
X86856263Y-114112731D01*
X86856268Y-114112729D01*
X86882376Y-114101915D01*
X86882377Y-114101914D01*
X86887000Y-114100000D01*
X86979440Y-114100000D01*
X87006508Y-114079735D01*
X87017498Y-114042306D01*
X87031160Y-113995776D01*
X87031162Y-113995769D01*
X87032184Y-113992292D01*
X87034144Y-113989241D01*
X87034146Y-113989238D01*
X87082885Y-113913400D01*
X87087000Y-113899384D01*
X87087000Y-113705004D01*
X87087000Y-113705003D01*
X87087000Y-113700000D01*
X87101645Y-113664645D01*
X87106263Y-113662731D01*
X87106268Y-113662729D01*
X87132376Y-113651915D01*
X87132377Y-113651914D01*
X87137000Y-113650000D01*
X87687000Y-113650000D01*
X87722355Y-113664645D01*
G37*
G36*
X100372355Y-113664645D02*
G01*
X100387000Y-113700000D01*
X100387000Y-113870188D01*
X100387000Y-113899384D01*
X100391115Y-113913400D01*
X100441816Y-113992292D01*
X100467491Y-114079735D01*
X100494560Y-114100000D01*
X100581996Y-114100000D01*
X100587000Y-114100000D01*
X100622355Y-114114645D01*
X100637000Y-114150000D01*
X100637000Y-114700000D01*
X100622355Y-114735355D01*
X100587000Y-114750000D01*
X100581996Y-114750000D01*
X99392004Y-114750000D01*
X99387000Y-114750000D01*
X99351645Y-114735355D01*
X99349730Y-114730732D01*
X99349729Y-114730731D01*
X99338915Y-114704623D01*
X99337000Y-114700000D01*
X99337000Y-114150000D01*
X99351645Y-114114645D01*
X99356263Y-114112731D01*
X99356268Y-114112729D01*
X99382376Y-114101915D01*
X99382377Y-114101914D01*
X99387000Y-114100000D01*
X99479440Y-114100000D01*
X99506508Y-114079735D01*
X99517498Y-114042306D01*
X99531160Y-113995776D01*
X99531162Y-113995769D01*
X99532184Y-113992292D01*
X99534144Y-113989241D01*
X99534146Y-113989238D01*
X99607160Y-113875627D01*
X99607161Y-113875625D01*
X99609125Y-113872570D01*
X99611870Y-113870191D01*
X99611873Y-113870188D01*
X99713934Y-113781752D01*
X99713935Y-113781750D01*
X99716680Y-113779373D01*
X99719972Y-113777869D01*
X99724578Y-113774908D01*
X99737000Y-113752153D01*
X99737000Y-113705004D01*
X99737000Y-113705003D01*
X99737000Y-113700000D01*
X99751645Y-113664645D01*
X99756263Y-113662731D01*
X99756268Y-113662729D01*
X99782376Y-113651915D01*
X99782377Y-113651914D01*
X99787000Y-113650000D01*
X100337000Y-113650000D01*
X100372355Y-113664645D01*
G37*
G36*
X112872355Y-113664645D02*
G01*
X112887000Y-113700000D01*
X112886999Y-113899387D01*
X112891113Y-113913397D01*
X112941816Y-113992292D01*
X112967491Y-114079735D01*
X112994560Y-114100000D01*
X113081996Y-114100000D01*
X113087000Y-114100000D01*
X113122355Y-114114645D01*
X113137000Y-114150000D01*
X113137000Y-114700000D01*
X113122355Y-114735355D01*
X113087000Y-114750000D01*
X113081996Y-114750000D01*
X111892004Y-114750000D01*
X111887000Y-114750000D01*
X111851645Y-114735355D01*
X111849730Y-114730732D01*
X111849729Y-114730731D01*
X111838915Y-114704623D01*
X111837000Y-114700000D01*
X111837000Y-114150000D01*
X111851645Y-114114645D01*
X111856263Y-114112731D01*
X111856268Y-114112729D01*
X111882376Y-114101915D01*
X111882377Y-114101914D01*
X111887000Y-114100000D01*
X111979440Y-114100000D01*
X112006508Y-114079735D01*
X112017498Y-114042306D01*
X112031160Y-113995776D01*
X112031162Y-113995769D01*
X112032184Y-113992292D01*
X112034144Y-113989241D01*
X112034146Y-113989238D01*
X112107160Y-113875627D01*
X112107161Y-113875625D01*
X112109125Y-113872570D01*
X112111870Y-113870191D01*
X112111873Y-113870188D01*
X112213934Y-113781752D01*
X112213935Y-113781750D01*
X112216680Y-113779373D01*
X112219972Y-113777869D01*
X112224578Y-113774908D01*
X112237000Y-113752153D01*
X112237000Y-113705004D01*
X112237000Y-113705003D01*
X112237000Y-113700000D01*
X112251645Y-113664645D01*
X112256263Y-113662731D01*
X112256268Y-113662729D01*
X112282376Y-113651915D01*
X112282377Y-113651914D01*
X112287000Y-113650000D01*
X112837000Y-113650000D01*
X112872355Y-113664645D01*
G37*
G36*
X124872355Y-113664645D02*
G01*
X124887000Y-113700000D01*
X124886999Y-113899387D01*
X124891113Y-113913397D01*
X124941816Y-113992292D01*
X124967491Y-114079735D01*
X124994560Y-114100000D01*
X125081996Y-114100000D01*
X125087000Y-114100000D01*
X125122355Y-114114645D01*
X125137000Y-114150000D01*
X125137000Y-114700000D01*
X125122355Y-114735355D01*
X125087000Y-114750000D01*
X125081996Y-114750000D01*
X123892004Y-114750000D01*
X123887000Y-114750000D01*
X123851645Y-114735355D01*
X123849730Y-114730732D01*
X123849729Y-114730731D01*
X123838915Y-114704623D01*
X123837000Y-114700000D01*
X123837000Y-114150000D01*
X123851645Y-114114645D01*
X123856263Y-114112731D01*
X123856268Y-114112729D01*
X123882376Y-114101915D01*
X123882377Y-114101914D01*
X123887000Y-114100000D01*
X123979440Y-114100000D01*
X124006508Y-114079735D01*
X124017498Y-114042306D01*
X124031160Y-113995776D01*
X124031162Y-113995769D01*
X124032184Y-113992292D01*
X124034144Y-113989241D01*
X124034146Y-113989238D01*
X124107160Y-113875627D01*
X124107161Y-113875625D01*
X124109125Y-113872570D01*
X124111870Y-113870191D01*
X124111873Y-113870188D01*
X124213934Y-113781752D01*
X124213935Y-113781750D01*
X124216680Y-113779373D01*
X124219972Y-113777869D01*
X124224578Y-113774908D01*
X124237000Y-113752153D01*
X124237000Y-113705004D01*
X124237000Y-113705003D01*
X124237000Y-113700000D01*
X124251645Y-113664645D01*
X124256263Y-113662731D01*
X124256268Y-113662729D01*
X124282376Y-113651915D01*
X124282377Y-113651914D01*
X124287000Y-113650000D01*
X124837000Y-113650000D01*
X124872355Y-113664645D01*
G37*
G36*
X134372355Y-113664645D02*
G01*
X134387000Y-113700000D01*
X134387000Y-113705002D01*
X134387000Y-113705003D01*
X134387000Y-113899384D01*
X134391115Y-113913400D01*
X134441816Y-113992292D01*
X134467491Y-114079735D01*
X134494560Y-114100000D01*
X134581996Y-114100000D01*
X134587000Y-114100000D01*
X134622355Y-114114645D01*
X134637000Y-114150000D01*
X134637000Y-114700000D01*
X134622355Y-114735355D01*
X134587000Y-114750000D01*
X134581996Y-114750000D01*
X133392004Y-114750000D01*
X133387000Y-114750000D01*
X133351645Y-114735355D01*
X133349730Y-114730732D01*
X133349729Y-114730731D01*
X133338915Y-114704623D01*
X133337000Y-114700000D01*
X133337000Y-114150000D01*
X133351645Y-114114645D01*
X133356263Y-114112731D01*
X133356268Y-114112729D01*
X133382376Y-114101915D01*
X133382377Y-114101914D01*
X133387000Y-114100000D01*
X133479440Y-114100000D01*
X133506508Y-114079735D01*
X133517498Y-114042306D01*
X133531160Y-113995776D01*
X133531162Y-113995769D01*
X133532184Y-113992292D01*
X133534144Y-113989241D01*
X133534146Y-113989238D01*
X133607160Y-113875627D01*
X133607161Y-113875625D01*
X133609125Y-113872570D01*
X133611870Y-113870191D01*
X133611873Y-113870188D01*
X133713934Y-113781752D01*
X133713935Y-113781750D01*
X133716680Y-113779373D01*
X133719972Y-113777869D01*
X133724578Y-113774908D01*
X133737000Y-113752153D01*
X133737000Y-113705004D01*
X133737000Y-113705003D01*
X133737000Y-113700000D01*
X133751645Y-113664645D01*
X133756263Y-113662731D01*
X133756268Y-113662729D01*
X133782376Y-113651915D01*
X133782377Y-113651914D01*
X133787000Y-113650000D01*
X134337000Y-113650000D01*
X134372355Y-113664645D01*
G37*
G36*
X99713576Y-112200657D02*
G01*
X99758995Y-112231005D01*
X99789343Y-112276424D01*
X99800000Y-112330000D01*
X99800000Y-112670000D01*
X99789343Y-112723576D01*
X99758995Y-112768995D01*
X99713576Y-112799343D01*
X99660000Y-112810000D01*
X99380000Y-112810000D01*
X99326424Y-112799343D01*
X99281005Y-112768995D01*
X99250657Y-112723576D01*
X99240000Y-112670000D01*
X99240000Y-112330000D01*
X99250657Y-112276424D01*
X99281005Y-112231005D01*
X99326424Y-112200657D01*
X99380000Y-112190000D01*
X99660000Y-112190000D01*
X99713576Y-112200657D01*
G37*
G36*
X100673576Y-112200657D02*
G01*
X100718995Y-112231005D01*
X100749343Y-112276424D01*
X100760000Y-112330000D01*
X100760000Y-112670000D01*
X100749343Y-112723576D01*
X100718995Y-112768995D01*
X100673576Y-112799343D01*
X100620000Y-112810000D01*
X100340000Y-112810000D01*
X100286424Y-112799343D01*
X100241005Y-112768995D01*
X100210657Y-112723576D01*
X100200000Y-112670000D01*
X100200000Y-112330000D01*
X100210657Y-112276424D01*
X100241005Y-112231005D01*
X100286424Y-112200657D01*
X100340000Y-112190000D01*
X100620000Y-112190000D01*
X100673576Y-112200657D01*
G37*
G36*
X112213576Y-112200657D02*
G01*
X112258995Y-112231005D01*
X112289343Y-112276424D01*
X112300000Y-112330000D01*
X112300000Y-112670000D01*
X112289343Y-112723576D01*
X112258995Y-112768995D01*
X112213576Y-112799343D01*
X112160000Y-112810000D01*
X111880000Y-112810000D01*
X111826424Y-112799343D01*
X111781005Y-112768995D01*
X111750657Y-112723576D01*
X111740000Y-112670000D01*
X111740000Y-112330000D01*
X111750657Y-112276424D01*
X111781005Y-112231005D01*
X111826424Y-112200657D01*
X111880000Y-112190000D01*
X112160000Y-112190000D01*
X112213576Y-112200657D01*
G37*
G36*
X113173576Y-112200657D02*
G01*
X113218995Y-112231005D01*
X113249343Y-112276424D01*
X113260000Y-112330000D01*
X113260000Y-112670000D01*
X113249343Y-112723576D01*
X113218995Y-112768995D01*
X113173576Y-112799343D01*
X113120000Y-112810000D01*
X112840000Y-112810000D01*
X112786424Y-112799343D01*
X112741005Y-112768995D01*
X112710657Y-112723576D01*
X112700000Y-112670000D01*
X112700000Y-112330000D01*
X112710657Y-112276424D01*
X112741005Y-112231005D01*
X112786424Y-112200657D01*
X112840000Y-112190000D01*
X113120000Y-112190000D01*
X113173576Y-112200657D01*
G37*
G36*
X124213576Y-112200657D02*
G01*
X124258995Y-112231005D01*
X124289343Y-112276424D01*
X124300000Y-112330000D01*
X124300000Y-112670000D01*
X124289343Y-112723576D01*
X124258995Y-112768995D01*
X124213576Y-112799343D01*
X124160000Y-112810000D01*
X123880000Y-112810000D01*
X123826424Y-112799343D01*
X123781005Y-112768995D01*
X123750657Y-112723576D01*
X123740000Y-112670000D01*
X123740000Y-112330000D01*
X123750657Y-112276424D01*
X123781005Y-112231005D01*
X123826424Y-112200657D01*
X123880000Y-112190000D01*
X124160000Y-112190000D01*
X124213576Y-112200657D01*
G37*
G36*
X125173576Y-112200657D02*
G01*
X125218995Y-112231005D01*
X125249343Y-112276424D01*
X125260000Y-112330000D01*
X125260000Y-112670000D01*
X125249343Y-112723576D01*
X125218995Y-112768995D01*
X125173576Y-112799343D01*
X125120000Y-112810000D01*
X124840000Y-112810000D01*
X124786424Y-112799343D01*
X124741005Y-112768995D01*
X124710657Y-112723576D01*
X124700000Y-112670000D01*
X124700000Y-112330000D01*
X124710657Y-112276424D01*
X124741005Y-112231005D01*
X124786424Y-112200657D01*
X124840000Y-112190000D01*
X125120000Y-112190000D01*
X125173576Y-112200657D01*
G37*
G36*
X133713576Y-112200657D02*
G01*
X133758995Y-112231005D01*
X133789343Y-112276424D01*
X133800000Y-112330000D01*
X133800000Y-112670000D01*
X133789343Y-112723576D01*
X133758995Y-112768995D01*
X133713576Y-112799343D01*
X133660000Y-112810000D01*
X133380000Y-112810000D01*
X133326424Y-112799343D01*
X133281005Y-112768995D01*
X133250657Y-112723576D01*
X133240000Y-112670000D01*
X133240000Y-112330000D01*
X133250657Y-112276424D01*
X133281005Y-112231005D01*
X133326424Y-112200657D01*
X133380000Y-112190000D01*
X133660000Y-112190000D01*
X133713576Y-112200657D01*
G37*
G36*
X134673576Y-112200657D02*
G01*
X134718995Y-112231005D01*
X134749343Y-112276424D01*
X134760000Y-112330000D01*
X134760000Y-112670000D01*
X134749343Y-112723576D01*
X134718995Y-112768995D01*
X134673576Y-112799343D01*
X134620000Y-112810000D01*
X134340000Y-112810000D01*
X134286424Y-112799343D01*
X134241005Y-112768995D01*
X134210657Y-112723576D01*
X134200000Y-112670000D01*
X134200000Y-112330000D01*
X134210657Y-112276424D01*
X134241005Y-112231005D01*
X134286424Y-112200657D01*
X134340000Y-112190000D01*
X134620000Y-112190000D01*
X134673576Y-112200657D01*
G37*
G36*
X65713576Y-109200657D02*
G01*
X65758995Y-109231005D01*
X65789343Y-109276424D01*
X65800000Y-109330000D01*
X65800000Y-109670000D01*
X65789343Y-109723576D01*
X65758995Y-109768995D01*
X65713576Y-109799343D01*
X65660000Y-109810000D01*
X65380000Y-109810000D01*
X65326424Y-109799343D01*
X65281005Y-109768995D01*
X65250657Y-109723576D01*
X65240000Y-109670000D01*
X65240000Y-109330000D01*
X65250657Y-109276424D01*
X65281005Y-109231005D01*
X65326424Y-109200657D01*
X65380000Y-109190000D01*
X65660000Y-109190000D01*
X65713576Y-109200657D01*
G37*
G36*
X66673576Y-109200657D02*
G01*
X66718995Y-109231005D01*
X66749343Y-109276424D01*
X66760000Y-109330000D01*
X66760000Y-109670000D01*
X66749343Y-109723576D01*
X66718995Y-109768995D01*
X66673576Y-109799343D01*
X66620000Y-109810000D01*
X66340000Y-109810000D01*
X66286424Y-109799343D01*
X66241005Y-109768995D01*
X66210657Y-109723576D01*
X66200000Y-109670000D01*
X66200000Y-109330000D01*
X66210657Y-109276424D01*
X66241005Y-109231005D01*
X66286424Y-109200657D01*
X66340000Y-109190000D01*
X66620000Y-109190000D01*
X66673576Y-109200657D01*
G37*
G36*
X75213576Y-109200657D02*
G01*
X75258995Y-109231005D01*
X75289343Y-109276424D01*
X75300000Y-109330000D01*
X75300000Y-109670000D01*
X75289343Y-109723576D01*
X75258995Y-109768995D01*
X75213576Y-109799343D01*
X75160000Y-109810000D01*
X74880000Y-109810000D01*
X74826424Y-109799343D01*
X74781005Y-109768995D01*
X74750657Y-109723576D01*
X74740000Y-109670000D01*
X74740000Y-109330000D01*
X74750657Y-109276424D01*
X74781005Y-109231005D01*
X74826424Y-109200657D01*
X74880000Y-109190000D01*
X75160000Y-109190000D01*
X75213576Y-109200657D01*
G37*
G36*
X76173576Y-109200657D02*
G01*
X76218995Y-109231005D01*
X76249343Y-109276424D01*
X76260000Y-109330000D01*
X76260000Y-109670000D01*
X76249343Y-109723576D01*
X76218995Y-109768995D01*
X76173576Y-109799343D01*
X76120000Y-109810000D01*
X75840000Y-109810000D01*
X75786424Y-109799343D01*
X75741005Y-109768995D01*
X75710657Y-109723576D01*
X75700000Y-109670000D01*
X75700000Y-109330000D01*
X75710657Y-109276424D01*
X75741005Y-109231005D01*
X75786424Y-109200657D01*
X75840000Y-109190000D01*
X76120000Y-109190000D01*
X76173576Y-109200657D01*
G37*
G36*
X87213576Y-109200657D02*
G01*
X87258995Y-109231005D01*
X87289343Y-109276424D01*
X87300000Y-109330000D01*
X87300000Y-109670000D01*
X87289343Y-109723576D01*
X87258995Y-109768995D01*
X87213576Y-109799343D01*
X87160000Y-109810000D01*
X86880000Y-109810000D01*
X86826424Y-109799343D01*
X86781005Y-109768995D01*
X86750657Y-109723576D01*
X86740000Y-109670000D01*
X86740000Y-109330000D01*
X86750657Y-109276424D01*
X86781005Y-109231005D01*
X86826424Y-109200657D01*
X86880000Y-109190000D01*
X87160000Y-109190000D01*
X87213576Y-109200657D01*
G37*
G36*
X88173576Y-109200657D02*
G01*
X88218995Y-109231005D01*
X88249343Y-109276424D01*
X88260000Y-109330000D01*
X88260000Y-109670000D01*
X88249343Y-109723576D01*
X88218995Y-109768995D01*
X88173576Y-109799343D01*
X88120000Y-109810000D01*
X87840000Y-109810000D01*
X87786424Y-109799343D01*
X87741005Y-109768995D01*
X87710657Y-109723576D01*
X87700000Y-109670000D01*
X87700000Y-109330000D01*
X87710657Y-109276424D01*
X87741005Y-109231005D01*
X87786424Y-109200657D01*
X87840000Y-109190000D01*
X88120000Y-109190000D01*
X88173576Y-109200657D01*
G37*
G36*
X99713576Y-109200657D02*
G01*
X99758995Y-109231005D01*
X99789343Y-109276424D01*
X99800000Y-109330000D01*
X99800000Y-109670000D01*
X99789343Y-109723576D01*
X99758995Y-109768995D01*
X99713576Y-109799343D01*
X99660000Y-109810000D01*
X99380000Y-109810000D01*
X99326424Y-109799343D01*
X99281005Y-109768995D01*
X99250657Y-109723576D01*
X99240000Y-109670000D01*
X99240000Y-109330000D01*
X99250657Y-109276424D01*
X99281005Y-109231005D01*
X99326424Y-109200657D01*
X99380000Y-109190000D01*
X99660000Y-109190000D01*
X99713576Y-109200657D01*
G37*
G36*
X100673576Y-109200657D02*
G01*
X100718995Y-109231005D01*
X100749343Y-109276424D01*
X100760000Y-109330000D01*
X100760000Y-109670000D01*
X100749343Y-109723576D01*
X100718995Y-109768995D01*
X100673576Y-109799343D01*
X100620000Y-109810000D01*
X100340000Y-109810000D01*
X100286424Y-109799343D01*
X100241005Y-109768995D01*
X100210657Y-109723576D01*
X100200000Y-109670000D01*
X100200000Y-109330000D01*
X100210657Y-109276424D01*
X100241005Y-109231005D01*
X100286424Y-109200657D01*
X100340000Y-109190000D01*
X100620000Y-109190000D01*
X100673576Y-109200657D01*
G37*
G36*
X66648355Y-107264645D02*
G01*
X66663000Y-107300000D01*
X66663000Y-107850000D01*
X66648355Y-107885355D01*
X66613000Y-107900000D01*
X66607996Y-107900000D01*
X66520560Y-107900000D01*
X66493491Y-107920264D01*
X66467816Y-108007708D01*
X66390875Y-108127430D01*
X66283320Y-108220627D01*
X66280006Y-108222140D01*
X66275428Y-108225083D01*
X66263000Y-108247843D01*
X66263000Y-108300000D01*
X66248355Y-108335355D01*
X66213000Y-108350000D01*
X66207996Y-108350000D01*
X65668004Y-108350000D01*
X65663000Y-108350000D01*
X65627645Y-108335355D01*
X65625730Y-108330732D01*
X65625729Y-108330731D01*
X65614915Y-108304623D01*
X65613000Y-108300000D01*
X65613000Y-108100615D01*
X65608885Y-108086600D01*
X65558184Y-108007708D01*
X65557162Y-108004227D01*
X65557160Y-108004223D01*
X65545548Y-107964674D01*
X65532508Y-107920264D01*
X65505440Y-107900000D01*
X65413000Y-107900000D01*
X65377645Y-107885355D01*
X65375730Y-107880732D01*
X65375729Y-107880731D01*
X65364915Y-107854623D01*
X65363000Y-107850000D01*
X65363000Y-107845001D01*
X65362999Y-107844996D01*
X65362999Y-107305004D01*
X65363000Y-107304998D01*
X65363000Y-107300000D01*
X65377645Y-107264645D01*
X65382263Y-107262731D01*
X65382268Y-107262729D01*
X65408376Y-107251915D01*
X65408377Y-107251914D01*
X65413000Y-107250000D01*
X66613000Y-107250000D01*
X66648355Y-107264645D01*
G37*
G36*
X76148355Y-107264645D02*
G01*
X76163000Y-107300000D01*
X76163000Y-107850000D01*
X76148355Y-107885355D01*
X76113000Y-107900000D01*
X76107996Y-107900000D01*
X76020560Y-107900000D01*
X75993491Y-107920264D01*
X75967816Y-108007708D01*
X75890875Y-108127430D01*
X75783320Y-108220627D01*
X75780006Y-108222140D01*
X75775428Y-108225083D01*
X75763000Y-108247843D01*
X75763000Y-108300000D01*
X75748355Y-108335355D01*
X75713000Y-108350000D01*
X75707996Y-108350000D01*
X75168004Y-108350000D01*
X75163000Y-108350000D01*
X75127645Y-108335355D01*
X75125730Y-108330732D01*
X75125729Y-108330731D01*
X75114915Y-108304623D01*
X75113000Y-108300000D01*
X75113000Y-108100615D01*
X75108885Y-108086600D01*
X75058184Y-108007708D01*
X75057162Y-108004227D01*
X75057160Y-108004223D01*
X75045548Y-107964674D01*
X75032508Y-107920264D01*
X75005440Y-107900000D01*
X74913000Y-107900000D01*
X74877645Y-107885355D01*
X74875730Y-107880732D01*
X74875729Y-107880731D01*
X74864915Y-107854623D01*
X74863000Y-107850000D01*
X74863000Y-107300000D01*
X74877645Y-107264645D01*
X74882263Y-107262731D01*
X74882268Y-107262729D01*
X74908376Y-107251915D01*
X74908377Y-107251914D01*
X74913000Y-107250000D01*
X76113000Y-107250000D01*
X76148355Y-107264645D01*
G37*
G36*
X88148355Y-107264645D02*
G01*
X88163000Y-107300000D01*
X88163000Y-107850000D01*
X88148355Y-107885355D01*
X88113000Y-107900000D01*
X88107996Y-107900000D01*
X88020560Y-107900000D01*
X87993491Y-107920264D01*
X87967816Y-108007708D01*
X87890875Y-108127430D01*
X87783320Y-108220627D01*
X87780006Y-108222140D01*
X87775428Y-108225083D01*
X87763000Y-108247843D01*
X87763000Y-108300000D01*
X87748355Y-108335355D01*
X87713000Y-108350000D01*
X87707996Y-108350000D01*
X87168004Y-108350000D01*
X87163000Y-108350000D01*
X87127645Y-108335355D01*
X87125730Y-108330732D01*
X87125729Y-108330731D01*
X87114915Y-108304623D01*
X87113000Y-108300000D01*
X87113000Y-108100614D01*
X87108885Y-108086600D01*
X87058184Y-108007708D01*
X87057162Y-108004227D01*
X87057160Y-108004223D01*
X87045548Y-107964674D01*
X87032508Y-107920264D01*
X87005440Y-107900000D01*
X86913000Y-107900000D01*
X86877645Y-107885355D01*
X86875730Y-107880732D01*
X86875729Y-107880731D01*
X86864915Y-107854623D01*
X86863000Y-107850000D01*
X86863000Y-107300000D01*
X86877645Y-107264645D01*
X86882263Y-107262731D01*
X86882268Y-107262729D01*
X86908376Y-107251915D01*
X86908377Y-107251914D01*
X86913000Y-107250000D01*
X88113000Y-107250000D01*
X88148355Y-107264645D01*
G37*
G36*
X100648355Y-107264645D02*
G01*
X100663000Y-107300000D01*
X100663000Y-107850000D01*
X100648355Y-107885355D01*
X100613000Y-107900000D01*
X100607996Y-107900000D01*
X100520560Y-107900000D01*
X100493491Y-107920264D01*
X100467816Y-108007708D01*
X100390875Y-108127430D01*
X100283320Y-108220627D01*
X100280006Y-108222140D01*
X100275428Y-108225083D01*
X100263000Y-108247843D01*
X100263000Y-108300000D01*
X100248355Y-108335355D01*
X100213000Y-108350000D01*
X100207996Y-108350000D01*
X99668004Y-108350000D01*
X99663000Y-108350000D01*
X99627645Y-108335355D01*
X99625730Y-108330732D01*
X99625729Y-108330731D01*
X99614915Y-108304623D01*
X99613000Y-108300000D01*
X99613000Y-108100614D01*
X99608885Y-108086600D01*
X99558184Y-108007708D01*
X99557162Y-108004227D01*
X99557160Y-108004223D01*
X99545548Y-107964674D01*
X99532508Y-107920264D01*
X99505440Y-107900000D01*
X99413000Y-107900000D01*
X99377645Y-107885355D01*
X99375730Y-107880732D01*
X99375729Y-107880731D01*
X99364915Y-107854623D01*
X99363000Y-107850000D01*
X99363000Y-107300000D01*
X99377645Y-107264645D01*
X99382263Y-107262731D01*
X99382268Y-107262729D01*
X99408376Y-107251915D01*
X99408377Y-107251914D01*
X99413000Y-107250000D01*
X100613000Y-107250000D01*
X100648355Y-107264645D01*
G37*
G36*
X113148355Y-107264645D02*
G01*
X113163000Y-107300000D01*
X113163000Y-107850000D01*
X113148355Y-107885355D01*
X113113000Y-107900000D01*
X113107996Y-107900000D01*
X113020560Y-107900000D01*
X112993491Y-107920264D01*
X112967816Y-108007708D01*
X112917114Y-108086600D01*
X112913000Y-108100611D01*
X112913000Y-108300000D01*
X112898355Y-108335355D01*
X112863000Y-108350000D01*
X112857996Y-108350000D01*
X112318004Y-108350000D01*
X112313000Y-108350000D01*
X112277645Y-108335355D01*
X112275730Y-108330732D01*
X112275729Y-108330731D01*
X112264915Y-108304623D01*
X112263000Y-108300000D01*
X112263000Y-108247843D01*
X112250572Y-108225083D01*
X112245992Y-108222139D01*
X112242680Y-108220627D01*
X112135125Y-108127430D01*
X112058184Y-108007708D01*
X112057162Y-108004227D01*
X112057160Y-108004223D01*
X112045548Y-107964674D01*
X112032508Y-107920264D01*
X112005440Y-107900000D01*
X111913000Y-107900000D01*
X111877645Y-107885355D01*
X111875730Y-107880732D01*
X111875729Y-107880731D01*
X111864915Y-107854623D01*
X111863000Y-107850000D01*
X111863000Y-107300000D01*
X111877645Y-107264645D01*
X111882263Y-107262731D01*
X111882268Y-107262729D01*
X111908376Y-107251915D01*
X111908377Y-107251914D01*
X111913000Y-107250000D01*
X113113000Y-107250000D01*
X113148355Y-107264645D01*
G37*
G36*
X125148355Y-107264645D02*
G01*
X125163000Y-107300000D01*
X125163000Y-107850000D01*
X125148355Y-107885355D01*
X125113000Y-107900000D01*
X125107996Y-107900000D01*
X125020560Y-107900000D01*
X124993491Y-107920264D01*
X124967816Y-108007708D01*
X124917114Y-108086600D01*
X124913000Y-108100611D01*
X124913000Y-108300000D01*
X124898355Y-108335355D01*
X124863000Y-108350000D01*
X124857996Y-108350000D01*
X124318004Y-108350000D01*
X124313000Y-108350000D01*
X124277645Y-108335355D01*
X124275730Y-108330732D01*
X124275729Y-108330731D01*
X124264915Y-108304623D01*
X124263000Y-108300000D01*
X124263000Y-108247843D01*
X124250572Y-108225083D01*
X124245992Y-108222139D01*
X124242680Y-108220627D01*
X124135125Y-108127430D01*
X124058184Y-108007708D01*
X124057162Y-108004227D01*
X124057160Y-108004223D01*
X124045548Y-107964674D01*
X124032508Y-107920264D01*
X124005440Y-107900000D01*
X123913000Y-107900000D01*
X123877645Y-107885355D01*
X123875730Y-107880732D01*
X123875729Y-107880731D01*
X123864915Y-107854623D01*
X123863000Y-107850000D01*
X123863000Y-107300000D01*
X123877645Y-107264645D01*
X123882263Y-107262731D01*
X123882268Y-107262729D01*
X123908376Y-107251915D01*
X123908377Y-107251914D01*
X123913000Y-107250000D01*
X125113000Y-107250000D01*
X125148355Y-107264645D01*
G37*
G36*
X134648355Y-107264645D02*
G01*
X134663000Y-107300000D01*
X134663000Y-107850000D01*
X134648355Y-107885355D01*
X134613000Y-107900000D01*
X134607996Y-107900000D01*
X134520560Y-107900000D01*
X134493491Y-107920264D01*
X134467816Y-108007708D01*
X134417114Y-108086600D01*
X134413000Y-108100615D01*
X134413000Y-108300000D01*
X134398355Y-108335355D01*
X134363000Y-108350000D01*
X134357996Y-108350000D01*
X133818004Y-108350000D01*
X133813000Y-108350000D01*
X133777645Y-108335355D01*
X133775730Y-108330732D01*
X133775729Y-108330731D01*
X133764915Y-108304623D01*
X133763000Y-108300000D01*
X133763000Y-108247843D01*
X133750572Y-108225083D01*
X133745992Y-108222139D01*
X133742680Y-108220627D01*
X133635125Y-108127430D01*
X133558184Y-108007708D01*
X133557162Y-108004227D01*
X133557160Y-108004223D01*
X133545548Y-107964674D01*
X133532508Y-107920264D01*
X133505440Y-107900000D01*
X133413000Y-107900000D01*
X133377645Y-107885355D01*
X133375730Y-107880732D01*
X133375729Y-107880731D01*
X133364915Y-107854623D01*
X133363000Y-107850000D01*
X133363000Y-107300000D01*
X133377645Y-107264645D01*
X133382263Y-107262731D01*
X133382268Y-107262729D01*
X133408376Y-107251915D01*
X133408377Y-107251914D01*
X133413000Y-107250000D01*
X134613000Y-107250000D01*
X134648355Y-107264645D01*
G37*
G36*
X66587000Y-106800000D02*
G01*
X65387000Y-106800000D01*
X65387000Y-106100000D01*
X66587000Y-106100000D01*
X66587000Y-106800000D01*
G37*
G36*
X76087000Y-106800000D02*
G01*
X74887000Y-106800000D01*
X74887000Y-106100000D01*
X76087000Y-106100000D01*
X76087000Y-106800000D01*
G37*
G36*
X88087000Y-106800000D02*
G01*
X86887000Y-106800000D01*
X86887000Y-106100000D01*
X88087000Y-106100000D01*
X88087000Y-106800000D01*
G37*
G36*
X100587000Y-106800000D02*
G01*
X99387000Y-106800000D01*
X99387000Y-106100000D01*
X100587000Y-106100000D01*
X100587000Y-106800000D01*
G37*
G36*
X113113000Y-106800000D02*
G01*
X111913000Y-106800000D01*
X111913000Y-106350000D01*
X113113000Y-106350000D01*
X113113000Y-106800000D01*
G37*
G36*
X125113000Y-106800000D02*
G01*
X123913000Y-106800000D01*
X123913000Y-106350000D01*
X125113000Y-106350000D01*
X125113000Y-106800000D01*
G37*
G36*
X134613000Y-106800000D02*
G01*
X133413000Y-106800000D01*
X133413000Y-106350000D01*
X134613000Y-106350000D01*
X134613000Y-106800000D01*
G37*
G36*
X113113000Y-105900000D02*
G01*
X111913000Y-105900000D01*
X111913000Y-105200000D01*
X113113000Y-105200000D01*
X113113000Y-105900000D01*
G37*
G36*
X125113000Y-105900000D02*
G01*
X123913000Y-105900000D01*
X123913000Y-105200000D01*
X125113000Y-105200000D01*
X125113000Y-105900000D01*
G37*
G36*
X134613000Y-105900000D02*
G01*
X133413000Y-105900000D01*
X133413000Y-105200000D01*
X134613000Y-105200000D01*
X134613000Y-105900000D01*
G37*
G36*
X66587000Y-105650000D02*
G01*
X65387000Y-105650000D01*
X65387000Y-105200000D01*
X66587000Y-105200000D01*
X66587000Y-105650000D01*
G37*
G36*
X76087000Y-105650000D02*
G01*
X74887000Y-105650000D01*
X74887000Y-105200000D01*
X76087000Y-105200000D01*
X76087000Y-105650000D01*
G37*
G36*
X88087000Y-105650000D02*
G01*
X86887000Y-105650000D01*
X86887000Y-105200000D01*
X88087000Y-105200000D01*
X88087000Y-105650000D01*
G37*
G36*
X100587000Y-105650000D02*
G01*
X99387000Y-105650000D01*
X99387000Y-105200000D01*
X100587000Y-105200000D01*
X100587000Y-105650000D01*
G37*
G36*
X66222355Y-103664645D02*
G01*
X66237000Y-103700000D01*
X66237000Y-103705003D01*
X66237000Y-103752153D01*
X66249422Y-103774908D01*
X66254026Y-103777868D01*
X66257320Y-103779373D01*
X66364875Y-103872570D01*
X66441816Y-103992292D01*
X66467491Y-104079735D01*
X66494560Y-104100000D01*
X66581996Y-104100000D01*
X66587000Y-104100000D01*
X66622355Y-104114645D01*
X66637000Y-104150000D01*
X66637000Y-104700000D01*
X66622355Y-104735355D01*
X66587000Y-104750000D01*
X66581996Y-104750000D01*
X65392004Y-104750000D01*
X65387000Y-104750000D01*
X65351645Y-104735355D01*
X65349730Y-104730732D01*
X65349729Y-104730731D01*
X65338915Y-104704623D01*
X65337000Y-104700000D01*
X65337000Y-104150000D01*
X65351645Y-104114645D01*
X65356263Y-104112731D01*
X65356268Y-104112729D01*
X65382376Y-104101915D01*
X65382377Y-104101914D01*
X65387000Y-104100000D01*
X65479440Y-104100000D01*
X65506508Y-104079735D01*
X65517498Y-104042306D01*
X65531160Y-103995776D01*
X65531162Y-103995769D01*
X65532184Y-103992292D01*
X65534144Y-103989241D01*
X65534146Y-103989238D01*
X65582885Y-103913400D01*
X65587000Y-103899384D01*
X65587000Y-103705004D01*
X65587000Y-103705003D01*
X65587000Y-103700000D01*
X65601645Y-103664645D01*
X65606263Y-103662731D01*
X65606268Y-103662729D01*
X65632376Y-103651915D01*
X65632377Y-103651914D01*
X65637000Y-103650000D01*
X66187000Y-103650000D01*
X66222355Y-103664645D01*
G37*
G36*
X75722355Y-103664645D02*
G01*
X75737000Y-103700000D01*
X75737000Y-103705003D01*
X75737000Y-103752153D01*
X75749422Y-103774908D01*
X75754026Y-103777868D01*
X75757320Y-103779373D01*
X75864875Y-103872570D01*
X75941816Y-103992292D01*
X75967491Y-104079735D01*
X75994560Y-104100000D01*
X76081996Y-104100000D01*
X76087000Y-104100000D01*
X76122355Y-104114645D01*
X76137000Y-104150000D01*
X76137000Y-104700000D01*
X76122355Y-104735355D01*
X76087000Y-104750000D01*
X76081996Y-104750000D01*
X74892004Y-104750000D01*
X74887000Y-104750000D01*
X74851645Y-104735355D01*
X74849730Y-104730732D01*
X74849729Y-104730731D01*
X74838915Y-104704623D01*
X74837000Y-104700000D01*
X74837000Y-104150000D01*
X74851645Y-104114645D01*
X74856263Y-104112731D01*
X74856268Y-104112729D01*
X74882376Y-104101915D01*
X74882377Y-104101914D01*
X74887000Y-104100000D01*
X74979440Y-104100000D01*
X75006508Y-104079735D01*
X75017498Y-104042306D01*
X75031160Y-103995776D01*
X75031162Y-103995769D01*
X75032184Y-103992292D01*
X75034144Y-103989241D01*
X75034146Y-103989238D01*
X75082885Y-103913400D01*
X75087000Y-103899384D01*
X75087000Y-103705004D01*
X75087000Y-103705003D01*
X75087000Y-103700000D01*
X75101645Y-103664645D01*
X75106263Y-103662731D01*
X75106268Y-103662729D01*
X75132376Y-103651915D01*
X75132377Y-103651914D01*
X75137000Y-103650000D01*
X75687000Y-103650000D01*
X75722355Y-103664645D01*
G37*
G36*
X87722355Y-103664645D02*
G01*
X87737000Y-103700000D01*
X87737000Y-103705003D01*
X87737000Y-103752153D01*
X87749422Y-103774908D01*
X87754026Y-103777868D01*
X87757320Y-103779373D01*
X87864875Y-103872570D01*
X87941816Y-103992292D01*
X87967491Y-104079735D01*
X87994560Y-104100000D01*
X88081996Y-104100000D01*
X88087000Y-104100000D01*
X88122355Y-104114645D01*
X88137000Y-104150000D01*
X88137000Y-104700000D01*
X88122355Y-104735355D01*
X88087000Y-104750000D01*
X88081996Y-104750000D01*
X86892004Y-104750000D01*
X86887000Y-104750000D01*
X86851645Y-104735355D01*
X86849730Y-104730732D01*
X86849729Y-104730731D01*
X86838915Y-104704623D01*
X86837000Y-104700000D01*
X86837000Y-104150000D01*
X86851645Y-104114645D01*
X86856263Y-104112731D01*
X86856268Y-104112729D01*
X86882376Y-104101915D01*
X86882377Y-104101914D01*
X86887000Y-104100000D01*
X86979440Y-104100000D01*
X87006508Y-104079735D01*
X87017498Y-104042306D01*
X87031160Y-103995776D01*
X87031162Y-103995769D01*
X87032184Y-103992292D01*
X87034144Y-103989241D01*
X87034146Y-103989238D01*
X87082885Y-103913400D01*
X87087000Y-103899384D01*
X87087000Y-103705004D01*
X87087000Y-103705003D01*
X87087000Y-103700000D01*
X87101645Y-103664645D01*
X87106263Y-103662731D01*
X87106268Y-103662729D01*
X87132376Y-103651915D01*
X87132377Y-103651914D01*
X87137000Y-103650000D01*
X87687000Y-103650000D01*
X87722355Y-103664645D01*
G37*
G36*
X100222355Y-103664645D02*
G01*
X100237000Y-103700000D01*
X100237000Y-103705003D01*
X100237000Y-103752153D01*
X100249422Y-103774908D01*
X100254026Y-103777868D01*
X100257320Y-103779373D01*
X100364875Y-103872570D01*
X100441816Y-103992292D01*
X100467491Y-104079735D01*
X100494560Y-104100000D01*
X100581996Y-104100000D01*
X100587000Y-104100000D01*
X100622355Y-104114645D01*
X100637000Y-104150000D01*
X100637000Y-104700000D01*
X100622355Y-104735355D01*
X100587000Y-104750000D01*
X100581996Y-104750000D01*
X99392004Y-104750000D01*
X99387000Y-104750000D01*
X99351645Y-104735355D01*
X99349730Y-104730732D01*
X99349729Y-104730731D01*
X99338915Y-104704623D01*
X99337000Y-104700000D01*
X99337000Y-104150000D01*
X99351645Y-104114645D01*
X99356263Y-104112731D01*
X99356268Y-104112729D01*
X99382376Y-104101915D01*
X99382377Y-104101914D01*
X99387000Y-104100000D01*
X99479440Y-104100000D01*
X99506508Y-104079735D01*
X99517498Y-104042306D01*
X99531160Y-103995776D01*
X99531162Y-103995769D01*
X99532184Y-103992292D01*
X99534144Y-103989241D01*
X99534146Y-103989238D01*
X99582885Y-103913400D01*
X99587000Y-103899384D01*
X99587000Y-103705004D01*
X99587000Y-103705003D01*
X99587000Y-103700000D01*
X99601645Y-103664645D01*
X99606263Y-103662731D01*
X99606268Y-103662729D01*
X99632376Y-103651915D01*
X99632377Y-103651914D01*
X99637000Y-103650000D01*
X100187000Y-103650000D01*
X100222355Y-103664645D01*
G37*
G36*
X112872355Y-103664645D02*
G01*
X112887000Y-103700000D01*
X112886999Y-103899387D01*
X112891113Y-103913397D01*
X112941816Y-103992292D01*
X112967491Y-104079735D01*
X112994560Y-104100000D01*
X113081996Y-104100000D01*
X113087000Y-104100000D01*
X113122355Y-104114645D01*
X113137000Y-104150000D01*
X113137000Y-104700000D01*
X113122355Y-104735355D01*
X113087000Y-104750000D01*
X113081996Y-104750000D01*
X111892004Y-104750000D01*
X111887000Y-104750000D01*
X111851645Y-104735355D01*
X111849730Y-104730732D01*
X111849729Y-104730731D01*
X111838915Y-104704623D01*
X111837000Y-104700000D01*
X111837000Y-104150000D01*
X111851645Y-104114645D01*
X111856263Y-104112731D01*
X111856268Y-104112729D01*
X111882376Y-104101915D01*
X111882377Y-104101914D01*
X111887000Y-104100000D01*
X111979440Y-104100000D01*
X112006508Y-104079735D01*
X112017498Y-104042306D01*
X112031160Y-103995776D01*
X112031162Y-103995769D01*
X112032184Y-103992292D01*
X112034144Y-103989241D01*
X112034146Y-103989238D01*
X112107160Y-103875627D01*
X112107161Y-103875625D01*
X112109125Y-103872570D01*
X112111870Y-103870191D01*
X112111873Y-103870188D01*
X112213934Y-103781752D01*
X112213935Y-103781750D01*
X112216680Y-103779373D01*
X112219972Y-103777869D01*
X112224578Y-103774908D01*
X112237000Y-103752153D01*
X112237000Y-103705004D01*
X112237000Y-103705003D01*
X112237000Y-103700000D01*
X112251645Y-103664645D01*
X112256263Y-103662731D01*
X112256268Y-103662729D01*
X112282376Y-103651915D01*
X112282377Y-103651914D01*
X112287000Y-103650000D01*
X112837000Y-103650000D01*
X112872355Y-103664645D01*
G37*
G36*
X124872355Y-103664645D02*
G01*
X124887000Y-103700000D01*
X124886999Y-103899387D01*
X124891113Y-103913397D01*
X124941816Y-103992292D01*
X124967491Y-104079735D01*
X124994560Y-104100000D01*
X125081996Y-104100000D01*
X125087000Y-104100000D01*
X125122355Y-104114645D01*
X125137000Y-104150000D01*
X125137000Y-104700000D01*
X125122355Y-104735355D01*
X125087000Y-104750000D01*
X125081996Y-104750000D01*
X123892004Y-104750000D01*
X123887000Y-104750000D01*
X123851645Y-104735355D01*
X123849730Y-104730732D01*
X123849729Y-104730731D01*
X123838915Y-104704623D01*
X123837000Y-104700000D01*
X123837000Y-104150000D01*
X123851645Y-104114645D01*
X123856263Y-104112731D01*
X123856268Y-104112729D01*
X123882376Y-104101915D01*
X123882377Y-104101914D01*
X123887000Y-104100000D01*
X123979440Y-104100000D01*
X124006508Y-104079735D01*
X124017498Y-104042306D01*
X124031160Y-103995776D01*
X124031162Y-103995769D01*
X124032184Y-103992292D01*
X124034144Y-103989241D01*
X124034146Y-103989238D01*
X124107160Y-103875627D01*
X124107161Y-103875625D01*
X124109125Y-103872570D01*
X124111870Y-103870191D01*
X124111873Y-103870188D01*
X124213934Y-103781752D01*
X124213935Y-103781750D01*
X124216680Y-103779373D01*
X124219972Y-103777869D01*
X124224578Y-103774908D01*
X124237000Y-103752153D01*
X124237000Y-103705004D01*
X124237000Y-103705003D01*
X124237000Y-103700000D01*
X124251645Y-103664645D01*
X124256263Y-103662731D01*
X124256268Y-103662729D01*
X124282376Y-103651915D01*
X124282377Y-103651914D01*
X124287000Y-103650000D01*
X124837000Y-103650000D01*
X124872355Y-103664645D01*
G37*
G36*
X134372355Y-103664645D02*
G01*
X134387000Y-103700000D01*
X134387000Y-103705002D01*
X134387000Y-103705003D01*
X134387000Y-103899384D01*
X134391115Y-103913400D01*
X134441816Y-103992292D01*
X134467491Y-104079735D01*
X134494560Y-104100000D01*
X134581996Y-104100000D01*
X134587000Y-104100000D01*
X134622355Y-104114645D01*
X134637000Y-104150000D01*
X134637000Y-104700000D01*
X134622355Y-104735355D01*
X134587000Y-104750000D01*
X134581996Y-104750000D01*
X133392004Y-104750000D01*
X133387000Y-104750000D01*
X133351645Y-104735355D01*
X133349730Y-104730732D01*
X133349729Y-104730731D01*
X133338915Y-104704623D01*
X133337000Y-104700000D01*
X133337000Y-104150000D01*
X133351645Y-104114645D01*
X133356263Y-104112731D01*
X133356268Y-104112729D01*
X133382376Y-104101915D01*
X133382377Y-104101914D01*
X133387000Y-104100000D01*
X133479440Y-104100000D01*
X133506508Y-104079735D01*
X133517498Y-104042306D01*
X133531160Y-103995776D01*
X133531162Y-103995769D01*
X133532184Y-103992292D01*
X133534144Y-103989241D01*
X133534146Y-103989238D01*
X133607160Y-103875627D01*
X133607161Y-103875625D01*
X133609125Y-103872570D01*
X133611870Y-103870191D01*
X133611873Y-103870188D01*
X133713934Y-103781752D01*
X133713935Y-103781750D01*
X133716680Y-103779373D01*
X133719972Y-103777869D01*
X133724578Y-103774908D01*
X133737000Y-103752153D01*
X133737000Y-103705004D01*
X133737000Y-103705003D01*
X133737000Y-103700000D01*
X133751645Y-103664645D01*
X133756263Y-103662731D01*
X133756268Y-103662729D01*
X133782376Y-103651915D01*
X133782377Y-103651914D01*
X133787000Y-103650000D01*
X134337000Y-103650000D01*
X134372355Y-103664645D01*
G37*
G36*
X112213576Y-102200657D02*
G01*
X112258995Y-102231005D01*
X112289343Y-102276424D01*
X112300000Y-102330000D01*
X112300000Y-102670000D01*
X112289343Y-102723576D01*
X112258995Y-102768995D01*
X112213576Y-102799343D01*
X112160000Y-102810000D01*
X111880000Y-102810000D01*
X111826424Y-102799343D01*
X111781005Y-102768995D01*
X111750657Y-102723576D01*
X111740000Y-102670000D01*
X111740000Y-102330000D01*
X111750657Y-102276424D01*
X111781005Y-102231005D01*
X111826424Y-102200657D01*
X111880000Y-102190000D01*
X112160000Y-102190000D01*
X112213576Y-102200657D01*
G37*
G36*
X113173576Y-102200657D02*
G01*
X113218995Y-102231005D01*
X113249343Y-102276424D01*
X113260000Y-102330000D01*
X113260000Y-102670000D01*
X113249343Y-102723576D01*
X113218995Y-102768995D01*
X113173576Y-102799343D01*
X113120000Y-102810000D01*
X112840000Y-102810000D01*
X112786424Y-102799343D01*
X112741005Y-102768995D01*
X112710657Y-102723576D01*
X112700000Y-102670000D01*
X112700000Y-102330000D01*
X112710657Y-102276424D01*
X112741005Y-102231005D01*
X112786424Y-102200657D01*
X112840000Y-102190000D01*
X113120000Y-102190000D01*
X113173576Y-102200657D01*
G37*
G36*
X124213576Y-102200657D02*
G01*
X124258995Y-102231005D01*
X124289343Y-102276424D01*
X124300000Y-102330000D01*
X124300000Y-102670000D01*
X124289343Y-102723576D01*
X124258995Y-102768995D01*
X124213576Y-102799343D01*
X124160000Y-102810000D01*
X123880000Y-102810000D01*
X123826424Y-102799343D01*
X123781005Y-102768995D01*
X123750657Y-102723576D01*
X123740000Y-102670000D01*
X123740000Y-102330000D01*
X123750657Y-102276424D01*
X123781005Y-102231005D01*
X123826424Y-102200657D01*
X123880000Y-102190000D01*
X124160000Y-102190000D01*
X124213576Y-102200657D01*
G37*
G36*
X125173576Y-102200657D02*
G01*
X125218995Y-102231005D01*
X125249343Y-102276424D01*
X125260000Y-102330000D01*
X125260000Y-102670000D01*
X125249343Y-102723576D01*
X125218995Y-102768995D01*
X125173576Y-102799343D01*
X125120000Y-102810000D01*
X124840000Y-102810000D01*
X124786424Y-102799343D01*
X124741005Y-102768995D01*
X124710657Y-102723576D01*
X124700000Y-102670000D01*
X124700000Y-102330000D01*
X124710657Y-102276424D01*
X124741005Y-102231005D01*
X124786424Y-102200657D01*
X124840000Y-102190000D01*
X125120000Y-102190000D01*
X125173576Y-102200657D01*
G37*
G36*
X133713576Y-102200657D02*
G01*
X133758995Y-102231005D01*
X133789343Y-102276424D01*
X133800000Y-102330000D01*
X133800000Y-102670000D01*
X133789343Y-102723576D01*
X133758995Y-102768995D01*
X133713576Y-102799343D01*
X133660000Y-102810000D01*
X133380000Y-102810000D01*
X133326424Y-102799343D01*
X133281005Y-102768995D01*
X133250657Y-102723576D01*
X133240000Y-102670000D01*
X133240000Y-102330000D01*
X133250657Y-102276424D01*
X133281005Y-102231005D01*
X133326424Y-102200657D01*
X133380000Y-102190000D01*
X133660000Y-102190000D01*
X133713576Y-102200657D01*
G37*
G36*
X134673576Y-102200657D02*
G01*
X134718995Y-102231005D01*
X134749343Y-102276424D01*
X134760000Y-102330000D01*
X134760000Y-102670000D01*
X134749343Y-102723576D01*
X134718995Y-102768995D01*
X134673576Y-102799343D01*
X134620000Y-102810000D01*
X134340000Y-102810000D01*
X134286424Y-102799343D01*
X134241005Y-102768995D01*
X134210657Y-102723576D01*
X134200000Y-102670000D01*
X134200000Y-102330000D01*
X134210657Y-102276424D01*
X134241005Y-102231005D01*
X134286424Y-102200657D01*
X134340000Y-102190000D01*
X134620000Y-102190000D01*
X134673576Y-102200657D01*
G37*
G36*
X75213576Y-99200657D02*
G01*
X75258995Y-99231005D01*
X75289343Y-99276424D01*
X75300000Y-99330000D01*
X75300000Y-99670000D01*
X75289343Y-99723576D01*
X75258995Y-99768995D01*
X75213576Y-99799343D01*
X75160000Y-99810000D01*
X74880000Y-99810000D01*
X74826424Y-99799343D01*
X74781005Y-99768995D01*
X74750657Y-99723576D01*
X74740000Y-99670000D01*
X74740000Y-99330000D01*
X74750657Y-99276424D01*
X74781005Y-99231005D01*
X74826424Y-99200657D01*
X74880000Y-99190000D01*
X75160000Y-99190000D01*
X75213576Y-99200657D01*
G37*
G36*
X76173576Y-99200657D02*
G01*
X76218995Y-99231005D01*
X76249343Y-99276424D01*
X76260000Y-99330000D01*
X76260000Y-99670000D01*
X76249343Y-99723576D01*
X76218995Y-99768995D01*
X76173576Y-99799343D01*
X76120000Y-99810000D01*
X75840000Y-99810000D01*
X75786424Y-99799343D01*
X75741005Y-99768995D01*
X75710657Y-99723576D01*
X75700000Y-99670000D01*
X75700000Y-99330000D01*
X75710657Y-99276424D01*
X75741005Y-99231005D01*
X75786424Y-99200657D01*
X75840000Y-99190000D01*
X76120000Y-99190000D01*
X76173576Y-99200657D01*
G37*
G36*
X87213576Y-99200657D02*
G01*
X87258995Y-99231005D01*
X87289343Y-99276424D01*
X87300000Y-99330000D01*
X87300000Y-99670000D01*
X87289343Y-99723576D01*
X87258995Y-99768995D01*
X87213576Y-99799343D01*
X87160000Y-99810000D01*
X86880000Y-99810000D01*
X86826424Y-99799343D01*
X86781005Y-99768995D01*
X86750657Y-99723576D01*
X86740000Y-99670000D01*
X86740000Y-99330000D01*
X86750657Y-99276424D01*
X86781005Y-99231005D01*
X86826424Y-99200657D01*
X86880000Y-99190000D01*
X87160000Y-99190000D01*
X87213576Y-99200657D01*
G37*
G36*
X88173576Y-99200657D02*
G01*
X88218995Y-99231005D01*
X88249343Y-99276424D01*
X88260000Y-99330000D01*
X88260000Y-99670000D01*
X88249343Y-99723576D01*
X88218995Y-99768995D01*
X88173576Y-99799343D01*
X88120000Y-99810000D01*
X87840000Y-99810000D01*
X87786424Y-99799343D01*
X87741005Y-99768995D01*
X87710657Y-99723576D01*
X87700000Y-99670000D01*
X87700000Y-99330000D01*
X87710657Y-99276424D01*
X87741005Y-99231005D01*
X87786424Y-99200657D01*
X87840000Y-99190000D01*
X88120000Y-99190000D01*
X88173576Y-99200657D01*
G37*
G36*
X76148355Y-97264645D02*
G01*
X76163000Y-97300000D01*
X76163000Y-97850000D01*
X76148355Y-97885355D01*
X76113000Y-97900000D01*
X76107996Y-97900000D01*
X76020560Y-97900000D01*
X75993491Y-97920264D01*
X75967816Y-98007708D01*
X75890875Y-98127430D01*
X75783320Y-98220627D01*
X75780006Y-98222140D01*
X75775428Y-98225083D01*
X75763000Y-98247843D01*
X75763000Y-98300000D01*
X75748355Y-98335355D01*
X75713000Y-98350000D01*
X75707996Y-98350000D01*
X75168004Y-98350000D01*
X75163000Y-98350000D01*
X75127645Y-98335355D01*
X75125730Y-98330732D01*
X75125729Y-98330731D01*
X75114915Y-98304623D01*
X75113000Y-98300000D01*
X75113000Y-98100615D01*
X75108885Y-98086600D01*
X75058184Y-98007708D01*
X75057162Y-98004227D01*
X75057160Y-98004223D01*
X75045548Y-97964674D01*
X75032508Y-97920264D01*
X75005440Y-97900000D01*
X74913000Y-97900000D01*
X74877645Y-97885355D01*
X74875730Y-97880732D01*
X74875729Y-97880731D01*
X74864915Y-97854623D01*
X74863000Y-97850000D01*
X74863000Y-97300000D01*
X74877645Y-97264645D01*
X74882263Y-97262731D01*
X74882268Y-97262729D01*
X74908376Y-97251915D01*
X74908377Y-97251914D01*
X74913000Y-97250000D01*
X76113000Y-97250000D01*
X76148355Y-97264645D01*
G37*
G36*
X88148355Y-97264645D02*
G01*
X88163000Y-97300000D01*
X88163000Y-97850000D01*
X88148355Y-97885355D01*
X88113000Y-97900000D01*
X88107996Y-97900000D01*
X88020560Y-97900000D01*
X87993491Y-97920264D01*
X87967816Y-98007708D01*
X87890875Y-98127430D01*
X87783320Y-98220627D01*
X87780006Y-98222140D01*
X87775428Y-98225083D01*
X87763000Y-98247843D01*
X87763000Y-98300000D01*
X87748355Y-98335355D01*
X87713000Y-98350000D01*
X87707996Y-98350000D01*
X87168004Y-98350000D01*
X87163000Y-98350000D01*
X87127645Y-98335355D01*
X87125730Y-98330732D01*
X87125729Y-98330731D01*
X87114915Y-98304623D01*
X87113000Y-98300000D01*
X87113000Y-98100614D01*
X87108885Y-98086600D01*
X87058184Y-98007708D01*
X87057162Y-98004227D01*
X87057160Y-98004223D01*
X87045548Y-97964674D01*
X87032508Y-97920264D01*
X87005440Y-97900000D01*
X86913000Y-97900000D01*
X86877645Y-97885355D01*
X86875730Y-97880732D01*
X86875729Y-97880731D01*
X86864915Y-97854623D01*
X86863000Y-97850000D01*
X86863000Y-97300000D01*
X86877645Y-97264645D01*
X86882263Y-97262731D01*
X86882268Y-97262729D01*
X86908376Y-97251915D01*
X86908377Y-97251914D01*
X86913000Y-97250000D01*
X88113000Y-97250000D01*
X88148355Y-97264645D01*
G37*
G36*
X113148355Y-97264645D02*
G01*
X113163000Y-97300000D01*
X113163000Y-97850000D01*
X113148355Y-97885355D01*
X113113000Y-97900000D01*
X113107996Y-97900000D01*
X113020560Y-97900000D01*
X112993491Y-97920264D01*
X112967816Y-98007708D01*
X112917114Y-98086600D01*
X112913000Y-98100611D01*
X112913000Y-98300000D01*
X112898355Y-98335355D01*
X112863000Y-98350000D01*
X112857996Y-98350000D01*
X112318004Y-98350000D01*
X112313000Y-98350000D01*
X112277645Y-98335355D01*
X112275730Y-98330732D01*
X112275729Y-98330731D01*
X112264915Y-98304623D01*
X112263000Y-98300000D01*
X112263000Y-98247843D01*
X112250572Y-98225083D01*
X112245992Y-98222139D01*
X112242680Y-98220627D01*
X112135125Y-98127430D01*
X112058184Y-98007708D01*
X112057162Y-98004227D01*
X112057160Y-98004223D01*
X112045548Y-97964674D01*
X112032508Y-97920264D01*
X112005440Y-97900000D01*
X111913000Y-97900000D01*
X111877645Y-97885355D01*
X111875730Y-97880732D01*
X111875729Y-97880731D01*
X111864915Y-97854623D01*
X111863000Y-97850000D01*
X111863000Y-97300000D01*
X111877645Y-97264645D01*
X111882263Y-97262731D01*
X111882268Y-97262729D01*
X111908376Y-97251915D01*
X111908377Y-97251914D01*
X111913000Y-97250000D01*
X113113000Y-97250000D01*
X113148355Y-97264645D01*
G37*
G36*
X125148355Y-97264645D02*
G01*
X125163000Y-97300000D01*
X125163000Y-97850000D01*
X125148355Y-97885355D01*
X125113000Y-97900000D01*
X125107996Y-97900000D01*
X125020560Y-97900000D01*
X124993491Y-97920264D01*
X124967816Y-98007708D01*
X124917114Y-98086600D01*
X124913000Y-98100611D01*
X124913000Y-98300000D01*
X124898355Y-98335355D01*
X124863000Y-98350000D01*
X124857996Y-98350000D01*
X124318004Y-98350000D01*
X124313000Y-98350000D01*
X124277645Y-98335355D01*
X124275730Y-98330732D01*
X124275729Y-98330731D01*
X124264915Y-98304623D01*
X124263000Y-98300000D01*
X124263000Y-98247843D01*
X124250572Y-98225083D01*
X124245992Y-98222139D01*
X124242680Y-98220627D01*
X124135125Y-98127430D01*
X124058184Y-98007708D01*
X124057162Y-98004227D01*
X124057160Y-98004223D01*
X124045548Y-97964674D01*
X124032508Y-97920264D01*
X124005440Y-97900000D01*
X123913000Y-97900000D01*
X123877645Y-97885355D01*
X123875730Y-97880732D01*
X123875729Y-97880731D01*
X123864915Y-97854623D01*
X123863000Y-97850000D01*
X123863000Y-97300000D01*
X123877645Y-97264645D01*
X123882263Y-97262731D01*
X123882268Y-97262729D01*
X123908376Y-97251915D01*
X123908377Y-97251914D01*
X123913000Y-97250000D01*
X125113000Y-97250000D01*
X125148355Y-97264645D01*
G37*
G36*
X67701045Y-96468812D02*
G01*
X68549573Y-97317340D01*
X68564217Y-97352696D01*
X68549573Y-97388051D01*
X68160664Y-97776960D01*
X68125309Y-97791604D01*
X68089953Y-97776960D01*
X68086416Y-97773423D01*
X68086413Y-97773421D01*
X68024589Y-97711595D01*
X67991118Y-97706783D01*
X67911132Y-97750460D01*
X67772070Y-97780711D01*
X67630117Y-97770558D01*
X67626702Y-97769284D01*
X67621391Y-97768128D01*
X67596506Y-97775432D01*
X67559623Y-97812315D01*
X67524268Y-97826959D01*
X67488913Y-97812315D01*
X67100004Y-97423406D01*
X67085360Y-97388051D01*
X67087273Y-97383430D01*
X67087275Y-97383425D01*
X67098089Y-97357318D01*
X67098090Y-97357315D01*
X67100004Y-97352696D01*
X67103537Y-97349162D01*
X67103540Y-97349159D01*
X67240990Y-97211710D01*
X67247990Y-97198889D01*
X67267152Y-97110802D01*
X67267154Y-97110795D01*
X67267925Y-97107253D01*
X67269662Y-97104070D01*
X67269666Y-97104062D01*
X67311601Y-97027266D01*
X67306789Y-96993795D01*
X67244962Y-96931969D01*
X67244961Y-96931968D01*
X67241425Y-96928432D01*
X67226781Y-96893076D01*
X67228694Y-96888455D01*
X67228696Y-96888450D01*
X67239510Y-96862343D01*
X67239511Y-96862340D01*
X67241425Y-96857721D01*
X67244958Y-96854187D01*
X67244961Y-96854184D01*
X67626796Y-96472349D01*
X67626799Y-96472346D01*
X67630334Y-96468812D01*
X67640591Y-96464563D01*
X67661064Y-96456083D01*
X67661067Y-96456082D01*
X67665689Y-96454168D01*
X67701045Y-96468812D01*
G37*
G36*
X103701045Y-96468812D02*
G01*
X104549573Y-97317340D01*
X104564217Y-97352696D01*
X104549573Y-97388051D01*
X104160664Y-97776960D01*
X104125309Y-97791604D01*
X104089953Y-97776960D01*
X104086416Y-97773423D01*
X104086413Y-97773421D01*
X104024589Y-97711595D01*
X103991118Y-97706783D01*
X103911132Y-97750460D01*
X103772070Y-97780711D01*
X103630117Y-97770558D01*
X103626702Y-97769284D01*
X103621391Y-97768128D01*
X103596506Y-97775432D01*
X103559623Y-97812315D01*
X103524268Y-97826959D01*
X103488913Y-97812315D01*
X103100004Y-97423406D01*
X103085360Y-97388051D01*
X103087273Y-97383430D01*
X103087275Y-97383425D01*
X103098089Y-97357318D01*
X103098090Y-97357315D01*
X103100004Y-97352696D01*
X103103537Y-97349162D01*
X103103540Y-97349159D01*
X103240990Y-97211710D01*
X103247990Y-97198889D01*
X103267152Y-97110802D01*
X103267154Y-97110795D01*
X103267925Y-97107253D01*
X103269662Y-97104070D01*
X103269666Y-97104062D01*
X103311601Y-97027266D01*
X103306789Y-96993795D01*
X103244962Y-96931969D01*
X103244961Y-96931968D01*
X103241425Y-96928432D01*
X103226781Y-96893076D01*
X103228694Y-96888455D01*
X103228696Y-96888450D01*
X103239510Y-96862343D01*
X103239511Y-96862340D01*
X103241425Y-96857721D01*
X103244958Y-96854187D01*
X103244961Y-96854184D01*
X103626796Y-96472349D01*
X103626799Y-96472346D01*
X103630334Y-96468812D01*
X103640591Y-96464563D01*
X103661064Y-96456083D01*
X103661067Y-96456082D01*
X103665689Y-96454168D01*
X103701045Y-96468812D01*
G37*
G36*
X96357317Y-96437697D02*
G01*
X96357321Y-96437698D01*
X96383428Y-96448512D01*
X96388051Y-96450427D01*
X96776960Y-96839336D01*
X96791604Y-96874691D01*
X96776960Y-96910047D01*
X96711594Y-96975411D01*
X96706782Y-97008881D01*
X96750460Y-97088868D01*
X96770394Y-97180506D01*
X96777392Y-97193322D01*
X96918381Y-97334311D01*
X96933025Y-97369666D01*
X96918381Y-97405021D01*
X96529472Y-97793930D01*
X96494117Y-97808574D01*
X96458762Y-97793930D01*
X96455225Y-97790393D01*
X96455223Y-97790392D01*
X96435390Y-97770558D01*
X96421877Y-97757046D01*
X96396991Y-97749743D01*
X96391685Y-97750898D01*
X96388268Y-97752173D01*
X96246315Y-97762326D01*
X96176783Y-97747200D01*
X96110801Y-97732847D01*
X96110799Y-97732846D01*
X96107253Y-97732075D01*
X96060935Y-97706783D01*
X96027266Y-97688398D01*
X95993796Y-97693209D01*
X95928432Y-97758575D01*
X95893076Y-97773219D01*
X95886651Y-97770558D01*
X95867806Y-97762752D01*
X95857721Y-97758575D01*
X95468812Y-97369666D01*
X95454168Y-97334311D01*
X95456082Y-97329689D01*
X95466898Y-97303575D01*
X95466899Y-97303573D01*
X95468812Y-97298955D01*
X95472345Y-97295421D01*
X95472348Y-97295418D01*
X96313801Y-96453965D01*
X96313804Y-96453962D01*
X96317340Y-96450427D01*
X96321959Y-96448513D01*
X96321962Y-96448512D01*
X96348076Y-96437696D01*
X96348078Y-96437695D01*
X96352696Y-96435783D01*
X96357317Y-96437697D01*
G37*
G36*
X132357317Y-96437697D02*
G01*
X132357321Y-96437698D01*
X132383428Y-96448512D01*
X132388051Y-96450427D01*
X132776960Y-96839336D01*
X132791604Y-96874691D01*
X132776960Y-96910047D01*
X132711594Y-96975411D01*
X132706782Y-97008881D01*
X132750460Y-97088868D01*
X132770394Y-97180506D01*
X132777392Y-97193322D01*
X132918381Y-97334311D01*
X132933025Y-97369666D01*
X132918381Y-97405021D01*
X132529472Y-97793930D01*
X132494117Y-97808574D01*
X132458762Y-97793930D01*
X132455225Y-97790393D01*
X132455223Y-97790392D01*
X132435390Y-97770558D01*
X132421877Y-97757046D01*
X132396991Y-97749743D01*
X132391685Y-97750898D01*
X132388268Y-97752173D01*
X132246315Y-97762326D01*
X132176783Y-97747200D01*
X132110801Y-97732847D01*
X132110799Y-97732846D01*
X132107253Y-97732075D01*
X132060935Y-97706783D01*
X132027266Y-97688398D01*
X131993796Y-97693209D01*
X131928432Y-97758575D01*
X131893076Y-97773219D01*
X131886651Y-97770558D01*
X131867806Y-97762752D01*
X131857721Y-97758575D01*
X131468812Y-97369666D01*
X131454168Y-97334311D01*
X131456082Y-97329689D01*
X131466898Y-97303575D01*
X131466899Y-97303573D01*
X131468812Y-97298955D01*
X131472345Y-97295421D01*
X131472348Y-97295418D01*
X132313801Y-96453965D01*
X132313804Y-96453962D01*
X132317340Y-96450427D01*
X132321959Y-96448513D01*
X132321962Y-96448512D01*
X132348076Y-96437696D01*
X132348078Y-96437695D01*
X132352696Y-96435783D01*
X132357317Y-96437697D01*
G37*
G36*
X68499372Y-95640794D02*
G01*
X68499373Y-95640795D01*
X69340822Y-96482242D01*
X69340826Y-96482248D01*
X69344361Y-96485783D01*
X68849387Y-96980757D01*
X68663625Y-96794995D01*
X68004397Y-96135769D01*
X68004392Y-96135762D01*
X68000859Y-96132229D01*
X68033088Y-96100000D01*
X68492293Y-95640793D01*
X68492299Y-95640788D01*
X68495833Y-95637255D01*
X68499372Y-95640794D01*
G37*
G36*
X95999142Y-96132229D02*
G01*
X95150614Y-96980757D01*
X94832416Y-96662559D01*
X95154155Y-96340820D01*
X95677406Y-95817568D01*
X95677409Y-95817565D01*
X95680944Y-95814031D01*
X95999142Y-96132229D01*
G37*
G36*
X104499373Y-95640795D02*
G01*
X105340822Y-96482242D01*
X105340826Y-96482248D01*
X105344361Y-96485783D01*
X104849387Y-96980757D01*
X104663625Y-96794995D01*
X104004397Y-96135769D01*
X104004392Y-96135762D01*
X104000859Y-96132229D01*
X104033088Y-96100000D01*
X104492293Y-95640793D01*
X104492299Y-95640788D01*
X104495833Y-95637255D01*
X104499373Y-95640795D01*
G37*
G36*
X131999142Y-96132229D02*
G01*
X131150614Y-96980757D01*
X130832416Y-96662559D01*
X131154155Y-96340820D01*
X131677406Y-95817568D01*
X131677409Y-95817565D01*
X131680944Y-95814031D01*
X131999142Y-96132229D01*
G37*
G36*
X76087000Y-96800000D02*
G01*
X74887000Y-96800000D01*
X74887000Y-96100000D01*
X76087000Y-96100000D01*
X76087000Y-96800000D01*
G37*
G36*
X88087000Y-96800000D02*
G01*
X86887000Y-96800000D01*
X86887000Y-96100000D01*
X88087000Y-96100000D01*
X88087000Y-96800000D01*
G37*
G36*
X113113000Y-96800000D02*
G01*
X111913000Y-96800000D01*
X111913000Y-96350000D01*
X113113000Y-96350000D01*
X113113000Y-96800000D01*
G37*
G36*
X125113000Y-96800000D02*
G01*
X123913000Y-96800000D01*
X123913000Y-96350000D01*
X125113000Y-96350000D01*
X125113000Y-96800000D01*
G37*
G36*
X94996845Y-95129933D02*
G01*
X95359206Y-95492293D01*
X95359208Y-95492296D01*
X95362745Y-95495833D01*
X95044547Y-95814031D01*
X94517757Y-96340822D01*
X94517753Y-96340824D01*
X94514217Y-96344361D01*
X94266728Y-96096872D01*
X94022781Y-95852926D01*
X94022778Y-95852922D01*
X94019243Y-95849387D01*
X94022782Y-95845848D01*
X94022783Y-95845846D01*
X94864230Y-95004397D01*
X94864239Y-95004390D01*
X94867771Y-95000859D01*
X94996845Y-95129933D01*
G37*
G36*
X130996845Y-95129933D02*
G01*
X131359206Y-95492293D01*
X131359208Y-95492296D01*
X131362745Y-95495833D01*
X131044547Y-95814031D01*
X130517757Y-96340822D01*
X130517753Y-96340824D01*
X130514217Y-96344361D01*
X130266728Y-96096872D01*
X130022781Y-95852926D01*
X130022778Y-95852922D01*
X130019243Y-95849387D01*
X130022782Y-95845848D01*
X130022783Y-95845846D01*
X130864230Y-95004397D01*
X130864239Y-95004390D01*
X130867771Y-95000859D01*
X130996845Y-95129933D01*
G37*
G36*
X69980757Y-95849386D02*
G01*
X69662559Y-96167584D01*
X68814031Y-95319056D01*
X68972423Y-95160664D01*
X69128691Y-95004395D01*
X69128694Y-95004392D01*
X69132229Y-95000858D01*
X69980757Y-95849386D01*
G37*
G36*
X105980757Y-95849386D02*
G01*
X105662559Y-96167584D01*
X104814031Y-95319056D01*
X104972423Y-95160664D01*
X105128691Y-95004395D01*
X105128694Y-95004392D01*
X105132229Y-95000858D01*
X105980757Y-95849386D01*
G37*
G36*
X113113000Y-95900000D02*
G01*
X111913000Y-95900000D01*
X111913000Y-95200000D01*
X113113000Y-95200000D01*
X113113000Y-95900000D01*
G37*
G36*
X125113000Y-95900000D02*
G01*
X123913000Y-95900000D01*
X123913000Y-95200000D01*
X125113000Y-95200000D01*
X125113000Y-95900000D01*
G37*
G36*
X76087000Y-95650000D02*
G01*
X74887000Y-95650000D01*
X74887000Y-95200000D01*
X76087000Y-95200000D01*
X76087000Y-95650000D01*
G37*
G36*
X88087000Y-95650000D02*
G01*
X86887000Y-95650000D01*
X86887000Y-95200000D01*
X88087000Y-95200000D01*
X88087000Y-95650000D01*
G37*
G36*
X93616570Y-94087274D02*
G01*
X93616574Y-94087275D01*
X93642681Y-94098089D01*
X93647304Y-94100004D01*
X93788291Y-94240991D01*
X93801109Y-94247990D01*
X93815967Y-94251222D01*
X93889198Y-94267152D01*
X93889204Y-94267154D01*
X93892747Y-94267925D01*
X93895932Y-94269664D01*
X93895934Y-94269665D01*
X93972733Y-94311601D01*
X94006204Y-94306789D01*
X94068027Y-94244964D01*
X94068033Y-94244959D01*
X94071568Y-94241425D01*
X94076187Y-94239511D01*
X94076190Y-94239510D01*
X94102304Y-94228694D01*
X94102306Y-94228693D01*
X94106924Y-94226781D01*
X94111545Y-94228695D01*
X94111549Y-94228696D01*
X94137656Y-94239510D01*
X94142279Y-94241425D01*
X94531188Y-94630334D01*
X94545832Y-94665689D01*
X94531188Y-94701045D01*
X93682660Y-95549573D01*
X93647304Y-95564217D01*
X93611949Y-95549573D01*
X93223040Y-95160664D01*
X93208396Y-95125309D01*
X93210308Y-95120691D01*
X93210309Y-95120689D01*
X93221126Y-95094573D01*
X93221127Y-95094571D01*
X93223040Y-95089953D01*
X93226573Y-95086419D01*
X93226578Y-95086413D01*
X93288404Y-95024589D01*
X93293216Y-94991118D01*
X93251280Y-94914319D01*
X93251279Y-94914317D01*
X93249540Y-94911132D01*
X93248769Y-94907589D01*
X93248767Y-94907583D01*
X93220060Y-94775617D01*
X93220059Y-94775612D01*
X93219289Y-94772070D01*
X93219547Y-94768456D01*
X93219547Y-94768451D01*
X93229183Y-94633733D01*
X93229183Y-94633730D01*
X93229442Y-94630117D01*
X93230707Y-94626723D01*
X93231870Y-94621379D01*
X93224563Y-94596502D01*
X93191223Y-94563162D01*
X93191221Y-94563159D01*
X93187685Y-94559623D01*
X93178155Y-94536615D01*
X93174956Y-94528893D01*
X93174955Y-94528889D01*
X93173041Y-94524268D01*
X93174954Y-94519647D01*
X93174956Y-94519642D01*
X93185770Y-94493535D01*
X93185771Y-94493532D01*
X93187685Y-94488913D01*
X93191218Y-94485379D01*
X93191221Y-94485376D01*
X93573056Y-94103541D01*
X93573059Y-94103538D01*
X93576594Y-94100004D01*
X93586851Y-94095755D01*
X93607324Y-94087275D01*
X93607327Y-94087274D01*
X93611949Y-94085360D01*
X93616570Y-94087274D01*
G37*
G36*
X129616570Y-94087274D02*
G01*
X129616574Y-94087275D01*
X129642681Y-94098089D01*
X129647304Y-94100004D01*
X129788291Y-94240991D01*
X129801109Y-94247990D01*
X129815967Y-94251222D01*
X129889198Y-94267152D01*
X129889204Y-94267154D01*
X129892747Y-94267925D01*
X129895932Y-94269664D01*
X129895934Y-94269665D01*
X129972733Y-94311601D01*
X130006204Y-94306789D01*
X130068027Y-94244964D01*
X130068033Y-94244959D01*
X130071568Y-94241425D01*
X130076187Y-94239511D01*
X130076190Y-94239510D01*
X130102304Y-94228694D01*
X130102306Y-94228693D01*
X130106924Y-94226781D01*
X130111545Y-94228695D01*
X130111549Y-94228696D01*
X130137656Y-94239510D01*
X130142279Y-94241425D01*
X130531188Y-94630334D01*
X130545832Y-94665689D01*
X130531188Y-94701045D01*
X129682660Y-95549573D01*
X129647304Y-95564217D01*
X129611949Y-95549573D01*
X129223040Y-95160664D01*
X129208396Y-95125309D01*
X129210308Y-95120691D01*
X129210309Y-95120689D01*
X129221126Y-95094573D01*
X129221127Y-95094571D01*
X129223040Y-95089953D01*
X129226573Y-95086419D01*
X129226578Y-95086413D01*
X129288404Y-95024589D01*
X129293216Y-94991118D01*
X129251280Y-94914319D01*
X129251279Y-94914317D01*
X129249540Y-94911132D01*
X129248769Y-94907589D01*
X129248767Y-94907583D01*
X129220060Y-94775617D01*
X129220059Y-94775612D01*
X129219289Y-94772070D01*
X129219547Y-94768456D01*
X129219547Y-94768451D01*
X129229183Y-94633733D01*
X129229183Y-94633730D01*
X129229442Y-94630117D01*
X129230707Y-94626723D01*
X129231870Y-94621379D01*
X129224563Y-94596502D01*
X129191223Y-94563162D01*
X129191221Y-94563159D01*
X129187685Y-94559623D01*
X129178155Y-94536615D01*
X129174956Y-94528893D01*
X129174955Y-94528889D01*
X129173041Y-94524268D01*
X129174954Y-94519647D01*
X129174956Y-94519642D01*
X129185770Y-94493535D01*
X129185771Y-94493532D01*
X129187685Y-94488913D01*
X129191218Y-94485379D01*
X129191221Y-94485376D01*
X129573056Y-94103541D01*
X129573059Y-94103538D01*
X129576594Y-94100004D01*
X129586851Y-94095755D01*
X129607324Y-94087275D01*
X129607327Y-94087274D01*
X129611949Y-94085360D01*
X129616570Y-94087274D01*
G37*
G36*
X70374287Y-94068889D02*
G01*
X70374291Y-94068890D01*
X70400398Y-94079704D01*
X70405021Y-94081619D01*
X70793930Y-94470528D01*
X70808574Y-94505883D01*
X70793930Y-94541238D01*
X70757047Y-94578121D01*
X70749743Y-94603006D01*
X70750899Y-94608317D01*
X70752173Y-94611732D01*
X70762326Y-94753685D01*
X70732075Y-94892747D01*
X70688398Y-94972733D01*
X70693209Y-95006203D01*
X70758575Y-95071568D01*
X70773219Y-95106924D01*
X70758575Y-95142279D01*
X70369666Y-95531188D01*
X70334311Y-95545832D01*
X70298955Y-95531188D01*
X69450427Y-94682660D01*
X69435783Y-94647304D01*
X69437696Y-94642683D01*
X69437698Y-94642678D01*
X69448512Y-94616571D01*
X69448513Y-94616568D01*
X69450427Y-94611949D01*
X69453960Y-94608415D01*
X69453963Y-94608412D01*
X69835798Y-94226577D01*
X69835801Y-94226574D01*
X69839336Y-94223040D01*
X69849593Y-94218791D01*
X69870066Y-94210311D01*
X69870069Y-94210310D01*
X69874691Y-94208396D01*
X69879309Y-94210308D01*
X69879310Y-94210309D01*
X69886010Y-94213084D01*
X69910047Y-94223040D01*
X69913582Y-94226575D01*
X69913586Y-94226578D01*
X69975410Y-94288404D01*
X70008881Y-94293216D01*
X70085677Y-94251281D01*
X70085685Y-94251277D01*
X70088868Y-94249540D01*
X70092410Y-94248769D01*
X70092417Y-94248767D01*
X70180504Y-94229605D01*
X70193325Y-94222605D01*
X70330773Y-94085156D01*
X70330776Y-94085153D01*
X70334311Y-94081619D01*
X70344568Y-94077370D01*
X70365041Y-94068890D01*
X70365044Y-94068889D01*
X70369666Y-94066975D01*
X70374287Y-94068889D01*
G37*
G36*
X106374287Y-94068889D02*
G01*
X106374291Y-94068890D01*
X106400398Y-94079704D01*
X106405021Y-94081619D01*
X106793930Y-94470528D01*
X106808574Y-94505883D01*
X106793930Y-94541238D01*
X106757047Y-94578121D01*
X106749743Y-94603006D01*
X106750899Y-94608317D01*
X106752173Y-94611732D01*
X106762326Y-94753685D01*
X106732075Y-94892747D01*
X106688398Y-94972733D01*
X106693209Y-95006203D01*
X106758575Y-95071568D01*
X106773219Y-95106924D01*
X106758575Y-95142279D01*
X106369666Y-95531188D01*
X106334311Y-95545832D01*
X106298955Y-95531188D01*
X105450427Y-94682660D01*
X105435783Y-94647304D01*
X105437696Y-94642683D01*
X105437698Y-94642678D01*
X105448512Y-94616571D01*
X105448513Y-94616568D01*
X105450427Y-94611949D01*
X105453960Y-94608415D01*
X105453963Y-94608412D01*
X105835798Y-94226577D01*
X105835801Y-94226574D01*
X105839336Y-94223040D01*
X105849593Y-94218791D01*
X105870066Y-94210311D01*
X105870069Y-94210310D01*
X105874691Y-94208396D01*
X105879309Y-94210308D01*
X105879310Y-94210309D01*
X105886010Y-94213084D01*
X105910047Y-94223040D01*
X105913582Y-94226575D01*
X105913586Y-94226578D01*
X105975410Y-94288404D01*
X106008881Y-94293216D01*
X106085677Y-94251281D01*
X106085685Y-94251277D01*
X106088868Y-94249540D01*
X106092410Y-94248769D01*
X106092417Y-94248767D01*
X106180504Y-94229605D01*
X106193325Y-94222605D01*
X106330773Y-94085156D01*
X106330776Y-94085153D01*
X106334311Y-94081619D01*
X106344568Y-94077370D01*
X106365041Y-94068890D01*
X106365044Y-94068889D01*
X106369666Y-94066975D01*
X106374287Y-94068889D01*
G37*
G36*
X75722355Y-93664645D02*
G01*
X75737000Y-93700000D01*
X75737000Y-93705003D01*
X75737000Y-93752153D01*
X75749422Y-93774908D01*
X75754026Y-93777868D01*
X75757320Y-93779373D01*
X75864875Y-93872570D01*
X75941816Y-93992292D01*
X75967491Y-94079735D01*
X75994560Y-94100000D01*
X76081996Y-94100000D01*
X76087000Y-94100000D01*
X76122355Y-94114645D01*
X76137000Y-94150000D01*
X76137000Y-94700000D01*
X76122355Y-94735355D01*
X76087000Y-94750000D01*
X76081996Y-94750000D01*
X74892004Y-94750000D01*
X74887000Y-94750000D01*
X74851645Y-94735355D01*
X74849730Y-94730732D01*
X74849729Y-94730731D01*
X74838915Y-94704623D01*
X74837000Y-94700000D01*
X74837000Y-94150000D01*
X74851645Y-94114645D01*
X74856263Y-94112731D01*
X74856268Y-94112729D01*
X74882376Y-94101915D01*
X74882377Y-94101914D01*
X74887000Y-94100000D01*
X74979440Y-94100000D01*
X75006508Y-94079735D01*
X75017498Y-94042306D01*
X75031160Y-93995776D01*
X75031162Y-93995769D01*
X75032184Y-93992292D01*
X75034144Y-93989241D01*
X75034146Y-93989238D01*
X75082885Y-93913400D01*
X75087000Y-93899384D01*
X75087000Y-93705004D01*
X75087000Y-93705003D01*
X75087000Y-93700000D01*
X75101645Y-93664645D01*
X75106263Y-93662731D01*
X75106268Y-93662729D01*
X75132376Y-93651915D01*
X75132377Y-93651914D01*
X75137000Y-93650000D01*
X75687000Y-93650000D01*
X75722355Y-93664645D01*
G37*
G36*
X87722355Y-93664645D02*
G01*
X87737000Y-93700000D01*
X87737000Y-93705003D01*
X87737000Y-93752153D01*
X87749422Y-93774908D01*
X87754026Y-93777868D01*
X87757320Y-93779373D01*
X87864875Y-93872570D01*
X87941816Y-93992292D01*
X87967491Y-94079735D01*
X87994560Y-94100000D01*
X88081996Y-94100000D01*
X88087000Y-94100000D01*
X88122355Y-94114645D01*
X88137000Y-94150000D01*
X88137000Y-94700000D01*
X88122355Y-94735355D01*
X88087000Y-94750000D01*
X88081996Y-94750000D01*
X86892004Y-94750000D01*
X86887000Y-94750000D01*
X86851645Y-94735355D01*
X86849730Y-94730732D01*
X86849729Y-94730731D01*
X86838915Y-94704623D01*
X86837000Y-94700000D01*
X86837000Y-94150000D01*
X86851645Y-94114645D01*
X86856263Y-94112731D01*
X86856268Y-94112729D01*
X86882376Y-94101915D01*
X86882377Y-94101914D01*
X86887000Y-94100000D01*
X86979440Y-94100000D01*
X87006508Y-94079735D01*
X87017498Y-94042306D01*
X87031160Y-93995776D01*
X87031162Y-93995769D01*
X87032184Y-93992292D01*
X87034144Y-93989241D01*
X87034146Y-93989238D01*
X87082885Y-93913400D01*
X87087000Y-93899384D01*
X87087000Y-93705004D01*
X87087000Y-93705003D01*
X87087000Y-93700000D01*
X87101645Y-93664645D01*
X87106263Y-93662731D01*
X87106268Y-93662729D01*
X87132376Y-93651915D01*
X87132377Y-93651914D01*
X87137000Y-93650000D01*
X87687000Y-93650000D01*
X87722355Y-93664645D01*
G37*
G36*
X112872355Y-93664645D02*
G01*
X112887000Y-93700000D01*
X112886999Y-93899387D01*
X112891113Y-93913397D01*
X112941816Y-93992292D01*
X112967491Y-94079735D01*
X112994560Y-94100000D01*
X113081996Y-94100000D01*
X113087000Y-94100000D01*
X113122355Y-94114645D01*
X113137000Y-94150000D01*
X113137000Y-94700000D01*
X113122355Y-94735355D01*
X113087000Y-94750000D01*
X113081996Y-94750000D01*
X111892004Y-94750000D01*
X111887000Y-94750000D01*
X111851645Y-94735355D01*
X111849730Y-94730732D01*
X111849729Y-94730731D01*
X111838915Y-94704623D01*
X111837000Y-94700000D01*
X111837000Y-94150000D01*
X111851645Y-94114645D01*
X111856263Y-94112731D01*
X111856268Y-94112729D01*
X111882376Y-94101915D01*
X111882377Y-94101914D01*
X111887000Y-94100000D01*
X111979440Y-94100000D01*
X112006508Y-94079735D01*
X112017498Y-94042306D01*
X112031160Y-93995776D01*
X112031162Y-93995769D01*
X112032184Y-93992292D01*
X112034144Y-93989241D01*
X112034146Y-93989238D01*
X112107160Y-93875627D01*
X112107161Y-93875625D01*
X112109125Y-93872570D01*
X112111870Y-93870191D01*
X112111873Y-93870188D01*
X112213934Y-93781752D01*
X112213935Y-93781750D01*
X112216680Y-93779373D01*
X112219972Y-93777869D01*
X112224578Y-93774908D01*
X112237000Y-93752153D01*
X112237000Y-93705004D01*
X112237000Y-93705003D01*
X112237000Y-93700000D01*
X112251645Y-93664645D01*
X112256263Y-93662731D01*
X112256268Y-93662729D01*
X112282376Y-93651915D01*
X112282377Y-93651914D01*
X112287000Y-93650000D01*
X112837000Y-93650000D01*
X112872355Y-93664645D01*
G37*
G36*
X124872355Y-93664645D02*
G01*
X124887000Y-93700000D01*
X124886999Y-93899387D01*
X124891113Y-93913397D01*
X124941816Y-93992292D01*
X124967491Y-94079735D01*
X124994560Y-94100000D01*
X125081996Y-94100000D01*
X125087000Y-94100000D01*
X125122355Y-94114645D01*
X125137000Y-94150000D01*
X125137000Y-94700000D01*
X125122355Y-94735355D01*
X125087000Y-94750000D01*
X125081996Y-94750000D01*
X123892004Y-94750000D01*
X123887000Y-94750000D01*
X123851645Y-94735355D01*
X123849730Y-94730732D01*
X123849729Y-94730731D01*
X123838915Y-94704623D01*
X123837000Y-94700000D01*
X123837000Y-94150000D01*
X123851645Y-94114645D01*
X123856263Y-94112731D01*
X123856268Y-94112729D01*
X123882376Y-94101915D01*
X123882377Y-94101914D01*
X123887000Y-94100000D01*
X123979440Y-94100000D01*
X124006508Y-94079735D01*
X124017498Y-94042306D01*
X124031160Y-93995776D01*
X124031162Y-93995769D01*
X124032184Y-93992292D01*
X124034144Y-93989241D01*
X124034146Y-93989238D01*
X124107160Y-93875627D01*
X124107161Y-93875625D01*
X124109125Y-93872570D01*
X124111870Y-93870191D01*
X124111873Y-93870188D01*
X124213934Y-93781752D01*
X124213935Y-93781750D01*
X124216680Y-93779373D01*
X124219972Y-93777869D01*
X124224578Y-93774908D01*
X124237000Y-93752153D01*
X124237000Y-93705004D01*
X124237000Y-93705003D01*
X124237000Y-93700000D01*
X124251645Y-93664645D01*
X124256263Y-93662731D01*
X124256268Y-93662729D01*
X124282376Y-93651915D01*
X124282377Y-93651914D01*
X124287000Y-93650000D01*
X124837000Y-93650000D01*
X124872355Y-93664645D01*
G37*
G36*
X92218078Y-93515992D02*
G01*
X92263498Y-93546340D01*
X92503914Y-93786756D01*
X92534262Y-93832176D01*
X92544919Y-93885751D01*
X92534262Y-93939327D01*
X92503914Y-93984746D01*
X92305924Y-94182736D01*
X92260505Y-94213084D01*
X92206929Y-94223741D01*
X92153354Y-94213084D01*
X92107934Y-94182736D01*
X91867518Y-93942320D01*
X91837170Y-93896900D01*
X91826513Y-93843325D01*
X91837170Y-93789749D01*
X91867518Y-93744330D01*
X91961848Y-93650000D01*
X92061968Y-93549879D01*
X92061971Y-93549876D01*
X92065508Y-93546340D01*
X92110927Y-93515992D01*
X92164503Y-93505335D01*
X92218078Y-93515992D01*
G37*
G36*
X128218078Y-93515992D02*
G01*
X128263498Y-93546340D01*
X128503914Y-93786756D01*
X128534262Y-93832176D01*
X128544919Y-93885751D01*
X128534262Y-93939327D01*
X128503914Y-93984746D01*
X128305924Y-94182736D01*
X128260505Y-94213084D01*
X128206929Y-94223741D01*
X128153354Y-94213084D01*
X128107934Y-94182736D01*
X127867518Y-93942320D01*
X127837170Y-93896900D01*
X127826513Y-93843325D01*
X127837170Y-93789749D01*
X127867518Y-93744330D01*
X127961848Y-93650000D01*
X128061968Y-93549879D01*
X128061971Y-93549876D01*
X128065508Y-93546340D01*
X128110927Y-93515992D01*
X128164503Y-93505335D01*
X128218078Y-93515992D01*
G37*
G36*
X107914200Y-93490865D02*
G01*
X107959619Y-93521213D01*
X108157609Y-93719203D01*
X108187957Y-93764622D01*
X108198614Y-93818198D01*
X108187957Y-93871773D01*
X108157609Y-93917193D01*
X107917193Y-94157609D01*
X107871773Y-94187957D01*
X107818198Y-94198614D01*
X107764622Y-94187957D01*
X107719203Y-94157609D01*
X107521213Y-93959619D01*
X107490865Y-93914200D01*
X107480208Y-93860624D01*
X107490865Y-93807049D01*
X107521213Y-93761629D01*
X107632842Y-93650000D01*
X107758089Y-93524752D01*
X107758092Y-93524749D01*
X107761629Y-93521213D01*
X107807049Y-93490865D01*
X107860624Y-93480208D01*
X107914200Y-93490865D01*
G37*
G36*
X92896900Y-92837170D02*
G01*
X92942320Y-92867518D01*
X93182736Y-93107934D01*
X93213084Y-93153354D01*
X93223741Y-93206929D01*
X93213084Y-93260505D01*
X93182736Y-93305924D01*
X92984746Y-93503914D01*
X92939327Y-93534262D01*
X92885751Y-93544919D01*
X92832176Y-93534262D01*
X92786756Y-93503914D01*
X92546340Y-93263498D01*
X92515992Y-93218078D01*
X92505335Y-93164503D01*
X92515992Y-93110927D01*
X92546340Y-93065508D01*
X92641013Y-92970835D01*
X92740790Y-92871057D01*
X92740793Y-92871054D01*
X92744330Y-92867518D01*
X92789749Y-92837170D01*
X92843325Y-92826513D01*
X92896900Y-92837170D01*
G37*
G36*
X128896900Y-92837170D02*
G01*
X128942320Y-92867518D01*
X129182736Y-93107934D01*
X129213084Y-93153354D01*
X129223741Y-93206929D01*
X129213084Y-93260505D01*
X129182736Y-93305924D01*
X128984746Y-93503914D01*
X128939327Y-93534262D01*
X128885751Y-93544919D01*
X128832176Y-93534262D01*
X128786756Y-93503914D01*
X128546340Y-93263498D01*
X128515992Y-93218078D01*
X128505335Y-93164503D01*
X128515992Y-93110927D01*
X128546340Y-93065508D01*
X128641013Y-92970835D01*
X128740790Y-92871057D01*
X128740793Y-92871054D01*
X128744330Y-92867518D01*
X128789749Y-92837170D01*
X128843325Y-92826513D01*
X128896900Y-92837170D01*
G37*
G36*
X107235378Y-92812043D02*
G01*
X107280797Y-92842391D01*
X107478787Y-93040381D01*
X107509135Y-93085800D01*
X107519792Y-93139376D01*
X107509135Y-93192951D01*
X107478787Y-93238371D01*
X107238371Y-93478787D01*
X107192951Y-93509135D01*
X107139376Y-93519792D01*
X107085800Y-93509135D01*
X107040381Y-93478787D01*
X106842391Y-93280797D01*
X106812043Y-93235378D01*
X106801386Y-93181802D01*
X106812043Y-93128227D01*
X106842391Y-93082807D01*
X106961427Y-92963771D01*
X107079267Y-92845930D01*
X107079270Y-92845927D01*
X107082807Y-92842391D01*
X107128227Y-92812043D01*
X107181802Y-92801386D01*
X107235378Y-92812043D01*
G37*
G36*
X70713576Y-92700657D02*
G01*
X70758995Y-92731005D01*
X70789343Y-92776424D01*
X70800000Y-92830000D01*
X70800000Y-93170000D01*
X70789343Y-93223576D01*
X70758995Y-93268995D01*
X70713576Y-93299343D01*
X70660000Y-93310000D01*
X70380000Y-93310000D01*
X70326424Y-93299343D01*
X70281005Y-93268995D01*
X70250657Y-93223576D01*
X70240000Y-93170000D01*
X70240000Y-92830000D01*
X70250657Y-92776424D01*
X70281005Y-92731005D01*
X70326424Y-92700657D01*
X70380000Y-92690000D01*
X70660000Y-92690000D01*
X70713576Y-92700657D01*
G37*
G36*
X71673576Y-92700657D02*
G01*
X71718995Y-92731005D01*
X71749343Y-92776424D01*
X71760000Y-92830000D01*
X71760000Y-93170000D01*
X71749343Y-93223576D01*
X71718995Y-93268995D01*
X71673576Y-93299343D01*
X71620000Y-93310000D01*
X71340000Y-93310000D01*
X71286424Y-93299343D01*
X71241005Y-93268995D01*
X71210657Y-93223576D01*
X71200000Y-93170000D01*
X71200000Y-92830000D01*
X71210657Y-92776424D01*
X71241005Y-92731005D01*
X71286424Y-92700657D01*
X71340000Y-92690000D01*
X71620000Y-92690000D01*
X71673576Y-92700657D01*
G37*
G36*
X112213576Y-92200657D02*
G01*
X112258995Y-92231005D01*
X112289343Y-92276424D01*
X112300000Y-92330000D01*
X112300000Y-92670000D01*
X112289343Y-92723576D01*
X112258995Y-92768995D01*
X112213576Y-92799343D01*
X112160000Y-92810000D01*
X111880000Y-92810000D01*
X111826424Y-92799343D01*
X111781005Y-92768995D01*
X111750657Y-92723576D01*
X111740000Y-92670000D01*
X111740000Y-92330000D01*
X111750657Y-92276424D01*
X111781005Y-92231005D01*
X111826424Y-92200657D01*
X111880000Y-92190000D01*
X112160000Y-92190000D01*
X112213576Y-92200657D01*
G37*
G36*
X113173576Y-92200657D02*
G01*
X113218995Y-92231005D01*
X113249343Y-92276424D01*
X113260000Y-92330000D01*
X113260000Y-92670000D01*
X113249343Y-92723576D01*
X113218995Y-92768995D01*
X113173576Y-92799343D01*
X113120000Y-92810000D01*
X112840000Y-92810000D01*
X112786424Y-92799343D01*
X112741005Y-92768995D01*
X112710657Y-92723576D01*
X112700000Y-92670000D01*
X112700000Y-92330000D01*
X112710657Y-92276424D01*
X112741005Y-92231005D01*
X112786424Y-92200657D01*
X112840000Y-92190000D01*
X113120000Y-92190000D01*
X113173576Y-92200657D01*
G37*
G36*
X124213576Y-92200657D02*
G01*
X124258995Y-92231005D01*
X124289343Y-92276424D01*
X124300000Y-92330000D01*
X124300000Y-92670000D01*
X124289343Y-92723576D01*
X124258995Y-92768995D01*
X124213576Y-92799343D01*
X124160000Y-92810000D01*
X123880000Y-92810000D01*
X123826424Y-92799343D01*
X123781005Y-92768995D01*
X123750657Y-92723576D01*
X123740000Y-92670000D01*
X123740000Y-92330000D01*
X123750657Y-92276424D01*
X123781005Y-92231005D01*
X123826424Y-92200657D01*
X123880000Y-92190000D01*
X124160000Y-92190000D01*
X124213576Y-92200657D01*
G37*
G36*
X125173576Y-92200657D02*
G01*
X125218995Y-92231005D01*
X125249343Y-92276424D01*
X125260000Y-92330000D01*
X125260000Y-92670000D01*
X125249343Y-92723576D01*
X125218995Y-92768995D01*
X125173576Y-92799343D01*
X125120000Y-92810000D01*
X124840000Y-92810000D01*
X124786424Y-92799343D01*
X124741005Y-92768995D01*
X124710657Y-92723576D01*
X124700000Y-92670000D01*
X124700000Y-92330000D01*
X124710657Y-92276424D01*
X124741005Y-92231005D01*
X124786424Y-92200657D01*
X124840000Y-92190000D01*
X125120000Y-92190000D01*
X125173576Y-92200657D01*
G37*
G36*
X78223576Y-90710657D02*
G01*
X78268995Y-90741005D01*
X78299343Y-90786424D01*
X78310000Y-90840000D01*
X78310000Y-91120000D01*
X78299343Y-91173576D01*
X78268995Y-91218995D01*
X78223576Y-91249343D01*
X78170000Y-91260000D01*
X77830000Y-91260000D01*
X77776424Y-91249343D01*
X77731005Y-91218995D01*
X77700657Y-91173576D01*
X77690000Y-91120000D01*
X77690000Y-90840000D01*
X77700657Y-90786424D01*
X77731005Y-90741005D01*
X77776424Y-90710657D01*
X77830000Y-90700000D01*
X78170000Y-90700000D01*
X78223576Y-90710657D01*
G37*
G36*
X115223576Y-90710657D02*
G01*
X115268995Y-90741005D01*
X115299343Y-90786424D01*
X115310000Y-90840000D01*
X115310000Y-91120000D01*
X115299343Y-91173576D01*
X115268995Y-91218995D01*
X115223576Y-91249343D01*
X115170000Y-91260000D01*
X114830000Y-91260000D01*
X114776424Y-91249343D01*
X114731005Y-91218995D01*
X114700657Y-91173576D01*
X114690000Y-91120000D01*
X114690000Y-90840000D01*
X114700657Y-90786424D01*
X114731005Y-90741005D01*
X114776424Y-90710657D01*
X114830000Y-90700000D01*
X115170000Y-90700000D01*
X115223576Y-90710657D01*
G37*
G36*
X80235355Y-89877645D02*
G01*
X80250000Y-89913000D01*
X80250000Y-91113000D01*
X80235355Y-91148355D01*
X80200000Y-91163000D01*
X80194996Y-91163000D01*
X79655004Y-91163000D01*
X79650000Y-91163000D01*
X79614645Y-91148355D01*
X79612730Y-91143732D01*
X79612729Y-91143731D01*
X79601915Y-91117623D01*
X79600000Y-91113000D01*
X79600000Y-91020560D01*
X79579735Y-90993491D01*
X79492292Y-90967816D01*
X79372570Y-90890875D01*
X79279373Y-90783320D01*
X79277860Y-90780008D01*
X79274917Y-90775428D01*
X79252157Y-90763000D01*
X79200000Y-90763000D01*
X79164645Y-90748355D01*
X79162730Y-90743733D01*
X79162729Y-90743731D01*
X79151915Y-90717623D01*
X79150000Y-90713000D01*
X79150000Y-90708001D01*
X79149999Y-90707996D01*
X79149999Y-90168004D01*
X79150000Y-90167998D01*
X79150000Y-90163000D01*
X79151915Y-90158376D01*
X79162730Y-90132267D01*
X79162731Y-90132265D01*
X79164645Y-90127645D01*
X79169263Y-90125731D01*
X79169268Y-90125729D01*
X79195376Y-90114915D01*
X79195377Y-90114914D01*
X79200000Y-90113000D01*
X79399385Y-90113000D01*
X79413399Y-90108885D01*
X79453857Y-90082885D01*
X79489238Y-90060146D01*
X79489241Y-90060144D01*
X79492292Y-90058184D01*
X79495772Y-90057161D01*
X79495775Y-90057161D01*
X79579735Y-90032509D01*
X79600000Y-90005439D01*
X79600000Y-89918004D01*
X79600000Y-89918003D01*
X79600000Y-89913000D01*
X79608697Y-89892004D01*
X79612730Y-89882267D01*
X79612731Y-89882265D01*
X79614645Y-89877645D01*
X79619263Y-89875731D01*
X79619268Y-89875729D01*
X79645376Y-89864915D01*
X79645377Y-89864914D01*
X79650000Y-89863000D01*
X80200000Y-89863000D01*
X80235355Y-89877645D01*
G37*
G36*
X117235355Y-89877645D02*
G01*
X117250000Y-89913000D01*
X117250000Y-91113000D01*
X117235355Y-91148355D01*
X117200000Y-91163000D01*
X117194996Y-91163000D01*
X116655004Y-91163000D01*
X116650000Y-91163000D01*
X116614645Y-91148355D01*
X116612730Y-91143732D01*
X116612729Y-91143731D01*
X116601915Y-91117623D01*
X116600000Y-91113000D01*
X116600000Y-91020560D01*
X116579735Y-90993491D01*
X116492292Y-90967816D01*
X116372570Y-90890875D01*
X116279373Y-90783320D01*
X116277860Y-90780008D01*
X116274917Y-90775428D01*
X116252157Y-90763000D01*
X116200000Y-90763000D01*
X116164645Y-90748355D01*
X116162730Y-90743733D01*
X116162729Y-90743731D01*
X116151915Y-90717623D01*
X116150000Y-90713000D01*
X116150000Y-90708001D01*
X116149999Y-90707996D01*
X116149999Y-90168004D01*
X116150000Y-90167998D01*
X116150000Y-90163000D01*
X116151915Y-90158376D01*
X116162730Y-90132267D01*
X116162731Y-90132265D01*
X116164645Y-90127645D01*
X116169263Y-90125731D01*
X116169268Y-90125729D01*
X116195376Y-90114915D01*
X116195377Y-90114914D01*
X116200000Y-90113000D01*
X116399385Y-90113000D01*
X116413399Y-90108885D01*
X116453857Y-90082885D01*
X116489238Y-90060146D01*
X116489241Y-90060144D01*
X116492292Y-90058184D01*
X116495772Y-90057161D01*
X116495775Y-90057161D01*
X116579735Y-90032509D01*
X116600000Y-90005439D01*
X116600000Y-89918004D01*
X116600000Y-89918003D01*
X116600000Y-89913000D01*
X116608697Y-89892004D01*
X116612730Y-89882267D01*
X116612731Y-89882265D01*
X116614645Y-89877645D01*
X116619263Y-89875731D01*
X116619268Y-89875729D01*
X116645376Y-89864915D01*
X116645377Y-89864914D01*
X116650000Y-89863000D01*
X117200000Y-89863000D01*
X117235355Y-89877645D01*
G37*
G36*
X83385355Y-89851645D02*
G01*
X83400000Y-89887000D01*
X83400000Y-89892003D01*
X83400000Y-89979439D01*
X83420265Y-90006509D01*
X83504224Y-90031161D01*
X83507708Y-90032184D01*
X83586600Y-90082885D01*
X83600615Y-90087000D01*
X83794996Y-90087000D01*
X83800000Y-90087000D01*
X83835355Y-90101645D01*
X83850000Y-90137000D01*
X83850000Y-90687000D01*
X83835355Y-90722355D01*
X83800000Y-90737000D01*
X83794996Y-90737000D01*
X83747843Y-90737000D01*
X83725083Y-90749428D01*
X83722140Y-90754006D01*
X83720627Y-90757320D01*
X83627430Y-90864875D01*
X83507708Y-90941816D01*
X83420264Y-90967491D01*
X83400000Y-90994560D01*
X83400000Y-91087000D01*
X83385355Y-91122355D01*
X83350000Y-91137000D01*
X83344996Y-91137000D01*
X82805004Y-91137000D01*
X82800000Y-91137000D01*
X82764645Y-91122355D01*
X82762730Y-91117732D01*
X82762729Y-91117731D01*
X82751915Y-91091623D01*
X82750000Y-91087000D01*
X82750000Y-89887000D01*
X82751960Y-89882268D01*
X82762730Y-89856267D01*
X82762731Y-89856265D01*
X82764645Y-89851645D01*
X82769263Y-89849731D01*
X82769268Y-89849729D01*
X82795376Y-89838915D01*
X82795377Y-89838914D01*
X82800000Y-89837000D01*
X83350000Y-89837000D01*
X83385355Y-89851645D01*
G37*
G36*
X120385355Y-89851645D02*
G01*
X120400000Y-89887000D01*
X120400000Y-89892003D01*
X120400000Y-89979439D01*
X120420265Y-90006509D01*
X120504224Y-90031161D01*
X120507708Y-90032184D01*
X120586600Y-90082885D01*
X120600615Y-90087000D01*
X120794996Y-90087000D01*
X120800000Y-90087000D01*
X120835355Y-90101645D01*
X120850000Y-90137000D01*
X120850000Y-90687000D01*
X120835355Y-90722355D01*
X120800000Y-90737000D01*
X120794996Y-90737000D01*
X120747843Y-90737000D01*
X120725083Y-90749428D01*
X120722140Y-90754006D01*
X120720627Y-90757320D01*
X120627430Y-90864875D01*
X120507708Y-90941816D01*
X120420264Y-90967491D01*
X120400000Y-90994560D01*
X120400000Y-91087000D01*
X120385355Y-91122355D01*
X120350000Y-91137000D01*
X120344996Y-91137000D01*
X119805004Y-91137000D01*
X119800000Y-91137000D01*
X119764645Y-91122355D01*
X119762730Y-91117732D01*
X119762729Y-91117731D01*
X119751915Y-91091623D01*
X119750000Y-91087000D01*
X119750000Y-89887000D01*
X119751960Y-89882268D01*
X119762730Y-89856267D01*
X119762731Y-89856265D01*
X119764645Y-89851645D01*
X119769263Y-89849731D01*
X119769268Y-89849729D01*
X119795376Y-89838915D01*
X119795377Y-89838914D01*
X119800000Y-89837000D01*
X120350000Y-89837000D01*
X120385355Y-89851645D01*
G37*
G36*
X81400000Y-91087000D02*
G01*
X80700000Y-91087000D01*
X80700000Y-89887000D01*
X81400000Y-89887000D01*
X81400000Y-91087000D01*
G37*
G36*
X82300000Y-91087000D02*
G01*
X81850000Y-91087000D01*
X81850000Y-89887000D01*
X82300000Y-89887000D01*
X82300000Y-91087000D01*
G37*
G36*
X118400000Y-91087000D02*
G01*
X117700000Y-91087000D01*
X117700000Y-89887000D01*
X118400000Y-89887000D01*
X118400000Y-91087000D01*
G37*
G36*
X119300000Y-91087000D02*
G01*
X118850000Y-91087000D01*
X118850000Y-89887000D01*
X119300000Y-89887000D01*
X119300000Y-91087000D01*
G37*
G36*
X78223576Y-89750657D02*
G01*
X78268995Y-89781005D01*
X78299343Y-89826424D01*
X78310000Y-89880000D01*
X78310000Y-90160000D01*
X78299343Y-90213576D01*
X78268995Y-90258995D01*
X78223576Y-90289343D01*
X78170000Y-90300000D01*
X77830000Y-90300000D01*
X77776424Y-90289343D01*
X77731005Y-90258995D01*
X77700657Y-90213576D01*
X77690000Y-90160000D01*
X77690000Y-89880000D01*
X77700657Y-89826424D01*
X77731005Y-89781005D01*
X77776424Y-89750657D01*
X77830000Y-89740000D01*
X78170000Y-89740000D01*
X78223576Y-89750657D01*
G37*
G36*
X115223576Y-89750657D02*
G01*
X115268995Y-89781005D01*
X115299343Y-89826424D01*
X115310000Y-89880000D01*
X115310000Y-90160000D01*
X115299343Y-90213576D01*
X115268995Y-90258995D01*
X115223576Y-90289343D01*
X115170000Y-90300000D01*
X114830000Y-90300000D01*
X114776424Y-90289343D01*
X114731005Y-90258995D01*
X114700657Y-90213576D01*
X114690000Y-90160000D01*
X114690000Y-89880000D01*
X114700657Y-89826424D01*
X114731005Y-89781005D01*
X114776424Y-89750657D01*
X114830000Y-89740000D01*
X115170000Y-89740000D01*
X115223576Y-89750657D01*
G37*
M02*
