%TF.GenerationSoftware,KiCad,Pcbnew,7.0.7*%
%TF.CreationDate,2023-11-30T15:47:58+01:00*%
%TF.ProjectId,geheimbadge,67656865-696d-4626-9164-67652e6b6963,0.1.0*%
%TF.SameCoordinates,Original*%
%TF.FileFunction,Paste,Top*%
%TF.FilePolarity,Positive*%
%FSLAX46Y46*%
G04 Gerber Fmt 4.6, Leading zero omitted, Abs format (unit mm)*
G04 Created by KiCad (PCBNEW 7.0.7) date 2023-11-30 15:47:58*
%MOMM*%
%LPD*%
G01*
G04 APERTURE LIST*
G04 Aperture macros list*
%AMRoundRect*
0 Rectangle with rounded corners*
0 $1 Rounding radius*
0 $2 $3 $4 $5 $6 $7 $8 $9 X,Y pos of 4 corners*
0 Add a 4 corners polygon primitive as box body*
4,1,4,$2,$3,$4,$5,$6,$7,$8,$9,$2,$3,0*
0 Add four circle primitives for the rounded corners*
1,1,$1+$1,$2,$3*
1,1,$1+$1,$4,$5*
1,1,$1+$1,$6,$7*
1,1,$1+$1,$8,$9*
0 Add four rect primitives between the rounded corners*
20,1,$1+$1,$2,$3,$4,$5,0*
20,1,$1+$1,$4,$5,$6,$7,0*
20,1,$1+$1,$6,$7,$8,$9,0*
20,1,$1+$1,$8,$9,$2,$3,0*%
%AMRotRect*
0 Rectangle, with rotation*
0 The origin of the aperture is its center*
0 $1 length*
0 $2 width*
0 $3 Rotation angle, in degrees counterclockwise*
0 Add horizontal line*
21,1,$1,$2,0,0,$3*%
%AMFreePoly0*
4,1,27,0.535355,0.635355,0.550000,0.600000,0.550000,-0.600000,0.535355,-0.635355,0.500000,-0.650000,-0.050000,-0.650000,-0.085355,-0.635355,-0.100000,-0.600000,-0.100000,-0.486441,-0.207708,-0.454816,-0.327430,-0.377875,-0.420627,-0.270320,-0.429907,-0.250000,-0.500000,-0.250000,-0.535355,-0.235355,-0.550000,-0.200000,-0.550000,0.350000,-0.535355,0.385355,-0.500000,0.400000,-0.293003,0.400000,
-0.207708,0.454816,-0.100000,0.486441,-0.100000,0.600000,-0.085355,0.635355,-0.050000,0.650000,0.500000,0.650000,0.535355,0.635355,0.535355,0.635355,$1*%
%AMFreePoly1*
4,1,27,0.085355,0.635355,0.100000,0.600000,0.100000,0.486441,0.207708,0.454816,0.293003,0.400000,0.500000,0.400000,0.535355,0.385355,0.550000,0.350000,0.550000,-0.200000,0.535355,-0.235355,0.500000,-0.250000,0.429907,-0.250000,0.420627,-0.270320,0.327430,-0.377875,0.207708,-0.454816,0.100000,-0.486441,0.100000,-0.600000,0.085355,-0.635355,0.050000,-0.650000,-0.500000,-0.650000,
-0.535355,-0.635355,-0.550000,-0.600000,-0.550000,0.600000,-0.535355,0.635355,-0.500000,0.650000,0.050000,0.650000,0.085355,0.635355,0.085355,0.635355,$1*%
G04 Aperture macros list end*
%ADD10RoundRect,0.140000X0.140000X0.170000X-0.140000X0.170000X-0.140000X-0.170000X0.140000X-0.170000X0*%
%ADD11RoundRect,0.140000X0.021213X-0.219203X0.219203X-0.021213X-0.021213X0.219203X-0.219203X0.021213X0*%
%ADD12FreePoly0,270.000000*%
%ADD13R,1.200000X0.700000*%
%ADD14R,1.200000X0.450000*%
%ADD15FreePoly1,270.000000*%
%ADD16RoundRect,0.140000X-0.219203X-0.021213X-0.021213X-0.219203X0.219203X0.021213X0.021213X0.219203X0*%
%ADD17FreePoly0,90.000000*%
%ADD18FreePoly1,90.000000*%
%ADD19RoundRect,0.140000X0.219203X0.021213X0.021213X0.219203X-0.219203X-0.021213X-0.021213X-0.219203X0*%
%ADD20RoundRect,0.140000X-0.140000X-0.170000X0.140000X-0.170000X0.140000X0.170000X-0.140000X0.170000X0*%
%ADD21FreePoly0,0.000000*%
%ADD22R,0.700000X1.200000*%
%ADD23R,0.450000X1.200000*%
%ADD24FreePoly1,0.000000*%
%ADD25RoundRect,0.255000X-0.255000X2.245000X-0.255000X-2.245000X0.255000X-2.245000X0.255000X2.245000X0*%
%ADD26FreePoly0,225.000000*%
%ADD27RotRect,0.700000X1.200000X225.000000*%
%ADD28RotRect,0.450000X1.200000X225.000000*%
%ADD29FreePoly1,225.000000*%
%ADD30FreePoly0,45.000000*%
%ADD31RotRect,0.700000X1.200000X45.000000*%
%ADD32RotRect,0.450000X1.200000X45.000000*%
%ADD33FreePoly1,45.000000*%
%ADD34FreePoly0,135.000000*%
%ADD35RotRect,0.700000X1.200000X135.000000*%
%ADD36RotRect,0.450000X1.200000X135.000000*%
%ADD37FreePoly1,135.000000*%
%ADD38FreePoly0,315.000000*%
%ADD39RotRect,0.700000X1.200000X315.000000*%
%ADD40RotRect,0.450000X1.200000X315.000000*%
%ADD41FreePoly1,315.000000*%
%ADD42RoundRect,0.140000X0.170000X-0.140000X0.170000X0.140000X-0.170000X0.140000X-0.170000X-0.140000X0*%
%ADD43RoundRect,0.140000X-0.170000X0.140000X-0.170000X-0.140000X0.170000X-0.140000X0.170000X0.140000X0*%
%ADD44RoundRect,0.140000X-0.021213X0.219203X-0.219203X0.021213X0.021213X-0.219203X0.219203X-0.021213X0*%
G04 APERTURE END LIST*
D10*
%TO.C,C11*%
X124980000Y-112500000D03*
X124020000Y-112500000D03*
%TD*%
D11*
%TO.C,C27*%
X82135462Y-135814284D03*
X82814284Y-135135462D03*
%TD*%
D12*
%TO.C,D4*%
X112487000Y-104200000D03*
D13*
X112513000Y-105550000D03*
D14*
X112513000Y-106575000D03*
D15*
X112513000Y-107800000D03*
%TD*%
D16*
%TO.C,C2*%
X107160589Y-93160589D03*
X107839411Y-93839411D03*
%TD*%
D12*
%TO.C,D38*%
X99987000Y-114200000D03*
D13*
X100013000Y-115550000D03*
D14*
X100013000Y-116575000D03*
D15*
X100013000Y-117800000D03*
%TD*%
D17*
%TO.C,D34*%
X66013000Y-107800000D03*
D13*
X65987000Y-106450000D03*
D14*
X65987000Y-105425000D03*
D18*
X65987000Y-104200000D03*
%TD*%
D12*
%TO.C,D11*%
X124487000Y-114200000D03*
D13*
X124513000Y-115550000D03*
D14*
X124513000Y-116575000D03*
D15*
X124513000Y-117800000D03*
%TD*%
D19*
%TO.C,C17*%
X122814284Y-130864538D03*
X122135462Y-130185716D03*
%TD*%
D10*
%TO.C,C15*%
X134480000Y-112500000D03*
X133520000Y-112500000D03*
%TD*%
D20*
%TO.C,C26*%
X87020000Y-99500000D03*
X87980000Y-99500000D03*
%TD*%
D17*
%TO.C,D28*%
X75513000Y-127800000D03*
D13*
X75487000Y-126450000D03*
D14*
X75487000Y-125425000D03*
D18*
X75487000Y-124200000D03*
%TD*%
D12*
%TO.C,D10*%
X124487000Y-104200000D03*
D13*
X124513000Y-105550000D03*
D14*
X124513000Y-106575000D03*
D15*
X124513000Y-107800000D03*
%TD*%
D17*
%TO.C,D22*%
X87513000Y-137800000D03*
D13*
X87487000Y-136450000D03*
D14*
X87487000Y-135425000D03*
D18*
X87487000Y-134200000D03*
%TD*%
D20*
%TO.C,C28*%
X75020000Y-129500000D03*
X75980000Y-129500000D03*
%TD*%
D21*
%TO.C,D36*%
X79700000Y-90513000D03*
D22*
X81050000Y-90487000D03*
D23*
X82075000Y-90487000D03*
D24*
X83300000Y-90487000D03*
%TD*%
D19*
%TO.C,C18*%
X105839411Y-151839411D03*
X105160589Y-151160589D03*
%TD*%
D12*
%TO.C,D14*%
X133987000Y-104200000D03*
D13*
X134013000Y-105550000D03*
D14*
X134013000Y-106575000D03*
D15*
X134013000Y-107800000D03*
%TD*%
D17*
%TO.C,D23*%
X87513000Y-127800000D03*
D13*
X87487000Y-126450000D03*
D14*
X87487000Y-125425000D03*
D18*
X87487000Y-124200000D03*
%TD*%
D20*
%TO.C,C22*%
X87020000Y-139500000D03*
X87980000Y-139500000D03*
%TD*%
D17*
%TO.C,D30*%
X75513000Y-107800000D03*
D13*
X75487000Y-106450000D03*
D14*
X75487000Y-105425000D03*
D18*
X75487000Y-104200000D03*
%TD*%
D10*
%TO.C,C3*%
X112980000Y-92500000D03*
X112020000Y-92500000D03*
%TD*%
%TO.C,C38*%
X100480000Y-112500000D03*
X99520000Y-112500000D03*
%TD*%
D25*
%TO.C,J1*%
X102540000Y-122200000D03*
X102540000Y-129800000D03*
X100000000Y-122200000D03*
X100000000Y-129800000D03*
X97460000Y-122200000D03*
X97460000Y-129800000D03*
%TD*%
D26*
%TO.C,D17*%
X121263600Y-131718015D03*
D27*
X120327390Y-132690994D03*
D28*
X119602606Y-133415779D03*
D29*
X118736400Y-134281985D03*
%TD*%
D17*
%TO.C,D1*%
X100013000Y-107800000D03*
D13*
X99987000Y-106450000D03*
D14*
X99987000Y-105425000D03*
D18*
X99987000Y-104200000D03*
%TD*%
D20*
%TO.C,C34*%
X65520000Y-109500000D03*
X66480000Y-109500000D03*
%TD*%
D19*
%TO.C,C16*%
X132814284Y-120864538D03*
X132135462Y-120185716D03*
%TD*%
D12*
%TO.C,D20*%
X99987000Y-144200000D03*
D13*
X100013000Y-145550000D03*
D14*
X100013000Y-146575000D03*
D15*
X100013000Y-147800000D03*
%TD*%
D10*
%TO.C,C14*%
X134480000Y-102500000D03*
X133520000Y-102500000D03*
%TD*%
D11*
%TO.C,C32*%
X72135462Y-125814284D03*
X72814284Y-125135462D03*
%TD*%
D30*
%TO.C,D35*%
X67736400Y-97281985D03*
D31*
X68672610Y-96309006D03*
D32*
X69397394Y-95584221D03*
D33*
X70263600Y-94718015D03*
%TD*%
D10*
%TO.C,C12*%
X124980000Y-122500000D03*
X124020000Y-122500000D03*
%TD*%
D20*
%TO.C,C23*%
X87020000Y-129500000D03*
X87980000Y-129500000D03*
%TD*%
D12*
%TO.C,D15*%
X133987000Y-114200000D03*
D13*
X134013000Y-115550000D03*
D14*
X134013000Y-116575000D03*
D15*
X134013000Y-117800000D03*
%TD*%
D20*
%TO.C,C24*%
X87020000Y-119500000D03*
X87980000Y-119500000D03*
%TD*%
D34*
%TO.C,D27*%
X81281985Y-134263600D03*
D35*
X80309006Y-133327390D03*
D36*
X79584221Y-132602606D03*
D37*
X78718015Y-131736400D03*
%TD*%
D38*
%TO.C,D37*%
X93718015Y-94736400D03*
D39*
X94690994Y-95672610D03*
D40*
X95415779Y-96397394D03*
D41*
X96281985Y-97263600D03*
%TD*%
D20*
%TO.C,C30*%
X75020000Y-109500000D03*
X75980000Y-109500000D03*
%TD*%
D21*
%TO.C,D8*%
X116700000Y-90513000D03*
D22*
X118050000Y-90487000D03*
D23*
X119075000Y-90487000D03*
D24*
X120300000Y-90487000D03*
%TD*%
D17*
%TO.C,D33*%
X66013000Y-117800000D03*
D13*
X65987000Y-116450000D03*
D14*
X65987000Y-115425000D03*
D18*
X65987000Y-114200000D03*
%TD*%
D12*
%TO.C,D3*%
X112487000Y-94200000D03*
D13*
X112513000Y-95550000D03*
D14*
X112513000Y-96575000D03*
D15*
X112513000Y-97800000D03*
%TD*%
D10*
%TO.C,C6*%
X112980000Y-122500000D03*
X112020000Y-122500000D03*
%TD*%
D34*
%TO.C,D32*%
X71281985Y-124263600D03*
D35*
X70309006Y-123327390D03*
D36*
X69584221Y-122602606D03*
D37*
X68718015Y-121736400D03*
%TD*%
D20*
%TO.C,C19*%
X99520000Y-139500000D03*
X100480000Y-139500000D03*
%TD*%
D42*
%TO.C,C33*%
X64500000Y-116480000D03*
X64500000Y-115520000D03*
%TD*%
D17*
%TO.C,D25*%
X87513000Y-107800000D03*
D13*
X87487000Y-106450000D03*
D14*
X87487000Y-105425000D03*
D18*
X87487000Y-104200000D03*
%TD*%
D20*
%TO.C,C31*%
X75020000Y-99500000D03*
X75980000Y-99500000D03*
%TD*%
D11*
%TO.C,C21*%
X94135462Y-151814284D03*
X94814284Y-151135462D03*
%TD*%
D26*
%TO.C,D18*%
X109263600Y-147718015D03*
D27*
X108327390Y-148690994D03*
D28*
X107602606Y-149415779D03*
D29*
X106736400Y-150281985D03*
%TD*%
D17*
%TO.C,D26*%
X87513000Y-97800000D03*
D13*
X87487000Y-96450000D03*
D14*
X87487000Y-95425000D03*
D18*
X87487000Y-94200000D03*
%TD*%
D17*
%TO.C,D24*%
X87513000Y-117800000D03*
D13*
X87487000Y-116450000D03*
D14*
X87487000Y-115425000D03*
D18*
X87487000Y-114200000D03*
%TD*%
D10*
%TO.C,C5*%
X112980000Y-112500000D03*
X112020000Y-112500000D03*
%TD*%
D12*
%TO.C,D9*%
X124487000Y-94200000D03*
D13*
X124513000Y-95550000D03*
D14*
X124513000Y-96575000D03*
D15*
X124513000Y-97800000D03*
%TD*%
D20*
%TO.C,C35*%
X70520000Y-93000000D03*
X71480000Y-93000000D03*
%TD*%
D43*
%TO.C,C8*%
X115000000Y-90020000D03*
X115000000Y-90980000D03*
%TD*%
D20*
%TO.C,C1*%
X99520000Y-109500000D03*
X100480000Y-109500000D03*
%TD*%
D10*
%TO.C,C10*%
X124980000Y-102500000D03*
X124020000Y-102500000D03*
%TD*%
D34*
%TO.C,D21*%
X93281985Y-150263600D03*
D35*
X92309006Y-149327390D03*
D36*
X91584221Y-148602606D03*
D37*
X90718015Y-147736400D03*
%TD*%
D10*
%TO.C,C4*%
X112980000Y-102500000D03*
X112020000Y-102500000D03*
%TD*%
D38*
%TO.C,D13*%
X129718015Y-94736400D03*
D39*
X130690994Y-95672610D03*
D40*
X131415779Y-96397394D03*
D41*
X132281985Y-97263600D03*
%TD*%
D17*
%TO.C,D19*%
X100013000Y-137800000D03*
D13*
X99987000Y-136450000D03*
D14*
X99987000Y-135425000D03*
D18*
X99987000Y-134200000D03*
%TD*%
D17*
%TO.C,D29*%
X75513000Y-117800000D03*
D13*
X75487000Y-116450000D03*
D14*
X75487000Y-115425000D03*
D18*
X75487000Y-114200000D03*
%TD*%
D12*
%TO.C,D12*%
X124487000Y-124200000D03*
D13*
X124513000Y-125550000D03*
D14*
X124513000Y-126575000D03*
D15*
X124513000Y-127800000D03*
%TD*%
D10*
%TO.C,C9*%
X124980000Y-92500000D03*
X124020000Y-92500000D03*
%TD*%
D20*
%TO.C,C29*%
X75020000Y-119500000D03*
X75980000Y-119500000D03*
%TD*%
D10*
%TO.C,C7*%
X112980000Y-132500000D03*
X112020000Y-132500000D03*
%TD*%
%TO.C,C20*%
X100480000Y-142500000D03*
X99520000Y-142500000D03*
%TD*%
D12*
%TO.C,D7*%
X112487000Y-134200000D03*
D13*
X112513000Y-135550000D03*
D14*
X112513000Y-136575000D03*
D15*
X112513000Y-137800000D03*
%TD*%
D12*
%TO.C,D5*%
X112487000Y-114200000D03*
D13*
X112513000Y-115550000D03*
D14*
X112513000Y-116575000D03*
D15*
X112513000Y-117800000D03*
%TD*%
D43*
%TO.C,C36*%
X78000000Y-90020000D03*
X78000000Y-90980000D03*
%TD*%
D17*
%TO.C,D31*%
X75513000Y-97800000D03*
D13*
X75487000Y-96450000D03*
D14*
X75487000Y-95425000D03*
D18*
X75487000Y-94200000D03*
%TD*%
D30*
%TO.C,D2*%
X103736400Y-97281985D03*
D31*
X104672610Y-96309006D03*
D32*
X105397394Y-95584221D03*
D33*
X106263600Y-94718015D03*
%TD*%
D12*
%TO.C,D6*%
X112487000Y-124200000D03*
D13*
X112513000Y-125550000D03*
D14*
X112513000Y-126575000D03*
D15*
X112513000Y-127800000D03*
%TD*%
D26*
%TO.C,D16*%
X131263600Y-121718015D03*
D27*
X130327390Y-122690994D03*
D28*
X129602606Y-123415779D03*
D29*
X128736400Y-124281985D03*
%TD*%
D44*
%TO.C,C37*%
X92864538Y-93185716D03*
X92185716Y-93864538D03*
%TD*%
%TO.C,C13*%
X128864538Y-93185716D03*
X128185716Y-93864538D03*
%TD*%
D20*
%TO.C,C25*%
X87020000Y-109500000D03*
X87980000Y-109500000D03*
%TD*%
M02*
