%TF.GenerationSoftware,KiCad,Pcbnew,7.0.7*%
%TF.CreationDate,2023-08-27T20:39:14+02:00*%
%TF.ProjectId,geheimbadge,67656865-696d-4626-9164-67652e6b6963,0.1.0*%
%TF.SameCoordinates,Original*%
%TF.FileFunction,Legend,Bot*%
%TF.FilePolarity,Positive*%
%FSLAX46Y46*%
G04 Gerber Fmt 4.6, Leading zero omitted, Abs format (unit mm)*
G04 Created by KiCad (PCBNEW 7.0.7) date 2023-08-27 20:39:14*
%MOMM*%
%LPD*%
G01*
G04 APERTURE LIST*
G04 Aperture macros list*
%AMRoundRect*
0 Rectangle with rounded corners*
0 $1 Rounding radius*
0 $2 $3 $4 $5 $6 $7 $8 $9 X,Y pos of 4 corners*
0 Add a 4 corners polygon primitive as box body*
4,1,4,$2,$3,$4,$5,$6,$7,$8,$9,$2,$3,0*
0 Add four circle primitives for the rounded corners*
1,1,$1+$1,$2,$3*
1,1,$1+$1,$4,$5*
1,1,$1+$1,$6,$7*
1,1,$1+$1,$8,$9*
0 Add four rect primitives between the rounded corners*
20,1,$1+$1,$2,$3,$4,$5,0*
20,1,$1+$1,$4,$5,$6,$7,0*
20,1,$1+$1,$6,$7,$8,$9,0*
20,1,$1+$1,$8,$9,$2,$3,0*%
%AMRotRect*
0 Rectangle, with rotation*
0 The origin of the aperture is its center*
0 $1 length*
0 $2 width*
0 $3 Rotation angle, in degrees counterclockwise*
0 Add horizontal line*
21,1,$1,$2,0,0,$3*%
%AMFreePoly0*
4,1,27,0.535355,0.635355,0.550000,0.600000,0.550000,-0.600000,0.535355,-0.635355,0.500000,-0.650000,-0.050000,-0.650000,-0.085355,-0.635355,-0.100000,-0.600000,-0.100000,-0.486441,-0.207708,-0.454816,-0.293003,-0.400000,-0.500000,-0.400000,-0.535355,-0.385355,-0.550000,-0.350000,-0.550000,0.200000,-0.535355,0.235355,-0.500000,0.250000,-0.429907,0.250000,-0.420627,0.270320,-0.327430,0.377875,
-0.207708,0.454816,-0.100000,0.486441,-0.100000,0.600000,-0.085355,0.635355,-0.050000,0.650000,0.500000,0.650000,0.535355,0.635355,0.535355,0.635355,$1*%
%AMFreePoly1*
4,1,27,0.085355,0.635355,0.100000,0.600000,0.100000,0.486441,0.207708,0.454816,0.327430,0.377875,0.420627,0.270320,0.429907,0.250000,0.500000,0.250000,0.535355,0.235355,0.550000,0.200000,0.550000,-0.350000,0.535355,-0.385355,0.500000,-0.400000,0.293003,-0.400000,0.207708,-0.454816,0.100000,-0.486441,0.100000,-0.600000,0.085355,-0.635355,0.050000,-0.650000,-0.500000,-0.650000,
-0.535355,-0.635355,-0.550000,-0.600000,-0.550000,0.600000,-0.535355,0.635355,-0.500000,0.650000,0.050000,0.650000,0.085355,0.635355,0.085355,0.635355,$1*%
G04 Aperture macros list end*
%ADD10C,0.120000*%
%ADD11C,0.152000*%
%ADD12C,0.150000*%
%ADD13RoundRect,0.140000X0.140000X0.170000X-0.140000X0.170000X-0.140000X-0.170000X0.140000X-0.170000X0*%
%ADD14FreePoly0,90.000000*%
%ADD15R,1.200000X0.700000*%
%ADD16R,1.200000X0.450000*%
%ADD17FreePoly1,90.000000*%
%ADD18FreePoly0,315.000000*%
%ADD19RotRect,0.700000X1.200000X315.000000*%
%ADD20RotRect,0.450000X1.200000X315.000000*%
%ADD21FreePoly1,315.000000*%
%ADD22RoundRect,0.135000X0.035355X-0.226274X0.226274X-0.035355X-0.035355X0.226274X-0.226274X0.035355X0*%
%ADD23RoundRect,0.135000X-0.035355X0.226274X-0.226274X0.035355X0.035355X-0.226274X0.226274X-0.035355X0*%
%ADD24RoundRect,0.140000X0.170000X-0.140000X0.170000X0.140000X-0.170000X0.140000X-0.170000X-0.140000X0*%
%ADD25RoundRect,0.140000X-0.140000X-0.170000X0.140000X-0.170000X0.140000X0.170000X-0.140000X0.170000X0*%
%ADD26RoundRect,0.140000X0.021213X-0.219203X0.219203X-0.021213X-0.021213X0.219203X-0.219203X0.021213X0*%
%ADD27RoundRect,0.135000X-0.135000X-0.185000X0.135000X-0.185000X0.135000X0.185000X-0.135000X0.185000X0*%
%ADD28RoundRect,0.135000X0.226274X0.035355X0.035355X0.226274X-0.226274X-0.035355X-0.035355X-0.226274X0*%
%ADD29RoundRect,0.135000X0.135000X0.185000X-0.135000X0.185000X-0.135000X-0.185000X0.135000X-0.185000X0*%
%ADD30FreePoly0,225.000000*%
%ADD31RotRect,0.700000X1.200000X225.000000*%
%ADD32RotRect,0.450000X1.200000X225.000000*%
%ADD33FreePoly1,225.000000*%
%ADD34FreePoly0,180.000000*%
%ADD35R,0.700000X1.200000*%
%ADD36R,0.450000X1.200000*%
%ADD37FreePoly1,180.000000*%
%ADD38FreePoly0,0.000000*%
%ADD39FreePoly1,0.000000*%
%ADD40RoundRect,0.140000X-0.170000X0.140000X-0.170000X-0.140000X0.170000X-0.140000X0.170000X0.140000X0*%
%ADD41RoundRect,0.255000X-0.255000X2.245000X-0.255000X-2.245000X0.255000X-2.245000X0.255000X2.245000X0*%
%ADD42FreePoly0,270.000000*%
%ADD43FreePoly1,270.000000*%
%ADD44RoundRect,0.140000X-0.219203X-0.021213X-0.021213X-0.219203X0.219203X0.021213X0.021213X0.219203X0*%
%ADD45FreePoly0,135.000000*%
%ADD46RotRect,0.700000X1.200000X135.000000*%
%ADD47RotRect,0.450000X1.200000X135.000000*%
%ADD48FreePoly1,135.000000*%
%ADD49FreePoly0,45.000000*%
%ADD50RotRect,0.700000X1.200000X45.000000*%
%ADD51RotRect,0.450000X1.200000X45.000000*%
%ADD52FreePoly1,45.000000*%
%ADD53RoundRect,0.135000X-0.226274X-0.035355X-0.035355X-0.226274X0.226274X0.035355X0.035355X0.226274X0*%
%ADD54RoundRect,0.135000X0.185000X-0.135000X0.185000X0.135000X-0.185000X0.135000X-0.185000X-0.135000X0*%
%ADD55RoundRect,0.140000X-0.021213X0.219203X-0.219203X0.021213X0.021213X-0.219203X0.219203X-0.021213X0*%
%ADD56RoundRect,0.135000X-0.185000X0.135000X-0.185000X-0.135000X0.185000X-0.135000X0.185000X0.135000X0*%
%ADD57RoundRect,0.140000X0.219203X0.021213X0.021213X0.219203X-0.219203X-0.021213X-0.021213X-0.219203X0*%
G04 APERTURE END LIST*
D10*
X121195238Y-88095855D02*
X121195238Y-88667283D01*
X121195238Y-88667283D02*
X121233333Y-88781569D01*
X121233333Y-88781569D02*
X121309524Y-88857760D01*
X121309524Y-88857760D02*
X121423809Y-88895855D01*
X121423809Y-88895855D02*
X121500000Y-88895855D01*
X120433333Y-88895855D02*
X120814285Y-88895855D01*
X120814285Y-88895855D02*
X120814285Y-88095855D01*
X119709523Y-88819664D02*
X119747619Y-88857760D01*
X119747619Y-88857760D02*
X119861904Y-88895855D01*
X119861904Y-88895855D02*
X119938095Y-88895855D01*
X119938095Y-88895855D02*
X120052381Y-88857760D01*
X120052381Y-88857760D02*
X120128571Y-88781569D01*
X120128571Y-88781569D02*
X120166666Y-88705379D01*
X120166666Y-88705379D02*
X120204762Y-88552998D01*
X120204762Y-88552998D02*
X120204762Y-88438712D01*
X120204762Y-88438712D02*
X120166666Y-88286331D01*
X120166666Y-88286331D02*
X120128571Y-88210140D01*
X120128571Y-88210140D02*
X120052381Y-88133950D01*
X120052381Y-88133950D02*
X119938095Y-88095855D01*
X119938095Y-88095855D02*
X119861904Y-88095855D01*
X119861904Y-88095855D02*
X119747619Y-88133950D01*
X119747619Y-88133950D02*
X119709523Y-88172045D01*
X119138095Y-88095855D02*
X119138095Y-88667283D01*
X119138095Y-88667283D02*
X119176190Y-88781569D01*
X119176190Y-88781569D02*
X119252381Y-88857760D01*
X119252381Y-88857760D02*
X119366666Y-88895855D01*
X119366666Y-88895855D02*
X119442857Y-88895855D01*
X118376190Y-88895855D02*
X118757142Y-88895855D01*
X118757142Y-88895855D02*
X118757142Y-88095855D01*
X117652380Y-88819664D02*
X117690476Y-88857760D01*
X117690476Y-88857760D02*
X117804761Y-88895855D01*
X117804761Y-88895855D02*
X117880952Y-88895855D01*
X117880952Y-88895855D02*
X117995238Y-88857760D01*
X117995238Y-88857760D02*
X118071428Y-88781569D01*
X118071428Y-88781569D02*
X118109523Y-88705379D01*
X118109523Y-88705379D02*
X118147619Y-88552998D01*
X118147619Y-88552998D02*
X118147619Y-88438712D01*
X118147619Y-88438712D02*
X118109523Y-88286331D01*
X118109523Y-88286331D02*
X118071428Y-88210140D01*
X118071428Y-88210140D02*
X117995238Y-88133950D01*
X117995238Y-88133950D02*
X117880952Y-88095855D01*
X117880952Y-88095855D02*
X117804761Y-88095855D01*
X117804761Y-88095855D02*
X117690476Y-88133950D01*
X117690476Y-88133950D02*
X117652380Y-88172045D01*
X117080952Y-88095855D02*
X117080952Y-88667283D01*
X117080952Y-88667283D02*
X117119047Y-88781569D01*
X117119047Y-88781569D02*
X117195238Y-88857760D01*
X117195238Y-88857760D02*
X117309523Y-88895855D01*
X117309523Y-88895855D02*
X117385714Y-88895855D01*
X116319047Y-88895855D02*
X116699999Y-88895855D01*
X116699999Y-88895855D02*
X116699999Y-88095855D01*
X115595237Y-88819664D02*
X115633333Y-88857760D01*
X115633333Y-88857760D02*
X115747618Y-88895855D01*
X115747618Y-88895855D02*
X115823809Y-88895855D01*
X115823809Y-88895855D02*
X115938095Y-88857760D01*
X115938095Y-88857760D02*
X116014285Y-88781569D01*
X116014285Y-88781569D02*
X116052380Y-88705379D01*
X116052380Y-88705379D02*
X116090476Y-88552998D01*
X116090476Y-88552998D02*
X116090476Y-88438712D01*
X116090476Y-88438712D02*
X116052380Y-88286331D01*
X116052380Y-88286331D02*
X116014285Y-88210140D01*
X116014285Y-88210140D02*
X115938095Y-88133950D01*
X115938095Y-88133950D02*
X115823809Y-88095855D01*
X115823809Y-88095855D02*
X115747618Y-88095855D01*
X115747618Y-88095855D02*
X115633333Y-88133950D01*
X115633333Y-88133950D02*
X115595237Y-88172045D01*
X115023809Y-88095855D02*
X115023809Y-88667283D01*
X115023809Y-88667283D02*
X115061904Y-88781569D01*
X115061904Y-88781569D02*
X115138095Y-88857760D01*
X115138095Y-88857760D02*
X115252380Y-88895855D01*
X115252380Y-88895855D02*
X115328571Y-88895855D01*
X114261904Y-88895855D02*
X114642856Y-88895855D01*
X114642856Y-88895855D02*
X114642856Y-88095855D01*
X113538094Y-88819664D02*
X113576190Y-88857760D01*
X113576190Y-88857760D02*
X113690475Y-88895855D01*
X113690475Y-88895855D02*
X113766666Y-88895855D01*
X113766666Y-88895855D02*
X113880952Y-88857760D01*
X113880952Y-88857760D02*
X113957142Y-88781569D01*
X113957142Y-88781569D02*
X113995237Y-88705379D01*
X113995237Y-88705379D02*
X114033333Y-88552998D01*
X114033333Y-88552998D02*
X114033333Y-88438712D01*
X114033333Y-88438712D02*
X113995237Y-88286331D01*
X113995237Y-88286331D02*
X113957142Y-88210140D01*
X113957142Y-88210140D02*
X113880952Y-88133950D01*
X113880952Y-88133950D02*
X113766666Y-88095855D01*
X113766666Y-88095855D02*
X113690475Y-88095855D01*
X113690475Y-88095855D02*
X113576190Y-88133950D01*
X113576190Y-88133950D02*
X113538094Y-88172045D01*
%TO.C,C36*%
X100107836Y-112860000D02*
X99892164Y-112860000D01*
X100107836Y-112140000D02*
X99892164Y-112140000D01*
D11*
%TO.C,D14*%
X132638000Y-106000000D02*
X133290000Y-106000000D01*
X132638000Y-105172000D02*
X132638000Y-105125000D01*
X132638000Y-105125000D02*
X132888000Y-104875000D01*
X132888000Y-104875000D02*
X132888000Y-103112000D01*
X132888000Y-103112000D02*
X132638000Y-102862000D01*
X132638000Y-102000000D02*
X132638000Y-106000000D01*
X133315000Y-102000000D02*
X132638000Y-102000000D01*
D12*
X133587000Y-106125000D02*
G75*
G03*
X133587000Y-106125000I-75000J0D01*
G01*
D11*
%TO.C,D28*%
X80548866Y-131622707D02*
X80087832Y-132083741D01*
X81134350Y-132208191D02*
X81167584Y-132241425D01*
X81167584Y-132241425D02*
X81167584Y-132594979D01*
X81167584Y-132594979D02*
X82414214Y-133841608D01*
X82414214Y-133841608D02*
X82767767Y-133841608D01*
X83377293Y-134451134D02*
X80548866Y-131622707D01*
X82898582Y-134929845D02*
X83377293Y-134451134D01*
D12*
X79917466Y-132152330D02*
G75*
G03*
X79917466Y-132152330I-75000J0D01*
G01*
D10*
%TO.C,R18*%
X96097532Y-97814813D02*
X96314813Y-97597532D01*
X96634933Y-98352214D02*
X96852214Y-98134933D01*
D11*
%TO.C,D25*%
X74138000Y-98000000D02*
X74790000Y-98000000D01*
X74138000Y-97172000D02*
X74138000Y-97125000D01*
X74138000Y-97125000D02*
X74388000Y-96875000D01*
X74388000Y-96875000D02*
X74388000Y-95112000D01*
X74388000Y-95112000D02*
X74138000Y-94862000D01*
X74138000Y-94000000D02*
X74138000Y-98000000D01*
X74815000Y-94000000D02*
X74138000Y-94000000D01*
D12*
X75087000Y-98125000D02*
G75*
G03*
X75087000Y-98125000I-75000J0D01*
G01*
D10*
%TO.C,R23*%
X67902468Y-120685187D02*
X67685187Y-120902468D01*
X67365067Y-120147786D02*
X67147786Y-120365067D01*
%TO.C,R28*%
X78902468Y-131685187D02*
X78685187Y-131902468D01*
X78365067Y-131147786D02*
X78147786Y-131365067D01*
%TO.C,C3*%
X112607836Y-112860000D02*
X112392164Y-112860000D01*
X112607836Y-112140000D02*
X112392164Y-112140000D01*
%TO.C,C30*%
X87607836Y-102860000D02*
X87392164Y-102860000D01*
X87607836Y-102140000D02*
X87392164Y-102140000D01*
%TO.C,C1*%
X110640000Y-142107836D02*
X110640000Y-141892164D01*
X111360000Y-142107836D02*
X111360000Y-141892164D01*
%TO.C,C5*%
X112392164Y-109140000D02*
X112607836Y-109140000D01*
X112392164Y-109860000D02*
X112607836Y-109860000D01*
D11*
%TO.C,D9*%
X123138000Y-108000000D02*
X123790000Y-108000000D01*
X123138000Y-107172000D02*
X123138000Y-107125000D01*
X123138000Y-107125000D02*
X123388000Y-106875000D01*
X123388000Y-106875000D02*
X123388000Y-105112000D01*
X123388000Y-105112000D02*
X123138000Y-104862000D01*
X123138000Y-104000000D02*
X123138000Y-108000000D01*
X123815000Y-104000000D02*
X123138000Y-104000000D01*
D12*
X124087000Y-108125000D02*
G75*
G03*
X124087000Y-108125000I-75000J0D01*
G01*
D10*
%TO.C,C23*%
X72144063Y-125296566D02*
X72296566Y-125144063D01*
X72653180Y-125805683D02*
X72805683Y-125653180D01*
%TO.C,R30*%
X87346359Y-109120000D02*
X87653641Y-109120000D01*
X87346359Y-109880000D02*
X87653641Y-109880000D01*
%TO.C,C25*%
X75607836Y-92860000D02*
X75392164Y-92860000D01*
X75607836Y-92140000D02*
X75392164Y-92140000D01*
%TO.C,C27*%
X75392164Y-129140000D02*
X75607836Y-129140000D01*
X75392164Y-129860000D02*
X75607836Y-129860000D01*
%TO.C,C35*%
X100107836Y-132860000D02*
X99892164Y-132860000D01*
X100107836Y-132140000D02*
X99892164Y-132140000D01*
%TO.C,R36*%
X99846359Y-119120000D02*
X100153641Y-119120000D01*
X99846359Y-119880000D02*
X100153641Y-119880000D01*
%TO.C,C8*%
X124594836Y-122860000D02*
X124379164Y-122860000D01*
X124594836Y-122140000D02*
X124379164Y-122140000D01*
%TO.C,R20*%
X72314813Y-92902468D02*
X72097532Y-92685187D01*
X72852214Y-92365067D02*
X72634933Y-92147786D01*
%TO.C,C29*%
X87607836Y-122860000D02*
X87392164Y-122860000D01*
X87607836Y-122140000D02*
X87392164Y-122140000D01*
D11*
%TO.C,D3*%
X111138000Y-118000000D02*
X111790000Y-118000000D01*
X111138000Y-117172000D02*
X111138000Y-117125000D01*
X111138000Y-117125000D02*
X111388000Y-116875000D01*
X111388000Y-116875000D02*
X111388000Y-115112000D01*
X111388000Y-115112000D02*
X111138000Y-114862000D01*
X111138000Y-114000000D02*
X111138000Y-118000000D01*
X111815000Y-114000000D02*
X111138000Y-114000000D01*
D12*
X112087000Y-118125000D02*
G75*
G03*
X112087000Y-118125000I-75000J0D01*
G01*
D10*
%TO.C,C24*%
X75607836Y-112860000D02*
X75392164Y-112860000D01*
X75607836Y-112140000D02*
X75392164Y-112140000D01*
%TO.C,R32*%
X87653641Y-112880000D02*
X87346359Y-112880000D01*
X87653641Y-112120000D02*
X87346359Y-112120000D01*
%TO.C,R33*%
X87653641Y-132880000D02*
X87346359Y-132880000D01*
X87653641Y-132120000D02*
X87346359Y-132120000D01*
D11*
%TO.C,D17*%
X108377293Y-95048866D02*
X107916259Y-94587832D01*
X107791809Y-95634350D02*
X107758575Y-95667584D01*
X107758575Y-95667584D02*
X107405021Y-95667584D01*
X107405021Y-95667584D02*
X106158392Y-96914214D01*
X106158392Y-96914214D02*
X106158392Y-97267767D01*
X105548866Y-97877293D02*
X108377293Y-95048866D01*
X105070155Y-97398582D02*
X105548866Y-97877293D01*
D12*
X107922670Y-94342466D02*
G75*
G03*
X107922670Y-94342466I-75000J0D01*
G01*
D11*
%TO.C,D16*%
X121000000Y-92362000D02*
X121000000Y-91710000D01*
X120172000Y-92362000D02*
X120125000Y-92362000D01*
X120125000Y-92362000D02*
X119875000Y-92112000D01*
X119875000Y-92112000D02*
X118112000Y-92112000D01*
X118112000Y-92112000D02*
X117862000Y-92362000D01*
X117000000Y-92362000D02*
X121000000Y-92362000D01*
X117000000Y-91685000D02*
X117000000Y-92362000D01*
D12*
X121200000Y-91488000D02*
G75*
G03*
X121200000Y-91488000I-75000J0D01*
G01*
D10*
%TO.C,R22*%
X66153641Y-110880000D02*
X65846359Y-110880000D01*
X66153641Y-110120000D02*
X65846359Y-110120000D01*
%TO.C,R25*%
X75346359Y-99120000D02*
X75653641Y-99120000D01*
X75346359Y-99880000D02*
X75653641Y-99880000D01*
%TO.C,R11*%
X124653641Y-112880000D02*
X124346359Y-112880000D01*
X124653641Y-112120000D02*
X124346359Y-112120000D01*
%TO.C,C28*%
X83144063Y-136296566D02*
X83296566Y-136144063D01*
X83653180Y-136805683D02*
X83805683Y-136653180D01*
D11*
%TO.C,D34*%
X90500000Y-140638000D02*
X90500000Y-141290000D01*
X91328000Y-140638000D02*
X91375000Y-140638000D01*
X91375000Y-140638000D02*
X91625000Y-140888000D01*
X91625000Y-140888000D02*
X93388000Y-140888000D01*
X93388000Y-140888000D02*
X93638000Y-140638000D01*
X94500000Y-140638000D02*
X90500000Y-140638000D01*
X94500000Y-141315000D02*
X94500000Y-140638000D01*
D12*
X90450000Y-141512000D02*
G75*
G03*
X90450000Y-141512000I-75000J0D01*
G01*
D10*
%TO.C,C16*%
X115860000Y-90892164D02*
X115860000Y-91107836D01*
X115140000Y-90892164D02*
X115140000Y-91107836D01*
%TO.C,R24*%
X75346359Y-119120000D02*
X75653641Y-119120000D01*
X75346359Y-119880000D02*
X75653641Y-119880000D01*
%TO.C,C11*%
X124392164Y-119140000D02*
X124607836Y-119140000D01*
X124392164Y-119860000D02*
X124607836Y-119860000D01*
%TO.C,R6*%
X112653641Y-122880000D02*
X112346359Y-122880000D01*
X112653641Y-122120000D02*
X112346359Y-122120000D01*
D11*
%TO.C,D13*%
X132638000Y-116000000D02*
X133290000Y-116000000D01*
X132638000Y-115172000D02*
X132638000Y-115125000D01*
X132638000Y-115125000D02*
X132888000Y-114875000D01*
X132888000Y-114875000D02*
X132888000Y-113112000D01*
X132888000Y-113112000D02*
X132638000Y-112862000D01*
X132638000Y-112000000D02*
X132638000Y-116000000D01*
X133315000Y-112000000D02*
X132638000Y-112000000D01*
D12*
X133587000Y-116125000D02*
G75*
G03*
X133587000Y-116125000I-75000J0D01*
G01*
D10*
%TO.C,J1*%
X107730000Y-143415000D02*
X107730000Y-152585000D01*
X103550000Y-143415000D02*
X107730000Y-143415000D01*
X96450000Y-143415000D02*
X96450000Y-141915000D01*
X96450000Y-143415000D02*
X92270000Y-143415000D01*
X92270000Y-143415000D02*
X92270000Y-152585000D01*
X107730000Y-152585000D02*
X103550000Y-152585000D01*
X92270000Y-152585000D02*
X96450000Y-152585000D01*
%TO.C,C33*%
X87392164Y-139140000D02*
X87607836Y-139140000D01*
X87392164Y-139860000D02*
X87607836Y-139860000D01*
D11*
%TO.C,D35*%
X98638000Y-138000000D02*
X99290000Y-138000000D01*
X98638000Y-137172000D02*
X98638000Y-137125000D01*
X98638000Y-137125000D02*
X98888000Y-136875000D01*
X98888000Y-136875000D02*
X98888000Y-135112000D01*
X98888000Y-135112000D02*
X98638000Y-134862000D01*
X98638000Y-134000000D02*
X98638000Y-138000000D01*
X99315000Y-134000000D02*
X98638000Y-134000000D01*
D12*
X99587000Y-138125000D02*
G75*
G03*
X99587000Y-138125000I-75000J0D01*
G01*
D11*
%TO.C,D31*%
X88862000Y-94000000D02*
X88210000Y-94000000D01*
X88862000Y-94828000D02*
X88862000Y-94875000D01*
X88862000Y-94875000D02*
X88612000Y-95125000D01*
X88612000Y-95125000D02*
X88612000Y-96888000D01*
X88612000Y-96888000D02*
X88862000Y-97138000D01*
X88862000Y-98000000D02*
X88862000Y-94000000D01*
X88185000Y-98000000D02*
X88862000Y-98000000D01*
D12*
X88063000Y-93875000D02*
G75*
G03*
X88063000Y-93875000I-75000J0D01*
G01*
D11*
%TO.C,D11*%
X125862000Y-114000000D02*
X125210000Y-114000000D01*
X125862000Y-114828000D02*
X125862000Y-114875000D01*
X125862000Y-114875000D02*
X125612000Y-115125000D01*
X125612000Y-115125000D02*
X125612000Y-116888000D01*
X125612000Y-116888000D02*
X125862000Y-117138000D01*
X125862000Y-118000000D02*
X125862000Y-114000000D01*
X125185000Y-118000000D02*
X125862000Y-118000000D01*
D12*
X125063000Y-113875000D02*
G75*
G03*
X125063000Y-113875000I-75000J0D01*
G01*
D10*
%TO.C,C17*%
X103703434Y-97644063D02*
X103855937Y-97796566D01*
X103194317Y-98153180D02*
X103346820Y-98305683D01*
D11*
%TO.C,D24*%
X74138000Y-118000000D02*
X74790000Y-118000000D01*
X74138000Y-117172000D02*
X74138000Y-117125000D01*
X74138000Y-117125000D02*
X74388000Y-116875000D01*
X74388000Y-116875000D02*
X74388000Y-115112000D01*
X74388000Y-115112000D02*
X74138000Y-114862000D01*
X74138000Y-114000000D02*
X74138000Y-118000000D01*
X74815000Y-114000000D02*
X74138000Y-114000000D01*
D12*
X75087000Y-118125000D02*
G75*
G03*
X75087000Y-118125000I-75000J0D01*
G01*
D10*
%TO.C,C13*%
X134107836Y-110860000D02*
X133892164Y-110860000D01*
X134107836Y-110140000D02*
X133892164Y-110140000D01*
D11*
%TO.C,D18*%
X94451134Y-97877293D02*
X94912168Y-97416259D01*
X93865650Y-97291809D02*
X93832416Y-97258575D01*
X93832416Y-97258575D02*
X93832416Y-96905021D01*
X93832416Y-96905021D02*
X92585786Y-95658392D01*
X92585786Y-95658392D02*
X92232233Y-95658392D01*
X91622707Y-95048866D02*
X94451134Y-97877293D01*
X92101418Y-94570155D02*
X91622707Y-95048866D01*
D12*
X95232534Y-97347670D02*
G75*
G03*
X95232534Y-97347670I-75000J0D01*
G01*
D11*
%TO.C,D12*%
X127622707Y-123451134D02*
X128083741Y-123912168D01*
X128208191Y-122865650D02*
X128241425Y-122832416D01*
X128241425Y-122832416D02*
X128594979Y-122832416D01*
X128594979Y-122832416D02*
X129841608Y-121585786D01*
X129841608Y-121585786D02*
X129841608Y-121232233D01*
X130451134Y-120622707D02*
X127622707Y-123451134D01*
X130929845Y-121101418D02*
X130451134Y-120622707D01*
D12*
X128227330Y-124157534D02*
G75*
G03*
X128227330Y-124157534I-75000J0D01*
G01*
D10*
%TO.C,C32*%
X87392164Y-119140000D02*
X87607836Y-119140000D01*
X87392164Y-119860000D02*
X87607836Y-119860000D01*
%TO.C,C22*%
X65892164Y-117140000D02*
X66107836Y-117140000D01*
X65892164Y-117860000D02*
X66107836Y-117860000D01*
D11*
%TO.C,D21*%
X67362000Y-102000000D02*
X66710000Y-102000000D01*
X67362000Y-102828000D02*
X67362000Y-102875000D01*
X67362000Y-102875000D02*
X67112000Y-103125000D01*
X67112000Y-103125000D02*
X67112000Y-104888000D01*
X67112000Y-104888000D02*
X67362000Y-105138000D01*
X67362000Y-106000000D02*
X67362000Y-102000000D01*
X66685000Y-106000000D02*
X67362000Y-106000000D01*
D12*
X66563000Y-101875000D02*
G75*
G03*
X66563000Y-101875000I-75000J0D01*
G01*
D10*
%TO.C,C19*%
X77860000Y-90892164D02*
X77860000Y-91107836D01*
X77140000Y-90892164D02*
X77140000Y-91107836D01*
%TO.C,R3*%
X112346359Y-119120000D02*
X112653641Y-119120000D01*
X112346359Y-119880000D02*
X112653641Y-119880000D01*
%TO.C,C6*%
X112392164Y-129140000D02*
X112607836Y-129140000D01*
X112392164Y-129860000D02*
X112607836Y-129860000D01*
%TO.C,R9*%
X124346359Y-109120000D02*
X124653641Y-109120000D01*
X124346359Y-109880000D02*
X124653641Y-109880000D01*
D11*
%TO.C,D15*%
X130451134Y-97377293D02*
X130912168Y-96916259D01*
X129865650Y-96791809D02*
X129832416Y-96758575D01*
X129832416Y-96758575D02*
X129832416Y-96405021D01*
X129832416Y-96405021D02*
X128585786Y-95158392D01*
X128585786Y-95158392D02*
X128232233Y-95158392D01*
X127622707Y-94548866D02*
X130451134Y-97377293D01*
X128101418Y-94070155D02*
X127622707Y-94548866D01*
D12*
X131232534Y-96847670D02*
G75*
G03*
X131232534Y-96847670I-75000J0D01*
G01*
D11*
%TO.C,D8*%
X123125000Y-128000000D02*
X123777000Y-128000000D01*
X123125000Y-127172000D02*
X123125000Y-127125000D01*
X123125000Y-127125000D02*
X123375000Y-126875000D01*
X123375000Y-126875000D02*
X123375000Y-125112000D01*
X123375000Y-125112000D02*
X123125000Y-124862000D01*
X123125000Y-124000000D02*
X123125000Y-128000000D01*
X123802000Y-124000000D02*
X123125000Y-124000000D01*
D12*
X124074000Y-128125000D02*
G75*
G03*
X124074000Y-128125000I-75000J0D01*
G01*
D11*
%TO.C,D38*%
X101362000Y-124000000D02*
X100710000Y-124000000D01*
X101362000Y-124828000D02*
X101362000Y-124875000D01*
X101362000Y-124875000D02*
X101112000Y-125125000D01*
X101112000Y-125125000D02*
X101112000Y-126888000D01*
X101112000Y-126888000D02*
X101362000Y-127138000D01*
X101362000Y-128000000D02*
X101362000Y-124000000D01*
X100685000Y-128000000D02*
X101362000Y-128000000D01*
D12*
X100563000Y-123875000D02*
G75*
G03*
X100563000Y-123875000I-75000J0D01*
G01*
D11*
%TO.C,D20*%
X72377293Y-94548866D02*
X71916259Y-94087832D01*
X71791809Y-95134350D02*
X71758575Y-95167584D01*
X71758575Y-95167584D02*
X71405021Y-95167584D01*
X71405021Y-95167584D02*
X70158392Y-96414214D01*
X70158392Y-96414214D02*
X70158392Y-96767767D01*
X69548866Y-97377293D02*
X72377293Y-94548866D01*
X69070155Y-96898582D02*
X69548866Y-97377293D01*
D12*
X71922670Y-93842466D02*
G75*
G03*
X71922670Y-93842466I-75000J0D01*
G01*
D11*
%TO.C,D23*%
X69548866Y-120622707D02*
X69087832Y-121083741D01*
X70134350Y-121208191D02*
X70167584Y-121241425D01*
X70167584Y-121241425D02*
X70167584Y-121594979D01*
X70167584Y-121594979D02*
X71414214Y-122841608D01*
X71414214Y-122841608D02*
X71767767Y-122841608D01*
X72377293Y-123451134D02*
X69548866Y-120622707D01*
X71898582Y-123929845D02*
X72377293Y-123451134D01*
D12*
X68917466Y-121152330D02*
G75*
G03*
X68917466Y-121152330I-75000J0D01*
G01*
D10*
%TO.C,C37*%
X99892164Y-109140000D02*
X100107836Y-109140000D01*
X99892164Y-109860000D02*
X100107836Y-109860000D01*
D11*
%TO.C,D2*%
X111138000Y-138000000D02*
X111790000Y-138000000D01*
X111138000Y-137172000D02*
X111138000Y-137125000D01*
X111138000Y-137125000D02*
X111388000Y-136875000D01*
X111388000Y-136875000D02*
X111388000Y-135112000D01*
X111388000Y-135112000D02*
X111138000Y-134862000D01*
X111138000Y-134000000D02*
X111138000Y-138000000D01*
X111815000Y-134000000D02*
X111138000Y-134000000D01*
D12*
X112087000Y-138125000D02*
G75*
G03*
X112087000Y-138125000I-75000J0D01*
G01*
D10*
%TO.C,R37*%
X99846359Y-102120000D02*
X100153641Y-102120000D01*
X99846359Y-102880000D02*
X100153641Y-102880000D01*
%TO.C,C20*%
X67703434Y-97144063D02*
X67855937Y-97296566D01*
X67194317Y-97653180D02*
X67346820Y-97805683D01*
D11*
%TO.C,D37*%
X101362000Y-104000000D02*
X100710000Y-104000000D01*
X101362000Y-104828000D02*
X101362000Y-104875000D01*
X101362000Y-104875000D02*
X101112000Y-105125000D01*
X101112000Y-105125000D02*
X101112000Y-106888000D01*
X101112000Y-106888000D02*
X101362000Y-107138000D01*
X101362000Y-108000000D02*
X101362000Y-104000000D01*
X100685000Y-108000000D02*
X101362000Y-108000000D01*
D12*
X100563000Y-103875000D02*
G75*
G03*
X100563000Y-103875000I-75000J0D01*
G01*
D11*
%TO.C,D32*%
X88862000Y-114000000D02*
X88210000Y-114000000D01*
X88862000Y-114828000D02*
X88862000Y-114875000D01*
X88862000Y-114875000D02*
X88612000Y-115125000D01*
X88612000Y-115125000D02*
X88612000Y-116888000D01*
X88612000Y-116888000D02*
X88862000Y-117138000D01*
X88862000Y-118000000D02*
X88862000Y-114000000D01*
X88185000Y-118000000D02*
X88862000Y-118000000D01*
D12*
X88063000Y-113875000D02*
G75*
G03*
X88063000Y-113875000I-75000J0D01*
G01*
D10*
%TO.C,R7*%
X116685187Y-136097532D02*
X116902468Y-136314813D01*
X116147786Y-136634933D02*
X116365067Y-136852214D01*
D11*
%TO.C,D5*%
X113862000Y-104000000D02*
X113210000Y-104000000D01*
X113862000Y-104828000D02*
X113862000Y-104875000D01*
X113862000Y-104875000D02*
X113612000Y-105125000D01*
X113612000Y-105125000D02*
X113612000Y-106888000D01*
X113612000Y-106888000D02*
X113862000Y-107138000D01*
X113862000Y-108000000D02*
X113862000Y-104000000D01*
X113185000Y-108000000D02*
X113862000Y-108000000D01*
D12*
X113063000Y-103875000D02*
G75*
G03*
X113063000Y-103875000I-75000J0D01*
G01*
D10*
%TO.C,R29*%
X87346359Y-129120000D02*
X87653641Y-129120000D01*
X87346359Y-129880000D02*
X87653641Y-129880000D01*
D11*
%TO.C,D10*%
X125862000Y-94000000D02*
X125210000Y-94000000D01*
X125862000Y-94828000D02*
X125862000Y-94875000D01*
X125862000Y-94875000D02*
X125612000Y-95125000D01*
X125612000Y-95125000D02*
X125612000Y-96888000D01*
X125612000Y-96888000D02*
X125862000Y-97138000D01*
X125862000Y-98000000D02*
X125862000Y-94000000D01*
X125185000Y-98000000D02*
X125862000Y-98000000D01*
D12*
X125063000Y-93875000D02*
G75*
G03*
X125063000Y-93875000I-75000J0D01*
G01*
D10*
%TO.C,R17*%
X108314813Y-93402468D02*
X108097532Y-93185187D01*
X108852214Y-92865067D02*
X108634933Y-92647786D01*
%TO.C,R19*%
X84120000Y-91153641D02*
X84120000Y-90846359D01*
X84880000Y-91153641D02*
X84880000Y-90846359D01*
%TO.C,C15*%
X127855937Y-92703434D02*
X127703434Y-92855937D01*
X127346820Y-92194317D02*
X127194317Y-92346820D01*
%TO.C,C18*%
X91855937Y-93203434D02*
X91703434Y-93355937D01*
X91346820Y-92694317D02*
X91194317Y-92846820D01*
%TO.C,C14*%
X134107836Y-100860000D02*
X133892164Y-100860000D01*
X134107836Y-100140000D02*
X133892164Y-100140000D01*
D11*
%TO.C,D4*%
X111138000Y-98000000D02*
X111790000Y-98000000D01*
X111138000Y-97172000D02*
X111138000Y-97125000D01*
X111138000Y-97125000D02*
X111388000Y-96875000D01*
X111388000Y-96875000D02*
X111388000Y-95112000D01*
X111388000Y-95112000D02*
X111138000Y-94862000D01*
X111138000Y-94000000D02*
X111138000Y-98000000D01*
X111815000Y-94000000D02*
X111138000Y-94000000D01*
D12*
X112087000Y-98125000D02*
G75*
G03*
X112087000Y-98125000I-75000J0D01*
G01*
D10*
%TO.C,R27*%
X75653641Y-122880000D02*
X75346359Y-122880000D01*
X75653641Y-122120000D02*
X75346359Y-122120000D01*
%TO.C,R15*%
X132097532Y-97314813D02*
X132314813Y-97097532D01*
X132634933Y-97852214D02*
X132852214Y-97634933D01*
%TO.C,R2*%
X112346359Y-139120000D02*
X112653641Y-139120000D01*
X112346359Y-139880000D02*
X112653641Y-139880000D01*
%TO.C,R8*%
X124333359Y-129120000D02*
X124640641Y-129120000D01*
X124333359Y-129880000D02*
X124640641Y-129880000D01*
%TO.C,R12*%
X127685187Y-125097532D02*
X127902468Y-125314813D01*
X127147786Y-125634933D02*
X127365067Y-125852214D01*
%TO.C,R31*%
X87346359Y-92120000D02*
X87653641Y-92120000D01*
X87346359Y-92880000D02*
X87653641Y-92880000D01*
%TO.C,R34*%
X89380000Y-141846359D02*
X89380000Y-142153641D01*
X88620000Y-141846359D02*
X88620000Y-142153641D01*
%TO.C,R35*%
X99846359Y-139120000D02*
X100153641Y-139120000D01*
X99846359Y-139880000D02*
X100153641Y-139880000D01*
%TO.C,R10*%
X124346359Y-92120000D02*
X124653641Y-92120000D01*
X124346359Y-92880000D02*
X124653641Y-92880000D01*
%TO.C,R5*%
X112653641Y-102880000D02*
X112346359Y-102880000D01*
X112653641Y-102120000D02*
X112346359Y-102120000D01*
%TO.C,R38*%
X100153641Y-122880000D02*
X99846359Y-122880000D01*
X100153641Y-122120000D02*
X99846359Y-122120000D01*
D11*
%TO.C,D26*%
X76862000Y-104000000D02*
X76210000Y-104000000D01*
X76862000Y-104828000D02*
X76862000Y-104875000D01*
X76862000Y-104875000D02*
X76612000Y-105125000D01*
X76612000Y-105125000D02*
X76612000Y-106888000D01*
X76612000Y-106888000D02*
X76862000Y-107138000D01*
X76862000Y-108000000D02*
X76862000Y-104000000D01*
X76185000Y-108000000D02*
X76862000Y-108000000D01*
D12*
X76063000Y-103875000D02*
G75*
G03*
X76063000Y-103875000I-75000J0D01*
G01*
D10*
%TO.C,C26*%
X75392164Y-109140000D02*
X75607836Y-109140000D01*
X75392164Y-109860000D02*
X75607836Y-109860000D01*
D11*
%TO.C,D29*%
X86138000Y-128000000D02*
X86790000Y-128000000D01*
X86138000Y-127172000D02*
X86138000Y-127125000D01*
X86138000Y-127125000D02*
X86388000Y-126875000D01*
X86388000Y-126875000D02*
X86388000Y-125112000D01*
X86388000Y-125112000D02*
X86138000Y-124862000D01*
X86138000Y-124000000D02*
X86138000Y-128000000D01*
X86815000Y-124000000D02*
X86138000Y-124000000D01*
D12*
X87087000Y-128125000D02*
G75*
G03*
X87087000Y-128125000I-75000J0D01*
G01*
D11*
%TO.C,D27*%
X76862000Y-124000000D02*
X76210000Y-124000000D01*
X76862000Y-124828000D02*
X76862000Y-124875000D01*
X76862000Y-124875000D02*
X76612000Y-125125000D01*
X76612000Y-125125000D02*
X76612000Y-126888000D01*
X76612000Y-126888000D02*
X76862000Y-127138000D01*
X76862000Y-128000000D02*
X76862000Y-124000000D01*
X76185000Y-128000000D02*
X76862000Y-128000000D01*
D12*
X76063000Y-123875000D02*
G75*
G03*
X76063000Y-123875000I-75000J0D01*
G01*
D10*
%TO.C,C38*%
X99892164Y-129140000D02*
X100107836Y-129140000D01*
X99892164Y-129860000D02*
X100107836Y-129860000D01*
D11*
%TO.C,D1*%
X105500000Y-140638000D02*
X105500000Y-141290000D01*
X106328000Y-140638000D02*
X106375000Y-140638000D01*
X106375000Y-140638000D02*
X106625000Y-140888000D01*
X106625000Y-140888000D02*
X108388000Y-140888000D01*
X108388000Y-140888000D02*
X108638000Y-140638000D01*
X109500000Y-140638000D02*
X105500000Y-140638000D01*
X109500000Y-141315000D02*
X109500000Y-140638000D01*
D12*
X105450000Y-141512000D02*
G75*
G03*
X105450000Y-141512000I-75000J0D01*
G01*
D10*
%TO.C,R1*%
X108620000Y-145153641D02*
X108620000Y-144846359D01*
X109380000Y-145153641D02*
X109380000Y-144846359D01*
D11*
%TO.C,D6*%
X113862000Y-124000000D02*
X113210000Y-124000000D01*
X113862000Y-124828000D02*
X113862000Y-124875000D01*
X113862000Y-124875000D02*
X113612000Y-125125000D01*
X113612000Y-125125000D02*
X113612000Y-126888000D01*
X113612000Y-126888000D02*
X113862000Y-127138000D01*
X113862000Y-128000000D02*
X113862000Y-124000000D01*
X113185000Y-128000000D02*
X113862000Y-128000000D01*
D12*
X113063000Y-123875000D02*
G75*
G03*
X113063000Y-123875000I-75000J0D01*
G01*
D10*
%TO.C,C31*%
X87392164Y-99140000D02*
X87607836Y-99140000D01*
X87392164Y-99860000D02*
X87607836Y-99860000D01*
%TO.C,C9*%
X124607836Y-102860000D02*
X124392164Y-102860000D01*
X124607836Y-102140000D02*
X124392164Y-102140000D01*
%TO.C,C12*%
X132296566Y-120855937D02*
X132144063Y-120703434D01*
X132805683Y-120346820D02*
X132653180Y-120194317D01*
D11*
%TO.C,D19*%
X83000000Y-92362000D02*
X83000000Y-91710000D01*
X82172000Y-92362000D02*
X82125000Y-92362000D01*
X82125000Y-92362000D02*
X81875000Y-92112000D01*
X81875000Y-92112000D02*
X80112000Y-92112000D01*
X80112000Y-92112000D02*
X79862000Y-92362000D01*
X79000000Y-92362000D02*
X83000000Y-92362000D01*
X79000000Y-91685000D02*
X79000000Y-92362000D01*
D12*
X83200000Y-91488000D02*
G75*
G03*
X83200000Y-91488000I-75000J0D01*
G01*
D10*
%TO.C,C7*%
X121296566Y-131855937D02*
X121144063Y-131703434D01*
X121805683Y-131346820D02*
X121653180Y-131194317D01*
D11*
%TO.C,D33*%
X88862000Y-134000000D02*
X88210000Y-134000000D01*
X88862000Y-134828000D02*
X88862000Y-134875000D01*
X88862000Y-134875000D02*
X88612000Y-135125000D01*
X88612000Y-135125000D02*
X88612000Y-136888000D01*
X88612000Y-136888000D02*
X88862000Y-137138000D01*
X88862000Y-138000000D02*
X88862000Y-134000000D01*
X88185000Y-138000000D02*
X88862000Y-138000000D01*
D12*
X88063000Y-133875000D02*
G75*
G03*
X88063000Y-133875000I-75000J0D01*
G01*
D10*
%TO.C,R4*%
X112346359Y-99120000D02*
X112653641Y-99120000D01*
X112346359Y-99880000D02*
X112653641Y-99880000D01*
%TO.C,C2*%
X112607836Y-132860000D02*
X112392164Y-132860000D01*
X112607836Y-132140000D02*
X112392164Y-132140000D01*
%TO.C,R13*%
X133846359Y-117120000D02*
X134153641Y-117120000D01*
X133846359Y-117880000D02*
X134153641Y-117880000D01*
D11*
%TO.C,D36*%
X98638000Y-118000000D02*
X99290000Y-118000000D01*
X98638000Y-117172000D02*
X98638000Y-117125000D01*
X98638000Y-117125000D02*
X98888000Y-116875000D01*
X98888000Y-116875000D02*
X98888000Y-115112000D01*
X98888000Y-115112000D02*
X98638000Y-114862000D01*
X98638000Y-114000000D02*
X98638000Y-118000000D01*
X99315000Y-114000000D02*
X98638000Y-114000000D01*
D12*
X99587000Y-118125000D02*
G75*
G03*
X99587000Y-118125000I-75000J0D01*
G01*
D10*
%TO.C,R16*%
X122120000Y-91153641D02*
X122120000Y-90846359D01*
X122880000Y-91153641D02*
X122880000Y-90846359D01*
%TO.C,C21*%
X65892164Y-107140000D02*
X66107836Y-107140000D01*
X65892164Y-107860000D02*
X66107836Y-107860000D01*
%TO.C,C4*%
X112607836Y-92860000D02*
X112392164Y-92860000D01*
X112607836Y-92140000D02*
X112392164Y-92140000D01*
%TO.C,R21*%
X66153641Y-100880000D02*
X65846359Y-100880000D01*
X66153641Y-100120000D02*
X65846359Y-100120000D01*
%TO.C,R14*%
X133846359Y-107120000D02*
X134153641Y-107120000D01*
X133846359Y-107880000D02*
X134153641Y-107880000D01*
D11*
%TO.C,D22*%
X67362000Y-112000000D02*
X66710000Y-112000000D01*
X67362000Y-112828000D02*
X67362000Y-112875000D01*
X67362000Y-112875000D02*
X67112000Y-113125000D01*
X67112000Y-113125000D02*
X67112000Y-114888000D01*
X67112000Y-114888000D02*
X67362000Y-115138000D01*
X67362000Y-116000000D02*
X67362000Y-112000000D01*
X66685000Y-116000000D02*
X67362000Y-116000000D01*
D12*
X66563000Y-111875000D02*
G75*
G03*
X66563000Y-111875000I-75000J0D01*
G01*
D11*
%TO.C,D7*%
X116622707Y-134451134D02*
X117083741Y-134912168D01*
X117208191Y-133865650D02*
X117241425Y-133832416D01*
X117241425Y-133832416D02*
X117594979Y-133832416D01*
X117594979Y-133832416D02*
X118841608Y-132585786D01*
X118841608Y-132585786D02*
X118841608Y-132232233D01*
X119451134Y-131622707D02*
X116622707Y-134451134D01*
X119929845Y-132101418D02*
X119451134Y-131622707D01*
D12*
X117227330Y-135157534D02*
G75*
G03*
X117227330Y-135157534I-75000J0D01*
G01*
D10*
%TO.C,R26*%
X75653641Y-102880000D02*
X75346359Y-102880000D01*
X75653641Y-102120000D02*
X75346359Y-102120000D01*
D11*
%TO.C,D30*%
X86138000Y-108000000D02*
X86790000Y-108000000D01*
X86138000Y-107172000D02*
X86138000Y-107125000D01*
X86138000Y-107125000D02*
X86388000Y-106875000D01*
X86388000Y-106875000D02*
X86388000Y-105112000D01*
X86388000Y-105112000D02*
X86138000Y-104862000D01*
X86138000Y-104000000D02*
X86138000Y-108000000D01*
X86815000Y-104000000D02*
X86138000Y-104000000D01*
D12*
X87087000Y-108125000D02*
G75*
G03*
X87087000Y-108125000I-75000J0D01*
G01*
D10*
%TO.C,C34*%
X91360000Y-143892164D02*
X91360000Y-144107836D01*
X90640000Y-143892164D02*
X90640000Y-144107836D01*
%TO.C,C10*%
X124392164Y-99140000D02*
X124607836Y-99140000D01*
X124392164Y-99860000D02*
X124607836Y-99860000D01*
%TD*%
%LPC*%
D12*
X111000000Y-141000000D02*
X101500000Y-141000000D01*
X101500000Y-101500000D01*
X111000000Y-92000000D01*
X111000000Y-141000000D01*
G36*
X111000000Y-141000000D02*
G01*
X101500000Y-141000000D01*
X101500000Y-101500000D01*
X111000000Y-92000000D01*
X111000000Y-141000000D01*
G37*
X132500000Y-99500000D02*
X132500000Y-118500000D01*
X126000000Y-125000000D01*
X126000000Y-93000000D01*
X132500000Y-99500000D01*
G36*
X132500000Y-99500000D02*
G01*
X132500000Y-118500000D01*
X126000000Y-125000000D01*
X126000000Y-93000000D01*
X132500000Y-99500000D01*
G37*
X74000000Y-125000000D02*
X67500000Y-118500000D01*
X67500000Y-99500000D01*
X74000000Y-93000000D01*
X74000000Y-125000000D01*
G36*
X74000000Y-125000000D02*
G01*
X67500000Y-118500000D01*
X67500000Y-99500000D01*
X74000000Y-93000000D01*
X74000000Y-125000000D01*
G37*
X86000000Y-137000000D02*
X77000000Y-128000000D01*
X77000000Y-92000000D01*
X86000000Y-92000000D01*
X86000000Y-137000000D01*
G36*
X86000000Y-137000000D02*
G01*
X77000000Y-128000000D01*
X77000000Y-92000000D01*
X86000000Y-92000000D01*
X86000000Y-137000000D01*
G37*
X98500000Y-101500000D02*
X98500000Y-141000000D01*
X89000000Y-141000000D01*
X89000000Y-92000000D01*
X98500000Y-101500000D01*
G36*
X98500000Y-101500000D02*
G01*
X98500000Y-141000000D01*
X89000000Y-141000000D01*
X89000000Y-92000000D01*
X98500000Y-101500000D01*
G37*
X123000000Y-128000000D02*
X114000000Y-137000000D01*
X114000000Y-92000000D01*
X123000000Y-92000000D01*
X123000000Y-128000000D01*
G36*
X123000000Y-128000000D02*
G01*
X114000000Y-137000000D01*
X114000000Y-92000000D01*
X123000000Y-92000000D01*
X123000000Y-128000000D01*
G37*
D13*
%TO.C,C36*%
X100480000Y-112500000D03*
X99520000Y-112500000D03*
%TD*%
D14*
%TO.C,D14*%
X133987000Y-105800000D03*
D15*
X134013000Y-104450000D03*
D16*
X134013000Y-103425000D03*
D17*
X134013000Y-102200000D03*
%TD*%
D18*
%TO.C,D28*%
X79736400Y-132718015D03*
D19*
X80672610Y-133690994D03*
D20*
X81397394Y-134415779D03*
D21*
X82263600Y-135281985D03*
%TD*%
D22*
%TO.C,R18*%
X96114249Y-98335497D03*
X96835497Y-97614249D03*
%TD*%
D14*
%TO.C,D25*%
X75487000Y-97800000D03*
D15*
X75513000Y-96450000D03*
D16*
X75513000Y-95425000D03*
D17*
X75513000Y-94200000D03*
%TD*%
D23*
%TO.C,R23*%
X67885751Y-120164503D03*
X67164503Y-120885751D03*
%TD*%
%TO.C,R28*%
X78885751Y-131164503D03*
X78164503Y-131885751D03*
%TD*%
D13*
%TO.C,C3*%
X112980000Y-112500000D03*
X112020000Y-112500000D03*
%TD*%
%TO.C,C30*%
X87980000Y-102500000D03*
X87020000Y-102500000D03*
%TD*%
D24*
%TO.C,C1*%
X111000000Y-142480000D03*
X111000000Y-141520000D03*
%TD*%
D25*
%TO.C,C5*%
X112020000Y-109500000D03*
X112980000Y-109500000D03*
%TD*%
D14*
%TO.C,D9*%
X124487000Y-107800000D03*
D15*
X124513000Y-106450000D03*
D16*
X124513000Y-105425000D03*
D17*
X124513000Y-104200000D03*
%TD*%
D26*
%TO.C,C23*%
X72135462Y-125814284D03*
X72814284Y-125135462D03*
%TD*%
D27*
%TO.C,R30*%
X86990000Y-109500000D03*
X88010000Y-109500000D03*
%TD*%
D13*
%TO.C,C25*%
X75980000Y-92500000D03*
X75020000Y-92500000D03*
%TD*%
D25*
%TO.C,C27*%
X75020000Y-129500000D03*
X75980000Y-129500000D03*
%TD*%
D13*
%TO.C,C35*%
X100480000Y-132500000D03*
X99520000Y-132500000D03*
%TD*%
D27*
%TO.C,R36*%
X99490000Y-119500000D03*
X100510000Y-119500000D03*
%TD*%
D13*
%TO.C,C8*%
X124967000Y-122500000D03*
X124007000Y-122500000D03*
%TD*%
D28*
%TO.C,R20*%
X72835497Y-92885751D03*
X72114249Y-92164503D03*
%TD*%
D13*
%TO.C,C29*%
X87980000Y-122500000D03*
X87020000Y-122500000D03*
%TD*%
D14*
%TO.C,D3*%
X112487000Y-117800000D03*
D15*
X112513000Y-116450000D03*
D16*
X112513000Y-115425000D03*
D17*
X112513000Y-114200000D03*
%TD*%
D13*
%TO.C,C24*%
X75980000Y-112500000D03*
X75020000Y-112500000D03*
%TD*%
D29*
%TO.C,R32*%
X88010000Y-112500000D03*
X86990000Y-112500000D03*
%TD*%
%TO.C,R33*%
X88010000Y-132500000D03*
X86990000Y-132500000D03*
%TD*%
D30*
%TO.C,D17*%
X107281985Y-94236400D03*
D31*
X106309006Y-95172610D03*
D32*
X105584221Y-95897394D03*
D33*
X104718015Y-96763600D03*
%TD*%
D34*
%TO.C,D16*%
X120800000Y-91013000D03*
D35*
X119450000Y-90987000D03*
D36*
X118425000Y-90987000D03*
D37*
X117200000Y-90987000D03*
%TD*%
D29*
%TO.C,R22*%
X66510000Y-110500000D03*
X65490000Y-110500000D03*
%TD*%
D27*
%TO.C,R25*%
X74990000Y-99500000D03*
X76010000Y-99500000D03*
%TD*%
D29*
%TO.C,R11*%
X125010000Y-112500000D03*
X123990000Y-112500000D03*
%TD*%
D26*
%TO.C,C28*%
X83135462Y-136814284D03*
X83814284Y-136135462D03*
%TD*%
D38*
%TO.C,D34*%
X90700000Y-141987000D03*
D35*
X92050000Y-142013000D03*
D36*
X93075000Y-142013000D03*
D39*
X94300000Y-142013000D03*
%TD*%
D40*
%TO.C,C16*%
X115500000Y-90520000D03*
X115500000Y-91480000D03*
%TD*%
D27*
%TO.C,R24*%
X74990000Y-119500000D03*
X76010000Y-119500000D03*
%TD*%
D25*
%TO.C,C11*%
X124020000Y-119500000D03*
X124980000Y-119500000D03*
%TD*%
D29*
%TO.C,R6*%
X113010000Y-122500000D03*
X111990000Y-122500000D03*
%TD*%
D14*
%TO.C,D13*%
X133987000Y-115800000D03*
D15*
X134013000Y-114450000D03*
D16*
X134013000Y-113425000D03*
D17*
X134013000Y-112200000D03*
%TD*%
D41*
%TO.C,J1*%
X97460000Y-144200000D03*
X97460000Y-151800000D03*
X100000000Y-144200000D03*
X100000000Y-151800000D03*
X102540000Y-144200000D03*
X102540000Y-151800000D03*
%TD*%
D25*
%TO.C,C33*%
X87020000Y-139500000D03*
X87980000Y-139500000D03*
%TD*%
D14*
%TO.C,D35*%
X99987000Y-137800000D03*
D15*
X100013000Y-136450000D03*
D16*
X100013000Y-135425000D03*
D17*
X100013000Y-134200000D03*
%TD*%
D42*
%TO.C,D31*%
X87513000Y-94200000D03*
D15*
X87487000Y-95550000D03*
D16*
X87487000Y-96575000D03*
D43*
X87487000Y-97800000D03*
%TD*%
D42*
%TO.C,D11*%
X124513000Y-114200000D03*
D15*
X124487000Y-115550000D03*
D16*
X124487000Y-116575000D03*
D43*
X124487000Y-117800000D03*
%TD*%
D44*
%TO.C,C17*%
X103185716Y-97635462D03*
X103864538Y-98314284D03*
%TD*%
D14*
%TO.C,D24*%
X75487000Y-117800000D03*
D15*
X75513000Y-116450000D03*
D16*
X75513000Y-115425000D03*
D17*
X75513000Y-114200000D03*
%TD*%
D13*
%TO.C,C13*%
X134480000Y-110500000D03*
X133520000Y-110500000D03*
%TD*%
D45*
%TO.C,D18*%
X95263600Y-96781985D03*
D46*
X94327390Y-95809006D03*
D47*
X93602606Y-95084221D03*
D48*
X92736400Y-94218015D03*
%TD*%
D49*
%TO.C,D12*%
X128718015Y-124263600D03*
D50*
X129690994Y-123327390D03*
D51*
X130415779Y-122602606D03*
D52*
X131281985Y-121736400D03*
%TD*%
D25*
%TO.C,C32*%
X87020000Y-119500000D03*
X87980000Y-119500000D03*
%TD*%
%TO.C,C22*%
X65520000Y-117500000D03*
X66480000Y-117500000D03*
%TD*%
D42*
%TO.C,D21*%
X66013000Y-102200000D03*
D15*
X65987000Y-103550000D03*
D16*
X65987000Y-104575000D03*
D43*
X65987000Y-105800000D03*
%TD*%
D40*
%TO.C,C19*%
X77500000Y-90520000D03*
X77500000Y-91480000D03*
%TD*%
D27*
%TO.C,R3*%
X111990000Y-119500000D03*
X113010000Y-119500000D03*
%TD*%
D25*
%TO.C,C6*%
X112020000Y-129500000D03*
X112980000Y-129500000D03*
%TD*%
D27*
%TO.C,R9*%
X123990000Y-109500000D03*
X125010000Y-109500000D03*
%TD*%
D45*
%TO.C,D15*%
X131263600Y-96281985D03*
D46*
X130327390Y-95309006D03*
D47*
X129602606Y-94584221D03*
D48*
X128736400Y-93718015D03*
%TD*%
D14*
%TO.C,D8*%
X124474000Y-127800000D03*
D15*
X124500000Y-126450000D03*
D16*
X124500000Y-125425000D03*
D17*
X124500000Y-124200000D03*
%TD*%
D42*
%TO.C,D38*%
X100013000Y-124200000D03*
D15*
X99987000Y-125550000D03*
D16*
X99987000Y-126575000D03*
D43*
X99987000Y-127800000D03*
%TD*%
D30*
%TO.C,D20*%
X71281985Y-93736400D03*
D31*
X70309006Y-94672610D03*
D32*
X69584221Y-95397394D03*
D33*
X68718015Y-96263600D03*
%TD*%
D18*
%TO.C,D23*%
X68736400Y-121718015D03*
D19*
X69672610Y-122690994D03*
D20*
X70397394Y-123415779D03*
D21*
X71263600Y-124281985D03*
%TD*%
D25*
%TO.C,C37*%
X99520000Y-109500000D03*
X100480000Y-109500000D03*
%TD*%
D14*
%TO.C,D2*%
X112487000Y-137800000D03*
D15*
X112513000Y-136450000D03*
D16*
X112513000Y-135425000D03*
D17*
X112513000Y-134200000D03*
%TD*%
D27*
%TO.C,R37*%
X99490000Y-102500000D03*
X100510000Y-102500000D03*
%TD*%
D44*
%TO.C,C20*%
X67185716Y-97135462D03*
X67864538Y-97814284D03*
%TD*%
D42*
%TO.C,D37*%
X100013000Y-104200000D03*
D15*
X99987000Y-105550000D03*
D16*
X99987000Y-106575000D03*
D43*
X99987000Y-107800000D03*
%TD*%
D42*
%TO.C,D32*%
X87513000Y-114200000D03*
D15*
X87487000Y-115550000D03*
D16*
X87487000Y-116575000D03*
D43*
X87487000Y-117800000D03*
%TD*%
D53*
%TO.C,R7*%
X116164503Y-136114249D03*
X116885751Y-136835497D03*
%TD*%
D42*
%TO.C,D5*%
X112513000Y-104200000D03*
D15*
X112487000Y-105550000D03*
D16*
X112487000Y-106575000D03*
D43*
X112487000Y-107800000D03*
%TD*%
D27*
%TO.C,R29*%
X86990000Y-129500000D03*
X88010000Y-129500000D03*
%TD*%
D42*
%TO.C,D10*%
X124513000Y-94200000D03*
D15*
X124487000Y-95550000D03*
D16*
X124487000Y-96575000D03*
D43*
X124487000Y-97800000D03*
%TD*%
D28*
%TO.C,R17*%
X108835497Y-93385751D03*
X108114249Y-92664503D03*
%TD*%
D54*
%TO.C,R19*%
X84500000Y-91510000D03*
X84500000Y-90490000D03*
%TD*%
D55*
%TO.C,C15*%
X127864538Y-92185716D03*
X127185716Y-92864538D03*
%TD*%
%TO.C,C18*%
X91864538Y-92685716D03*
X91185716Y-93364538D03*
%TD*%
D13*
%TO.C,C14*%
X134480000Y-100500000D03*
X133520000Y-100500000D03*
%TD*%
D14*
%TO.C,D4*%
X112487000Y-97800000D03*
D15*
X112513000Y-96450000D03*
D16*
X112513000Y-95425000D03*
D17*
X112513000Y-94200000D03*
%TD*%
D29*
%TO.C,R27*%
X76010000Y-122500000D03*
X74990000Y-122500000D03*
%TD*%
D22*
%TO.C,R15*%
X132114249Y-97835497D03*
X132835497Y-97114249D03*
%TD*%
D27*
%TO.C,R2*%
X111990000Y-139500000D03*
X113010000Y-139500000D03*
%TD*%
%TO.C,R8*%
X123977000Y-129500000D03*
X124997000Y-129500000D03*
%TD*%
D53*
%TO.C,R12*%
X127164503Y-125114249D03*
X127885751Y-125835497D03*
%TD*%
D27*
%TO.C,R31*%
X86990000Y-92500000D03*
X88010000Y-92500000D03*
%TD*%
D56*
%TO.C,R34*%
X89000000Y-141490000D03*
X89000000Y-142510000D03*
%TD*%
D27*
%TO.C,R35*%
X99490000Y-139500000D03*
X100510000Y-139500000D03*
%TD*%
%TO.C,R10*%
X123990000Y-92500000D03*
X125010000Y-92500000D03*
%TD*%
D29*
%TO.C,R5*%
X113010000Y-102500000D03*
X111990000Y-102500000D03*
%TD*%
%TO.C,R38*%
X100510000Y-122500000D03*
X99490000Y-122500000D03*
%TD*%
D42*
%TO.C,D26*%
X75513000Y-104200000D03*
D15*
X75487000Y-105550000D03*
D16*
X75487000Y-106575000D03*
D43*
X75487000Y-107800000D03*
%TD*%
D25*
%TO.C,C26*%
X75020000Y-109500000D03*
X75980000Y-109500000D03*
%TD*%
D14*
%TO.C,D29*%
X87487000Y-127800000D03*
D15*
X87513000Y-126450000D03*
D16*
X87513000Y-125425000D03*
D17*
X87513000Y-124200000D03*
%TD*%
D42*
%TO.C,D27*%
X75513000Y-124200000D03*
D15*
X75487000Y-125550000D03*
D16*
X75487000Y-126575000D03*
D43*
X75487000Y-127800000D03*
%TD*%
D25*
%TO.C,C38*%
X99520000Y-129500000D03*
X100480000Y-129500000D03*
%TD*%
D38*
%TO.C,D1*%
X105700000Y-141987000D03*
D35*
X107050000Y-142013000D03*
D36*
X108075000Y-142013000D03*
D39*
X109300000Y-142013000D03*
%TD*%
D54*
%TO.C,R1*%
X109000000Y-145510000D03*
X109000000Y-144490000D03*
%TD*%
D42*
%TO.C,D6*%
X112513000Y-124200000D03*
D15*
X112487000Y-125550000D03*
D16*
X112487000Y-126575000D03*
D43*
X112487000Y-127800000D03*
%TD*%
D25*
%TO.C,C31*%
X87020000Y-99500000D03*
X87980000Y-99500000D03*
%TD*%
D13*
%TO.C,C9*%
X124980000Y-102500000D03*
X124020000Y-102500000D03*
%TD*%
D57*
%TO.C,C12*%
X132814284Y-120864538D03*
X132135462Y-120185716D03*
%TD*%
D34*
%TO.C,D19*%
X82800000Y-91013000D03*
D35*
X81450000Y-90987000D03*
D36*
X80425000Y-90987000D03*
D37*
X79200000Y-90987000D03*
%TD*%
D57*
%TO.C,C7*%
X121814284Y-131864538D03*
X121135462Y-131185716D03*
%TD*%
D42*
%TO.C,D33*%
X87513000Y-134200000D03*
D15*
X87487000Y-135550000D03*
D16*
X87487000Y-136575000D03*
D43*
X87487000Y-137800000D03*
%TD*%
D27*
%TO.C,R4*%
X111990000Y-99500000D03*
X113010000Y-99500000D03*
%TD*%
D13*
%TO.C,C2*%
X112980000Y-132500000D03*
X112020000Y-132500000D03*
%TD*%
D27*
%TO.C,R13*%
X133490000Y-117500000D03*
X134510000Y-117500000D03*
%TD*%
D14*
%TO.C,D36*%
X99987000Y-117800000D03*
D15*
X100013000Y-116450000D03*
D16*
X100013000Y-115425000D03*
D17*
X100013000Y-114200000D03*
%TD*%
D54*
%TO.C,R16*%
X122500000Y-91510000D03*
X122500000Y-90490000D03*
%TD*%
D25*
%TO.C,C21*%
X65520000Y-107500000D03*
X66480000Y-107500000D03*
%TD*%
D13*
%TO.C,C4*%
X112980000Y-92500000D03*
X112020000Y-92500000D03*
%TD*%
D29*
%TO.C,R21*%
X66510000Y-100500000D03*
X65490000Y-100500000D03*
%TD*%
D27*
%TO.C,R14*%
X133490000Y-107500000D03*
X134510000Y-107500000D03*
%TD*%
D42*
%TO.C,D22*%
X66013000Y-112200000D03*
D15*
X65987000Y-113550000D03*
D16*
X65987000Y-114575000D03*
D43*
X65987000Y-115800000D03*
%TD*%
D49*
%TO.C,D7*%
X117718015Y-135263600D03*
D50*
X118690994Y-134327390D03*
D51*
X119415779Y-133602606D03*
D52*
X120281985Y-132736400D03*
%TD*%
D29*
%TO.C,R26*%
X76010000Y-102500000D03*
X74990000Y-102500000D03*
%TD*%
D14*
%TO.C,D30*%
X87487000Y-107800000D03*
D15*
X87513000Y-106450000D03*
D16*
X87513000Y-105425000D03*
D17*
X87513000Y-104200000D03*
%TD*%
D40*
%TO.C,C34*%
X91000000Y-143520000D03*
X91000000Y-144480000D03*
%TD*%
D25*
%TO.C,C10*%
X124020000Y-99500000D03*
X124980000Y-99500000D03*
%TD*%
%LPD*%
M02*
