%TF.GenerationSoftware,KiCad,Pcbnew,7.0.7*%
%TF.CreationDate,2023-11-30T00:30:33+01:00*%
%TF.ProjectId,geheimbadge,67656865-696d-4626-9164-67652e6b6963,0.1.0*%
%TF.SameCoordinates,Original*%
%TF.FileFunction,Legend,Bot*%
%TF.FilePolarity,Positive*%
%FSLAX46Y46*%
G04 Gerber Fmt 4.6, Leading zero omitted, Abs format (unit mm)*
G04 Created by KiCad (PCBNEW 7.0.7) date 2023-11-30 00:30:33*
%MOMM*%
%LPD*%
G01*
G04 APERTURE LIST*
G04 Aperture macros list*
%AMRoundRect*
0 Rectangle with rounded corners*
0 $1 Rounding radius*
0 $2 $3 $4 $5 $6 $7 $8 $9 X,Y pos of 4 corners*
0 Add a 4 corners polygon primitive as box body*
4,1,4,$2,$3,$4,$5,$6,$7,$8,$9,$2,$3,0*
0 Add four circle primitives for the rounded corners*
1,1,$1+$1,$2,$3*
1,1,$1+$1,$4,$5*
1,1,$1+$1,$6,$7*
1,1,$1+$1,$8,$9*
0 Add four rect primitives between the rounded corners*
20,1,$1+$1,$2,$3,$4,$5,0*
20,1,$1+$1,$4,$5,$6,$7,0*
20,1,$1+$1,$6,$7,$8,$9,0*
20,1,$1+$1,$8,$9,$2,$3,0*%
%AMRotRect*
0 Rectangle, with rotation*
0 The origin of the aperture is its center*
0 $1 length*
0 $2 width*
0 $3 Rotation angle, in degrees counterclockwise*
0 Add horizontal line*
21,1,$1,$2,0,0,$3*%
%AMFreePoly0*
4,1,27,0.535355,0.635355,0.550000,0.600000,0.550000,-0.600000,0.535355,-0.635355,0.500000,-0.650000,-0.050000,-0.650000,-0.085355,-0.635355,-0.100000,-0.600000,-0.100000,-0.486441,-0.207708,-0.454816,-0.293003,-0.400000,-0.500000,-0.400000,-0.535355,-0.385355,-0.550000,-0.350000,-0.550000,0.200000,-0.535355,0.235355,-0.500000,0.250000,-0.429907,0.250000,-0.420627,0.270320,-0.327430,0.377875,
-0.207708,0.454816,-0.100000,0.486441,-0.100000,0.600000,-0.085355,0.635355,-0.050000,0.650000,0.500000,0.650000,0.535355,0.635355,0.535355,0.635355,$1*%
%AMFreePoly1*
4,1,27,0.085355,0.635355,0.100000,0.600000,0.100000,0.486441,0.207708,0.454816,0.327430,0.377875,0.420627,0.270320,0.429907,0.250000,0.500000,0.250000,0.535355,0.235355,0.550000,0.200000,0.550000,-0.350000,0.535355,-0.385355,0.500000,-0.400000,0.293003,-0.400000,0.207708,-0.454816,0.100000,-0.486441,0.100000,-0.600000,0.085355,-0.635355,0.050000,-0.650000,-0.500000,-0.650000,
-0.535355,-0.635355,-0.550000,-0.600000,-0.550000,0.600000,-0.535355,0.635355,-0.500000,0.650000,0.050000,0.650000,0.085355,0.635355,0.085355,0.635355,$1*%
G04 Aperture macros list end*
%ADD10C,0.120000*%
%ADD11C,0.152000*%
%ADD12C,0.150000*%
%ADD13RoundRect,0.140000X-0.140000X-0.170000X0.140000X-0.170000X0.140000X0.170000X-0.140000X0.170000X0*%
%ADD14RoundRect,0.140000X0.219203X0.021213X0.021213X0.219203X-0.219203X-0.021213X-0.021213X-0.219203X0*%
%ADD15FreePoly0,270.000000*%
%ADD16R,1.200000X0.700000*%
%ADD17R,1.200000X0.450000*%
%ADD18FreePoly1,270.000000*%
%ADD19RoundRect,0.140000X-0.021213X0.219203X-0.219203X0.021213X0.021213X-0.219203X0.219203X-0.021213X0*%
%ADD20FreePoly0,90.000000*%
%ADD21FreePoly1,90.000000*%
%ADD22RoundRect,0.140000X0.021213X-0.219203X0.219203X-0.021213X-0.021213X0.219203X-0.219203X0.021213X0*%
%ADD23RoundRect,0.140000X0.140000X0.170000X-0.140000X0.170000X-0.140000X-0.170000X0.140000X-0.170000X0*%
%ADD24FreePoly0,180.000000*%
%ADD25R,0.700000X1.200000*%
%ADD26R,0.450000X1.200000*%
%ADD27FreePoly1,180.000000*%
%ADD28RoundRect,0.255000X-0.255000X2.245000X-0.255000X-2.245000X0.255000X-2.245000X0.255000X2.245000X0*%
%ADD29FreePoly0,315.000000*%
%ADD30RotRect,0.700000X1.200000X315.000000*%
%ADD31RotRect,0.450000X1.200000X315.000000*%
%ADD32FreePoly1,315.000000*%
%ADD33FreePoly0,135.000000*%
%ADD34RotRect,0.700000X1.200000X135.000000*%
%ADD35RotRect,0.450000X1.200000X135.000000*%
%ADD36FreePoly1,135.000000*%
%ADD37FreePoly0,45.000000*%
%ADD38RotRect,0.700000X1.200000X45.000000*%
%ADD39RotRect,0.450000X1.200000X45.000000*%
%ADD40FreePoly1,45.000000*%
%ADD41FreePoly0,225.000000*%
%ADD42RotRect,0.700000X1.200000X225.000000*%
%ADD43RotRect,0.450000X1.200000X225.000000*%
%ADD44FreePoly1,225.000000*%
%ADD45RoundRect,0.140000X0.170000X-0.140000X0.170000X0.140000X-0.170000X0.140000X-0.170000X-0.140000X0*%
%ADD46RoundRect,0.140000X-0.170000X0.140000X-0.170000X-0.140000X0.170000X-0.140000X0.170000X0.140000X0*%
%ADD47RoundRect,0.140000X-0.219203X-0.021213X-0.021213X-0.219203X0.219203X0.021213X0.021213X0.219203X0*%
G04 APERTURE END LIST*
D10*
X121195238Y-88095855D02*
X121195238Y-88667283D01*
X121195238Y-88667283D02*
X121233333Y-88781569D01*
X121233333Y-88781569D02*
X121309524Y-88857760D01*
X121309524Y-88857760D02*
X121423809Y-88895855D01*
X121423809Y-88895855D02*
X121500000Y-88895855D01*
X120433333Y-88895855D02*
X120814285Y-88895855D01*
X120814285Y-88895855D02*
X120814285Y-88095855D01*
X119709523Y-88819664D02*
X119747619Y-88857760D01*
X119747619Y-88857760D02*
X119861904Y-88895855D01*
X119861904Y-88895855D02*
X119938095Y-88895855D01*
X119938095Y-88895855D02*
X120052381Y-88857760D01*
X120052381Y-88857760D02*
X120128571Y-88781569D01*
X120128571Y-88781569D02*
X120166666Y-88705379D01*
X120166666Y-88705379D02*
X120204762Y-88552998D01*
X120204762Y-88552998D02*
X120204762Y-88438712D01*
X120204762Y-88438712D02*
X120166666Y-88286331D01*
X120166666Y-88286331D02*
X120128571Y-88210140D01*
X120128571Y-88210140D02*
X120052381Y-88133950D01*
X120052381Y-88133950D02*
X119938095Y-88095855D01*
X119938095Y-88095855D02*
X119861904Y-88095855D01*
X119861904Y-88095855D02*
X119747619Y-88133950D01*
X119747619Y-88133950D02*
X119709523Y-88172045D01*
X119138095Y-88095855D02*
X119138095Y-88667283D01*
X119138095Y-88667283D02*
X119176190Y-88781569D01*
X119176190Y-88781569D02*
X119252381Y-88857760D01*
X119252381Y-88857760D02*
X119366666Y-88895855D01*
X119366666Y-88895855D02*
X119442857Y-88895855D01*
X118376190Y-88895855D02*
X118757142Y-88895855D01*
X118757142Y-88895855D02*
X118757142Y-88095855D01*
X117652380Y-88819664D02*
X117690476Y-88857760D01*
X117690476Y-88857760D02*
X117804761Y-88895855D01*
X117804761Y-88895855D02*
X117880952Y-88895855D01*
X117880952Y-88895855D02*
X117995238Y-88857760D01*
X117995238Y-88857760D02*
X118071428Y-88781569D01*
X118071428Y-88781569D02*
X118109523Y-88705379D01*
X118109523Y-88705379D02*
X118147619Y-88552998D01*
X118147619Y-88552998D02*
X118147619Y-88438712D01*
X118147619Y-88438712D02*
X118109523Y-88286331D01*
X118109523Y-88286331D02*
X118071428Y-88210140D01*
X118071428Y-88210140D02*
X117995238Y-88133950D01*
X117995238Y-88133950D02*
X117880952Y-88095855D01*
X117880952Y-88095855D02*
X117804761Y-88095855D01*
X117804761Y-88095855D02*
X117690476Y-88133950D01*
X117690476Y-88133950D02*
X117652380Y-88172045D01*
X117080952Y-88095855D02*
X117080952Y-88667283D01*
X117080952Y-88667283D02*
X117119047Y-88781569D01*
X117119047Y-88781569D02*
X117195238Y-88857760D01*
X117195238Y-88857760D02*
X117309523Y-88895855D01*
X117309523Y-88895855D02*
X117385714Y-88895855D01*
X116319047Y-88895855D02*
X116699999Y-88895855D01*
X116699999Y-88895855D02*
X116699999Y-88095855D01*
X115595237Y-88819664D02*
X115633333Y-88857760D01*
X115633333Y-88857760D02*
X115747618Y-88895855D01*
X115747618Y-88895855D02*
X115823809Y-88895855D01*
X115823809Y-88895855D02*
X115938095Y-88857760D01*
X115938095Y-88857760D02*
X116014285Y-88781569D01*
X116014285Y-88781569D02*
X116052380Y-88705379D01*
X116052380Y-88705379D02*
X116090476Y-88552998D01*
X116090476Y-88552998D02*
X116090476Y-88438712D01*
X116090476Y-88438712D02*
X116052380Y-88286331D01*
X116052380Y-88286331D02*
X116014285Y-88210140D01*
X116014285Y-88210140D02*
X115938095Y-88133950D01*
X115938095Y-88133950D02*
X115823809Y-88095855D01*
X115823809Y-88095855D02*
X115747618Y-88095855D01*
X115747618Y-88095855D02*
X115633333Y-88133950D01*
X115633333Y-88133950D02*
X115595237Y-88172045D01*
X115023809Y-88095855D02*
X115023809Y-88667283D01*
X115023809Y-88667283D02*
X115061904Y-88781569D01*
X115061904Y-88781569D02*
X115138095Y-88857760D01*
X115138095Y-88857760D02*
X115252380Y-88895855D01*
X115252380Y-88895855D02*
X115328571Y-88895855D01*
X114261904Y-88895855D02*
X114642856Y-88895855D01*
X114642856Y-88895855D02*
X114642856Y-88095855D01*
X113538094Y-88819664D02*
X113576190Y-88857760D01*
X113576190Y-88857760D02*
X113690475Y-88895855D01*
X113690475Y-88895855D02*
X113766666Y-88895855D01*
X113766666Y-88895855D02*
X113880952Y-88857760D01*
X113880952Y-88857760D02*
X113957142Y-88781569D01*
X113957142Y-88781569D02*
X113995237Y-88705379D01*
X113995237Y-88705379D02*
X114033333Y-88552998D01*
X114033333Y-88552998D02*
X114033333Y-88438712D01*
X114033333Y-88438712D02*
X113995237Y-88286331D01*
X113995237Y-88286331D02*
X113957142Y-88210140D01*
X113957142Y-88210140D02*
X113880952Y-88133950D01*
X113880952Y-88133950D02*
X113766666Y-88095855D01*
X113766666Y-88095855D02*
X113690475Y-88095855D01*
X113690475Y-88095855D02*
X113576190Y-88133950D01*
X113576190Y-88133950D02*
X113538094Y-88172045D01*
%TO.C,C11*%
X75392164Y-112140000D02*
X75607836Y-112140000D01*
X75392164Y-112860000D02*
X75607836Y-112860000D01*
%TO.C,C27*%
X117346820Y-135805683D02*
X117194317Y-135653180D01*
X117855937Y-135296566D02*
X117703434Y-135144063D01*
D11*
%TO.C,D4*%
X88862000Y-104000000D02*
X88210000Y-104000000D01*
X88862000Y-104828000D02*
X88862000Y-104875000D01*
X88862000Y-104875000D02*
X88612000Y-105125000D01*
X88612000Y-105125000D02*
X88612000Y-106888000D01*
X88612000Y-106888000D02*
X88862000Y-107138000D01*
X88862000Y-108000000D02*
X88862000Y-104000000D01*
X88185000Y-108000000D02*
X88862000Y-108000000D01*
D12*
X88063000Y-103875000D02*
G75*
G03*
X88063000Y-103875000I-75000J0D01*
G01*
D10*
%TO.C,C2*%
X92830810Y-93678307D02*
X92678307Y-93830810D01*
X92321693Y-93169190D02*
X92169190Y-93321693D01*
D11*
%TO.C,D38*%
X101362000Y-114000000D02*
X100710000Y-114000000D01*
X101362000Y-114828000D02*
X101362000Y-114875000D01*
X101362000Y-114875000D02*
X101112000Y-115125000D01*
X101112000Y-115125000D02*
X101112000Y-116888000D01*
X101112000Y-116888000D02*
X101362000Y-117138000D01*
X101362000Y-118000000D02*
X101362000Y-114000000D01*
X100685000Y-118000000D02*
X101362000Y-118000000D01*
D12*
X100563000Y-113875000D02*
G75*
G03*
X100563000Y-113875000I-75000J0D01*
G01*
D11*
%TO.C,D34*%
X132638000Y-108000000D02*
X133290000Y-108000000D01*
X132638000Y-107172000D02*
X132638000Y-107125000D01*
X132638000Y-107125000D02*
X132888000Y-106875000D01*
X132888000Y-106875000D02*
X132888000Y-105112000D01*
X132888000Y-105112000D02*
X132638000Y-104862000D01*
X132638000Y-104000000D02*
X132638000Y-108000000D01*
X133315000Y-104000000D02*
X132638000Y-104000000D01*
D12*
X133587000Y-108125000D02*
G75*
G03*
X133587000Y-108125000I-75000J0D01*
G01*
D11*
%TO.C,D11*%
X76862000Y-114000000D02*
X76210000Y-114000000D01*
X76862000Y-114828000D02*
X76862000Y-114875000D01*
X76862000Y-114875000D02*
X76612000Y-115125000D01*
X76612000Y-115125000D02*
X76612000Y-116888000D01*
X76612000Y-116888000D02*
X76862000Y-117138000D01*
X76862000Y-118000000D02*
X76862000Y-114000000D01*
X76185000Y-118000000D02*
X76862000Y-118000000D01*
D12*
X76063000Y-113875000D02*
G75*
G03*
X76063000Y-113875000I-75000J0D01*
G01*
D10*
%TO.C,C17*%
X77194317Y-130346820D02*
X77346820Y-130194317D01*
X77703434Y-130855937D02*
X77855937Y-130703434D01*
%TO.C,C15*%
X65892164Y-112140000D02*
X66107836Y-112140000D01*
X65892164Y-112860000D02*
X66107836Y-112860000D01*
%TO.C,C26*%
X112607836Y-99860000D02*
X112392164Y-99860000D01*
X112607836Y-99140000D02*
X112392164Y-99140000D01*
D11*
%TO.C,D28*%
X123138000Y-128000000D02*
X123790000Y-128000000D01*
X123138000Y-127172000D02*
X123138000Y-127125000D01*
X123138000Y-127125000D02*
X123388000Y-126875000D01*
X123388000Y-126875000D02*
X123388000Y-125112000D01*
X123388000Y-125112000D02*
X123138000Y-124862000D01*
X123138000Y-124000000D02*
X123138000Y-128000000D01*
X123815000Y-124000000D02*
X123138000Y-124000000D01*
D12*
X124087000Y-128125000D02*
G75*
G03*
X124087000Y-128125000I-75000J0D01*
G01*
D11*
%TO.C,D10*%
X76862000Y-104000000D02*
X76210000Y-104000000D01*
X76862000Y-104828000D02*
X76862000Y-104875000D01*
X76862000Y-104875000D02*
X76612000Y-105125000D01*
X76612000Y-105125000D02*
X76612000Y-106888000D01*
X76612000Y-106888000D02*
X76862000Y-107138000D01*
X76862000Y-108000000D02*
X76862000Y-104000000D01*
X76185000Y-108000000D02*
X76862000Y-108000000D01*
D12*
X76063000Y-103875000D02*
G75*
G03*
X76063000Y-103875000I-75000J0D01*
G01*
D11*
%TO.C,D22*%
X111138000Y-138000000D02*
X111790000Y-138000000D01*
X111138000Y-137172000D02*
X111138000Y-137125000D01*
X111138000Y-137125000D02*
X111388000Y-136875000D01*
X111388000Y-136875000D02*
X111388000Y-135112000D01*
X111388000Y-135112000D02*
X111138000Y-134862000D01*
X111138000Y-134000000D02*
X111138000Y-138000000D01*
X111815000Y-134000000D02*
X111138000Y-134000000D01*
D12*
X112087000Y-138125000D02*
G75*
G03*
X112087000Y-138125000I-75000J0D01*
G01*
D10*
%TO.C,C28*%
X124607836Y-129860000D02*
X124392164Y-129860000D01*
X124607836Y-129140000D02*
X124392164Y-129140000D01*
D11*
%TO.C,D36*%
X120500000Y-91862000D02*
X120500000Y-91210000D01*
X119672000Y-91862000D02*
X119625000Y-91862000D01*
X119625000Y-91862000D02*
X119375000Y-91612000D01*
X119375000Y-91612000D02*
X117612000Y-91612000D01*
X117612000Y-91612000D02*
X117362000Y-91862000D01*
X116500000Y-91862000D02*
X120500000Y-91862000D01*
X116500000Y-91185000D02*
X116500000Y-91862000D01*
D12*
X120700000Y-90988000D02*
G75*
G03*
X120700000Y-90988000I-75000J0D01*
G01*
D10*
%TO.C,C18*%
X90194317Y-143346820D02*
X90346820Y-143194317D01*
X90703434Y-143855937D02*
X90855937Y-143703434D01*
D11*
%TO.C,D14*%
X67362000Y-104000000D02*
X66710000Y-104000000D01*
X67362000Y-104828000D02*
X67362000Y-104875000D01*
X67362000Y-104875000D02*
X67112000Y-105125000D01*
X67112000Y-105125000D02*
X67112000Y-106888000D01*
X67112000Y-106888000D02*
X67362000Y-107138000D01*
X67362000Y-108000000D02*
X67362000Y-104000000D01*
X66685000Y-108000000D02*
X67362000Y-108000000D01*
D12*
X66563000Y-103875000D02*
G75*
G03*
X66563000Y-103875000I-75000J0D01*
G01*
D11*
%TO.C,D23*%
X111138000Y-128000000D02*
X111790000Y-128000000D01*
X111138000Y-127172000D02*
X111138000Y-127125000D01*
X111138000Y-127125000D02*
X111388000Y-126875000D01*
X111388000Y-126875000D02*
X111388000Y-125112000D01*
X111388000Y-125112000D02*
X111138000Y-124862000D01*
X111138000Y-124000000D02*
X111138000Y-128000000D01*
X111815000Y-124000000D02*
X111138000Y-124000000D01*
D12*
X112087000Y-128125000D02*
G75*
G03*
X112087000Y-128125000I-75000J0D01*
G01*
D10*
%TO.C,C22*%
X112607836Y-139860000D02*
X112392164Y-139860000D01*
X112607836Y-139140000D02*
X112392164Y-139140000D01*
D11*
%TO.C,D30*%
X123138000Y-108000000D02*
X123790000Y-108000000D01*
X123138000Y-107172000D02*
X123138000Y-107125000D01*
X123138000Y-107125000D02*
X123388000Y-106875000D01*
X123388000Y-106875000D02*
X123388000Y-105112000D01*
X123388000Y-105112000D02*
X123138000Y-104862000D01*
X123138000Y-104000000D02*
X123138000Y-108000000D01*
X123815000Y-104000000D02*
X123138000Y-104000000D01*
D12*
X124087000Y-108125000D02*
G75*
G03*
X124087000Y-108125000I-75000J0D01*
G01*
D10*
%TO.C,C3*%
X87392164Y-92140000D02*
X87607836Y-92140000D01*
X87392164Y-92860000D02*
X87607836Y-92860000D01*
%TO.C,C38*%
X99892164Y-112140000D02*
X100107836Y-112140000D01*
X99892164Y-112860000D02*
X100107836Y-112860000D01*
%TO.C,J1*%
X107730000Y-121415000D02*
X107730000Y-130585000D01*
X103550000Y-121415000D02*
X107730000Y-121415000D01*
X96450000Y-121415000D02*
X96450000Y-119915000D01*
X96450000Y-121415000D02*
X92270000Y-121415000D01*
X92270000Y-121415000D02*
X92270000Y-130585000D01*
X107730000Y-130585000D02*
X103550000Y-130585000D01*
X92270000Y-130585000D02*
X96450000Y-130585000D01*
D11*
%TO.C,D17*%
X79548866Y-130622707D02*
X79087832Y-131083741D01*
X80134350Y-131208191D02*
X80167584Y-131241425D01*
X80167584Y-131241425D02*
X80167584Y-131594979D01*
X80167584Y-131594979D02*
X81414214Y-132841608D01*
X81414214Y-132841608D02*
X81767767Y-132841608D01*
X82377293Y-133451134D02*
X79548866Y-130622707D01*
X81898582Y-133929845D02*
X82377293Y-133451134D01*
D12*
X78917466Y-131152330D02*
G75*
G03*
X78917466Y-131152330I-75000J0D01*
G01*
D11*
%TO.C,D1*%
X98638000Y-108000000D02*
X99290000Y-108000000D01*
X98638000Y-107172000D02*
X98638000Y-107125000D01*
X98638000Y-107125000D02*
X98888000Y-106875000D01*
X98888000Y-106875000D02*
X98888000Y-105112000D01*
X98888000Y-105112000D02*
X98638000Y-104862000D01*
X98638000Y-104000000D02*
X98638000Y-108000000D01*
X99315000Y-104000000D02*
X98638000Y-104000000D01*
D12*
X99587000Y-108125000D02*
G75*
G03*
X99587000Y-108125000I-75000J0D01*
G01*
D10*
%TO.C,C34*%
X134107836Y-109860000D02*
X133892164Y-109860000D01*
X134107836Y-109140000D02*
X133892164Y-109140000D01*
%TO.C,C16*%
X67194317Y-120346820D02*
X67346820Y-120194317D01*
X67703434Y-120855937D02*
X67855937Y-120703434D01*
D11*
%TO.C,D20*%
X101362000Y-144000000D02*
X100710000Y-144000000D01*
X101362000Y-144828000D02*
X101362000Y-144875000D01*
X101362000Y-144875000D02*
X101112000Y-145125000D01*
X101112000Y-145125000D02*
X101112000Y-146888000D01*
X101112000Y-146888000D02*
X101362000Y-147138000D01*
X101362000Y-148000000D02*
X101362000Y-144000000D01*
X100685000Y-148000000D02*
X101362000Y-148000000D01*
D12*
X100563000Y-143875000D02*
G75*
G03*
X100563000Y-143875000I-75000J0D01*
G01*
D10*
%TO.C,C14*%
X65892164Y-102140000D02*
X66107836Y-102140000D01*
X65892164Y-102860000D02*
X66107836Y-102860000D01*
%TO.C,C32*%
X127346820Y-125805683D02*
X127194317Y-125653180D01*
X127855937Y-125296566D02*
X127703434Y-125144063D01*
D11*
%TO.C,D35*%
X131451134Y-98377293D02*
X131912168Y-97916259D01*
X130865650Y-97791809D02*
X130832416Y-97758575D01*
X130832416Y-97758575D02*
X130832416Y-97405021D01*
X130832416Y-97405021D02*
X129585786Y-96158392D01*
X129585786Y-96158392D02*
X129232233Y-96158392D01*
X128622707Y-95548866D02*
X131451134Y-98377293D01*
X129101418Y-95070155D02*
X128622707Y-95548866D01*
D12*
X132232534Y-97847670D02*
G75*
G03*
X132232534Y-97847670I-75000J0D01*
G01*
D10*
%TO.C,C12*%
X75392164Y-122140000D02*
X75607836Y-122140000D01*
X75392164Y-122860000D02*
X75607836Y-122860000D01*
%TO.C,C23*%
X112607836Y-129860000D02*
X112392164Y-129860000D01*
X112607836Y-129140000D02*
X112392164Y-129140000D01*
D11*
%TO.C,D15*%
X67362000Y-114000000D02*
X66710000Y-114000000D01*
X67362000Y-114828000D02*
X67362000Y-114875000D01*
X67362000Y-114875000D02*
X67112000Y-115125000D01*
X67112000Y-115125000D02*
X67112000Y-116888000D01*
X67112000Y-116888000D02*
X67362000Y-117138000D01*
X67362000Y-118000000D02*
X67362000Y-114000000D01*
X66685000Y-118000000D02*
X67362000Y-118000000D01*
D12*
X66563000Y-113875000D02*
G75*
G03*
X66563000Y-113875000I-75000J0D01*
G01*
D10*
%TO.C,C24*%
X112607836Y-119860000D02*
X112392164Y-119860000D01*
X112607836Y-119140000D02*
X112392164Y-119140000D01*
D11*
%TO.C,D27*%
X117622707Y-133451134D02*
X118083741Y-133912168D01*
X118208191Y-132865650D02*
X118241425Y-132832416D01*
X118241425Y-132832416D02*
X118594979Y-132832416D01*
X118594979Y-132832416D02*
X119841608Y-131585786D01*
X119841608Y-131585786D02*
X119841608Y-131232233D01*
X120451134Y-130622707D02*
X117622707Y-133451134D01*
X120929845Y-131101418D02*
X120451134Y-130622707D01*
D12*
X118227330Y-134157534D02*
G75*
G03*
X118227330Y-134157534I-75000J0D01*
G01*
D11*
%TO.C,D37*%
X107377293Y-95548866D02*
X106916259Y-95087832D01*
X106791809Y-96134350D02*
X106758575Y-96167584D01*
X106758575Y-96167584D02*
X106405021Y-96167584D01*
X106405021Y-96167584D02*
X105158392Y-97414214D01*
X105158392Y-97414214D02*
X105158392Y-97767767D01*
X104548866Y-98377293D02*
X107377293Y-95548866D01*
X104070155Y-97898582D02*
X104548866Y-98377293D01*
D12*
X106922670Y-94842466D02*
G75*
G03*
X106922670Y-94842466I-75000J0D01*
G01*
D10*
%TO.C,C30*%
X124607836Y-109860000D02*
X124392164Y-109860000D01*
X124607836Y-109140000D02*
X124392164Y-109140000D01*
D11*
%TO.C,D8*%
X83500000Y-91862000D02*
X83500000Y-91210000D01*
X82672000Y-91862000D02*
X82625000Y-91862000D01*
X82625000Y-91862000D02*
X82375000Y-91612000D01*
X82375000Y-91612000D02*
X80612000Y-91612000D01*
X80612000Y-91612000D02*
X80362000Y-91862000D01*
X79500000Y-91862000D02*
X83500000Y-91862000D01*
X79500000Y-91185000D02*
X79500000Y-91862000D01*
D12*
X83700000Y-90988000D02*
G75*
G03*
X83700000Y-90988000I-75000J0D01*
G01*
D11*
%TO.C,D33*%
X132638000Y-118000000D02*
X133290000Y-118000000D01*
X132638000Y-117172000D02*
X132638000Y-117125000D01*
X132638000Y-117125000D02*
X132888000Y-116875000D01*
X132888000Y-116875000D02*
X132888000Y-115112000D01*
X132888000Y-115112000D02*
X132638000Y-114862000D01*
X132638000Y-114000000D02*
X132638000Y-118000000D01*
X133315000Y-114000000D02*
X132638000Y-114000000D01*
D12*
X133587000Y-118125000D02*
G75*
G03*
X133587000Y-118125000I-75000J0D01*
G01*
D11*
%TO.C,D3*%
X88862000Y-94000000D02*
X88210000Y-94000000D01*
X88862000Y-94828000D02*
X88862000Y-94875000D01*
X88862000Y-94875000D02*
X88612000Y-95125000D01*
X88612000Y-95125000D02*
X88612000Y-96888000D01*
X88612000Y-96888000D02*
X88862000Y-97138000D01*
X88862000Y-98000000D02*
X88862000Y-94000000D01*
X88185000Y-98000000D02*
X88862000Y-98000000D01*
D12*
X88063000Y-93875000D02*
G75*
G03*
X88063000Y-93875000I-75000J0D01*
G01*
D10*
%TO.C,C6*%
X87392164Y-122140000D02*
X87607836Y-122140000D01*
X87392164Y-122860000D02*
X87607836Y-122860000D01*
D11*
%TO.C,D32*%
X127622707Y-123451134D02*
X128083741Y-123912168D01*
X128208191Y-122865650D02*
X128241425Y-122832416D01*
X128241425Y-122832416D02*
X128594979Y-122832416D01*
X128594979Y-122832416D02*
X129841608Y-121585786D01*
X129841608Y-121585786D02*
X129841608Y-121232233D01*
X130451134Y-120622707D02*
X127622707Y-123451134D01*
X130929845Y-121101418D02*
X130451134Y-120622707D01*
D12*
X128227330Y-124157534D02*
G75*
G03*
X128227330Y-124157534I-75000J0D01*
G01*
D10*
%TO.C,C19*%
X100107836Y-139860000D02*
X99892164Y-139860000D01*
X100107836Y-139140000D02*
X99892164Y-139140000D01*
%TO.C,C33*%
X135140000Y-116107836D02*
X135140000Y-115892164D01*
X135860000Y-116107836D02*
X135860000Y-115892164D01*
D11*
%TO.C,D25*%
X111138000Y-108000000D02*
X111790000Y-108000000D01*
X111138000Y-107172000D02*
X111138000Y-107125000D01*
X111138000Y-107125000D02*
X111388000Y-106875000D01*
X111388000Y-106875000D02*
X111388000Y-105112000D01*
X111388000Y-105112000D02*
X111138000Y-104862000D01*
X111138000Y-104000000D02*
X111138000Y-108000000D01*
X111815000Y-104000000D02*
X111138000Y-104000000D01*
D12*
X112087000Y-108125000D02*
G75*
G03*
X112087000Y-108125000I-75000J0D01*
G01*
D10*
%TO.C,C31*%
X124607836Y-99860000D02*
X124392164Y-99860000D01*
X124607836Y-99140000D02*
X124392164Y-99140000D01*
%TO.C,C21*%
X104346820Y-148805683D02*
X104194317Y-148653180D01*
X104855937Y-148296566D02*
X104703434Y-148144063D01*
D11*
%TO.C,D18*%
X92548866Y-143622707D02*
X92087832Y-144083741D01*
X93134350Y-144208191D02*
X93167584Y-144241425D01*
X93167584Y-144241425D02*
X93167584Y-144594979D01*
X93167584Y-144594979D02*
X94414214Y-145841608D01*
X94414214Y-145841608D02*
X94767767Y-145841608D01*
X95377293Y-146451134D02*
X92548866Y-143622707D01*
X94898582Y-146929845D02*
X95377293Y-146451134D01*
D12*
X91917466Y-144152330D02*
G75*
G03*
X91917466Y-144152330I-75000J0D01*
G01*
D11*
%TO.C,D26*%
X111138000Y-98000000D02*
X111790000Y-98000000D01*
X111138000Y-97172000D02*
X111138000Y-97125000D01*
X111138000Y-97125000D02*
X111388000Y-96875000D01*
X111388000Y-96875000D02*
X111388000Y-95112000D01*
X111388000Y-95112000D02*
X111138000Y-94862000D01*
X111138000Y-94000000D02*
X111138000Y-98000000D01*
X111815000Y-94000000D02*
X111138000Y-94000000D01*
D12*
X112087000Y-98125000D02*
G75*
G03*
X112087000Y-98125000I-75000J0D01*
G01*
D11*
%TO.C,D24*%
X111138000Y-118000000D02*
X111790000Y-118000000D01*
X111138000Y-117172000D02*
X111138000Y-117125000D01*
X111138000Y-117125000D02*
X111388000Y-116875000D01*
X111388000Y-116875000D02*
X111388000Y-115112000D01*
X111388000Y-115112000D02*
X111138000Y-114862000D01*
X111138000Y-114000000D02*
X111138000Y-118000000D01*
X111815000Y-114000000D02*
X111138000Y-114000000D01*
D12*
X112087000Y-118125000D02*
G75*
G03*
X112087000Y-118125000I-75000J0D01*
G01*
D10*
%TO.C,C5*%
X87392164Y-112140000D02*
X87607836Y-112140000D01*
X87392164Y-112860000D02*
X87607836Y-112860000D01*
D11*
%TO.C,D9*%
X76862000Y-94000000D02*
X76210000Y-94000000D01*
X76862000Y-94828000D02*
X76862000Y-94875000D01*
X76862000Y-94875000D02*
X76612000Y-95125000D01*
X76612000Y-95125000D02*
X76612000Y-96888000D01*
X76612000Y-96888000D02*
X76862000Y-97138000D01*
X76862000Y-98000000D02*
X76862000Y-94000000D01*
X76185000Y-98000000D02*
X76862000Y-98000000D01*
D12*
X76063000Y-93875000D02*
G75*
G03*
X76063000Y-93875000I-75000J0D01*
G01*
D10*
%TO.C,C35*%
X129107836Y-93360000D02*
X128892164Y-93360000D01*
X129107836Y-92640000D02*
X128892164Y-92640000D01*
%TO.C,C8*%
X85360000Y-90392164D02*
X85360000Y-90607836D01*
X84640000Y-90392164D02*
X84640000Y-90607836D01*
%TO.C,C1*%
X100107836Y-109860000D02*
X99892164Y-109860000D01*
X100107836Y-109140000D02*
X99892164Y-109140000D01*
%TO.C,C10*%
X75392164Y-102140000D02*
X75607836Y-102140000D01*
X75392164Y-102860000D02*
X75607836Y-102860000D01*
D11*
%TO.C,D21*%
X104622707Y-146451134D02*
X105083741Y-146912168D01*
X105208191Y-145865650D02*
X105241425Y-145832416D01*
X105241425Y-145832416D02*
X105594979Y-145832416D01*
X105594979Y-145832416D02*
X106841608Y-144585786D01*
X106841608Y-144585786D02*
X106841608Y-144232233D01*
X107451134Y-143622707D02*
X104622707Y-146451134D01*
X107929845Y-144101418D02*
X107451134Y-143622707D01*
D12*
X105227330Y-147157534D02*
G75*
G03*
X105227330Y-147157534I-75000J0D01*
G01*
D10*
%TO.C,C4*%
X87392164Y-102140000D02*
X87607836Y-102140000D01*
X87392164Y-102860000D02*
X87607836Y-102860000D01*
D11*
%TO.C,D13*%
X71377293Y-95548866D02*
X70916259Y-95087832D01*
X70791809Y-96134350D02*
X70758575Y-96167584D01*
X70758575Y-96167584D02*
X70405021Y-96167584D01*
X70405021Y-96167584D02*
X69158392Y-97414214D01*
X69158392Y-97414214D02*
X69158392Y-97767767D01*
X68548866Y-98377293D02*
X71377293Y-95548866D01*
X68070155Y-97898582D02*
X68548866Y-98377293D01*
D12*
X70922670Y-94842466D02*
G75*
G03*
X70922670Y-94842466I-75000J0D01*
G01*
D11*
%TO.C,D19*%
X98638000Y-138000000D02*
X99290000Y-138000000D01*
X98638000Y-137172000D02*
X98638000Y-137125000D01*
X98638000Y-137125000D02*
X98888000Y-136875000D01*
X98888000Y-136875000D02*
X98888000Y-135112000D01*
X98888000Y-135112000D02*
X98638000Y-134862000D01*
X98638000Y-134000000D02*
X98638000Y-138000000D01*
X99315000Y-134000000D02*
X98638000Y-134000000D01*
D12*
X99587000Y-138125000D02*
G75*
G03*
X99587000Y-138125000I-75000J0D01*
G01*
D11*
%TO.C,D29*%
X123138000Y-118000000D02*
X123790000Y-118000000D01*
X123138000Y-117172000D02*
X123138000Y-117125000D01*
X123138000Y-117125000D02*
X123388000Y-116875000D01*
X123388000Y-116875000D02*
X123388000Y-115112000D01*
X123388000Y-115112000D02*
X123138000Y-114862000D01*
X123138000Y-114000000D02*
X123138000Y-118000000D01*
X123815000Y-114000000D02*
X123138000Y-114000000D01*
D12*
X124087000Y-118125000D02*
G75*
G03*
X124087000Y-118125000I-75000J0D01*
G01*
D11*
%TO.C,D12*%
X76862000Y-124000000D02*
X76210000Y-124000000D01*
X76862000Y-124828000D02*
X76862000Y-124875000D01*
X76862000Y-124875000D02*
X76612000Y-125125000D01*
X76612000Y-125125000D02*
X76612000Y-126888000D01*
X76612000Y-126888000D02*
X76862000Y-127138000D01*
X76862000Y-128000000D02*
X76862000Y-124000000D01*
X76185000Y-128000000D02*
X76862000Y-128000000D01*
D12*
X76063000Y-123875000D02*
G75*
G03*
X76063000Y-123875000I-75000J0D01*
G01*
D10*
%TO.C,C9*%
X75392164Y-92140000D02*
X75607836Y-92140000D01*
X75392164Y-92860000D02*
X75607836Y-92860000D01*
%TO.C,C29*%
X124607836Y-119860000D02*
X124392164Y-119860000D01*
X124607836Y-119140000D02*
X124392164Y-119140000D01*
%TO.C,C7*%
X87392164Y-132140000D02*
X87607836Y-132140000D01*
X87392164Y-132860000D02*
X87607836Y-132860000D01*
%TO.C,C20*%
X99892164Y-142140000D02*
X100107836Y-142140000D01*
X99892164Y-142860000D02*
X100107836Y-142860000D01*
D11*
%TO.C,D7*%
X88862000Y-134000000D02*
X88210000Y-134000000D01*
X88862000Y-134828000D02*
X88862000Y-134875000D01*
X88862000Y-134875000D02*
X88612000Y-135125000D01*
X88612000Y-135125000D02*
X88612000Y-136888000D01*
X88612000Y-136888000D02*
X88862000Y-137138000D01*
X88862000Y-138000000D02*
X88862000Y-134000000D01*
X88185000Y-138000000D02*
X88862000Y-138000000D01*
D12*
X88063000Y-133875000D02*
G75*
G03*
X88063000Y-133875000I-75000J0D01*
G01*
D11*
%TO.C,D5*%
X88862000Y-114000000D02*
X88210000Y-114000000D01*
X88862000Y-114828000D02*
X88862000Y-114875000D01*
X88862000Y-114875000D02*
X88612000Y-115125000D01*
X88612000Y-115125000D02*
X88612000Y-116888000D01*
X88612000Y-116888000D02*
X88862000Y-117138000D01*
X88862000Y-118000000D02*
X88862000Y-114000000D01*
X88185000Y-118000000D02*
X88862000Y-118000000D01*
D12*
X88063000Y-113875000D02*
G75*
G03*
X88063000Y-113875000I-75000J0D01*
G01*
D10*
%TO.C,C36*%
X122360000Y-90392164D02*
X122360000Y-90607836D01*
X121640000Y-90392164D02*
X121640000Y-90607836D01*
D11*
%TO.C,D31*%
X123138000Y-98000000D02*
X123790000Y-98000000D01*
X123138000Y-97172000D02*
X123138000Y-97125000D01*
X123138000Y-97125000D02*
X123388000Y-96875000D01*
X123388000Y-96875000D02*
X123388000Y-95112000D01*
X123388000Y-95112000D02*
X123138000Y-94862000D01*
X123138000Y-94000000D02*
X123138000Y-98000000D01*
X123815000Y-94000000D02*
X123138000Y-94000000D01*
D12*
X124087000Y-98125000D02*
G75*
G03*
X124087000Y-98125000I-75000J0D01*
G01*
D11*
%TO.C,D2*%
X95451134Y-98377293D02*
X95912168Y-97916259D01*
X94865650Y-97791809D02*
X94832416Y-97758575D01*
X94832416Y-97758575D02*
X94832416Y-97405021D01*
X94832416Y-97405021D02*
X93585786Y-96158392D01*
X93585786Y-96158392D02*
X93232233Y-96158392D01*
X92622707Y-95548866D02*
X95451134Y-98377293D01*
X93101418Y-95070155D02*
X92622707Y-95548866D01*
D12*
X96232534Y-97847670D02*
G75*
G03*
X96232534Y-97847670I-75000J0D01*
G01*
D11*
%TO.C,D6*%
X88862000Y-124000000D02*
X88210000Y-124000000D01*
X88862000Y-124828000D02*
X88862000Y-124875000D01*
X88862000Y-124875000D02*
X88612000Y-125125000D01*
X88612000Y-125125000D02*
X88612000Y-126888000D01*
X88612000Y-126888000D02*
X88862000Y-127138000D01*
X88862000Y-128000000D02*
X88862000Y-124000000D01*
X88185000Y-128000000D02*
X88862000Y-128000000D01*
D12*
X88063000Y-123875000D02*
G75*
G03*
X88063000Y-123875000I-75000J0D01*
G01*
D11*
%TO.C,D16*%
X69548866Y-120622707D02*
X69087832Y-121083741D01*
X70134350Y-121208191D02*
X70167584Y-121241425D01*
X70167584Y-121241425D02*
X70167584Y-121594979D01*
X70167584Y-121594979D02*
X71414214Y-122841608D01*
X71414214Y-122841608D02*
X71767767Y-122841608D01*
X72377293Y-123451134D02*
X69548866Y-120622707D01*
X71898582Y-123929845D02*
X72377293Y-123451134D01*
D12*
X68917466Y-121152330D02*
G75*
G03*
X68917466Y-121152330I-75000J0D01*
G01*
D10*
%TO.C,C37*%
X107653180Y-93194317D02*
X107805683Y-93346820D01*
X107144063Y-93703434D02*
X107296566Y-93855937D01*
%TO.C,C13*%
X71653180Y-93194317D02*
X71805683Y-93346820D01*
X71144063Y-93703434D02*
X71296566Y-93855937D01*
%TO.C,C25*%
X112607836Y-109860000D02*
X112392164Y-109860000D01*
X112607836Y-109140000D02*
X112392164Y-109140000D01*
%TD*%
%LPC*%
D12*
X111000000Y-140000000D02*
X101500000Y-149500000D01*
X101500000Y-133000000D01*
X103500000Y-133000000D01*
X103500000Y-126500000D01*
X101500000Y-126500000D01*
X101500000Y-125500000D01*
X103500000Y-125500000D01*
X103500000Y-119000000D01*
X101500000Y-119000000D01*
X101500000Y-101500000D01*
X111000000Y-92000000D01*
X111000000Y-140000000D01*
G36*
X111000000Y-140000000D02*
G01*
X101500000Y-149500000D01*
X101500000Y-133000000D01*
X103500000Y-133000000D01*
X103500000Y-126500000D01*
X101500000Y-126500000D01*
X101500000Y-125500000D01*
X103500000Y-125500000D01*
X103500000Y-119000000D01*
X101500000Y-119000000D01*
X101500000Y-101500000D01*
X111000000Y-92000000D01*
X111000000Y-140000000D01*
G37*
X132500000Y-99500000D02*
X132500000Y-118500000D01*
X126000000Y-125000000D01*
X126000000Y-93000000D01*
X132500000Y-99500000D01*
G36*
X132500000Y-99500000D02*
G01*
X132500000Y-118500000D01*
X126000000Y-125000000D01*
X126000000Y-93000000D01*
X132500000Y-99500000D01*
G37*
X74000000Y-125000000D02*
X67500000Y-118500000D01*
X67500000Y-99500000D01*
X74000000Y-93000000D01*
X74000000Y-125000000D01*
G36*
X74000000Y-125000000D02*
G01*
X67500000Y-118500000D01*
X67500000Y-99500000D01*
X74000000Y-93000000D01*
X74000000Y-125000000D01*
G37*
X86000000Y-137000000D02*
X77000000Y-128000000D01*
X77000000Y-92000000D01*
X86000000Y-92000000D01*
X86000000Y-137000000D01*
G36*
X86000000Y-137000000D02*
G01*
X77000000Y-128000000D01*
X77000000Y-92000000D01*
X86000000Y-92000000D01*
X86000000Y-137000000D01*
G37*
X98500000Y-101500000D02*
X98500000Y-119000000D01*
X96500000Y-119000000D01*
X96500000Y-125500000D01*
X98500000Y-125500000D01*
X98500000Y-126500000D01*
X96500000Y-126500000D01*
X96500000Y-133000000D01*
X98500000Y-133000000D01*
X98500000Y-149500000D01*
X89000000Y-140000000D01*
X89000000Y-92000000D01*
X98500000Y-101500000D01*
G36*
X98500000Y-101500000D02*
G01*
X98500000Y-119000000D01*
X96500000Y-119000000D01*
X96500000Y-125500000D01*
X98500000Y-125500000D01*
X98500000Y-126500000D01*
X96500000Y-126500000D01*
X96500000Y-133000000D01*
X98500000Y-133000000D01*
X98500000Y-149500000D01*
X89000000Y-140000000D01*
X89000000Y-92000000D01*
X98500000Y-101500000D01*
G37*
X123000000Y-128000000D02*
X114000000Y-137000000D01*
X114000000Y-92000000D01*
X123000000Y-92000000D01*
X123000000Y-128000000D01*
G36*
X123000000Y-128000000D02*
G01*
X114000000Y-137000000D01*
X114000000Y-92000000D01*
X123000000Y-92000000D01*
X123000000Y-128000000D01*
G37*
D13*
%TO.C,C11*%
X75020000Y-112500000D03*
X75980000Y-112500000D03*
%TD*%
D14*
%TO.C,C27*%
X117864538Y-135814284D03*
X117185716Y-135135462D03*
%TD*%
D15*
%TO.C,D4*%
X87513000Y-104200000D03*
D16*
X87487000Y-105550000D03*
D17*
X87487000Y-106575000D03*
D18*
X87487000Y-107800000D03*
%TD*%
D19*
%TO.C,C2*%
X92839411Y-93160589D03*
X92160589Y-93839411D03*
%TD*%
D15*
%TO.C,D38*%
X100013000Y-114200000D03*
D16*
X99987000Y-115550000D03*
D17*
X99987000Y-116575000D03*
D18*
X99987000Y-117800000D03*
%TD*%
D20*
%TO.C,D34*%
X133987000Y-107800000D03*
D16*
X134013000Y-106450000D03*
D17*
X134013000Y-105425000D03*
D21*
X134013000Y-104200000D03*
%TD*%
D15*
%TO.C,D11*%
X75513000Y-114200000D03*
D16*
X75487000Y-115550000D03*
D17*
X75487000Y-116575000D03*
D18*
X75487000Y-117800000D03*
%TD*%
D22*
%TO.C,C17*%
X77185716Y-130864538D03*
X77864538Y-130185716D03*
%TD*%
D13*
%TO.C,C15*%
X65520000Y-112500000D03*
X66480000Y-112500000D03*
%TD*%
D23*
%TO.C,C26*%
X112980000Y-99500000D03*
X112020000Y-99500000D03*
%TD*%
D20*
%TO.C,D28*%
X124487000Y-127800000D03*
D16*
X124513000Y-126450000D03*
D17*
X124513000Y-125425000D03*
D21*
X124513000Y-124200000D03*
%TD*%
D15*
%TO.C,D10*%
X75513000Y-104200000D03*
D16*
X75487000Y-105550000D03*
D17*
X75487000Y-106575000D03*
D18*
X75487000Y-107800000D03*
%TD*%
D20*
%TO.C,D22*%
X112487000Y-137800000D03*
D16*
X112513000Y-136450000D03*
D17*
X112513000Y-135425000D03*
D21*
X112513000Y-134200000D03*
%TD*%
D23*
%TO.C,C28*%
X124980000Y-129500000D03*
X124020000Y-129500000D03*
%TD*%
D24*
%TO.C,D36*%
X120300000Y-90513000D03*
D25*
X118950000Y-90487000D03*
D26*
X117925000Y-90487000D03*
D27*
X116700000Y-90487000D03*
%TD*%
D22*
%TO.C,C18*%
X90185716Y-143864538D03*
X90864538Y-143185716D03*
%TD*%
D15*
%TO.C,D14*%
X66013000Y-104200000D03*
D16*
X65987000Y-105550000D03*
D17*
X65987000Y-106575000D03*
D18*
X65987000Y-107800000D03*
%TD*%
D20*
%TO.C,D23*%
X112487000Y-127800000D03*
D16*
X112513000Y-126450000D03*
D17*
X112513000Y-125425000D03*
D21*
X112513000Y-124200000D03*
%TD*%
D23*
%TO.C,C22*%
X112980000Y-139500000D03*
X112020000Y-139500000D03*
%TD*%
D20*
%TO.C,D30*%
X124487000Y-107800000D03*
D16*
X124513000Y-106450000D03*
D17*
X124513000Y-105425000D03*
D21*
X124513000Y-104200000D03*
%TD*%
D13*
%TO.C,C3*%
X87020000Y-92500000D03*
X87980000Y-92500000D03*
%TD*%
%TO.C,C38*%
X99520000Y-112500000D03*
X100480000Y-112500000D03*
%TD*%
D28*
%TO.C,J1*%
X97460000Y-122200000D03*
X97460000Y-129800000D03*
X100000000Y-122200000D03*
X100000000Y-129800000D03*
X102540000Y-122200000D03*
X102540000Y-129800000D03*
%TD*%
D29*
%TO.C,D17*%
X78736400Y-131718015D03*
D30*
X79672610Y-132690994D03*
D31*
X80397394Y-133415779D03*
D32*
X81263600Y-134281985D03*
%TD*%
D20*
%TO.C,D1*%
X99987000Y-107800000D03*
D16*
X100013000Y-106450000D03*
D17*
X100013000Y-105425000D03*
D21*
X100013000Y-104200000D03*
%TD*%
D23*
%TO.C,C34*%
X134480000Y-109500000D03*
X133520000Y-109500000D03*
%TD*%
D22*
%TO.C,C16*%
X67185716Y-120864538D03*
X67864538Y-120185716D03*
%TD*%
D15*
%TO.C,D20*%
X100013000Y-144200000D03*
D16*
X99987000Y-145550000D03*
D17*
X99987000Y-146575000D03*
D18*
X99987000Y-147800000D03*
%TD*%
D13*
%TO.C,C14*%
X65520000Y-102500000D03*
X66480000Y-102500000D03*
%TD*%
D14*
%TO.C,C32*%
X127864538Y-125814284D03*
X127185716Y-125135462D03*
%TD*%
D33*
%TO.C,D35*%
X132263600Y-97281985D03*
D34*
X131327390Y-96309006D03*
D35*
X130602606Y-95584221D03*
D36*
X129736400Y-94718015D03*
%TD*%
D13*
%TO.C,C12*%
X75020000Y-122500000D03*
X75980000Y-122500000D03*
%TD*%
D23*
%TO.C,C23*%
X112980000Y-129500000D03*
X112020000Y-129500000D03*
%TD*%
D15*
%TO.C,D15*%
X66013000Y-114200000D03*
D16*
X65987000Y-115550000D03*
D17*
X65987000Y-116575000D03*
D18*
X65987000Y-117800000D03*
%TD*%
D23*
%TO.C,C24*%
X112980000Y-119500000D03*
X112020000Y-119500000D03*
%TD*%
D37*
%TO.C,D27*%
X118718015Y-134263600D03*
D38*
X119690994Y-133327390D03*
D39*
X120415779Y-132602606D03*
D40*
X121281985Y-131736400D03*
%TD*%
D41*
%TO.C,D37*%
X106281985Y-94736400D03*
D42*
X105309006Y-95672610D03*
D43*
X104584221Y-96397394D03*
D44*
X103718015Y-97263600D03*
%TD*%
D23*
%TO.C,C30*%
X124980000Y-109500000D03*
X124020000Y-109500000D03*
%TD*%
D24*
%TO.C,D8*%
X83300000Y-90513000D03*
D25*
X81950000Y-90487000D03*
D26*
X80925000Y-90487000D03*
D27*
X79700000Y-90487000D03*
%TD*%
D20*
%TO.C,D33*%
X133987000Y-117800000D03*
D16*
X134013000Y-116450000D03*
D17*
X134013000Y-115425000D03*
D21*
X134013000Y-114200000D03*
%TD*%
D15*
%TO.C,D3*%
X87513000Y-94200000D03*
D16*
X87487000Y-95550000D03*
D17*
X87487000Y-96575000D03*
D18*
X87487000Y-97800000D03*
%TD*%
D13*
%TO.C,C6*%
X87020000Y-122500000D03*
X87980000Y-122500000D03*
%TD*%
D37*
%TO.C,D32*%
X128718015Y-124263600D03*
D38*
X129690994Y-123327390D03*
D39*
X130415779Y-122602606D03*
D40*
X131281985Y-121736400D03*
%TD*%
D23*
%TO.C,C19*%
X100480000Y-139500000D03*
X99520000Y-139500000D03*
%TD*%
D45*
%TO.C,C33*%
X135500000Y-116480000D03*
X135500000Y-115520000D03*
%TD*%
D20*
%TO.C,D25*%
X112487000Y-107800000D03*
D16*
X112513000Y-106450000D03*
D17*
X112513000Y-105425000D03*
D21*
X112513000Y-104200000D03*
%TD*%
D23*
%TO.C,C31*%
X124980000Y-99500000D03*
X124020000Y-99500000D03*
%TD*%
D14*
%TO.C,C21*%
X104864538Y-148814284D03*
X104185716Y-148135462D03*
%TD*%
D29*
%TO.C,D18*%
X91736400Y-144718015D03*
D30*
X92672610Y-145690994D03*
D31*
X93397394Y-146415779D03*
D32*
X94263600Y-147281985D03*
%TD*%
D20*
%TO.C,D26*%
X112487000Y-97800000D03*
D16*
X112513000Y-96450000D03*
D17*
X112513000Y-95425000D03*
D21*
X112513000Y-94200000D03*
%TD*%
D20*
%TO.C,D24*%
X112487000Y-117800000D03*
D16*
X112513000Y-116450000D03*
D17*
X112513000Y-115425000D03*
D21*
X112513000Y-114200000D03*
%TD*%
D13*
%TO.C,C5*%
X87020000Y-112500000D03*
X87980000Y-112500000D03*
%TD*%
D15*
%TO.C,D9*%
X75513000Y-94200000D03*
D16*
X75487000Y-95550000D03*
D17*
X75487000Y-96575000D03*
D18*
X75487000Y-97800000D03*
%TD*%
D23*
%TO.C,C35*%
X129480000Y-93000000D03*
X128520000Y-93000000D03*
%TD*%
D46*
%TO.C,C8*%
X85000000Y-90020000D03*
X85000000Y-90980000D03*
%TD*%
D23*
%TO.C,C1*%
X100480000Y-109500000D03*
X99520000Y-109500000D03*
%TD*%
D13*
%TO.C,C10*%
X75020000Y-102500000D03*
X75980000Y-102500000D03*
%TD*%
D37*
%TO.C,D21*%
X105718015Y-147263600D03*
D38*
X106690994Y-146327390D03*
D39*
X107415779Y-145602606D03*
D40*
X108281985Y-144736400D03*
%TD*%
D13*
%TO.C,C4*%
X87020000Y-102500000D03*
X87980000Y-102500000D03*
%TD*%
D41*
%TO.C,D13*%
X70281985Y-94736400D03*
D42*
X69309006Y-95672610D03*
D43*
X68584221Y-96397394D03*
D44*
X67718015Y-97263600D03*
%TD*%
D20*
%TO.C,D19*%
X99987000Y-137800000D03*
D16*
X100013000Y-136450000D03*
D17*
X100013000Y-135425000D03*
D21*
X100013000Y-134200000D03*
%TD*%
D20*
%TO.C,D29*%
X124487000Y-117800000D03*
D16*
X124513000Y-116450000D03*
D17*
X124513000Y-115425000D03*
D21*
X124513000Y-114200000D03*
%TD*%
D15*
%TO.C,D12*%
X75513000Y-124200000D03*
D16*
X75487000Y-125550000D03*
D17*
X75487000Y-126575000D03*
D18*
X75487000Y-127800000D03*
%TD*%
D13*
%TO.C,C9*%
X75020000Y-92500000D03*
X75980000Y-92500000D03*
%TD*%
D23*
%TO.C,C29*%
X124980000Y-119500000D03*
X124020000Y-119500000D03*
%TD*%
D13*
%TO.C,C7*%
X87020000Y-132500000D03*
X87980000Y-132500000D03*
%TD*%
%TO.C,C20*%
X99520000Y-142500000D03*
X100480000Y-142500000D03*
%TD*%
D15*
%TO.C,D7*%
X87513000Y-134200000D03*
D16*
X87487000Y-135550000D03*
D17*
X87487000Y-136575000D03*
D18*
X87487000Y-137800000D03*
%TD*%
D15*
%TO.C,D5*%
X87513000Y-114200000D03*
D16*
X87487000Y-115550000D03*
D17*
X87487000Y-116575000D03*
D18*
X87487000Y-117800000D03*
%TD*%
D46*
%TO.C,C36*%
X122000000Y-90020000D03*
X122000000Y-90980000D03*
%TD*%
D20*
%TO.C,D31*%
X124487000Y-97800000D03*
D16*
X124513000Y-96450000D03*
D17*
X124513000Y-95425000D03*
D21*
X124513000Y-94200000D03*
%TD*%
D33*
%TO.C,D2*%
X96263600Y-97281985D03*
D34*
X95327390Y-96309006D03*
D35*
X94602606Y-95584221D03*
D36*
X93736400Y-94718015D03*
%TD*%
D15*
%TO.C,D6*%
X87513000Y-124200000D03*
D16*
X87487000Y-125550000D03*
D17*
X87487000Y-126575000D03*
D18*
X87487000Y-127800000D03*
%TD*%
D29*
%TO.C,D16*%
X68736400Y-121718015D03*
D30*
X69672610Y-122690994D03*
D31*
X70397394Y-123415779D03*
D32*
X71263600Y-124281985D03*
%TD*%
D47*
%TO.C,C37*%
X107135462Y-93185716D03*
X107814284Y-93864538D03*
%TD*%
%TO.C,C13*%
X71135462Y-93185716D03*
X71814284Y-93864538D03*
%TD*%
D23*
%TO.C,C25*%
X112980000Y-109500000D03*
X112020000Y-109500000D03*
%TD*%
%LPD*%
M02*
