M48
; DRILL file {KiCad 7.0.7} date 2023-11-30T00:30:33 CET
; FORMAT={-:-/ absolute / metric / decimal}
; #@! TF.CreationDate,2023-11-30T00:30:33+01:00
; #@! TF.GenerationSoftware,Kicad,Pcbnew,7.0.7
; #@! TF.FileFunction,Plated,1,2,PTH
FMAT,2
METRIC
; #@! TA.AperFunction,Plated,PTH,ViaDrill
T1C0.254
%
G90
G05
T1
X63.5Y-112.5
X64.0Y-111.5
X64.0Y-113.5
X64.5Y-106.0
X65.5Y-101.5
X66.5Y-101.5
X66.5Y-120.0
X67.0Y-119.5
X69.0Y-124.0
X71.0Y-92.0
X71.5Y-125.5
X72.0Y-91.0
X72.0Y-92.0
X75.0Y-91.5
X75.0Y-101.5
X75.0Y-111.5
X75.0Y-121.5
X76.0Y-101.5
X76.0Y-111.5
X76.0Y-121.5
X76.5Y-128.5
X76.5Y-129.5
X76.5Y-130.5
X82.5Y-135.0
X86.0Y-90.0
X86.0Y-91.0
X86.5Y-139.5
X87.0Y-90.5
X87.0Y-91.5
X87.0Y-101.5
X87.0Y-111.5
X87.0Y-121.5
X87.0Y-131.5
X88.0Y-101.5
X88.0Y-111.5
X88.0Y-121.5
X88.0Y-131.5
X91.5Y-93.0
X92.0Y-92.0
X99.0Y-102.5
X99.0Y-118.0
X99.0Y-127.5
X99.0Y-128.5
X99.0Y-129.5
X99.0Y-130.5
X99.0Y-131.5
X99.0Y-132.5
X99.5Y-101.0
X99.5Y-110.5
X99.5Y-111.5
X99.5Y-140.5
X99.5Y-141.5
X100.0Y-102.5
X100.0Y-126.0
X100.0Y-150.0
X100.0Y-152.0
X100.5Y-99.5
X100.5Y-110.5
X100.5Y-111.5
X100.5Y-140.5
X100.5Y-141.5
X100.5Y-151.0
X107.5Y-91.5
X112.0Y-100.5
X112.0Y-110.5
X112.0Y-120.5
X112.0Y-130.5
X112.0Y-140.5
X113.0Y-100.5
X113.0Y-110.5
X113.0Y-120.5
X113.0Y-130.5
X113.0Y-140.5
X113.0Y-141.5
X117.0Y-137.5
X120.5Y-89.0
X121.5Y-88.5
X124.0Y-100.5
X124.0Y-110.5
X124.0Y-120.5
X124.0Y-130.5
X124.5Y-93.0
X125.0Y-100.5
X125.0Y-110.5
X125.0Y-120.5
X125.5Y-93.0
X126.0Y-129.0
X126.5Y-92.0
X128.0Y-127.0
X129.5Y-92.0
X135.5Y-117.5
X136.0Y-108.5
X136.0Y-110.5
X136.0Y-114.5
X137.0Y-109.5
X137.0Y-114.0
T0
M30
