M48
; DRILL file {KiCad 7.0.7} date 2023-08-27T20:39:15 CEST
; FORMAT={-:-/ absolute / metric / decimal}
; #@! TF.CreationDate,2023-08-27T20:39:15+02:00
; #@! TF.GenerationSoftware,Kicad,Pcbnew,7.0.7
; #@! TF.FileFunction,Plated,1,2,PTH
FMAT,2
METRIC
; #@! TA.AperFunction,Plated,PTH,ViaDrill
T1C0.254
%
G90
G05
T1
X64.0Y-108.5
X64.0Y-109.5
X65.5Y-118.5
X66.0Y-98.0
X66.5Y-99.0
X66.5Y-118.5
X69.0Y-123.5
X71.5Y-125.5
X71.5Y-127.0
X73.5Y-127.5
X74.0Y-128.5
X74.5Y-92.0
X75.0Y-91.5
X75.0Y-110.5
X75.0Y-111.5
X75.5Y-90.0
X75.5Y-90.0
X76.0Y-111.5
X76.5Y-89.5
X76.5Y-130.5
X81.5Y-133.0
X82.5Y-136.5
X83.5Y-137.5
X84.0Y-137.0
X86.0Y-90.0
X87.0Y-100.5
X87.0Y-120.5
X87.0Y-141.0
X87.5Y-143.0
X87.5Y-144.0
X88.0Y-100.5
X88.0Y-101.5
X88.0Y-120.5
X88.0Y-121.5
X89.0Y-146.0
X91.0Y-91.0
X91.0Y-92.0
X99.0Y-141.5
X99.0Y-142.5
X99.0Y-160.0
X99.5Y-110.5
X99.5Y-130.5
X100.0Y-148.0
X100.5Y-110.5
X100.5Y-111.5
X100.5Y-130.5
X100.5Y-131.5
X101.5Y-98.5
X101.5Y-99.5
X105.0Y-155.5
X107.5Y-151.5
X110.0Y-147.0
X111.5Y-146.0
X112.0Y-90.5
X112.0Y-91.5
X112.0Y-110.5
X112.0Y-111.5
X112.0Y-130.5
X112.0Y-131.5
X112.0Y-141.5
X112.0Y-143.0
X112.5Y-141.0
X113.0Y-89.5
X113.0Y-91.5
X113.0Y-111.5
X113.0Y-130.5
X113.0Y-131.5
X113.5Y-140.5
X123.0Y-133.0
X124.0Y-100.5
X124.0Y-120.5
X124.0Y-131.0
X125.0Y-100.5
X125.0Y-101.5
X125.0Y-120.5
X125.0Y-121.5
X126.0Y-129.0
X126.5Y-92.0
X127.5Y-91.5
X133.5Y-121.0
X134.0Y-98.5
X136.0Y-104.0
X136.5Y-109.0
X137.0Y-108.0
X137.5Y-113.0
T0
M30
