M48
; DRILL file {KiCad 8.99.0-77eaa75db1} date 2024-12-04T17:56:56+0100
; FORMAT={-:-/ absolute / metric / decimal}
; #@! TF.CreationDate,2024-12-04T17:56:56+01:00
; #@! TF.GenerationSoftware,Kicad,Pcbnew,8.99.0-77eaa75db1
; #@! TF.FileFunction,Plated,1,2,PTH
FMAT,2
METRIC
; #@! TA.AperFunction,Plated,PTH,ViaDrill
T1C0.254
%
G90
G05
T1
X63.0Y-109.5
X63.0Y-114.0
X64.0Y-108.5
X64.0Y-110.5
X64.0Y-114.5
X65.5Y-119.0
X70.5Y-92.0
X72.0Y-127.0
X73.5Y-92.0
X74.0Y-129.0
X74.5Y-93.0
X75.0Y-100.5
X75.0Y-110.5
X75.0Y-120.5
X75.5Y-93.0
X76.0Y-100.5
X76.0Y-110.5
X76.0Y-120.5
X76.0Y-130.5
X76.5Y-90.0
X78.5Y-88.5
X79.5Y-89.0
X83.0Y-137.5
X86.5Y-89.0
X87.0Y-100.5
X87.0Y-110.5
X87.0Y-120.5
X87.0Y-130.5
X87.0Y-140.5
X87.0Y-141.5
X88.0Y-90.5
X88.0Y-92.5
X88.0Y-100.5
X88.0Y-110.5
X88.0Y-120.5
X88.0Y-130.5
X88.0Y-140.5
X89.5Y-146.5
X92.5Y-91.5
X94.5Y-153.0
X95.5Y-155.5
X99.5Y-99.5
X99.5Y-110.5
X99.5Y-111.5
X99.5Y-140.5
X99.5Y-141.5
X99.5Y-154.0
X100.0Y-102.5
X100.0Y-126.0
X100.0Y-153.0
X100.0Y-155.0
X100.5Y-101.0
X100.5Y-110.5
X100.5Y-111.5
X100.5Y-140.5
X100.5Y-141.5
X101.0Y-102.5
X101.0Y-118.0
X101.0Y-127.5
X101.0Y-128.5
X101.0Y-129.5
X101.0Y-130.5
X101.0Y-131.5
X101.0Y-132.5
X105.5Y-153.5
X107.5Y-152.0
X108.5Y-92.0
X108.5Y-93.0
X110.5Y-147.0
X112.0Y-101.5
X112.0Y-111.5
X112.0Y-121.5
X112.0Y-131.5
X112.5Y-140.5
X113.0Y-90.5
X113.0Y-91.5
X113.0Y-101.5
X113.0Y-111.5
X113.0Y-121.5
X113.0Y-131.5
X113.0Y-142.0
X114.0Y-90.0
X114.0Y-91.0
X117.5Y-135.0
X123.5Y-128.5
X123.5Y-129.5
X123.5Y-130.5
X124.0Y-101.5
X124.0Y-111.5
X124.0Y-121.5
X125.0Y-91.5
X125.0Y-101.5
X125.0Y-111.5
X125.0Y-121.5
X128.0Y-91.0
X128.0Y-92.0
X128.5Y-125.5
X129.0Y-92.0
X131.0Y-124.0
X133.0Y-119.5
X133.5Y-101.5
X133.5Y-120.0
X134.5Y-101.5
X135.5Y-106.0
X136.0Y-111.5
X136.0Y-113.5
X136.5Y-112.5
M30
