<?xml version="1.0" encoding="UTF-8" standalone="no"?>
<svg
   version="1.1"
   id="svg5843"
   viewBox="0 0 37.863982 37.734411"
   height="10.649489mm"
   width="10.686057mm"
   sodipodi:docname="33c3-herz-green.svg"
   inkscape:version="1.2.2 (b0a8486541, 2022-12-01)"
   xmlns:inkscape="http://www.inkscape.org/namespaces/inkscape"
   xmlns:sodipodi="http://sodipodi.sourceforge.net/DTD/sodipodi-0.dtd"
   xmlns="http://www.w3.org/2000/svg"
   xmlns:svg="http://www.w3.org/2000/svg"
   xmlns:rdf="http://www.w3.org/1999/02/22-rdf-syntax-ns#"
   xmlns:cc="http://creativecommons.org/ns#"
   xmlns:dc="http://purl.org/dc/elements/1.1/">
  <sodipodi:namedview
     id="namedview196"
     pagecolor="#ffffff"
     bordercolor="#666666"
     borderopacity="1.0"
     inkscape:showpageshadow="2"
     inkscape:pageopacity="0.0"
     inkscape:pagecheckerboard="0"
     inkscape:deskcolor="#d1d1d1"
     inkscape:document-units="mm"
     showgrid="false"
     inkscape:zoom="15.751538"
     inkscape:cx="20.188505"
     inkscape:cy="20.125019"
     inkscape:window-width="1436"
     inkscape:window-height="843"
     inkscape:window-x="0"
     inkscape:window-y="0"
     inkscape:window-maximized="1"
     inkscape:current-layer="layer1" />
  <defs
     id="defs5845" />
  <metadata
     id="metadata5848">
    <rdf:RDF>
      <cc:Work
         rdf:about="">
        <dc:format>image/svg+xml</dc:format>
        <dc:type
           rdf:resource="http://purl.org/dc/dcmitype/StillImage" />
      </cc:Work>
    </rdf:RDF>
  </metadata>
  <g
     transform="translate(-90.107408,-69.203633)"
     id="layer1">
    <path
       id="path6402"
       d="m 108.89919,106.83245 c -0.0409,-0.72904 0.026,-1.12424 0.27049,-1.59667 0.16072,-0.31057 0.21414,-0.52213 0.14294,-0.56613 -0.0377,-0.0233 -0.0376,-0.0544 6.3e-4,-0.13819 0.0271,-0.0595 0.0646,-0.10814 0.0834,-0.10814 0.0568,0 0.0384,-0.0905 -0.0347,-0.17133 -0.05,-0.0553 -0.0695,-0.15246 -0.0712,-0.35559 -0.002,-0.30255 -0.0402,-0.38786 -0.12193,-0.27605 -0.0286,0.0391 -0.0606,0.0711 -0.0712,0.0711 -0.0434,0 0.01,-0.41417 0.0674,-0.52589 0.0831,-0.16062 0.0787,-0.206 -0.02,-0.206 -0.0737,0 -0.0816,-0.0237 -0.075,-0.22591 0.006,-0.19915 0.0242,-0.24274 0.14945,-0.36798 0.10195,-0.10194 0.12963,-0.15449 0.098,-0.18608 -0.0741,-0.0741 -0.15204,-0.0106 -0.2749,0.224 -0.0647,0.12351 -0.12839,0.21787 -0.14162,0.20969 -0.0132,-0.008 -0.0115,-0.12116 0.004,-0.25106 0.0153,-0.12991 0.0192,-0.28381 0.009,-0.34202 -0.0111,-0.0612 0.016,-0.17484 0.0642,-0.26938 0.0459,-0.09 0.12043,-0.2609 0.16563,-0.37988 0.0747,-0.1966 0.0764,-0.22271 0.0187,-0.28643 -0.0391,-0.0432 -0.0684,-0.16649 -0.0763,-0.32138 -0.007,-0.1382 -0.0315,-0.26986 -0.0542,-0.29257 -0.0279,-0.028 -0.0216,-0.0956 0.0195,-0.20942 0.0472,-0.13057 0.0548,-0.265759 0.0338,-0.605227 -0.0177,-0.28684 -0.0128,-0.43709 0.0143,-0.43709 0.0649,0 0.10531,-0.16502 0.0921,-0.37596 -0.009,-0.14601 0.004,-0.19897 0.0521,-0.21759 0.0571,-0.0219 0.0575,-0.034 0.004,-0.11085 -0.0769,-0.10976 -0.0778,-0.23079 -0.002,-0.23079 0.10531,0 0.11444,-0.0854 0.0199,-0.18598 -0.051,-0.0542 -0.0771,-0.0986 -0.0582,-0.0986 0.019,0 -0.005,-0.0424 -0.0539,-0.0941 -0.0817,-0.087 -0.0851,-0.11183 -0.0453,-0.32741 0.0327,-0.17696 0.0307,-0.26958 -0.008,-0.38364 -0.0283,-0.0827 -0.0455,-0.16865 -0.0382,-0.19101 0.0381,-0.11654 0.072,-0.65622 0.0434,-0.6913 -0.0183,-0.0224 -0.0322,-0.24197 -0.0309,-0.48792 0.001,-0.24596 -0.0115,-0.47954 -0.0284,-0.51908 -0.0169,-0.0395 -0.009,-0.12526 0.0184,-0.19051 0.0342,-0.0826 0.0412,-0.25428 0.0231,-0.56498 -0.0162,-0.27819 -0.0109,-0.45569 0.014,-0.47111 0.0571,-0.0353 0.01,-0.58354 -0.0647,-0.74962 -0.0601,-0.13401 -0.11104,-0.81781 -0.0974,-1.30637 0.003,-0.12299 0.0141,-0.73443 0.0237,-1.35874 0.0122,-0.79227 0.0316,-1.1438 0.0641,-1.1639 0.0261,-0.0161 0.035,-0.0654 0.0203,-0.11178 -0.0331,-0.1042 0.0319,-0.14749 0.13689,-0.0913 0.0753,0.0403 0.0796,0.0309 0.0692,-0.15059 -0.009,-0.1652 -0.0244,-0.19551 -0.10195,-0.20684 -0.10054,-0.0147 -0.16783,-0.14899 -0.16783,-0.33498 0,-0.0656 -0.0205,-0.11933 -0.0456,-0.11933 -0.0323,0 -0.0369,-0.0918 -0.0157,-0.31512 0.0164,-0.17332 0.0248,-0.37001 0.0186,-0.4371 -0.0158,-0.17203 -0.0146,-0.31092 0.0168,-1.93136 0.0303,-1.56147 0.0423,-1.79206 0.1053,-2.026 0.0227,-0.0844 0.0391,-0.25318 0.0364,-0.37504 -0.006,-0.24751 0.0441,-1.2923 0.076,-1.59983 0.0162,-0.15581 0.006,-0.20711 -0.0449,-0.23582 -0.0363,-0.0203 -0.0656,-0.0882 -0.0656,-0.152 0,-0.0634 -0.0273,-0.16772 -0.0607,-0.23177 -0.0334,-0.0641 -0.0607,-0.16221 -0.0607,-0.21812 0,-0.0559 0.0273,-0.15406 0.0607,-0.21811 0.0334,-0.0641 0.0607,-0.18311 0.0607,-0.26456 0,-0.0815 0.0177,-0.20965 0.0392,-0.28487 0.0534,-0.18637 0.0954,-0.94019 0.0524,-0.94019 -0.0191,0 -0.0574,0.0227 -0.0851,0.0505 -0.0402,0.0402 -0.0583,0.0381 -0.0888,-0.0102 -0.0628,-0.0994 -0.0601,-0.57667 0.004,-0.6964 0.0599,-0.11189 0.0886,-0.76703 0.0337,-0.76703 -0.0319,0 -0.0405,-0.0596 -0.0264,-0.18442 0.0168,-0.14868 0.002,-0.21177 -0.075,-0.32556 -0.0901,-0.13275 -0.0934,-0.15868 -0.0555,-0.43566 0.0556,-0.40691 0.0983,-0.60526 0.15128,-0.70378 0.0249,-0.0462 0.13001,-0.29321 0.23366,-0.54891 0.10366,-0.25571 0.2146,-0.50545 0.24654,-0.55498 0.0319,-0.0495 0.0581,-0.14734 0.0581,-0.21735 0,-0.07 0.0333,-0.17587 0.074,-0.23523 0.0407,-0.0594 0.10523,-0.19208 0.14334,-0.29494 0.0381,-0.10286 0.13018,-0.25839 0.2046,-0.34561 0.0744,-0.0872 0.16827,-0.22264 0.20855,-0.30091 0.10876,-0.21131 0.31005,-0.44795 0.4368,-0.5135 0.0615,-0.0318 0.11181,-0.0773 0.11181,-0.10116 0,-0.0818 0.40886,-0.59312 0.51175,-0.64001 0.0597,-0.0272 0.13599,-0.12166 0.18164,-0.22485 0.085,-0.19214 0.15056,-0.22674 0.43149,-0.22766 0.15967,-5.2e-4 0.18007,-0.0148 0.35655,-0.24957 0.17579,-0.23385 0.44092,-0.48287 0.51412,-0.48287 0.018,0 0.044,0.0183 0.0578,0.0407 0.0508,0.0821 0.11022,0.0397 0.085,-0.0607 -0.0178,-0.0707 0.006,-0.15063 0.0774,-0.26429 0.0861,-0.13634 0.12472,-0.16294 0.23676,-0.16294 0.0782,0 0.18997,-0.0414 0.26861,-0.0994 0.12287,-0.0907 0.37789,-0.18471 0.66209,-0.2442 0.0693,-0.0145 0.15479,-0.088 0.23068,-0.1983 0.12354,-0.17956 0.3093,-0.27132 0.5493,-0.27132 0.15098,0 0.19619,0.1401 0.19614,0.6078 -2e-5,0.25785 0.0184,0.41227 0.056,0.46963 0.0308,0.047 0.0687,0.16689 0.0843,0.2664 0.0353,0.22588 0.0307,1.10612 -0.007,1.30463 -0.0154,0.0813 -0.0106,0.18195 0.0106,0.22363 0.0465,0.0915 -0.0133,0.82685 -0.0721,0.88563 -0.0525,0.0525 -0.0519,0.19849 7.2e-4,0.166 0.0227,-0.014 0.0404,0.0164 0.04,0.0688 -4.6e-4,0.0682 -0.0102,0.0788 -0.0356,0.0387 -0.0244,-0.0384 -0.0434,-0.0415 -0.0628,-0.0102 -0.0371,0.0601 0.012,0.13462 0.0665,0.10094 0.0301,-0.0186 0.0385,0.16394 0.0277,0.59894 l -0.0155,0.62564 0.0928,0.005 c 0.051,0.003 0.10075,0.0128 0.11051,0.0225 0.0449,0.0449 0.0299,0.92031 -0.0182,1.0654 -0.0393,0.11837 -0.0406,0.16452 -0.005,0.18645 0.0353,0.0218 0.0318,0.10474 -0.0141,0.33061 -0.0782,0.38461 -0.09,0.64536 -0.0339,0.7498 0.0299,0.0558 0.0311,0.10578 0.004,0.15487 -0.0443,0.0791 -0.0534,0.80926 -0.0122,0.97349 0.0141,0.056 0.008,0.11276 -0.0137,0.1261 -0.023,0.0142 -0.0343,0.24721 -0.0273,0.56351 0.0186,0.83933 0.0661,2.14841 0.0845,2.32833 0.009,0.0894 0.0256,1.7179 0.0366,3.61876 0.011,1.90087 0.0261,3.74253 0.0335,4.09257 0.0133,0.62562 0.0153,0.63807 0.11899,0.73189 0.10224,0.0925 0.10414,0.10291 0.0619,0.3394 -0.024,0.13418 -0.0485,0.47268 -0.0546,0.75222 -0.006,0.27954 -0.0199,0.94738 -0.0307,1.4841 -0.0108,0.53671 -0.0397,1.23201 -0.0641,1.54509 -0.0244,0.31308 -0.0623,0.79796 -0.0843,1.0775 -0.022,0.27954 -0.0404,0.57629 -0.0409,0.65945 -7.5e-4,0.12313 -0.0133,0.14646 -0.0675,0.12566 -0.0545,-0.0209 -0.0633,-0.004 -0.0487,0.0958 0.0101,0.069 -0.005,0.14262 -0.0351,0.17073 -0.0729,0.0681 -0.0664,0.29351 0.0118,0.40517 0.12354,0.17638 0.0111,0.68175 -0.22772,1.02349 -0.11006,0.15748 -0.28429,0.62281 -0.28429,0.75927 0,0.0691 -0.0339,0.15334 -0.0776,0.19288 -0.0427,0.0386 -0.10143,0.12777 -0.13056,0.19809 -0.0291,0.0703 -0.17745,0.2453 -0.32961,0.38883 -0.15215,0.14353 -0.28741,0.30388 -0.30057,0.35634 -0.0132,0.0524 -0.10895,0.157087 -0.21286,0.232527 -0.10391,0.0754 -0.22552,0.20845 -0.27023,0.29558 -0.0447,0.0871 -0.14167,0.23874 -0.21545,0.33692 -0.10608,0.14117 -0.1288,0.20283 -0.1086,0.29478 0.0213,0.0971 0.0124,0.11628 -0.0543,0.11628 -0.0572,0 -0.11109,0.0662 -0.19038,0.2338 -0.12386,0.26185 -0.50021,0.87191 -0.93619,1.51754 -0.15966,0.23643 -0.30187,0.46006 -0.31603,0.49696 -0.034,0.0885 -0.43352,0.67705 -0.53013,0.78089 -0.0416,0.0447 -0.13854,0.20536 -0.21539,0.35697 -0.11135,0.21967 -0.17046,0.2896 -0.29109,0.3444 -0.0832,0.0378 -0.15721,0.0721 -0.16435,0.0762 -0.007,0.004 0.009,0.0432 0.0367,0.087 0.0411,0.0658 0.0363,0.0979 -0.0277,0.18566 -0.0425,0.0583 -0.0919,0.10666 -0.10964,0.10736 -0.0627,0.002 -0.21866,0.18777 -0.41188,0.4892 -0.10751,0.16773 -0.22988,0.3507 -0.27193,0.40661 -0.0421,0.0559 -0.11563,0.17484 -0.16353,0.26429 -0.11699,0.2185 -0.22717,0.35573 -0.33345,0.41533 -0.12764,0.0716 -0.14508,0.0647 -0.15206,-0.0596 z m 0.42994,-9.158737 c 0.0138,-0.0224 -0.0136,-0.0407 -0.061,-0.0407 -0.0474,0 -0.0748,0.0183 -0.061,0.0407 0.0138,0.0224 0.0413,0.0407 0.061,0.0407 0.0197,0 0.0472,-0.0183 0.061,-0.0407 z m -0.18422,-5.0622 c 0,-0.0224 -0.0177,-0.0132 -0.0394,0.0203 -0.0217,0.0335 -0.0394,0.0793 -0.0394,0.10165 0,0.0224 0.0177,0.0132 0.0394,-0.0203 0.0217,-0.0335 0.0394,-0.0793 0.0394,-0.10165 z m 0.0242,11.759237 c 0.0153,-0.0401 0.038,-0.0627 0.0505,-0.0502 0.0125,0.0125 3e-5,0.0453 -0.0278,0.0729 -0.0402,0.0399 -0.0448,0.0352 -0.0228,-0.0228 z m 5.94167,-6.397747 c -0.0325,-0.0325 0.004,-0.096 0.0555,-0.096 0.021,0 0.0383,0.0274 0.0383,0.061 0,0.0629 -0.048,0.0808 -0.0938,0.035 z m -6.06638,-8.83798 c -0.0332,-0.0536 0.0155,-0.12979 0.0638,-0.0999 0.0494,0.0305 0.0491,0.14057 -4.1e-4,0.14057 -0.021,0 -0.0496,-0.0183 -0.0634,-0.0407 z m -0.1391,-4.78097 c 0.002,-0.0474 0.0116,-0.057 0.0246,-0.0246 0.0118,0.0293 0.0103,0.0644 -0.003,0.0779 -0.0135,0.0135 -0.0231,-0.0105 -0.0214,-0.0534 z m -0.003,-0.32427 c 0,-0.0349 0.0186,-0.0519 0.0413,-0.0378 0.0227,0.014 0.0308,0.0426 0.0179,0.0634 -0.0349,0.0564 -0.0593,0.0459 -0.0593,-0.0255 z m 1.27095,-10.822 c -0.0368,-0.0132 -0.0391,-0.0393 -0.009,-0.0962 0.0539,-0.10077 0.12023,-0.10029 0.12023,8.9e-4 0,0.0895 -0.0377,0.12175 -0.11149,0.0953 z m 3.43547,-2.88581 c -0.0391,-0.0102 -0.0712,-0.0368 -0.0712,-0.059 0,-0.0578 0.21405,-0.0247 0.23405,0.0362 0.0167,0.051 -0.0301,0.0575 -0.16289,0.0228 z"
       style="fill:#008026;fill-opacity:1" />
  </g>
</svg>
