<?xml version="1.0" encoding="UTF-8" standalone="no"?>
<svg
   version="1.1"
   id="svg5843"
   viewBox="0 0 37.863982 37.734411"
   height="10.649489mm"
   width="10.686057mm"
   sodipodi:docname="33c3-herz-yellow.svg"
   inkscape:version="1.2.2 (b0a8486541, 2022-12-01)"
   xmlns:inkscape="http://www.inkscape.org/namespaces/inkscape"
   xmlns:sodipodi="http://sodipodi.sourceforge.net/DTD/sodipodi-0.dtd"
   xmlns="http://www.w3.org/2000/svg"
   xmlns:svg="http://www.w3.org/2000/svg"
   xmlns:rdf="http://www.w3.org/1999/02/22-rdf-syntax-ns#"
   xmlns:cc="http://creativecommons.org/ns#"
   xmlns:dc="http://purl.org/dc/elements/1.1/">
  <sodipodi:namedview
     id="namedview196"
     pagecolor="#ffffff"
     bordercolor="#666666"
     borderopacity="1.0"
     inkscape:showpageshadow="2"
     inkscape:pageopacity="0.0"
     inkscape:pagecheckerboard="0"
     inkscape:deskcolor="#d1d1d1"
     inkscape:document-units="mm"
     showgrid="false"
     inkscape:zoom="15.751538"
     inkscape:cx="20.188505"
     inkscape:cy="20.125019"
     inkscape:window-width="1436"
     inkscape:window-height="843"
     inkscape:window-x="0"
     inkscape:window-y="0"
     inkscape:window-maximized="1"
     inkscape:current-layer="layer1" />
  <defs
     id="defs5845" />
  <metadata
     id="metadata5848">
    <rdf:RDF>
      <cc:Work
         rdf:about="">
        <dc:format>image/svg+xml</dc:format>
        <dc:type
           rdf:resource="http://purl.org/dc/dcmitype/StillImage" />
      </cc:Work>
    </rdf:RDF>
  </metadata>
  <g
     transform="translate(-90.107408,-69.203633)"
     id="layer1">
    <path
       id="path6402-6"
       d="m 108.11862,106.20302 c -0.033,-0.0263 -0.0776,-0.099 -0.0992,-0.16135 -0.0514,-0.14851 -0.22617,-0.22406 -0.32358,-0.13981 -0.0738,0.0637 -0.12416,0.0429 -0.12206,-0.0504 6.9e-4,-0.0305 -0.0614,-0.11565 -0.13808,-0.18924 -0.0767,-0.0735 -0.13865,-0.16368 -0.13782,-0.20022 0.002,-0.0929 -0.11215,-0.1819 -0.21859,-0.17038 -0.0749,0.008 -0.10423,-0.0306 -0.18158,-0.2388 -0.0618,-0.16631 -0.16957,-0.33414 -0.32608,-0.50758 -0.2349,-0.2603 -0.49696,-0.74914 -0.49311,-0.9198 0.002,-0.10004 -0.17628,-0.53485 -0.23537,-0.57324 -0.0215,-0.014 -0.0271,-0.0603 -0.0126,-0.10291 0.0171,-0.0501 -0.0185,-0.15056 -0.10091,-0.28424 -0.1069,-0.17342 -0.15225,-0.21128 -0.28142,-0.23493 -0.0847,-0.0155 -0.17174,-0.0506 -0.19345,-0.078 -0.0555,-0.0701 -0.26954,-0.72389 -0.26766,-0.8177 9.6e-4,-0.0427 -0.0735,-0.18164 -0.16522,-0.30876 -0.0926,-0.12841 -0.16029,-0.26522 -0.1522,-0.30779 0.009,-0.0501 -0.059,-0.14888 -0.19779,-0.28491 -0.18713,-0.18353 -0.19915,-0.20476 -0.10118,-0.17873 0.0689,0.0183 0.11155,0.0129 0.11216,-0.0141 0.002,-0.0832 -0.17815,-0.31971 -0.39557,-0.519744 -0.12021,-0.1106 -0.39059,-0.373525 -0.60084,-0.584292 -0.26594,-0.266586 -0.43091,-0.398971 -0.54209,-0.435038 -0.10728,-0.03483 -0.17504,-0.08757 -0.20612,-0.16048 -0.0255,-0.05979 -0.0903,-0.191995 -0.14402,-0.293863 -0.0724,-0.137169 -0.0908,-0.220153 -0.0709,-0.319881 0.0162,-0.08185 0.008,-0.159259 -0.0229,-0.197418 -0.0273,-0.03453 -0.0444,-0.122041 -0.0378,-0.194492 0.008,-0.09434 -0.022,-0.176402 -0.10744,-0.288997 -0.10742,-0.141619 -0.15659,-0.309601 -0.0902,-0.308103 0.0141,3.18e-4 0.0864,0.04006 0.1607,0.08825 0.11107,0.07212 0.13524,0.07677 0.13639,0.02578 7.7e-4,-0.03409 -0.0143,-0.07204 -0.0334,-0.08447 -0.0191,-0.01243 -0.045,-0.09744 -0.0576,-0.188816 -0.0125,-0.09141 -0.0665,-0.239081 -0.11996,-0.328169 -0.10979,-0.182943 -0.11578,-0.244064 -0.0424,-0.433388 0.0425,-0.109669 0.0405,-0.17106 -0.0112,-0.34625 -0.0448,-0.151839 -0.0502,-0.22752 -0.0187,-0.26372 0.0243,-0.02796 0.0335,-0.105042 0.0204,-0.171824 -0.0208,-0.106037 -0.0139,-0.118265 0.0555,-0.09837 0.0671,0.01912 0.0864,-0.0071 0.12538,-0.171815 0.0253,-0.106967 0.0384,-0.207637 0.0289,-0.223734 -0.0392,-0.0668 -0.0342,-1.592916 0.006,-1.944399 0.0113,-0.09937 0.002,-0.204636 -0.0212,-0.233819 -0.0232,-0.02923 -0.032,-0.07764 -0.0197,-0.107621 0.0123,-0.03003 0.007,-0.08067 -0.0122,-0.112633 -0.0239,-0.04015 -0.006,-0.07996 0.0575,-0.128795 l 0.092,-0.07074 -0.09,-0.06645 c -0.10373,-0.07646 -0.11511,-0.159907 -0.0262,-0.191749 0.0768,-0.02747 0.0802,-0.117112 0.0104,-0.283938 -0.0869,-0.208164 -0.0984,-0.313399 -0.0339,-0.311943 0.0727,0.0016 0.0744,-0.07574 0.005,-0.227492 -0.0299,-0.06559 -0.0654,-0.179051 -0.0789,-0.252055 -0.0194,-0.105375 -0.0112,-0.132437 0.0397,-0.131289 0.0734,0.0017 0.0871,-0.08276 0.0243,-0.14855 -0.0238,-0.02494 -0.0427,-0.256429 -0.0431,-0.529296 -8.6e-4,-0.272089 -0.021,-0.524887 -0.0467,-0.575891 -0.0378,-0.07467 -0.0354,-0.09072 0.0139,-0.08961 0.0944,0.0021 0.10913,-0.05745 0.0399,-0.1611 -0.082,-0.122779 -0.0931,-0.326953 -0.0217,-0.395249 0.0466,-0.04456 0.044,-0.08143 -0.0165,-0.22507 -0.0501,-0.119171 -0.0603,-0.193169 -0.0329,-0.241663 0.0251,-0.04444 0.0248,-0.07946 -8.3e-4,-0.09604 -0.0654,-0.04248 -0.042,-0.345816 0.0286,-0.37108 0.0746,-0.02672 0.0834,-0.129891 0.0136,-0.158534 -0.0713,-0.02921 -0.0558,-0.711189 0.016,-0.70958 0.0692,0.0015 0.0659,-0.07353 -0.018,-0.404898 l -0.0716,-0.283068 0.088,-0.05553 c 0.0863,-0.05457 0.0866,-0.05776 0.0162,-0.170587 -0.0558,-0.08948 -0.069,-0.188114 -0.0595,-0.444725 0.007,-0.181336 0.0113,-0.366349 0.0103,-0.411113 -9.9e-4,-0.04473 4.6e-4,-0.375005 0.004,-0.733887 0.003,-0.358871 -0.008,-0.673902 -0.0229,-0.700045 -0.016,-0.02717 0.007,-0.06565 0.0555,-0.08977 0.0791,-0.04013 0.0801,-0.04761 0.0186,-0.146197 -0.0482,-0.07731 -0.0613,-0.18724 -0.0512,-0.429345 0.007,-0.178977 -0.005,-0.36244 -0.0281,-0.407708 -0.0264,-0.05211 -0.0273,-0.09964 -0.002,-0.12965 0.055,-0.06608 0.0964,-0.470464 0.0512,-0.499852 -0.0204,-0.01326 -0.0241,-0.09207 -0.008,-0.175009 0.0213,-0.110827 0.0127,-0.165225 -0.0332,-0.20491 -0.083,-0.07209 -0.0766,-0.155288 0.0162,-0.21036 0.078,-0.04625 0.0777,-0.06346 -0.007,-0.452633 -0.0135,-0.06232 -2.4e-4,-0.166638 0.0288,-0.233241 0.0358,-0.08131 0.0403,-0.137336 0.0139,-0.17222 -0.0228,-0.02982 -0.0312,-0.291909 -0.0201,-0.620352 0.0173,-0.501867 0.0277,-0.570051 0.0894,-0.580521 0.0875,-0.01483 0.0875,-0.04244 6.3e-4,-0.160966 -0.0729,-0.09917 -0.0748,-0.459576 -0.005,-0.931092 0.0223,-0.150626 0.0167,-0.236193 -0.018,-0.280117 -0.0403,-0.05072 -0.0392,-0.108941 0.006,-0.294428 0.0846,-0.352112 0.0847,-0.35343 0.0543,-0.542692 -0.0156,-0.09748 -0.0135,-0.195174 0.004,-0.217144 0.0182,-0.022 0.023,-0.221517 0.0107,-0.443471 -0.0212,-0.382855 -0.0119,-0.577445 0.0411,-0.859232 0.0128,-0.06813 -0.001,-0.213211 -0.0315,-0.322383 -0.0349,-0.126139 -0.0411,-0.222914 -0.017,-0.265522 0.0208,-0.03684 0.0461,-0.294184 0.0562,-0.571807 0.021,-0.576103 0.0902,-0.906597 0.22664,-1.082774 0.10148,-0.131024 0.21094,-0.557444 0.21968,-0.856162 0.003,-0.116183 -0.0231,-0.228039 -0.0727,-0.306668 -0.0429,-0.06809 -0.0772,-0.163854 -0.0763,-0.212846 10e-4,-0.04899 -0.0149,-0.09986 -0.0353,-0.113104 -0.0203,-0.01326 -0.0477,-0.0789 -0.0609,-0.146071 -0.025,-0.127777 -0.16286,-0.26085 -0.22955,-0.221684 -0.0778,0.04565 -0.39677,0.006 -0.49517,-0.06179 -0.12848,-0.08842 -0.12688,-0.173976 0.004,-0.220424 0.0627,-0.02229 0.10322,-0.06829 0.10436,-0.118646 0.001,-0.04529 0.0203,-0.08186 0.0428,-0.08135 0.0225,5.07e-4 0.0719,-0.0716 0.10971,-0.160206 0.0595,-0.139345 0.086,-0.160973 0.19647,-0.159969 0.10183,0.0013 0.1478,-0.02877 0.2267,-0.146284 0.0781,-0.116367 0.0899,-0.162764 0.0558,-0.220158 -0.0237,-0.03995 -0.0421,-0.118691 -0.0409,-0.174886 0.002,-0.08468 0.0214,-0.101524 0.11406,-0.09836 0.0615,0.0021 0.14667,0.03152 0.18932,0.06529 0.0426,0.03377 0.10654,0.06212 0.14196,0.06292 0.0354,7.99e-4 0.17247,0.05821 0.30455,0.127612 0.13208,0.0694 0.25293,0.127018 0.26856,0.128071 0.0912,0.0061 0.40015,0.281027 0.48275,0.429548 0.0534,0.09603 0.13482,0.210324 0.18089,0.253955 0.046,0.04365 0.0832,0.101403 0.0826,0.128426 -0.002,0.07258 0.34089,0.391199 0.62705,0.583272 0.13752,0.09233 0.24975,0.187881 0.24939,0.21237 -0.001,0.07309 0.14622,0.189596 0.22669,0.179258 0.0503,-0.0069 0.21831,0.148302 0.51141,0.470986 0.24009,0.264333 0.4675,0.49374 0.50533,0.509798 0.0379,0.01606 0.13984,0.125906 0.22666,0.244094 0.0868,0.11819 0.19461,0.261467 0.23954,0.318404 0.26869,0.340538 0.3918,0.539855 0.36851,0.596665 -0.033,0.08067 0.0497,0.185518 0.14819,0.18774 0.084,0.0019 0.10301,0.06754 0.0265,0.09112 -0.0739,0.02284 -0.002,0.112804 0.0927,0.114931 0.0571,0.0013 0.0755,0.02071 0.0586,0.06204 -0.0136,0.0331 0.008,0.09301 0.0486,0.13327 0.0403,0.04022 0.0861,0.118161 0.10164,0.173207 0.0157,0.05507 0.079,0.186619 0.14079,0.29237 0.11747,0.20092 0.13822,0.28554 0.0697,0.283994 -0.0749,-0.0017 -0.0439,0.08613 0.172,0.488414 0.18387,0.342545 0.21398,0.430156 0.2099,0.61074 -0.005,0.212126 0.0474,0.28177 0.0987,0.13181 0.0972,-0.284079 0.16472,0.297691 0.0826,0.713115 -0.0308,0.155875 -0.0475,0.412334 -0.0381,0.58597 0.0173,0.320931 -0.0356,0.866058 -0.15223,1.573356 -0.0871,0.528159 -0.0882,0.583819 -0.0105,0.555934 0.0338,-0.01214 0.0611,-0.0016 0.0605,0.02297 -5.5e-4,0.02469 -0.0355,0.04421 -0.0777,0.04326 -0.11336,-0.0026 -0.14662,0.229931 -0.0414,0.289339 0.0661,0.0373 0.0734,0.07407 0.0496,0.253143 -0.0152,0.115216 -0.045,0.562418 -0.066,0.993793 -0.0211,0.431373 -0.0548,0.81226 -0.075,0.846424 -0.0225,0.038 -0.0162,0.126258 0.0163,0.227555 0.0291,0.09098 0.0478,0.277127 0.0415,0.413621 -0.006,0.136487 -0.0149,0.436896 -0.0191,0.667579 -0.007,0.416839 -0.0416,0.582791 -0.13047,0.634989 -0.0326,0.01917 -0.0278,0.04879 0.0164,0.1 0.0474,0.05478 0.0559,0.121581 0.0346,0.270509 -0.0156,0.108807 -0.0365,0.20564 -0.0465,0.215197 -0.0102,0.0098 0.007,0.04687 0.0381,0.08298 0.0334,0.03896 0.0613,0.189442 0.0688,0.370885 0.007,0.167917 0.0301,0.378915 0.0515,0.468872 0.029,0.121044 0.0397,-0.106061 0.0413,-0.87348 0.004,-1.835199 0.0327,-2.211246 0.16273,-2.126741 0.0307,0.0199 0.0302,0.337377 -0.002,1.061325 -0.0249,0.568123 -0.0332,1.292761 -0.0185,1.610312 0.0352,0.759667 0.01,1.48216 -0.0981,2.791098 -0.0488,0.591671 -0.0931,1.17633 -0.0984,1.29924 -0.006,0.122901 -0.0209,0.232367 -0.0346,0.243242 -0.0136,0.0109 -0.0378,0.124718 -0.0536,0.252985 -0.023,0.185958 -0.0171,0.233474 0.0292,0.234518 0.0687,0.0016 0.0689,0.09868 0.001,0.671087 -0.17693,1.49605 -0.28819,3.394474 -0.20221,3.450337 0.0644,0.04186 0.0791,-0.02552 0.0994,-0.453994 0.0302,-0.639371 0.093,-0.594053 0.0738,0.05328 -0.0235,0.775117 -0.0221,0.801096 0.0252,0.773314 0.0562,-0.03294 0.0485,0.156483 -0.009,0.210986 -0.0328,0.03137 -0.0336,0.06666 -0.003,0.127408 0.0568,0.112049 0.0503,0.264723 -0.0134,0.326171 -0.0416,0.03987 -0.033,0.06487 0.0434,0.125321 0.0902,0.07145 0.0939,0.09374 0.0682,0.412083 -0.0149,0.185112 -0.0125,0.421126 0.006,0.524479 0.0182,0.103346 0.0368,0.334404 0.0413,0.513452 0.005,0.179068 0.0176,0.44473 0.0291,0.590387 0.0114,0.145654 0.0175,0.319656 0.0135,0.386672 -0.005,0.06701 -0.0122,0.405419 -0.018,0.752006 -0.01,0.555183 -0.002,0.646073 0.0673,0.764083 0.043,0.0737 0.10075,0.13445 0.12828,0.13507 0.0275,6.2e-4 0.0991,0.0546 0.15896,0.12007 0.17264,0.18853 0.19851,0.62037 0.1235,2.06107 -0.0242,0.46462 -0.0211,0.49164 0.0697,0.60458 0.12999,0.16176 0.12029,0.25427 -0.0538,0.51346 -0.0215,0.032 -0.0488,0.41575 -0.0606,0.85272 -0.0193,0.72261 -0.0308,0.81956 -0.12351,1.0719 -0.11473,0.31204 -0.21161,0.42723 -0.35652,0.42396 -0.0613,-0.001 -0.10882,0.0267 -0.12502,0.0741 -0.0323,0.0946 -0.16293,0.12986 -0.24319,0.0658 z m 0.0334,-10.365949 c -0.0107,-0.02825 -0.0204,-0.0055 -0.0216,0.05032 -0.001,0.05589 0.007,0.07898 0.0194,0.05125 0.0119,-0.02774 0.013,-0.07343 0.002,-0.101624 z m 0.32739,-8.290955 c -0.0324,-0.03394 -0.0443,-0.004 -0.0446,0.114393 -5.9e-4,0.158857 4e-4,0.15938 0.0442,0.04621 0.0316,-0.08121 0.0318,-0.127825 6.2e-4,-0.160637 z m -0.015,-0.304177 c -0.0432,-0.04519 -0.057,0.0093 -0.0336,0.131756 l 0.0234,0.12254 0.0165,-0.115187 c 0.009,-0.0634 0.006,-0.12596 -0.007,-0.13912 z"
       style="fill:#ffed00;fill-opacity:1" />
  </g>
</svg>
