<?xml version="1.0" encoding="UTF-8" standalone="no"?>
<svg
   version="1.1"
   id="svg5843"
   viewBox="0 0 37.863982 37.734411"
   height="10.649489mm"
   width="10.686057mm"
   sodipodi:docname="33c3-herz-blue.svg"
   inkscape:version="1.2.2 (b0a8486541, 2022-12-01)"
   xmlns:inkscape="http://www.inkscape.org/namespaces/inkscape"
   xmlns:sodipodi="http://sodipodi.sourceforge.net/DTD/sodipodi-0.dtd"
   xmlns="http://www.w3.org/2000/svg"
   xmlns:svg="http://www.w3.org/2000/svg"
   xmlns:rdf="http://www.w3.org/1999/02/22-rdf-syntax-ns#"
   xmlns:cc="http://creativecommons.org/ns#"
   xmlns:dc="http://purl.org/dc/elements/1.1/">
  <sodipodi:namedview
     id="namedview196"
     pagecolor="#ffffff"
     bordercolor="#666666"
     borderopacity="1.0"
     inkscape:showpageshadow="2"
     inkscape:pageopacity="0.0"
     inkscape:pagecheckerboard="0"
     inkscape:deskcolor="#d1d1d1"
     inkscape:document-units="mm"
     showgrid="false"
     inkscape:zoom="15.751538"
     inkscape:cx="20.188505"
     inkscape:cy="20.125019"
     inkscape:window-width="1436"
     inkscape:window-height="843"
     inkscape:window-x="0"
     inkscape:window-y="0"
     inkscape:window-maximized="1"
     inkscape:current-layer="layer1" />
  <defs
     id="defs5845" />
  <metadata
     id="metadata5848">
    <rdf:RDF>
      <cc:Work
         rdf:about="">
        <dc:format>image/svg+xml</dc:format>
        <dc:type
           rdf:resource="http://purl.org/dc/dcmitype/StillImage" />
      </cc:Work>
    </rdf:RDF>
  </metadata>
  <g
     transform="translate(-90.107408,-69.203633)"
     id="layer1">
    <path
       id="path6402-0"
       d="m 116.04564,96.675167 c -0.0157,-0.163234 -0.15253,-0.219302 -0.18955,-0.07769 -0.0126,0.04837 -0.0513,0.08794 -0.0858,0.08794 -0.04,0 -0.0534,-0.02424 -0.0372,-0.0666 0.0141,-0.03667 0.0256,-0.104327 0.0256,-0.150421 0,-0.0665 0.0237,-0.081 0.11504,-0.07023 0.0849,0.01036 0.11904,-0.0073 0.1303,-0.06463 0.0227,-0.11628 -0.0582,-0.179279 -0.14148,-0.110159 -0.0993,0.08245 -0.14789,-0.01761 -0.11723,-0.241303 0.0176,-0.128586 0.005,-0.208841 -0.0455,-0.285657 -0.0476,-0.07271 -0.058,-0.130274 -0.0325,-0.180107 0.0206,-0.04029 0.0383,-0.186986 0.0393,-0.325971 9.2e-4,-0.138986 0.0151,-0.286113 0.0316,-0.326944 0.0172,-0.04268 0.005,-0.103582 -0.0275,-0.143347 -0.0406,-0.04889 -0.0605,-0.2305 -0.068,-0.62068 -0.006,-0.30337 -0.0249,-0.797961 -0.0422,-1.099093 -0.0173,-0.301132 -0.0166,-0.649497 0.002,-0.774136 0.0205,-0.140664 0.0158,-0.27881 -0.0124,-0.364244 -0.0411,-0.124733 -0.0234,-0.747361 0.0234,-0.823193 0.0104,-0.01606 -0.002,-0.139472 -0.0272,-0.274242 -0.025,-0.13477 -0.0527,-0.691323 -0.0617,-1.236783 -0.009,-0.54546 -0.0183,-1.010706 -0.0207,-1.033867 -0.0123,-0.123241 0.0604,-1.017035 0.0858,-1.052915 0.0164,-0.0232 0.0159,-0.383262 -0.001,-0.800208 -0.0204,-0.501521 -0.0156,-0.817258 0.0143,-0.932875 0.038,-0.14721 0.0333,-0.192776 -0.0296,-0.288868 -0.13167,-0.200959 -0.29492,-3.113057 -0.2977,-5.310465 -5.5e-4,-0.428112 0.0146,-0.61227 0.0544,-0.660062 0.0303,-0.03646 0.0634,-0.186208 0.0736,-0.332786 0.0104,-0.146578 0.0281,-0.332839 0.0397,-0.413912 0.0116,-0.0811 10e-4,-0.195738 -0.0226,-0.25481 -0.0295,-0.07251 -0.0313,-0.318689 -0.005,-0.758092 0.0312,-0.529021 0.0276,-0.668141 -0.0195,-0.743984 -0.0333,-0.05386 -0.0578,-0.208064 -0.0578,-0.36501 0,-0.173116 -0.0182,-0.277806 -0.0502,-0.288485 -0.0718,-0.02393 -0.0599,-0.453614 0.0139,-0.4992 0.0316,-0.01958 0.0606,-0.08835 0.0645,-0.152855 0.004,-0.06453 0.0197,-0.166487 0.0352,-0.226533 0.0191,-0.07385 0.006,-0.130772 -0.0386,-0.175985 -0.0879,-0.08794 -0.0905,-0.403304 -0.003,-0.436647 0.0843,-0.03242 0.0797,-0.132823 -0.0146,-0.310672 -0.0428,-0.08069 -0.0898,-0.263977 -0.10436,-0.40721 -0.0251,-0.246441 -0.0215,-0.261191 0.0673,-0.27476 0.0579,-0.0093 0.0878,-0.03812 0.0781,-0.07655 -0.008,-0.03418 -0.0135,-0.575457 -0.0108,-1.202808 0.004,-0.916675 0.0172,-1.165239 0.0674,-1.26592 0.0514,-0.103064 0.0571,-0.238434 0.0319,-0.762908 -0.0169,-0.350686 -0.0204,-0.681266 -0.008,-0.73461 0.027,-0.11569 0.39062,-0.328322 0.50865,-0.297465 0.0435,0.01139 0.14075,-0.0083 0.21612,-0.04351 0.0754,-0.03532 0.2697,-0.07696 0.43185,-0.09239 0.16215,-0.01554 0.42749,-0.05417 0.58963,-0.08587 0.31101,-0.06091 0.58138,-0.05593 1.03186,0.01927 0.15057,0.02507 0.4159,0.0577 0.58963,0.07251 0.23755,0.0202 0.32933,0.04599 0.37018,0.103965 0.0438,0.06215 0.0895,0.0723 0.2357,0.05231 0.13427,-0.01844 0.23366,-0.0021 0.38273,0.06422 0.11075,0.04899 0.24983,0.08908 0.30905,0.08908 0.39451,0 0.93228,0.295155 0.93375,0.512479 10e-4,0.186177 0.0433,0.245612 0.17374,0.245612 0.0815,0 0.12184,0.02144 0.12184,0.06463 0,0.03553 0.0265,0.106637 0.059,0.157941 0.0402,0.0636 0.0685,0.304882 0.0887,0.757533 0.0265,0.594878 0.0381,0.668773 0.1106,0.707564 0.0445,0.02382 0.0721,0.05769 0.0612,0.0753 -0.0109,0.01761 -0.0207,0.154015 -0.0219,0.303235 -10e-4,0.149209 -0.003,0.325194 -0.003,0.391082 -7.5e-4,0.06588 -0.0297,0.174565 -0.0643,0.24151 -0.0369,0.07126 -0.0638,0.239947 -0.0649,0.406671 -10e-4,0.156719 -0.004,0.33232 -0.005,0.390233 -0.0151,0.437103 0.0266,1.089656 0.0757,1.185189 0.0434,0.08442 0.0478,0.17065 0.0184,0.357998 -0.0213,0.135712 -0.0603,0.910097 -0.0867,1.72084 -0.0958,2.945389 -0.0853,2.746782 -0.15543,2.925181 -0.0224,0.05687 -0.0266,0.170577 -0.009,0.252697 0.0172,0.08214 0.0422,0.642091 0.0554,1.244355 0.0133,0.602263 0.0429,1.256121 0.0659,1.453019 0.0687,0.589441 0.0816,0.86764 0.0431,0.929954 -0.0228,0.03687 -0.0132,0.09457 0.0258,0.154015 0.0508,0.07748 0.0638,0.318503 0.0704,1.306017 0.007,1.035369 -0.002,1.247379 -0.064,1.462 -0.0925,0.321144 -0.0974,0.731741 -0.009,0.765602 0.0768,0.02942 0.0834,0.136468 0.0104,0.164549 -0.0374,0.01429 -0.0522,0.131683 -0.0504,0.398789 0.002,0.34593 -0.004,0.378455 -0.0783,0.378455 -0.0613,0 -0.0753,-0.02134 -0.0577,-0.08835 0.0127,-0.04858 0.005,-0.195458 -0.0161,-0.326406 -0.0216,-0.130937 -0.0412,-0.363457 -0.0438,-0.516695 -0.002,-0.153238 -0.0212,-0.304861 -0.0415,-0.33693 -0.0308,-0.04858 -0.0379,-0.04775 -0.0426,0.0052 -0.003,0.0347 -0.002,0.0811 0.002,0.10296 0.004,0.02186 0.007,0.201932 0.006,0.400104 -8.8e-4,0.198183 0.0174,0.529685 0.0407,0.736682 0.0591,0.525748 0.0905,2.901336 0.0402,3.03392 -0.0223,0.05852 -0.0692,0.106451 -0.10434,0.106451 -0.0351,0 -0.0875,0.03791 -0.11646,0.08421 -0.0327,0.05241 -0.0982,0.08421 -0.17333,0.08421 -0.0889,0 -0.11446,0.01636 -0.097,0.06184 0.0314,0.08193 -0.0457,0.126183 -0.11692,0.06712 -0.0638,-0.05293 -0.10837,0.02103 -0.10837,0.17989 -1e-5,0.08877 -0.24211,0.322957 -0.33382,0.322957 -0.0239,0 -0.0848,0.08059 -0.13546,0.178988 l -0.092,0.179 -0.0544,-0.126349 c -0.0299,-0.0695 -0.0553,-0.150038 -0.0563,-0.178999 -10e-4,-0.0289 -0.0298,-0.05262 -0.0639,-0.05262 -0.0394,0 -0.0873,0.08846 -0.13144,0.242174 -0.079,0.275661 -0.12487,0.347339 -0.22236,0.347743 -0.0777,3.42e-4 -0.25807,0.243116 -0.25807,0.347299 0,0.09674 -0.0687,0.128182 -0.29028,0.13277 -0.16959,0.0031 -0.1959,0.01668 -0.21768,0.109279 -0.0485,0.206002 -0.14156,0.374322 -0.23448,0.424052 -0.0519,0.02776 -0.1496,0.139441 -0.21721,0.248212 -0.10461,0.168268 -0.15367,0.206075 -0.32921,0.253619 -0.26465,0.07168 -0.3039,0.104462 -0.31967,0.267043 -0.0163,0.167574 -0.13352,0.183743 -0.15233,0.02103 -0.0104,-0.0898 -0.12778,-0.259772 -0.13662,-0.197768 -10e-4,0.0083 -0.0128,0.129104 -0.0258,0.267738 -0.0169,0.180822 -0.046,0.267778 -0.10306,0.30773 -0.0574,0.04019 -0.0795,0.107092 -0.0795,0.24034 0,0.200989 -0.0464,0.264847 -0.12433,0.170992 -0.0273,-0.03294 -0.10058,-0.05894 -0.16271,-0.0578 -0.0622,0.001 -0.13202,-0.0021 -0.15518,-0.0083 -0.10628,-0.02486 -0.13425,0.01346 -0.14106,0.193303 -0.009,0.258011 -0.0695,0.368564 -0.17013,0.314712 -0.10621,-0.05687 -0.17305,0.02248 -0.17362,0.205972 -7.9e-4,0.253816 -0.0497,0.465391 -0.10767,0.465391 -0.0312,0 -0.0607,-0.05904 -0.0682,-0.136531 z m 3.71412,-5.147116 c 0,-0.194246 -0.0838,-0.312226 -0.21893,-0.308383 -0.11149,0.0031 -0.12125,0.0144 -0.0976,0.112842 0.0145,0.06018 0.0584,0.132253 0.0977,0.160261 0.0392,0.02797 0.0903,0.06971 0.11352,0.0926 0.0706,0.06992 0.10529,0.05106 0.10529,-0.05738 z m -0.0712,-0.733004 c 0.0126,-0.13071 0.0177,-0.459747 0.0113,-0.731182 -0.0109,-0.458762 -0.0186,-0.499138 -0.10979,-0.57296 l -0.0981,-0.07945 0.0961,-0.204418 0.0961,-0.204418 -0.0876,-0.07095 -0.0876,-0.07095 0.0911,-0.06049 c 0.0519,-0.03449 0.0727,-0.07178 0.0484,-0.0868 -0.0234,-0.0145 -0.098,0.02486 -0.16566,0.08753 -0.10581,0.09788 -0.12252,0.143315 -0.11938,0.324417 0.002,0.115825 0.009,0.511102 0.0163,0.878412 0.009,0.498309 -6.7e-4,0.676034 -0.0398,0.700179 -0.0361,0.02237 -0.0383,0.04102 -0.007,0.06049 0.025,0.01543 0.0655,0.102442 0.0899,0.193324 0.0414,0.153777 0.0514,0.162095 0.14363,0.120061 0.0821,-0.03739 0.10306,-0.08597 0.12208,-0.282829 z m -0.40549,-0.224492 c -0.0135,-0.03356 -0.0234,-0.02362 -0.0255,0.02548 -0.002,0.04444 0.008,0.0693 0.0222,0.05531 0.014,-0.01398 0.0154,-0.05034 0.003,-0.08069 z m 0.31915,-2.261732 c 0.0251,-0.09581 -0.0275,-0.193925 -0.0848,-0.158469 -0.0463,0.02859 -0.0183,0.23804 0.0318,0.23804 0.0177,0 0.0416,-0.03584 0.0531,-0.07955 z m 1.6575,-1.333797 c -0.0129,-0.03335 -0.0412,-0.0607 -0.0631,-0.0607 -0.023,0 -0.0191,0.05521 0.009,0.130699 0.033,0.08804 0.0536,0.107859 0.0631,0.0607 0.007,-0.03853 0.004,-0.09726 -0.009,-0.130699 z m -2.00542,-0.03719 c 0,-0.01036 -0.019,-0.03025 -0.0422,-0.04464 -0.0232,-0.01429 -0.0422,-0.0062 -0.0422,0.01854 0,0.02455 0.019,0.04464 0.0422,0.04464 0.0232,0 0.0422,-0.0083 0.0422,-0.01854 z m 0.0632,-0.318358 c -0.0143,-0.0232 -0.0545,-0.04216 -0.0892,-0.04216 -0.0347,0 -0.0515,0.01895 -0.0372,0.04216 0.0143,0.0232 0.0545,0.04216 0.0892,0.04216 0.0347,0 0.0515,-0.01896 0.0372,-0.04216 z m -0.10058,-0.306932 c -0.0344,-0.03439 -0.0468,-0.02962 -0.0468,0.01771 0,0.08369 0.0567,0.140353 0.0776,0.07758 0.009,-0.02662 -0.005,-0.0695 -0.0308,-0.09529 z m 2.27264,-0.703867 c 0.0526,0 0.0499,-0.198856 -0.003,-0.231639 -0.0232,-0.01429 -0.0422,-0.103064 -0.0422,-0.197167 0,-0.151032 -0.008,-0.164664 -0.0664,-0.116043 -0.0448,0.03719 -0.0594,0.09716 -0.0448,0.184158 0.0118,0.07095 0.0356,0.214331 0.053,0.318575 0.0174,0.104234 0.0389,0.156356 0.048,0.115825 0.009,-0.0405 0.034,-0.07375 0.0555,-0.07375 z m -2.23526,-0.06567 c 0,-0.03615 -0.0193,-0.05376 -0.0428,-0.03915 -0.0235,0.0145 -0.0319,0.04412 -0.0185,0.06567 0.0362,0.05842 0.0613,0.04754 0.0613,-0.02641 z m 1.89525,-0.171976 c 0,-0.05852 -0.0204,-0.09954 -0.0453,-0.09126 -0.0249,0.0083 -0.0438,0.0288 -0.0422,0.04558 0.002,0.01678 0.003,0.0695 0.003,0.117254 0,0.04765 0.019,0.07499 0.0422,0.0607 0.0232,-0.0143 0.0422,-0.07385 0.0422,-0.132346 z m -0.0422,-0.35199 c 0,-0.0232 -0.0201,-0.04216 -0.0446,-0.04216 -0.0246,0 -0.0328,0.01896 -0.0186,0.04216 0.0143,0.0232 0.0344,0.04216 0.0445,0.04216 0.0104,0 0.0186,-0.01896 0.0186,-0.04216 z m -0.013,-0.241376 c -0.0107,-0.04102 -0.0201,-0.01761 -0.021,0.05179 -8.4e-4,0.0695 0.008,0.103063 0.0194,0.07448 0.0116,-0.02849 0.0122,-0.08535 0.002,-0.126349 z m 0.30922,-0.179797 c 0.0246,-0.634032 -0.002,-1.132041 -0.0646,-1.194304 -0.0348,-0.0347 -0.0632,-0.111909 -0.0632,-0.171468 0,-0.129332 -0.065,-0.14401 -0.097,-0.02186 -0.0247,0.09416 -0.0199,0.167025 0.048,0.734848 0.0249,0.208478 0.0573,0.50904 0.0721,0.667914 0.031,0.333221 0.0917,0.324468 0.10484,-0.01512 z m -0.3384,-0.128834 c 0,-0.02175 -0.019,-0.03967 -0.0422,-0.03967 -0.0232,0 -0.0422,0.02952 -0.0422,0.06567 0,0.03615 0.019,0.05397 0.0422,0.03967 0.0232,-0.01429 0.0422,-0.04381 0.0422,-0.06567 z m -0.1224,-0.852745 c -0.0333,-0.03335 -0.0461,-0.02237 -0.0461,0.03957 0,0.11134 0.0589,0.170444 0.0777,0.07789 0.008,-0.03926 -0.006,-0.09219 -0.0316,-0.117493 z m 0.36123,-0.601352 c 0.0343,-0.08939 -0.0696,-0.511962 -0.14039,-0.570692 -0.0461,-0.03822 -0.0563,0.0062 -0.0563,0.244804 0,0.270368 0.0424,0.392626 0.13609,0.392626 0.0193,0 0.0465,-0.03004 0.0606,-0.06671 z m -0.0703,-2.986708 c 0,-0.0347 -0.0285,-0.06319 -0.0632,-0.06319 -0.0658,0 -0.0836,0.04982 -0.0351,0.0983 0.0485,0.04848 0.0983,0.03066 0.0983,-0.03511 z m 0.021,-0.400684 c 0,-0.09032 -0.12239,-0.07727 -0.14013,0.01492 -0.0109,0.05625 0.006,0.07344 0.0626,0.06256 0.0427,-0.0083 0.0775,-0.04309 0.0775,-0.07748 z m 0.32058,10.72134 c -0.003,-0.174804 0.008,-0.237243 0.0395,-0.206438 0.0297,0.02973 0.0313,0.11163 0.005,0.250595 l -0.0395,0.206427 z m -0.0624,-0.749681 c -0.014,-0.0521 -0.0251,-0.151612 -0.0246,-0.221105 7.2e-4,-0.120185 0.004,-0.12236 0.0626,-0.04464 0.0669,0.08846 0.0855,0.360474 0.0247,0.360474 -0.0204,0 -0.0487,-0.04268 -0.0626,-0.09478 z"
       style="fill:#004dff;fill-opacity:1" />
  </g>
</svg>
