<?xml version="1.0" standalone="no"?>
<!DOCTYPE svg PUBLIC "-//W3C//DTD SVG 1.1//EN" "http://www.w3.org/Graphics/SVG/1.1/DTD/svg11.dtd">
<svg width="54mm" height="54mm" viewBox="-2 -52 54 54" xmlns="http://www.w3.org/2000/svg" version="1.1">
<title>OpenSCAD Model</title>
<path d="
M 50.3311,-42.7996 L 50.3403,-42.8313 L 50.3466,-42.8618 L 50.3504,-42.8911 L 50.3515,-42.9193 L 50.3499,-42.9464
 L 50.3456,-42.9726 L 50.3387,-42.9977 L 50.329,-43.0219 L 49.576,-44.5856 L 49.5637,-44.6088 L 49.5487,-44.6312
 L 49.531,-44.6527 L 49.5106,-44.6734 L 49.4875,-44.6934 L 49.4617,-44.7126 L 49.4332,-44.7311 L 49.4193,-44.7398
 L 49.4053,-44.7492 L 49.3913,-44.7591 L 49.3773,-44.7695 L 49.3634,-44.7805 L 49.3495,-44.7917 L 49.336,-44.8034
 L 49.3226,-44.8153 L 49.3096,-44.8275 L 49.2969,-44.8398 L 49.2847,-44.8522 L 49.2729,-44.8646 L 49.2617,-44.8771
 L 49.2511,-44.8894 L 49.2412,-44.9016 L 49.232,-44.9136 L 49.2235,-44.9254 L 49.216,-44.9368 L 49.2094,-44.9479
 L 49.2038,-44.9585 L 49.1891,-44.9847 L 49.1724,-45.0084 L 49.154,-45.0294 L 49.134,-45.0479 L 49.1125,-45.0636
 L 49.0897,-45.0768 L 49.0658,-45.0872 L 49.0409,-45.0952 L 48.1052,-45.3087 L 48.1031,-45.3105 L 48.0931,-45.3172
 L 48.082,-45.3234 L 48.0696,-45.3291 L 48.0558,-45.3345 L 48.0406,-45.3396 L 48.024,-45.3443 L 48.0059,-45.3489
 L 47.9723,-45.3568 L 47.9583,-45.3609 L 47.9445,-45.3656 L 47.9308,-45.3708 L 47.9173,-45.3766 L 47.9041,-45.3829
 L 47.8911,-45.3896 L 47.8784,-45.3968 L 47.8662,-45.4045 L 47.8544,-45.4125 L 47.843,-45.4208 L 47.8322,-45.4295
 L 47.8219,-45.4384 L 47.8123,-45.4475 L 47.8033,-45.4569 L 47.7951,-45.4664 L 47.7876,-45.476 L 47.781,-45.4857
 L 47.7757,-45.4949 L 47.7656,-45.5157 L 47.7534,-45.5402 L 47.746,-45.5543 L 47.7289,-45.5856 L 47.6984,-45.639
 L 47.6872,-45.6582 L 47.6634,-45.698 L 47.6383,-45.7391 L 47.6123,-45.7807 L 47.5859,-45.8223 L 47.546,-45.8833
 L 47.5322,-45.9048 L 47.5182,-45.9272 L 47.4893,-45.9741 L 47.4747,-45.9984 L 47.4454,-46.0481 L 47.4165,-46.0985
 L 47.4136,-46.1036 L 47.4091,-46.1214 L 47.395,-46.1744 L 47.3814,-46.223 L 47.368,-46.2677 L 47.3545,-46.309
 L 47.3408,-46.3472 L 47.3264,-46.383 L 47.3113,-46.4167 L 46.5583,-47.9804 L 46.5422,-48.0124 L 46.5248,-48.0433
 L 46.5059,-48.0736 L 46.4852,-48.1036 L 46.4624,-48.1339 L 46.4375,-48.1649 L 46.41,-48.1969 L 46.3798,-48.2307
 L 46.3466,-48.2664 L 46.3102,-48.3048 L 46.2703,-48.3461 L 46.2308,-48.3867 L 46.1944,-48.4237 L 46.1608,-48.457
 L 46.1298,-48.4871 L 46.101,-48.5141 L 46.0742,-48.538 L 46.049,-48.5591 L 46.0251,-48.5775 L 46.0023,-48.5936
 L 45.9802,-48.6073 L 45.9585,-48.6189 L 45.9369,-48.6286 L 45.9151,-48.6365 L 45.8928,-48.6428 L 45.2547,-48.7885
 L 45.2269,-48.8026 L 45.1488,-48.8438 L 45.1008,-48.8682 L 45.0544,-48.8909 L 45.01,-48.9117 L 44.989,-48.9214
 L 44.9494,-48.9386 L 44.9312,-48.9462 L 44.9141,-48.9531 L 44.8982,-48.9592 L 44.8835,-48.9645 L 44.8704,-48.9688
 L 44.8587,-48.9723 L 44.8486,-48.9749 L 44.6762,-49.0142 L 44.6531,-49.0211 L 44.6074,-49.0352 L 44.5595,-49.0505
 L 44.51,-49.067 L 44.4117,-49.1008 L 44.3648,-49.1158 L 44.3191,-49.1295 L 44.2747,-49.1418 L 44.2318,-49.1528
 L 44.1905,-49.1623 L 42.6246,-49.5197 L 42.5128,-49.7518 L 42.5092,-49.7584 L 42.5048,-49.7645 L 42.4995,-49.7703
 L 42.4935,-49.7757 L 42.4868,-49.7805 L 42.4791,-49.785 L 42.4707,-49.7891 L 42.4614,-49.7927 L 42.4514,-49.7959
 L 42.4405,-49.7987 L 42.2945,-49.832 L 42.1079,-50.2193 L 42.0832,-50.2651 L 42.0499,-50.3112 L 42.0087,-50.3575
 L 41.9601,-50.4034 L 41.905,-50.4487 L 41.8441,-50.4929 L 41.7778,-50.5356 L 41.707,-50.5767 L 41.6323,-50.6155
 L 41.5544,-50.6519 L 41.4739,-50.6853 L 41.3915,-50.7155 L 41.308,-50.742 L 41.2239,-50.7646 L 40.4502,-50.9412
 L 40.4306,-50.9494 L 40.4032,-50.9601 L 40.3766,-50.9698 L 40.3507,-50.9786 L 40.3253,-50.9866 L 40.3004,-50.9936
 L 40.2758,-50.9998 L 38.5838,-51.386 L 38.5596,-51.3912 L 38.5357,-51.3956 L 38.5119,-51.3992 L 38.5025,-51.4003
 L 37.8082,-51.5587 L 37.7823,-51.5646 L 37.7543,-51.5702 L 37.724,-51.5754 L 37.6914,-51.5804 L 37.6564,-51.5852
 L 37.6188,-51.5898 L 37.5787,-51.5941 L 37.5359,-51.5984 L 37.455,-51.6055 L 37.3797,-51.6126 L 37.2998,-51.6209
 L 37.2166,-51.6301 L 37.1319,-51.64 L 37.0056,-51.6558 L 36.9242,-51.6665 L 36.8469,-51.6773 L 36.7756,-51.688
 L 36.7425,-51.6931 L 36.6241,-51.7124 L 36.5401,-51.7252 L 36.459,-51.7366 L 36.3809,-51.7466 L 36.3055,-51.7554
 L 36.2326,-51.7626 L 36.1619,-51.7686 L 36.0933,-51.7731 L 36.0265,-51.7764 L 35.9612,-51.7783 L 35.8974,-51.7788
 L 35.8348,-51.778 L 35.773,-51.7758 L 35.7121,-51.7723 L 35.6515,-51.7675 L 35.5913,-51.7614 L 35.5312,-51.7539
 L 35.4709,-51.7451 L 35.4103,-51.735 L 35.349,-51.7236 L 35.316,-51.7172 L 35.2444,-51.7042 L 35.1672,-51.6911
 L 35.0859,-51.678 L 35.002,-51.6651 L 34.9174,-51.6528 L 34.8753,-51.6469 L 34.7926,-51.6358 L 34.7131,-51.6258
 L 34.6385,-51.6172 L 34.6035,-51.6135 L 34.538,-51.6069 L 34.5051,-51.6031 L 34.4718,-51.5989 L 34.4384,-51.5941
 L 34.405,-51.5891 L 34.3716,-51.5836 L 34.3385,-51.5779 L 34.3058,-51.5719 L 34.2737,-51.5656 L 34.2423,-51.559
 L 34.2118,-51.5523 L 34.1823,-51.5455 L 34.1539,-51.5384 L 34.1268,-51.5312 L 34.1012,-51.524 L 34.0772,-51.5168
 L 34.0549,-51.5096 L 34.0345,-51.5024 L 34.0163,-51.4953 L 33.985,-51.4814 L 33.9695,-51.4749 L 33.9537,-51.4687
 L 33.9377,-51.4629 L 33.9217,-51.4575 L 33.9055,-51.4524 L 33.8893,-51.4478 L 33.8733,-51.4436 L 33.8573,-51.4397
 L 33.8417,-51.4364 L 33.8264,-51.4335 L 33.8114,-51.4311 L 33.7969,-51.4292 L 33.7829,-51.4277 L 33.7696,-51.4269
 L 33.757,-51.4265 L 33.745,-51.4267 L 33.734,-51.4274 L 33.7239,-51.4288 L 33.7148,-51.4307 L 33.6891,-51.4345
 L 33.6591,-51.4338 L 33.6253,-51.4289 L 33.5885,-51.4202 L 33.5491,-51.408 L 33.5077,-51.3927 L 33.4649,-51.3746
 L 33.4213,-51.354 L 33.3774,-51.3314 L 33.3339,-51.3069 L 33.2912,-51.281 L 33.25,-51.2539 L 33.2109,-51.2261
 L 33.1744,-51.1978 L 32.5456,-50.6964 L 32.344,-50.7424 L 32.3171,-50.7467 L 32.2883,-50.7482 L 32.2413,-50.7472
 L 32.1954,-50.7445 L 32.1506,-50.74 L 32.1068,-50.7337 L 32.0642,-50.7255 L 32.0227,-50.7156 L 31.9823,-50.7038
 L 31.943,-50.6903 L 31.9049,-50.6751 L 31.8679,-50.6579 L 31.8321,-50.6391 L 31.7974,-50.6184 L 31.7639,-50.596
 L 31.7316,-50.5718 L 31.3366,-50.2568 L 30.6617,-50.4108 L 30.6395,-50.4148 L 30.6174,-50.4176 L 30.596,-50.4193
 L 30.5756,-50.4195 L 30.5566,-50.4185 L 30.5394,-50.416 L 30.5244,-50.412 L 30.5121,-50.4065 L 30.5027,-50.3993
 L 29.1458,-49.3173 L 29.14,-49.3084 L 29.1379,-49.2978 L 29.1379,-49.059 L 28.4897,-48.5421 L 28.4763,-48.5305
 L 28.463,-48.5175 L 28.4494,-48.5029 L 28.4357,-48.4866 L 28.4218,-48.4686 L 28.4073,-48.4487 L 28.3921,-48.4268
 L 28.3763,-48.403 L 28.3598,-48.377 L 28.3461,-48.3549 L 28.3334,-48.3333 L 28.3215,-48.3124 L 28.3107,-48.2921
 L 28.3007,-48.2724 L 28.2917,-48.2531 L 28.2835,-48.2345 L 28.2762,-48.2163 L 28.27,-48.1986 L 28.1642,-48.1142
 L 28.1273,-48.1124 L 28.0852,-48.1092 L 28.0464,-48.1047 L 28.0107,-48.099 L 27.9778,-48.0919 L 27.9476,-48.0833
 L 27.9198,-48.073 L 27.8942,-48.0609 L 27.8705,-48.047 L 27.8485,-48.031 L 26.4916,-46.9489 L 26.4711,-46.9308
 L 26.4519,-46.9104 L 26.4337,-46.8876 L 26.4162,-46.8624 L 26.3992,-46.8345 L 26.3827,-46.8038 L 26.3661,-46.7703
 L 26.3401,-46.7134 L 26.3302,-46.6934 L 26.3224,-46.6785 L 26.1554,-46.7167 L 26.1464,-46.7177 L 26.1369,-46.7167
 L 26.127,-46.7138 L 26.1167,-46.7089 L 26.106,-46.702 L 24.7491,-45.6199 L 24.7383,-45.6109 L 24.7273,-45.6
 L 24.7162,-45.587 L 24.7052,-45.5721 L 24.6942,-45.5552 L 24.6835,-45.5362 L 24.6778,-45.5252 L 24.6728,-45.5148
 L 24.6685,-45.5051 L 24.6647,-45.4958 L 24.6618,-45.4871 L 24.6593,-45.4789 L 24.6575,-45.4712 L 24.6565,-45.464
 L 24.656,-45.4573 L 24.656,-44.688 L 24.645,-44.6705 L 24.6178,-44.6288 L 24.5886,-44.5858 L 24.5734,-44.5642
 L 24.5424,-44.5211 L 24.5267,-44.4998 L 24.4953,-44.4583 L 24.4796,-44.4383 L 24.4489,-44.4004 L 24.4191,-44.3648
 L 24.4039,-44.3456 L 24.3885,-44.3253 L 24.373,-44.304 L 24.3574,-44.2819 L 24.3418,-44.259 L 24.3263,-44.2355
 L 24.3109,-44.2114 L 24.2958,-44.187 L 24.2809,-44.1622 L 24.2664,-44.1374 L 24.253,-44.1136 L 24.1472,-44.3332
 L 24.1302,-44.3656 L 24.1101,-44.4008 L 24.0872,-44.4388 L 24.0614,-44.4797 L 24.0328,-44.5233 L 24.0012,-44.5697
 L 23.9667,-44.619 L 23.9294,-44.671 L 23.8891,-44.7258 L 23.846,-44.7835 L 23.8,-44.8439 L 23.7511,-44.9072
 L 23.6674,-45.0143 L 23.5953,-45.1088 L 23.5088,-45.224 L 23.4181,-45.3461 L 23.383,-45.3938 L 23.3656,-45.417
 L 23.3482,-45.4401 L 23.3304,-45.4629 L 23.3127,-45.4851 L 23.2949,-45.507 L 23.2773,-45.5282 L 23.2598,-45.5488
 L 23.2426,-45.5685 L 23.2256,-45.5874 L 23.2092,-45.6055 L 23.1931,-45.6225 L 23.1777,-45.6384 L 23.1628,-45.6531
 L 23.1487,-45.6666 L 23.1355,-45.6787 L 23.123,-45.6894 L 23.1115,-45.6985 L 23.1011,-45.7061 L 23.0918,-45.712
 L 23.0837,-45.716 L 23.0744,-45.7213 L 23.0614,-45.7307 L 23.0451,-45.7438 L 23.0256,-45.7607 L 23.003,-45.7811
 L 22.9775,-45.8049 L 22.9493,-45.8318 L 22.9186,-45.8617 L 22.8854,-45.8944 L 22.8502,-45.9297 L 22.813,-45.9675
 L 22.7738,-46.0076 L 22.7332,-46.0498 L 22.6909,-46.0939 L 22.6474,-46.1398 L 22.5572,-46.2361 L 22.5108,-46.2861
 L 22.4638,-46.3372 L 22.3596,-46.4515 L 22.3052,-46.5105 L 22.2534,-46.5661 L 22.2039,-46.6185 L 22.1569,-46.6675
 L 22.1124,-46.7132 L 22.0703,-46.7557 L 22.0306,-46.7949 L 21.9933,-46.8308 L 21.9585,-46.8634 L 21.9261,-46.8929
 L 21.896,-46.9189 L 21.8683,-46.9418 L 21.8431,-46.9614 L 21.8202,-46.9778 L 21.7997,-46.991 L 21.7815,-47.0008
 L 21.7657,-47.0075 L 21.7522,-47.0109 L 21.6263,-47.0397 L 21.6093,-47.0488 L 21.5894,-47.0609 L 21.57,-47.0741
 L 21.551,-47.0883 L 21.533,-47.1033 L 21.5159,-47.119 L 21.5001,-47.1352 L 21.495,-47.141 L 21.4375,-47.2603
 L 21.4323,-47.2685 L 21.4251,-47.2778 L 21.416,-47.2883 L 21.4051,-47.2997 L 21.3925,-47.3122 L 21.3783,-47.3255
 L 21.3626,-47.3397 L 21.3454,-47.3546 L 21.3268,-47.3701 L 21.3069,-47.3863 L 21.2859,-47.403 L 21.2637,-47.4201
 L 21.2405,-47.4377 L 21.2164,-47.4555 L 21.1915,-47.4735 L 21.1658,-47.4917 L 21.1394,-47.5101 L 21.1124,-47.5284
 L 21.0552,-47.5676 L 20.9973,-47.609 L 20.9391,-47.6522 L 20.8809,-47.6966 L 20.8232,-47.7422 L 20.7664,-47.7885
 L 20.7109,-47.835 L 20.657,-47.8815 L 20.6051,-47.9275 L 20.5557,-47.9727 L 20.5092,-48.0166 L 20.4659,-48.0591
 L 20.4262,-48.0997 L 20.3907,-48.1379 L 20.3595,-48.1735 L 20.343,-48.1938 L 20.2726,-48.3401 L 20.2685,-48.3484
 L 20.2638,-48.3571 L 20.2586,-48.366 L 20.2529,-48.3752 L 20.2468,-48.3845 L 20.2401,-48.3939 L 20.2258,-48.4129
 L 20.2181,-48.4224 L 20.21,-48.4318 L 20.2017,-48.4411 L 20.1843,-48.4594 L 20.1658,-48.4775 L 20.1558,-48.4881
 L 20.1451,-48.5 L 20.1338,-48.513 L 20.1222,-48.527 L 20.1102,-48.542 L 20.0979,-48.558 L 20.0852,-48.5746
 L 20.0724,-48.5919 L 20.0464,-48.6284 L 20.0205,-48.6665 L 20.0076,-48.686 L 19.9825,-48.7255 L 19.9703,-48.7452
 L 19.9586,-48.7649 L 19.9473,-48.7843 L 19.9364,-48.8036 L 19.9179,-48.8341 L 19.8953,-48.8669 L 19.8692,-48.9013
 L 19.8398,-48.9371 L 19.8078,-48.9738 L 19.7734,-49.011 L 19.7372,-49.0484 L 19.6996,-49.0856 L 19.6611,-49.1221
 L 19.6219,-49.1577 L 19.5828,-49.1918 L 19.544,-49.2241 L 19.5059,-49.2542 L 19.4691,-49.2818 L 19.434,-49.3063
 L 19.401,-49.3275 L 19.3705,-49.345 L 19.3431,-49.3582 L 19.3191,-49.3669 L 19.2848,-49.3748 L 19.2807,-49.3762
 L 19.2709,-49.3801 L 19.2462,-49.3906 L 19.2154,-49.4045 L 19.1594,-49.431 L 19.1167,-49.4519 L 19.0704,-49.475
 L 18.9961,-49.5129 L 18.9181,-49.5535 L 18.8919,-49.5668 L 18.8658,-49.5798 L 18.84,-49.5925 L 18.7894,-49.6165
 L 18.7648,-49.6277 L 18.7177,-49.6486 L 18.6954,-49.6581 L 18.674,-49.6669 L 18.6537,-49.675 L 18.6345,-49.6823
 L 18.6167,-49.6889 L 18.6002,-49.6945 L 18.5852,-49.6993 L 18.5718,-49.7031 L 18.5601,-49.7059 L 18.4684,-49.7268
 L 18.4621,-49.7293 L 18.452,-49.7336 L 18.4418,-49.7383 L 18.4315,-49.7433 L 18.4213,-49.7486 L 18.4111,-49.754
 L 18.4011,-49.7598 L 18.3913,-49.7658 L 18.3817,-49.772 L 18.3724,-49.7783 L 18.3633,-49.7848 L 18.3458,-49.7981
 L 18.3362,-49.8047 L 18.3259,-49.811 L 18.3149,-49.8173 L 18.3032,-49.8234 L 18.2912,-49.8292 L 18.2787,-49.8349
 L 18.2658,-49.8403 L 18.2525,-49.8454 L 18.239,-49.8503 L 18.2254,-49.8548 L 18.2116,-49.859 L 18.1977,-49.8628
 L 18.1839,-49.8663 L 16.4919,-50.2525 L 16.4781,-50.2555 L 16.4644,-50.2581 L 16.451,-50.2603 L 16.4379,-50.262
 L 16.4251,-50.2632 L 16.4127,-50.2639 L 16.395,-50.2643 L 16.3788,-50.2643 L 16.3639,-50.2637 L 16.3503,-50.2627
 L 16.3379,-50.261 L 16.3266,-50.2588 L 16.3166,-50.2558 L 16.3076,-50.2522 L 16.2995,-50.2477 L 16.2924,-50.2424
 L 16.0006,-50.0097 L 15.9592,-50.0228 L 15.8338,-50.0556 L 14.1418,-50.4418 L 14.0051,-50.4718 L 13.8587,-50.4987
 L 13.7038,-50.5227 L 13.5417,-50.5436 L 13.374,-50.5615 L 13.2019,-50.5761 L 13.0268,-50.5875 L 12.85,-50.5957
 L 12.673,-50.6006 L 12.4971,-50.6021 L 12.3236,-50.6002 L 12.154,-50.5948 L 11.9896,-50.5859 L 11.8316,-50.5735
 L 11.6817,-50.5574 L 11.541,-50.5377 L 11.4109,-50.5143 L 11.2929,-50.4871 L 11.2253,-50.4702 L 11.1539,-50.4539
 L 11.0794,-50.438 L 11.0022,-50.4228 L 10.9229,-50.4083 L 10.8421,-50.3945 L 10.7601,-50.3816 L 10.6777,-50.3694
 L 10.5953,-50.3583 L 10.5134,-50.3481 L 10.4326,-50.339 L 10.3535,-50.331 L 10.2766,-50.3242 L 10.2022,-50.3186
 L 10.1312,-50.3144 L 10.0639,-50.3115 L 10.0009,-50.3102 L 9.94278,-50.3102 L 9.89001,-50.3119 L 9.84319,-50.3152
 L 9.80698,-50.3184 L 9.77115,-50.3211 L 9.73558,-50.3233 L 9.70039,-50.325 L 9.66554,-50.3263 L 9.631,-50.327
 L 9.59679,-50.3273 L 9.56296,-50.3271 L 9.52954,-50.3264 L 9.49641,-50.3253 L 9.46371,-50.3236 L 9.45602,-50.3231
 L 8.66179,-50.5043 L 8.64401,-50.5082 L 8.62546,-50.5108 L 8.60603,-50.5125 L 8.58546,-50.5131 L 8.56355,-50.5127
 L 8.54013,-50.5114 L 8.51492,-50.5092 L 8.48779,-50.5061 L 8.45853,-50.5023 L 8.4269,-50.4979 L 8.40598,-50.4945
 L 8.38428,-50.4906 L 8.36192,-50.4861 L 8.33908,-50.4812 L 8.31573,-50.4757 L 8.2921,-50.4698 L 8.26825,-50.4635
 L 8.24426,-50.4569 L 8.22035,-50.4499 L 8.19658,-50.4426 L 8.17308,-50.435 L 8.14989,-50.4272 L 8.12724,-50.4193
 L 8.10512,-50.4112 L 8.08377,-50.403 L 8.0632,-50.3946 L 8.04358,-50.3863 L 8.02501,-50.3779 L 8.00766,-50.3696
 L 7.9604,-50.3452 L 7.94476,-50.3374 L 7.91356,-50.3226 L 7.88293,-50.3089 L 7.85352,-50.2965 L 7.82582,-50.2857
 L 7.80032,-50.2766 L 7.78862,-50.2728 L 7.77762,-50.2695 L 7.76749,-50.2668 L 7.75821,-50.2645 L 7.74992,-50.263
 L 7.74265,-50.262 L 7.73058,-50.2612 L 7.72415,-50.2603 L 7.71715,-50.2586 L 7.70973,-50.2563 L 7.70187,-50.2534
 L 7.69366,-50.2499 L 7.68509,-50.2459 L 7.67624,-50.2413 L 7.6671,-50.2363 L 7.65782,-50.2309 L 7.64839,-50.225
 L 7.63882,-50.2187 L 7.6292,-50.212 L 7.61955,-50.205 L 7.60999,-50.1976 L 7.39691,-50.0277 L 7.38252,-50.0183
 L 7.3526,-49.9998 L 7.33789,-49.9911 L 7.32347,-49.9828 L 7.30934,-49.975 L 7.27521,-49.957 L 7.25658,-49.9465
 L 7.23952,-49.9363 L 7.22409,-49.9263 L 7.21017,-49.916 L 6.77061,-49.5655 L 6.22919,-49.6891 L 6.19371,-49.6967
 L 6.15523,-49.7029 L 6.11395,-49.7076 L 6.07011,-49.7108 L 6.02379,-49.7124 L 5.97523,-49.7124 L 5.92468,-49.7108
 L 5.87221,-49.7074 L 5.81808,-49.7023 L 5.76247,-49.6954 L 5.43277,-49.6496 L 4.07588,-48.5675 L 2.75063,-47.1521
 L 2.59341,-46.9838 L 2.44713,-46.8266 L 2.31126,-46.6798 L 2.1851,-46.5426 L 2.06816,-46.4143 L 1.95978,-46.2942
 L 1.85939,-46.1816 L 1.76643,-46.0758 L 1.68019,-45.9761 L 1.60008,-45.8816 L 1.52562,-45.7919 L 1.45607,-45.706
 L 1.39096,-45.6233 L 1.32964,-45.543 L 1.27145,-45.4647 L 1.21584,-45.3873 L 1.16214,-45.3102 L 1.10988,-45.2328
 L 1.0743,-45.1785 L 0.174377,-44.4608 L 0.163879,-44.4509 L 0.153244,-44.4392 L 0.142319,-44.4256 L 0.131042,-44.41
 L 0.119263,-44.3924 L 0.106842,-44.3727 L 0.0935516,-44.3507 L 0.079422,-44.3266 L 0.0605774,-44.2933 L 0.0435791,-44.2621
 L 0.0285797,-44.2329 L 0.0155182,-44.2053 L 0.00437927,-44.1794 L -0.00482178,-44.155 L -0.0121155,-44.1319 L -0.0175323,-44.1101
 L -0.0209656,-44.0894 L -0.0225372,-44.0696 L -0.0225372,-42.929 L -0.023819,-42.9269 L -0.03125,-42.9134 L -0.0383148,-42.8996
 L -0.0448761,-42.8855 L -0.0510254,-42.8712 L -0.0566559,-42.8569 L -0.0617981,-42.8424 L -0.0665131,-42.8281 L -0.0705872,-42.8138
 L -0.0741577,-42.7997 L -0.0771484,-42.7859 L -0.0795746,-42.7723 L -0.0814362,-42.7592 L -0.0825806,-42.7465 L -0.0831451,-42.7343
 L -0.0831451,-42.2743 L -0.0855713,-42.2513 L -0.0957184,-42.1685 L -0.107773,-42.0804 L -0.121704,-41.9872 L -0.137558,-41.8893
 L -0.155182,-41.7868 L -0.174606,-41.6801 L -0.195816,-41.5693 L -0.218658,-41.4548 L -0.24321,-41.3368 L -0.269424,-41.2155
 L -0.297195,-41.0913 L -0.357315,-40.832 L -0.386444,-40.7036 L -0.413574,-40.5809 L -0.438278,-40.4659 L -0.46019,-40.3606
 L -0.470047,-40.3121 L -0.478973,-40.2669 L -0.48703,-40.2249 L -0.494171,-40.1866 L -0.50032,-40.1522 L -0.502335,-40.1401
 L -0.750549,-39.9422 L -0.764984,-39.9286 L -0.778763,-39.9123 L -0.791962,-39.893 L -0.804596,-39.8709 L -0.816818,-39.8457
 L -0.828598,-39.8173 L -0.840012,-39.7858 L -0.851089,-39.7511 L -0.861938,-39.713 L -0.872498,-39.6715 L -0.882858,-39.6265
 L -0.893127,-39.578 L -0.912262,-39.4802 L -0.923553,-39.4258 L -0.936905,-39.364 L -0.959961,-39.2606 L -0.985809,-39.1485
 L -1.02257,-38.9943 L -1.05049,-38.881 L -1.06883,-38.8076 L -1.0784,-38.768 L -1.08818,-38.7262 L -1.09811,-38.6826
 L -1.11839,-38.5904 L -1.13889,-38.4934 L -1.15915,-38.3935 L -1.16908,-38.3431 L -1.18828,-38.2426 L -1.19749,-38.1929
 L -1.21484,-38.0961 L -1.23041,-38.0041 L -1.2439,-37.919 L -1.25983,-37.8139 L -1.27489,-37.7161 L -1.28909,-37.6253
 L -1.30252,-37.5413 L -1.31523,-37.4637 L -1.32722,-37.3921 L -1.33864,-37.3262 L -1.34956,-37.2658 L -1.35999,-37.2105
 L -1.37006,-37.16 L -1.37978,-37.114 L -1.38919,-37.0721 L -1.39847,-37.0341 L -1.40755,-36.9996 L -1.41661,-36.9683
 L -1.4256,-36.9398 L -1.43468,-36.914 L -1.44388,-36.8904 L -1.45331,-36.8687 L -1.46786,-36.838 L -1.47287,-36.8259
 L -1.47794,-36.8122 L -1.48308,-36.797 L -1.48822,-36.7805 L -1.49344,-36.7627 L -1.49857,-36.7439 L -1.50365,-36.7239
 L -1.50864,-36.7031 L -1.51357,-36.6815 L -1.51842,-36.659 L -1.52763,-36.6126 L -1.53192,-36.5888 L -1.53606,-36.5646
 L -1.53998,-36.5403 L -1.54362,-36.5159 L -1.54698,-36.4915 L -1.54997,-36.4673 L -1.56204,-36.3576 L -1.57147,-36.2738
 L -1.58104,-36.192 L -1.59061,-36.1122 L -1.60031,-36.0344 L -1.61009,-35.9586 L -1.61995,-35.8848 L -1.62994,-35.813
 L -1.63994,-35.7432 L -1.65007,-35.6754 L -1.66028,-35.6097 L -1.67056,-35.546 L -1.68092,-35.4843 L -1.69135,-35.4247
 L -1.7019,-35.3671 L -1.71248,-35.3115 L -1.72319,-35.258 L -1.73389,-35.2066 L -1.74475,-35.1573 L -1.76509,-35.0695
 L -1.77351,-35.0321 L -1.78087,-34.9974 L -1.78716,-34.9654 L -1.79237,-34.9356 L -1.79643,-34.9079 L -1.79936,-34.8819
 L -1.80122,-34.8574 L -1.80193,-34.8341 L -1.80193,-33.0986 L -1.8015,-33.0762 L -1.79993,-33.0546 L -1.79715,-33.0333
 L -1.79323,-33.0122 L -1.78801,-32.991 L -1.78166,-32.9693 L -1.77409,-32.9471 L -1.76523,-32.9238 L -1.75517,-32.8994
 L -1.74382,-32.8736 L -1.72311,-32.8277 L -1.71497,-32.808 L -1.70705,-32.7873 L -1.69919,-32.7654 L -1.69148,-32.7426
 L -1.68399,-32.7191 L -1.67671,-32.6948 L -1.66963,-32.67 L -1.66292,-32.6448 L -1.65643,-32.6192 L -1.65036,-32.5934
 L -1.64458,-32.5677 L -1.6393,-32.5419 L -1.63437,-32.5163 L -1.62994,-32.491 L -1.62601,-32.4662 L -1.62259,-32.4419
 L -1.61974,-32.4184 L -1.61745,-32.3956 L -1.6158,-32.3737 L -1.60252,-32.1671 L -1.58997,-31.9766 L -1.57803,-31.8014
 L -1.56662,-31.6407 L -1.55569,-31.4939 L -1.54504,-31.3602 L -1.5347,-31.2388 L -1.52457,-31.1289 L -1.51442,-31.0298
 L -1.50435,-30.9408 L -1.49414,-30.861 L -1.48372,-30.7898 L -1.47301,-30.7264 L -1.46194,-30.67 L -1.45038,-30.6199
 L -1.43831,-30.5753 L -1.4256,-30.5355 L -1.41211,-30.4997 L -1.39777,-30.4672 L -1.38255,-30.4372 L -1.27196,-30.2332
 L -0.429764,-29.5615 L -0.423279,-29.5479 L -0.413208,-29.5238 L -0.403854,-29.4986 L -0.395218,-29.4719 L -0.387299,-29.4435
 L -0.379868,-29.4134 L -0.372879,-29.3812 L -0.366379,-29.3468 L -0.360092,-29.3099 L -0.354172,-29.2705 L -0.348312,-29.2283
 L -0.338608,-29.1512 L -0.334106,-29.118 L -0.329254,-29.0839 L -0.31839,-29.0132 L -0.312469,-28.977 L -0.299835,-28.9039
 L -0.286407,-28.831 L -0.27948,-28.795 L -0.272415,-28.7596 L -0.265274,-28.7249 L -0.250931,-28.6584 L -0.236649,-28.597
 L -0.229645,-28.5686 L -0.222733,-28.542 L -0.216019,-28.5174 L -0.20517,-28.4795 L -0.20517,-27.8524 L -0.204956,-27.8219
 L -0.203522,-27.7903 L -0.200958,-27.7577 L -0.197021,-27.7246 L -0.191879,-27.6909 L -0.185455,-27.657 L -0.181824,-27.6405
 L -0.177887,-27.6246 L -0.173752,-27.6093 L -0.169388,-27.5948 L -0.164902,-27.5809 L -0.160187,-27.5677 L -0.155396,-27.5554
 L -0.150467,-27.5438 L -0.145477,-27.5332 L -0.140411,-27.5235 L -0.135345,-27.5148 L -0.130203,-27.507 L -0.125122,-27.5004
 L -0.120132,-27.4948 L -0.115128,-27.4904 L 0.506363,-26.9948 L 0.508438,-26.9685 L 0.511154,-26.9404 L 0.514084,-26.9139
 L 0.517227,-26.8891 L 0.520721,-26.866 L 0.524429,-26.8446 L 0.528427,-26.8248 L 0.532715,-26.8068 L 0.537216,-26.7904
 L 0.541992,-26.7758 L 0.547058,-26.763 L 0.552353,-26.7517 L 0.557922,-26.7423 L 0.563705,-26.7346 L 0.569763,-26.7286
 L 0.775513,-26.5645 L 0.793167,-26.5368 L 0.812012,-26.5041 L 0.829788,-26.4703 L 0.846283,-26.4355 L 0.861343,-26.4001
 L 0.874695,-26.3643 L 0.8862,-26.3287 L 0.895691,-26.2934 L 0.902908,-26.2588 L 0.907608,-26.2252 L 0.90976,-26.1929
 L 0.910477,-26.1689 L 0.911606,-26.1468 L 0.913177,-26.1263 L 0.915176,-26.1075 L 0.917816,-26.0902 L 0.920959,-26.0743
 L 0.92482,-26.0599 L 0.929382,-26.0468 L 0.934738,-26.0349 L 0.940887,-26.024 L 0.947876,-26.0143 L 0.955811,-26.0054
 L 0.964737,-25.9975 L 1.55815,-25.5243 L 1.55875,-25.506 L 1.56131,-25.4647 L 1.56703,-25.4232 L 1.57573,-25.382
 L 1.5873,-25.3411 L 1.60144,-25.3009 L 1.61807,-25.2615 L 1.63707,-25.2232 L 1.65813,-25.186 L 1.68118,-25.1505
 L 1.70596,-25.1166 L 1.73245,-25.0847 L 1.7603,-25.0549 L 1.78943,-25.0276 L 1.8197,-25.0028 L 2.26674,-24.6463
 L 2.27892,-24.602 L 3.63437,-23.5211 L 3.63437,-23.4091 L 3.63451,-23.334 L 3.63602,-23.2651 L 3.63901,-23.2021
 L 3.64357,-23.1448 L 3.6498,-23.0927 L 3.65779,-23.0455 L 3.66757,-23.003 L 3.67935,-22.9648 L 3.69305,-22.9307
 L 3.70883,-22.9002 L 3.72682,-22.8732 L 3.74702,-22.8492 L 3.76959,-22.828 L 5.12648,-21.7459 L 5.13881,-21.7366
 L 5.14354,-21.7118 L 5.15804,-21.6479 L 5.17502,-21.5828 L 5.19437,-21.5167 L 5.216,-21.4497 L 5.23991,-21.3818
 L 5.26605,-21.3134 L 5.29425,-21.2444 L 5.32452,-21.1752 L 5.35672,-21.1056 L 5.39091,-21.0361 L 5.42691,-20.9665
 L 5.46468,-20.8972 L 5.50423,-20.8283 L 5.54535,-20.7598 L 5.58812,-20.692 L 5.63231,-20.625 L 5.67801,-20.5588
 L 5.72513,-20.4937 L 5.77347,-20.43 L 5.82108,-20.3699 L 5.86699,-20.3148 L 5.91112,-20.2646 L 5.95345,-20.2195
 L 5.99393,-20.1795 L 6.03256,-20.1444 L 6.06932,-20.1144 L 7.42621,-19.0323 L 7.46112,-19.0074 L 7.49403,-18.9876
 L 7.52502,-18.9728 L 7.55402,-18.9631 L 7.58099,-18.9585 L 7.60599,-18.959 L 7.67097,-18.9738 L 8.1331,-18.6053
 L 8.14011,-18.6022 L 8.1481,-18.6021 L 8.21854,-18.6182 L 9.06468,-17.9434 L 9.30836,-17.9686 L 9.80385,-17.5734
 L 9.83083,-17.5578 L 9.86017,-17.5474 L 9.8918,-17.542 L 9.92572,-17.5417 L 9.96199,-17.5465 L 10.2492,-17.6121
 L 10.3187,-17.5567 L 10.3275,-17.5315 L 10.3395,-17.5019 L 10.3517,-17.4768 L 10.364,-17.4568 L 10.3764,-17.442
 L 10.9004,-17.0241 L 10.9029,-17.0206 L 10.9138,-17.0094 L 11.1422,-16.8273 L 11.1427,-16.8184 L 11.1442,-16.7991
 L 11.146,-16.7804 L 11.1481,-16.7625 L 11.1504,-16.7454 L 11.153,-16.7291 L 11.1559,-16.7138 L 11.1589,-16.6993
 L 11.1621,-16.686 L 11.1656,-16.6738 L 11.1691,-16.6628 L 11.1729,-16.653 L 11.1768,-16.6446 L 11.1809,-16.6375
 L 11.1851,-16.6319 L 11.1893,-16.6278 L 11.3678,-16.4854 L 11.3686,-16.4795 L 11.372,-16.4528 L 11.3753,-16.4255
 L 11.3814,-16.3699 L 11.385,-16.3422 L 11.3888,-16.3149 L 11.3931,-16.2881 L 11.3977,-16.2618 L 11.4026,-16.2363
 L 11.4077,-16.2116 L 11.4132,-16.1876 L 11.4188,-16.1648 L 11.4246,-16.1429 L 11.4306,-16.1223 L 11.4367,-16.103
 L 11.4429,-16.085 L 11.4492,-16.0684 L 11.4556,-16.0535 L 11.4619,-16.0402 L 11.4684,-16.0286 L 11.4747,-16.019
 L 11.481,-16.0113 L 11.4872,-16.0056 L 11.4943,-15.9999 L 11.4994,-15.9953 L 11.5056,-15.9894 L 11.5116,-15.9829
 L 11.5175,-15.9759 L 11.5234,-15.9685 L 11.5291,-15.9607 L 11.5347,-15.9527 L 11.5401,-15.9443 L 11.5454,-15.9356
 L 11.5504,-15.9268 L 11.5552,-15.9178 L 11.5597,-15.9086 L 11.5639,-15.8994 L 11.5678,-15.8901 L 11.5714,-15.8808
 L 11.5747,-15.8716 L 11.5775,-15.8624 L 11.5799,-15.8534 L 11.5842,-15.8345 L 11.587,-15.8249 L 11.5904,-15.8158
 L 11.5944,-15.8071 L 11.5989,-15.799 L 11.6039,-15.7913 L 11.6095,-15.7841 L 11.6156,-15.7774 L 11.6221,-15.7712
 L 12.0821,-15.4044 L 12.0832,-15.4027 L 12.0911,-15.3896 L 12.0991,-15.3752 L 12.107,-15.3594 L 12.1148,-15.3424
 L 12.1225,-15.3244 L 12.13,-15.3053 L 12.1373,-15.2854 L 12.1445,-15.2647 L 12.1513,-15.2433 L 12.1578,-15.2213
 L 12.164,-15.1987 L 12.1699,-15.1759 L 12.1754,-15.1527 L 12.1804,-15.1293 L 12.1849,-15.1058 L 12.1889,-15.0822
 L 12.1925,-15.0588 L 12.1992,-15.0155 L 12.2078,-14.9721 L 12.2179,-14.9287 L 12.2297,-14.8855 L 12.243,-14.8424
 L 12.2577,-14.7997 L 12.2738,-14.7575 L 12.2913,-14.716 L 12.31,-14.6751 L 12.33,-14.6351 L 12.351,-14.5961
 L 12.3732,-14.5581 L 12.3964,-14.5214 L 12.4206,-14.486 L 12.4456,-14.4521 L 12.4714,-14.4197 L 12.498,-14.389
 L 12.5254,-14.3601 L 12.5534,-14.3332 L 12.5819,-14.3084 L 12.5907,-14.3009 L 12.5994,-14.2932 L 12.6167,-14.277
 L 12.6251,-14.2686 L 12.6414,-14.2514 L 12.6492,-14.2427 L 12.6568,-14.234 L 12.6709,-14.2166 L 12.6775,-14.2081
 L 12.6837,-14.1998 L 12.6945,-14.1836 L 12.6992,-14.1759 L 12.7034,-14.1686 L 12.7069,-14.1616 L 12.7099,-14.155
 L 12.7122,-14.1488 L 12.7148,-14.1429 L 12.7185,-14.1371 L 12.7234,-14.1314 L 12.7292,-14.1259 L 13.866,-13.2193
 L 13.887,-13.1558 L 13.9111,-13.0896 L 13.9373,-13.0229 L 13.9656,-12.9561 L 13.9959,-12.8894 L 14.028,-12.8232
 L 14.0619,-12.7575 L 14.0973,-12.6928 L 14.1342,-12.6292 L 14.1724,-12.5671 L 14.2119,-12.5066 L 14.2126,-12.5056
 L 14.2126,-12.0219 L 14.2132,-12.0045 L 14.2155,-11.9851 L 14.2198,-11.9639 L 14.2258,-11.941 L 14.2336,-11.9167
 L 14.243,-11.8913 L 14.254,-11.8648 L 14.2666,-11.8374 L 14.2807,-11.8094 L 14.2962,-11.781 L 14.3131,-11.7523
 L 14.3313,-11.7236 L 14.3508,-11.695 L 14.3715,-11.6667 L 14.3879,-11.6447 L 14.4032,-11.6232 L 14.4174,-11.6023
 L 14.4306,-11.5819 L 14.4427,-11.5619 L 14.4538,-11.5423 L 14.464,-11.523 L 14.4732,-11.504 L 14.4814,-11.4854
 L 14.4887,-11.4669 L 14.495,-11.4486 L 14.5005,-11.4304 L 14.505,-11.4123 L 14.5087,-11.3943 L 14.5115,-11.3768
 L 14.5115,-11.241 L 14.5117,-11.226 L 14.5124,-11.211 L 14.5135,-11.1961 L 14.515,-11.1812 L 14.5168,-11.1665
 L 14.519,-11.152 L 14.5215,-11.1379 L 14.5244,-11.1241 L 14.5276,-11.1108 L 14.5311,-11.098 L 14.535,-11.0858
 L 14.539,-11.0742 L 14.5434,-11.0633 L 14.548,-11.0532 L 14.5529,-11.0439 L 14.5579,-11.0356 L 14.5692,-11.0203
 L 14.5746,-11.0117 L 14.5796,-11.0022 L 14.5836,-10.9934 L 14.5836,-10.6714 L 14.5841,-10.6525 L 14.5854,-10.6334
 L 14.5876,-10.6141 L 14.5906,-10.5947 L 14.5946,-10.5749 L 14.5995,-10.5547 L 14.6053,-10.5341 L 14.6121,-10.5131
 L 14.6198,-10.4914 L 14.6285,-10.469 L 14.6381,-10.446 L 14.6488,-10.4221 L 14.6605,-10.3974 L 14.6733,-10.3718
 L 14.7088,-10.3038 L 14.7531,-10.2169 L 14.7962,-10.1303 L 14.8348,-10.0503 L 14.8589,-9.99861 L 14.8719,-9.96964
 L 14.8773,-9.95714 L 14.8838,-9.94286 L 14.8911,-9.929 L 14.8991,-9.91559 L 14.9078,-9.90251 L 14.9172,-9.8898
 L 14.9274,-9.87753 L 14.9383,-9.86568 L 14.9501,-9.85419 L 14.9625,-9.84305 L 14.9757,-9.83226 L 16.1107,-8.92709
 L 16.2188,-8.82094 L 16.3493,-8.69392 L 16.4311,-8.61482 L 16.5068,-8.54214 L 16.5749,-8.47752 L 16.6335,-8.42255
 L 16.6588,-8.39912 L 16.7014,-8.35922 L 16.7432,-8.31866 L 16.784,-8.27791 L 16.8235,-8.23685 L 16.8619,-8.19594
 L 16.8987,-8.15517 L 16.9339,-8.11484 L 16.953,-8.09221 L 16.953,-7.69574 L 16.9544,-7.68881 L 16.9586,-7.67996
 L 16.9656,-7.66896 L 16.9756,-7.65582 L 16.9885,-7.64041 L 17.0043,-7.62256 L 17.0233,-7.60214 L 17.0454,-7.57907
 L 17.0707,-7.5533 L 17.1313,-7.4929 L 17.1666,-7.45821 L 17.1934,-7.43158 L 17.2188,-7.40581 L 17.2427,-7.38074
 L 17.2653,-7.3564 L 17.2864,-7.3329 L 17.3061,-7.3102 L 17.3243,-7.28828 L 17.3412,-7.26723 L 17.3565,-7.24695
 L 17.3704,-7.22752 L 17.3828,-7.20895 L 17.3938,-7.19125 L 17.4033,-7.17441 L 17.4113,-7.15842 L 17.4178,-7.14334
 L 17.4228,-7.12921 L 17.4263,-7.116 L 17.4269,-7.11212 L 17.4269,-7.0726 L 17.4276,-7.06146 L 17.4295,-7.04868
 L 17.4328,-7.03439 L 17.4375,-7.01855 L 17.4434,-7.00142 L 17.4505,-6.98299 L 17.4587,-6.96342 L 17.468,-6.94279
 L 17.4784,-6.92123 L 17.4898,-6.89882 L 17.5021,-6.87561 L 17.5154,-6.85184 L 17.5294,-6.82742 L 17.5443,-6.80264
 L 17.5599,-6.77751 L 17.5762,-6.75211 L 17.5931,-6.72653 L 17.6107,-6.70097 L 17.6467,-6.65022 L 17.6644,-6.6248
 L 17.6815,-6.59938 L 17.6981,-6.57404 L 17.7141,-6.5489 L 17.7296,-6.52406 L 17.7443,-6.49965 L 17.7583,-6.47572
 L 17.7715,-6.45238 L 17.7838,-6.42982 L 17.7952,-6.40811 L 17.8056,-6.38734 L 17.815,-6.36755 L 17.8233,-6.349
 L 17.8304,-6.33165 L 17.8364,-6.31572 L 17.8411,-6.30124 L 17.8444,-6.28838 L 17.8464,-6.27718 L 17.8469,-6.26775
 L 17.8486,-6.24384 L 17.8543,-6.20992 L 17.8634,-6.16722 L 17.8757,-6.11682 L 17.8909,-6.05984 L 17.9083,-5.99738
 L 17.9279,-5.93069 L 17.9492,-5.86087 L 17.9717,-5.78897 L 17.9953,-5.71614 L 18.0194,-5.6436 L 18.0436,-5.57236
 L 18.0677,-5.50366 L 18.0913,-5.43863 L 18.1139,-5.37837 L 18.1352,-5.32396 L 18.1549,-5.27657 L 18.1727,-5.23737
 L 18.1879,-5.20744 L 18.2004,-5.18796 L 18.2054,-5.18246 L 18.2115,-5.1769 L 18.9139,-4.61671 L 18.9187,-4.60651
 L 18.9279,-4.58545 L 18.9362,-4.56517 L 18.9434,-4.54568 L 18.9496,-4.52704 L 18.9501,-4.52534 L 18.9501,-4.33257
 L 18.9505,-4.32484 L 18.9512,-4.31728 L 18.9523,-4.31007 L 18.9537,-4.30315 L 18.9555,-4.29659 L 18.9576,-4.29036
 L 18.9601,-4.28465 L 18.9629,-4.27937 L 18.966,-4.27458 L 18.9695,-4.27031 L 18.9733,-4.26659 L 18.9794,-4.26173
 L 18.9902,-4.25211 L 19.0051,-4.23361 L 19.0218,-4.20862 L 19.0399,-4.17799 L 19.0592,-4.14244 L 19.0795,-4.1026
 L 19.1002,-4.05933 L 19.1212,-4.01321 L 19.1423,-3.96509 L 19.1631,-3.91554 L 19.1832,-3.86549 L 19.2024,-3.81544
 L 19.2205,-3.76633 L 19.237,-3.7187 L 19.2517,-3.67343 L 19.2644,-3.6311 L 19.2746,-3.59254 L 19.2822,-3.55849
 L 19.2868,-3.52957 L 19.2882,-3.50652 L 19.29,-3.46967 L 19.2968,-3.42705 L 19.3083,-3.37921 L 19.3242,-3.32666
 L 19.3442,-3.27005 L 19.368,-3.20979 L 19.3953,-3.14645 L 19.4259,-3.08063 L 19.4594,-3.01288 L 19.4955,-2.94362
 L 19.5341,-2.87352 L 19.5746,-2.80304 L 19.6171,-2.73279 L 19.661,-2.66325 L 19.706,-2.59508 L 19.752,-2.52859
 L 19.7986,-2.46455 L 19.8456,-2.40337 L 19.8926,-2.34569 L 19.9393,-2.29192 L 19.9699,-2.25766 L 19.9994,-2.22345
 L 20.028,-2.18933 L 20.0556,-2.15535 L 20.0824,-2.12143 L 20.108,-2.08766 L 20.1328,-2.05396 L 20.1567,-2.02034
 L 20.1796,-1.98677 L 20.2016,-1.95329 L 20.2226,-1.91988 L 20.2426,-1.88654 L 20.2618,-1.8532 L 20.28,-1.81999
 L 20.2973,-1.78687 L 20.3137,-1.75374 L 20.3291,-1.72061 L 20.3437,-1.68762 L 20.3572,-1.65465 L 20.3699,-1.62166
 L 20.3848,-1.58211 L 20.3988,-1.54576 L 20.412,-1.5125 L 20.4246,-1.4823 L 20.4366,-1.45496 L 20.4481,-1.43031
 L 20.4592,-1.40833 L 20.47,-1.38884 L 20.4806,-1.37177 L 20.491,-1.35692 L 20.5015,-1.34421 L 20.512,-1.33357
 L 20.5227,-1.3248 L 20.9301,-0.999893 L 20.9328,-0.995377 L 20.9415,-0.981598 L 20.951,-0.967453 L 20.9612,-0.952896
 L 20.9722,-0.938049 L 20.9839,-0.922974 L 20.9962,-0.9077 L 21.0091,-0.892426 L 21.0224,-0.877075 L 21.0363,-0.861786
 L 21.0506,-0.846649 L 21.0653,-0.831665 L 21.0954,-0.802246 L 21.1101,-0.787399 L 21.1245,-0.772476 L 21.1383,-0.757477
 L 21.1517,-0.742554 L 21.1646,-0.727707 L 21.1768,-0.713074 L 21.1886,-0.698578 L 21.1996,-0.684448 L 21.2098,-0.67067
 L 21.2194,-0.657318 L 21.2281,-0.644394 L 21.2359,-0.632111 L 21.2429,-0.620407 L 21.2488,-0.609406 L 21.2538,-0.599197
 L 21.2577,-0.589767 L 21.2605,-0.581207 L 21.2622,-0.573639 L 21.2627,-0.567062 L 21.2628,-0.549286 L 21.2639,-0.532944
 L 21.266,-0.518097 L 21.269,-0.504745 L 21.273,-0.492813 L 21.2779,-0.482468 L 21.2836,-0.473541 L 21.2901,-0.466187
 L 22.647,0.615891 L 22.6545,0.62175 L 22.6626,0.626022 L 22.6715,0.628815 L 22.6812,0.629959 L 22.6915,0.629593
 L 22.7024,0.627594 L 22.8533,0.59317 L 23.0125,0.720169 L 23.0129,0.728333 L 23.0141,0.729279 L 23.0156,0.752121
 L 23.0174,0.773239 L 23.0197,0.79216 L 23.0224,0.808945 L 23.0257,0.823441 L 23.0297,0.835861 L 23.0345,0.846207
 L 23.0402,0.854492 L 23.0469,0.860703 L 24.4038,1.94278 L 24.4117,1.94707 L 24.4207,1.94942 L 24.4309,1.94984
 L 24.4426,1.94835 L 26.1347,1.56216 L 26.1479,1.55896 L 26.1627,1.55388 L 26.1791,1.5471 L 26.1974,1.5386
 L 26.2175,1.5284 L 26.2396,1.51662 L 26.2638,1.50319 L 26.2849,1.49063 L 26.3061,1.47649 L 26.3273,1.46086
 L 26.3486,1.44365 L 26.3701,1.42488 L 26.3916,1.4046 L 26.4133,1.38268 L 26.435,1.35927 L 26.4567,1.33427
 L 26.4787,1.30771 L 26.5007,1.27951 L 26.5228,1.24982 L 26.545,1.21848 L 26.5674,1.18562 L 26.5899,1.15114
 L 26.6125,1.11502 L 26.6352,1.07739 L 26.6581,1.03812 L 26.6811,0.997208 L 26.724,0.91832 L 26.7455,0.880188
 L 26.7682,0.841217 L 26.7914,0.802155 L 26.8267,0.744827 L 26.8497,0.708633 L 26.8717,0.674866 L 26.8925,0.644165
 L 26.9115,0.617462 L 26.9292,0.593475 L 26.9518,0.561844 L 26.9651,0.542847 L 27.012,0.47467 L 27.0672,0.3927
 L 27.1283,0.300751 L 27.2144,0.169235 L 27.317,0.0102997 L 27.3542,-0.0458832 L 27.3904,-0.0996399 L 27.4258,-0.15097
 L 27.4601,-0.199677 L 27.4935,-0.245712 L 27.5258,-0.289124 L 27.557,-0.329758 L 27.587,-0.367523 L 27.6158,-0.402435
 L 27.6432,-0.434341 L 27.6693,-0.463257 L 27.694,-0.489044 L 27.7173,-0.511673 L 27.739,-0.531082 L 27.7592,-0.54715
 L 27.7778,-0.559937 L 27.7946,-0.569214 L 27.8027,-0.572281 L 27.8269,-0.577789 L 27.8313,-0.579285 L 27.8362,-0.581635
 L 27.8417,-0.584854 L 27.8477,-0.588852 L 27.8541,-0.593628 L 27.8609,-0.599136 L 27.868,-0.60527 L 27.8832,-0.619553
 L 27.8912,-0.627548 L 27.9078,-0.645035 L 27.9163,-0.654526 L 27.9335,-0.674744 L 27.9508,-0.696304 L 27.9594,-0.707504
 L 27.98,-0.735779 L 27.9909,-0.751633 L 28.0007,-0.766556 L 28.0093,-0.780624 L 28.0169,-0.7939 L 28.0233,-0.80661
 L 28.2122,-1.19882 L 28.2185,-1.20207 L 28.2397,-1.21414 L 28.2601,-1.22684 L 28.2795,-1.2404 L 28.2985,-1.2549
 L 28.3168,-1.27054 L 28.3347,-1.28738 L 28.3524,-1.30566 L 28.3698,-1.32536 L 28.3871,-1.34671 L 28.4044,-1.36984
 L 28.4219,-1.39484 L 28.4396,-1.42189 L 28.4577,-1.45117 L 28.4762,-1.48265 L 28.4954,-1.51663 L 28.5152,-1.55312
 L 28.5359,-1.59232 L 28.5728,-1.66451 L 28.6045,-1.72476 L 28.6369,-1.78423 L 28.6532,-1.81335 L 28.6855,-1.86983
 L 28.7014,-1.8969 L 28.7171,-1.92302 L 28.7323,-1.94809 L 28.7472,-1.972 L 28.7615,-1.99463 L 28.7753,-2.01576
 L 28.7885,-2.0354 L 28.8009,-2.05333 L 28.8125,-2.06946 L 28.8232,-2.08366 L 28.833,-2.09581 L 28.8638,-2.131
 L 28.8912,-2.16484 L 28.9232,-2.20633 L 28.9593,-2.25444 L 28.9987,-2.30835 L 29.0408,-2.3669 L 29.0849,-2.42921
 L 29.1304,-2.49434 L 29.1766,-2.56123 L 29.2228,-2.62898 L 29.2684,-2.69653 L 29.3128,-2.763 L 29.3552,-2.82733
 L 29.395,-2.88858 L 29.4314,-2.94585 L 29.4641,-2.99803 L 29.4921,-3.04422 L 29.5148,-3.08342 L 29.5316,-3.11462
 L 29.5563,-3.16585 L 29.5612,-3.17474 L 29.5722,-3.19394 L 29.6004,-3.24121 L 29.6174,-3.26891 L 29.6565,-3.33159
 L 29.7019,-3.40292 L 29.7525,-3.48146 L 29.8076,-3.56584 L 29.8663,-3.65466 L 29.9277,-3.74655 L 30.0449,-3.92068
 L 30.1293,-4.04712 L 30.2121,-4.17229 L 30.2931,-4.29579 L 30.3722,-4.41739 L 30.4492,-4.53668 L 30.5238,-4.65341
 L 30.5959,-4.76729 L 30.6654,-4.87804 L 30.7318,-4.9852 L 30.7953,-5.08865 L 30.8554,-5.18796 L 30.912,-5.28278
 L 30.9651,-5.37294 L 31.0142,-5.45805 L 31.0593,-5.5378 L 31.1002,-5.61191 L 31.1366,-5.68002 L 31.1684,-5.74193
 L 31.1954,-5.79718 L 31.2109,-5.82938 L 31.2259,-5.85959 L 31.2404,-5.88785 L 31.2545,-5.91428 L 31.2682,-5.93877
 L 31.2817,-5.96147 L 31.2947,-5.98232 L 31.3074,-6.00145 L 31.3199,-6.0188 L 31.3321,-6.0345 L 31.3441,-6.04857
 L 31.3559,-6.06091 L 31.3675,-6.07178 L 31.379,-6.08105 L 31.3857,-6.08554 L 31.4908,-6.10954 L 31.4991,-6.11182
 L 31.5065,-6.11482 L 31.5128,-6.11853 L 31.5182,-6.12303 L 31.5227,-6.12831 L 31.5263,-6.1346 L 32.0724,-7.26862
 L 32.0764,-7.2733 L 32.0956,-7.29457 L 32.1152,-7.3157 L 32.1354,-7.33669 L 32.156,-7.35725 L 32.1768,-7.37746
 L 32.198,-7.39709 L 32.2192,-7.41615 L 32.2404,-7.43443 L 32.2616,-7.45192 L 32.2826,-7.46841 L 32.3238,-7.49911
 L 32.344,-7.51489 L 32.364,-7.53104 L 32.3835,-7.54745 L 32.4027,-7.56422 L 32.4212,-7.58109 L 32.4392,-7.59807
 L 32.4565,-7.61514 L 32.4731,-7.63206 L 32.4888,-7.64883 L 32.5036,-7.66547 L 32.5175,-7.68167 L 32.5302,-7.6976
 L 32.5419,-7.71295 L 32.5524,-7.7278 L 32.5617,-7.74208 L 32.5695,-7.75557 L 32.576,-7.76828 L 32.6185,-7.85654
 L 32.6255,-7.8671 L 32.6398,-7.88737 L 32.6559,-7.909 L 32.6738,-7.93199 L 32.6932,-7.95605 L 32.714,-7.98119
 L 32.7363,-8.00717 L 32.7598,-8.03395 L 32.7845,-8.06143 L 32.8103,-8.08942 L 32.837,-8.11777 L 32.8645,-8.14647
 L 32.8929,-8.17531 L 32.9218,-8.20415 L 32.9513,-8.233 L 33.0114,-8.29025 L 33.0413,-8.31946 L 33.0708,-8.34901
 L 33.1001,-8.37878 L 33.1287,-8.40871 L 33.1567,-8.43848 L 33.1839,-8.46811 L 33.2102,-8.49745 L 33.2356,-8.52629
 L 33.2598,-8.55457 L 33.2829,-8.58205 L 33.3046,-8.60875 L 33.3249,-8.63446 L 33.3436,-8.65895 L 33.3606,-8.6823
 L 33.3758,-8.70413 L 33.3891,-8.72449 L 33.4004,-8.74319 L 33.4096,-8.76004 L 33.4529,-8.84991 L 33.4601,-8.86278
 L 33.4687,-8.8777 L 33.4776,-8.89249 L 33.4867,-8.90712 L 33.496,-8.92146 L 33.5054,-8.93553 L 33.515,-8.94923
 L 33.5246,-8.96245 L 33.5341,-8.97516 L 33.5436,-8.98729 L 33.5531,-8.99872 L 33.5623,-9.00943 L 33.5715,-9.01935
 L 33.5803,-9.02841 L 33.5975,-9.04485 L 33.6058,-9.05391 L 33.614,-9.06377 L 33.6217,-9.07433 L 33.6293,-9.08554
 L 33.6365,-9.09738 L 33.6434,-9.10974 L 33.6499,-9.12251 L 34.1702,-10.2029 L 34.3417,-10.242 L 34.349,-10.2441
 L 34.3558,-10.2472 L 34.362,-10.2514 L 34.3678,-10.2567 L 34.3729,-10.263 L 34.3774,-10.2703 L 35.0589,-11.6855
 L 35.6047,-11.8101 L 35.6158,-11.8161 L 35.6268,-11.8261 L 35.6374,-11.8397 L 35.6477,-11.8568 L 36.0437,-12.6791
 L 36.0542,-12.6815 L 36.0696,-12.6885 L 36.0841,-12.6987 L 36.0978,-12.7119 L 36.1106,-12.7284 L 36.1225,-12.7479
 L 36.1334,-12.7705 L 36.2852,-13.0858 L 36.8874,-13.2233 L 36.8977,-13.2276 L 36.9073,-13.2348 L 36.9162,-13.245
 L 36.9242,-13.2581 L 37.3446,-14.131 L 37.517,-14.1703 L 37.5303,-14.1738 L 37.5434,-14.1806 L 37.556,-14.1905
 L 37.5681,-14.2036 L 37.5793,-14.2199 L 37.5896,-14.2393 L 37.7678,-14.6095 L 37.7695,-14.6104 L 37.7971,-14.6231
 L 37.828,-14.6356 L 37.8624,-14.648 L 37.9004,-14.6606 L 37.9423,-14.6733 L 37.9883,-14.6866 L 38.072,-14.7097
 L 38.1033,-14.719 L 38.1323,-14.7285 L 38.1595,-14.738 L 38.1847,-14.748 L 38.2085,-14.7584 L 38.2308,-14.7696
 L 38.2518,-14.7814 L 38.2718,-14.7942 L 38.291,-14.8081 L 38.3094,-14.8231 L 38.3272,-14.8396 L 38.3448,-14.8574
 L 38.3622,-14.8769 L 38.3796,-14.8981 L 38.3972,-14.9212 L 38.4152,-14.9464 L 38.4337,-14.9736 L 38.453,-15.0033
 L 38.4869,-15.0569 L 38.5011,-15.0784 L 38.5157,-15.0999 L 38.5307,-15.1211 L 38.5461,-15.142 L 38.5616,-15.1625
 L 38.5773,-15.1826 L 38.593,-15.2022 L 38.6087,-15.2211 L 38.6244,-15.2393 L 38.6399,-15.2567 L 38.6552,-15.2733
 L 38.6702,-15.2888 L 38.6847,-15.3033 L 38.6989,-15.3166 L 38.7124,-15.3288 L 38.7254,-15.3395 L 38.7378,-15.3489
 L 38.7493,-15.3568 L 38.7785,-15.3741 L 38.7968,-15.3874 L 38.8151,-15.4029 L 38.8332,-15.4204 L 38.8511,-15.4401
 L 38.8689,-15.4616 L 38.8864,-15.485 L 38.9036,-15.5102 L 38.9204,-15.5372 L 38.9368,-15.5657 L 38.9528,-15.5958
 L 38.9684,-15.6273 L 39.1407,-15.9852 L 39.5949,-16.0889 L 39.6184,-16.0949 L 39.6396,-16.1017 L 39.6585,-16.1094
 L 39.6752,-16.118 L 39.6898,-16.1275 L 39.7023,-16.1381 L 39.713,-16.1497 L 39.7217,-16.1622 L 39.7287,-16.176
 L 39.9298,-16.5937 L 39.9397,-16.6047 L 39.9623,-16.628 L 39.9847,-16.6488 L 40.0064,-16.6666 L 40.0272,-16.6812
 L 40.035,-16.6856 L 40.1179,-16.7045 L 40.1349,-16.7085 L 40.1512,-16.7143 L 40.1667,-16.7221 L 40.1817,-16.7319
 L 40.1962,-16.744 L 40.2102,-16.7583 L 40.2238,-16.7752 L 40.2372,-16.7946 L 40.2504,-16.8168 L 40.2635,-16.8418
 L 40.2896,-16.8959 L 40.779,-17.0076 L 40.9005,-17.2439 L 40.9106,-17.2633 L 40.9209,-17.2822 L 40.9313,-17.3006
 L 40.9418,-17.3185 L 40.9522,-17.3357 L 40.9627,-17.3523 L 40.973,-17.3682 L 40.9832,-17.3833 L 40.9933,-17.3975
 L 41.0032,-17.4109 L 41.0127,-17.4232 L 41.022,-17.4346 L 41.0309,-17.4448 L 41.0394,-17.4539 L 41.0475,-17.4617
 L 41.0551,-17.4682 L 41.0621,-17.4734 L 41.064,-17.4746 L 41.099,-17.4826 L 41.1211,-17.4891 L 41.1455,-17.4995
 L 41.1717,-17.5134 L 41.1993,-17.5305 L 41.228,-17.5503 L 41.2572,-17.5725 L 41.2868,-17.5967 L 41.3162,-17.6225
 L 41.3451,-17.6496 L 41.3731,-17.6776 L 41.3999,-17.706 L 41.4249,-17.7346 L 41.4478,-17.763 L 41.4683,-17.7907
 L 41.4859,-17.8174 L 41.5004,-17.8428 L 41.612,-18.0746 L 41.7702,-18.1107 L 41.7812,-18.114 L 41.7913,-18.1188
 L 41.8004,-18.125 L 41.8083,-18.1326 L 41.815,-18.1414 L 41.8204,-18.1514 L 41.8885,-18.2929 L 42.0173,-18.3223
 L 42.0308,-18.3256 L 42.044,-18.3295 L 42.0567,-18.3339 L 42.0692,-18.3388 L 42.0812,-18.3443 L 42.0928,-18.3503
 L 42.104,-18.3568 L 42.1147,-18.3638 L 42.1249,-18.3713 L 42.1346,-18.3793 L 42.1438,-18.3877 L 42.1524,-18.3966
 L 42.1604,-18.4059 L 42.1678,-18.4157 L 42.1806,-18.4349 L 42.187,-18.4438 L 42.1938,-18.4525 L 42.2009,-18.4609
 L 42.2083,-18.469 L 42.216,-18.4768 L 42.2239,-18.4843 L 42.2319,-18.4914 L 42.2402,-18.4981 L 42.2485,-18.5044
 L 42.2569,-18.5102 L 42.2653,-18.5155 L 42.2737,-18.5203 L 42.282,-18.5246 L 42.2841,-18.5255 L 42.3428,-18.5389
 L 42.3502,-18.5411 L 42.3577,-18.5443 L 42.3654,-18.5481 L 42.3731,-18.5528 L 42.3808,-18.5582 L 42.3885,-18.5643
 L 42.3962,-18.571 L 42.4037,-18.5783 L 42.4111,-18.5863 L 42.4184,-18.5948 L 42.4254,-18.6038 L 42.4322,-18.6132
 L 42.4388,-18.623 L 42.445,-18.6333 L 42.4509,-18.644 L 42.4564,-18.6549 L 42.7038,-19.1686 L 42.7116,-19.1703
 L 42.7259,-19.1743 L 42.7405,-19.1798 L 42.7554,-19.1866 L 42.7706,-19.1948 L 42.7858,-19.2043 L 42.8013,-19.2151
 L 42.8167,-19.2273 L 42.832,-19.2407 L 42.8473,-19.2554 L 42.8709,-19.2802 L 42.8804,-19.289 L 42.8908,-19.2979
 L 42.9021,-19.3067 L 42.9141,-19.3154 L 42.9268,-19.3239 L 42.9403,-19.3324 L 42.9542,-19.3406 L 42.9687,-19.3487
 L 42.9835,-19.3564 L 42.9987,-19.3639 L 43.0142,-19.371 L 43.0299,-19.3778 L 43.0458,-19.3842 L 43.0617,-19.39
 L 43.0776,-19.3955 L 43.0933,-19.4004 L 43.0955,-19.401 L 43.1623,-19.4162 L 43.1836,-19.4212 L 43.2035,-19.427
 L 43.2222,-19.4334 L 43.2398,-19.4408 L 43.2565,-19.4493 L 43.2724,-19.4592 L 43.2877,-19.4706 L 43.3025,-19.4836
 L 43.3172,-19.4986 L 43.3317,-19.5155 L 43.3462,-19.5346 L 43.3609,-19.5562 L 43.3761,-19.5802 L 43.3917,-19.6071
 L 43.4081,-19.6368 L 43.4253,-19.6696 L 43.4435,-19.7057 L 43.463,-19.7453 L 43.4973,-19.8166 L 43.5109,-19.844
 L 43.5246,-19.8707 L 43.5381,-19.8966 L 43.5516,-19.9216 L 43.5648,-19.9458 L 43.5779,-19.9688 L 43.5907,-19.9908
 L 43.6031,-20.0114 L 43.6152,-20.0307 L 43.6267,-20.0487 L 43.6378,-20.0651 L 43.6483,-20.0799 L 43.6582,-20.0931
 L 43.6674,-20.1044 L 43.6759,-20.1139 L 43.6836,-20.1215 L 43.6904,-20.127 L 43.695,-20.1296 L 43.7058,-20.1321
 L 43.7106,-20.1336 L 43.7157,-20.1361 L 43.721,-20.1396 L 43.7264,-20.144 L 43.7321,-20.1493 L 43.7378,-20.1553
 L 43.7436,-20.1622 L 43.7495,-20.1698 L 43.7554,-20.178 L 43.7613,-20.187 L 43.7672,-20.1965 L 43.773,-20.2066
 L 43.7788,-20.2172 L 43.7845,-20.2284 L 43.8542,-20.3733 L 43.8647,-20.3872 L 43.8778,-20.4032 L 43.8922,-20.4191
 L 43.9078,-20.4351 L 43.9247,-20.4512 L 43.9429,-20.4673 L 43.9625,-20.4835 L 43.9834,-20.4998 L 44.0057,-20.5162
 L 44.0294,-20.5328 L 44.0545,-20.5496 L 44.0811,-20.5666 L 44.1091,-20.5838 L 44.1387,-20.6012 L 44.1698,-20.6189
 L 44.2295,-20.6535 L 44.2894,-20.6904 L 44.3492,-20.7294 L 44.4085,-20.7701 L 44.4672,-20.8125 L 44.525,-20.8561
 L 44.5816,-20.9008 L 44.6369,-20.9465 L 44.6905,-20.9928 L 44.7422,-21.0395 L 44.7918,-21.0864 L 44.8389,-21.1333
 L 44.8835,-21.1799 L 44.9251,-21.226 L 44.9636,-21.2714 L 44.9987,-21.3157 L 45.0302,-21.359 L 45.0579,-21.4008
 L 45.0814,-21.4409 L 45.1004,-21.4792 L 45.1153,-21.5096 L 45.1331,-21.5416 L 45.1538,-21.5753 L 45.1773,-21.6104
 L 45.2036,-21.6469 L 45.2327,-21.6848 L 45.2643,-21.7241 L 45.2985,-21.7645 L 45.3352,-21.8062 L 45.3744,-21.8488
 L 45.4158,-21.8925 L 45.4597,-21.9372 L 45.5058,-21.9828 L 45.5541,-22.0291 L 45.6045,-22.0762 L 45.657,-22.1239
 L 45.7114,-22.1723 L 45.7678,-22.2212 L 45.826,-22.2706 L 45.9111,-22.3412 L 45.9342,-22.3613 L 45.9558,-22.3806
 L 45.9757,-22.3994 L 45.994,-22.4179 L 46.0109,-22.4361 L 46.0263,-22.4543 L 46.0404,-22.4724 L 46.0533,-22.4906
 L 46.065,-22.5091 L 46.0757,-22.5281 L 46.0854,-22.5476 L 46.4256,-23.254 L 46.4384,-23.2593 L 46.4572,-23.2693
 L 46.4769,-23.2813 L 46.4974,-23.2955 L 46.5181,-23.3112 L 46.539,-23.3285 L 46.5597,-23.3469 L 46.58,-23.3664
 L 46.5997,-23.3864 L 46.6184,-23.4068 L 46.6359,-23.4274 L 46.6519,-23.4479 L 46.6662,-23.468 L 46.6785,-23.4875
 L 46.6886,-23.506 L 46.8281,-23.7957 L 46.8434,-23.816 L 46.8815,-23.8632 L 46.9227,-23.9113 L 46.9664,-23.9597
 L 47.0123,-24.0081 L 47.0597,-24.0557 L 47.1084,-24.1022 L 47.1576,-24.1469 L 47.2071,-24.1895 L 47.2563,-24.2293
 L 47.3047,-24.2659 L 47.3519,-24.2987 L 47.3974,-24.3273 L 47.4406,-24.3511 L 47.4636,-24.3628 L 47.5081,-24.3862
 L 47.5294,-24.3978 L 47.5699,-24.4205 L 47.5888,-24.4314 L 47.6068,-24.4422 L 47.6397,-24.4624 L 47.6544,-24.472
 L 47.6679,-24.4811 L 47.6801,-24.4896 L 47.6909,-24.4976 L 47.7002,-24.5048 L 47.7081,-24.5116 L 47.7143,-24.5175
 L 47.7188,-24.5227 L 47.7216,-24.5271 L 47.7466,-24.5789 L 47.7467,-24.5791 L 48.5948,-24.7727 L 48.6113,-24.7779
 L 48.6264,-24.7845 L 48.6404,-24.7926 L 48.6537,-24.8024 L 48.6664,-24.8138 L 48.6791,-24.8268 L 48.6918,-24.8418
 L 48.7051,-24.8585 L 48.7191,-24.8773 L 48.734,-24.8982 L 48.7433,-24.9115 L 48.7531,-24.9264 L 48.7636,-24.9429
 L 48.7746,-24.9608 L 48.7861,-24.9801 L 48.8102,-25.0219 L 48.8226,-25.0442 L 48.8483,-25.0914 L 48.8743,-25.1408
 L 48.9001,-25.1918 L 48.9253,-25.2432 L 49.5202,-26.4785 L 49.7285,-26.5261 L 49.7439,-26.5303 L 49.7587,-26.5362
 L 49.7726,-26.5438 L 49.7854,-26.553 L 49.7971,-26.5638 L 49.8076,-26.5762 L 49.8165,-26.5902 L 50.5544,-28.1226
 L 50.6023,-28.1335 L 50.6114,-28.1358 L 50.6198,-28.1386 L 50.6275,-28.1422 L 50.6345,-28.1465 L 50.6409,-28.1516
 L 50.6466,-28.1575 L 50.6517,-28.1643 L 50.6563,-28.172 L 51.4093,-29.7356 L 51.4133,-29.7442 L 51.4168,-29.7537
 L 51.4196,-29.7641 L 51.422,-29.7755 L 51.424,-29.788 L 51.4254,-29.8016 L 51.4264,-29.8162 L 51.427,-29.832
 L 51.4273,-29.8621 L 51.4283,-29.891 L 51.429,-29.9065 L 51.4311,-29.9392 L 51.4339,-29.9735 L 51.4374,-30.0089
 L 51.4414,-30.0445 L 51.446,-30.0798 L 51.4509,-30.114 L 51.4562,-30.1465 L 51.4618,-30.1766 L 51.4659,-30.1975
 L 51.4694,-30.2168 L 51.4722,-30.2344 L 51.4744,-30.2503 L 51.476,-30.2647 L 51.4768,-30.2774 L 51.4769,-30.2888
 L 51.4764,-30.2987 L 51.475,-30.3073 L 51.4728,-30.3146 L 51.3541,-30.5611 L 51.3612,-30.5758 L 51.3637,-30.5822
 L 51.3655,-30.5896 L 51.3664,-30.5983 L 51.3667,-30.6082 L 51.3662,-30.6194 L 51.365,-30.6319 L 51.3631,-30.6458
 L 51.3607,-30.6612 L 51.3576,-30.6781 L 51.3514,-30.7099 L 51.3507,-30.7142 L 51.6811,-31.4003 L 51.6857,-31.4116
 L 51.6893,-31.4248 L 51.6924,-31.4403 L 51.6947,-31.458 L 51.6966,-31.478 L 51.6979,-31.5007 L 51.699,-31.5261
 L 51.6998,-31.5542 L 51.704,-31.7715 L 51.7058,-31.851 L 51.7076,-31.9148 L 51.9487,-32.4155 L 51.96,-32.4411
 L 51.97,-32.469 L 51.9786,-32.4991 L 51.9859,-32.531 L 51.9917,-32.5647 L 51.996,-32.6 L 51.9988,-32.6367
 L 52,-32.6746 L 51.9996,-32.7135 L 51.9975,-32.7534 L 51.9937,-32.7939 L 51.9882,-32.8348 L 51.9808,-32.8762
 L 51.9727,-32.9149 L 51.9689,-32.9313 L 51.9652,-32.9459 L 51.9615,-32.9586 L 51.9579,-32.9696 L 51.9542,-32.9787
 L 51.8302,-33.2363 L 51.8443,-33.2657 L 51.8479,-33.2735 L 51.85,-33.2816 L 51.8506,-33.29 L 51.8497,-33.2991
 L 51.8474,-33.3089 L 51.8434,-33.3196 L 51.838,-33.3314 L 51.6992,-33.6197 L 51.6981,-33.6255 L 51.693,-33.6601
 L 51.6887,-33.6988 L 51.6852,-33.742 L 51.6824,-33.7903 L 51.6804,-33.8441 L 51.6788,-33.904 L 51.6779,-33.9705
 L 51.6776,-34.0441 L 51.6776,-34.1254 L 51.6781,-34.2147 L 51.6803,-34.4198 L 51.6813,-34.4884 L 51.6826,-34.5568
 L 51.6841,-34.6246 L 51.6859,-34.6917 L 51.6901,-34.8224 L 51.6926,-34.8855 L 51.6952,-34.9468 L 51.698,-35.0059
 L 51.701,-35.0627 L 51.7041,-35.1168 L 51.7073,-35.168 L 51.7106,-35.216 L 51.7141,-35.2605 L 51.7176,-35.3012
 L 51.7212,-35.3381 L 51.7249,-35.3705 L 51.7285,-35.3986 L 51.7323,-35.4217 L 51.742,-35.4681 L 51.7468,-35.4975
 L 51.7505,-35.5282 L 51.7529,-35.56 L 51.7542,-35.5932 L 51.7542,-35.6274 L 51.7531,-35.6628 L 51.7507,-35.6994
 L 51.7473,-35.7371 L 51.7426,-35.7758 L 51.7368,-35.8156 L 51.7298,-35.8565 L 51.7216,-35.8984 L 51.7123,-35.9413
 L 51.7018,-35.9852 L 51.6901,-36.03 L 51.6773,-36.0758 L 51.6634,-36.1224 L 51.6482,-36.17 L 51.6319,-36.2184
 L 51.6274,-36.233 L 51.6228,-36.2501 L 51.6183,-36.2696 L 51.6138,-36.2912 L 51.6094,-36.3149 L 51.605,-36.3405
 L 51.6008,-36.3677 L 51.5967,-36.3966 L 51.5927,-36.4268 L 51.589,-36.4584 L 51.5854,-36.491 L 51.582,-36.5246
 L 51.5788,-36.559 L 51.5758,-36.5941 L 51.573,-36.6295 L 51.5706,-36.6655 L 51.5685,-36.7014 L 51.5666,-36.7375
 L 51.5651,-36.7734 L 51.5595,-36.961 L 51.5574,-37.0251 L 51.5553,-37.0819 L 51.5532,-37.132 L 51.5508,-37.1758
 L 51.548,-37.2138 L 51.5448,-37.2463 L 51.541,-37.274 L 51.5366,-37.2971 L 51.5314,-37.3163 L 51.5253,-37.332
 L 51.2991,-37.8018 L 51.288,-37.9295 L 51.284,-37.9696 L 51.2798,-38.01 L 51.2752,-38.0507 L 51.2702,-38.0912
 L 51.265,-38.1316 L 51.2596,-38.1715 L 51.2539,-38.211 L 51.248,-38.2496 L 51.242,-38.2874 L 51.2358,-38.324
 L 51.2295,-38.3593 L 51.2231,-38.3932 L 51.2166,-38.4254 L 51.2102,-38.4558 L 51.2037,-38.4843 L 51.1974,-38.5105
 L 51.191,-38.5343 L 51.1847,-38.5556 L 51.1786,-38.5742 L 51.1727,-38.5918 L 51.1668,-38.6098 L 51.1611,-38.6285
 L 51.1555,-38.6475 L 51.1502,-38.667 L 51.145,-38.6866 L 51.1401,-38.7064 L 51.131,-38.7459 L 51.1269,-38.7656
 L 51.123,-38.785 L 51.1195,-38.804 L 51.1135,-38.8408 L 51.1111,-38.8584 L 51.1091,-38.8752 L 51.1075,-38.8912
 L 51.1063,-38.9064 L 51.1056,-38.9204 L 51.1052,-38.946 L 51.1046,-38.9584 L 51.1038,-38.9707 L 51.1025,-38.9829
 L 51.101,-38.9949 L 51.0991,-39.0067 L 51.097,-39.0182 L 51.0945,-39.0293 L 51.0919,-39.0401 L 51.089,-39.0504
 L 51.0858,-39.0602 L 51.0825,-39.0696 L 51.0789,-39.0783 L 51.0751,-39.0864 L 51.0179,-39.2054 L 51.0179,-39.2064
 L 51.0184,-39.2149 L 51.0192,-39.2236 L 51.0205,-39.2322 L 51.0222,-39.2409 L 51.0243,-39.2495 L 51.0268,-39.2583
 L 51.0294,-39.2682 L 51.0311,-39.2792 L 51.032,-39.291 L 51.0321,-39.3037 L 51.0313,-39.3174 L 51.0297,-39.3317
 L 51.0274,-39.3468 L 51.0243,-39.3626 L 51.0204,-39.3791 L 51.0158,-39.3961 L 51.0105,-39.4137 L 51.0044,-39.4318
 L 50.9977,-39.4504 L 50.9902,-39.4693 L 50.982,-39.4886 L 50.9733,-39.5084 L 50.9637,-39.5283 L 50.8607,-39.7422
 L 50.8531,-39.7625 L 50.8447,-39.7859 L 50.8367,-39.8094 L 50.8292,-39.8328 L 50.8221,-39.8559 L 50.8157,-39.8788
 L 50.8098,-39.9012 L 50.8045,-39.9231 L 50.7999,-39.9443 L 50.796,-39.9648 L 50.7928,-39.9844 L 50.7904,-40.0029
 L 50.7872,-40.0383 L 50.7848,-40.0583 L 50.7816,-40.0802 L 50.7777,-40.1037 L 50.7731,-40.1289 L 50.7678,-40.1555
 L 50.7619,-40.1833 L 50.7554,-40.2123 L 50.7484,-40.2423 L 50.7409,-40.2731 L 50.7329,-40.3046 L 50.7244,-40.3365
 L 50.7156,-40.3689 L 50.7064,-40.4015 L 50.6969,-40.4342 L 50.687,-40.4668 L 50.677,-40.4991 L 50.6667,-40.5311
 L 50.6563,-40.5626 L 50.6351,-40.6243 L 50.6246,-40.6563 L 50.6141,-40.6892 L 50.6039,-40.7228 L 50.5937,-40.7569
 L 50.5837,-40.7914 L 50.5741,-40.826 L 50.5647,-40.8608 L 50.5556,-40.8954 L 50.547,-40.9297 L 50.5387,-40.9636
 L 50.5309,-40.9969 L 50.5237,-41.0294 L 50.517,-41.0609 L 50.5108,-41.0914 L 50.5052,-41.1205 L 50.5004,-41.1482
 L 50.4962,-41.1743 L 50.4928,-41.1987 L 50.4902,-41.2211 L 50.4844,-41.2737 L 50.478,-41.3245 L 50.4711,-41.3733
 L 50.4636,-41.4203 L 50.4555,-41.4657 L 50.4468,-41.5092 L 50.4374,-41.5512 L 50.4274,-41.5916 L 50.4167,-41.6304
 L 50.4053,-41.6677 L 50.3932,-41.7036 L 50.3804,-41.7382 L 50.3669,-41.7714 L 50.3526,-41.8033 L 50.1461,-42.2321
 L 50.1448,-42.2453 L 50.1435,-42.2788 L 50.1443,-42.3127 L 50.1473,-42.3468 L 50.1523,-42.3812 L 50.1595,-42.4157
 L 50.168,-42.4482 L 50.3051,-42.7327 L 50.3194,-42.7668 z
" stroke="black" fill="lightgray" stroke-width="0.5"/>
</svg>
