<?xml version="1.0" encoding="UTF-8" standalone="no"?>
<svg
   version="1.1"
   id="svg5843"
   viewBox="0 0 37.863982 37.734411"
   height="10.649489mm"
   width="10.686057mm"
   sodipodi:docname="33c3-herz-orange.svg"
   inkscape:version="1.2.2 (b0a8486541, 2022-12-01)"
   xmlns:inkscape="http://www.inkscape.org/namespaces/inkscape"
   xmlns:sodipodi="http://sodipodi.sourceforge.net/DTD/sodipodi-0.dtd"
   xmlns="http://www.w3.org/2000/svg"
   xmlns:svg="http://www.w3.org/2000/svg"
   xmlns:rdf="http://www.w3.org/1999/02/22-rdf-syntax-ns#"
   xmlns:cc="http://creativecommons.org/ns#"
   xmlns:dc="http://purl.org/dc/elements/1.1/">
  <sodipodi:namedview
     id="namedview196"
     pagecolor="#ffffff"
     bordercolor="#666666"
     borderopacity="1.0"
     inkscape:showpageshadow="2"
     inkscape:pageopacity="0.0"
     inkscape:pagecheckerboard="0"
     inkscape:deskcolor="#d1d1d1"
     inkscape:document-units="mm"
     showgrid="false"
     inkscape:zoom="15.751538"
     inkscape:cx="20.188505"
     inkscape:cy="20.125019"
     inkscape:window-width="1436"
     inkscape:window-height="843"
     inkscape:window-x="0"
     inkscape:window-y="0"
     inkscape:window-maximized="1"
     inkscape:current-layer="layer1" />
  <defs
     id="defs5845" />
  <metadata
     id="metadata5848">
    <rdf:RDF>
      <cc:Work
         rdf:about="">
        <dc:format>image/svg+xml</dc:format>
        <dc:type
           rdf:resource="http://purl.org/dc/dcmitype/StillImage" />
      </cc:Work>
    </rdf:RDF>
  </metadata>
  <g
     transform="translate(-90.107408,-69.203633)"
     id="layer1">
    <path
       id="path6402-8"
       d="m 102.36128,96.976282 c -0.21935,-0.25058 -0.40792,-0.65238 -0.44192,-0.94165 -0.0159,-0.13509 -0.0574,-0.25827 -0.10398,-0.30823 -0.0748,-0.0803 -0.11781,-0.0882 -0.55928,-0.10162 -0.0768,-0.002 -0.14743,-0.0286 -0.1574,-0.0585 -0.01,-0.0299 -0.0544,-0.0842 -0.0987,-0.12082 -0.1455,-0.12013 -0.26495,-0.35027 -0.29493,-0.56829 -0.0162,-0.11788 -0.0615,-0.24533 -0.10065,-0.28322 -0.0392,-0.0379 -0.0906,-0.10503 -0.11443,-0.1492 -0.0238,-0.0442 -0.0856,-0.0808 -0.13744,-0.0813 -0.0609,-6.6e-4 -0.0997,-0.0294 -0.10982,-0.0813 -0.009,-0.0442 -0.0409,-0.0991 -0.0717,-0.12198 -0.0312,-0.0232 -0.0678,-0.15513 -0.0825,-0.29707 -0.0145,-0.14046 -0.042,-0.26504 -0.0611,-0.27685 -0.0191,-0.0118 -0.0347,0.007 -0.0347,0.0419 0,0.0349 -0.0183,0.0634 -0.0407,0.0634 -0.0224,0 -0.0421,-0.0869 -0.0438,-0.19314 -0.004,-0.2356 -0.0165,-0.30591 -0.0728,-0.40278 -0.0383,-0.0659 -0.0443,-0.0602 -0.0495,0.047 -0.003,0.0671 -0.003,0.154 0.001,0.19313 0.004,0.0391 -0.0113,0.0712 -0.0341,0.0712 -0.0521,0 -0.11987,-0.23824 -0.15029,-0.52859 -0.0291,-0.27733 -0.0909,-0.44726 -0.16285,-0.44726 -0.0362,0 -0.0525,0.0449 -0.0479,0.13215 0.0132,0.24945 -0.009,0.51842 -0.0436,0.51842 -0.0605,0 -0.13248,-0.32016 -0.13792,-0.61367 -0.005,-0.282 -0.0368,-0.37037 -0.0974,-0.27238 -0.0315,0.051 -0.0347,0.0767 -0.0482,0.38796 -0.008,0.17999 -0.0888,0.24729 -0.0888,0.0738 0,-0.15699 -0.0793,-0.33604 -0.11977,-0.27052 -0.0517,0.0836 -0.12419,0.0131 -0.12419,-0.1208 0,-0.0787 -0.0207,-0.11958 -0.0605,-0.11958 -0.0332,0 -0.0872,-0.064 -0.11991,-0.14231 -0.0327,-0.0783 -0.0712,-0.14231 -0.0856,-0.14231 -0.0144,0 -0.10171,0.0647 -0.19412,0.14381 -0.28386,0.24297 -0.44732,0.22889 -0.4983,-0.0429 l -0.0253,-0.13488 -0.21961,0.0227 -0.21962,0.0227 -0.0253,-0.12675 c -0.0139,-0.0697 -0.0506,-0.14769 -0.0814,-0.17329 -0.0308,-0.0256 -0.0561,-0.0713 -0.0561,-0.10156 0,-0.0422 -0.0242,-0.0458 -0.10429,-0.0154 -0.14177,0.0539 -0.13842,0.0554 -0.18642,-0.0823 -0.0474,-0.1361 -0.132,-0.15862 -0.19214,-0.0512 -0.0631,0.11279 -0.10241,0.0254 -0.0478,-0.10643 0.0363,-0.0876 0.039,-0.1884 0.01,-0.37741 -0.0217,-0.14183 -0.0314,-0.27149 -0.0215,-0.28812 0.0376,-0.063 0.008,-1.77811 -0.042,-2.40937 -0.0123,-0.15654 -0.0315,-0.68716 -0.0427,-1.17915 -0.021,-0.92665 -0.0442,-1.51078 -0.0904,-2.27698 -0.0148,-0.24599 -0.0317,-0.62108 -0.0375,-0.83353 -0.006,-0.21245 -0.0199,-0.48691 -0.0313,-0.60991 -0.0114,-0.12299 -0.0321,-0.96466 -0.046,-1.87037 -0.0294,-1.91514 -0.0555,-2.99509 -0.0819,-3.39514 -0.0224,-0.33886 -0.0692,-1.35668 -0.0664,-1.44344 0.0126,-0.38867 10e-4,-1.04518 -0.0195,-1.11299 -0.0145,-0.0476 -0.0541,-0.11817 -0.0881,-0.1569 -0.0454,-0.0517 -0.0551,-0.11946 -0.0365,-0.25474 0.016,-0.11651 0.004,-0.2477 -0.0328,-0.35653 -0.0381,-0.11302 -0.0508,-0.263 -0.037,-0.43647 0.0397,-0.49917 0.0461,-0.97698 0.0133,-0.99725 -0.0452,-0.0279 -0.0106,-0.57089 0.0427,-0.67043 0.0309,-0.0578 0.03,-0.10532 -0.003,-0.16721 -0.0352,-0.0658 -0.0345,-0.0938 0.003,-0.11695 0.0334,-0.0207 0.0403,-0.0834 0.0215,-0.19508 -0.0154,-0.0913 -0.01,-0.19858 0.013,-0.24085 0.0471,-0.088 -0.006,-0.61822 -0.066,-0.65736 -0.0752,-0.0492 -0.13129,-0.20576 -0.13129,-0.36662 0,-0.14204 0.0168,-0.17296 0.12414,-0.22847 0.0683,-0.0353 0.15977,-0.0998 0.20331,-0.14335 0.0435,-0.0435 0.1023,-0.0792 0.13058,-0.0792 0.0283,0 0.1152,-0.034 0.19314,-0.0755 0.0779,-0.0415 0.2263,-0.0881 0.32968,-0.10337 0.16597,-0.0246 0.20298,-0.0152 0.31613,0.08 0.10457,0.088 0.15229,0.10264 0.25929,0.0796 0.146,-0.0314 0.31365,-0.0386 0.49708,-0.0213 0.22078,0.0209 0.76682,-0.0439 1.09782,-0.13016 0.56341,-0.14686 1.80188,-0.10122 2.33797,0.0862 0.0559,0.0195 0.21143,0.067 0.34561,0.10554 0.13418,0.0385 0.26752,0.0997 0.29632,0.13601 0.0288,0.0363 0.11113,0.0937 0.18297,0.12756 l 0.13062,0.0616 0.0257,0.49998 c 0.0199,0.38783 0.0402,0.5109 0.0903,0.54866 0.0561,0.0423 0.0597,0.10233 0.0271,0.45528 -0.0206,0.22363 -0.0747,0.57128 -0.12008,0.77255 -0.10747,0.47652 -0.10723,0.54891 0.002,0.54891 0.0673,0 0.0785,0.0153 0.0522,0.0712 -0.0556,0.11812 -0.0527,0.85677 0.005,1.31129 0.0299,0.23481 0.0564,0.65404 0.059,0.93161 0.003,0.27757 0.0117,0.51611 0.0203,0.53007 0.009,0.014 0.0273,0.473 0.0415,1.02008 0.0338,1.30351 0.0482,1.62533 0.10025,2.23709 0.0429,0.50424 0.0235,0.76433 -0.0765,1.02707 -0.0503,0.13211 -0.0577,0.33961 -0.0131,0.36716 0.0168,0.0104 0.0253,0.1258 0.0189,0.25653 -0.006,0.13073 -0.0118,0.27428 -0.0119,0.31901 0,0.0447 -4e-4,0.246 -5.2e-4,0.44726 -4.1e-4,0.63218 -0.0153,0.85138 -0.0634,0.93305 -0.0295,0.0501 -0.0338,0.11306 -0.0117,0.17129 0.0214,0.0561 0.0175,0.14232 -0.01,0.2207 -0.0364,0.10437 -0.0321,0.15009 0.0226,0.24269 0.0428,0.0725 0.0523,0.12339 0.0261,0.13961 -0.0618,0.0382 -0.0498,0.27859 0.0184,0.36873 0.0687,0.0908 0.0821,0.28918 0.0209,0.30959 -0.0228,0.008 -0.0529,0.11076 -0.0669,0.22927 -0.0233,0.19689 -0.018,0.21744 0.0617,0.23829 0.10282,0.0269 0.12582,0.21664 0.0263,0.21664 -0.0457,0 -0.061,0.0488 -0.061,0.19517 0,0.10734 -0.0159,0.21255 -0.0354,0.23379 -0.0824,0.0899 -0.0844,0.24606 -0.004,0.31487 0.095,0.0813 0.10478,0.24223 0.0191,0.31333 -0.0756,0.0627 -0.0787,0.17979 -0.007,0.25177 0.0299,0.0299 0.0551,0.11807 0.0561,0.19604 10e-4,0.078 0.0212,0.22411 0.0449,0.32474 0.047,0.20009 0.11868,0.61823 0.14985,0.8742 0.0377,0.30948 0.0674,1.42687 0.0621,2.33796 -0.0106,1.84274 -0.0112,2.54574 -0.002,2.74457 0.005,0.11182 0.002,0.59324 -0.007,1.06983 -0.009,0.47659 -7e-4,0.8763 0.0187,0.88825 0.0193,0.0119 0.03,0.0611 0.0238,0.10932 -0.006,0.0482 0.003,0.11009 0.0198,0.13758 0.0171,0.0275 0.0135,0.0829 -0.008,0.12304 -0.0468,0.0875 0.0112,0.21325 0.0983,0.21325 0.0744,0 0.0748,0.0596 0.001,0.19703 -0.0318,0.0594 -0.0678,0.13994 -0.08,0.17908 -0.0122,0.0391 -0.0594,0.0712 -0.10483,0.0712 -0.0789,0 -0.0827,0.0247 -0.084,0.55907 -9.4e-4,0.36284 -0.0188,0.5886 -0.0508,0.64317 -0.0473,0.0806 -0.0565,0.076 -0.222,-0.11311 z m -1.93427,-2.76383 c -0.013,-0.0324 -0.0226,-0.0228 -0.0246,0.0246 -0.002,0.0429 0.008,0.0669 0.0214,0.0534 0.0135,-0.0135 0.015,-0.0486 0.003,-0.0779 z m 2.16788,-5.44857 c 0,-0.25024 -0.0182,-0.55672 -0.0404,-0.68106 -0.0222,-0.12435 -0.0641,-0.38946 -0.093,-0.58914 -0.0289,-0.19968 -0.0733,-0.36998 -0.0987,-0.37843 -0.0311,-0.0104 -0.0399,0.035 -0.0269,0.13942 0.0244,0.19675 0.0499,0.56563 0.092,1.33395 0.0184,0.33545 0.0361,0.61448 0.0393,0.62007 0.003,0.006 0.0332,0.0102 0.0668,0.0102 0.0506,0 0.061,-0.0777 0.061,-0.45498 z m -0.27715,-3.38314 c 0.008,-0.0978 -0.006,-0.16498 -0.0365,-0.1757 -0.0351,-0.0124 -0.0469,0.0414 -0.0407,0.18679 0.01,0.23272 0.0579,0.22582 0.0772,-0.01109 z m -0.0289,-0.48204 c -0.0302,-0.1831 -0.0465,-0.22006 -0.0816,-0.18501 -0.0354,0.0354 0.0287,0.35782 0.0711,0.35782 0.0233,0 0.0275,-0.0697 0.0105,-0.17281 z m 0.35591,2.15751 c 0.0251,-0.0754 0.11266,-0.0879 0.11266,-0.0161 0,0.0354 -0.029,0.0644 -0.0644,0.0644 -0.0354,0 -0.0571,-0.0217 -0.0483,-0.0483 z"
       style="fill:#ff8c00;fill-opacity:1" />
  </g>
</svg>
