<?xml version="1.0" encoding="UTF-8" standalone="no"?>
<svg
   version="1.1"
   id="svg5843"
   viewBox="0 0 37.863982 37.734411"
   height="10.649489mm"
   width="10.686057mm"
   sodipodi:docname="33c3-herz-red.svg"
   inkscape:version="1.2.2 (b0a8486541, 2022-12-01)"
   xmlns:inkscape="http://www.inkscape.org/namespaces/inkscape"
   xmlns:sodipodi="http://sodipodi.sourceforge.net/DTD/sodipodi-0.dtd"
   xmlns="http://www.w3.org/2000/svg"
   xmlns:svg="http://www.w3.org/2000/svg"
   xmlns:rdf="http://www.w3.org/1999/02/22-rdf-syntax-ns#"
   xmlns:cc="http://creativecommons.org/ns#"
   xmlns:dc="http://purl.org/dc/elements/1.1/">
  <sodipodi:namedview
     id="namedview196"
     pagecolor="#ffffff"
     bordercolor="#666666"
     borderopacity="1.0"
     inkscape:showpageshadow="2"
     inkscape:pageopacity="0.0"
     inkscape:pagecheckerboard="0"
     inkscape:deskcolor="#d1d1d1"
     inkscape:document-units="mm"
     showgrid="false"
     inkscape:zoom="15.751538"
     inkscape:cx="20.188505"
     inkscape:cy="20.125019"
     inkscape:window-width="1436"
     inkscape:window-height="843"
     inkscape:window-x="0"
     inkscape:window-y="0"
     inkscape:window-maximized="1"
     inkscape:current-layer="layer1" />
  <defs
     id="defs5845" />
  <metadata
     id="metadata5848">
    <rdf:RDF>
      <cc:Work
         rdf:about="">
        <dc:format>image/svg+xml</dc:format>
        <dc:type
           rdf:resource="http://purl.org/dc/dcmitype/StillImage" />
      </cc:Work>
    </rdf:RDF>
  </metadata>
  <g
     transform="translate(-90.107408,-69.203633)"
     id="layer1">
    <path
       id="path6402-9"
       d="m 95.844144,90.809813 c -0.247492,-0.319312 -0.432094,-0.705986 -0.486112,-1.018209 -0.0324,-0.187286 -0.05515,-0.216082 -0.285401,-0.36111 -0.217306,-0.136888 -0.258728,-0.18542 -0.315142,-0.369271 l -0.06496,-0.211667 -0.09128,0.113967 c -0.07254,0.09056 -0.111009,0.106654 -0.187369,0.07834 -0.172027,-0.06382 -0.205252,-0.188231 -0.184065,-0.689267 0.01592,-0.376419 0.005,-0.503032 -0.05836,-0.67674 -0.04387,-0.120274 -0.08714,-0.386021 -0.09898,-0.607882 -0.02569,-0.481533 -0.03946,-0.539332 -0.06766,-0.284101 -0.02057,0.186171 -0.02979,0.197716 -0.171138,0.214386 -0.102282,0.012 -0.130438,0.02879 -0.08928,0.05296 0.04695,0.02758 0.02967,0.07163 -0.07888,0.200975 -0.110344,0.131526 -0.133284,0.191212 -0.111297,0.289601 0.02291,0.102573 0.01298,0.124272 -0.05758,0.125857 -0.05578,0.0013 -0.09615,-0.03764 -0.1167,-0.112383 l -0.03144,-0.114289 -0.07536,0.104673 -0.07536,0.104674 -0.03182,-0.115708 c -0.02477,-0.09009 -0.06206,-0.117988 -0.1683,-0.125996 -0.167671,-0.01265 -0.34058,-0.234471 -0.345263,-0.442933 -0.0026,-0.115398 -0.02702,-0.150109 -0.135165,-0.192079 -0.0726,-0.02819 -0.132382,-0.06814 -0.132844,-0.08873 -4.63e-4,-0.02059 -0.05016,-0.04865 -0.110444,-0.06242 -0.09069,-0.0206 -0.110191,-0.05116 -0.113016,-0.176925 -0.0036,-0.158918 -0.150994,-0.402072 -0.242529,-0.400016 -0.03501,7.87e-4 -0.05755,-0.08742 -0.06617,-0.258807 -0.0072,-0.143003 -0.04537,-0.360464 -0.08485,-0.483261 -0.03949,-0.122796 -0.06287,-0.238435 -0.05197,-0.256991 0.03262,-0.05555 -0.118623,-0.149553 -0.236331,-0.146909 -0.09514,0.0021 -0.117823,-0.02632 -0.170661,-0.21426 -0.03352,-0.119186 -0.07666,-0.346083 -0.09589,-0.504198 -0.02869,-0.235963 -0.05843,-0.311511 -0.165991,-0.421537 -0.07207,-0.07368 -0.149665,-0.133624 -0.172427,-0.133112 -0.02276,5.11e-4 -0.04374,-0.103714 -0.04661,-0.231582 -0.0029,-0.127878 -0.01834,-0.245046 -0.03438,-0.260368 -0.01603,-0.0153 -0.08658,0.03498 -0.156759,0.111812 l -0.12761,0.13968 -0.08372,-0.154531 c -0.07939,-0.146541 -0.107687,-0.381537 -0.176619,-1.466486 -0.0068,-0.107794 -0.0462,-0.268728 -0.08743,-0.35763 -0.0669,-0.144194 -0.0689,-0.18739 -0.01849,-0.400233 0.05523,-0.23344 0.106729,-0.571793 0.153664,-1.009689 0.01288,-0.12023 0.04348,-0.25831 0.06798,-0.306843 0.04947,-0.09798 0.08281,-0.260867 0.165908,-0.810644 0.03092,-0.204595 0.09371,-0.520054 0.139513,-0.700998 0.04581,-0.180944 0.09907,-0.413053 0.118377,-0.515781 0.05127,-0.27288 0.104291,-0.357732 0.208107,-0.333065 0.06539,0.01559 0.08781,1.28e-4 0.08643,-0.06105 -0.001,-0.04514 0.06298,-0.358007 0.14221,-0.695246 0.152133,-0.64756 0.227157,-1.170123 0.187843,-1.30836 -0.01299,-0.04562 0.01114,-0.134543 0.05361,-0.197479 0.111874,-0.165769 0.147954,-0.62687 0.05593,-0.714846 -0.09218,-0.08814 -0.09019,-0.152413 0.01009,-0.325517 0.07396,-0.127662 0.09496,-0.138625 0.196648,-0.102572 0.0626,0.02219 0.130737,0.03997 0.151388,0.03951 0.02066,-4.64e-4 0.180136,-0.226721 0.354414,-0.502804 0.259746,-0.411472 0.497784,-0.695188 1.320409,-1.573824 l 1.003539,-1.071873 0.249686,-0.03468 c 0.284291,-0.03943 0.502657,0.01402 0.466707,0.114422 -0.02707,0.07559 0.108596,0.15496 0.259084,0.151579 0.06684,-0.0015 0.126387,0.03642 0.165263,0.105328 0.03343,0.05921 0.07489,0.107359 0.09216,0.106971 0.01727,-3.88e-4 0.04637,0.07255 0.06469,0.162114 0.01832,0.08959 0.07659,0.194865 0.129457,0.234033 0.09105,0.06747 0.13156,0.25765 0.132414,0.621517 3.36e-4,0.184133 0.0611,2.412649 0.07348,2.702594 0.01759,0.408834 0.01146,2.61506 -0.0085,3.053367 -0.0087,0.192105 -0.0222,0.506454 -0.02993,0.698536 -0.0077,0.192094 -0.02756,0.447694 -0.04407,0.568017 -0.01651,0.120311 -0.0255,0.306982 -0.01998,0.414805 0.0055,0.107834 -0.01324,0.246389 -0.04169,0.307926 -0.08676,0.187646 -0.0709,0.732925 0.02816,0.968381 0.07391,0.175627 0.07902,0.226155 0.03523,0.348141 -0.07363,0.205148 -0.100508,0.802126 -0.04132,0.918151 0.105873,0.207563 0.134434,0.36638 0.111048,0.617566 -0.01343,0.144239 -0.01568,0.284665 -0.005,0.312058 0.0107,0.02744 -0.0063,0.273115 -0.0378,0.546056 -0.03147,0.272939 -0.05144,0.684001 -0.04438,0.913478 0.0141,0.458472 0.0729,0.64759 0.112605,0.362043 0.01315,-0.09459 0.03403,-0.221282 0.04641,-0.281525 l 0.02249,-0.109557 0.04292,0.129896 c 0.02361,0.07145 0.03233,0.228254 0.01937,0.348497 -0.02471,0.22945 -0.03728,0.478452 -0.05214,1.03296 -0.0076,0.284816 -0.02566,0.354904 -0.122166,0.474974 -0.142956,0.17785 -0.147892,0.50665 -0.01195,0.796211 0.06818,0.145237 0.101026,0.335732 0.131493,0.762588 0.0385,0.539493 0.0358,0.576069 -0.05207,0.705524 -0.129548,0.19086 -0.147483,0.529908 -0.05132,0.969952 0.08981,0.410955 0.147628,1.001891 0.112958,1.154491 -0.04493,0.197745 -0.202806,0.133325 -0.447766,-0.182729 z M 93.7656,86.891245 c 0.05349,-0.02191 0.0565,-0.03613 0.0131,-0.06155 -0.03468,-0.02036 -0.05703,-0.119185 -0.05805,-0.256587 -9.61e-4,-0.122911 -0.01384,-0.210724 -0.02871,-0.195157 -0.01489,0.01557 -0.02353,0.03153 -0.0192,0.0354 0.0044,0.0042 -0.01353,0.115524 -0.03968,0.248055 -0.02615,0.132531 -0.03849,0.289822 -0.02743,0.349548 l 0.02011,0.10859 0.03518,-0.09991 c 0.01935,-0.05493 0.06646,-0.112701 0.104671,-0.128363 z m -0.05858,-1.52081 c -8.4e-4,-0.03742 -0.02087,-0.05541 -0.04451,-0.04009 -0.02364,0.01533 -0.04258,0.04634 -0.04207,0.06895 5.06e-4,0.02251 0.02055,0.04063 0.04452,0.04009 0.02397,-5.38e-4 0.0429,-0.03154 0.04206,-0.06895 z m 2.874841,3.703513 c -0.0068,-0.29629 0.01681,-0.429215 0.07652,-0.430557 0.01837,-4.12e-4 0.04546,0.10078 0.06019,0.224915 0.02041,0.171841 0.0082,0.257943 -0.05161,0.361001 l -0.07841,0.135336 -0.0067,-0.290694 z m -2.784235,-1.611945 c -8.4e-4,-0.03742 0.01837,-0.0563 0.04267,-0.04204 0.02431,0.01426 0.04462,0.04437 0.04513,0.06699 5.08e-4,0.02262 -0.0187,0.0415 -0.04268,0.04204 -0.02397,5.38e-4 -0.04427,-0.02957 -0.04512,-0.06699 z m 0.09278,-0.28396 c -0.0047,-0.04838 0.01007,-0.07704 0.03291,-0.06361 0.05025,0.02955 0.05824,0.14972 0.01,0.150804 -0.01886,4.24e-4 -0.03819,-0.03883 -0.04294,-0.08722 z m 2.679671,-0.822546 c -0.0047,-0.0959 0.0099,-0.204136 0.03238,-0.240629 0.03202,-0.0521 0.04035,-0.04285 0.03875,0.04279 -0.0012,0.05999 -0.0157,0.168275 -0.03238,0.240618 -0.02923,0.1267 -0.03065,0.125135 -0.03875,-0.04278 z m 0.07009,-0.524983 c -0.0021,-0.02398 -0.02962,-0.298107 -0.06094,-0.609262 -0.07221,-0.717289 -0.132766,-1.922656 -0.10452,-2.080357 0.05042,-0.281583 0.102735,-0.08491 0.115306,0.433575 0.0121,0.499086 0.06801,1.187081 0.148702,1.829894 0.01991,0.158657 0.0098,0.266756 -0.03285,0.34967 -0.03393,0.06598 -0.06348,0.100441 -0.06568,0.07645 z m -5.30856,-0.493658 c -0.03623,-0.171709 -0.0033,-0.339246 0.05933,-0.302422 0.05243,0.03079 0.06209,0.398041 0.01128,0.43101 -0.02105,0.01367 -0.05285,-0.04418 -0.07066,-0.128587 z m 5.182553,-3.01463 c -0.01423,-0.179596 -0.01779,-0.444498 -0.0079,-0.588656 0.01659,-0.242516 0.02014,-0.22953 0.04752,0.173978 0.01628,0.239847 0.01994,0.504735 0.0079,0.588645 -0.01634,0.115373 -0.02793,0.07292 -0.04752,-0.173967 z m -0.106712,-1.876932 c -0.0167,-0.02569 -0.0091,-0.06909 0.01707,-0.09629 0.03483,-0.0364 0.048,-0.02414 0.04958,0.0463 0.0024,0.105287 -0.01991,0.121997 -0.06665,0.05009 z"
       style="fill:#e40303;fill-opacity:1" />
  </g>
</svg>
