<?xml version="1.0" encoding="UTF-8" standalone="no"?>
<svg
   version="1.1"
   id="svg5843"
   viewBox="0 0 37.863982 37.734411"
   height="10.649489mm"
   width="10.686057mm"
   sodipodi:docname="33c3-herz-purple.svg"
   inkscape:version="1.2.2 (b0a8486541, 2022-12-01)"
   xmlns:inkscape="http://www.inkscape.org/namespaces/inkscape"
   xmlns:sodipodi="http://sodipodi.sourceforge.net/DTD/sodipodi-0.dtd"
   xmlns="http://www.w3.org/2000/svg"
   xmlns:svg="http://www.w3.org/2000/svg"
   xmlns:rdf="http://www.w3.org/1999/02/22-rdf-syntax-ns#"
   xmlns:cc="http://creativecommons.org/ns#"
   xmlns:dc="http://purl.org/dc/elements/1.1/">
  <sodipodi:namedview
     id="namedview196"
     pagecolor="#ffffff"
     bordercolor="#666666"
     borderopacity="1.0"
     inkscape:showpageshadow="2"
     inkscape:pageopacity="0.0"
     inkscape:pagecheckerboard="0"
     inkscape:deskcolor="#d1d1d1"
     inkscape:document-units="mm"
     showgrid="false"
     inkscape:zoom="15.751538"
     inkscape:cx="20.188505"
     inkscape:cy="20.125019"
     inkscape:window-width="1436"
     inkscape:window-height="843"
     inkscape:window-x="0"
     inkscape:window-y="0"
     inkscape:window-maximized="1"
     inkscape:current-layer="layer1" />
  <defs
     id="defs5845" />
  <metadata
     id="metadata5848">
    <rdf:RDF>
      <cc:Work
         rdf:about="">
        <dc:format>image/svg+xml</dc:format>
        <dc:type
           rdf:resource="http://purl.org/dc/dcmitype/StillImage" />
      </cc:Work>
    </rdf:RDF>
  </metadata>
  <g
     transform="translate(-90.107408,-69.203633)"
     id="layer1">
    <path
       id="path6402-2"
       d="m 121.42244,91.207654 c -0.0446,-0.0722 -0.0207,-1.15724 0.0286,-1.29509 0.0194,-0.0544 0.009,-0.14317 -0.0277,-0.23048 -0.0326,-0.0781 -0.0506,-0.15075 -0.0398,-0.16147 0.0107,-0.0107 0.0276,-0.26381 0.0375,-0.5624 0.01,-0.29859 0.0261,-0.70757 0.036,-0.90884 0.011,-0.22269 -4e-4,-0.41264 -0.0286,-0.48524 -0.0357,-0.0913 -0.0352,-0.12311 0.002,-0.13554 0.0689,-0.023 0.0606,-0.17009 -0.0112,-0.19763 -0.0853,-0.0327 -0.078,-0.62071 0.011,-0.88932 0.0879,-0.26545 0.0963,-1.03218 0.0123,-1.13344 -0.0493,-0.0594 -0.0474,-0.0755 0.0138,-0.12028 0.0644,-0.047 0.0649,-0.0565 0.006,-0.10535 -0.0879,-0.073 -0.0836,-0.19882 0.006,-0.19167 0.0534,0.004 0.074,-0.0299 0.0826,-0.13666 0.008,-0.0973 -4.1e-4,-0.12459 -0.0259,-0.0863 -0.0206,0.0308 -0.0578,0.0435 -0.0826,0.0281 -0.0588,-0.0364 -0.06,-0.47041 -0.001,-0.47041 0.0273,0 0.0341,0.0447 0.0179,0.11811 -0.016,0.0726 -0.008,0.12944 0.0216,0.14752 0.0772,0.0477 0.12015,-0.0694 0.0974,-0.26563 -0.0117,-0.10063 -0.0276,-0.29036 -0.0354,-0.42162 -0.008,-0.13397 -0.0367,-0.25256 -0.0655,-0.27036 -0.0324,-0.02 -0.0395,-0.0594 -0.0192,-0.10695 0.0358,-0.084 0.0522,-0.41481 0.0205,-0.41264 -0.0876,0.006 -0.10945,-0.0313 -0.11186,-0.19043 -0.002,-0.16089 0.004,-0.17515 0.0575,-0.12198 0.0858,0.0858 0.0926,0.0782 0.0831,-0.0923 -0.007,-0.11733 -0.0249,-0.15118 -0.0796,-0.14683 -0.0489,0.004 -0.0711,-0.0239 -0.0711,-0.0891 0,-0.0521 0.0149,-0.10397 0.0332,-0.11526 0.0183,-0.0113 0.0279,-0.20907 0.0213,-0.4395 -0.007,-0.23043 0.006,-0.5379 0.0272,-0.68326 0.0215,-0.14536 0.0463,-0.33748 0.055,-0.42693 0.009,-0.0895 0.0292,-0.19466 0.0456,-0.2338 0.0179,-0.0428 0.0118,-0.0712 -0.0153,-0.0712 -0.0261,0 -0.045,-0.0756 -0.045,-0.18023 0,-0.14622 0.0158,-0.18524 0.0837,-0.20679 0.0978,-0.031 0.0958,-0.20239 -0.002,-0.20281 -0.05,-2e-4 -0.058,-0.0517 -0.0444,-0.28462 0.009,-0.1564 0.0185,-0.41244 0.0209,-0.56899 0.004,-0.28896 0.0392,-0.40655 0.10781,-0.36413 0.0479,0.0296 0.0281,-0.0971 -0.0322,-0.20654 -0.0292,-0.0531 -0.0372,-0.20476 -0.0223,-0.42289 0.0191,-0.2791 0.0321,-0.3281 0.0724,-0.27303 0.027,0.0369 0.0608,0.0671 0.0751,0.0671 0.0573,0 0.0212,-0.19852 -0.0534,-0.29329 -0.0722,-0.0919 -0.0791,-0.16472 -0.0755,-0.80853 0.003,-0.51822 0.0187,-0.73167 0.0591,-0.79762 0.0303,-0.0495 0.0551,-0.16729 0.0551,-0.26167 0,-0.11782 0.0265,-0.19982 0.0845,-0.26158 0.0805,-0.0857 0.0814,-0.096 0.018,-0.21857 -0.0544,-0.10513 -0.0581,-0.15401 -0.0206,-0.26758 0.0252,-0.0764 0.0549,-0.31775 0.0659,-0.53626 0.011,-0.21852 0.0366,-0.56198 0.0568,-0.76325 0.0202,-0.20126 0.042,-0.43913 0.0482,-0.52858 0.009,-0.12984 0.0375,-0.18099 0.1407,-0.25362 0.13301,-0.0936 0.1509,-0.129 0.19356,-0.38269 0.0137,-0.0816 0.0527,-0.204 0.0866,-0.27197 0.0339,-0.068 0.0682,-0.23907 0.0763,-0.3802 0.008,-0.14114 0.0276,-0.30734 0.0436,-0.36934 0.0231,-0.0901 0.008,-0.13396 -0.0767,-0.21837 -0.0581,-0.0581 -0.0957,-0.12174 -0.0836,-0.1414 0.0366,-0.0592 0.22993,-0.0406 0.47512,0.0456 0.12726,0.0447 0.2547,0.0813 0.28321,0.0813 0.0285,0 0.15248,0.0542 0.27548,0.12036 0.14915,0.0803 0.28389,0.1209 0.4046,0.12197 0.16607,10e-4 0.19968,0.0209 0.40789,0.23542 0.2106,0.21698 0.23326,0.25956 0.31514,0.59213 0.0627,0.25468 0.13102,0.41791 0.23619,0.5643 0.0814,0.11328 0.1831,0.28137 0.22603,0.37355 0.0429,0.0922 0.1324,0.24992 0.19881,0.35055 0.0664,0.10064 0.1383,0.22245 0.15978,0.27069 0.0221,0.0497 0.093,0.0996 0.16345,0.11505 0.10346,0.0227 0.12442,0.0469 0.12442,0.14377 0,0.12623 0.12426,0.24304 0.25851,0.24304 0.0428,0 0.12128,-0.0469 0.17444,-0.1043 0.12088,-0.13043 0.29566,-0.12247 0.36462,0.0166 0.026,0.0524 0.10417,0.1299 0.17375,0.17221 0.15084,0.0917 0.16461,0.21698 0.0453,0.4126 -0.10449,0.17137 -0.10349,0.35845 0.003,0.49336 0.0991,0.12592 0.15395,0.29732 0.18193,0.56798 0.0112,0.10798 0.0642,0.32188 0.11777,0.47533 0.0536,0.15345 0.10238,0.34871 0.10835,0.43391 0.006,0.0852 0.0546,0.2321 0.10811,0.32646 0.0588,0.1037 0.0873,0.20287 0.0721,0.25071 -0.0138,0.0435 -0.006,0.0909 0.0172,0.10529 0.0233,0.0144 0.0423,0.0777 0.0423,0.14062 0,0.063 0.025,0.18539 0.0555,0.27206 0.0305,0.0867 0.0689,0.31988 0.0854,0.51823 0.0254,0.30585 0.0417,0.36372 0.10718,0.38085 0.0894,0.0234 0.0868,0.0122 0.0992,0.43766 0.005,0.1789 0.0284,0.38017 0.0515,0.44726 0.085,0.24668 0.11222,0.45063 0.0788,0.58957 -0.0188,0.0783 -0.0379,0.42592 -0.0422,0.77255 -0.007,0.5645 4.1e-4,0.64241 0.0709,0.74698 0.0769,0.11385 0.077,0.11812 0.003,0.17233 -0.067,0.049 -0.0696,0.0676 -0.0219,0.15678 0.0484,0.0904 0.0593,0.0941 0.10249,0.0351 0.0419,-0.0574 0.0516,-0.0498 0.0731,0.0577 0.0418,0.20921 -0.01,0.41078 -0.10863,0.42489 -0.0904,0.0129 -0.0945,0.0348 -0.10372,0.55263 -0.003,0.16479 -0.009,0.1737 -0.11356,0.16264 -0.10351,-0.011 -0.11241,0.001 -0.14183,0.1916 -0.0173,0.11181 -0.0206,0.25531 -0.007,0.31888 0.02,0.0969 0.0118,0.11322 -0.0513,0.10098 -0.0414,-0.008 -0.077,-0.0417 -0.0791,-0.0749 -0.002,-0.0332 -0.0175,-0.0915 -0.0341,-0.12953 -0.0166,-0.0381 -0.0206,-0.0847 -0.009,-0.10359 0.0117,-0.0189 0.005,-0.0601 -0.0141,-0.0916 -0.0299,-0.0483 -0.0512,-0.0487 -0.13748,-0.003 -0.13657,0.0731 -0.15949,0.14917 -0.081,0.2689 0.0615,0.0939 0.06,0.10356 -0.0261,0.17333 -0.0849,0.0687 -0.0885,0.09 -0.0518,0.30303 0.0454,0.26335 0.0238,0.31998 -0.12512,0.32861 -0.0684,0.004 -0.10694,0.0297 -0.10696,0.0713 0,0.10073 -0.22765,0.32123 -0.27879,0.27009 -0.0294,-0.0294 -0.0412,-0.0187 -0.0385,0.0348 0.002,0.0425 -0.0285,0.24833 -0.068,0.45746 -0.0479,0.25327 -0.0655,0.49049 -0.0528,0.71036 0.0166,0.28641 0.006,0.35965 -0.0795,0.55314 -0.0542,0.12266 -0.1353,0.27451 -0.1801,0.33743 -0.0787,0.11045 -0.0903,0.11351 -0.33621,0.0883 -0.23164,-0.0237 -0.26267,-0.0176 -0.34228,0.0679 -0.0481,0.0517 -0.0875,0.10667 -0.0875,0.12219 0,0.0155 -0.0961,0.0767 -0.21347,0.13595 -0.2121,0.10703 -0.55908,0.48184 -0.55908,0.60391 0,0.0673 -0.16817,0.23309 -0.23642,0.23309 -0.0265,0 -0.0482,0.0346 -0.0482,0.077 0,0.0423 -0.0262,0.087 -0.0581,0.0993 -0.032,0.0123 -0.0706,0.10543 -0.0858,0.20702 -0.0224,0.1495 -0.0586,0.21002 -0.18966,0.31749 -0.30746,0.25207 -0.52753,0.4877 -0.59492,0.637 -0.0849,0.18799 -0.40362,0.48264 -0.70475,0.65143 -0.16089,0.0902 -0.24316,0.16545 -0.27234,0.24916 -0.023,0.066 -0.0601,0.11995 -0.0825,0.11995 -0.0224,0 -0.0965,0.11689 -0.16467,0.25975 -0.10856,0.22747 -0.14096,0.26294 -0.26078,0.28542 -0.0752,0.0141 -0.16961,0.0619 -0.2097,0.10619 -0.076,0.0839 -0.16264,0.10448 -0.19819,0.047 z m -0.0801,-5.31324 c 0.0129,-0.0336 0.0306,-0.061 0.0394,-0.061 0.009,0 0.016,0.0274 0.016,0.061 0,0.0335 -0.0177,0.061 -0.0394,0.061 -0.0217,0 -0.0289,-0.0274 -0.016,-0.061 z m 5.3456,-0.27947 c -0.0601,-0.0725 -0.0151,-0.18813 0.0733,-0.18813 0.0983,0 0.16036,0.0754 0.13665,0.16607 -0.0237,0.0905 -0.14272,0.10302 -0.20991,0.0221 z m 0.3447,-0.58029 c -0.0347,-0.0904 -0.0315,-0.0958 0.0576,-0.0958 0.0447,0 0.0813,0.0255 0.0813,0.0566 0,0.0813 -0.11078,0.1125 -0.13894,0.0391 z m 0.32554,-0.65484 c -0.0333,-0.10671 0.0795,-0.39427 0.16101,-0.41072 0.0596,-0.012 0.0667,0.006 0.0446,0.1169 -0.0144,0.0721 -0.0262,0.18378 -0.0262,0.24808 0,0.0884 -0.0191,0.1169 -0.0786,0.1169 -0.0432,0 -0.0886,-0.032 -0.10077,-0.0712 z"
       style="fill:#750787;fill-opacity:1" />
  </g>
</svg>
