<?xml version="1.0" encoding="UTF-8" standalone="no"?>
<svg
   xmlns:dc="http://purl.org/dc/elements/1.1/"
   xmlns:cc="http://creativecommons.org/ns#"
   xmlns:rdf="http://www.w3.org/1999/02/22-rdf-syntax-ns#"
   xmlns:svg="http://www.w3.org/2000/svg"
   xmlns="http://www.w3.org/2000/svg"
   version="1.1"
   id="svg5843"
   viewBox="0 0 37.863982 37.734411"
   height="10.649489mm"
   width="10.686057mm">
  <defs
     id="defs5845" />
  <metadata
     id="metadata5848">
    <rdf:RDF>
      <cc:Work
         rdf:about="">
        <dc:format>image/svg+xml</dc:format>
        <dc:type
           rdf:resource="http://purl.org/dc/dcmitype/StillImage" />
        <dc:title></dc:title>
      </cc:Work>
    </rdf:RDF>
  </metadata>
  <g
     transform="translate(-90.107408,-69.203633)"
     id="layer1">
    <path
       id="path6402"
       d="m 108.89919,106.83245 c -0.0409,-0.72904 0.026,-1.12424 0.27049,-1.59667 0.16072,-0.31057 0.21414,-0.52213 0.14294,-0.56613 -0.0377,-0.0233 -0.0376,-0.0544 6.3e-4,-0.13819 0.0271,-0.0595 0.0646,-0.10814 0.0834,-0.10814 0.0568,0 0.0384,-0.0905 -0.0347,-0.17133 -0.05,-0.0553 -0.0695,-0.15246 -0.0712,-0.35559 -0.002,-0.30255 -0.0402,-0.38786 -0.12193,-0.27605 -0.0286,0.0391 -0.0606,0.0711 -0.0712,0.0711 -0.0434,0 0.01,-0.41417 0.0674,-0.52589 0.0831,-0.16062 0.0787,-0.206 -0.02,-0.206 -0.0737,0 -0.0816,-0.0237 -0.075,-0.22591 0.006,-0.19915 0.0242,-0.24274 0.14945,-0.36798 0.10195,-0.10194 0.12963,-0.15449 0.098,-0.18608 -0.0741,-0.0741 -0.15204,-0.0106 -0.2749,0.224 -0.0647,0.12351 -0.12839,0.21787 -0.14162,0.20969 -0.0132,-0.008 -0.0115,-0.12116 0.004,-0.25106 0.0153,-0.12991 0.0192,-0.28381 0.009,-0.34202 -0.0111,-0.0612 0.016,-0.17484 0.0642,-0.26938 0.0459,-0.09 0.12043,-0.2609 0.16563,-0.37988 0.0747,-0.1966 0.0764,-0.22271 0.0187,-0.28643 -0.0391,-0.0432 -0.0684,-0.16649 -0.0763,-0.32138 -0.007,-0.1382 -0.0315,-0.26986 -0.0542,-0.29257 -0.0279,-0.028 -0.0216,-0.0956 0.0195,-0.20942 0.0472,-0.13057 0.0548,-0.265759 0.0338,-0.605227 -0.0177,-0.28684 -0.0128,-0.43709 0.0143,-0.43709 0.0649,0 0.10531,-0.16502 0.0921,-0.37596 -0.009,-0.14601 0.004,-0.19897 0.0521,-0.21759 0.0571,-0.0219 0.0575,-0.034 0.004,-0.11085 -0.0769,-0.10976 -0.0778,-0.23079 -0.002,-0.23079 0.10531,0 0.11444,-0.0854 0.0199,-0.18598 -0.051,-0.0542 -0.0771,-0.0986 -0.0582,-0.0986 0.019,0 -0.005,-0.0424 -0.0539,-0.0941 -0.0817,-0.087 -0.0851,-0.11183 -0.0453,-0.32741 0.0327,-0.17696 0.0307,-0.26958 -0.008,-0.38364 -0.0283,-0.0827 -0.0455,-0.16865 -0.0382,-0.19101 0.0381,-0.11654 0.072,-0.65622 0.0434,-0.6913 -0.0183,-0.0224 -0.0322,-0.24197 -0.0309,-0.48792 0.001,-0.24596 -0.0115,-0.47954 -0.0284,-0.51908 -0.0169,-0.0395 -0.009,-0.12526 0.0184,-0.19051 0.0342,-0.0826 0.0412,-0.25428 0.0231,-0.56498 -0.0162,-0.27819 -0.0109,-0.45569 0.014,-0.47111 0.0571,-0.0353 0.01,-0.58354 -0.0647,-0.74962 -0.0601,-0.13401 -0.11104,-0.81781 -0.0974,-1.30637 0.003,-0.12299 0.0141,-0.73443 0.0237,-1.35874 0.0122,-0.79227 0.0316,-1.1438 0.0641,-1.1639 0.0261,-0.0161 0.035,-0.0654 0.0203,-0.11178 -0.0331,-0.1042 0.0319,-0.14749 0.13689,-0.0913 0.0753,0.0403 0.0796,0.0309 0.0692,-0.15059 -0.009,-0.1652 -0.0244,-0.19551 -0.10195,-0.20684 -0.10054,-0.0147 -0.16783,-0.14899 -0.16783,-0.33498 0,-0.0656 -0.0205,-0.11933 -0.0456,-0.11933 -0.0323,0 -0.0369,-0.0918 -0.0157,-0.31512 0.0164,-0.17332 0.0248,-0.37001 0.0186,-0.4371 -0.0158,-0.17203 -0.0146,-0.31092 0.0168,-1.93136 0.0303,-1.56147 0.0423,-1.79206 0.1053,-2.026 0.0227,-0.0844 0.0391,-0.25318 0.0364,-0.37504 -0.006,-0.24751 0.0441,-1.2923 0.076,-1.59983 0.0162,-0.15581 0.006,-0.20711 -0.0449,-0.23582 -0.0363,-0.0203 -0.0656,-0.0882 -0.0656,-0.152 0,-0.0634 -0.0273,-0.16772 -0.0607,-0.23177 -0.0334,-0.0641 -0.0607,-0.16221 -0.0607,-0.21812 0,-0.0559 0.0273,-0.15406 0.0607,-0.21811 0.0334,-0.0641 0.0607,-0.18311 0.0607,-0.26456 0,-0.0815 0.0177,-0.20965 0.0392,-0.28487 0.0534,-0.18637 0.0954,-0.94019 0.0524,-0.94019 -0.0191,0 -0.0574,0.0227 -0.0851,0.0505 -0.0402,0.0402 -0.0583,0.0381 -0.0888,-0.0102 -0.0628,-0.0994 -0.0601,-0.57667 0.004,-0.6964 0.0599,-0.11189 0.0886,-0.76703 0.0337,-0.76703 -0.0319,0 -0.0405,-0.0596 -0.0264,-0.18442 0.0168,-0.14868 0.002,-0.21177 -0.075,-0.32556 -0.0901,-0.13275 -0.0934,-0.15868 -0.0555,-0.43566 0.0556,-0.40691 0.0983,-0.60526 0.15128,-0.70378 0.0249,-0.0462 0.13001,-0.29321 0.23366,-0.54891 0.10366,-0.25571 0.2146,-0.50545 0.24654,-0.55498 0.0319,-0.0495 0.0581,-0.14734 0.0581,-0.21735 0,-0.07 0.0333,-0.17587 0.074,-0.23523 0.0407,-0.0594 0.10523,-0.19208 0.14334,-0.29494 0.0381,-0.10286 0.13018,-0.25839 0.2046,-0.34561 0.0744,-0.0872 0.16827,-0.22264 0.20855,-0.30091 0.10876,-0.21131 0.31005,-0.44795 0.4368,-0.5135 0.0615,-0.0318 0.11181,-0.0773 0.11181,-0.10116 0,-0.0818 0.40886,-0.59312 0.51175,-0.64001 0.0597,-0.0272 0.13599,-0.12166 0.18164,-0.22485 0.085,-0.19214 0.15056,-0.22674 0.43149,-0.22766 0.15967,-5.2e-4 0.18007,-0.0148 0.35655,-0.24957 0.17579,-0.23385 0.44092,-0.48287 0.51412,-0.48287 0.018,0 0.044,0.0183 0.0578,0.0407 0.0508,0.0821 0.11022,0.0397 0.085,-0.0607 -0.0178,-0.0707 0.006,-0.15063 0.0774,-0.26429 0.0861,-0.13634 0.12472,-0.16294 0.23676,-0.16294 0.0782,0 0.18997,-0.0414 0.26861,-0.0994 0.12287,-0.0907 0.37789,-0.18471 0.66209,-0.2442 0.0693,-0.0145 0.15479,-0.088 0.23068,-0.1983 0.12354,-0.17956 0.3093,-0.27132 0.5493,-0.27132 0.15098,0 0.19619,0.1401 0.19614,0.6078 -2e-5,0.25785 0.0184,0.41227 0.056,0.46963 0.0308,0.047 0.0687,0.16689 0.0843,0.2664 0.0353,0.22588 0.0307,1.10612 -0.007,1.30463 -0.0154,0.0813 -0.0106,0.18195 0.0106,0.22363 0.0465,0.0915 -0.0133,0.82685 -0.0721,0.88563 -0.0525,0.0525 -0.0519,0.19849 7.2e-4,0.166 0.0227,-0.014 0.0404,0.0164 0.04,0.0688 -4.6e-4,0.0682 -0.0102,0.0788 -0.0356,0.0387 -0.0244,-0.0384 -0.0434,-0.0415 -0.0628,-0.0102 -0.0371,0.0601 0.012,0.13462 0.0665,0.10094 0.0301,-0.0186 0.0385,0.16394 0.0277,0.59894 l -0.0155,0.62564 0.0928,0.005 c 0.051,0.003 0.10075,0.0128 0.11051,0.0225 0.0449,0.0449 0.0299,0.92031 -0.0182,1.0654 -0.0393,0.11837 -0.0406,0.16452 -0.005,0.18645 0.0353,0.0218 0.0318,0.10474 -0.0141,0.33061 -0.0782,0.38461 -0.09,0.64536 -0.0339,0.7498 0.0299,0.0558 0.0311,0.10578 0.004,0.15487 -0.0443,0.0791 -0.0534,0.80926 -0.0122,0.97349 0.0141,0.056 0.008,0.11276 -0.0137,0.1261 -0.023,0.0142 -0.0343,0.24721 -0.0273,0.56351 0.0186,0.83933 0.0661,2.14841 0.0845,2.32833 0.009,0.0894 0.0256,1.7179 0.0366,3.61876 0.011,1.90087 0.0261,3.74253 0.0335,4.09257 0.0133,0.62562 0.0153,0.63807 0.11899,0.73189 0.10224,0.0925 0.10414,0.10291 0.0619,0.3394 -0.024,0.13418 -0.0485,0.47268 -0.0546,0.75222 -0.006,0.27954 -0.0199,0.94738 -0.0307,1.4841 -0.0108,0.53671 -0.0397,1.23201 -0.0641,1.54509 -0.0244,0.31308 -0.0623,0.79796 -0.0843,1.0775 -0.022,0.27954 -0.0404,0.57629 -0.0409,0.65945 -7.5e-4,0.12313 -0.0133,0.14646 -0.0675,0.12566 -0.0545,-0.0209 -0.0633,-0.004 -0.0487,0.0958 0.0101,0.069 -0.005,0.14262 -0.0351,0.17073 -0.0729,0.0681 -0.0664,0.29351 0.0118,0.40517 0.12354,0.17638 0.0111,0.68175 -0.22772,1.02349 -0.11006,0.15748 -0.28429,0.62281 -0.28429,0.75927 0,0.0691 -0.0339,0.15334 -0.0776,0.19288 -0.0427,0.0386 -0.10143,0.12777 -0.13056,0.19809 -0.0291,0.0703 -0.17745,0.2453 -0.32961,0.38883 -0.15215,0.14353 -0.28741,0.30388 -0.30057,0.35634 -0.0132,0.0524 -0.10895,0.157087 -0.21286,0.232527 -0.10391,0.0754 -0.22552,0.20845 -0.27023,0.29558 -0.0447,0.0871 -0.14167,0.23874 -0.21545,0.33692 -0.10608,0.14117 -0.1288,0.20283 -0.1086,0.29478 0.0213,0.0971 0.0124,0.11628 -0.0543,0.11628 -0.0572,0 -0.11109,0.0662 -0.19038,0.2338 -0.12386,0.26185 -0.50021,0.87191 -0.93619,1.51754 -0.15966,0.23643 -0.30187,0.46006 -0.31603,0.49696 -0.034,0.0885 -0.43352,0.67705 -0.53013,0.78089 -0.0416,0.0447 -0.13854,0.20536 -0.21539,0.35697 -0.11135,0.21967 -0.17046,0.2896 -0.29109,0.3444 -0.0832,0.0378 -0.15721,0.0721 -0.16435,0.0762 -0.007,0.004 0.009,0.0432 0.0367,0.087 0.0411,0.0658 0.0363,0.0979 -0.0277,0.18566 -0.0425,0.0583 -0.0919,0.10666 -0.10964,0.10736 -0.0627,0.002 -0.21866,0.18777 -0.41188,0.4892 -0.10751,0.16773 -0.22988,0.3507 -0.27193,0.40661 -0.0421,0.0559 -0.11563,0.17484 -0.16353,0.26429 -0.11699,0.2185 -0.22717,0.35573 -0.33345,0.41533 -0.12764,0.0716 -0.14508,0.0647 -0.15206,-0.0596 z m 0.42994,-9.158737 c 0.0138,-0.0224 -0.0136,-0.0407 -0.061,-0.0407 -0.0474,0 -0.0748,0.0183 -0.061,0.0407 0.0138,0.0224 0.0413,0.0407 0.061,0.0407 0.0197,0 0.0472,-0.0183 0.061,-0.0407 z m -0.18422,-5.0622 c 0,-0.0224 -0.0177,-0.0132 -0.0394,0.0203 -0.0217,0.0335 -0.0394,0.0793 -0.0394,0.10165 0,0.0224 0.0177,0.0132 0.0394,-0.0203 0.0217,-0.0335 0.0394,-0.0793 0.0394,-0.10165 z m 0.0242,11.759237 c 0.0153,-0.0401 0.038,-0.0627 0.0505,-0.0502 0.0125,0.0125 3e-5,0.0453 -0.0278,0.0729 -0.0402,0.0399 -0.0448,0.0352 -0.0228,-0.0228 z m 5.94167,-6.397747 c -0.0325,-0.0325 0.004,-0.096 0.0555,-0.096 0.021,0 0.0383,0.0274 0.0383,0.061 0,0.0629 -0.048,0.0808 -0.0938,0.035 z m -6.06638,-8.83798 c -0.0332,-0.0536 0.0155,-0.12979 0.0638,-0.0999 0.0494,0.0305 0.0491,0.14057 -4.1e-4,0.14057 -0.021,0 -0.0496,-0.0183 -0.0634,-0.0407 z m -0.1391,-4.78097 c 0.002,-0.0474 0.0116,-0.057 0.0246,-0.0246 0.0118,0.0293 0.0103,0.0644 -0.003,0.0779 -0.0135,0.0135 -0.0231,-0.0105 -0.0214,-0.0534 z m -0.003,-0.32427 c 0,-0.0349 0.0186,-0.0519 0.0413,-0.0378 0.0227,0.014 0.0308,0.0426 0.0179,0.0634 -0.0349,0.0564 -0.0593,0.0459 -0.0593,-0.0255 z m 1.27095,-10.822 c -0.0368,-0.0132 -0.0391,-0.0393 -0.009,-0.0962 0.0539,-0.10077 0.12023,-0.10029 0.12023,8.9e-4 0,0.0895 -0.0377,0.12175 -0.11149,0.0953 z m 3.43547,-2.88581 c -0.0391,-0.0102 -0.0712,-0.0368 -0.0712,-0.059 0,-0.0578 0.21405,-0.0247 0.23405,0.0362 0.0167,0.051 -0.0301,0.0575 -0.16289,0.0228 z"
       style="fill:#008026;fill-opacity:1" />
    <path
       id="path6402-6"
       d="m 108.11862,106.20302 c -0.033,-0.0263 -0.0776,-0.099 -0.0992,-0.16135 -0.0514,-0.14851 -0.22617,-0.22406 -0.32358,-0.13981 -0.0738,0.0637 -0.12416,0.0429 -0.12206,-0.0504 6.9e-4,-0.0305 -0.0614,-0.11565 -0.13808,-0.18924 -0.0767,-0.0735 -0.13865,-0.16368 -0.13782,-0.20022 0.002,-0.0929 -0.11215,-0.1819 -0.21859,-0.17038 -0.0749,0.008 -0.10423,-0.0306 -0.18158,-0.2388 -0.0618,-0.16631 -0.16957,-0.33414 -0.32608,-0.50758 -0.2349,-0.2603 -0.49696,-0.74914 -0.49311,-0.9198 0.002,-0.10004 -0.17628,-0.53485 -0.23537,-0.57324 -0.0215,-0.014 -0.0271,-0.0603 -0.0126,-0.10291 0.0171,-0.0501 -0.0185,-0.15056 -0.10091,-0.28424 -0.1069,-0.17342 -0.15225,-0.21128 -0.28142,-0.23493 -0.0847,-0.0155 -0.17174,-0.0506 -0.19345,-0.078 -0.0555,-0.0701 -0.26954,-0.72389 -0.26766,-0.8177 9.6e-4,-0.0427 -0.0735,-0.18164 -0.16522,-0.30876 -0.0926,-0.12841 -0.16029,-0.26522 -0.1522,-0.30779 0.009,-0.0501 -0.059,-0.14888 -0.19779,-0.28491 -0.18713,-0.18353 -0.19915,-0.20476 -0.10118,-0.17873 0.0689,0.0183 0.11155,0.0129 0.11216,-0.0141 0.002,-0.0832 -0.17815,-0.31971 -0.39557,-0.519744 -0.12021,-0.1106 -0.39059,-0.373525 -0.60084,-0.584292 -0.26594,-0.266586 -0.43091,-0.398971 -0.54209,-0.435038 -0.10728,-0.03483 -0.17504,-0.08757 -0.20612,-0.16048 -0.0255,-0.05979 -0.0903,-0.191995 -0.14402,-0.293863 -0.0724,-0.137169 -0.0908,-0.220153 -0.0709,-0.319881 0.0162,-0.08185 0.008,-0.159259 -0.0229,-0.197418 -0.0273,-0.03453 -0.0444,-0.122041 -0.0378,-0.194492 0.008,-0.09434 -0.022,-0.176402 -0.10744,-0.288997 -0.10742,-0.141619 -0.15659,-0.309601 -0.0902,-0.308103 0.0141,3.18e-4 0.0864,0.04006 0.1607,0.08825 0.11107,0.07212 0.13524,0.07677 0.13639,0.02578 7.7e-4,-0.03409 -0.0143,-0.07204 -0.0334,-0.08447 -0.0191,-0.01243 -0.045,-0.09744 -0.0576,-0.188816 -0.0125,-0.09141 -0.0665,-0.239081 -0.11996,-0.328169 -0.10979,-0.182943 -0.11578,-0.244064 -0.0424,-0.433388 0.0425,-0.109669 0.0405,-0.17106 -0.0112,-0.34625 -0.0448,-0.151839 -0.0502,-0.22752 -0.0187,-0.26372 0.0243,-0.02796 0.0335,-0.105042 0.0204,-0.171824 -0.0208,-0.106037 -0.0139,-0.118265 0.0555,-0.09837 0.0671,0.01912 0.0864,-0.0071 0.12538,-0.171815 0.0253,-0.106967 0.0384,-0.207637 0.0289,-0.223734 -0.0392,-0.0668 -0.0342,-1.592916 0.006,-1.944399 0.0113,-0.09937 0.002,-0.204636 -0.0212,-0.233819 -0.0232,-0.02923 -0.032,-0.07764 -0.0197,-0.107621 0.0123,-0.03003 0.007,-0.08067 -0.0122,-0.112633 -0.0239,-0.04015 -0.006,-0.07996 0.0575,-0.128795 l 0.092,-0.07074 -0.09,-0.06645 c -0.10373,-0.07646 -0.11511,-0.159907 -0.0262,-0.191749 0.0768,-0.02747 0.0802,-0.117112 0.0104,-0.283938 -0.0869,-0.208164 -0.0984,-0.313399 -0.0339,-0.311943 0.0727,0.0016 0.0744,-0.07574 0.005,-0.227492 -0.0299,-0.06559 -0.0654,-0.179051 -0.0789,-0.252055 -0.0194,-0.105375 -0.0112,-0.132437 0.0397,-0.131289 0.0734,0.0017 0.0871,-0.08276 0.0243,-0.14855 -0.0238,-0.02494 -0.0427,-0.256429 -0.0431,-0.529296 -8.6e-4,-0.272089 -0.021,-0.524887 -0.0467,-0.575891 -0.0378,-0.07467 -0.0354,-0.09072 0.0139,-0.08961 0.0944,0.0021 0.10913,-0.05745 0.0399,-0.1611 -0.082,-0.122779 -0.0931,-0.326953 -0.0217,-0.395249 0.0466,-0.04456 0.044,-0.08143 -0.0165,-0.22507 -0.0501,-0.119171 -0.0603,-0.193169 -0.0329,-0.241663 0.0251,-0.04444 0.0248,-0.07946 -8.3e-4,-0.09604 -0.0654,-0.04248 -0.042,-0.345816 0.0286,-0.37108 0.0746,-0.02672 0.0834,-0.129891 0.0136,-0.158534 -0.0713,-0.02921 -0.0558,-0.711189 0.016,-0.70958 0.0692,0.0015 0.0659,-0.07353 -0.018,-0.404898 l -0.0716,-0.283068 0.088,-0.05553 c 0.0863,-0.05457 0.0866,-0.05776 0.0162,-0.170587 -0.0558,-0.08948 -0.069,-0.188114 -0.0595,-0.444725 0.007,-0.181336 0.0113,-0.366349 0.0103,-0.411113 -9.9e-4,-0.04473 4.6e-4,-0.375005 0.004,-0.733887 0.003,-0.358871 -0.008,-0.673902 -0.0229,-0.700045 -0.016,-0.02717 0.007,-0.06565 0.0555,-0.08977 0.0791,-0.04013 0.0801,-0.04761 0.0186,-0.146197 -0.0482,-0.07731 -0.0613,-0.18724 -0.0512,-0.429345 0.007,-0.178977 -0.005,-0.36244 -0.0281,-0.407708 -0.0264,-0.05211 -0.0273,-0.09964 -0.002,-0.12965 0.055,-0.06608 0.0964,-0.470464 0.0512,-0.499852 -0.0204,-0.01326 -0.0241,-0.09207 -0.008,-0.175009 0.0213,-0.110827 0.0127,-0.165225 -0.0332,-0.20491 -0.083,-0.07209 -0.0766,-0.155288 0.0162,-0.21036 0.078,-0.04625 0.0777,-0.06346 -0.007,-0.452633 -0.0135,-0.06232 -2.4e-4,-0.166638 0.0288,-0.233241 0.0358,-0.08131 0.0403,-0.137336 0.0139,-0.17222 -0.0228,-0.02982 -0.0312,-0.291909 -0.0201,-0.620352 0.0173,-0.501867 0.0277,-0.570051 0.0894,-0.580521 0.0875,-0.01483 0.0875,-0.04244 6.3e-4,-0.160966 -0.0729,-0.09917 -0.0748,-0.459576 -0.005,-0.931092 0.0223,-0.150626 0.0167,-0.236193 -0.018,-0.280117 -0.0403,-0.05072 -0.0392,-0.108941 0.006,-0.294428 0.0846,-0.352112 0.0847,-0.35343 0.0543,-0.542692 -0.0156,-0.09748 -0.0135,-0.195174 0.004,-0.217144 0.0182,-0.022 0.023,-0.221517 0.0107,-0.443471 -0.0212,-0.382855 -0.0119,-0.577445 0.0411,-0.859232 0.0128,-0.06813 -0.001,-0.213211 -0.0315,-0.322383 -0.0349,-0.126139 -0.0411,-0.222914 -0.017,-0.265522 0.0208,-0.03684 0.0461,-0.294184 0.0562,-0.571807 0.021,-0.576103 0.0902,-0.906597 0.22664,-1.082774 0.10148,-0.131024 0.21094,-0.557444 0.21968,-0.856162 0.003,-0.116183 -0.0231,-0.228039 -0.0727,-0.306668 -0.0429,-0.06809 -0.0772,-0.163854 -0.0763,-0.212846 10e-4,-0.04899 -0.0149,-0.09986 -0.0353,-0.113104 -0.0203,-0.01326 -0.0477,-0.0789 -0.0609,-0.146071 -0.025,-0.127777 -0.16286,-0.26085 -0.22955,-0.221684 -0.0778,0.04565 -0.39677,0.006 -0.49517,-0.06179 -0.12848,-0.08842 -0.12688,-0.173976 0.004,-0.220424 0.0627,-0.02229 0.10322,-0.06829 0.10436,-0.118646 0.001,-0.04529 0.0203,-0.08186 0.0428,-0.08135 0.0225,5.07e-4 0.0719,-0.0716 0.10971,-0.160206 0.0595,-0.139345 0.086,-0.160973 0.19647,-0.159969 0.10183,0.0013 0.1478,-0.02877 0.2267,-0.146284 0.0781,-0.116367 0.0899,-0.162764 0.0558,-0.220158 -0.0237,-0.03995 -0.0421,-0.118691 -0.0409,-0.174886 0.002,-0.08468 0.0214,-0.101524 0.11406,-0.09836 0.0615,0.0021 0.14667,0.03152 0.18932,0.06529 0.0426,0.03377 0.10654,0.06212 0.14196,0.06292 0.0354,7.99e-4 0.17247,0.05821 0.30455,0.127612 0.13208,0.0694 0.25293,0.127018 0.26856,0.128071 0.0912,0.0061 0.40015,0.281027 0.48275,0.429548 0.0534,0.09603 0.13482,0.210324 0.18089,0.253955 0.046,0.04365 0.0832,0.101403 0.0826,0.128426 -0.002,0.07258 0.34089,0.391199 0.62705,0.583272 0.13752,0.09233 0.24975,0.187881 0.24939,0.21237 -0.001,0.07309 0.14622,0.189596 0.22669,0.179258 0.0503,-0.0069 0.21831,0.148302 0.51141,0.470986 0.24009,0.264333 0.4675,0.49374 0.50533,0.509798 0.0379,0.01606 0.13984,0.125906 0.22666,0.244094 0.0868,0.11819 0.19461,0.261467 0.23954,0.318404 0.26869,0.340538 0.3918,0.539855 0.36851,0.596665 -0.033,0.08067 0.0497,0.185518 0.14819,0.18774 0.084,0.0019 0.10301,0.06754 0.0265,0.09112 -0.0739,0.02284 -0.002,0.112804 0.0927,0.114931 0.0571,0.0013 0.0755,0.02071 0.0586,0.06204 -0.0136,0.0331 0.008,0.09301 0.0486,0.13327 0.0403,0.04022 0.0861,0.118161 0.10164,0.173207 0.0157,0.05507 0.079,0.186619 0.14079,0.29237 0.11747,0.20092 0.13822,0.28554 0.0697,0.283994 -0.0749,-0.0017 -0.0439,0.08613 0.172,0.488414 0.18387,0.342545 0.21398,0.430156 0.2099,0.61074 -0.005,0.212126 0.0474,0.28177 0.0987,0.13181 0.0972,-0.284079 0.16472,0.297691 0.0826,0.713115 -0.0308,0.155875 -0.0475,0.412334 -0.0381,0.58597 0.0173,0.320931 -0.0356,0.866058 -0.15223,1.573356 -0.0871,0.528159 -0.0882,0.583819 -0.0105,0.555934 0.0338,-0.01214 0.0611,-0.0016 0.0605,0.02297 -5.5e-4,0.02469 -0.0355,0.04421 -0.0777,0.04326 -0.11336,-0.0026 -0.14662,0.229931 -0.0414,0.289339 0.0661,0.0373 0.0734,0.07407 0.0496,0.253143 -0.0152,0.115216 -0.045,0.562418 -0.066,0.993793 -0.0211,0.431373 -0.0548,0.81226 -0.075,0.846424 -0.0225,0.038 -0.0162,0.126258 0.0163,0.227555 0.0291,0.09098 0.0478,0.277127 0.0415,0.413621 -0.006,0.136487 -0.0149,0.436896 -0.0191,0.667579 -0.007,0.416839 -0.0416,0.582791 -0.13047,0.634989 -0.0326,0.01917 -0.0278,0.04879 0.0164,0.1 0.0474,0.05478 0.0559,0.121581 0.0346,0.270509 -0.0156,0.108807 -0.0365,0.20564 -0.0465,0.215197 -0.0102,0.0098 0.007,0.04687 0.0381,0.08298 0.0334,0.03896 0.0613,0.189442 0.0688,0.370885 0.007,0.167917 0.0301,0.378915 0.0515,0.468872 0.029,0.121044 0.0397,-0.106061 0.0413,-0.87348 0.004,-1.835199 0.0327,-2.211246 0.16273,-2.126741 0.0307,0.0199 0.0302,0.337377 -0.002,1.061325 -0.0249,0.568123 -0.0332,1.292761 -0.0185,1.610312 0.0352,0.759667 0.01,1.48216 -0.0981,2.791098 -0.0488,0.591671 -0.0931,1.17633 -0.0984,1.29924 -0.006,0.122901 -0.0209,0.232367 -0.0346,0.243242 -0.0136,0.0109 -0.0378,0.124718 -0.0536,0.252985 -0.023,0.185958 -0.0171,0.233474 0.0292,0.234518 0.0687,0.0016 0.0689,0.09868 0.001,0.671087 -0.17693,1.49605 -0.28819,3.394474 -0.20221,3.450337 0.0644,0.04186 0.0791,-0.02552 0.0994,-0.453994 0.0302,-0.639371 0.093,-0.594053 0.0738,0.05328 -0.0235,0.775117 -0.0221,0.801096 0.0252,0.773314 0.0562,-0.03294 0.0485,0.156483 -0.009,0.210986 -0.0328,0.03137 -0.0336,0.06666 -0.003,0.127408 0.0568,0.112049 0.0503,0.264723 -0.0134,0.326171 -0.0416,0.03987 -0.033,0.06487 0.0434,0.125321 0.0902,0.07145 0.0939,0.09374 0.0682,0.412083 -0.0149,0.185112 -0.0125,0.421126 0.006,0.524479 0.0182,0.103346 0.0368,0.334404 0.0413,0.513452 0.005,0.179068 0.0176,0.44473 0.0291,0.590387 0.0114,0.145654 0.0175,0.319656 0.0135,0.386672 -0.005,0.06701 -0.0122,0.405419 -0.018,0.752006 -0.01,0.555183 -0.002,0.646073 0.0673,0.764083 0.043,0.0737 0.10075,0.13445 0.12828,0.13507 0.0275,6.2e-4 0.0991,0.0546 0.15896,0.12007 0.17264,0.18853 0.19851,0.62037 0.1235,2.06107 -0.0242,0.46462 -0.0211,0.49164 0.0697,0.60458 0.12999,0.16176 0.12029,0.25427 -0.0538,0.51346 -0.0215,0.032 -0.0488,0.41575 -0.0606,0.85272 -0.0193,0.72261 -0.0308,0.81956 -0.12351,1.0719 -0.11473,0.31204 -0.21161,0.42723 -0.35652,0.42396 -0.0613,-0.001 -0.10882,0.0267 -0.12502,0.0741 -0.0323,0.0946 -0.16293,0.12986 -0.24319,0.0658 z m 0.0334,-10.365949 c -0.0107,-0.02825 -0.0204,-0.0055 -0.0216,0.05032 -0.001,0.05589 0.007,0.07898 0.0194,0.05125 0.0119,-0.02774 0.013,-0.07343 0.002,-0.101624 z m 0.32739,-8.290955 c -0.0324,-0.03394 -0.0443,-0.004 -0.0446,0.114393 -5.9e-4,0.158857 4e-4,0.15938 0.0442,0.04621 0.0316,-0.08121 0.0318,-0.127825 6.2e-4,-0.160637 z m -0.015,-0.304177 c -0.0432,-0.04519 -0.057,0.0093 -0.0336,0.131756 l 0.0234,0.12254 0.0165,-0.115187 c 0.009,-0.0634 0.006,-0.12596 -0.007,-0.13912 z"
       style="fill:#ffed00;fill-opacity:1" />
    <path
       id="path6402-0"
       d="m 116.04564,96.675167 c -0.0157,-0.163234 -0.15253,-0.219302 -0.18955,-0.07769 -0.0126,0.04837 -0.0513,0.08794 -0.0858,0.08794 -0.04,0 -0.0534,-0.02424 -0.0372,-0.0666 0.0141,-0.03667 0.0256,-0.104327 0.0256,-0.150421 0,-0.0665 0.0237,-0.081 0.11504,-0.07023 0.0849,0.01036 0.11904,-0.0073 0.1303,-0.06463 0.0227,-0.11628 -0.0582,-0.179279 -0.14148,-0.110159 -0.0993,0.08245 -0.14789,-0.01761 -0.11723,-0.241303 0.0176,-0.128586 0.005,-0.208841 -0.0455,-0.285657 -0.0476,-0.07271 -0.058,-0.130274 -0.0325,-0.180107 0.0206,-0.04029 0.0383,-0.186986 0.0393,-0.325971 9.2e-4,-0.138986 0.0151,-0.286113 0.0316,-0.326944 0.0172,-0.04268 0.005,-0.103582 -0.0275,-0.143347 -0.0406,-0.04889 -0.0605,-0.2305 -0.068,-0.62068 -0.006,-0.30337 -0.0249,-0.797961 -0.0422,-1.099093 -0.0173,-0.301132 -0.0166,-0.649497 0.002,-0.774136 0.0205,-0.140664 0.0158,-0.27881 -0.0124,-0.364244 -0.0411,-0.124733 -0.0234,-0.747361 0.0234,-0.823193 0.0104,-0.01606 -0.002,-0.139472 -0.0272,-0.274242 -0.025,-0.13477 -0.0527,-0.691323 -0.0617,-1.236783 -0.009,-0.54546 -0.0183,-1.010706 -0.0207,-1.033867 -0.0123,-0.123241 0.0604,-1.017035 0.0858,-1.052915 0.0164,-0.0232 0.0159,-0.383262 -0.001,-0.800208 -0.0204,-0.501521 -0.0156,-0.817258 0.0143,-0.932875 0.038,-0.14721 0.0333,-0.192776 -0.0296,-0.288868 -0.13167,-0.200959 -0.29492,-3.113057 -0.2977,-5.310465 -5.5e-4,-0.428112 0.0146,-0.61227 0.0544,-0.660062 0.0303,-0.03646 0.0634,-0.186208 0.0736,-0.332786 0.0104,-0.146578 0.0281,-0.332839 0.0397,-0.413912 0.0116,-0.0811 10e-4,-0.195738 -0.0226,-0.25481 -0.0295,-0.07251 -0.0313,-0.318689 -0.005,-0.758092 0.0312,-0.529021 0.0276,-0.668141 -0.0195,-0.743984 -0.0333,-0.05386 -0.0578,-0.208064 -0.0578,-0.36501 0,-0.173116 -0.0182,-0.277806 -0.0502,-0.288485 -0.0718,-0.02393 -0.0599,-0.453614 0.0139,-0.4992 0.0316,-0.01958 0.0606,-0.08835 0.0645,-0.152855 0.004,-0.06453 0.0197,-0.166487 0.0352,-0.226533 0.0191,-0.07385 0.006,-0.130772 -0.0386,-0.175985 -0.0879,-0.08794 -0.0905,-0.403304 -0.003,-0.436647 0.0843,-0.03242 0.0797,-0.132823 -0.0146,-0.310672 -0.0428,-0.08069 -0.0898,-0.263977 -0.10436,-0.40721 -0.0251,-0.246441 -0.0215,-0.261191 0.0673,-0.27476 0.0579,-0.0093 0.0878,-0.03812 0.0781,-0.07655 -0.008,-0.03418 -0.0135,-0.575457 -0.0108,-1.202808 0.004,-0.916675 0.0172,-1.165239 0.0674,-1.26592 0.0514,-0.103064 0.0571,-0.238434 0.0319,-0.762908 -0.0169,-0.350686 -0.0204,-0.681266 -0.008,-0.73461 0.027,-0.11569 0.39062,-0.328322 0.50865,-0.297465 0.0435,0.01139 0.14075,-0.0083 0.21612,-0.04351 0.0754,-0.03532 0.2697,-0.07696 0.43185,-0.09239 0.16215,-0.01554 0.42749,-0.05417 0.58963,-0.08587 0.31101,-0.06091 0.58138,-0.05593 1.03186,0.01927 0.15057,0.02507 0.4159,0.0577 0.58963,0.07251 0.23755,0.0202 0.32933,0.04599 0.37018,0.103965 0.0438,0.06215 0.0895,0.0723 0.2357,0.05231 0.13427,-0.01844 0.23366,-0.0021 0.38273,0.06422 0.11075,0.04899 0.24983,0.08908 0.30905,0.08908 0.39451,0 0.93228,0.295155 0.93375,0.512479 10e-4,0.186177 0.0433,0.245612 0.17374,0.245612 0.0815,0 0.12184,0.02144 0.12184,0.06463 0,0.03553 0.0265,0.106637 0.059,0.157941 0.0402,0.0636 0.0685,0.304882 0.0887,0.757533 0.0265,0.594878 0.0381,0.668773 0.1106,0.707564 0.0445,0.02382 0.0721,0.05769 0.0612,0.0753 -0.0109,0.01761 -0.0207,0.154015 -0.0219,0.303235 -10e-4,0.149209 -0.003,0.325194 -0.003,0.391082 -7.5e-4,0.06588 -0.0297,0.174565 -0.0643,0.24151 -0.0369,0.07126 -0.0638,0.239947 -0.0649,0.406671 -10e-4,0.156719 -0.004,0.33232 -0.005,0.390233 -0.0151,0.437103 0.0266,1.089656 0.0757,1.185189 0.0434,0.08442 0.0478,0.17065 0.0184,0.357998 -0.0213,0.135712 -0.0603,0.910097 -0.0867,1.72084 -0.0958,2.945389 -0.0853,2.746782 -0.15543,2.925181 -0.0224,0.05687 -0.0266,0.170577 -0.009,0.252697 0.0172,0.08214 0.0422,0.642091 0.0554,1.244355 0.0133,0.602263 0.0429,1.256121 0.0659,1.453019 0.0687,0.589441 0.0816,0.86764 0.0431,0.929954 -0.0228,0.03687 -0.0132,0.09457 0.0258,0.154015 0.0508,0.07748 0.0638,0.318503 0.0704,1.306017 0.007,1.035369 -0.002,1.247379 -0.064,1.462 -0.0925,0.321144 -0.0974,0.731741 -0.009,0.765602 0.0768,0.02942 0.0834,0.136468 0.0104,0.164549 -0.0374,0.01429 -0.0522,0.131683 -0.0504,0.398789 0.002,0.34593 -0.004,0.378455 -0.0783,0.378455 -0.0613,0 -0.0753,-0.02134 -0.0577,-0.08835 0.0127,-0.04858 0.005,-0.195458 -0.0161,-0.326406 -0.0216,-0.130937 -0.0412,-0.363457 -0.0438,-0.516695 -0.002,-0.153238 -0.0212,-0.304861 -0.0415,-0.33693 -0.0308,-0.04858 -0.0379,-0.04775 -0.0426,0.0052 -0.003,0.0347 -0.002,0.0811 0.002,0.10296 0.004,0.02186 0.007,0.201932 0.006,0.400104 -8.8e-4,0.198183 0.0174,0.529685 0.0407,0.736682 0.0591,0.525748 0.0905,2.901336 0.0402,3.03392 -0.0223,0.05852 -0.0692,0.106451 -0.10434,0.106451 -0.0351,0 -0.0875,0.03791 -0.11646,0.08421 -0.0327,0.05241 -0.0982,0.08421 -0.17333,0.08421 -0.0889,0 -0.11446,0.01636 -0.097,0.06184 0.0314,0.08193 -0.0457,0.126183 -0.11692,0.06712 -0.0638,-0.05293 -0.10837,0.02103 -0.10837,0.17989 -1e-5,0.08877 -0.24211,0.322957 -0.33382,0.322957 -0.0239,0 -0.0848,0.08059 -0.13546,0.178988 l -0.092,0.179 -0.0544,-0.126349 c -0.0299,-0.0695 -0.0553,-0.150038 -0.0563,-0.178999 -10e-4,-0.0289 -0.0298,-0.05262 -0.0639,-0.05262 -0.0394,0 -0.0873,0.08846 -0.13144,0.242174 -0.079,0.275661 -0.12487,0.347339 -0.22236,0.347743 -0.0777,3.42e-4 -0.25807,0.243116 -0.25807,0.347299 0,0.09674 -0.0687,0.128182 -0.29028,0.13277 -0.16959,0.0031 -0.1959,0.01668 -0.21768,0.109279 -0.0485,0.206002 -0.14156,0.374322 -0.23448,0.424052 -0.0519,0.02776 -0.1496,0.139441 -0.21721,0.248212 -0.10461,0.168268 -0.15367,0.206075 -0.32921,0.253619 -0.26465,0.07168 -0.3039,0.104462 -0.31967,0.267043 -0.0163,0.167574 -0.13352,0.183743 -0.15233,0.02103 -0.0104,-0.0898 -0.12778,-0.259772 -0.13662,-0.197768 -10e-4,0.0083 -0.0128,0.129104 -0.0258,0.267738 -0.0169,0.180822 -0.046,0.267778 -0.10306,0.30773 -0.0574,0.04019 -0.0795,0.107092 -0.0795,0.24034 0,0.200989 -0.0464,0.264847 -0.12433,0.170992 -0.0273,-0.03294 -0.10058,-0.05894 -0.16271,-0.0578 -0.0622,0.001 -0.13202,-0.0021 -0.15518,-0.0083 -0.10628,-0.02486 -0.13425,0.01346 -0.14106,0.193303 -0.009,0.258011 -0.0695,0.368564 -0.17013,0.314712 -0.10621,-0.05687 -0.17305,0.02248 -0.17362,0.205972 -7.9e-4,0.253816 -0.0497,0.465391 -0.10767,0.465391 -0.0312,0 -0.0607,-0.05904 -0.0682,-0.136531 z m 3.71412,-5.147116 c 0,-0.194246 -0.0838,-0.312226 -0.21893,-0.308383 -0.11149,0.0031 -0.12125,0.0144 -0.0976,0.112842 0.0145,0.06018 0.0584,0.132253 0.0977,0.160261 0.0392,0.02797 0.0903,0.06971 0.11352,0.0926 0.0706,0.06992 0.10529,0.05106 0.10529,-0.05738 z m -0.0712,-0.733004 c 0.0126,-0.13071 0.0177,-0.459747 0.0113,-0.731182 -0.0109,-0.458762 -0.0186,-0.499138 -0.10979,-0.57296 l -0.0981,-0.07945 0.0961,-0.204418 0.0961,-0.204418 -0.0876,-0.07095 -0.0876,-0.07095 0.0911,-0.06049 c 0.0519,-0.03449 0.0727,-0.07178 0.0484,-0.0868 -0.0234,-0.0145 -0.098,0.02486 -0.16566,0.08753 -0.10581,0.09788 -0.12252,0.143315 -0.11938,0.324417 0.002,0.115825 0.009,0.511102 0.0163,0.878412 0.009,0.498309 -6.7e-4,0.676034 -0.0398,0.700179 -0.0361,0.02237 -0.0383,0.04102 -0.007,0.06049 0.025,0.01543 0.0655,0.102442 0.0899,0.193324 0.0414,0.153777 0.0514,0.162095 0.14363,0.120061 0.0821,-0.03739 0.10306,-0.08597 0.12208,-0.282829 z m -0.40549,-0.224492 c -0.0135,-0.03356 -0.0234,-0.02362 -0.0255,0.02548 -0.002,0.04444 0.008,0.0693 0.0222,0.05531 0.014,-0.01398 0.0154,-0.05034 0.003,-0.08069 z m 0.31915,-2.261732 c 0.0251,-0.09581 -0.0275,-0.193925 -0.0848,-0.158469 -0.0463,0.02859 -0.0183,0.23804 0.0318,0.23804 0.0177,0 0.0416,-0.03584 0.0531,-0.07955 z m 1.6575,-1.333797 c -0.0129,-0.03335 -0.0412,-0.0607 -0.0631,-0.0607 -0.023,0 -0.0191,0.05521 0.009,0.130699 0.033,0.08804 0.0536,0.107859 0.0631,0.0607 0.007,-0.03853 0.004,-0.09726 -0.009,-0.130699 z m -2.00542,-0.03719 c 0,-0.01036 -0.019,-0.03025 -0.0422,-0.04464 -0.0232,-0.01429 -0.0422,-0.0062 -0.0422,0.01854 0,0.02455 0.019,0.04464 0.0422,0.04464 0.0232,0 0.0422,-0.0083 0.0422,-0.01854 z m 0.0632,-0.318358 c -0.0143,-0.0232 -0.0545,-0.04216 -0.0892,-0.04216 -0.0347,0 -0.0515,0.01895 -0.0372,0.04216 0.0143,0.0232 0.0545,0.04216 0.0892,0.04216 0.0347,0 0.0515,-0.01896 0.0372,-0.04216 z m -0.10058,-0.306932 c -0.0344,-0.03439 -0.0468,-0.02962 -0.0468,0.01771 0,0.08369 0.0567,0.140353 0.0776,0.07758 0.009,-0.02662 -0.005,-0.0695 -0.0308,-0.09529 z m 2.27264,-0.703867 c 0.0526,0 0.0499,-0.198856 -0.003,-0.231639 -0.0232,-0.01429 -0.0422,-0.103064 -0.0422,-0.197167 0,-0.151032 -0.008,-0.164664 -0.0664,-0.116043 -0.0448,0.03719 -0.0594,0.09716 -0.0448,0.184158 0.0118,0.07095 0.0356,0.214331 0.053,0.318575 0.0174,0.104234 0.0389,0.156356 0.048,0.115825 0.009,-0.0405 0.034,-0.07375 0.0555,-0.07375 z m -2.23526,-0.06567 c 0,-0.03615 -0.0193,-0.05376 -0.0428,-0.03915 -0.0235,0.0145 -0.0319,0.04412 -0.0185,0.06567 0.0362,0.05842 0.0613,0.04754 0.0613,-0.02641 z m 1.89525,-0.171976 c 0,-0.05852 -0.0204,-0.09954 -0.0453,-0.09126 -0.0249,0.0083 -0.0438,0.0288 -0.0422,0.04558 0.002,0.01678 0.003,0.0695 0.003,0.117254 0,0.04765 0.019,0.07499 0.0422,0.0607 0.0232,-0.0143 0.0422,-0.07385 0.0422,-0.132346 z m -0.0422,-0.35199 c 0,-0.0232 -0.0201,-0.04216 -0.0446,-0.04216 -0.0246,0 -0.0328,0.01896 -0.0186,0.04216 0.0143,0.0232 0.0344,0.04216 0.0445,0.04216 0.0104,0 0.0186,-0.01896 0.0186,-0.04216 z m -0.013,-0.241376 c -0.0107,-0.04102 -0.0201,-0.01761 -0.021,0.05179 -8.4e-4,0.0695 0.008,0.103063 0.0194,0.07448 0.0116,-0.02849 0.0122,-0.08535 0.002,-0.126349 z m 0.30922,-0.179797 c 0.0246,-0.634032 -0.002,-1.132041 -0.0646,-1.194304 -0.0348,-0.0347 -0.0632,-0.111909 -0.0632,-0.171468 0,-0.129332 -0.065,-0.14401 -0.097,-0.02186 -0.0247,0.09416 -0.0199,0.167025 0.048,0.734848 0.0249,0.208478 0.0573,0.50904 0.0721,0.667914 0.031,0.333221 0.0917,0.324468 0.10484,-0.01512 z m -0.3384,-0.128834 c 0,-0.02175 -0.019,-0.03967 -0.0422,-0.03967 -0.0232,0 -0.0422,0.02952 -0.0422,0.06567 0,0.03615 0.019,0.05397 0.0422,0.03967 0.0232,-0.01429 0.0422,-0.04381 0.0422,-0.06567 z m -0.1224,-0.852745 c -0.0333,-0.03335 -0.0461,-0.02237 -0.0461,0.03957 0,0.11134 0.0589,0.170444 0.0777,0.07789 0.008,-0.03926 -0.006,-0.09219 -0.0316,-0.117493 z m 0.36123,-0.601352 c 0.0343,-0.08939 -0.0696,-0.511962 -0.14039,-0.570692 -0.0461,-0.03822 -0.0563,0.0062 -0.0563,0.244804 0,0.270368 0.0424,0.392626 0.13609,0.392626 0.0193,0 0.0465,-0.03004 0.0606,-0.06671 z m -0.0703,-2.986708 c 0,-0.0347 -0.0285,-0.06319 -0.0632,-0.06319 -0.0658,0 -0.0836,0.04982 -0.0351,0.0983 0.0485,0.04848 0.0983,0.03066 0.0983,-0.03511 z m 0.021,-0.400684 c 0,-0.09032 -0.12239,-0.07727 -0.14013,0.01492 -0.0109,0.05625 0.006,0.07344 0.0626,0.06256 0.0427,-0.0083 0.0775,-0.04309 0.0775,-0.07748 z m 0.32058,10.72134 c -0.003,-0.174804 0.008,-0.237243 0.0395,-0.206438 0.0297,0.02973 0.0313,0.11163 0.005,0.250595 l -0.0395,0.206427 z m -0.0624,-0.749681 c -0.014,-0.0521 -0.0251,-0.151612 -0.0246,-0.221105 7.2e-4,-0.120185 0.004,-0.12236 0.0626,-0.04464 0.0669,0.08846 0.0855,0.360474 0.0247,0.360474 -0.0204,0 -0.0487,-0.04268 -0.0626,-0.09478 z"
       style="fill:#004dff;fill-opacity:1" />
    <path
       id="path6402-8"
       d="m 102.36128,96.976282 c -0.21935,-0.25058 -0.40792,-0.65238 -0.44192,-0.94165 -0.0159,-0.13509 -0.0574,-0.25827 -0.10398,-0.30823 -0.0748,-0.0803 -0.11781,-0.0882 -0.55928,-0.10162 -0.0768,-0.002 -0.14743,-0.0286 -0.1574,-0.0585 -0.01,-0.0299 -0.0544,-0.0842 -0.0987,-0.12082 -0.1455,-0.12013 -0.26495,-0.35027 -0.29493,-0.56829 -0.0162,-0.11788 -0.0615,-0.24533 -0.10065,-0.28322 -0.0392,-0.0379 -0.0906,-0.10503 -0.11443,-0.1492 -0.0238,-0.0442 -0.0856,-0.0808 -0.13744,-0.0813 -0.0609,-6.6e-4 -0.0997,-0.0294 -0.10982,-0.0813 -0.009,-0.0442 -0.0409,-0.0991 -0.0717,-0.12198 -0.0312,-0.0232 -0.0678,-0.15513 -0.0825,-0.29707 -0.0145,-0.14046 -0.042,-0.26504 -0.0611,-0.27685 -0.0191,-0.0118 -0.0347,0.007 -0.0347,0.0419 0,0.0349 -0.0183,0.0634 -0.0407,0.0634 -0.0224,0 -0.0421,-0.0869 -0.0438,-0.19314 -0.004,-0.2356 -0.0165,-0.30591 -0.0728,-0.40278 -0.0383,-0.0659 -0.0443,-0.0602 -0.0495,0.047 -0.003,0.0671 -0.003,0.154 0.001,0.19313 0.004,0.0391 -0.0113,0.0712 -0.0341,0.0712 -0.0521,0 -0.11987,-0.23824 -0.15029,-0.52859 -0.0291,-0.27733 -0.0909,-0.44726 -0.16285,-0.44726 -0.0362,0 -0.0525,0.0449 -0.0479,0.13215 0.0132,0.24945 -0.009,0.51842 -0.0436,0.51842 -0.0605,0 -0.13248,-0.32016 -0.13792,-0.61367 -0.005,-0.282 -0.0368,-0.37037 -0.0974,-0.27238 -0.0315,0.051 -0.0347,0.0767 -0.0482,0.38796 -0.008,0.17999 -0.0888,0.24729 -0.0888,0.0738 0,-0.15699 -0.0793,-0.33604 -0.11977,-0.27052 -0.0517,0.0836 -0.12419,0.0131 -0.12419,-0.1208 0,-0.0787 -0.0207,-0.11958 -0.0605,-0.11958 -0.0332,0 -0.0872,-0.064 -0.11991,-0.14231 -0.0327,-0.0783 -0.0712,-0.14231 -0.0856,-0.14231 -0.0144,0 -0.10171,0.0647 -0.19412,0.14381 -0.28386,0.24297 -0.44732,0.22889 -0.4983,-0.0429 l -0.0253,-0.13488 -0.21961,0.0227 -0.21962,0.0227 -0.0253,-0.12675 c -0.0139,-0.0697 -0.0506,-0.14769 -0.0814,-0.17329 -0.0308,-0.0256 -0.0561,-0.0713 -0.0561,-0.10156 0,-0.0422 -0.0242,-0.0458 -0.10429,-0.0154 -0.14177,0.0539 -0.13842,0.0554 -0.18642,-0.0823 -0.0474,-0.1361 -0.132,-0.15862 -0.19214,-0.0512 -0.0631,0.11279 -0.10241,0.0254 -0.0478,-0.10643 0.0363,-0.0876 0.039,-0.1884 0.01,-0.37741 -0.0217,-0.14183 -0.0314,-0.27149 -0.0215,-0.28812 0.0376,-0.063 0.008,-1.77811 -0.042,-2.40937 -0.0123,-0.15654 -0.0315,-0.68716 -0.0427,-1.17915 -0.021,-0.92665 -0.0442,-1.51078 -0.0904,-2.27698 -0.0148,-0.24599 -0.0317,-0.62108 -0.0375,-0.83353 -0.006,-0.21245 -0.0199,-0.48691 -0.0313,-0.60991 -0.0114,-0.12299 -0.0321,-0.96466 -0.046,-1.87037 -0.0294,-1.91514 -0.0555,-2.99509 -0.0819,-3.39514 -0.0224,-0.33886 -0.0692,-1.35668 -0.0664,-1.44344 0.0126,-0.38867 10e-4,-1.04518 -0.0195,-1.11299 -0.0145,-0.0476 -0.0541,-0.11817 -0.0881,-0.1569 -0.0454,-0.0517 -0.0551,-0.11946 -0.0365,-0.25474 0.016,-0.11651 0.004,-0.2477 -0.0328,-0.35653 -0.0381,-0.11302 -0.0508,-0.263 -0.037,-0.43647 0.0397,-0.49917 0.0461,-0.97698 0.0133,-0.99725 -0.0452,-0.0279 -0.0106,-0.57089 0.0427,-0.67043 0.0309,-0.0578 0.03,-0.10532 -0.003,-0.16721 -0.0352,-0.0658 -0.0345,-0.0938 0.003,-0.11695 0.0334,-0.0207 0.0403,-0.0834 0.0215,-0.19508 -0.0154,-0.0913 -0.01,-0.19858 0.013,-0.24085 0.0471,-0.088 -0.006,-0.61822 -0.066,-0.65736 -0.0752,-0.0492 -0.13129,-0.20576 -0.13129,-0.36662 0,-0.14204 0.0168,-0.17296 0.12414,-0.22847 0.0683,-0.0353 0.15977,-0.0998 0.20331,-0.14335 0.0435,-0.0435 0.1023,-0.0792 0.13058,-0.0792 0.0283,0 0.1152,-0.034 0.19314,-0.0755 0.0779,-0.0415 0.2263,-0.0881 0.32968,-0.10337 0.16597,-0.0246 0.20298,-0.0152 0.31613,0.08 0.10457,0.088 0.15229,0.10264 0.25929,0.0796 0.146,-0.0314 0.31365,-0.0386 0.49708,-0.0213 0.22078,0.0209 0.76682,-0.0439 1.09782,-0.13016 0.56341,-0.14686 1.80188,-0.10122 2.33797,0.0862 0.0559,0.0195 0.21143,0.067 0.34561,0.10554 0.13418,0.0385 0.26752,0.0997 0.29632,0.13601 0.0288,0.0363 0.11113,0.0937 0.18297,0.12756 l 0.13062,0.0616 0.0257,0.49998 c 0.0199,0.38783 0.0402,0.5109 0.0903,0.54866 0.0561,0.0423 0.0597,0.10233 0.0271,0.45528 -0.0206,0.22363 -0.0747,0.57128 -0.12008,0.77255 -0.10747,0.47652 -0.10723,0.54891 0.002,0.54891 0.0673,0 0.0785,0.0153 0.0522,0.0712 -0.0556,0.11812 -0.0527,0.85677 0.005,1.31129 0.0299,0.23481 0.0564,0.65404 0.059,0.93161 0.003,0.27757 0.0117,0.51611 0.0203,0.53007 0.009,0.014 0.0273,0.473 0.0415,1.02008 0.0338,1.30351 0.0482,1.62533 0.10025,2.23709 0.0429,0.50424 0.0235,0.76433 -0.0765,1.02707 -0.0503,0.13211 -0.0577,0.33961 -0.0131,0.36716 0.0168,0.0104 0.0253,0.1258 0.0189,0.25653 -0.006,0.13073 -0.0118,0.27428 -0.0119,0.31901 0,0.0447 -4e-4,0.246 -5.2e-4,0.44726 -4.1e-4,0.63218 -0.0153,0.85138 -0.0634,0.93305 -0.0295,0.0501 -0.0338,0.11306 -0.0117,0.17129 0.0214,0.0561 0.0175,0.14232 -0.01,0.2207 -0.0364,0.10437 -0.0321,0.15009 0.0226,0.24269 0.0428,0.0725 0.0523,0.12339 0.0261,0.13961 -0.0618,0.0382 -0.0498,0.27859 0.0184,0.36873 0.0687,0.0908 0.0821,0.28918 0.0209,0.30959 -0.0228,0.008 -0.0529,0.11076 -0.0669,0.22927 -0.0233,0.19689 -0.018,0.21744 0.0617,0.23829 0.10282,0.0269 0.12582,0.21664 0.0263,0.21664 -0.0457,0 -0.061,0.0488 -0.061,0.19517 0,0.10734 -0.0159,0.21255 -0.0354,0.23379 -0.0824,0.0899 -0.0844,0.24606 -0.004,0.31487 0.095,0.0813 0.10478,0.24223 0.0191,0.31333 -0.0756,0.0627 -0.0787,0.17979 -0.007,0.25177 0.0299,0.0299 0.0551,0.11807 0.0561,0.19604 10e-4,0.078 0.0212,0.22411 0.0449,0.32474 0.047,0.20009 0.11868,0.61823 0.14985,0.8742 0.0377,0.30948 0.0674,1.42687 0.0621,2.33796 -0.0106,1.84274 -0.0112,2.54574 -0.002,2.74457 0.005,0.11182 0.002,0.59324 -0.007,1.06983 -0.009,0.47659 -7e-4,0.8763 0.0187,0.88825 0.0193,0.0119 0.03,0.0611 0.0238,0.10932 -0.006,0.0482 0.003,0.11009 0.0198,0.13758 0.0171,0.0275 0.0135,0.0829 -0.008,0.12304 -0.0468,0.0875 0.0112,0.21325 0.0983,0.21325 0.0744,0 0.0748,0.0596 0.001,0.19703 -0.0318,0.0594 -0.0678,0.13994 -0.08,0.17908 -0.0122,0.0391 -0.0594,0.0712 -0.10483,0.0712 -0.0789,0 -0.0827,0.0247 -0.084,0.55907 -9.4e-4,0.36284 -0.0188,0.5886 -0.0508,0.64317 -0.0473,0.0806 -0.0565,0.076 -0.222,-0.11311 z m -1.93427,-2.76383 c -0.013,-0.0324 -0.0226,-0.0228 -0.0246,0.0246 -0.002,0.0429 0.008,0.0669 0.0214,0.0534 0.0135,-0.0135 0.015,-0.0486 0.003,-0.0779 z m 2.16788,-5.44857 c 0,-0.25024 -0.0182,-0.55672 -0.0404,-0.68106 -0.0222,-0.12435 -0.0641,-0.38946 -0.093,-0.58914 -0.0289,-0.19968 -0.0733,-0.36998 -0.0987,-0.37843 -0.0311,-0.0104 -0.0399,0.035 -0.0269,0.13942 0.0244,0.19675 0.0499,0.56563 0.092,1.33395 0.0184,0.33545 0.0361,0.61448 0.0393,0.62007 0.003,0.006 0.0332,0.0102 0.0668,0.0102 0.0506,0 0.061,-0.0777 0.061,-0.45498 z m -0.27715,-3.38314 c 0.008,-0.0978 -0.006,-0.16498 -0.0365,-0.1757 -0.0351,-0.0124 -0.0469,0.0414 -0.0407,0.18679 0.01,0.23272 0.0579,0.22582 0.0772,-0.01109 z m -0.0289,-0.48204 c -0.0302,-0.1831 -0.0465,-0.22006 -0.0816,-0.18501 -0.0354,0.0354 0.0287,0.35782 0.0711,0.35782 0.0233,0 0.0275,-0.0697 0.0105,-0.17281 z m 0.35591,2.15751 c 0.0251,-0.0754 0.11266,-0.0879 0.11266,-0.0161 0,0.0354 -0.029,0.0644 -0.0644,0.0644 -0.0354,0 -0.0571,-0.0217 -0.0483,-0.0483 z"
       style="fill:#ff8c00;fill-opacity:1" />
    <path
       id="path6402-9"
       d="m 95.844144,90.809813 c -0.247492,-0.319312 -0.432094,-0.705986 -0.486112,-1.018209 -0.0324,-0.187286 -0.05515,-0.216082 -0.285401,-0.36111 -0.217306,-0.136888 -0.258728,-0.18542 -0.315142,-0.369271 l -0.06496,-0.211667 -0.09128,0.113967 c -0.07254,0.09056 -0.111009,0.106654 -0.187369,0.07834 -0.172027,-0.06382 -0.205252,-0.188231 -0.184065,-0.689267 0.01592,-0.376419 0.005,-0.503032 -0.05836,-0.67674 -0.04387,-0.120274 -0.08714,-0.386021 -0.09898,-0.607882 -0.02569,-0.481533 -0.03946,-0.539332 -0.06766,-0.284101 -0.02057,0.186171 -0.02979,0.197716 -0.171138,0.214386 -0.102282,0.012 -0.130438,0.02879 -0.08928,0.05296 0.04695,0.02758 0.02967,0.07163 -0.07888,0.200975 -0.110344,0.131526 -0.133284,0.191212 -0.111297,0.289601 0.02291,0.102573 0.01298,0.124272 -0.05758,0.125857 -0.05578,0.0013 -0.09615,-0.03764 -0.1167,-0.112383 l -0.03144,-0.114289 -0.07536,0.104673 -0.07536,0.104674 -0.03182,-0.115708 c -0.02477,-0.09009 -0.06206,-0.117988 -0.1683,-0.125996 -0.167671,-0.01265 -0.34058,-0.234471 -0.345263,-0.442933 -0.0026,-0.115398 -0.02702,-0.150109 -0.135165,-0.192079 -0.0726,-0.02819 -0.132382,-0.06814 -0.132844,-0.08873 -4.63e-4,-0.02059 -0.05016,-0.04865 -0.110444,-0.06242 -0.09069,-0.0206 -0.110191,-0.05116 -0.113016,-0.176925 -0.0036,-0.158918 -0.150994,-0.402072 -0.242529,-0.400016 -0.03501,7.87e-4 -0.05755,-0.08742 -0.06617,-0.258807 -0.0072,-0.143003 -0.04537,-0.360464 -0.08485,-0.483261 -0.03949,-0.122796 -0.06287,-0.238435 -0.05197,-0.256991 0.03262,-0.05555 -0.118623,-0.149553 -0.236331,-0.146909 -0.09514,0.0021 -0.117823,-0.02632 -0.170661,-0.21426 -0.03352,-0.119186 -0.07666,-0.346083 -0.09589,-0.504198 -0.02869,-0.235963 -0.05843,-0.311511 -0.165991,-0.421537 -0.07207,-0.07368 -0.149665,-0.133624 -0.172427,-0.133112 -0.02276,5.11e-4 -0.04374,-0.103714 -0.04661,-0.231582 -0.0029,-0.127878 -0.01834,-0.245046 -0.03438,-0.260368 -0.01603,-0.0153 -0.08658,0.03498 -0.156759,0.111812 l -0.12761,0.13968 -0.08372,-0.154531 c -0.07939,-0.146541 -0.107687,-0.381537 -0.176619,-1.466486 -0.0068,-0.107794 -0.0462,-0.268728 -0.08743,-0.35763 -0.0669,-0.144194 -0.0689,-0.18739 -0.01849,-0.400233 0.05523,-0.23344 0.106729,-0.571793 0.153664,-1.009689 0.01288,-0.12023 0.04348,-0.25831 0.06798,-0.306843 0.04947,-0.09798 0.08281,-0.260867 0.165908,-0.810644 0.03092,-0.204595 0.09371,-0.520054 0.139513,-0.700998 0.04581,-0.180944 0.09907,-0.413053 0.118377,-0.515781 0.05127,-0.27288 0.104291,-0.357732 0.208107,-0.333065 0.06539,0.01559 0.08781,1.28e-4 0.08643,-0.06105 -0.001,-0.04514 0.06298,-0.358007 0.14221,-0.695246 0.152133,-0.64756 0.227157,-1.170123 0.187843,-1.30836 -0.01299,-0.04562 0.01114,-0.134543 0.05361,-0.197479 0.111874,-0.165769 0.147954,-0.62687 0.05593,-0.714846 -0.09218,-0.08814 -0.09019,-0.152413 0.01009,-0.325517 0.07396,-0.127662 0.09496,-0.138625 0.196648,-0.102572 0.0626,0.02219 0.130737,0.03997 0.151388,0.03951 0.02066,-4.64e-4 0.180136,-0.226721 0.354414,-0.502804 0.259746,-0.411472 0.497784,-0.695188 1.320409,-1.573824 l 1.003539,-1.071873 0.249686,-0.03468 c 0.284291,-0.03943 0.502657,0.01402 0.466707,0.114422 -0.02707,0.07559 0.108596,0.15496 0.259084,0.151579 0.06684,-0.0015 0.126387,0.03642 0.165263,0.105328 0.03343,0.05921 0.07489,0.107359 0.09216,0.106971 0.01727,-3.88e-4 0.04637,0.07255 0.06469,0.162114 0.01832,0.08959 0.07659,0.194865 0.129457,0.234033 0.09105,0.06747 0.13156,0.25765 0.132414,0.621517 3.36e-4,0.184133 0.0611,2.412649 0.07348,2.702594 0.01759,0.408834 0.01146,2.61506 -0.0085,3.053367 -0.0087,0.192105 -0.0222,0.506454 -0.02993,0.698536 -0.0077,0.192094 -0.02756,0.447694 -0.04407,0.568017 -0.01651,0.120311 -0.0255,0.306982 -0.01998,0.414805 0.0055,0.107834 -0.01324,0.246389 -0.04169,0.307926 -0.08676,0.187646 -0.0709,0.732925 0.02816,0.968381 0.07391,0.175627 0.07902,0.226155 0.03523,0.348141 -0.07363,0.205148 -0.100508,0.802126 -0.04132,0.918151 0.105873,0.207563 0.134434,0.36638 0.111048,0.617566 -0.01343,0.144239 -0.01568,0.284665 -0.005,0.312058 0.0107,0.02744 -0.0063,0.273115 -0.0378,0.546056 -0.03147,0.272939 -0.05144,0.684001 -0.04438,0.913478 0.0141,0.458472 0.0729,0.64759 0.112605,0.362043 0.01315,-0.09459 0.03403,-0.221282 0.04641,-0.281525 l 0.02249,-0.109557 0.04292,0.129896 c 0.02361,0.07145 0.03233,0.228254 0.01937,0.348497 -0.02471,0.22945 -0.03728,0.478452 -0.05214,1.03296 -0.0076,0.284816 -0.02566,0.354904 -0.122166,0.474974 -0.142956,0.17785 -0.147892,0.50665 -0.01195,0.796211 0.06818,0.145237 0.101026,0.335732 0.131493,0.762588 0.0385,0.539493 0.0358,0.576069 -0.05207,0.705524 -0.129548,0.19086 -0.147483,0.529908 -0.05132,0.969952 0.08981,0.410955 0.147628,1.001891 0.112958,1.154491 -0.04493,0.197745 -0.202806,0.133325 -0.447766,-0.182729 z M 93.7656,86.891245 c 0.05349,-0.02191 0.0565,-0.03613 0.0131,-0.06155 -0.03468,-0.02036 -0.05703,-0.119185 -0.05805,-0.256587 -9.61e-4,-0.122911 -0.01384,-0.210724 -0.02871,-0.195157 -0.01489,0.01557 -0.02353,0.03153 -0.0192,0.0354 0.0044,0.0042 -0.01353,0.115524 -0.03968,0.248055 -0.02615,0.132531 -0.03849,0.289822 -0.02743,0.349548 l 0.02011,0.10859 0.03518,-0.09991 c 0.01935,-0.05493 0.06646,-0.112701 0.104671,-0.128363 z m -0.05858,-1.52081 c -8.4e-4,-0.03742 -0.02087,-0.05541 -0.04451,-0.04009 -0.02364,0.01533 -0.04258,0.04634 -0.04207,0.06895 5.06e-4,0.02251 0.02055,0.04063 0.04452,0.04009 0.02397,-5.38e-4 0.0429,-0.03154 0.04206,-0.06895 z m 2.874841,3.703513 c -0.0068,-0.29629 0.01681,-0.429215 0.07652,-0.430557 0.01837,-4.12e-4 0.04546,0.10078 0.06019,0.224915 0.02041,0.171841 0.0082,0.257943 -0.05161,0.361001 l -0.07841,0.135336 -0.0067,-0.290694 z m -2.784235,-1.611945 c -8.4e-4,-0.03742 0.01837,-0.0563 0.04267,-0.04204 0.02431,0.01426 0.04462,0.04437 0.04513,0.06699 5.08e-4,0.02262 -0.0187,0.0415 -0.04268,0.04204 -0.02397,5.38e-4 -0.04427,-0.02957 -0.04512,-0.06699 z m 0.09278,-0.28396 c -0.0047,-0.04838 0.01007,-0.07704 0.03291,-0.06361 0.05025,0.02955 0.05824,0.14972 0.01,0.150804 -0.01886,4.24e-4 -0.03819,-0.03883 -0.04294,-0.08722 z m 2.679671,-0.822546 c -0.0047,-0.0959 0.0099,-0.204136 0.03238,-0.240629 0.03202,-0.0521 0.04035,-0.04285 0.03875,0.04279 -0.0012,0.05999 -0.0157,0.168275 -0.03238,0.240618 -0.02923,0.1267 -0.03065,0.125135 -0.03875,-0.04278 z m 0.07009,-0.524983 c -0.0021,-0.02398 -0.02962,-0.298107 -0.06094,-0.609262 -0.07221,-0.717289 -0.132766,-1.922656 -0.10452,-2.080357 0.05042,-0.281583 0.102735,-0.08491 0.115306,0.433575 0.0121,0.499086 0.06801,1.187081 0.148702,1.829894 0.01991,0.158657 0.0098,0.266756 -0.03285,0.34967 -0.03393,0.06598 -0.06348,0.100441 -0.06568,0.07645 z m -5.30856,-0.493658 c -0.03623,-0.171709 -0.0033,-0.339246 0.05933,-0.302422 0.05243,0.03079 0.06209,0.398041 0.01128,0.43101 -0.02105,0.01367 -0.05285,-0.04418 -0.07066,-0.128587 z m 5.182553,-3.01463 c -0.01423,-0.179596 -0.01779,-0.444498 -0.0079,-0.588656 0.01659,-0.242516 0.02014,-0.22953 0.04752,0.173978 0.01628,0.239847 0.01994,0.504735 0.0079,0.588645 -0.01634,0.115373 -0.02793,0.07292 -0.04752,-0.173967 z m -0.106712,-1.876932 c -0.0167,-0.02569 -0.0091,-0.06909 0.01707,-0.09629 0.03483,-0.0364 0.048,-0.02414 0.04958,0.0463 0.0024,0.105287 -0.01991,0.121997 -0.06665,0.05009 z"
       style="fill:#e40303;fill-opacity:1" />
    <path
       id="path6402-2"
       d="m 121.42244,91.207654 c -0.0446,-0.0722 -0.0207,-1.15724 0.0286,-1.29509 0.0194,-0.0544 0.009,-0.14317 -0.0277,-0.23048 -0.0326,-0.0781 -0.0506,-0.15075 -0.0398,-0.16147 0.0107,-0.0107 0.0276,-0.26381 0.0375,-0.5624 0.01,-0.29859 0.0261,-0.70757 0.036,-0.90884 0.011,-0.22269 -4e-4,-0.41264 -0.0286,-0.48524 -0.0357,-0.0913 -0.0352,-0.12311 0.002,-0.13554 0.0689,-0.023 0.0606,-0.17009 -0.0112,-0.19763 -0.0853,-0.0327 -0.078,-0.62071 0.011,-0.88932 0.0879,-0.26545 0.0963,-1.03218 0.0123,-1.13344 -0.0493,-0.0594 -0.0474,-0.0755 0.0138,-0.12028 0.0644,-0.047 0.0649,-0.0565 0.006,-0.10535 -0.0879,-0.073 -0.0836,-0.19882 0.006,-0.19167 0.0534,0.004 0.074,-0.0299 0.0826,-0.13666 0.008,-0.0973 -4.1e-4,-0.12459 -0.0259,-0.0863 -0.0206,0.0308 -0.0578,0.0435 -0.0826,0.0281 -0.0588,-0.0364 -0.06,-0.47041 -0.001,-0.47041 0.0273,0 0.0341,0.0447 0.0179,0.11811 -0.016,0.0726 -0.008,0.12944 0.0216,0.14752 0.0772,0.0477 0.12015,-0.0694 0.0974,-0.26563 -0.0117,-0.10063 -0.0276,-0.29036 -0.0354,-0.42162 -0.008,-0.13397 -0.0367,-0.25256 -0.0655,-0.27036 -0.0324,-0.02 -0.0395,-0.0594 -0.0192,-0.10695 0.0358,-0.084 0.0522,-0.41481 0.0205,-0.41264 -0.0876,0.006 -0.10945,-0.0313 -0.11186,-0.19043 -0.002,-0.16089 0.004,-0.17515 0.0575,-0.12198 0.0858,0.0858 0.0926,0.0782 0.0831,-0.0923 -0.007,-0.11733 -0.0249,-0.15118 -0.0796,-0.14683 -0.0489,0.004 -0.0711,-0.0239 -0.0711,-0.0891 0,-0.0521 0.0149,-0.10397 0.0332,-0.11526 0.0183,-0.0113 0.0279,-0.20907 0.0213,-0.4395 -0.007,-0.23043 0.006,-0.5379 0.0272,-0.68326 0.0215,-0.14536 0.0463,-0.33748 0.055,-0.42693 0.009,-0.0895 0.0292,-0.19466 0.0456,-0.2338 0.0179,-0.0428 0.0118,-0.0712 -0.0153,-0.0712 -0.0261,0 -0.045,-0.0756 -0.045,-0.18023 0,-0.14622 0.0158,-0.18524 0.0837,-0.20679 0.0978,-0.031 0.0958,-0.20239 -0.002,-0.20281 -0.05,-2e-4 -0.058,-0.0517 -0.0444,-0.28462 0.009,-0.1564 0.0185,-0.41244 0.0209,-0.56899 0.004,-0.28896 0.0392,-0.40655 0.10781,-0.36413 0.0479,0.0296 0.0281,-0.0971 -0.0322,-0.20654 -0.0292,-0.0531 -0.0372,-0.20476 -0.0223,-0.42289 0.0191,-0.2791 0.0321,-0.3281 0.0724,-0.27303 0.027,0.0369 0.0608,0.0671 0.0751,0.0671 0.0573,0 0.0212,-0.19852 -0.0534,-0.29329 -0.0722,-0.0919 -0.0791,-0.16472 -0.0755,-0.80853 0.003,-0.51822 0.0187,-0.73167 0.0591,-0.79762 0.0303,-0.0495 0.0551,-0.16729 0.0551,-0.26167 0,-0.11782 0.0265,-0.19982 0.0845,-0.26158 0.0805,-0.0857 0.0814,-0.096 0.018,-0.21857 -0.0544,-0.10513 -0.0581,-0.15401 -0.0206,-0.26758 0.0252,-0.0764 0.0549,-0.31775 0.0659,-0.53626 0.011,-0.21852 0.0366,-0.56198 0.0568,-0.76325 0.0202,-0.20126 0.042,-0.43913 0.0482,-0.52858 0.009,-0.12984 0.0375,-0.18099 0.1407,-0.25362 0.13301,-0.0936 0.1509,-0.129 0.19356,-0.38269 0.0137,-0.0816 0.0527,-0.204 0.0866,-0.27197 0.0339,-0.068 0.0682,-0.23907 0.0763,-0.3802 0.008,-0.14114 0.0276,-0.30734 0.0436,-0.36934 0.0231,-0.0901 0.008,-0.13396 -0.0767,-0.21837 -0.0581,-0.0581 -0.0957,-0.12174 -0.0836,-0.1414 0.0366,-0.0592 0.22993,-0.0406 0.47512,0.0456 0.12726,0.0447 0.2547,0.0813 0.28321,0.0813 0.0285,0 0.15248,0.0542 0.27548,0.12036 0.14915,0.0803 0.28389,0.1209 0.4046,0.12197 0.16607,10e-4 0.19968,0.0209 0.40789,0.23542 0.2106,0.21698 0.23326,0.25956 0.31514,0.59213 0.0627,0.25468 0.13102,0.41791 0.23619,0.5643 0.0814,0.11328 0.1831,0.28137 0.22603,0.37355 0.0429,0.0922 0.1324,0.24992 0.19881,0.35055 0.0664,0.10064 0.1383,0.22245 0.15978,0.27069 0.0221,0.0497 0.093,0.0996 0.16345,0.11505 0.10346,0.0227 0.12442,0.0469 0.12442,0.14377 0,0.12623 0.12426,0.24304 0.25851,0.24304 0.0428,0 0.12128,-0.0469 0.17444,-0.1043 0.12088,-0.13043 0.29566,-0.12247 0.36462,0.0166 0.026,0.0524 0.10417,0.1299 0.17375,0.17221 0.15084,0.0917 0.16461,0.21698 0.0453,0.4126 -0.10449,0.17137 -0.10349,0.35845 0.003,0.49336 0.0991,0.12592 0.15395,0.29732 0.18193,0.56798 0.0112,0.10798 0.0642,0.32188 0.11777,0.47533 0.0536,0.15345 0.10238,0.34871 0.10835,0.43391 0.006,0.0852 0.0546,0.2321 0.10811,0.32646 0.0588,0.1037 0.0873,0.20287 0.0721,0.25071 -0.0138,0.0435 -0.006,0.0909 0.0172,0.10529 0.0233,0.0144 0.0423,0.0777 0.0423,0.14062 0,0.063 0.025,0.18539 0.0555,0.27206 0.0305,0.0867 0.0689,0.31988 0.0854,0.51823 0.0254,0.30585 0.0417,0.36372 0.10718,0.38085 0.0894,0.0234 0.0868,0.0122 0.0992,0.43766 0.005,0.1789 0.0284,0.38017 0.0515,0.44726 0.085,0.24668 0.11222,0.45063 0.0788,0.58957 -0.0188,0.0783 -0.0379,0.42592 -0.0422,0.77255 -0.007,0.5645 4.1e-4,0.64241 0.0709,0.74698 0.0769,0.11385 0.077,0.11812 0.003,0.17233 -0.067,0.049 -0.0696,0.0676 -0.0219,0.15678 0.0484,0.0904 0.0593,0.0941 0.10249,0.0351 0.0419,-0.0574 0.0516,-0.0498 0.0731,0.0577 0.0418,0.20921 -0.01,0.41078 -0.10863,0.42489 -0.0904,0.0129 -0.0945,0.0348 -0.10372,0.55263 -0.003,0.16479 -0.009,0.1737 -0.11356,0.16264 -0.10351,-0.011 -0.11241,0.001 -0.14183,0.1916 -0.0173,0.11181 -0.0206,0.25531 -0.007,0.31888 0.02,0.0969 0.0118,0.11322 -0.0513,0.10098 -0.0414,-0.008 -0.077,-0.0417 -0.0791,-0.0749 -0.002,-0.0332 -0.0175,-0.0915 -0.0341,-0.12953 -0.0166,-0.0381 -0.0206,-0.0847 -0.009,-0.10359 0.0117,-0.0189 0.005,-0.0601 -0.0141,-0.0916 -0.0299,-0.0483 -0.0512,-0.0487 -0.13748,-0.003 -0.13657,0.0731 -0.15949,0.14917 -0.081,0.2689 0.0615,0.0939 0.06,0.10356 -0.0261,0.17333 -0.0849,0.0687 -0.0885,0.09 -0.0518,0.30303 0.0454,0.26335 0.0238,0.31998 -0.12512,0.32861 -0.0684,0.004 -0.10694,0.0297 -0.10696,0.0713 0,0.10073 -0.22765,0.32123 -0.27879,0.27009 -0.0294,-0.0294 -0.0412,-0.0187 -0.0385,0.0348 0.002,0.0425 -0.0285,0.24833 -0.068,0.45746 -0.0479,0.25327 -0.0655,0.49049 -0.0528,0.71036 0.0166,0.28641 0.006,0.35965 -0.0795,0.55314 -0.0542,0.12266 -0.1353,0.27451 -0.1801,0.33743 -0.0787,0.11045 -0.0903,0.11351 -0.33621,0.0883 -0.23164,-0.0237 -0.26267,-0.0176 -0.34228,0.0679 -0.0481,0.0517 -0.0875,0.10667 -0.0875,0.12219 0,0.0155 -0.0961,0.0767 -0.21347,0.13595 -0.2121,0.10703 -0.55908,0.48184 -0.55908,0.60391 0,0.0673 -0.16817,0.23309 -0.23642,0.23309 -0.0265,0 -0.0482,0.0346 -0.0482,0.077 0,0.0423 -0.0262,0.087 -0.0581,0.0993 -0.032,0.0123 -0.0706,0.10543 -0.0858,0.20702 -0.0224,0.1495 -0.0586,0.21002 -0.18966,0.31749 -0.30746,0.25207 -0.52753,0.4877 -0.59492,0.637 -0.0849,0.18799 -0.40362,0.48264 -0.70475,0.65143 -0.16089,0.0902 -0.24316,0.16545 -0.27234,0.24916 -0.023,0.066 -0.0601,0.11995 -0.0825,0.11995 -0.0224,0 -0.0965,0.11689 -0.16467,0.25975 -0.10856,0.22747 -0.14096,0.26294 -0.26078,0.28542 -0.0752,0.0141 -0.16961,0.0619 -0.2097,0.10619 -0.076,0.0839 -0.16264,0.10448 -0.19819,0.047 z m -0.0801,-5.31324 c 0.0129,-0.0336 0.0306,-0.061 0.0394,-0.061 0.009,0 0.016,0.0274 0.016,0.061 0,0.0335 -0.0177,0.061 -0.0394,0.061 -0.0217,0 -0.0289,-0.0274 -0.016,-0.061 z m 5.3456,-0.27947 c -0.0601,-0.0725 -0.0151,-0.18813 0.0733,-0.18813 0.0983,0 0.16036,0.0754 0.13665,0.16607 -0.0237,0.0905 -0.14272,0.10302 -0.20991,0.0221 z m 0.3447,-0.58029 c -0.0347,-0.0904 -0.0315,-0.0958 0.0576,-0.0958 0.0447,0 0.0813,0.0255 0.0813,0.0566 0,0.0813 -0.11078,0.1125 -0.13894,0.0391 z m 0.32554,-0.65484 c -0.0333,-0.10671 0.0795,-0.39427 0.16101,-0.41072 0.0596,-0.012 0.0667,0.006 0.0446,0.1169 -0.0144,0.0721 -0.0262,0.18378 -0.0262,0.24808 0,0.0884 -0.0191,0.1169 -0.0786,0.1169 -0.0432,0 -0.0886,-0.032 -0.10077,-0.0712 z"
       style="fill:#750787;fill-opacity:1" />
  </g>
</svg>
