<?xml version="1.0" encoding="UTF-8" standalone="no"?>
<!-- Created with Inkscape (http://www.inkscape.org/) -->

<svg
   xmlns:dc="http://purl.org/dc/elements/1.1/"
   xmlns:cc="http://creativecommons.org/ns#"
   xmlns:rdf="http://www.w3.org/1999/02/22-rdf-syntax-ns#"
   xmlns:svg="http://www.w3.org/2000/svg"
   xmlns="http://www.w3.org/2000/svg"
   xmlns:sodipodi="http://sodipodi.sourceforge.net/DTD/sodipodi-0.dtd"
   xmlns:inkscape="http://www.inkscape.org/namespaces/inkscape"
   width="52.000008mm"
   height="52mm"
   viewBox="0 0 184.252 184.25197"
   id="svg3495"
   version="1.1"
   inkscape:version="0.91 r13725"
   sodipodi:docname="geheimorga-herz.svg">
  <defs
     id="defs3497" />
  <sodipodi:namedview
     id="base"
     pagecolor="#ffffff"
     bordercolor="#666666"
     borderopacity="1.0"
     inkscape:pageopacity="0.0"
     inkscape:pageshadow="2"
     inkscape:zoom="2"
     inkscape:cx="15.394012"
     inkscape:cy="27.325574"
     inkscape:document-units="px"
     inkscape:current-layer="layer1"
     showgrid="false"
     fit-margin-top="0"
     fit-margin-left="0"
     fit-margin-right="0"
     fit-margin-bottom="0"
     inkscape:window-width="1914"
     inkscape:window-height="1029"
     inkscape:window-x="0"
     inkscape:window-y="22"
     inkscape:window-maximized="0" />
  <metadata
     id="metadata3500">
    <rdf:RDF>
      <cc:Work
         rdf:about="">
        <dc:format>image/svg+xml</dc:format>
        <dc:type
           rdf:resource="http://purl.org/dc/dcmitype/StillImage" />
        <dc:title></dc:title>
      </cc:Work>
    </rdf:RDF>
  </metadata>
  <g
     inkscape:label="Layer 1"
     inkscape:groupmode="layer"
     id="layer1"
     transform="translate(-699.78252,229.90945)">
    <path
       style="fill:#750787"
       d="m 831.23227,-226.24398 c -9.51813,0.80917 -18.41757,5.65703 -25.3625,12.31091 -6.14532,5.88993 -10.93082,13.24131 -13.86897,21.28447 l -0.20029,0 c -2.94276,-8.04084 -7.73763,-15.37952 -13.88726,-21.26593 -6.94828,-6.65007 -15.84317,-11.48933 -25.36255,-12.29236 -10.37993,-0.87591 -20.85091,3.15702 -28.8709,9.9006 -5.3975,4.53842 -9.76949,10.25717 -13.19295,16.46398 -5.84592,10.59817 -8.93848,23.22781 -6.08494,35.02298 1.57599,6.51181 4.8839,12.48596 8.84398,17.85451 5.86147,7.94654 13.13843,14.67227 20.3012,21.43281 9.16944,8.65453 18.22393,17.47681 26.45892,27.050577 12.76874,14.84558 23.52184,31.481302 31.84934,49.280644 l 0.18451,-0.0198 c 8.31589,-17.805661 19.05456,-34.445065 31.81277,-49.299177 8.22798,-9.579214 17.27591,-18.389844 26.44073,-27.050584 7.15817,-6.76526 14.44548,-13.50112 20.30095,-21.45134 3.9565,-5.37116 7.25449,-11.34135 8.8259,-17.8545 2.84607,-11.79703 -0.24998,-24.44766 -6.10336,-35.04155 -3.428,-6.20457 -7.80985,-11.90971 -13.21102,-16.44541 -8.02396,-6.73774 -18.49245,-10.76581 -28.8709,-9.88208 z"
       id="rect3604"
       inkscape:connector-curvature="0" />
    <path
       style="fill:#004dff"
       d="m 831.23227,-226.24398 c -9.51813,0.80917 -18.41757,5.65703 -25.3625,12.31091 -6.14532,5.88993 -10.93082,13.24131 -13.86897,21.28447 l -0.20029,0 c -2.94276,-8.04084 -7.73763,-15.37952 -13.88726,-21.26593 -6.94828,-6.65007 -15.84317,-11.48933 -25.36255,-12.29236 -6.84762,-0.57782 -13.66717,1.14466 -19.86244,4.20868 l 0,95.63188 c 0.29005,0.27352 0.56897,0.56061 0.85883,0.83432 9.16944,8.65453 18.22393,17.47681 26.45892,27.050577 12.76874,14.84558 23.52184,31.481302 31.84934,49.280644 l 0.18451,-0.0198 c 8.31589,-17.805661 19.05456,-34.445065 31.81277,-49.299177 8.22798,-9.579214 17.27591,-18.389844 26.44073,-27.050584 7.15817,-6.76526 14.44548,-13.50112 20.30095,-21.45134 3.9565,-5.37116 7.25449,-11.34135 8.8259,-17.8545 2.84607,-11.79703 -0.24998,-24.44766 -6.10336,-35.04155 -3.428,-6.20457 -7.80985,-11.90971 -13.21102,-16.44541 -8.02396,-6.73774 -18.49245,-10.76581 -28.8709,-9.88208 z"
       id="rect3606"
       inkscape:connector-curvature="0" />
    <path
       style="fill:#008026"
       d="m 831.23227,-226.24398 c -9.51813,0.80917 -18.41757,5.65703 -25.3625,12.31091 -6.14532,5.88993 -10.93082,13.24131 -13.86897,21.28447 l -0.20029,0 c -2.94276,-8.04084 -7.73763,-15.37952 -13.88726,-21.26593 -4.49144,-4.29866 -9.84162,-7.69731 -15.60496,-9.88211 l 0,128.188986 c 11.72972,14.122733 21.74148,29.723039 29.54706,46.406865 l 0.18451,-0.0198 c 8.31589,-17.805661 19.05456,-34.445065 31.81277,-49.299177 8.22798,-9.579214 17.27591,-18.389844 26.44073,-27.050584 7.15817,-6.76526 14.44548,-13.50112 20.30095,-21.45134 3.9565,-5.37116 7.25449,-11.34135 8.8259,-17.8545 2.84607,-11.79703 -0.24998,-24.44766 -6.10336,-35.04155 -3.428,-6.20457 -7.80985,-11.90971 -13.21102,-16.44541 -8.02396,-6.73774 -18.49245,-10.76581 -28.8709,-9.88208 z"
       id="rect3608"
       inkscape:connector-curvature="0" />
    <path
       style="fill:#ffed00"
       d="m 831.23227,-226.24398 c -9.51813,0.80917 -18.41757,5.65703 -25.3625,12.31091 -6.14532,5.88993 -10.93082,13.24131 -13.86897,21.28447 l -0.0903,0 0,143.447811 0.12917,-0.0198 c 8.31594,-17.805661 19.0546,-34.445065 31.81278,-49.299177 8.22805,-9.579214 17.27589,-18.389844 26.44078,-27.050584 7.15815,-6.76526 14.44544,-13.50112 20.30092,-21.45134 3.95647,-5.37116 7.25447,-11.34135 8.82566,-17.8545 2.84629,-11.79703 -0.25,-24.44766 -6.10305,-35.04155 -3.428,-6.20457 -7.80995,-11.90971 -13.2111,-16.44541 -8.02393,-6.73774 -18.49245,-10.76581 -28.8709,-9.88208 z"
       id="rect3610"
       inkscape:connector-curvature="0" />
    <path
       style="fill:#ff8c00"
       d="m 831.23227,-226.24398 c -3.35325,0.28502 -6.57974,1.22011 -9.72102,2.41028 l 0,128.244589 c 0.79727,-0.96185 1.52507,-1.981925 2.33889,-2.929405 8.228,-9.579214 17.27587,-18.389834 26.44067,-27.050574 7.15823,-6.76529 14.44549,-13.50114 20.30089,-21.45134 3.95657,-5.37116 7.2545,-11.34137 8.82589,-17.85451 2.84608,-11.79701 -0.25,-24.44767 -6.10315,-35.04152 -3.428,-6.20457 -7.80997,-11.90975 -13.2112,-16.44543 -8.02389,-6.73777 -18.49252,-10.76582 -28.87097,-9.88209 z"
       id="rect3612"
       inkscape:connector-curvature="0" />
    <path
       style="fill:#e40303"
       d="m 851.13131,-222.03529 0,95.65041 c 6.88215,-6.49641 13.8369,-13.00026 19.46039,-20.63555 3.95657,-5.37116 7.2545,-11.34137 8.82589,-17.85451 2.84608,-11.79701 -0.25,-24.44767 -6.10315,-35.04152 -3.428,-6.20457 -7.80997,-11.90975 -13.2112,-16.44543 -2.71803,-2.28235 -5.79161,-4.09862 -8.97193,-5.6734 z"
       id="rect3614"
       inkscape:connector-curvature="0" />
  </g>
</svg>
