<?xml version="1.0" encoding="UTF-8" standalone="no"?>
<svg
   viewBox="0 0 556 500"
   version="1.1"
   id="svg35"
   sodipodi:docname="maus-elefant-maske.svg"
   inkscape:version="1.3.2 (091e20ef0f, 2023-11-25)"
   xmlns:inkscape="http://www.inkscape.org/namespaces/inkscape"
   xmlns:sodipodi="http://sodipodi.sourceforge.net/DTD/sodipodi-0.dtd"
   xmlns="http://www.w3.org/2000/svg"
   xmlns:svg="http://www.w3.org/2000/svg">
  <sodipodi:namedview
     id="namedview35"
     pagecolor="#ffffff"
     bordercolor="#666666"
     borderopacity="1.0"
     inkscape:showpageshadow="2"
     inkscape:pageopacity="0.0"
     inkscape:pagecheckerboard="0"
     inkscape:deskcolor="#d1d1d1"
     showgrid="false"
     inkscape:zoom="1.3202356"
     inkscape:cx="212.08336"
     inkscape:cy="249.57667"
     inkscape:window-width="1436"
     inkscape:window-height="847"
     inkscape:window-x="0"
     inkscape:window-y="0"
     inkscape:window-maximized="0"
     inkscape:current-layer="svg35" />
  <defs
     id="defs1" />
  <path
     style="fill:#000000;fill-opacity:1;stroke:none;stroke-width:28.3941;stroke-linejoin:round;stroke-dashoffset:109.984;stroke-opacity:1"
     d="m 451.24805,451.07617 c -1.42072,0.0604 -2.8379,0.53711 -4.08789,1.47461 -4.94,3.98 -4.14032,11.29933 -3.82032,17.19922 6.12,-1 12.1805,-2.33 18.15039,-4 a 92.32,92.32 0 0 1 -2.55078,-9.55078 v 0.0117 c -1.42312,-3.38937 -4.56593,-5.26757 -7.6914,-5.13477 z"
     id="path45" />
  <path
     style="fill:#000000;fill-opacity:1;stroke:none;stroke-width:28.3941;stroke-linejoin:round;stroke-dashoffset:109.984;stroke-opacity:1"
     d="m 466,446.33008 c -1.36,0.08 -2.60039,0.78086 -3.40039,1.88086 -3.34,5.25989 -0.47891,11.61875 1.12109,16.71875 4.3,-1.06 7.79899,-3.45011 11.45899,-6 l 0.0508,-0.0195 c -1.23,-4.94 -3.66058,-11.78008 -9.23047,-12.58008 z"
     id="path44" />
  <path
     style="fill:#000000;fill-opacity:1;stroke:none;stroke-width:28.3941;stroke-linejoin:round;stroke-dashoffset:109.984;stroke-opacity:1"
     d="m 474.41016,442.67969 a 20,20 0 0 0 3,14 l 0.80078,-1.42969 0.0195,0.01 a 55.14,55.14 0 0 0 -3.82031,-12.58008 z"
     id="path43" />
  <path
     style="fill:#000000;fill-opacity:1;stroke:none;stroke-width:28.3941;stroke-linejoin:round;stroke-dashoffset:109.984;stroke-opacity:1"
     d="m 357.82227,425.64648 c -2.72947,0.0209 -5.76182,0.7418 -8.76172,2.37305 a 69.65,69.65 0 0 1 8.42968,15.59961 l 4,-2.06836 c 3.57,-2.19 7.49039,-6.05073 5.90039,-11.14062 h -0.0215 c -1.29375,-2.8875 -4.99785,-4.79858 -9.54687,-4.76368 z"
     id="path42" />
  <path
     style="fill:#000000;fill-opacity:1;stroke:none;stroke-width:28.3941;stroke-linejoin:round;stroke-dashoffset:109.984;stroke-opacity:1"
     d="m 351.26953,415.82812 c -4.11559,-0.056 -9.45565,3.20462 -12.53906,4.23243 3.49996,0.95 6.04993,4.13851 8.58984,5.72851 l 0.01,-0.0391 c 10.3899,-4.64 8,-8 8,-8 -1.02656,-1.36969 -2.45007,-1.89988 -4.06055,-1.92188 z"
     id="path40" />
  <path
     style="fill:#000000;fill-opacity:1;stroke:none;stroke-width:28.3941;stroke-linejoin:round;stroke-dashoffset:109.984;stroke-opacity:1"
     d="m 326.41797,409.75586 c -2.20633,-0.0434 -5.43998,0.65197 -10.13867,2.98437 a 100.67,100.67 0 0 1 6.36132,10.18946 c 3.1862,-2.71677 9.38061,-5.10585 8.2793,-10.98047 0,0 -0.82474,-2.12106 -4.50195,-2.19336 z"
     id="path39" />
  <path
     style="fill:#000000;fill-opacity:1;stroke:none;stroke-width:28.3941;stroke-linejoin:round;stroke-dashoffset:109.984;stroke-opacity:1"
     d="m 326.66992,403.18945 c -5.57994,0.16 -11.38995,2.21134 -16.16992,4.28125 l -0.69922,0.34961 a 14.47,14.47 0 0 1 4.67969,3 l 4.29883,-1.75 c 3.06995,-1.27 6.75,-2.29109 8,-4.62109 l -0.0391,-0.01 c 0.66002,-1.25 -0.0703,-1.25 -0.0703,-1.25 z"
     id="path37" />
  <path
     style="fill:#000000;fill-opacity:1;stroke:none;stroke-width:28.3941;stroke-linejoin:round;stroke-dashoffset:109.984;stroke-opacity:1"
     d="m 368.02734,299 c -0.68828,0.007 -1.40672,0.0799 -2.13672,0.16992 -5.56996,1.23 -12.23057,3.43065 -16.06054,10.64063 -1.31,2.45998 -0.86968,5.89039 1.82031,7.40039 4.14999,1.26999 7.9504,-0.39016 11.15039,-1.91016 0,0 -1.25992,-0.44047 -1.66992,-2.73047 -0.41,-2.28999 1.83953,-4.2 3.26953,-5 2.07,-0.78999 4.81039,-0.47069 5.40039,1.5293 2,-1.62999 3.73,-4.02994 3,-7.16992 l 0.0293,-0.01 c -0.9525,-2.38499 -2.73789,-2.94242 -4.80274,-2.91992 z"
     id="path31" />
  <path
     style="fill:#000000;fill-opacity:1;stroke:none;stroke-width:28.3941;stroke-linejoin:round;stroke-dashoffset:109.984;stroke-opacity:1"
     d="m 118.21094,145.89062 c -3.59997,0.47 -7.84092,0.47032 -11.13086,1.57032 1.72998,1.41 3.28993,2.81992 3.91992,5.16992 0.96999,3.17999 0.32925,6.63001 -1.7207,9.25 -2.48998,2.83999 -5.27021,3.99953 -9.410159,3.76953 -3.999956,-0.93 -5.799016,-2.50079 -7.208985,-5.80078 a 11.36,11.36 0 0 1 -0.939453,-7.21875 c -4.609925,2.14999 -5.571305,2.56931 -10.28125,7.2793 1.099989,6.42988 7.931071,13.25922 12.791016,15.44922 a 22.5,22.5 0 0 0 22.878911,-5.33008 c 5.17991,-6.57998 5.49148,-16.92869 1.10156,-24.13868 z"
     id="path9" />
  <path
     style="fill:#000000;fill-opacity:1;stroke:none;stroke-width:28.3941;stroke-linejoin:round;stroke-dashoffset:109.984;stroke-opacity:1"
     d="m 154.89062,142.43945 a 42.8,42.8 0 0 0 -12.2207,1.72071 c -0.16,6.73987 1.09005,14.1104 6.41992,18.65039 5.64999,4.99988 15.12107,6.81936 23.46094,3.60937 5.82998,-2.23999 11.22984,-9.84076 10.58984,-19.14062 -5.99988,-2.67 -6.63071,-2.34914 -10.2207,-3.11914 2.31,3.75987 1.28093,9.22899 -1.53906,12.20898 a 9.76,9.76 0 0 1 -8.24024,2.57031 c -4.68988,-0.66999 -6.36984,-2.39876 -8.08984,-5.21875 a 12.42,12.42 0 0 1 -0.16016,-11.28125 z"
     id="path8" />
</svg>
