<?xml version="1.0" encoding="UTF-8" standalone="no"?>
<svg
   viewBox="0 0 556 500"
   version="1.1"
   id="svg35"
   sodipodi:docname="maus-elefant-mono.svg"
   inkscape:version="1.3.2 (091e20ef0f, 2023-11-25)"
   xmlns:inkscape="http://www.inkscape.org/namespaces/inkscape"
   xmlns:sodipodi="http://sodipodi.sourceforge.net/DTD/sodipodi-0.dtd"
   xmlns="http://www.w3.org/2000/svg"
   xmlns:svg="http://www.w3.org/2000/svg">
  <sodipodi:namedview
     id="namedview35"
     pagecolor="#ffffff"
     bordercolor="#666666"
     borderopacity="1.0"
     inkscape:showpageshadow="2"
     inkscape:pageopacity="0.0"
     inkscape:pagecheckerboard="0"
     inkscape:deskcolor="#d1d1d1"
     showgrid="false"
     inkscape:zoom="0.93354755"
     inkscape:cx="241.01611"
     inkscape:cy="287.61256"
     inkscape:window-width="1436"
     inkscape:window-height="847"
     inkscape:window-x="0"
     inkscape:window-y="0"
     inkscape:window-maximized="0"
     inkscape:current-layer="svg35" />
  <defs
     id="defs1" />
  <path
     id="path33"
     style="color:#000000;display:inline;fill:#000000;stroke-linejoin:round;-inkscape-stroke:none"
     inkscape:label="path0"
     sodipodi:type="inkscape:offset"
     inkscape:radius="0"
     inkscape:original="M 154.26953 -0.75 C 143.48873 -0.75 127.87158 1.5703551 107.26758 6.1601562 A 1.250125 1.250125 0 0 0 107.25391 6.1640625 C 87.787932 10.741327 72.276436 13.009766 60.810547 13.009766 C 55.215535 13.009766 45.120032 11.489744 35.714844 9.8652344 C 26.310484 8.2408677 17.630957 6.529604 14.224609 6.1386719 C 9.8285636 5.6275018 5.379986 5.6284449 0.859375 6.1386719 A 1.250125 1.250125 0 0 0 -0.25 7.3808594 L -0.25 143.61914 A 1.250125 1.250125 0 0 0 -0.13867188 143.88867 A 1.250125 1.250125 0 0 0 -0.25 144 L -0.25 164.03516 C -2.230034 165.19929 -4.1200382 166.47971 -5.7890625 167.89062 C -12.849041 169.30062 -20.059708 170.71039 -27.429688 170.40039 C -37.309528 171.02039 -43.909457 170.85922 -53.779297 170.69922 L -56.779297 170.40039 C -61.169154 170.56039 -90.479312 167.72921 -95.779297 167.10938 A 26.41 26.41 0 0 1 -96.25 158.49023 C -90.610148 155.99037 -85.249047 152.99952 -79.789062 150.01953 C -79.319065 149.07953 -80.110784 148.30062 -81.050781 148.14062 C -86.380766 150.49062 -90.920462 153.94032 -96.570312 155.82031 L -97.349609 138.73047 C -95.159618 136.85047 -92.959916 135.28999 -90.919922 133.25 C -92.919916 129.49001 -94.839618 135.24961 -97.349609 135.59961 C -100.0096 113.33993 -107.23015 91.549063 -123.83984 77.279297 C -129.63983 71.959372 -137.17085 69.280426 -144.2207 66.480469 C -141.58084 63.130512 -139.13069 59.480473 -136.2207 55.810547 C -132.06085 50.510622 -128.30038 45.620441 -125.40039 39.810547 C -126.03039 27.740729 -130.72928 16.809184 -135.11914 6.109375 C -140.17413 2.5844185 -146.58038 1.2198373 -153.36914 1.0234375 C -155.6321 0.9579676 -157.93751 1.0221875 -160.25 1.1796875 L -160.25 1.2109375 C -169.17984 7.5408312 -178.54 16.330249 -183.25 26.830078 C -180.75 39.679875 -175.47984 52.559255 -171.33984 64.289062 C -179.60984 64.889062 -187.83935 66.040276 -195.94922 67.740234 C -195.47922 55.050457 -195.94977 44.859271 -196.25977 32.939453 C -198.9297 28.079538 -203.79098 25.419234 -207.71094 22.279297 L -220.86914 14.130859 C -231.21897 12.130891 -240.94051 16.640096 -248.15039 22.75 C -251.91033 26.519936 -249.88086 32.319738 -249.88086 37.179688 C -249.25087 44.079571 -248.46075 50.979762 -245.80078 56.929688 C -237.49093 63.66957 -229.34057 70.40977 -220.7207 76.679688 C -235.60047 85.459536 -248.93057 103.46126 -250.81055 122.46094 C -252.53052 135.63063 -250.96036 149.27014 -249.40039 162.58984 C -251.75035 162.58984 -253.77912 160.71023 -256.28906 160.24023 A 1.34 1.34 0 0 0 -256.28906 162.24023 C -254.40909 164.24023 -251.43005 164.43998 -249.08008 165.83984 L -246.89062 181.21094 C -251.59056 180.89094 -255.66922 179.21093 -260.36914 178.21094 C -261.61911 177.89094 -263.18978 177.11008 -264.75977 177.58008 C -265.53973 178.05008 -264.90975 178.99094 -264.75977 179.46094 C -258.75985 181.34093 -252.2191 182.83977 -245.94922 184.25977 C -245.73922 187.11963 -245.15975 189.1793 -245.00977 191.5293 C -246.56972 193.87916 -246.72923 196.86055 -248.44922 199.06055 C -248.92921 198.59055 -250.8093 198.43094 -251.2793 199.21094 C -251.89928 200.78093 -250.34038 201.4107 -249.40039 201.7207 C -262.40019 229.78036 -273.39963 258.47001 -279.01953 289.51953 C -280.58951 304.23936 -284.81926 323.52087 -272.43945 333.7207 C -266.94956 337.7907 -257.23031 336.06008 -251.90039 333.08008 C -245.55049 329.20008 -242.17931 321.17938 -243.2793 313.01953 C -243.4393 307.36968 -245.00996 300.94912 -242.5 295.61914 C -238.74006 314.89882 -229.49941 334.33946 -213.17969 344.5293 C -208.94974 367.87882 -205.66021 392.3404 -202.99023 416.33008 L -211.30078 422.91016 C -212.56077 424.32 -212.87092 426.67078 -212.71094 428.55078 C -220.40081 436.86062 -237.94991 434.55078 -247.50977 430.55078 C -251.27969 428.67078 -255.19981 427.10078 -258.50977 423.96094 C -259.75972 424.43094 -258.81961 425.53016 -258.34961 426.16016 C -246.5898 436.16 -227.94019 444.80914 -211.48047 436.0293 C -210.85047 437.5993 -211.01043 440.57953 -208.48047 440.26953 C -199.08062 440.73953 -190.77065 439.47977 -182.30078 439.00977 L -168.82031 438.71094 C -168.23031 438.55094 -165.3707 439.0107 -165.2207 436.9707 C -165.6907 420.20102 -165.2197 405.31054 -165.68945 388.2207 A 78.94 78.94 0 0 0 -156.58984 364.7207 L -156.2793 364.7207 C -153.14931 388.07038 -151.57921 412.52032 -149.69922 436.5 C -148.59922 437.44 -145.69984 438.0607 -144.08984 438.2207 C -135.94 438.8407 -108.55962 439.69906 -105.25977 437.03906 C -103.25977 432.64922 -102.50922 427.09906 -102.19922 422.03906 L -103.30078 419.84961 C -107.30077 416.70961 -111.0197 413.24078 -114.42969 409.46094 C -113.32969 387.20126 -112.86008 363.21046 -112.08008 340.80078 C -92.950315 328.72094 -82.079066 304.42928 -82.289062 280.59961 C -81.18907 257.09994 -85.740168 235.13874 -89.660156 213.03906 C -79.470316 212.87906 -69.910229 211.9393 -59.400391 211.7793 L -57.949219 211.55078 C -47.609379 210.77078 -37.630618 209.30953 -26.800781 208.01953 C -17.929668 206.96861 -9.1325531 204.90978 -0.25 202.82617 L -0.25 228.95508 C -2.3977939 229.70069 -4.4470727 230.5546 -6.2792969 231.4707 C -17.909111 236.88064 -26.229952 247.56058 -32.839844 260.15039 C -36.769792 267.61026 -43.879267 285.98116 -31.439453 313.4707 C -19.189669 335.82038 1.0403198 348.94922 24.919922 352.94922 C 25.719909 353.14922 27.150391 352.82922 27.150391 353.94922 C 26.830391 360.79906 26.989887 368.75961 28.589844 375.43945 C 17.490017 374.43945 6.6101303 376.86961 -1.5097656 382.43945 C -6.3896707 387.78945 -5.9902084 398.21936 -3.9902344 407.35938 C -1.340303 419.20905 4.5994401 431.60008 13.779297 436.41992 C 19.519189 439.42992 26.040221 435.62094 30.660156 433.71094 C 34.660074 440.56078 39.390165 448.62079 47.660156 449.89062 C 62.129842 449.89063 72.711022 443.27914 85.130859 439.2793 C 92.770702 440.3993 101.85086 441.18992 109.9707 439.91992 C 113.4707 446.12992 122.19969 447.10898 128.67969 447.85938 C 141.47937 448.57921 144.67985 447.13 153.67969 445 C 160.33953 442.46 167.26969 440.08063 172.67969 435.14062 C 177.77953 430.37079 172.68068 423.2007 171.89062 417.63086 C 175.02062 414.34086 175.76922 411.99086 177.44922 408.63086 A 25 25 0 0 0 185.32031 408.25 C 194.01015 406.32 196.50977 398.09953 200.00977 390.92969 C 203.00961 385.34969 208.77977 385.77031 214.00977 386.07031 C 215.59961 386.71031 215.25977 388.69039 215.25977 390.15039 C 215.27977 392.12039 213.81969 393.81031 214.67969 394.07031 C 217.22953 392.64031 216.74984 388.97953 216.58984 386.42969 C 219.43984 386.90969 223.12984 391.30031 223.58984 390.57031 C 224.04984 389.84031 220.47961 386.41984 217.84961 384.83984 C 220.21961 384.19984 224.4507 381.86008 224.2207 381.33008 C 223.4307 380.62008 219.91992 382.33008 219.91992 382.33008 C 218.18992 383.25008 216.28031 383.79079 214.32031 383.89062 C 214.32031 383.89062 207.15078 383.83992 204.55078 384.41992 C 197.11094 386.06992 196.68039 396.32008 191.90039 401.41992 C 188.52039 404.59992 183.45953 407.46992 178.51953 404.91992 C 182.81953 379.2904 170.72046 357.78984 156.39062 339.16016 L 164.99023 335.33984 C 170.88023 331.52 178.05047 328.17945 181.23047 320.84961 A 103.58 103.58 0 0 0 171.83984 269.25977 C 165.63 258.27994 139.97062 249.07044 126.21094 247.48047 C 124.67094 247.29047 123.45094 248.23087 122.21094 248.88086 C 118.55094 245.8609 108.19953 241.76953 101.92969 241.76953 C 96.309611 241.76953 87.699764 248.88046 80.169922 257.32031 C 77.139925 257.08032 74.089606 257.24081 71.099609 257.80078 C 68.049612 258.52078 57.35039 264.25934 50.560547 267.0293 C 38.190709 272.0792 28.04027 278.08012 14.980469 281.08008 C 6.5405937 282.99005 -3.2595481 281.67957 -8.1894531 274.67969 C -12.329401 267.50978 -7.3995571 260.18926 -3.0996094 254.60938 A 15.1 15.1 0 0 1 -0.25 252.30469 L -0.25 267 A 1.250125 1.250125 0 0 0 0.4609375 268.12695 C 3.3387286 269.50377 5.8145962 270.25 8 270.25 C 10.185404 270.25 12.661271 269.50377 15.539062 268.12695 A 1.250125 1.250125 0 0 0 16.25 267 L 16.25 256.7168 C 20.521368 256.51951 23.462603 254.47544 26.490234 251.2207 C 29.670195 247.30079 29.639332 241.88065 28.359375 238.2207 L 28.359375 238.14062 C 25.869011 232.20892 22.278802 229.63253 16.25 227.60156 L 16.25 198.23438 C 17.725807 197.56498 19.172489 196.83103 20.539062 195.94922 C 26.809044 189.67937 34.019077 180.89914 29.949219 171.0293 C 27.949225 166.78931 26.029933 162.40039 21.330078 161.15039 C 19.638504 160.47923 17.941504 160.15965 16.25 159.97461 L 16.25 145.29492 C 38.224082 149.55156 53.115606 151.75 60.810547 151.75 C 72.60248 151.75 88.245758 149.43016 107.8125 144.83984 L 107.82617 144.83789 C 128.33372 140.26021 143.86236 137.99023 154.26953 137.99023 C 164.68869 137.99023 180.2126 140.26967 200.72852 144.83984 A 1.250125 1.250125 0 0 0 202.25 143.61914 L 202.25 7.3808594 A 1.250125 1.250125 0 0 0 201.27148 6.1601562 C 180.6674 1.5703364 165.0405 -0.75 154.26953 -0.75 z M 154.26953 1.75 C 164.49006 1.75 179.78282 4.0080746 199.75 8.4140625 L 199.75 9.1621094 C 183.13605 26.53335 169.51592 39.203217 159 47 C 125.07024 72.169795 64.319853 93.040091 47.5 104.5 C 28.774775 117.26375 13.851548 129.88006 2.6113281 142.36914 L 2.25 142.36914 L 2.25 8.5605469 C 6.2025905 8.1899933 10.093296 8.17432 13.935547 8.6210938 A 1.250125 1.250125 0 0 0 13.9375 8.6210938 C 16.98177 8.9703586 25.849291 10.699595 35.289062 12.330078 C 44.728836 13.960561 54.775582 15.509766 60.810547 15.509766 C 72.601764 15.509766 88.245065 13.200102 107.8125 8.5996094 L 107.82617 8.5976562 C 128.33428 4.0297682 143.85298 1.75 154.26953 1.75 z M -153.39844 3.8847656 A 35.56 35.56 0 0 1 -137 8.5 C -132.92001 17.899911 -129.48054 27.929642 -128.06055 38.269531 L -128.38086 39.839844 C -134.65077 47.829776 -140.60041 57.710546 -147.82031 65.230469 C -154.67029 64.21048 -161.58962 63.689675 -168.51953 63.679688 A 326.92 326.92 0 0 1 -179.75 26.900391 C -177.56 20.790457 -161.75913 4.5301459 -159.11914 4.1601562 A 35.56 35.56 0 0 1 -153.39844 3.8847656 z M -224.27344 16.457031 C -223.65319 16.473211 -223.05133 16.521861 -222.4707 16.609375 C -214.32079 21.93931 -205.89065 26.300937 -199.4707 34.130859 C -198.83071 45.040748 -198.16938 55.929788 -199.10938 66.929688 L -199.10938 68.460938 A 121 121 0 0 0 -217.73047 75.460938 C -226.35038 68.850994 -234.99962 62.460704 -243.26953 55.050781 C -245.61951 49.250847 -247.53999 34.490257 -247 27.320312 L -247.05078 27.289062 C -246.77891 23.614106 -233.57707 16.214311 -224.27344 16.457031 z M -147.14062 96.634766 C -141.16214 96.712916 -135.23749 98.385866 -130.39062 100.9707 A 61.27 61.27 0 0 1 -119.73047 119.64062 C -127.01037 117.44075 -132.02056 115.83945 -135.56055 115.43945 C -145.28044 113.55956 -158.29082 113.52094 -167.2207 116.96094 C -164.59081 110.54094 -160.83069 104.41903 -157.2207 98.619141 L -155.23047 97.580078 C -152.58673 96.892589 -149.85819 96.599236 -147.14062 96.634766 z M -202.7793 102.33203 C -202.27699 102.33503 -201.77844 102.35146 -201.28906 102.38086 C -195.16914 105.85086 -189.86941 112.84961 -184.68945 117.84961 C -201.1493 118.89961 -216.52105 122.34971 -227.96094 132.84961 L -227.49023 128.60938 C -226.49065 121.58212 -226.49064 117.6334 -223.49414 110.46875 C -223.50564 110.48255 -223.5178 110.49597 -223.5293 110.50977 L -223.49023 110.46094 C -223.49123 110.46394 -223.49314 110.46575 -223.49414 110.46875 C -219.06736 105.1795 -210.2943 102.28754 -202.7793 102.33203 z M -151.10938 117.43945 A 12.42 12.42 0 0 0 -150.94922 128.7207 C -149.22922 131.54069 -147.54926 133.26946 -142.85938 133.93945 A 9.76 9.76 0 0 0 -134.61914 131.36914 C -131.79915 128.38915 -130.77008 122.92004 -133.08008 119.16016 C -129.49009 119.93016 -128.85926 119.6093 -122.85938 122.2793 C -122.21935 131.57917 -127.61924 139.17993 -133.44922 141.41992 C -141.7891 144.62991 -151.26017 142.81044 -156.91016 137.81055 C -162.24004 133.27056 -163.49008 125.90004 -163.33008 119.16016 A 42.8 42.8 0 0 1 -151.10938 117.43945 z M -187.78906 120.89062 C -183.39913 128.10062 -183.7107 138.44932 -188.89062 145.0293 A 22.5 22.5 0 0 1 -211.76953 150.35938 C -216.62948 148.16938 -223.46056 141.34005 -224.56055 134.91016 C -219.8506 130.20017 -218.88923 129.78085 -214.2793 127.63086 A 11.36 11.36 0 0 0 -213.33984 134.84961 C -211.92987 138.1496 -210.13082 139.72039 -206.13086 140.65039 C -201.99091 140.88039 -199.21068 139.72085 -196.7207 136.88086 C -194.67074 134.26087 -194.03001 130.81085 -195 127.63086 C -195.62999 125.28086 -197.18994 123.87094 -198.91992 122.46094 C -195.62997 121.36094 -191.38903 121.36066 -187.78906 120.89062 z M -100.58203 135.47266 C -100.51013 136.26131 -100.39648 137.03673 -100.33984 137.83008 A 191.42 191.42 0 0 1 -149.08984 166.67969 C -149.86984 167.29968 -149.39929 168.39914 -148.7793 168.86914 A 31.94 31.94 0 0 0 -139.83984 165.74023 C -125.58011 159.31036 -112.71943 150.83932 -100.17969 141.43945 C -100.17969 146.76944 -99.399141 152.56966 -99.869141 157.26953 A 115.6 115.6 0 0 1 -114.86914 163.39062 C -115.23914 162.29074 -114.40023 161.02929 -114.24023 159.7793 C -114.61023 159.3093 -115.24055 159.11055 -115.81055 159.31055 C -117.53054 160.23054 -117.05946 162.58055 -117.68945 164.31055 A 98.53 98.53 0 0 1 -138.53906 170.73047 C -141.96905 171.46047 -144.86082 171.90094 -147.4707 172.46094 A 2.24 2.24 0 0 0 -147 174.46094 C -141.07013 174.46094 -134.32917 172.45984 -128.2793 171.08984 L -136.08008 178.0293 C -140.93995 178.45929 -142.93958 177.92925 -146.93945 177.35938 A 1.7 1.7 0 0 0 -147.56055 179.24023 C -145.21055 180.65023 -141.74999 180.71094 -138.75 180.71094 A 67.08 67.08 0 0 1 -157.2793 192.25 C -167.27916 196.63999 -182.33942 194.76003 -191.2793 189.91016 C -190.01931 188.81016 -187.51934 188.80926 -187.35938 186.60938 C -187.35938 185.81938 -187.82954 185.03945 -188.76953 185.18945 C -190.33952 186.91945 -193.00034 187.23035 -194.57031 188.49023 L -204.44922 184.7207 C -199.11928 183.90071 -193.76947 183.16039 -188.76953 181.90039 C -188.21954 181.22039 -188.21954 180.24078 -188.76953 179.55078 C -197.7094 181.33078 -206.78076 182.37945 -215.89062 182.68945 L -217.89062 178.44922 A 1.4 1.4 0 0 0 -219.60938 178.60938 C -220.07934 180.17926 -219.13991 181.43996 -218.66992 182.83984 A 146.4 146.4 0 0 1 -243.75 181.90039 C -244.77999 177.13051 -245.55079 172.31081 -246.05078 167.46094 C -229.91101 171.83081 -212.55887 176.25977 -194.36914 176.25977 C -192.64915 175.78977 -188.88922 177.36004 -189.19922 173.91016 C -189.66921 173.59016 -189.67079 173.1193 -190.30078 173.2793 C -191.71077 174.37929 -206.13086 172.81055 -206.13086 172.81055 C -220.40067 171.71055 -233.40993 167.78918 -246.25977 164.0293 C -246.37508 163.18672 -246.4407 162.31298 -246.55078 161.46484 C -209.3488 163.62527 -184.28958 163.59894 -171.5 161.35938 C -125.50386 153.3208 -105.19935 139.51458 -100.58203 135.47266 z M 2.25 145.25 L 13.75 145.25 L 13.75 237.17383 C 11.360496 238.00305 9.3814976 238.73924 8.3066406 239.45898 C 7.1299538 240.24345 6.2596187 241.65039 5.6308594 243.4668 C 5.002102 245.2832 4.7157819 247.51746 5.2871094 249.80273 A 1.250125 1.250125 0 0 0 5.2871094 249.80469 C 5.706819 251.47727 6.8363692 252.8836 8.4472656 253.92578 C 9.8286502 254.81951 11.643286 255.45449 13.75 255.95508 L 13.75 266.15039 C 11.418516 267.18757 9.4388066 267.75 8 267.75 C 6.5611934 267.75 4.5814837 267.18761 2.25 266.15039 L 2.25 145.25 z M -99.380859 160.2793 L -98.589844 177.06055 C -109.67969 178.79054 -120.94094 179.26093 -132.14062 178.46094 A 53 53 0 0 1 -116.7793 167.2793 C -115.8393 169.15917 -114.26921 169.78071 -112.69922 170.7207 C -107.67923 169.12071 -114.66922 168.33984 -114.19922 166.33984 L -99.380859 160.2793 z M 16.25 162.47852 C 16.2738 162.48052 16.296413 162.47866 16.320312 162.48047 C 17.57031 163.42047 20.079141 162.95937 20.869141 164.35938 C 19.251184 164.78722 17.746747 165.35229 16.25 165.93555 L 16.25 162.47852 z M 24.310547 166.56055 C 25.610544 169.38044 27.919275 171.8897 27.609375 175.17969 C 23.319987 176.21476 19.436351 177.71895 16.25 180.48242 L 16.25 168.92773 C 18.830161 167.89753 21.557576 167.15385 24.310547 166.56055 z M -0.25 167.57227 L -0.25 199.375 C -0.52101973 199.4219 -0.79567628 199.4628 -1.0605469 199.51953 C -12.560411 203.28952 -32.831215 205.70956 -58.460938 208.43945 L -58.460938 208.59961 C -61.910826 208.90961 -66.299149 209.07047 -69.119141 209.23047 L -69.119141 209.38086 L -70.060547 209.08008 C -70.220546 209.08008 -70.380703 209.23086 -70.220703 209.38086 L -90.439453 209.53906 C -92.00945 199.50919 -95.620781 189.78916 -95.300781 179.2793 C -92.48079 178.0593 -88.249578 178.83929 -85.429688 177.2793 C -84.32969 176.6093 -85.270391 175.23926 -85.900391 174.60938 C -89.030379 175.54926 -92.320947 175.87024 -95.460938 176.49023 L -95.769531 170.38086 C -86.679658 171.01086 -79.00042 172.10039 -70.060547 172.90039 C -52.980698 172.90039 -38.239905 174.61038 -21.160156 172.90039 C -15.830174 172.61039 -10.480354 171.67039 -5.4804688 170.90039 L -5.4707031 170.78906 C -3.7310089 169.71034 -1.9963343 168.63024 -0.25 167.57227 z M -165.14062 169.51367 C -169.76701 169.50367 -174.58786 170.81477 -178.03906 172.65039 L -178.53906 174.34961 C -178.23023 177.6482 -178.37582 181.86199 -174.7793 182.96094 C -169.7793 184.06093 -161.7796 183.73973 -157.84961 179.50977 C -156.90961 176.37977 -158.15961 173.23991 -159.09961 170.41992 C -160.9746 169.79492 -163.03777 169.51813 -165.14062 169.51367 z M 27.910156 178.16016 A 26.35 26.35 0 0 1 22.740234 189.16016 C 21.06493 192.03694 18.806611 193.8888 16.25 195.21094 L 16.25 183.9043 C 19.610201 180.94694 23.617351 179.26425 27.910156 178.16016 z M -98.640625 179.81055 C -98.800625 192.04025 -94.570408 203.49014 -92.060547 215.08984 C -86.420565 248.60935 -77.640642 289.69032 -95.820312 320.08984 C -105.56015 337.01966 -122.00073 343.45094 -139.56055 347.21094 C -143.01041 347.68094 -146.4504 348.3093 -149.90039 348.7793 C -160.01023 349.8493 -170.17071 350.06016 -180.31055 349.41016 C -188.15038 348.63016 -195.21059 346.58008 -202.73047 345.33008 C -217.15022 342.20008 -226.87102 329.49892 -233.46094 315.69922 C -237.64085 304.09938 -240.46094 292.03069 -240.46094 278.88086 C -240.15094 252.69133 -240.15027 227.44961 -241.24023 201.58008 C -233.72037 201.11008 -225.8798 200.48963 -218.66992 198.75977 C -209.89007 197.34977 -202.83916 194.06077 -194.5293 191.55078 C -187.0194 195.42077 -178.68031 197.42992 -170.23047 197.41992 L -168.41992 197.41992 C -153.77023 196.41992 -145.13937 189.87977 -135.26953 181.41992 C -127.24969 181.94992 -122.51982 181.15028 -114.83984 181.32031 L -110.66016 180.91992 L -110.71094 180.91016 A 74.9 74.9 0 0 0 -98.640625 179.81055 z M -243.11914 184.67969 L -241.34961 184.94922 L -239.84961 185.05078 C -232.93973 186.05078 -225.93035 186.1907 -218.98047 185.4707 C -219.14047 186.9007 -220.49027 187.08039 -221.24023 188.90039 C -221.71023 189.68039 -220.24077 190.47992 -219.30078 190.16992 C -218.2008 188.93993 -216.31975 187.81945 -216.00977 185.93945 C -209.25985 185.15946 -204.41024 187.97938 -199.07031 189.85938 C -211.77012 195.18922 -226.40064 198.15922 -241.40039 198.94922 C -242.03038 194.24923 -242.49914 189.67954 -243.11914 184.67969 z M 47.490234 192.0293 C 47.497734 192.0402 47.506052 192.04985 47.513672 192.06055 C 47.519072 192.05755 47.523887 192.05378 47.529297 192.05078 L 47.490234 192.0293 z M 47.513672 192.06055 C 45.026224 193.47618 44.185516 196.89474 42.080078 198.90039 C 38.930081 202.77038 33.989663 203.70986 29.679688 205.83984 A 1.26 1.26 0 0 0 31.289062 207.53906 C 38.679044 205.96907 45.989486 201.41091 48.939453 194.71094 C 49.067803 193.28924 48.105971 192.8978 47.513672 192.06055 z M -244.71094 201.60938 C -243.93094 210.07925 -243.61093 219.79979 -243.46094 228.25977 L -243.46094 282.0293 C -243.93093 289.08919 -246.44055 295.03932 -247.06055 301.7793 C -246.28056 312.59917 -245.02995 325.44957 -254.58984 330.93945 C -256.46982 328.26957 -256.62088 324.99999 -257.88086 322 C -258.35086 319.81001 -257.57033 317.30007 -258.82031 315.58008 C -259.41031 314.95008 -260.19032 315.43047 -260.82031 315.73047 C -261.13031 321.88036 -259.41076 327.02086 -257.05078 331.88086 C -259.72076 332.82086 -262.83011 333.60016 -265.83008 332.66016 A 25.58 25.58 0 0 1 -271.00977 318.24023 C -270.68977 316.83033 -272.41938 316.36008 -273.35938 316.83008 C -273.96934 322.31997 -271.76934 327.18008 -270.35938 331.58008 C -282.30921 321.85019 -277.76934 303.65947 -276.35938 290.17969 C -271.17942 259.30005 -259.43032 230.92918 -246.73047 203.01953 L -246.71094 203.01953 C -246.59094 201.92953 -245.65093 201.76927 -244.71094 201.60938 z M 45.710938 206.89062 C 45.714137 206.90062 45.71565 206.91002 45.71875 206.91992 L 45.720703 206.91992 L 45.710938 206.89062 z M 45.71875 206.91992 C 43.961132 206.67155 44.33012 208.36081 43.650391 209.23047 C 40.950393 211.63046 38.220227 213.71055 34.490234 214.31055 C 33.990237 215.32054 34.940237 215.35969 35.490234 215.92969 C 39.882626 214.58202 47.532768 212.66667 45.71875 206.91992 z M 16.25 230.54102 C 20.244698 231.83339 23.344834 234.56198 25.580078 238.4707 L 25.650391 238.5 C 27.080365 241.04996 26.550365 246.9501 24.900391 249.08008 C 21.56119 252.69105 18.89709 254.0146 15.419922 253.83984 A 1.250125 1.250125 0 0 0 15.246094 253.77344 C 12.84547 253.2933 11.026282 252.61649 9.8046875 251.82617 C 8.5837807 251.0363 7.9634484 250.19388 7.7128906 249.19727 L 7.7128906 249.19531 C 7.2848711 247.48127 7.4980911 245.71625 7.9941406 244.2832 C 8.4903781 242.84963 9.3700517 241.75654 9.6933594 241.54102 A 1.250125 1.250125 0 0 0 9.6953125 241.53906 C 10.451632 241.03234 12.43328 240.17262 15.394531 239.18555 A 1.250125 1.250125 0 0 0 16.25 238 L 16.25 230.54102 z M -0.25 232.36133 L -0.25 248.99805 C -7.8840164 254.48558 -12.600502 262.75783 -12.320312 270.69922 C -12.214476 272.92869 -11.425461 274.85933 -10.277344 276.55078 C -20.248254 296.25384 -24.852233 310.43433 -24.103516 319.09375 C -25.45042 317.29477 -26.761619 315.44526 -28.009766 313.50977 C -35.169632 301.08995 -37.879671 284.05029 -33.259766 269.56055 C -29.759805 257.62073 -22.559059 246.42026 -13.199219 239.15039 A 47.33 47.33 0 0 1 -0.25 232.36133 z M -47.857422 234.06055 C -49.214919 234.05155 -50.347662 236.25934 -51.660156 236.85938 C -55.960144 242.59936 -61.900388 248.79963 -60.900391 256.59961 C -60.260393 256.59961 -59.620389 256.91945 -59.150391 256.43945 C -58.550392 249.75947 -54.55077 244.17967 -50.550781 238.92969 C -49.114663 237.48359 -47.369696 236.36589 -46.417969 234.94141 C -46.932506 234.31089 -47.407166 234.0635 -47.857422 234.06055 z M -46.417969 234.94141 C -46.415369 234.94441 -46.412756 234.94622 -46.410156 234.94922 L -46.410156 234.92969 C -46.412756 234.93369 -46.415369 234.93771 -46.417969 234.94141 z M -31.599609 235.39062 C -40.989582 240.16062 -49.589691 251.14941 -51.179688 262.60938 C -50.229686 262.92937 -50.549681 263.40969 -49.429688 262.92969 A 42 42 0 0 1 -30.330078 236.78906 L -30.330078 235.55078 L -31.599609 235.39062 z M 103.36133 244.5957 C 109.54282 244.48602 116.41678 247.96927 119.4707 250.08984 L 119.42969 250.10938 C 116.10969 251.92933 103.80078 258.92971 100.55078 261.92969 A 105.07 105.07 0 0 0 84.470703 256.99023 C 90.840697 250.78034 93.690971 245.98999 101.4707 244.75 C 102.09039 244.6563 102.72185 244.60705 103.36133 244.5957 z M 124.86914 250.46094 C 134.25898 249.83094 165.12008 260.55929 169.41992 270.11914 C 175.94992 285.11892 180.01992 303.17013 178.41992 320.83984 C 167.11008 334.54968 138.99968 343.41922 116 343.69922 C 106.92016 337.00938 98.358985 326.26961 92.619141 315.75977 C 90.079143 310.98982 88.959452 305.41006 87.689453 300.16016 L 86.689453 299.35938 C 85.043875 301.90762 86.323954 305.0059 86.751953 307.88672 C 84.543005 302.59177 83.30906 298.08396 83.5 295 C 83.94567 287.86938 88.375253 272.02603 96.765625 265.47461 C 94.984787 267.84044 92.367563 270.16519 91.970703 273.39062 C 92.440703 274.03062 93.559063 273.71064 94.039062 273.39062 A 78.57 78.57 0 0 1 124.86914 250.46094 z M 64.869141 263.35547 C 69.492166 270.65072 75.631549 278.55724 75 290.5 C 74.74 295.39998 74.610233 300.32924 73.240234 304.69922 C 61.786196 313.55547 46.672931 305.36934 27.908203 280.19922 C 33.555565 277.81999 38.99235 274.95226 44.359375 272.59961 C 51.245758 269.58068 57.980118 266.39323 64.869141 263.35547 z M 61.814453 270.78516 C 58.563556 270.87546 54.944836 271.99829 51.980469 273.55078 C 46.370474 276.55077 40.620781 280.5508 40.050781 287.55078 A 8.35 8.35 0 0 0 43.240234 294.40039 C 45.620232 296.19038 49.600726 295.66945 52.470703 295.18945 C 60.110695 293.43946 66.800258 288.89927 69.990234 280.7793 A 9.19 9.19 0 0 0 68.25 272.7793 L 68.25 272.73047 C 66.648752 271.26922 64.342941 270.71492 61.814453 270.78516 z M 62.027344 274 C 64.092192 273.9775 65.877579 274.53493 66.830078 276.91992 L 66.800781 276.92969 C 67.530781 280.06968 65.800779 282.46962 63.800781 284.09961 C 63.210782 282.09962 60.470389 281.78032 58.400391 282.57031 C 56.970392 283.37031 54.72086 285.28032 55.130859 287.57031 C 55.540859 289.86031 56.800781 290.30078 56.800781 290.30078 C 53.600784 291.82078 49.800386 293.48093 45.650391 292.21094 C 42.960393 290.70094 42.520079 287.27054 43.830078 284.81055 C 47.660054 277.60057 54.320651 275.39992 59.890625 274.16992 C 60.620624 274.07992 61.339064 274.0075 62.027344 274 z M 153.08984 340.59961 C 164.22968 353.49945 173.14953 368.79134 176.01953 386.14062 C 176.64953 395.85062 176.48992 406.52063 171.08008 414.48047 C 165.35008 398.88063 156.07906 384.06905 145.60938 370.85938 C 144.48937 369.57938 143.06055 368.31086 141.31055 368.63086 C 140.51055 369.10086 140.9907 370.21922 141.4707 370.69922 C 149.1107 378.81906 154.20047 389.01071 160.57031 398.56055 L 167.57031 414.80078 C 165.82031 416.55078 165.50016 419.58086 165.66016 422.13086 C 163.27016 420.06086 160.40039 417.83039 157.06055 419.74023 A 10.57 10.57 0 0 0 152.75977 427.06055 C 151.32977 424.83055 148.76047 423.88055 146.23047 423.56055 C 141.62047 424.04055 138.57086 425.32086 135.88086 430.7207 A 54.82 54.82 0 0 0 134.92969 445.21094 C 126.92985 445.37094 119.00953 444.10078 112.92969 439.96094 C 112.34969 432.2511 112.48914 429.68054 108.2793 414.63086 A 149 149 0 0 0 96.279297 385.80078 C 96.279297 385.80078 95.950545 384.36961 94.560547 385.34961 C 93.170548 386.32961 94.560547 387.73047 94.560547 387.73047 C 102.05039 403.02015 108.73055 418.78001 109.56055 436.92969 C 103.67055 438.52969 96.500001 437.40984 91.410156 437.08984 C 92.360155 436.29984 94.41 436.61882 94.75 434.85938 C 94.28 433.42937 92.209843 434.23047 91.089844 434.23047 C 81.090004 436.46047 73.029996 440.52961 62.910156 444.09961 C 62.910156 444.09961 55.580389 446.33039 54.150391 446.65039 C 57.370387 439.17055 54.630388 428.80945 52.400391 420.84961 C 57.400386 418.75961 64.229531 415.01945 64.019531 406.84961 C 63.949531 404.12961 61.790857 401.75031 59.880859 400.32031 C 57.180862 398.57031 53.829612 398.09016 50.009766 398.41016 C 51.129615 396.98016 52.719608 395.07 51.599609 393 A 8.37 8.37 0 0 0 48.900391 390 C 59.25023 387.93 69.600707 389.6793 79.310547 391.2793 C 79.470547 390.9593 80.579218 390.80016 79.949219 390.16016 C 76.439222 387.93016 71.669143 387.61031 67.529297 386.82031 C 57.649457 385.07031 46.369531 387.27047 37.929688 389.98047 C 34.840516 385.48351 32.784272 380.29302 31.453125 374.87109 C 42.935209 384.61844 100.33196 346.93918 108.28711 341.63477 C 110.74912 344.03976 111.24001 344.93737 115.85938 347.16016 C 128.11906 346.85016 142.42 343.78961 153.08984 340.59961 z M -115.06055 342.75 C -116.16054 364.21976 -115.73047 387.41993 -117.73047 409.67969 C -114.91048 415.63957 -109.25919 417.68016 -105.0293 421.91016 C -105.0293 426.45004 -105.65907 431.31047 -107.53906 435.23047 C -108.16906 435.39047 -108.94992 435.09114 -109.41992 435.39062 L -109.41992 434.91992 C -108.78992 431.16004 -108.01076 425.97906 -109.89062 422.53906 C -110.20065 421.90906 -111.60953 421.90945 -111.76953 422.68945 C -111.09953 426.91945 -111.32039 431.25074 -112.40039 435.39062 C -114.12038 436.17062 -116.63008 435.69898 -118.83008 435.85938 C -118.20008 431.25937 -117.41079 426.08925 -119.30078 421.85938 C -119.92078 421.69937 -121.02024 421.38953 -121.49023 422.01953 C -120.71033 426.55953 -120.39039 431.42055 -121.65039 435.81055 L -126.65039 435.81055 C -129.63038 436.28055 -142.95915 435.65094 -146.86914 434.71094 L -148.75977 412.30078 L -154.86914 352.88086 L -154.56055 352.25977 L -154.57031 352.31055 C -139.83054 351.68055 -127.29033 347.61 -115.06055 342.75 z M -210.21094 346.30078 C -210.20994 346.30778 -210.20803 346.31517 -210.20703 346.32227 C -203.93812 348.82088 -196.87913 349.59068 -190.14062 351.32031 C -185.5907 351.16031 -181.83005 353.21016 -177.91016 352.41016 C -175.25016 353.20016 -171.80004 352.56906 -168.66016 353.03906 C -168.82016 381.7287 -167.40977 407.91106 -168.50977 435.9707 C -170.06965 436.4407 -172.10914 435.80984 -173.36914 436.58984 C -174.77914 435.33985 -176.81906 437.21906 -177.28906 436.28906 L -177.28906 436.58984 C -183.08902 436.74984 -189.19991 436.75047 -194.83984 437.23047 C -194.83984 436.13047 -195.4707 435.17969 -195.4707 433.92969 C -197.04069 431.41969 -193.59091 425.1493 -198.13086 425.7793 C -199.07085 429.69918 -198.13016 433.7693 -197.66016 437.5293 C -199.86012 436.7193 -205.34944 439.5707 -203.93945 434.7207 C -204.40945 431.73082 -203.78056 428.12914 -204.56055 425.61914 C -205.03054 425.45914 -206.12945 425.1493 -206.43945 425.7793 A 36.76 36.76 0 0 0 -206.43945 437.5293 L -208.00977 437.2207 A 39.9 39.9 0 0 1 -209.58008 425.61914 L -200.16992 417.93945 L -199.85938 416.83984 C -203.30826 393.30749 -205.65987 369.31541 -210.20703 346.32227 C -210.20803 346.32173 -210.20994 346.32139 -210.21094 346.32031 L -210.21094 346.30078 z M 26.460938 377.79883 C 27.380924 377.82513 28.295807 378.02547 29.550781 378.48047 L 29.539062 378.5 A 66.31 66.31 0 0 0 35.199219 390.86914 C 32.199258 392.61914 27.790833 393.31084 25.880859 396.9707 C 22.060911 408.27056 26.040576 420.371 29.060547 430.88086 L 24.609375 432.78906 C 26.879329 421.5592 21.739303 410.18025 17.609375 400.15039 C 21.269303 396.65039 28.280143 393.93945 27.160156 386.93945 C 26.840159 385.33945 25.890768 383.42945 24.300781 382.93945 L 21.109375 382.30078 C 22.709329 381.50078 23.109844 379.15016 23.339844 378.16016 C 24.614828 377.92016 25.540937 377.77258 26.460938 377.79883 z M 20.669922 378.18945 C 20.669922 378.18945 21.400256 378.18945 20.740234 379.43945 L 20.779297 379.44922 C 19.5293 381.77922 15.849258 382.80031 12.779297 384.07031 L 8.4804688 385.82031 A 14.47 14.47 0 0 0 3.8007812 382.82031 L 4.5 382.4707 C 9.2799752 380.40078 15.089977 378.34945 20.669922 378.18945 z M 1.7226562 384.5625 C 2.1653059 384.5685 2.6318755 384.7093 3.109375 385.0293 C 6.2893158 386.7793 9.109391 390.34922 11.109375 393.69922 L 11.070312 393.69922 C 17.850244 405.29909 23.719206 419.00099 22.699219 430.88086 C 22.359219 433.45086 20.780501 434.87922 18.560547 434.69922 C 8.3606731 433.42922 3.9096937 422.76971 0.009765625 413.33984 C -3.1302052 405.74997 -4.3694239 394.73945 -1.1894531 386.93945 C -0.70946669 385.73945 0.39470358 384.54469 1.7226562 384.5625 z M 20.417969 384.75586 C 24.095187 384.82816 24.919922 386.94922 24.919922 386.94922 C 26.021229 392.82385 19.826826 395.21292 16.640625 397.92969 A 100.67 100.67 0 0 0 10.279297 387.74023 C 14.977992 385.40782 18.211635 384.7125 20.417969 384.75586 z M 45.269531 390.82812 C 46.88001 390.85012 48.303519 391.38031 49.330078 392.75 C 49.330078 392.75 51.719988 396.11 41.330078 400.75 L 41.320312 400.78906 C 38.780395 399.19906 36.230437 396.01055 32.730469 395.06055 C 35.81388 394.03274 41.153935 390.77251 45.269531 390.82812 z M 31.398438 396.97266 C 38.180563 397.33196 47.381172 413.97699 50.380859 423.32031 L 50.369141 423.35938 C 55.179136 438.41913 52.929919 446.09914 49.919922 447.11914 C 39.410042 448.33914 33.530596 434.94004 30.140625 425.41016 C 27.280684 417.41016 25.070904 402.13004 29.380859 397.41016 C 30.021169 397.07266 30.696827 396.93549 31.398438 396.97266 z M 51.822266 400.64648 C 56.371291 400.61158 60.075392 402.52266 61.369141 405.41016 L 61.390625 405.41016 C 62.980623 410.50006 59.060231 414.36078 55.490234 416.55078 L 51.490234 418.61914 A 69.65 69.65 0 0 0 43.060547 403.01953 C 46.060454 401.38828 49.092798 400.6674 51.822266 400.64648 z M 168.41016 417.67969 A 55.14 55.14 0 0 1 172.23047 430.25977 L 172.21094 430.25 L 171.41016 431.67969 A 20 20 0 0 1 168.41016 417.67969 z M 160 421.33008 C 165.5699 422.13008 168.00047 428.97016 169.23047 433.91016 L 169.17969 433.92969 C 165.51969 436.47959 162.0207 438.86969 157.7207 439.92969 C 156.1207 434.82969 153.25961 428.47084 156.59961 423.21094 C 157.39961 422.11094 158.64 421.41008 160 421.33008 z M 145.24805 426.07617 C 148.37353 425.94337 151.51633 427.82157 152.93945 431.21094 L 152.93945 431.19922 A 92.32 92.32 0 0 0 155.49023 440.75 C 149.52033 442.42 143.45984 443.75 137.33984 444.75 C 137.01984 438.8501 136.22016 431.53078 141.16016 427.55078 C 142.41015 426.61328 143.82733 426.13654 145.24805 426.07617 z "
     d="m 154.26953,-0.75 c -10.7808,0 -26.39795,2.3203551 -47.00195,6.9101562 a 1.250125,1.250125 0 0 0 -0.0137,0.00391 C 87.787932,10.741327 72.276436,13.009766 60.810547,13.009766 c -5.595012,0 -15.690515,-1.520022 -25.095703,-3.1445316 C 26.310484,8.2408677 17.630957,6.529604 14.224609,6.1386719 c -4.3960454,-0.5111701 -8.844623,-0.510227 -13.365234,0 A 1.250125,1.250125 0 0 0 -0.25,7.3808594 V 143.61914 a 1.250125,1.250125 0 0 0 0.11132812,0.26953 A 1.250125,1.250125 0 0 0 -0.25,144 v 20.03516 c -1.980034,1.16413 -3.8700382,2.44455 -5.5390625,3.85546 -7.0599785,1.41 -14.2706455,2.81977 -21.6406255,2.50977 -9.87984,0.62 -16.479769,0.45883 -26.349609,0.29883 l -3,-0.29883 c -4.389857,0.16 -33.700015,-2.67118 -39,-3.29101 A 26.41,26.41 0 0 1 -96.25,158.49023 c 5.639852,-2.49986 11.000953,-5.49071 16.460938,-8.4707 0.469997,-0.94 -0.321722,-1.71891 -1.261719,-1.87891 -5.329985,2.35 -9.869681,5.7997 -15.519531,7.67969 l -0.779297,-17.08984 c 2.189991,-1.88 4.389693,-3.44048 6.429687,-5.48047 -1.999994,-3.75999 -3.919696,1.99961 -6.429687,2.34961 -2.659991,-22.25968 -9.880541,-44.050547 -26.490231,-58.320313 -5.79999,-5.319925 -13.33101,-7.998871 -20.38086,-10.798828 2.63986,-3.349957 5.09001,-6.999996 8,-10.669922 4.15985,-5.299925 7.92032,-10.190106 10.82031,-16 -0.63,-12.069818 -5.32889,-23.001363 -9.71875,-33.701172 -5.05499,-3.5249565 -11.46124,-4.8895377 -18.25,-5.0859375 -2.26296,-0.0654699 -4.56837,-0.00125 -6.88086,0.15625 v 0.03125 c -8.92984,6.3298937 -18.29,15.1193115 -23,25.6191405 2.5,12.849797 7.77016,25.729177 11.91016,37.458984 -8.27,0.6 -16.49951,1.751214 -24.60938,3.451172 0.47,-12.689777 -5.5e-4,-22.880963 -0.31055,-34.800781 -2.66993,-4.859915 -7.53121,-7.520219 -11.45117,-10.660156 l -13.1582,-8.148438 c -10.34983,-1.999968 -20.07137,2.509237 -27.28125,8.619141 -3.75994,3.769936 -1.73047,9.569738 -1.73047,14.429688 0.62999,6.899883 1.42011,13.800074 4.08008,19.75 8.30985,6.739882 16.46021,13.480082 25.08008,19.75 -14.87977,8.779848 -28.20987,26.781572 -30.08985,45.781252 -1.71997,13.16969 -0.14981,26.8092 1.41016,40.1289 -2.34996,0 -4.37873,-1.87961 -6.88867,-2.34961 a 1.34,1.34 0 0 0 0,2 c 1.87997,2 4.85901,2.19975 7.20898,3.59961 l 2.18946,15.3711 c -4.69994,-0.32 -8.7786,-2.00001 -13.47852,-3 -1.24997,-0.32 -2.82064,-1.10086 -4.39063,-0.63086 -0.77996,0.47 -0.14998,1.41086 0,1.88086 5.99992,1.87999 12.54067,3.37883 18.81055,4.79883 0.21,2.85986 0.78947,4.91953 0.93945,7.26953 -1.55995,2.34986 -1.71946,5.33125 -3.43945,7.53125 -0.47999,-0.47 -2.36008,-0.62961 -2.83008,0.15039 -0.61998,1.56999 0.93892,2.19976 1.87891,2.50976 -12.9998,28.05966 -23.99924,56.74931 -29.61914,87.79883 -1.56998,14.71983 -5.79973,34.00134 6.58008,44.20117 5.48989,4.07 15.20914,2.33938 20.53906,-0.64062 6.3499,-3.88 9.72108,-11.9007 8.62109,-20.06055 -0.16,-5.64985 -1.73066,-12.07041 0.7793,-17.40039 3.75994,19.27968 13.00059,38.72032 29.32031,48.91016 4.22995,23.34952 7.51948,47.8111 10.18946,71.80078 l -8.31055,6.58008 c -1.25999,1.40984 -1.57014,3.76062 -1.41016,5.64062 -7.68987,8.30984 -25.23897,6 -34.79883,2 -3.76992,-1.88 -7.69004,-3.45 -11,-6.58984 -1.24995,0.47 -0.30984,1.56922 0.16016,2.19922 11.75981,9.99984 30.40942,18.64898 46.86914,9.86914 0.63,1.57 0.47004,4.55023 3,4.24023 9.39985,0.47 17.70982,-0.78976 26.17969,-1.25976 l 13.48047,-0.29883 c 0.59,-0.16 3.44961,0.29976 3.59961,-1.74024 -0.47,-16.76968 0.001,-31.66016 -0.46875,-48.75 a 78.94,78.94 0 0 0 9.09961,-23.5 h 0.31054 c 3.12999,23.34968 4.70009,47.79962 6.58008,71.7793 1.1,0.94 3.99938,1.5607 5.60938,1.7207 8.14984,0.62 35.53022,1.47836 38.83007,-1.18164 2,-4.38984 2.75055,-9.94 3.06055,-15 l -1.10156,-2.18945 c -3.99999,-3.14 -7.71892,-6.60883 -11.12891,-10.38867 1.1,-22.25968 1.56961,-46.25048 2.34961,-68.66016 19.129765,-12.07984 30.001014,-36.3715 29.791018,-60.20117 1.099992,-23.49967 -3.451106,-45.46087 -7.371094,-67.56055 10.18984,-0.16 19.749927,-1.09976 30.259765,-1.25976 l 1.451172,-0.22852 c 10.33984,-0.78 20.318601,-2.24125 31.148438,-3.53125 8.871113,-1.05092 17.6682279,-3.10975 26.550781,-5.19336 v 26.12891 c -2.1477939,0.74561 -4.1970727,1.59952 -6.0292969,2.51562 -11.6298141,5.40994 -19.9506551,16.08988 -26.5605471,28.67969 -3.929948,7.45987 -11.039423,25.83077 1.400391,53.32031 12.249784,22.34968 32.4797728,35.47852 56.359375,39.47852 0.799987,0.2 2.230469,-0.12 2.230469,1 -0.32,6.84984 -0.160504,14.81039 1.439453,21.49023 -11.099827,-1 -21.9797137,1.43016 -30.0996096,7 -4.8799051,5.35 -4.4804428,15.77991 -2.4804688,24.91993 2.6499314,11.84967 8.5896745,24.2407 17.7695314,29.06054 5.739892,3.01 12.260924,-0.79898 16.880859,-2.70898 3.999918,6.84984 8.730009,14.90985 17,16.17968 14.469686,10e-6 25.050866,-6.61148 37.470703,-10.61132 7.639843,1.12 16.720001,1.91062 24.839841,0.64062 3.5,6.21 12.22899,7.18906 18.70899,7.93946 12.79968,0.71983 16.00016,-0.72938 25,-2.85938 6.65984,-2.54 13.59,-4.91937 19,-9.85938 5.09984,-4.76983 9.9e-4,-11.93992 -0.78907,-17.50976 3.13,-3.29 3.8786,-5.64 5.5586,-9 a 25,25 0 0 0 7.87109,-0.38086 c 8.68984,-1.93 11.18946,-10.15047 14.68946,-17.32031 2.99984,-5.58 8.77,-5.15938 14,-4.85938 1.58984,0.64 1.25,2.62008 1.25,4.08008 0.02,1.97 -1.44008,3.65992 -0.58008,3.91992 2.54984,-1.43 2.07015,-5.09078 1.91015,-7.64062 2.85,0.48 6.54,4.87062 7,4.14062 0.46,-0.73 -3.11023,-4.15047 -5.74023,-5.73047 2.37,-0.64 6.60109,-2.97976 6.37109,-3.50976 -0.79,-0.71 -4.30078,1 -4.30078,1 -1.73,0.92 -3.63961,1.46071 -5.59961,1.56054 0,0 -7.16953,-0.0507 -9.76953,0.5293 -7.43984,1.65 -7.87039,11.90016 -12.65039,17 -3.38,3.18 -8.44086,6.05 -13.38086,3.5 4.3,-25.62952 -7.79907,-47.13008 -22.12891,-65.75976 l 8.59961,-3.82032 c 5.89,-3.81984 13.06024,-7.16039 16.24024,-14.49023 a 103.58,103.58 0 0 0 -9.39063,-51.58984 c -6.20984,-10.97983 -31.86922,-20.18933 -45.6289,-21.7793 -1.54,-0.19 -2.76,0.7504 -4,1.40039 -3.66,-3.01996 -14.01141,-7.11133 -20.28125,-7.11133 -5.620079,0 -14.229926,7.11093 -21.759768,15.55078 -3.029997,-0.23999 -6.080316,-0.0795 -9.070313,0.48047 -3.049997,0.72 -13.749219,6.45856 -20.539062,9.22852 -12.369838,5.0499 -22.520277,11.05082 -35.580078,14.05078 -8.4398753,1.90997 -18.2400171,0.59949 -23.1699221,-6.40039 -4.1399479,-7.16991 0.789896,-14.49043 5.0898437,-20.07031 A 15.1,15.1 0 0 1 -0.25,252.30469 V 267 a 1.250125,1.250125 0 0 0 0.7109375,1.12695 C 3.3387286,269.50377 5.8145962,270.25 8,270.25 c 2.185404,0 4.661271,-0.74623 7.539062,-2.12305 A 1.250125,1.250125 0 0 0 16.25,267 v -10.2832 c 4.271368,-0.19729 7.212603,-2.24136 10.240234,-5.4961 3.179961,-3.91991 3.149098,-9.34005 1.869141,-13 v -0.0801 C 25.869011,232.20892 22.278802,229.63253 16.25,227.60156 v -29.36718 c 1.475807,-0.6694 2.922489,-1.40335 4.289062,-2.28516 6.269982,-6.26985 13.480015,-15.05008 9.410157,-24.91992 -1.999994,-4.23999 -3.919286,-8.62891 -8.619141,-9.87891 -1.691574,-0.67116 -3.388574,-0.99074 -5.080078,-1.17578 v -14.67969 c 21.974082,4.25664 36.865606,6.45508 44.560547,6.45508 11.791933,0 27.435211,-2.31984 47.001953,-6.91016 l 0.0137,-0.002 c 20.50755,-4.57768 36.03619,-6.84766 46.44336,-6.84766 10.41916,0 25.94307,2.27944 46.45899,6.84961 a 1.250125,1.250125 0 0 0 1.52148,-1.2207 V 7.3808594 A 1.250125,1.250125 0 0 0 201.27148,6.1601562 C 180.6674,1.5703364 165.0405,-0.75 154.26953,-0.75 Z m 0,2.5 c 10.22053,0 25.51329,2.2580746 45.48047,6.6640625 V 9.1621094 C 183.13605,26.53335 169.51592,39.203217 159,47 125.07024,72.169795 64.319853,93.040091 47.5,104.5 28.774775,117.26375 13.851548,129.88006 2.6113281,142.36914 H 2.25 V 8.5605469 C 6.2025905,8.1899933 10.093296,8.17432 13.935547,8.6210938 a 1.250125,1.250125 0 0 0 0.002,0 c 3.04427,0.3492648 11.911791,2.0785012 21.351562,3.7089842 9.439774,1.630483 19.48652,3.179688 25.521485,3.179688 11.791217,0 27.434518,-2.309664 47.001953,-6.9101566 l 0.0137,-0.00195 C 128.33428,4.0297682 143.85298,1.75 154.26953,1.75 Z M -153.39844,3.8847656 A 35.56,35.56 0 0 1 -137,8.5 c 4.07999,9.399911 7.51946,19.429642 8.93945,29.769531 l -0.32031,1.570313 c -6.26991,7.989932 -12.21955,17.870702 -19.43945,25.390625 -6.84998,-1.019989 -13.76931,-1.540794 -20.69922,-1.550781 A 326.92,326.92 0 0 1 -179.75,26.900391 c 2.19,-6.109934 17.99087,-22.3702451 20.63086,-22.7402348 a 35.56,35.56 0 0 1 5.7207,-0.2753906 z m -70.875,12.5722654 c 0.62025,0.01618 1.22211,0.06483 1.80274,0.152344 8.14991,5.329935 16.58005,9.691562 23,17.521484 0.63999,10.909889 1.30132,21.798929 0.36132,32.798829 v 1.53125 a 121,121 0 0 0 -18.62109,7 c -8.61991,-6.609944 -17.26915,-13.000234 -25.53906,-20.410157 -2.34998,-5.799934 -4.27046,-20.560524 -3.73047,-27.730469 l -0.0508,-0.03125 c 0.27187,-3.674956 13.47371,-11.074751 22.77734,-10.832031 z m 77.13282,80.177735 c 5.97848,0.07815 11.90313,1.7511 16.75,4.335934 a 61.27,61.27 0 0 1 10.66015,18.66992 c -7.2799,-2.19987 -12.29009,-3.80117 -15.83008,-4.20117 -9.71989,-1.87989 -22.73027,-1.91851 -31.66015,1.52149 2.62989,-6.42 6.39001,-12.54191 10,-18.341799 l 1.99023,-1.039063 c 2.64374,-0.687489 5.37228,-0.980842 8.08985,-0.945312 z m -55.63868,5.697264 c 0.50231,0.003 1.00086,0.0194 1.49024,0.0488 6.11992,3.47 11.41965,10.46875 16.59961,15.46875 -16.45985,1.05 -31.8316,4.5001 -43.27149,15 l 0.47071,-4.24023 c 0.99958,-7.02726 0.99959,-10.97598 3.99609,-18.14063 -0.0115,0.0138 -0.0237,0.0272 -0.0352,0.041 l 0.0391,-0.0488 c -0.001,0.003 -0.003,0.005 -0.004,0.008 4.42678,-5.28925 13.19984,-8.18121 20.71484,-8.13672 z m 51.66992,15.10742 a 12.42,12.42 0 0 0 0.16016,11.28125 c 1.72,2.81999 3.39996,4.54876 8.08984,5.21875 a 9.76,9.76 0 0 0 8.24024,-2.57031 c 2.81999,-2.97999 3.84906,-8.4491 1.53906,-12.20898 3.58999,0.77 4.22082,0.44914 10.2207,3.11914 0.64003,9.29987 -4.75986,16.90063 -10.58984,19.14062 -8.33988,3.20999 -17.81095,1.39052 -23.46094,-3.60937 -5.32988,-4.53999 -6.57992,-11.91051 -6.41992,-18.65039 a 42.8,42.8 0 0 1 12.2207,-1.72071 z m -36.67968,3.45117 c 4.38993,7.21 4.07836,17.5587 -1.10156,24.13868 a 22.5,22.5 0 0 1 -22.87891,5.33008 c -4.85995,-2.19 -11.69103,-9.01933 -12.79102,-15.44922 4.70995,-4.70999 5.67132,-5.12931 10.28125,-7.2793 a 11.36,11.36 0 0 0 0.93946,7.21875 c 1.40997,3.29999 3.20902,4.87078 7.20898,5.80078 4.13995,0.23 6.92018,-0.92954 9.41016,-3.76953 2.04996,-2.61999 2.69069,-6.07001 1.7207,-9.25 -0.62999,-2.35 -2.18994,-3.75992 -3.91992,-5.16992 3.28995,-1.1 7.53089,-1.10028 11.13086,-1.57032 z m 87.20703,14.58204 c 0.0719,0.78865 0.18555,1.56407 0.24219,2.35742 a 191.42,191.42 0 0 1 -48.75,28.84961 c -0.78,0.61999 -0.30945,1.71945 0.31054,2.18945 a 31.94,31.94 0 0 0 8.93946,-3.12891 c 14.25973,-6.42987 27.12041,-14.90091 39.66015,-24.30078 0,5.32999 0.780549,11.13021 0.310549,15.83008 a 115.6,115.6 0 0 1 -14.999999,6.12109 c -0.37,-1.09988 0.46891,-2.36133 0.62891,-3.61132 -0.37,-0.47 -1.00032,-0.66875 -1.57032,-0.46875 -1.71999,0.91999 -1.24891,3.27 -1.8789,5 a 98.53,98.53 0 0 1 -20.84961,6.41992 c -3.42999,0.73 -6.32176,1.17047 -8.93164,1.73047 a 2.24,2.24 0 0 0 0.4707,2 c 5.92987,0 12.67083,-2.0011 18.7207,-3.3711 l -7.80078,6.93946 c -4.85987,0.42999 -6.8595,-0.10005 -10.85937,-0.66992 a 1.7,1.7 0 0 0 -0.6211,1.88085 c 2.35,1.41 5.81056,1.47071 8.81055,1.47071 A 67.08,67.08 0 0 1 -157.2793,192.25 c -9.99986,4.38999 -25.06012,2.51003 -34,-2.33984 1.25999,-1.1 3.75996,-1.1009 3.91992,-3.30078 0,-0.79 -0.47016,-1.56993 -1.41015,-1.41993 -1.56999,1.73 -4.23081,2.0409 -5.80078,3.30078 l -9.87891,-3.76953 c 5.32994,-0.81999 10.67975,-1.56031 15.67969,-2.82031 0.54999,-0.68 0.54999,-1.65961 0,-2.34961 -8.93987,1.78 -18.01123,2.82867 -27.12109,3.13867 l -2,-4.24023 a 1.4,1.4 0 0 0 -1.71876,0.16016 c -0.46996,1.56988 0.46947,2.83058 0.93946,4.23046 A 146.4,146.4 0 0 1 -243.75,181.90039 c -1.02999,-4.76988 -1.80079,-9.58958 -2.30078,-14.43945 16.13977,4.36987 33.49191,8.79883 51.68164,8.79883 1.71999,-0.47 5.47992,1.10027 5.16992,-2.34961 -0.46999,-0.32 -0.47157,-0.79086 -1.10156,-0.63086 -1.40999,1.09999 -15.83008,-0.46875 -15.83008,-0.46875 -14.26981,-1.1 -27.27907,-5.02137 -40.12891,-8.78125 -0.11531,-0.84258 -0.18093,-1.71632 -0.29101,-2.56446 37.20198,2.16043 62.2612,2.1341 75.05078,-0.10546 45.99614,-8.03858 66.30065,-21.8448 70.91797,-25.88672 z M 2.25,145.25 h 11.5 v 91.92383 c -2.389504,0.82922 -4.3685024,1.56541 -5.4433594,2.28515 -1.1766868,0.78447 -2.0470219,2.19141 -2.6757812,4.00782 -0.6287574,1.8164 -0.9150775,4.05066 -0.34375,6.33593 a 1.250125,1.250125 0 0 0 0,0.002 c 0.4197096,1.67258 1.5492598,3.07891 3.1601562,4.12109 1.3813846,0.89373 3.1960204,1.52871 5.3027344,2.0293 v 10.19531 C 11.418516,267.18757 9.4388066,267.75 8,267.75 c -1.4388066,0 -3.4185163,-0.56239 -5.75,-1.59961 z m -101.630859,15.0293 0.791015,16.78125 c -11.089846,1.72999 -22.351096,2.20038 -33.550776,1.40039 a 53,53 0 0 1 15.36132,-11.18164 c 0.94,1.87987 2.51009,2.50141 4.08008,3.4414 5.01999,-1.59999 -1.97,-2.38086 -1.5,-4.38086 z M 16.25,162.47852 c 0.0238,0.002 0.04641,1.4e-4 0.07031,0.002 1.249998,0.94 3.758829,0.4789 4.548829,1.87891 -1.617957,0.42784 -3.122394,0.99291 -4.619141,1.57617 z m 8.060547,4.08203 c 1.299997,2.81989 3.608728,5.32915 3.298828,8.61914 -4.289388,1.03507 -8.173024,2.53926 -11.359375,5.30273 v -11.55469 c 2.580161,-1.0302 5.307576,-1.77388 8.060547,-2.36718 z M -0.25,167.57227 V 199.375 c -0.27101973,0.0469 -0.54567628,0.0878 -0.8105469,0.14453 -11.4998641,3.76999 -31.7706681,6.19003 -57.4003911,8.91992 v 0.16016 c -3.449888,0.31 -7.838211,0.47086 -10.658203,0.63086 v 0.15039 l -0.941406,-0.30078 c -0.159999,0 -0.320156,0.15078 -0.160156,0.30078 l -20.21875,0.1582 c -1.569997,-10.02987 -5.181328,-19.7499 -4.861328,-30.25976 2.819991,-1.22 7.051203,-0.44001 9.871093,-2 1.099998,-0.67 0.159297,-2.04004 -0.470703,-2.66992 -3.129988,0.93988 -6.420556,1.26086 -9.560547,1.88085 l -0.308593,-6.10937 c 9.089873,0.63 16.769111,1.71953 25.708984,2.51953 17.079849,0 31.820642,1.70999 48.900391,0 5.329982,-0.29 10.679802,-1.23 15.6796872,-2 l 0.00977,-0.11133 c 1.7396942,-1.07872 3.4743688,-2.15882 5.2207031,-3.21679 z m -164.89062,1.9414 c -4.62639,-0.01 -9.44724,1.3011 -12.89844,3.13672 l -0.5,1.69922 c 0.30883,3.29859 0.16324,7.51238 3.75976,8.61133 5,1.09999 12.9997,0.77879 16.92969,-3.45117 0.94,-3.13 -0.31,-6.26986 -1.25,-9.08985 -1.87499,-0.625 -3.93816,-0.90179 -6.04101,-0.90625 z m 193.050776,8.64649 a 26.35,26.35 0 0 1 -5.169922,11 C 21.06493,192.03694 18.806611,193.8888 16.25,195.21094 V 183.9043 c 3.360201,-2.95736 7.367351,-4.64005 11.660156,-5.74414 z m -126.550781,1.65039 c -0.16,12.2297 4.070217,23.67959 6.580078,35.27929 5.639982,33.51951 14.419905,74.60048 -3.759765,105 -9.739838,16.92982 -26.180418,23.3611 -43.740238,27.1211 -3.44986,0.47 -6.88985,1.09836 -10.33984,1.56836 -10.10984,1.07 -20.27032,1.28086 -30.41016,0.63086 -7.83983,-0.78 -14.90004,-2.83008 -22.41992,-4.08008 -14.41975,-3.13 -24.14055,-15.83116 -30.73047,-29.63086 -4.17991,-11.59984 -7,-23.66853 -7,-36.81836 0.31,-26.18953 0.31067,-51.43125 -0.77929,-77.30078 7.51986,-0.47 15.36043,-1.09045 22.57031,-2.82031 8.77985,-1.41 15.83076,-4.699 24.14062,-7.20899 7.5099,3.86999 15.84899,5.87914 24.29883,5.86914 h 1.81055 c 14.64969,-1 23.28055,-7.54015 33.15039,-16 8.01984,0.53 12.74971,-0.26964 20.42969,-0.0996 l 4.17968,-0.40039 -0.0508,-0.01 a 74.9,74.9 0 0 0 12.070315,-1.09961 z m -144.478515,4.86914 1.76953,0.26953 1.5,0.10156 c 6.90988,1 13.91926,1.13992 20.86914,0.41992 -0.16,1.43 -1.5098,1.60969 -2.25976,3.42969 -0.47,0.78 0.99946,1.57953 1.93945,1.26953 1.09998,-1.22999 2.98103,-2.35047 3.29101,-4.23047 6.74992,-0.77999 11.59953,2.03993 16.93946,3.91993 -12.69981,5.32984 -27.33033,8.29984 -42.33008,9.08984 -0.62999,-4.69999 -1.09875,-9.26968 -1.71875,-14.26953 z m 290.609374,7.34961 c 0.0075,0.0109 0.01582,0.0205 0.02344,0.0312 0.0054,-0.003 0.01022,-0.007 0.01563,-0.01 z m 0.02344,0.0312 c -2.487448,1.41563 -3.328156,4.83419 -5.433594,6.83984 -3.149997,3.86999 -8.090415,4.80947 -12.40039,6.93945 a 1.26,1.26 0 0 0 1.609374,1.69922 c 7.389982,-1.56999 14.700424,-6.12815 17.650391,-12.82812 0.12835,-1.4217 -0.833482,-1.81314 -1.425781,-2.65039 z m -292.224612,9.54883 c 0.78,8.46987 1.10001,18.19041 1.25,26.65039 v 53.76953 c -0.46999,7.05989 -2.97961,13.01002 -3.59961,19.75 0.77999,10.81987 2.0306,23.67027 -7.52929,29.16015 -1.87998,-2.66988 -2.03104,-5.93946 -3.29102,-8.93945 -0.47,-2.18999 0.31053,-4.69993 -0.93945,-6.41992 -0.59,-0.63 -1.37001,-0.14961 -2,0.15039 -0.31,6.14989 1.40955,11.29039 3.76953,16.15039 -2.66998,0.94 -5.77933,1.7193 -8.7793,0.7793 a 25.58,25.58 0 0 1 -5.17969,-14.41993 c 0.32,-1.4099 -1.40961,-1.88015 -2.34961,-1.41015 -0.60996,5.48989 1.59004,10.35 3,14.75 -11.94983,-9.72989 -7.40996,-27.92061 -6,-41.40039 5.17996,-30.87964 16.92906,-59.25051 29.62891,-87.16016 h 0.0195 c 0.12,-1.09 1.06001,-1.25026 2,-1.41015 z m 290.421878,5.28124 c 0.0032,0.01 0.0047,0.0194 0.0078,0.0293 h 0.002 z m 0.0078,0.0293 c -1.757618,-0.24837 -1.38863,1.44089 -2.068359,2.31055 -2.699998,2.39999 -5.430164,4.48008 -9.160157,5.08008 -0.499997,1.00999 0.450003,1.04914 1,1.61914 4.392392,-1.34767 12.042534,-3.26302 10.228516,-9.00977 z M 16.25,230.54102 c 3.994698,1.29237 7.094834,4.02096 9.330078,7.92968 l 0.07031,0.0293 c 1.429974,2.54996 0.899974,8.4501 -0.75,10.58008 -3.339201,3.61097 -6.003301,4.93452 -9.480469,4.75976 a 1.250125,1.250125 0 0 0 -0.173828,-0.0664 c -2.400624,-0.48014 -4.219812,-1.15695 -5.4414065,-1.94727 -1.2209068,-0.78987 -1.8412391,-1.63229 -2.0917969,-2.6289 v -0.002 c -0.4280195,-1.71404 -0.2147995,-3.47906 0.28125,-4.91211 0.4962375,-1.43357 1.3759111,-2.52666 1.6992188,-2.74218 a 1.250125,1.250125 0 0 0 0.00195,-0.002 c 0.7563195,-0.50672 2.7379675,-1.36644 5.6992185,-2.35351 A 1.250125,1.250125 0 0 0 16.25,238 Z m -16.5,1.82031 v 16.63672 c -7.6340164,5.48753 -12.350502,13.75978 -12.070312,21.70117 0.105836,2.22947 0.894851,4.16011 2.042968,5.85156 -9.97091,19.70306 -14.574889,33.88355 -13.826172,42.54297 -1.346904,-1.79898 -2.658103,-3.64849 -3.90625,-5.58398 -7.159866,-12.41982 -9.869905,-29.45948 -5.25,-43.94922 3.499961,-11.93982 10.700707,-23.14029 20.060547,-30.41016 A 47.33,47.33 0 0 1 -0.25,232.36133 Z m -47.607422,1.69922 c -1.357497,-0.009 -2.49024,2.19879 -3.802734,2.79883 -4.299988,5.73998 -10.240232,11.94025 -9.240235,19.74023 0.639998,0 1.280002,0.31984 1.75,-0.16016 0.599999,-6.67998 4.599621,-12.25978 8.59961,-17.50976 1.436118,-1.4461 3.181085,-2.5638 4.132812,-3.98828 -0.514537,-0.63052 -0.989197,-0.87791 -1.439453,-0.88086 z m 1.439453,0.88086 c 0.0026,0.003 0.0052,0.005 0.0078,0.008 v -0.0195 c -0.0026,0.004 -0.0052,0.008 -0.0078,0.0117 z m 14.81836,0.44921 c -9.389973,4.77 -17.990082,15.75879 -19.580079,27.21876 0.950002,0.31999 0.630007,0.80031 1.75,0.32031 a 42,42 0 0 1 19.09961,-26.14063 v -1.23828 z m 134.960939,9.20508 c 6.18149,-0.10968 13.05545,3.37357 16.10937,5.49414 l -0.041,0.0195 c -3.32,1.81995 -15.62891,8.82033 -18.87891,11.82031 a 105.07,105.07 0 0 0 -16.080077,-4.93946 c 6.369994,-6.20989 9.220268,-11.00024 16.999997,-12.24023 0.61969,-0.0937 1.25115,-0.14295 1.89063,-0.1543 z m 21.50781,5.86524 c 9.38984,-0.63 40.25094,10.09835 44.55078,19.6582 6.53,14.99978 10.6,33.05099 9,50.7207 -11.30984,13.70984 -39.42024,22.57938 -62.41992,22.85938 -9.07984,-6.68984 -17.641015,-17.42961 -23.380859,-27.93945 -2.539998,-4.76995 -3.659689,-10.34971 -4.929688,-15.59961 l -1,-0.80078 c -1.645578,2.54824 -0.365499,5.64652 0.0625,8.52734 C 84.543005,302.59177 83.30906,298.08396 83.5,295 c 0.44567,-7.13062 4.875253,-22.97397 13.265625,-29.52539 -1.780838,2.36583 -4.398062,4.69058 -4.794922,7.91601 0.47,0.64 1.58836,0.32002 2.068359,0 A 78.57,78.57 0 0 1 124.86914,250.46094 Z M 64.869141,263.35547 C 69.492166,270.65072 75.631549,278.55724 75,290.5 c -0.26,4.89998 -0.389767,9.82924 -1.759766,14.19922 -11.454038,8.85625 -26.567303,0.67012 -45.332031,-24.5 5.647362,-2.37923 11.084147,-5.24696 16.451172,-7.59961 6.886383,-3.01893 13.620743,-6.20638 20.509766,-9.24414 z m -3.054688,7.42969 c -3.250897,0.0903 -6.869617,1.21313 -9.833984,2.76562 -5.609995,2.99999 -11.359688,7.00002 -11.929688,14 a 8.35,8.35 0 0 0 3.189453,6.84961 c 2.379998,1.78999 6.360492,1.26906 9.230469,0.78906 7.639992,-1.74999 14.329555,-6.29018 17.519531,-14.41015 a 9.19,9.19 0 0 0 -1.740234,-8 v -0.0488 c -1.601248,-1.46125 -3.907059,-2.01555 -6.435547,-1.94531 z M 62.027344,274 c 2.064848,-0.0225 3.850235,0.53493 4.802734,2.91992 l -0.0293,0.01 c 0.73,3.13999 -1.000002,5.53993 -3,7.16992 -0.589999,-1.99999 -3.330392,-2.31929 -5.40039,-1.5293 -1.429999,0.8 -3.679531,2.71001 -3.269532,5 0.41,2.29 1.669922,2.73047 1.669922,2.73047 -3.199997,1.52 -7.000395,3.18015 -11.15039,1.91016 -2.689998,-1.51 -3.130312,-4.9404 -1.820313,-7.40039 3.829976,-7.20998 10.490573,-9.41063 16.060547,-10.64063 0.729999,-0.09 1.448439,-0.16242 2.136719,-0.16992 z m 91.062496,66.59961 c 11.13984,12.89984 20.05969,28.19173 22.92969,45.54101 0.63,9.71 0.47039,20.38001 -4.93945,28.33985 -5.73,-15.59984 -15.00102,-30.41142 -25.4707,-43.62109 -1.12001,-1.28 -2.54883,-2.54852 -4.29883,-2.22852 -0.8,0.47 -0.31985,1.58836 0.16015,2.06836 7.64,8.11984 12.72977,18.31149 19.09961,27.86133 l 7,16.24023 c -1.75,1.75 -2.07015,4.78008 -1.91015,7.33008 -2.39,-2.07 -5.25977,-4.30047 -8.59961,-2.39063 a 10.57,10.57 0 0 0 -4.30078,7.32032 c -1.43,-2.23 -3.9993,-3.18 -6.5293,-3.5 -4.61,0.48 -7.65961,1.76031 -10.34961,7.16015 a 54.82,54.82 0 0 0 -0.95117,14.49024 c -7.99984,0.16 -15.92016,-1.11016 -22,-5.25 -0.58,-7.70984 -0.44055,-10.2804 -4.65039,-25.33008 A 149,149 0 0 0 96.279297,385.80078 c 0,0 -0.328752,-1.43117 -1.71875,-0.45117 -1.389999,0.98 0,2.38086 0,2.38086 7.489843,15.28968 14.170003,31.04954 15.000003,49.19922 -5.89,1.6 -13.060549,0.48015 -18.150394,0.16015 0.949999,-0.79 2.999844,-0.47102 3.339844,-2.23046 -0.47,-1.43001 -2.540157,-0.62891 -3.660156,-0.62891 -9.99984,2.23 -18.059848,6.29914 -28.179688,9.86914 0,0 -7.329767,2.23078 -8.759765,2.55078 3.219996,-7.47984 0.479997,-17.84094 -1.75,-25.80078 4.999995,-2.09 11.82914,-5.83016 11.61914,-14 -0.07,-2.72 -2.228674,-5.0993 -4.138672,-6.5293 -2.699997,-1.75 -6.051247,-2.23015 -9.871093,-1.91015 1.119849,-1.43 2.709842,-3.34016 1.589843,-5.41016 a 8.37,8.37 0 0 0 -2.699218,-3 c 10.349839,-2.07 20.700316,-0.3207 30.410156,1.2793 0.16,-0.32 1.268671,-0.47914 0.638672,-1.11914 -3.509997,-2.23 -8.280076,-2.54985 -12.419922,-3.33985 -9.87984,-1.75 -21.159766,0.45016 -29.599609,3.16016 -3.089172,-4.49696 -5.145416,-9.68745 -6.476563,-15.10938 11.482084,9.74735 68.878835,-27.93191 76.833985,-33.23632 2.46201,2.40499 2.9529,3.3026 7.57227,5.52539 12.25968,-0.31 26.56062,-3.37055 37.23046,-6.56055 z M -115.06055,342.75 c -1.09999,21.46976 -0.66992,44.66993 -2.66992,66.92969 2.81999,5.95988 8.47128,8.00047 12.70117,12.23047 0,4.53988 -0.62977,9.40031 -2.50976,13.32031 -0.63,0.16 -1.41086,-0.13933 -1.88086,0.16015 v -0.4707 c 0.63,-3.75988 1.40916,-8.94086 -0.4707,-12.38086 -0.31003,-0.63 -1.71891,-0.62961 -1.87891,0.15039 0.67,4.23 0.44914,8.56129 -0.63086,12.70117 -1.71999,0.78 -4.22969,0.30836 -6.42969,0.46876 0.63,-4.60001 1.41929,-9.77013 -0.4707,-14 -0.62,-0.16001 -1.71946,-0.46985 -2.18945,0.16015 0.7799,4.54 1.09984,9.40102 -0.16016,13.79102 h -5 c -2.97999,0.47 -16.30876,-0.15961 -20.21875,-1.09961 l -1.89063,-22.41016 -6.10937,-59.41992 0.30859,-0.62109 -0.01,0.0508 c 14.73977,-0.63 27.27998,-4.70055 39.50976,-9.56055 z m -95.15039,3.55078 c 0.001,0.007 0.003,0.0144 0.004,0.0215 6.26891,2.49861 13.3279,3.26841 20.06641,4.99804 4.54992,-0.16 8.31057,1.88985 12.23046,1.08985 2.66,0.79 6.11012,0.1589 9.25,0.6289 -0.16,28.68964 1.25039,54.872 0.15039,82.93164 -1.55988,0.47 -3.59937,-0.16086 -4.85937,0.61914 -1.41,-1.24999 -3.44992,0.62922 -3.91992,-0.30078 v 0.30078 c -5.79996,0.16 -11.91085,0.16063 -17.55078,0.64063 0,-1.1 -0.63086,-2.05078 -0.63086,-3.30078 -1.56999,-2.51 1.87979,-8.78039 -2.66016,-8.15039 -0.93999,3.91988 7e-4,7.99 0.4707,11.75 -2.19996,-0.81 -7.68928,2.0414 -6.27929,-2.8086 -0.47,-2.98988 0.15889,-6.59156 -0.6211,-9.10156 -0.46999,-0.16 -1.5689,-0.46984 -1.8789,0.16016 a 36.76,36.76 0 0 0 0,11.75 l -1.57032,-0.3086 a 39.9,39.9 0 0 1 -1.57031,-11.60156 l 9.41016,-7.67969 0.31054,-1.09961 c -3.44888,-23.53235 -5.80049,-47.52443 -10.34765,-70.51757 -0.001,-5.4e-4 -0.003,-8.8e-4 -0.004,-0.002 z m 236.671878,31.49805 c 0.919986,0.0263 1.834869,0.22664 3.089843,0.68164 l -0.01172,0.0195 a 66.31,66.31 0 0 0 5.660157,12.36914 c -2.999961,1.75 -7.408386,2.4417 -9.31836,6.10156 -3.819948,11.29986 0.159717,23.4003 3.179688,33.91016 l -4.451172,1.9082 c 2.269954,-11.22986 -2.870072,-22.60881 -7,-32.63867 3.659928,-3.5 10.670768,-6.21094 9.550781,-13.21094 -0.319997,-1.6 -1.269388,-3.51 -2.859375,-4 l -3.191406,-0.63867 c 1.599954,-0.8 2.000469,-3.15062 2.230469,-4.14062 1.274984,-0.24 2.201093,-0.38758 3.121094,-0.36133 z m -5.791016,0.39062 c 0,0 0.730334,0 0.07031,1.25 l 0.03906,0.01 c -1.249997,2.33 -4.930039,3.35109 -8,4.62109 l -4.2988282,1.75 a 14.47,14.47 0 0 0 -4.6796876,-3 L 4.5,382.4707 c 4.7799752,-2.06992 10.589977,-4.12125 16.169922,-4.28125 z M 1.7226562,384.5625 c 0.4426497,0.006 0.9092193,0.1468 1.3867188,0.4668 3.1799408,1.75 6.000016,5.31992 8,8.66992 h -0.03906 c 6.779932,11.59987 12.648894,25.30177 11.628907,37.18164 -0.34,2.57 -1.918718,3.99836 -4.138672,3.81836 -10.1998739,-1.27 -14.6508533,-11.92951 -18.55078137,-21.35938 -3.13997083,-7.58987 -4.37918953,-18.60039 -1.19921873,-26.40039 0.47998641,-1.2 1.58415668,-2.39476 2.9121093,-2.37695 z m 18.6953128,0.19336 c 3.677218,0.0723 4.501953,2.19336 4.501953,2.19336 1.101307,5.87463 -5.093096,8.2637 -8.279297,10.98047 a 100.67,100.67 0 0 0 -6.361328,-10.18946 c 4.698695,-2.33241 7.932338,-3.02773 10.138672,-2.98437 z m 24.851562,6.07226 c 1.610479,0.022 3.033988,0.55219 4.060547,1.92188 0,0 2.38991,3.36 -8,8 l -0.0098,0.0391 c -2.539917,-1.59 -5.089875,-4.77851 -8.589843,-5.72851 3.083411,-1.02781 8.423466,-4.28804 12.539062,-4.23243 z m -13.871093,6.14454 c 6.782125,0.3593 15.982734,17.00433 18.982421,26.34765 l -0.01172,0.0391 c 4.809995,15.05975 2.560778,22.73976 -0.449219,23.75976 -10.50988,1.22 -16.389326,-12.1791 -19.779297,-21.70898 -2.859941,-8 -5.069721,-23.28012 -0.759766,-28 0.64031,-0.3375 1.315968,-0.47467 2.017579,-0.4375 z m 20.423828,3.67382 c 4.549025,-0.0349 8.253126,1.87618 9.546875,4.76368 h 0.02148 c 1.589998,5.0899 -2.330394,8.95062 -5.900391,11.14062 l -4,2.06836 a 69.65,69.65 0 0 0 -8.429687,-15.59961 c 2.999907,-1.63125 6.032251,-2.35213 8.761719,-2.37305 z m 116.587894,17.03321 a 55.14,55.14 0 0 1 3.82031,12.58008 l -0.0195,-0.01 -0.80078,1.42969 a 20,20 0 0 1 -3,-14 z M 160,421.33008 c 5.5699,0.8 8.00047,7.64008 9.23047,12.58008 l -0.0508,0.0195 c -3.66,2.5499 -7.15899,4.94 -11.45899,6 -1.6,-5.1 -4.46109,-11.45885 -1.12109,-16.71875 0.8,-1.1 2.04039,-1.80086 3.40039,-1.88086 z m -14.75195,4.74609 c 3.12548,-0.1328 6.26828,1.7454 7.6914,5.13477 v -0.0117 a 92.32,92.32 0 0 0 2.55078,9.55078 c -5.9699,1.67 -12.03039,3 -18.15039,4 -0.32,-5.8999 -1.11968,-13.21922 3.82032,-17.19922 1.24999,-0.9375 2.66717,-1.41424 4.08789,-1.47461 z"
     transform="translate(306,25)" />
</svg>
