<?xml version="1.0" encoding="UTF-8" standalone="no"?>
<svg
   viewBox="0 0 556 500"
   version="1.1"
   id="svg35"
   sodipodi:docname="maus-elefant-negativ.svg"
   inkscape:version="1.3.2 (091e20ef0f, 2023-11-25)"
   xmlns:inkscape="http://www.inkscape.org/namespaces/inkscape"
   xmlns:sodipodi="http://sodipodi.sourceforge.net/DTD/sodipodi-0.dtd"
   xmlns="http://www.w3.org/2000/svg"
   xmlns:svg="http://www.w3.org/2000/svg">
  <sodipodi:namedview
     id="namedview35"
     pagecolor="#ffffff"
     bordercolor="#666666"
     borderopacity="1.0"
     inkscape:showpageshadow="2"
     inkscape:pageopacity="0.0"
     inkscape:pagecheckerboard="0"
     inkscape:deskcolor="#d1d1d1"
     showgrid="false"
     inkscape:zoom="0.46677377"
     inkscape:cx="504.52706"
     inkscape:cy="182.10106"
     inkscape:window-width="1436"
     inkscape:window-height="866"
     inkscape:window-x="0"
     inkscape:window-y="0"
     inkscape:window-maximized="0"
     inkscape:current-layer="svg35" />
  <defs
     id="defs1" />
  <path
     id="rect43"
     style="fill:#000000;fill-opacity:1;stroke:none;stroke-width:28.3941;stroke-linejoin:round;stroke-dashoffset:109.984;stroke-opacity:1"
     d="M 0 0 L 0 500 L 556 500 L 556 0 L 0 0 z M 460.26953 24.25 C 471.04049 24.25 486.66742 26.570341 507.27148 31.160156 A 1.250125 1.250125 0 0 1 508.25 32.380859 L 508.25 168.61914 A 1.250125 1.250125 0 0 1 506.72852 169.83984 C 486.21262 165.26968 470.68868 162.99023 460.26953 162.99023 C 449.86237 162.99023 434.3337 165.26022 413.82617 169.83789 L 413.8125 169.83984 C 394.24578 174.43016 378.60247 176.75 366.81055 176.75 C 359.11561 176.75 344.22406 174.55156 322.25 170.29492 L 322.25 184.97461 C 323.9415 185.15965 325.63851 185.47923 327.33008 186.15039 C 332.02993 187.40039 333.94923 191.78931 335.94922 196.0293 C 340.01907 205.89913 332.80904 214.67938 326.53906 220.94922 C 325.17249 221.83103 323.72581 222.56498 322.25 223.23438 L 322.25 252.60156 C 328.2788 254.63253 331.86901 257.2089 334.35938 263.14062 L 334.35938 263.2207 C 335.63933 266.88065 335.67019 272.3008 332.49023 276.2207 C 329.46261 279.47544 326.52136 281.51951 322.25 281.7168 L 322.25 292 A 1.250125 1.250125 0 0 1 321.53906 293.12695 C 318.66127 294.50377 316.1854 295.25 314 295.25 C 311.8146 295.25 309.33873 294.50377 306.46094 293.12695 A 1.250125 1.250125 0 0 1 305.75 292 L 305.75 277.30469 A 15.1 15.1 0 0 0 302.90039 279.60938 C 298.60045 285.18926 293.6706 292.50978 297.81055 299.67969 C 302.74045 306.67956 312.54061 307.99005 320.98047 306.08008 C 334.04026 303.08012 344.19072 297.07919 356.56055 292.0293 C 363.35038 289.25934 374.04962 283.52078 377.09961 282.80078 C 380.0896 282.24081 383.13993 282.08032 386.16992 282.32031 C 393.69976 273.88047 402.3097 266.76953 407.92969 266.76953 C 414.19952 266.76953 424.55094 270.8609 428.21094 273.88086 C 429.45094 273.23087 430.67094 272.29047 432.21094 272.48047 C 445.9706 274.07044 471.63001 283.27995 477.83984 294.25977 A 103.58 103.58 0 0 1 487.23047 345.84961 C 484.05047 353.17944 476.88023 356.52001 470.99023 360.33984 L 462.39062 364.16016 C 476.72045 382.78982 488.81953 404.29043 484.51953 429.91992 C 489.45953 432.46992 494.52039 429.59992 497.90039 426.41992 C 502.68039 421.32009 503.11095 411.06992 510.55078 409.41992 C 513.15078 408.83992 520.32031 408.89062 520.32031 408.89062 C 522.28031 408.79079 524.18992 408.25008 525.91992 407.33008 C 525.91992 407.33008 529.4307 405.62008 530.2207 406.33008 C 530.4507 406.86008 526.21961 409.19984 523.84961 409.83984 C 526.47961 411.41984 530.04984 414.84031 529.58984 415.57031 C 529.12984 416.30031 525.43984 411.90969 522.58984 411.42969 C 522.74984 413.97952 523.22952 417.64031 520.67969 419.07031 C 519.81969 418.81031 521.27977 417.12039 521.25977 415.15039 C 521.25977 413.69039 521.5996 411.71031 520.00977 411.07031 C 514.77977 410.77031 509.0096 410.34969 506.00977 415.92969 C 502.50977 423.09952 500.01014 431.32 491.32031 433.25 A 25 25 0 0 1 483.44922 433.63086 C 481.76922 436.99086 481.02062 439.34086 477.89062 442.63086 C 478.68062 448.20069 483.77952 455.37079 478.67969 460.14062 C 473.26969 465.08062 466.33952 467.46 459.67969 470 C 450.67986 472.13 447.47935 473.57921 434.67969 472.85938 C 428.19969 472.10938 419.4707 471.12992 415.9707 464.91992 C 407.85087 466.18992 398.77069 465.3993 391.13086 464.2793 C 378.71103 468.27913 368.12983 474.89063 353.66016 474.89062 C 345.39017 473.62079 340.66007 465.56077 336.66016 458.71094 C 332.04023 460.62094 325.51918 464.42992 319.7793 461.41992 C 310.59945 456.60009 304.65969 444.20904 302.00977 432.35938 C 300.00979 423.21938 299.61033 412.78945 304.49023 407.43945 C 312.61012 401.86962 323.49003 399.43945 334.58984 400.43945 C 332.98989 393.75962 332.83039 385.79905 333.15039 378.94922 C 333.15039 377.82922 331.71991 378.14922 330.91992 377.94922 C 307.04035 373.94922 286.81032 360.82036 274.56055 338.4707 C 262.12075 310.98119 269.23021 292.61025 273.16016 285.15039 C 279.77004 272.56059 288.0909 261.88064 299.7207 256.4707 C 301.55293 255.5546 303.60221 254.70069 305.75 253.95508 L 305.75 227.82617 C 296.86746 229.90978 288.07032 231.96861 279.19922 233.01953 C 268.36939 234.30953 258.39061 235.77078 248.05078 236.55078 L 246.59961 236.7793 C 236.08978 236.9393 226.52967 237.87906 216.33984 238.03906 C 220.25983 260.13872 224.81093 282.09996 223.71094 305.59961 C 223.92093 329.42926 213.04959 353.72095 193.91992 365.80078 C 193.13992 388.21044 192.67031 412.20128 191.57031 434.46094 C 194.9803 438.24077 198.69923 441.70961 202.69922 444.84961 L 203.80078 447.03906 C 203.49078 452.09906 202.74023 457.64923 200.74023 462.03906 C 197.44039 464.69906 170.05999 463.8407 161.91016 463.2207 C 160.30016 463.0607 157.40078 462.44 156.30078 461.5 C 154.42079 437.52034 152.85069 413.07036 149.7207 389.7207 L 149.41016 389.7207 A 78.94 78.94 0 0 1 140.31055 413.2207 C 140.7803 430.31053 140.3093 445.20104 140.7793 461.9707 C 140.6293 464.0107 137.76969 463.55094 137.17969 463.71094 L 123.69922 464.00977 C 115.22936 464.47977 106.91937 465.73953 97.519531 465.26953 C 94.989574 465.57953 95.149531 462.5993 94.519531 461.0293 C 78.059828 469.80913 59.410189 461.15999 47.650391 451.16016 C 47.180391 450.53016 46.240286 449.43094 47.490234 448.96094 C 50.800191 452.10077 54.720318 453.67078 58.490234 455.55078 C 68.050085 459.55078 85.5992 461.86061 93.289062 453.55078 C 93.129083 451.67078 93.43923 449.31999 94.699219 447.91016 L 103.00977 441.33008 C 100.33979 417.34042 97.050258 392.87879 92.820312 369.5293 C 76.500609 359.33947 67.259936 339.8988 63.5 320.61914 C 60.990043 325.94912 62.560703 332.36969 62.720703 338.01953 C 63.820692 346.17937 60.449503 354.20008 54.099609 358.08008 C 48.769695 361.06008 39.050431 362.7907 33.560547 358.7207 C 21.180749 348.52088 25.41049 329.23935 26.980469 314.51953 C 32.600363 283.47004 43.599822 254.78034 56.599609 226.7207 C 55.65962 226.4107 54.100724 225.78093 54.720703 224.21094 C 55.190703 223.43094 57.070792 223.59055 57.550781 224.06055 C 59.27077 221.86055 59.430286 218.87915 60.990234 216.5293 C 60.840255 214.1793 60.260781 212.11962 60.050781 209.25977 C 53.780908 207.83977 47.240148 206.34093 41.240234 204.46094 C 41.090255 203.99094 40.460275 203.05008 41.240234 202.58008 C 42.810223 202.11008 44.380891 202.89094 45.630859 203.21094 C 50.330775 204.21093 54.40944 205.89094 59.109375 206.21094 L 56.919922 190.83984 C 54.569954 189.43999 51.590906 189.24023 49.710938 187.24023 A 1.34 1.34 0 0 1 49.710938 185.24023 C 52.220875 185.71023 54.249652 187.58984 56.599609 187.58984 C 55.039641 174.27016 53.469485 160.63061 55.189453 147.46094 C 57.069431 128.46128 70.399542 110.45953 85.279297 101.67969 C 76.659435 95.40978 68.50906 88.669564 60.199219 81.929688 C 57.539251 75.979768 56.74913 69.079564 56.119141 62.179688 C 56.119141 57.319746 54.089673 51.519932 57.849609 47.75 C 65.059482 41.640102 74.78104 37.130893 85.130859 39.130859 L 98.289062 47.279297 C 102.20902 50.419231 107.07031 53.079543 109.74023 57.939453 C 110.05023 69.859259 110.52078 80.05047 110.05078 92.740234 C 118.16064 91.040278 126.39016 89.889062 134.66016 89.289062 C 130.52016 77.559266 125.25 64.679862 122.75 51.830078 C 127.46 41.33026 136.82017 32.540825 145.75 26.210938 L 145.75 26.179688 C 148.06249 26.022188 150.3679 25.957968 152.63086 26.023438 C 159.41961 26.219837 165.82587 27.584422 170.88086 31.109375 C 175.27071 41.809173 179.96961 52.740741 180.59961 64.810547 C 177.69962 70.620435 173.93914 75.510627 169.7793 80.810547 C 166.86931 84.480469 164.41915 88.130515 161.7793 91.480469 C 168.82914 94.280423 176.36017 96.959377 182.16016 102.2793 C 198.76983 116.54905 205.9904 138.33995 208.65039 160.59961 C 211.16038 160.24961 213.08009 154.49001 215.08008 158.25 C 213.04009 160.28999 210.84038 161.85047 208.65039 163.73047 L 209.42969 180.82031 C 215.07953 178.94032 219.61924 175.49062 224.94922 173.14062 C 225.88921 173.30062 226.68093 174.07953 226.21094 175.01953 C 220.75096 177.99952 215.38985 180.99038 209.75 183.49023 A 26.41 26.41 0 0 0 210.2207 192.10938 C 215.52068 192.72923 244.83085 195.56039 249.2207 195.40039 L 252.2207 195.69922 C 262.09053 195.85922 268.69048 196.02039 278.57031 195.40039 C 285.94028 195.71039 293.15097 194.30062 300.21094 192.89062 C 301.87996 191.47972 303.76997 190.19929 305.75 189.03516 L 305.75 169 A 1.250125 1.250125 0 0 1 305.86133 168.88867 A 1.250125 1.250125 0 0 1 305.75 168.61914 L 305.75 32.380859 A 1.250125 1.250125 0 0 1 306.85938 31.138672 C 311.37998 30.628445 315.82855 30.627502 320.22461 31.138672 C 323.63095 31.529604 332.31049 33.240869 341.71484 34.865234 C 351.12002 36.489742 361.21554 38.009766 366.81055 38.009766 C 378.27642 38.009766 393.78808 35.741326 413.25391 31.164062 A 1.250125 1.250125 0 0 1 413.26758 31.160156 C 433.87156 26.57036 449.48874 24.25 460.26953 24.25 z M 460.26953 26.75 C 449.85299 26.75 434.33434 29.029772 413.82617 33.597656 L 413.8125 33.599609 C 394.24508 38.200097 378.60175 40.509766 366.81055 40.509766 C 360.77559 40.509766 350.72883 38.960559 341.28906 37.330078 C 331.8493 35.699597 322.98177 33.970358 319.9375 33.621094 A 1.250125 1.250125 0 0 0 319.93555 33.621094 C 316.0933 33.174321 312.20259 33.189994 308.25 33.560547 L 308.25 167.36914 L 308.61133 167.36914 C 319.85154 154.88007 334.77479 142.26374 353.5 129.5 C 370.31984 118.0401 431.07027 97.16977 465 72 C 475.51591 64.203225 489.13607 51.533333 505.75 34.162109 L 505.75 33.414062 C 485.78284 29.008079 470.49005 26.75 460.26953 26.75 z M 152.60156 28.884766 A 35.56 35.56 0 0 0 146.88086 29.160156 C 144.24087 29.530146 128.44 45.790463 126.25 51.900391 A 326.92 326.92 0 0 0 137.48047 88.679688 C 144.41037 88.689676 151.32971 89.210481 158.17969 90.230469 C 165.39958 82.710553 171.34924 72.829768 177.61914 64.839844 L 177.93945 63.269531 C 176.51946 52.929653 173.07999 42.899902 169 33.5 A 35.56 35.56 0 0 0 152.60156 28.884766 z M 81.726562 41.457031 C 72.422942 41.214311 59.221088 48.61411 58.949219 52.289062 L 59 52.320312 C 58.460011 59.490248 60.380491 74.250853 62.730469 80.050781 C 71.00037 87.460697 79.64963 93.851 88.269531 100.46094 A 121 121 0 0 1 106.89062 93.460938 L 106.89062 91.929688 C 107.83062 80.929798 107.16929 70.040737 106.5293 59.130859 C 100.10935 51.300945 91.679199 46.939305 83.529297 41.609375 C 82.948667 41.521865 82.346812 41.473211 81.726562 41.457031 z M 158.85938 121.63477 C 156.14184 121.59924 153.41327 121.89259 150.76953 122.58008 L 148.7793 123.61914 C 145.16931 129.41902 141.40918 135.54094 138.7793 141.96094 C 147.70917 138.52094 160.71957 138.55957 170.43945 140.43945 C 173.97944 140.83945 178.98964 142.44074 186.26953 144.64062 A 61.27 61.27 0 0 0 175.60938 125.9707 C 170.76251 123.38575 164.83786 121.71292 158.85938 121.63477 z M 103.2207 127.33203 C 95.705711 127.28754 86.932635 130.17951 82.505859 135.46875 C 79.509362 142.63339 79.509345 146.58212 78.509766 153.60938 L 78.039062 157.84961 C 89.478941 147.34972 104.85071 143.89961 121.31055 142.84961 C 116.13059 137.84961 110.83085 130.85086 104.71094 127.38086 C 104.22156 127.35146 103.72301 127.33503 103.2207 127.33203 z M 82.505859 135.46875 C 82.507059 135.46575 82.508566 135.46394 82.509766 135.46094 L 82.470703 135.50977 C 82.482173 135.49597 82.494339 135.48255 82.505859 135.46875 z M 154.89062 142.43945 A 42.8 42.8 0 0 0 142.66992 144.16016 C 142.50992 150.90003 143.75997 158.27056 149.08984 162.81055 C 154.73983 167.81043 164.21091 169.62991 172.55078 166.41992 C 178.38076 164.17993 183.78062 156.57916 183.14062 147.2793 C 177.14074 144.6093 176.50991 144.93016 172.91992 144.16016 C 175.22992 147.92003 174.20085 153.38915 171.38086 156.36914 A 9.76 9.76 0 0 1 163.14062 158.93945 C 158.45074 158.26946 156.77078 156.54069 155.05078 153.7207 A 12.42 12.42 0 0 1 154.89062 142.43945 z M 118.21094 145.89062 C 114.61097 146.36062 110.37002 146.36094 107.08008 147.46094 C 108.81006 148.87094 110.37001 150.28086 111 152.63086 C 111.96999 155.81085 111.32925 159.26087 109.2793 161.88086 C 106.78932 164.72085 104.00909 165.88039 99.869141 165.65039 C 95.869185 164.72039 94.070125 163.1496 92.660156 159.84961 A 11.36 11.36 0 0 1 91.720703 152.63086 C 87.110778 154.78085 86.149398 155.20017 81.439453 159.91016 C 82.539442 166.34004 89.370524 173.16938 94.230469 175.35938 A 22.5 22.5 0 0 0 117.10938 170.0293 C 122.28929 163.44932 122.60086 153.10061 118.21094 145.89062 z M 205.41797 160.47266 C 200.80065 164.51457 180.49609 178.3208 134.5 186.35938 C 121.71043 188.59894 96.651162 188.62527 59.449219 186.46484 C 59.559299 187.31298 59.624924 188.18672 59.740234 189.0293 C 72.590062 192.78917 85.599345 196.71055 99.869141 197.81055 C 99.869141 197.81055 114.28923 199.37929 115.69922 198.2793 C 116.32921 198.1193 116.33079 198.59016 116.80078 198.91016 C 117.11078 202.36003 113.35085 200.78977 111.63086 201.25977 C 93.441148 201.25977 76.088973 196.8308 59.949219 192.46094 C 60.449208 197.3108 61.220011 202.13052 62.25 206.90039 A 146.4 146.4 0 0 0 87.330078 207.83984 C 86.860089 206.43997 85.920655 205.17925 86.390625 203.60938 A 1.4 1.4 0 0 1 88.109375 203.44922 L 90.109375 207.68945 C 99.219236 207.37945 108.29061 206.33078 117.23047 204.55078 C 117.78046 205.24078 117.78046 206.22039 117.23047 206.90039 C 112.23053 208.16039 106.88072 208.90071 101.55078 209.7207 L 111.42969 213.49023 C 112.99966 212.23036 115.66048 211.91945 117.23047 210.18945 C 118.17046 210.03945 118.64062 210.81938 118.64062 211.60938 C 118.48066 213.80925 115.98069 213.81016 114.7207 214.91016 C 123.66057 219.76002 138.72085 221.63999 148.7207 217.25 A 67.08 67.08 0 0 0 167.25 205.71094 C 164.25001 205.71094 160.78945 205.65023 158.43945 204.24023 A 1.7 1.7 0 0 1 159.06055 202.35938 C 163.06041 202.92925 165.06006 203.45929 169.91992 203.0293 L 177.7207 196.08984 C 171.67084 197.45984 164.92986 199.46094 159 199.46094 A 2.24 2.24 0 0 1 158.5293 197.46094 C 161.13917 196.90094 164.03095 196.46047 167.46094 195.73047 A 98.53 98.53 0 0 0 188.31055 189.31055 C 188.94054 187.58055 188.46946 185.23054 190.18945 184.31055 C 190.75945 184.11055 191.38977 184.3093 191.75977 184.7793 C 191.59977 186.02929 190.76086 187.29075 191.13086 188.39062 A 115.6 115.6 0 0 0 206.13086 182.26953 C 206.60086 177.56967 205.82031 171.76944 205.82031 166.43945 C 193.28059 175.83931 180.41987 184.31037 166.16016 190.74023 A 31.94 31.94 0 0 1 157.2207 193.86914 C 156.60071 193.39914 156.13016 192.29968 156.91016 191.67969 A 191.42 191.42 0 0 0 205.66016 162.83008 C 205.60352 162.03673 205.48987 161.26131 205.41797 160.47266 z M 308.25 170.25 L 308.25 291.15039 C 310.58148 292.18761 312.56119 292.75 314 292.75 C 315.43881 292.75 317.41852 292.18761 319.75 291.15039 L 319.75 280.95508 C 317.64329 280.45449 315.82865 279.81951 314.44727 278.92578 C 312.83637 277.8836 311.70682 276.47727 311.28711 274.80469 A 1.250125 1.250125 0 0 0 311.28711 274.80273 C 310.71578 272.51747 311.0021 270.2832 311.63086 268.4668 C 312.25962 266.65039 313.12996 265.24345 314.30664 264.45898 C 315.3815 263.73925 317.3605 263.00305 319.75 262.17383 L 319.75 170.25 L 308.25 170.25 z M 206.61914 185.2793 L 191.80078 191.33984 C 191.33078 193.33984 198.32077 194.12071 193.30078 195.7207 C 191.73079 194.78071 190.1607 194.15916 189.2207 192.2793 A 53 53 0 0 0 173.85938 203.46094 C 185.05908 204.26093 196.32032 203.79054 207.41016 202.06055 L 206.61914 185.2793 z M 322.25 187.47852 L 322.25 190.93555 C 323.74675 190.35229 325.25119 189.78721 326.86914 189.35938 C 326.07914 187.95938 323.57031 188.42047 322.32031 187.48047 C 322.29642 187.47871 322.2738 187.48052 322.25 187.47852 z M 330.31055 191.56055 C 327.55758 192.15385 324.83016 192.89754 322.25 193.92773 L 322.25 205.48242 C 325.43635 202.71895 329.31999 201.21476 333.60938 200.17969 C 333.91927 196.8897 331.61054 194.38043 330.31055 191.56055 z M 305.75 192.57227 C 304.00367 193.63023 302.26899 194.71034 300.5293 195.78906 L 300.51953 195.90039 C 295.51965 196.67039 290.16982 197.61039 284.83984 197.90039 C 267.76011 199.61038 253.01929 197.90039 235.93945 197.90039 C 226.99959 197.10039 219.32033 196.01086 210.23047 195.38086 L 210.53906 201.49023 C 213.67905 200.87024 216.96962 200.54926 220.09961 199.60938 C 220.72961 200.23926 221.67031 201.6093 220.57031 202.2793 C 217.75042 203.83929 213.51921 203.0593 210.69922 204.2793 C 210.37922 214.78915 213.99055 224.5092 215.56055 234.53906 L 235.7793 234.38086 C 235.6193 234.23086 235.77945 234.08008 235.93945 234.08008 L 236.88086 234.38086 L 236.88086 234.23047 C 239.70085 234.07047 244.08918 233.90961 247.53906 233.59961 L 247.53906 233.43945 C 273.16876 230.70957 293.4396 228.28952 304.93945 224.51953 C 305.20432 224.4628 305.47898 224.4219 305.75 224.375 L 305.75 192.57227 z M 140.85938 194.51367 C 142.96223 194.51813 145.0254 194.79492 146.90039 195.41992 C 147.84039 198.23991 149.09039 201.37977 148.15039 204.50977 C 144.2204 208.73972 136.2207 209.06093 131.2207 207.96094 C 127.62419 206.86199 127.76977 202.6482 127.46094 199.34961 L 127.96094 197.65039 C 131.41213 195.81477 136.23299 194.50367 140.85938 194.51367 z M 333.91016 203.16016 C 329.61736 204.26425 325.6102 205.94694 322.25 208.9043 L 322.25 220.21094 C 324.80661 218.8888 327.06493 217.03693 328.74023 214.16016 A 26.35 26.35 0 0 0 333.91016 203.16016 z M 207.35938 204.81055 A 74.9 74.9 0 0 1 195.28906 205.91016 L 195.33984 205.91992 L 191.16016 206.32031 C 183.48018 206.15029 178.7503 206.94992 170.73047 206.41992 C 160.86064 214.87976 152.22975 221.41992 137.58008 222.41992 L 135.76953 222.41992 C 127.3197 222.42992 118.9806 220.42077 111.4707 216.55078 C 103.16085 219.06077 96.109919 222.34977 87.330078 223.75977 C 80.120205 225.48962 72.279618 226.11008 64.759766 226.58008 C 65.849725 252.44958 65.849062 277.69136 65.539062 303.88086 C 65.539062 317.03068 68.359157 329.09939 72.539062 340.69922 C 79.128976 354.4989 88.849796 367.20008 103.26953 370.33008 C 110.7894 371.58008 117.84963 373.63016 125.68945 374.41016 C 135.82928 375.06016 145.98978 374.8493 156.09961 373.7793 C 159.5496 373.3093 162.9896 372.68094 166.43945 372.21094 C 183.99926 368.45094 200.43986 362.01965 210.17969 345.08984 C 228.35935 314.69035 219.57943 273.60932 213.93945 240.08984 C 211.42959 228.49016 207.19938 217.04023 207.35938 204.81055 z M 62.880859 209.67969 C 63.500859 214.67953 63.96962 219.24923 64.599609 223.94922 C 79.599344 223.15922 94.22989 220.18922 106.92969 214.85938 C 101.58976 212.97938 96.740148 210.15946 89.990234 210.93945 C 89.680255 212.81945 87.799198 213.93993 86.699219 215.16992 C 85.75923 215.47992 84.289766 214.68039 84.759766 213.90039 C 85.509725 212.08039 86.859531 211.9007 87.019531 210.4707 C 80.069658 211.1907 73.060264 211.05078 66.150391 210.05078 L 64.650391 209.94922 L 62.880859 209.67969 z M 353.49023 217.0293 L 353.5293 217.05078 C 353.5239 217.05383 353.51906 217.05748 353.51367 217.06055 C 354.10597 217.8978 355.0678 218.28924 354.93945 219.71094 C 351.98949 226.4109 344.67904 230.96907 337.28906 232.53906 A 1.26 1.26 0 0 1 335.67969 230.83984 C 339.98966 228.70987 344.93008 227.77038 348.08008 223.90039 C 350.18551 221.89474 351.02623 218.47618 353.51367 217.06055 C 353.50605 217.04977 353.49773 217.04023 353.49023 217.0293 z M 61.289062 226.60938 C 60.349073 226.76927 59.409062 226.92953 59.289062 228.01953 L 59.269531 228.01953 C 46.569694 255.92915 34.82057 284.30008 29.640625 315.17969 C 28.230666 328.65945 23.690797 346.8502 35.640625 356.58008 C 34.230666 352.18008 32.030656 347.31996 32.640625 341.83008 C 33.580624 341.36008 35.310234 341.83034 34.990234 343.24023 A 25.58 25.58 0 0 0 40.169922 357.66016 C 43.169889 358.60016 46.279241 357.82086 48.949219 356.88086 C 46.589241 352.02086 44.869688 346.88035 45.179688 340.73047 C 45.809677 340.43047 46.589688 339.95008 47.179688 340.58008 C 48.429666 342.30007 47.649141 344.81001 48.119141 347 C 49.379119 349.99999 49.530178 353.26958 51.410156 355.93945 C 60.970037 350.44958 59.719442 337.59916 58.939453 326.7793 C 59.559453 320.03932 62.069073 314.08918 62.539062 307.0293 L 62.539062 253.25977 C 62.389073 244.79979 62.069062 235.07925 61.289062 226.60938 z M 351.71094 231.89062 L 351.7207 231.91992 L 351.71875 231.91992 C 353.53277 237.66667 345.88262 239.58202 341.49023 240.92969 C 340.94024 240.35969 339.99024 240.32054 340.49023 239.31055 C 344.22022 238.71055 346.9504 236.63046 349.65039 234.23047 C 350.33012 233.36081 349.96113 231.67155 351.71875 231.91992 C 351.71561 231.90998 351.71413 231.90059 351.71094 231.89062 z M 322.25 255.54102 L 322.25 263 A 1.250125 1.250125 0 0 1 321.39453 264.18555 C 318.43328 265.17262 316.45163 266.03234 315.69531 266.53906 A 1.250125 1.250125 0 0 0 315.69336 266.54102 C 315.37005 266.75654 314.49038 267.84963 313.99414 269.2832 C 313.49809 270.71625 313.28487 272.48127 313.71289 274.19531 L 313.71289 274.19727 C 313.96345 275.19387 314.58378 276.0363 315.80469 276.82617 C 317.02628 277.61649 318.84547 278.2933 321.24609 278.77344 A 1.250125 1.250125 0 0 1 321.41992 278.83984 C 324.89709 279.0146 327.56119 277.69104 330.90039 274.08008 C 332.55036 271.9501 333.08036 266.04996 331.65039 263.5 L 331.58008 263.4707 C 329.34484 259.56199 326.24469 256.83338 322.25 255.54102 z M 305.75 257.36133 A 47.33 47.33 0 0 0 292.80078 264.15039 C 283.44095 271.42025 276.24019 282.62074 272.74023 294.56055 C 268.12033 309.05027 270.83038 326.08996 277.99023 338.50977 C 279.23838 340.44525 280.54958 342.29477 281.89648 344.09375 C 281.14777 335.43434 285.75176 321.25382 295.72266 301.55078 C 294.57454 299.85933 293.78552 297.92869 293.67969 295.69922 C 293.3995 287.75784 298.11599 279.48557 305.75 273.99805 L 305.75 257.36133 z M 258.14258 259.06055 C 258.59283 259.0635 259.06749 259.31089 259.58203 259.94141 C 259.5846 259.93756 259.58729 259.93354 259.58984 259.92969 L 259.58984 259.94922 C 259.58728 259.94606 259.5846 259.94455 259.58203 259.94141 C 258.63031 261.36588 256.88534 262.48359 255.44922 263.92969 C 251.44923 269.17966 247.44961 274.75948 246.84961 281.43945 C 246.37961 281.91945 245.73961 281.59961 245.09961 281.59961 C 244.09961 273.79964 250.03986 267.59935 254.33984 261.85938 C 255.65234 261.25938 256.78508 259.05164 258.14258 259.06055 z M 274.40039 260.39062 L 275.66992 260.55078 L 275.66992 261.78906 A 42 42 0 0 0 256.57031 287.92969 C 255.45032 288.40969 255.77031 287.92936 254.82031 287.60938 C 256.41031 276.14942 265.01043 265.16061 274.40039 260.39062 z M 409.36133 269.5957 C 408.72185 269.60705 408.09039 269.6563 407.4707 269.75 C 399.69086 270.98999 396.84069 275.78035 390.4707 281.99023 A 105.07 105.07 0 0 1 406.55078 286.92969 C 409.80078 283.92971 422.10969 276.92932 425.42969 275.10938 L 425.4707 275.08984 C 422.41679 272.96928 415.54281 269.48602 409.36133 269.5957 z M 430.86914 275.46094 A 78.57 78.57 0 0 0 400.03906 298.39062 C 399.55906 298.71062 398.4407 299.03061 397.9707 298.39062 C 398.36756 295.1652 400.98479 292.84044 402.76562 290.47461 C 394.37526 297.02602 389.94567 312.86939 389.5 320 C 389.30906 323.08396 390.54301 327.59177 392.75195 332.88672 C 392.32395 330.0059 391.04388 326.90761 392.68945 324.35938 L 393.68945 325.16016 C 394.95945 330.41005 396.07915 335.98982 398.61914 340.75977 C 404.35898 351.2696 412.92017 362.00939 422 368.69922 C 444.99966 368.41922 473.11009 359.54967 484.41992 345.83984 C 486.01992 328.17015 481.94992 310.11891 475.41992 295.11914 C 471.12009 285.5593 440.25897 274.83094 430.86914 275.46094 z M 370.86914 288.35547 C 363.98012 291.39323 357.24575 294.58068 350.35938 297.59961 C 344.99236 299.95226 339.55556 302.81999 333.9082 305.19922 C 352.67291 330.36931 367.78621 338.55546 379.24023 329.69922 C 380.61023 325.32924 380.74 320.39998 381 315.5 C 381.63155 303.55725 375.49216 295.65071 370.86914 288.35547 z M 367.81445 295.78516 C 370.34294 295.71492 372.64875 296.26922 374.25 297.73047 L 374.25 297.7793 A 9.19 9.19 0 0 1 375.99023 305.7793 C 372.80026 313.89926 366.11069 318.43946 358.4707 320.18945 C 355.60073 320.66945 351.62023 321.19038 349.24023 319.40039 A 8.35 8.35 0 0 1 346.05078 312.55078 C 346.62078 305.55081 352.37048 301.55077 357.98047 298.55078 C 360.94483 296.99829 364.56356 295.87547 367.81445 295.78516 z M 368.02734 299 C 367.33906 299.0075 366.62062 299.07992 365.89062 299.16992 C 360.32066 300.39992 353.66005 302.60057 349.83008 309.81055 C 348.52008 312.27053 348.9604 315.70094 351.65039 317.21094 C 355.80038 318.48093 359.60079 316.82078 362.80078 315.30078 C 362.80078 315.30078 361.54086 314.86031 361.13086 312.57031 C 360.72086 310.28032 362.97039 308.37031 364.40039 307.57031 C 366.47039 306.78032 369.21078 307.09962 369.80078 309.09961 C 371.80078 307.46962 373.53078 305.06967 372.80078 301.92969 L 372.83008 301.91992 C 371.87758 299.53493 370.09219 298.9775 368.02734 299 z M 459.08984 365.59961 C 448.42001 368.78961 434.11904 371.85016 421.85938 372.16016 C 417.24001 369.93737 416.74912 369.03975 414.28711 366.63477 C 406.33197 371.93917 348.9352 409.61843 337.45312 399.87109 C 338.78427 405.29302 340.84052 410.48351 343.92969 414.98047 C 352.36952 412.27047 363.64947 410.07031 373.5293 411.82031 C 377.66914 412.61031 382.43923 412.93016 385.94922 415.16016 C 386.57922 415.80016 385.47055 415.9593 385.31055 416.2793 C 375.60072 414.6793 365.25022 412.93 354.90039 415 A 8.37 8.37 0 0 1 357.59961 418 C 358.71961 420.07 357.12961 421.98016 356.00977 423.41016 C 359.82961 423.09016 363.18087 423.57031 365.88086 425.32031 C 367.79086 426.75031 369.94953 429.12961 370.01953 431.84961 C 370.22953 440.01944 363.40038 443.75961 358.40039 445.84961 C 360.63039 453.80944 363.37038 464.17056 360.15039 471.65039 C 361.58039 471.33039 368.91016 469.09961 368.91016 469.09961 C 379.02999 465.52961 387.09001 461.46047 397.08984 459.23047 C 398.20984 459.23047 400.28 458.42938 400.75 459.85938 C 400.41 461.61921 398.36015 461.29984 397.41016 462.08984 C 402.5 462.40984 409.67055 463.52969 415.56055 461.92969 C 414.73055 443.78003 408.05038 428.02013 400.56055 412.73047 C 400.56055 412.73047 399.17055 411.32961 400.56055 410.34961 C 401.95054 409.36961 402.2793 410.80078 402.2793 410.80078 A 149 149 0 0 1 414.2793 439.63086 C 418.48913 454.68052 418.34969 457.25111 418.92969 464.96094 C 425.00952 469.10077 432.92986 470.37094 440.92969 470.21094 A 54.82 54.82 0 0 1 441.88086 455.7207 C 444.57086 450.32087 447.62047 449.04055 452.23047 448.56055 C 454.76047 448.88055 457.32977 449.83055 458.75977 452.06055 A 10.57 10.57 0 0 1 463.06055 444.74023 C 466.40038 442.8304 469.27016 445.06086 471.66016 447.13086 C 471.50016 444.58086 471.82031 441.55078 473.57031 439.80078 L 466.57031 423.56055 C 460.20048 414.01072 455.1107 403.81905 447.4707 395.69922 C 446.9907 395.21922 446.51055 394.10086 447.31055 393.63086 C 449.06055 393.31086 450.48938 394.57938 451.60938 395.85938 C 462.07904 409.06904 471.35008 423.88064 477.08008 439.48047 C 482.48991 431.52064 482.64953 420.85062 482.01953 411.14062 C 479.14953 393.79096 470.22967 378.49944 459.08984 365.59961 z M 190.93945 367.75 C 178.70969 372.61 166.16944 376.68055 151.42969 377.31055 L 151.43945 377.25977 L 151.13086 377.88086 L 157.24023 437.30078 L 159.13086 459.71094 C 163.04085 460.65094 176.36962 461.28055 179.34961 460.81055 L 184.34961 460.81055 C 185.60961 456.42055 185.28966 451.55953 184.50977 447.01953 C 184.97976 446.38953 186.07922 446.69938 186.69922 446.85938 C 188.58921 451.08925 187.79992 456.25938 187.16992 460.85938 C 189.36992 460.69938 191.87962 461.17062 193.59961 460.39062 C 194.67961 456.25075 194.90047 451.91945 194.23047 447.68945 C 194.39047 446.90945 195.79938 446.90906 196.10938 447.53906 C 197.98927 450.97906 197.21008 456.16005 196.58008 459.91992 L 196.58008 460.39062 C 197.05008 460.09075 197.83094 460.39047 198.46094 460.23047 C 200.34093 456.31047 200.9707 451.45003 200.9707 446.91016 C 196.74082 442.68016 191.08952 440.63956 188.26953 434.67969 C 190.26953 412.41995 189.83946 389.21974 190.93945 367.75 z M 95.789062 371.30078 L 95.789062 371.32031 C 95.790362 371.32135 95.791669 371.32173 95.792969 371.32227 C 95.791569 371.31517 95.790462 371.30778 95.789062 371.30078 z M 95.792969 371.32227 C 100.34012 394.31538 102.69175 418.30752 106.14062 441.83984 L 105.83008 442.93945 L 96.419922 450.61914 A 39.9 39.9 0 0 0 97.990234 462.2207 L 99.560547 462.5293 A 36.76 36.76 0 0 1 99.560547 450.7793 C 99.870547 450.1493 100.96946 450.45914 101.43945 450.61914 C 102.21944 453.12914 101.59055 456.73083 102.06055 459.7207 C 100.65056 464.5707 106.13989 461.7193 108.33984 462.5293 C 107.86984 458.7693 106.92915 454.69917 107.86914 450.7793 C 112.40909 450.1493 108.95931 456.41969 110.5293 458.92969 C 110.5293 460.17969 111.16016 461.13047 111.16016 462.23047 C 116.80008 461.75047 122.91098 461.74984 128.71094 461.58984 L 128.71094 461.28906 C 129.18094 462.21906 131.22086 460.33985 132.63086 461.58984 C 133.89086 460.80984 135.93036 461.4407 137.49023 460.9707 C 138.59023 432.91109 137.17984 406.72867 137.33984 378.03906 C 134.19997 377.56906 130.74984 378.20016 128.08984 377.41016 C 124.16996 378.21016 120.4093 376.16031 115.85938 376.32031 C 109.12088 374.59068 102.06187 373.82087 95.792969 371.32227 z M 332.46094 402.79883 C 331.54094 402.77258 330.61483 402.92016 329.33984 403.16016 C 329.10984 404.15016 328.70933 406.50078 327.10938 407.30078 L 330.30078 407.93945 C 331.89077 408.42945 332.84016 410.33945 333.16016 411.93945 C 334.28014 418.93945 327.2693 421.65039 323.60938 425.15039 C 327.7393 435.18024 332.87933 446.55921 330.60938 457.78906 L 335.06055 455.88086 C 332.04058 445.37101 328.06092 433.27055 331.88086 421.9707 C 333.79083 418.31085 338.19926 417.61914 341.19922 415.86914 A 66.31 66.31 0 0 1 335.53906 403.5 L 335.55078 403.48047 C 334.29581 403.02547 333.38092 402.82513 332.46094 402.79883 z M 326.66992 403.18945 C 321.08998 403.34945 315.27997 405.40079 310.5 407.4707 L 309.80078 407.82031 A 14.47 14.47 0 0 1 314.48047 410.82031 L 318.7793 409.07031 C 321.84925 407.80031 325.5293 406.77922 326.7793 404.44922 L 326.74023 404.43945 C 327.40025 403.18945 326.66992 403.18945 326.66992 403.18945 z M 307.72266 409.5625 C 306.3947 409.54469 305.29053 410.73945 304.81055 411.93945 C 301.63058 419.73945 302.8698 430.74998 306.00977 438.33984 C 309.90969 447.7697 314.36069 458.42922 324.56055 459.69922 C 326.7805 459.87922 328.35922 458.45086 328.69922 455.88086 C 329.7192 444.001 323.85024 430.29908 317.07031 418.69922 L 317.10938 418.69922 C 315.10939 415.34922 312.28931 411.7793 309.10938 410.0293 C 308.63188 409.7093 308.16531 409.5685 307.72266 409.5625 z M 326.41797 409.75586 C 324.21164 409.7125 320.97799 410.40783 316.2793 412.74023 A 100.67 100.67 0 0 1 322.64062 422.92969 C 325.82682 420.21292 332.02123 417.82384 330.91992 411.94922 C 330.91992 411.94922 330.09518 409.82816 326.41797 409.75586 z M 351.26953 415.82812 C 347.15394 415.77213 341.81388 419.03274 338.73047 420.06055 C 342.23043 421.01055 344.7804 424.19906 347.32031 425.78906 L 347.33008 425.75 C 357.71998 421.11 355.33008 417.75 355.33008 417.75 C 354.30352 416.38031 352.88001 415.85012 351.26953 415.82812 z M 337.39844 421.97266 C 336.69683 421.93549 336.02117 422.07266 335.38086 422.41016 C 331.07091 427.13003 333.28069 442.41016 336.14062 450.41016 C 339.53059 459.94003 345.41005 473.33914 355.91992 472.11914 C 358.92992 471.09914 361.17913 463.41912 356.36914 448.35938 L 356.38086 448.32031 C 353.38118 438.977 344.18056 422.33196 337.39844 421.97266 z M 357.82227 425.64648 C 355.0928 425.6674 352.06045 426.38828 349.06055 428.01953 A 69.65 69.65 0 0 1 357.49023 443.61914 L 361.49023 441.55078 C 365.06023 439.36078 368.98062 435.50005 367.39062 430.41016 L 367.36914 430.41016 C 366.07539 427.52266 362.37129 425.61158 357.82227 425.64648 z M 474.41016 442.67969 A 20 20 0 0 0 477.41016 456.67969 L 478.21094 455.25 L 478.23047 455.25977 A 55.14 55.14 0 0 0 474.41016 442.67969 z M 466 446.33008 C 464.64 446.41008 463.39961 447.11094 462.59961 448.21094 C 459.25961 453.47083 462.1207 459.82969 463.7207 464.92969 C 468.0207 463.86969 471.51969 461.47958 475.17969 458.92969 L 475.23047 458.91016 C 474.00047 453.97016 471.56989 447.13008 466 446.33008 z M 451.24805 451.07617 C 449.82733 451.13654 448.41015 451.61328 447.16016 452.55078 C 442.22016 456.53078 443.01984 463.85011 443.33984 469.75 C 449.45984 468.75 455.52034 467.42 461.49023 465.75 A 92.32 92.32 0 0 1 458.93945 456.19922 L 458.93945 456.21094 C 457.51633 452.82157 454.37352 450.94337 451.24805 451.07617 z " />
</svg>
